<svg width="112" height="25" viewBox="0 0 112 25" fill="none" xmlns="http://www.w3.org/2000/svg">
<rect y="0.609375" width="112" height="24" rx="8" fill="url(#paint0_linear_14123_98906)"/>
<path d="M18.344 8.20937H15.44L13.796 13.9454L12.224 8.20937H9.248L8.684 16.6094H10.532L10.952 10.2134L12.692 16.6094H14.78L16.532 10.3214L17.048 16.6094H19.04L18.344 8.20937ZM24.4962 16.8494C27.0762 16.8494 28.8882 15.0254 28.8882 12.4214C28.8882 9.82938 27.0762 7.96937 24.4962 7.96937C21.9402 7.96937 20.1282 9.82938 20.1282 12.4214C20.1282 15.0254 21.9402 16.8494 24.4962 16.8494ZM24.4962 14.9414C23.1042 14.9414 22.2402 13.8734 22.2402 12.4334C22.2402 10.9934 23.0922 9.87737 24.4962 9.87737C25.9242 9.87737 26.7642 10.9934 26.7642 12.4334C26.7642 13.8734 25.9122 14.9414 24.4962 14.9414ZM32.9158 16.8614C34.9318 16.8614 36.1318 15.8174 36.1318 14.1614C36.1318 12.9134 35.4478 12.1454 33.8518 11.6294L32.9878 11.3534C32.3758 11.1134 32.0638 10.8854 32.0638 10.4654C32.0638 9.97337 32.4478 9.70937 33.2638 9.70937C34.1398 9.70937 34.9798 10.0214 35.7238 10.5494V8.70137C35.0158 8.28137 34.1158 7.95737 33.0478 7.95737C31.0798 7.95737 29.9278 8.95337 29.9278 10.5374C29.9278 11.7254 30.5518 12.4814 31.9918 12.9734L32.9758 13.2974C33.6838 13.5854 33.8878 13.8134 33.8878 14.2214C33.8878 14.7854 33.5038 15.0854 32.6878 15.0854C31.6918 15.0854 30.6718 14.6774 29.9278 14.1014V15.9734C30.8638 16.5854 31.8958 16.8614 32.9158 16.8614ZM43.4243 8.20937H36.6683V10.0814H39.0323V16.6094H41.0363V10.0814H43.4243V8.20937ZM47.2209 8.20937V16.6094H49.2369V13.8494H50.6289C52.5849 13.8494 53.7009 12.7094 53.7009 11.0774C53.7009 9.30137 52.5729 8.20937 50.6649 8.20937H47.2209ZM49.2369 12.3734V9.86537H50.3649C51.1329 9.86537 51.6369 10.2494 51.6369 11.0774C51.6369 11.9294 51.1329 12.3734 50.2449 12.3734H49.2369ZM58.7969 16.8494C61.3769 16.8494 63.1889 15.0254 63.1889 12.4214C63.1889 9.82938 61.3769 7.96937 58.7969 7.96937C56.2409 7.96937 54.4289 9.82938 54.4289 12.4214C54.4289 15.0254 56.2409 16.8494 58.7969 16.8494ZM58.7969 14.9414C57.4049 14.9414 56.5409 13.8734 56.5409 12.4334C56.5409 10.9934 57.3929 9.87737 58.7969 9.87737C60.2249 9.87737 61.0649 10.9934 61.0649 12.4334C61.0649 13.8734 60.2129 14.9414 58.7969 14.9414ZM64.5646 8.20937V16.6094H66.5806V13.8494H67.9726C69.9286 13.8494 71.0446 12.7094 71.0446 11.0774C71.0446 9.30137 69.9166 8.20937 68.0086 8.20937H64.5646ZM66.5806 12.3734V9.86537H67.7086C68.4766 9.86537 68.9806 10.2494 68.9806 11.0774C68.9806 11.9294 68.4766 12.3734 67.5886 12.3734H66.5806ZM75.6847 16.8494C77.7727 16.8494 79.2607 15.5294 79.2607 13.3934V8.20937H77.2447V13.2014C77.2447 14.3174 76.5967 14.8934 75.6847 14.8934C74.7607 14.8934 74.1487 14.3174 74.1487 13.2014V8.20937H72.1327V13.3934C72.1327 15.5294 73.5967 16.8494 75.6847 16.8494ZM83.0338 8.20937H81.0178V16.6094H86.5978V14.7614H83.0338V8.20937ZM95.0534 16.6094L92.3774 8.20937H89.5934L86.9414 16.6094H89.0294L89.5214 14.8934H92.4254L92.9294 16.6094H95.0534ZM90.9614 9.93737L91.9694 13.3694H89.9654L90.9614 9.93737ZM100.551 13.2254C102.039 13.0454 102.819 12.0974 102.819 10.8014C102.819 9.19337 101.655 8.20937 99.8309 8.20937H96.1349V16.6094H98.1509V13.0694L100.635 16.6094H103.047L100.551 13.2254ZM98.1509 9.90137H99.4469C100.239 9.90137 100.659 10.2974 100.659 10.9934C100.659 11.7134 100.203 12.1454 99.3029 12.1454H98.1509V9.90137Z" fill="white"/>
<defs>
<linearGradient id="paint0_linear_14123_98906" x1="0" y1="0.609375" x2="99.8548" y2="41.9472" gradientUnits="userSpaceOnUse">
<stop stop-color="#8547C6"/>
<stop offset="0.520833" stop-color="#B845C1"/>
<stop offset="1" stop-color="#AB5D8A"/>
</linearGradient>
</defs>
</svg>
