<svg width="100" height="24" viewBox="0 0 100 24" fill="none" xmlns="http://www.w3.org/2000/svg">
<g clip-path="url(#clip0_14123_98765)">
<path d="M91.1452 0H78.7325C78.4158 0 78.1386 0.237821 78.099 0.554914L77.5051 4.67713C77.4457 5.05367 77.7427 5.41041 78.1386 5.41041H80.4153C80.6529 5.41041 80.7914 5.64822 80.7122 5.84641C80.4351 6.50041 80.2173 7.23369 80.1183 8.00661L78.9701 15.9934C78.2178 21.3443 82.6523 24 87.5026 24C92.5706 24 97.5594 21.3245 98.3117 15.9934L99.46 8.00661C100.173 2.77457 95.8767 0.11891 91.1452 0ZM93.5209 8.02642L92.3726 15.8348C92.1153 17.678 90.0366 18.5301 88.1163 18.5301C86.3346 18.5301 84.5924 17.678 84.83 15.9934L85.9782 8.00661C86.2356 6.26259 88.3143 5.37077 90.2346 5.37077C92.1549 5.37077 93.798 6.26259 93.5209 8.02642Z" fill="#060607"/>
<path d="M22.2714 0H17.6389C17.3221 0 17.045 0.237821 17.0054 0.554914L15.58 10.7217V10.7415L15.6394 14.6656C15.6394 14.7448 15.58 14.8241 15.5008 14.8439L14.1744 10.1073V10.0875L10.0368 0.396367C9.93785 0.158547 9.70029 0 9.44292 0H4.75104C4.43429 0 4.15713 0.237821 4.11754 0.554914L0.989619 22.9496C0.930228 23.346 1.24698 23.6829 1.62312 23.6829H6.29521C6.61196 23.6829 6.88912 23.4451 6.92871 23.128L8.15612 14.2296V14.2097L8.09673 9.65153L8.23531 9.61189L9.64089 14.3485V14.3683L13.5013 23.3064C13.6003 23.5442 13.8379 23.7027 14.0952 23.7027H19.1632C19.48 23.7027 19.7571 23.4649 19.7967 23.1478L22.9247 0.753097C22.9841 0.356731 22.6673 0 22.2714 0Z" fill="#060607"/>
<path d="M32.408 0H27.7359C27.4192 0 27.142 0.237821 27.1024 0.554914L23.9745 22.9298C23.9151 23.3262 24.2318 23.6631 24.608 23.6631H29.2801C29.5968 23.6631 29.874 23.4253 29.9136 23.1082L33.0415 0.733279C33.1009 0.356731 32.8039 0 32.408 0Z" fill="#060607"/>
<path d="M54.3229 0H36.8422C36.5254 0 36.2483 0.237821 36.2087 0.554914L35.595 4.73658C35.5356 5.13295 35.8325 5.46986 36.2285 5.46986H41.1183C41.5143 5.46986 41.8112 5.80677 41.7518 6.20314L39.4554 22.9298C39.396 23.3262 39.7127 23.6631 40.0889 23.6631H44.8204C45.1371 23.6631 45.4143 23.4253 45.4539 23.1082L47.8097 6.02477C47.8493 5.70768 48.1265 5.46986 48.4432 5.46986H53.6894C54.0062 5.46986 54.2833 5.23204 54.3229 4.91495L54.9366 0.733279C55.0356 0.356731 54.7188 0 54.3229 0Z" fill="#060607"/>
<path d="M67.6858 0H58.7969C58.4802 0 58.203 0.237821 58.1634 0.554914L55.0355 22.9298C54.9761 23.3262 55.2929 23.6631 55.669 23.6631H60.4005C60.7172 23.6631 60.9944 23.4253 61.034 23.1082L61.9447 16.4294C61.9645 16.2709 62.103 16.1519 62.2614 16.1519H62.8751C62.9939 16.1519 63.0929 16.2114 63.1523 16.3105L67.666 23.3856C67.7848 23.564 67.9827 23.6829 68.2203 23.6829H74.0802C74.5949 23.6829 74.9117 23.0884 74.6147 22.6722L69.8635 15.8745C69.7447 15.7159 69.8041 15.4781 69.9822 15.3988C73.0112 13.9125 74.7731 12.4063 75.3472 8.16515C76.0203 2.61602 72.5558 0 67.6858 0ZM69.3091 8.26425C69.1508 9.63171 68.0817 10.9992 66.2406 10.9992H63.4888C63.0929 10.9992 62.7959 10.6424 62.8553 10.2659C62.9147 9.88935 63.4492 6.14368 63.4492 6.14368C63.4888 5.82659 63.766 5.58877 64.0827 5.58877H67.0325C68.7746 5.58877 69.4873 6.83733 69.3091 8.26425Z" fill="#060607"/>
</g>
<defs>
<clipPath id="clip0_14123_98765">
<rect width="100" height="24" fill="white"/>
</clipPath>
</defs>
</svg>
