<svg width="205" height="317" viewBox="0 0 205 317" fill="none" xmlns="http://www.w3.org/2000/svg">
<path d="M157.097 170.425L175.5 209.998L152.035 214.056C139.711 214.861 125.958 212.653 113.679 208.088C111.315 207.216 109 206.239 106.776 205.169C103.691 203.764 101.195 201.323 99.722 198.27C95.2854 189.175 100.183 176.094 110.027 174.9C111.767 174.694 113.53 174.836 115.214 175.317C117.947 176.184 120.769 176.741 123.626 176.977C127.41 177.276 131.217 177.097 134.957 176.443L136.846 176.111C142.518 174.999 148.212 173.127 154.25 171.269C155.188 170.969 156.137 170.688 157.097 170.425Z" fill="#FFD997"/>
<path d="M114.716 170.651C108.485 168.219 101.491 163.376 96.104 170.03C92.3222 174.358 90.2979 180.34 87.9609 185.504C86.215 189.373 84.6608 194.656 87.2601 198.299C90.9459 203.108 102.155 207.879 108.231 208.651C117.985 209.939 127.962 198.201 127.945 187.227C127.746 179.503 120.975 173.067 114.716 170.651Z" fill="#FFF2A6"/>
<path d="M64.7296 140.816C66.7985 141.756 66.9903 143.843 69.7316 146.801C72.473 149.759 82.3249 157.75 87.4964 161.017C92.668 164.283 98.0951 167.357 103.558 170.183C110.669 173.872 112.998 177.194 111.892 184.557C111.092 189.791 106.364 196.789 101.289 198.022C96.2137 199.255 92.2375 196.416 84.7733 192.272C63.8465 180.586 51.8414 167.297 46.5859 156.31C44.5837 152.116 43.4431 146.274 45.9644 142.268C48.4857 138.262 52.84 137.133 56.7935 139.873C57.8877 140.625 59.2236 142.2 60.5052 141.79C61.078 141.627 62.3538 139.801 64.7296 140.816Z" fill="url(#paint0_linear_14123_104010)"/>
<path d="M218.698 135.554L235.503 163.059L207.5 261.499C202.647 249.519 149.747 185.79 150.042 173.616L154.25 171.269L211.36 139.626L211.387 139.61L216.019 137.041L218.698 135.554Z" fill="#423D80"/>
<path d="M254.302 151.572L224.485 169.79C223.659 169.173 222.834 168.557 222.053 167.951C212.314 160.45 204.013 151.512 209.931 141.507C210.322 140.82 210.803 140.187 211.359 139.625L211.387 139.609C212.643 138.313 214.255 137.419 216.019 137.04C217.119 136.773 218.248 136.648 219.379 136.668C227.97 136.725 240.525 143.027 254.302 151.572Z" fill="#FFD997"/>
<path d="M193.621 151.809L189.056 170.327L184.799 187.574C180.412 185.286 176.242 181.519 172.795 177.834C169.59 174.412 166.661 170.743 164.035 166.859L193.621 151.809Z" fill="#FFD997"/>
<path d="M164.035 166.859L193.621 151.809L189.056 170.327C183.936 174.726 178.133 177.337 172.795 177.834C169.59 174.412 166.661 170.743 164.035 166.859Z" fill="url(#paint1_linear_14123_104010)"/>
<path d="M201.473 140.323C201.473 140.323 201.505 140.864 201.512 141.793L200.831 140.678L201.473 140.323Z" fill="url(#paint2_linear_14123_104010)"/>
<path d="M144.014 199.828C143.807 199.948 143.577 200.021 143.34 200.044C143.102 200.067 142.862 200.038 142.637 199.959C142.249 199.801 141.936 199.499 141.765 199.117C141.594 198.734 141.577 198.3 141.718 197.905C145.027 189.195 137.415 180.956 135.029 178.641C134.848 178.505 134.697 178.333 134.588 178.135C134.478 177.937 134.412 177.718 134.394 177.492C134.375 177.267 134.405 177.04 134.481 176.827C134.558 176.614 134.678 176.419 134.835 176.256C134.993 176.093 135.183 175.966 135.393 175.882C135.603 175.798 135.829 175.76 136.055 175.771C136.281 175.781 136.502 175.839 136.704 175.942C136.906 176.044 137.084 176.188 137.225 176.365C139.97 179.022 148.674 188.499 144.674 199.013C144.55 199.35 144.318 199.637 144.014 199.828Z" fill="#FFC257"/>
<path d="M146.24 80.5909L126.282 100.332C126.282 100.332 122.799 97.566 118.041 93.4486C114.767 90.6248 106.812 81.6096 99.6769 73.4472C93.6265 66.5262 95.2439 55.6154 103.088 50.8225C108.037 47.7989 114.206 48.1543 118.32 52.2418C126.933 60.7992 139.403 74.5834 145.359 79.8215C145.399 79.8629 145.445 79.8976 145.496 79.9243C145.657 80.0576 145.808 80.2026 145.948 80.3581C146.069 80.4337 146.119 80.5153 146.24 80.5909Z" fill="#FF78B9"/>
<path d="M139.459 86.0046L130.858 92.9032C129.516 91.9298 127.954 90.7176 126.237 89.3753C121.329 85.4399 111.829 75.3168 105.263 68.4974C102.812 65.9517 103.311 61.7271 106.326 59.8847C108.201 58.7392 110.586 58.8402 112.255 60.2695C119.624 66.5819 131.263 78.7538 137.134 83.9127C137.955 84.6443 138.742 85.3214 139.459 86.0046Z" fill="#FFAED7"/>
<path d="M149.869 82.1439L174.749 69.1429C174.749 69.1429 173.175 64.9827 170.701 59.1977C169.008 55.219 162.842 44.8979 157.239 35.6162C152.488 27.7462 141.603 25.9655 134.65 31.9786C130.263 35.772 128.724 41.7564 131.365 46.9194C136.894 57.7284 146.228 73.8032 149.405 81.0705C149.432 81.1213 149.451 81.176 149.461 81.2328C149.539 81.4268 149.631 81.6148 149.736 81.7952C149.772 81.9334 149.834 82.0058 149.869 82.1439Z" fill="#FF78B9"/>
<path d="M157.089 77.3335L166.279 71.2414C165.76 69.6668 165.081 67.8093 164.325 65.7654C162.07 59.8926 155.32 47.7613 150.822 39.4315C149.144 36.322 144.968 35.5109 142.295 37.8224C140.633 39.2596 140.003 41.5621 140.857 43.5866C144.626 52.5279 152.677 67.32 155.804 74.4827C156.251 75.487 156.657 76.4432 157.089 77.3335Z" fill="#FFAED7"/>
<path d="M205.832 95.1433C207.64 91.9557 208.658 88.381 208.8 84.7189C208.942 81.0568 208.203 77.414 206.647 74.0962C205.426 71.4643 203.688 69.1047 201.537 67.1577C199.386 65.2107 196.866 63.7159 194.125 62.7621C191.385 61.8084 188.481 61.4152 185.586 61.6059C182.691 61.7967 179.864 62.5674 177.273 63.8723L113.473 95.755C103.027 100.979 98.4571 114.046 103.226 125.031C106.195 131.847 112.098 136.311 118.653 137.499C112.574 144.427 110.732 154.743 114.682 163.837C119.952 176.01 133.628 181.516 145.225 176.037L217.489 142.046C229.708 136.3 234.86 121.495 229.013 109.113C226.978 104.743 223.685 101.079 219.555 98.5899C215.425 96.1013 210.647 94.9012 205.832 95.1433Z" fill="#FF78B9"/>
<path d="M175.929 104.28C176.216 100.841 174.942 97.9266 173.082 97.7713C171.222 97.6159 169.481 100.278 169.194 103.717C168.906 107.156 170.181 110.07 172.041 110.226C173.901 110.381 175.642 107.719 175.929 104.28Z" fill="black"/>
<path d="M147.95 122.52C149.154 121.093 147.992 118.132 145.355 115.906C142.718 113.68 139.605 113.031 138.4 114.457C137.196 115.883 138.358 118.844 140.995 121.07C143.632 123.297 146.746 123.946 147.95 122.52Z" fill="black"/>
<path d="M175.289 124.527C175.497 126.641 175.005 129.259 173.773 131.768C172.202 135.006 169.797 137.186 167.609 137.701C166.038 138.249 163.862 138.234 161.587 137.569C161.072 137.398 160.584 137.211 160.079 136.996C155.849 135.209 152.709 132.271 153.821 129.2C154.934 126.129 158.413 126.992 161.1 127.293C161.909 127.39 162.73 127.267 163.475 126.937C164.22 126.607 164.862 126.081 165.334 125.416C167.129 122.974 169.676 119.438 172.85 120.413C174.25 121.052 175.082 122.598 175.289 124.527Z" fill="#9E0960"/>
<path d="M167.609 137.701C166.039 138.249 163.862 138.234 161.588 137.569C161.868 133.624 164.726 129.375 169.336 126.707C171.171 125.625 173.189 124.886 175.289 124.527C175.498 126.641 175.005 129.259 173.773 131.768C172.202 135.007 169.798 137.186 167.609 137.701Z" fill="#EB459F"/>
<defs>
<linearGradient id="paint0_linear_14123_104010" x1="104.809" y1="192.856" x2="48.8234" y2="140.955" gradientUnits="userSpaceOnUse">
<stop stop-color="#EB459F"/>
<stop offset="0.23" stop-color="#F154A7"/>
<stop offset="0.71" stop-color="#FB6EB4"/>
<stop offset="1" stop-color="#FF78B9"/>
</linearGradient>
<linearGradient id="paint1_linear_14123_104010" x1="189.012" y1="176.003" x2="174.571" y2="152.367" gradientUnits="userSpaceOnUse">
<stop stop-color="#EB459F"/>
<stop offset="0.42" stop-color="#F45CAB"/>
<stop offset="1" stop-color="#FF78B9"/>
</linearGradient>
<linearGradient id="paint2_linear_14123_104010" x1="741.496" y1="326.676" x2="736.787" y2="318.969" gradientUnits="userSpaceOnUse">
<stop stop-color="#EB459F"/>
<stop offset="0.42" stop-color="#F45CAB"/>
<stop offset="1" stop-color="#FF78B9"/>
</linearGradient>
</defs>
</svg>
