<svg width="222" height="110" viewBox="0 0 222 110" fill="none" xmlns="http://www.w3.org/2000/svg">
<g clip-path="url(#clip0_14847_21145)">
<path d="M211.966 57.125H10.0339C4.49233 57.125 0 61.6022 0 67.125V99.9875C0 105.51 4.49233 109.987 10.0339 109.987H211.966C217.508 109.987 222 105.51 222 99.9875V67.125C222 61.6022 217.508 57.125 211.966 57.125Z" fill="#E3E5E8"/>
<path d="M65.9707 11C64.8869 10.2976 63.96 9.38009 63.2479 8.30475C62.5358 7.22941 62.0537 6.01931 61.8317 4.75L61.2046 0.375C61.2046 0.275544 61.165 0.180161 61.0944 0.109835C61.0239 0.0395088 60.9281 0 60.8284 0V0C60.5775 0 60.4521 0.125 60.3267 0.375L59.6995 4.75C59.4997 6.01147 59.0399 7.21802 58.3492 8.29368C57.6584 9.36934 56.7516 10.2908 55.686 11L55.0589 11.375C54.9334 11.375 54.9334 11.625 54.9334 11.75C54.9277 11.8177 54.9358 11.8859 54.9574 11.9504C54.979 12.0149 55.0135 12.0743 55.0589 12.125L55.686 12.5C56.7623 13.1976 57.6771 14.1158 58.3691 15.1936C59.0612 16.2713 59.5148 17.4837 59.6995 18.75L60.3267 23.125C60.4521 23.25 60.5775 23.5 60.8284 23.5C60.9148 23.4688 60.9933 23.4191 61.0584 23.3542C61.1234 23.2894 61.1733 23.2112 61.2046 23.125L61.8317 18.75C62.0388 17.4757 62.5148 16.2597 63.2283 15.1824C63.9418 14.105 64.8765 13.1907 65.9707 12.5L66.4724 12.125L66.7233 11.75C66.7233 11.625 66.5978 11.375 66.4724 11.375L65.9707 11Z" fill="#FFF48C"/>
<path d="M153.767 14.25C153.233 13.9271 152.776 13.491 152.429 12.9726C152.082 12.4542 151.854 11.8661 151.761 11.25L151.51 9.125H151.008L150.757 11.25C150.664 11.8661 150.436 12.4542 150.089 12.9726C149.742 13.491 149.285 13.9271 148.75 14.25H148.5V14.5C148.5 14.625 148.5 14.625 148.625 14.625L148.876 14.875C149.41 15.1979 149.867 15.634 150.214 16.1524C150.561 16.6708 150.789 17.2589 150.883 17.875L151.133 20H151.635L151.886 17.875C151.979 17.2589 152.208 16.6708 152.554 16.1524C152.901 15.634 153.358 15.1979 153.893 14.875L154.144 14.625C154.177 14.625 154.209 14.6118 154.232 14.5884C154.256 14.5649 154.269 14.5332 154.269 14.5V14.25H153.767Z" fill="#66BCFF"/>
<path d="M160.919 79.375H70.2373V103.25H171.454C170.089 94.5128 166.458 86.2827 160.919 79.375Z" fill="#78DF8B"/>
<path d="M172.328 103.125H170.572C169.115 94.6274 165.535 86.6319 160.162 79.8752C160.037 79.6839 159.981 79.4555 160.004 79.2281C160.026 79.0006 160.127 78.7879 160.288 78.6252C160.48 78.5 160.709 78.4441 160.937 78.4669C161.165 78.4896 161.379 78.5896 161.542 78.7502C167.166 85.7771 170.88 94.1283 172.328 103V103.125Z" fill="#5B59A4"/>
<path d="M107.99 4.75005C139.722 3.50005 160.166 32.375 156.529 68.125C168.695 74.125 165.81 79.5001 163.678 82.3751C161.546 85.2501 149.756 85.3751 143.234 82.3751C138.719 86.2501 133.702 85.8751 130.691 83.6251C124.797 88.0001 116.142 94.875 110.498 83.875C106.234 92.625 98.7084 93.2501 94.5694 84.1251C92.061 90.7501 86.5423 91.625 81.5254 89.125C80.0169 88.3313 78.7188 87.1924 77.7377 85.8017C76.7565 84.411 76.1203 82.8083 75.8813 81.1251C71.9932 82.7501 68.7321 81.875 66.7254 78.875C64.7186 75.875 66.3491 71.5 66.3491 71.5C56.1898 69.1251 57.1932 59.625 66.2237 58.375C62.3355 29.25 77.6372 6.12505 107.99 4.75005Z" fill="#FFB55C"/>
<path d="M102.22 91.625H102.094C99.2093 91.5 96.5754 89.625 94.5687 86.125C93.6237 88.1828 91.9154 89.7957 89.8026 90.625C88.3912 91.1018 86.8983 91.2922 85.412 91.1848C83.9257 91.0775 82.4759 90.6746 81.1483 90C79.6726 89.196 78.3843 88.0898 77.3683 86.754C76.3523 85.4183 75.6315 83.8833 75.2534 82.25C71.3653 83.5 68.1043 82.5 66.0975 79.25C65.4887 78.1781 65.0978 76.9971 64.9471 75.7746C64.7965 74.552 64.889 73.3119 65.2195 72.125C59.9517 70.5 58.0704 67.125 58.1958 64.5C58.3212 61.875 60.5788 58.625 65.3449 57.625C63.3381 42.25 66.85 28.5 75.0026 18.75C83.1551 9.00001 94.067 4.50001 107.989 3.87501C114.445 3.51899 120.901 4.57671 126.904 6.97379C132.906 9.37088 138.308 13.0491 142.731 17.75C154.02 29.75 159.287 47.875 157.406 67.625C162.925 70.375 165.935 73.375 166.562 76.75C166.724 77.8774 166.603 79.0274 166.209 80.0965C165.815 81.1656 165.16 82.1203 164.304 82.875C160.04 87.375 149.63 86 143.358 83.375C138.843 87 133.952 86.625 130.816 84.625H130.691C126.552 87.625 121.284 91.5 116.392 90.25C113.895 89.538 111.778 87.8771 110.497 85.625C108.24 89.5 105.355 91.625 102.22 91.625ZM94.5687 83.25C94.9449 83.25 95.1958 83.5 95.4466 83.875C97.2026 87.625 99.5856 89.875 102.22 89.875C104.979 89.875 107.738 87.5 109.745 83.5C109.745 83.3011 109.824 83.1103 109.965 82.9697C110.106 82.829 110.298 82.75 110.497 82.75C110.697 82.75 110.888 82.829 111.03 82.9697C111.171 83.1103 111.25 83.3011 111.25 83.5C112.755 86.5 114.636 88.25 116.769 88.75C120.908 89.75 125.799 86.125 129.687 83.25L130.189 82.875C130.355 82.7622 130.552 82.7018 130.753 82.7018C130.955 82.7018 131.151 82.7622 131.318 82.875C133.701 84.75 138.216 85.5 142.731 81.625C142.862 81.5462 143.007 81.4945 143.158 81.473C143.308 81.4515 143.462 81.4607 143.609 81.5C150.006 84.5 159.789 85.25 163.175 81.75C163.79 81.1327 164.256 80.3845 164.538 79.5617C164.821 78.739 164.912 77.8631 164.806 77C164.304 74.25 161.294 71.375 156.152 68.875C155.988 68.7985 155.852 68.6734 155.762 68.5167C155.672 68.3601 155.633 68.1796 155.65 68C157.657 48.625 152.514 30.75 141.352 19C137.13 14.449 131.948 10.8885 126.179 8.5756C120.409 6.26266 114.197 5.25489 107.989 5.62501C94.6941 6.25001 83.6568 11.125 76.3822 19.875C69.1076 28.625 65.0941 43 67.1009 58.25C67.2263 58.75 66.85 59.125 66.3483 59.25C62.0839 59.75 60.0771 62.375 59.9517 64.5C59.8263 66.625 61.5822 69.5 66.5992 70.625L67.1009 71.125C67.1912 71.3207 67.2342 71.5348 67.2263 71.75C66.8135 72.8132 66.6228 73.9491 66.6659 75.0883C66.7091 76.2275 66.9851 77.3459 67.4771 78.375C69.2331 81.125 71.9924 81.75 75.6297 80.375H76.3822C76.5027 80.4269 76.6037 80.5151 76.6712 80.6272C76.7387 80.7393 76.7693 80.8697 76.7585 81C76.9697 82.5469 77.5459 84.0218 78.4398 85.3038C79.3337 86.5858 80.5198 87.6383 81.9009 88.375C83.0002 88.9856 84.217 89.357 85.4709 89.4647C86.7248 89.5725 87.9874 89.4141 89.1754 89C91.1822 88.25 92.6873 86.5 93.8161 83.875C93.9415 83.5 94.1924 83.375 94.5687 83.25Z" fill="#5B59A4"/>
<path d="M123.291 56.625C127.862 56.625 131.569 52.9314 131.569 48.375C131.569 43.8187 127.862 40.125 123.291 40.125C118.719 40.125 115.013 43.8187 115.013 48.375C115.013 52.9314 118.719 56.625 123.291 56.625Z" fill="#5B59A4"/>
<path d="M80.6466 52.375C85.2184 52.375 88.9246 48.6813 88.9246 44.125C88.9246 39.5686 85.2184 35.875 80.6466 35.875C76.0748 35.875 72.3687 39.5686 72.3687 44.125C72.3687 48.6813 76.0748 52.375 80.6466 52.375Z" fill="#5B59A4"/>
<path d="M100.587 40.1245C111.248 40.9995 111.498 43.1245 111.248 45.1245C110.997 47.1245 107.485 51.3745 101.59 58.2495C100.085 59.9995 98.4544 59.8745 96.8239 56.6245C94.7036 52.6355 92.9813 48.4488 91.6815 44.1245C90.5527 40.4995 92.4341 39.3745 100.587 40.1245Z" fill="#FFF48C"/>
<path d="M82.0268 39.2499L82.5285 42.2499L85.6641 42.4999C85.7794 42.4835 85.8968 42.4898 86.0096 42.5187C86.1225 42.5475 86.2285 42.5981 86.3217 42.6678C86.4148 42.7374 86.4933 42.8247 86.5527 42.9246C86.612 43.0244 86.651 43.135 86.6675 43.2499C86.684 43.3648 86.6776 43.4818 86.6487 43.5943C86.6198 43.7067 86.5689 43.8124 86.499 43.9052C86.4292 43.9981 86.3416 44.0763 86.2414 44.1354C86.1412 44.1946 86.0302 44.2335 85.915 44.2499L83.2811 45.7499L83.9082 48.7499C83.9923 48.946 84.0017 49.166 83.9345 49.3686C83.8673 49.5711 83.7282 49.7422 83.5433 49.8497C83.3584 49.9572 83.1405 49.9936 82.9305 49.9522C82.7205 49.9108 82.533 49.7944 82.4031 49.6249L80.1455 47.4999L77.5116 48.9999C77.3499 49.1004 77.1599 49.1457 76.9701 49.1291C76.7804 49.1125 76.6012 49.0348 76.4596 48.9078C76.318 48.7808 76.2217 48.6114 76.1852 48.4251C76.1487 48.2387 76.174 48.0456 76.2573 47.8749L77.5116 45.1249L75.2539 42.9999C74.5014 42.4999 75.0031 41.3749 76.0065 41.4999L79.0166 41.7499L80.2709 38.9999C80.3781 38.8528 80.5236 38.7377 80.6916 38.6669C80.8596 38.5961 81.0438 38.5722 81.2244 38.5979C81.405 38.6237 81.5751 38.6979 81.7165 38.8128C81.8579 38.9277 81.9652 39.0788 82.0268 39.2499Z" fill="white"/>
<path d="M123.291 43.3751L124.545 46.1251L127.555 45.7501C127.742 45.7557 127.923 45.813 128.078 45.9156C128.234 46.0181 128.358 46.1618 128.436 46.3306C128.514 46.4994 128.544 46.6865 128.521 46.871C128.498 47.0555 128.424 47.2301 128.308 47.3751L126.05 49.3751L127.304 52.1251C127.471 52.2909 127.564 52.5157 127.564 52.7501C127.564 52.9845 127.471 53.2093 127.304 53.3751C127.222 53.4572 127.124 53.5223 127.017 53.5667C126.909 53.6111 126.794 53.634 126.677 53.634C126.442 53.634 126.217 53.5409 126.05 53.3751L123.416 51.8751L121.159 53.8751C121.029 54.0446 120.841 54.1611 120.631 54.2025C120.421 54.2438 120.203 54.2074 120.018 54.0999C119.834 53.9924 119.694 53.8213 119.627 53.6188C119.56 53.4163 119.569 53.1962 119.654 53.0001L120.155 50.1251L117.521 48.6251C117.376 48.5091 117.265 48.355 117.202 48.1799C117.14 48.0049 117.127 47.8158 117.166 47.6341C117.205 47.4523 117.295 47.285 117.424 47.151C117.553 47.0169 117.717 46.9214 117.898 46.8751L120.908 46.5001L121.535 43.6251C121.518 43.5102 121.525 43.3932 121.554 43.2807C121.583 43.1683 121.634 43.0626 121.703 42.9698C121.773 42.8769 121.861 42.7987 121.961 42.7395C122.061 42.6804 122.172 42.6415 122.287 42.6251C122.403 42.6087 122.52 42.6151 122.633 42.6439C122.746 42.6727 122.852 42.7233 122.945 42.793C123.038 42.8626 123.117 42.9499 123.176 43.0498C123.235 43.1496 123.274 43.2602 123.291 43.3751Z" fill="white"/>
<path d="M119.152 60.5001C123.04 52.7501 128.057 48.6251 137.84 49.0001L126.552 59.3751L119.152 60.5001Z" fill="#FFB55C"/>
<path d="M71.6138 49.0003C78.7629 47.5003 85.4104 47.5003 88.1697 54.7503L73.1189 51.5003L71.6138 49.0003Z" fill="#FFB55C"/>
<path d="M161.418 103.25C160.917 89.3748 154.269 80.7498 149.252 74.3748C144.235 67.9998 141.601 65.6248 140.849 62.2498C140.096 58.8748 140.096 56.4998 137.337 56.6248C134.578 56.7498 129.811 58.6248 127.679 64.8748C125.547 71.1248 124.795 76.7498 124.544 84.6248C124.293 92.4998 124.042 103.25 124.042 103.25H161.418Z" fill="#78DF8B"/>
<path d="M162.294 103.125H160.538C160.037 89.6251 153.515 81.2501 148.498 75.0001C147.369 73.5001 146.366 72.1251 145.362 71.0001C142.477 67.3751 140.596 65.2501 139.969 62.5001L139.593 60.7501C138.966 58.0001 138.715 57.5001 137.335 57.5001C135.955 57.5001 130.562 59.2501 128.555 65.1251C126.549 71.0001 125.671 77.5001 125.42 84.6251C125.169 89.3751 125.044 97.6251 124.918 103.125H123.288C123.288 97.6251 123.413 89.3751 123.664 84.5001C123.727 77.7072 124.827 70.9634 126.925 64.5001C129.183 57.8751 134.45 55.8751 137.21 55.7501C139.969 55.6251 140.721 57.8751 141.223 60.3751L141.599 62.0001C142.227 64.3751 143.983 66.5001 146.742 70.0001L149.877 73.8751C154.644 80.0001 161.793 89.0001 162.294 103.125Z" fill="#5B59A4"/>
<path d="M82.1518 86.375C82.2772 79.5 84.284 71.125 84.1586 67.25C84.3401 63.8833 83.318 60.5615 81.2738 57.875C78.8908 54.75 75.5043 53.75 72.8704 54.75C70.2365 55.75 71.867 59 69.3586 63C63.0874 72.75 51.6738 79.375 52.0501 103.25H87.1687C85.0365 98.125 82.1518 93.125 82.1518 86.375Z" fill="#78DF8B"/>
<path d="M84.7844 97.875C84.4081 98.125 83.9064 97.875 83.6556 97.375C82.1415 93.8569 81.3319 90.0777 81.2725 86.25C81.3979 82.5 82.0251 78.25 82.5268 74.5C83.0222 72.1148 83.2743 69.6858 83.2793 67.25C83.4532 64.0581 82.4743 60.9097 80.52 58.375C78.5132 55.75 75.6285 54.625 73.2454 55.5C70.8624 56.375 72.1166 56.5 71.8657 58.25C71.6632 60.0657 71.0639 61.8151 70.1098 63.375C68.6047 65.75 66.8488 67.875 65.0929 70.125C59.1979 77.25 52.6759 85.25 52.9268 103.125H51.1708C50.92 84.625 57.6929 76.375 63.7132 69C65.4629 66.9251 67.0959 64.7551 68.6047 62.5C69.4053 61.0714 69.9167 59.5 70.1098 57.875C70.4861 56.125 70.7369 54.625 72.6183 53.875C74.4996 53.125 79.5166 54.125 81.8996 57.375C84.1291 60.1697 85.2456 63.6859 85.0352 67.25C85.0352 69 84.659 71.625 84.2827 74.75C83.9064 77.875 83.1539 82.625 83.0285 86.375C83.0745 89.9493 83.8423 93.4778 85.2861 96.75C85.4115 97.25 85.2861 97.75 84.7844 97.875Z" fill="#5B59A4"/>
<path d="M177.471 36.125C175.908 35.1362 174.581 33.8179 173.584 32.263C172.587 30.708 171.945 28.9542 171.701 27.125L170.698 20.875C170.698 20.7092 170.632 20.5503 170.514 20.4331C170.397 20.3158 170.237 20.25 170.071 20.25C169.904 20.25 169.745 20.3158 169.627 20.4331C169.51 20.5503 169.444 20.7092 169.444 20.875L168.44 27.125C168.197 28.9542 167.554 30.708 166.557 32.263C165.561 33.8179 164.234 35.1362 162.671 36.125L161.793 36.625C161.639 36.7982 161.551 37.019 161.542 37.25C161.542 37.347 161.565 37.4427 161.608 37.5295C161.652 37.6163 161.715 37.6918 161.793 37.75L162.671 38.25C164.226 39.2769 165.545 40.6214 166.539 42.1946C167.534 43.7677 168.182 45.5335 168.44 47.375L169.444 53.625C169.444 54 169.695 54.125 170.071 54.125C170.322 54.125 170.698 54 170.698 53.625L171.701 47.375C171.96 45.5335 172.607 43.7677 173.602 42.1946C174.597 40.6214 175.915 39.2769 177.471 38.25L178.349 37.75C178.427 37.6918 178.49 37.6163 178.533 37.5295C178.577 37.4427 178.6 37.347 178.6 37.25C178.591 37.019 178.502 36.7982 178.349 36.625L177.471 36.125Z" fill="#FFF48C"/>
<path d="M18.6896 95.75H15.1777L18.3133 96.875L16.9337 99.125L21.0726 97.375L28.4727 102.75C29.9777 103.875 30.354 103.125 37.8794 93.625L23.4557 94.25L18.6896 95.75Z" fill="#DD3E59"/>
<path d="M23.9553 96.125C12.7926 96.5 6.39597 89.875 9.53157 80.875C7.65021 70.875 10.1587 67.625 10.6604 67C11.1621 66.375 13.796 68.625 16.4299 70.625C23.2028 65.375 31.7316 64.75 37.8773 71.25C44.5248 68.375 45.779 69 46.5316 69C47.2841 69 47.535 73 46.9078 76.375C46.5025 78.4511 45.6463 80.4136 44.3994 82.125C45.6536 87.75 43.6468 95.5 23.9553 96.125Z" fill="#F6CA9D"/>
<path d="M41.2661 85.1249C39.8864 83.4999 37.6288 83.2499 33.4898 83.7499C29.3508 84.2499 28.0966 83.3749 26.7169 81.4999C26.276 80.8137 25.661 80.2558 24.9342 79.8826C24.2073 79.5095 23.3945 79.3343 22.5779 79.3749C21.1983 79.3749 19.4423 79.8749 18.5644 83.2499C11.5406 83.2499 9.03216 88.6249 10.5372 90.9999C12.0423 93.3749 17.6864 96.3749 23.9576 96.1249C32.4864 95.8749 37.6288 94.2499 40.7644 92.1249C41.2844 91.7157 41.7132 91.2029 42.0232 90.6192C42.3332 90.0356 42.5177 89.3939 42.565 88.7352C42.6122 88.0765 42.521 87.4152 42.2974 86.7936C42.0737 86.1719 41.7225 85.6036 41.2661 85.1249Z" fill="white"/>
<path d="M43.2727 79.875C42.1997 77.3094 40.7636 74.91 39.0083 72.75C40.9414 71.5034 43.1246 70.6928 45.4049 70.375C45.7812 70.5 46.6591 74.375 43.2727 79.875Z" fill="white"/>
<path d="M29.507 73.4241C29.6546 72.8204 28.956 72.1322 27.9465 71.887C26.937 71.6417 25.999 71.9323 25.8513 72.5359C25.7037 73.1396 26.4023 73.8277 27.4118 74.073C28.4213 74.3182 29.3593 74.0277 29.507 73.4241Z" fill="white"/>
<path d="M18.8064 74.8014C19.6329 74.1739 20.0307 73.309 19.6949 72.8697C19.3591 72.4304 18.4169 72.5829 17.5903 73.2105C16.7638 73.838 16.366 74.7028 16.7018 75.1422C17.0376 75.5815 17.9799 75.4289 18.8064 74.8014Z" fill="white"/>
<path d="M27.8448 80.1251C27.9055 79.8834 28.0309 79.6628 28.2076 79.4867C28.3843 79.3105 28.6057 79.1855 28.8482 79.1251C29.3178 78.9018 29.8531 78.8573 30.3533 79.0001C30.8106 79.0884 31.2457 79.2665 31.6333 79.524C32.0209 79.7815 32.3532 80.1133 32.6109 80.5001C32.6109 80.6251 32.6109 80.8751 32.4855 80.8751H32.2346C31.5995 80.4263 30.8705 80.1271 30.1024 80.0001H29.2245C28.8572 80.0088 28.5036 80.141 28.2211 80.3751C27.9702 80.3751 27.8448 80.3751 27.8448 80.2501C27.8448 80.1251 27.7194 80.1251 27.8448 80.1251Z" fill="#5F131D"/>
<path d="M13.6689 81.6247C13.8061 81.2198 14.0699 80.8693 14.4215 80.6247L15.5503 79.9997C16.0247 79.9506 16.5033 80.0373 16.93 80.2497C17.1324 80.3359 17.3086 80.4737 17.4407 80.6492C17.5728 80.8247 17.6562 81.0318 17.6825 81.2497C17.8079 81.4997 17.6825 81.6247 17.4317 81.6247H17.3062C17.0891 81.4624 16.8251 81.3747 16.5537 81.3747H15.0486L14.1706 81.8747C14.1388 81.8959 14.1026 81.9096 14.0646 81.9147C14.0267 81.9198 13.9881 81.9162 13.9518 81.9041C13.9154 81.8921 13.8824 81.8719 13.8551 81.8451C13.8278 81.8183 13.807 81.7857 13.7944 81.7497C13.6689 81.7497 13.6689 81.7497 13.6689 81.6247Z" fill="#5F131D"/>
<path d="M22.4521 82.75C23.5604 82.75 24.4589 82.2463 24.4589 81.625C24.4589 81.0037 23.5604 80.5 22.4521 80.5C21.3438 80.5 20.4453 81.0037 20.4453 81.625C20.4453 82.2463 21.3438 82.75 22.4521 82.75Z" fill="#892B25"/>
<path d="M17.1825 87.0004C16.93 87.0213 16.6759 86.9873 16.4377 86.901C16.1996 86.8147 15.983 86.6781 15.8029 86.5004C15.6294 86.2221 15.5273 85.9055 15.5054 85.5785C15.4836 85.2516 15.5426 84.9243 15.6774 84.6254C15.732 84.5134 15.8265 84.4257 15.9425 84.3795C16.0584 84.3333 16.1875 84.3318 16.3045 84.3754C16.4342 84.515 16.5212 84.6884 16.5554 84.8754C16.3045 85.3754 16.3045 85.7504 16.43 85.8754C16.5554 86.0004 17.0571 86.1254 17.5588 86.1254L20.4435 85.1254L21.9486 84.7504L23.83 85.1254L27.5927 85.8754C29.0978 86.1254 30.2266 86.0004 30.4774 85.6254C30.7283 85.2504 30.7283 85.3754 30.4774 84.8754C30.2266 84.3754 30.6029 84.3754 30.7283 84.3754C30.8453 84.3318 30.9744 84.3333 31.0904 84.3795C31.2064 84.4257 31.3009 84.5134 31.3554 84.6254C31.4663 84.8723 31.5016 85.1463 31.457 85.4131C31.4124 85.68 31.2898 85.9277 31.1045 86.1254C30.6029 86.7504 29.474 87.0004 27.4673 86.7504L23.5791 85.8754L21.9486 85.5004L20.8198 86.0004C19.7968 86.3661 18.749 86.6585 17.6842 86.8754L17.1825 87.0004Z" fill="#892B25"/>
<path d="M21.9476 85.5C21.8478 85.5 21.7521 85.4605 21.6815 85.3902C21.6109 85.3198 21.5713 85.2245 21.5713 85.125V82.75C21.6967 82.5 21.8221 82.375 22.073 82.375C22.3238 82.375 22.4493 82.625 22.4493 82.875L22.1984 85.125C22.203 85.2062 22.1811 85.2866 22.1358 85.3542C22.0906 85.4219 22.0245 85.473 21.9476 85.5Z" fill="#892B25"/>
<path d="M193.904 64.6246C195.66 67.2496 198.168 74.6246 196.287 75.7496C194.406 76.8746 188.887 71.4996 187.131 68.8746C185.375 66.2496 186.253 64.1246 188.134 62.8746C190.016 61.6246 192.273 61.9996 193.904 64.6246Z" fill="#7DD6AF"/>
<path d="M195.658 76.3746C194.404 76.3746 192.773 75.1246 191.394 73.9996C189.653 72.5599 188.132 70.8756 186.879 68.9996C186.478 68.4702 186.192 67.8631 186.041 67.2172C185.89 66.5714 185.876 65.9011 186.001 65.2496C186.136 64.6979 186.384 64.18 186.729 63.7284C187.074 63.2767 187.51 62.9009 188.007 62.6246C188.481 62.3083 189.014 62.0901 189.574 61.9827C190.134 61.8754 190.711 61.8811 191.268 61.9996C192.53 62.3965 193.601 63.2417 194.279 64.3746C195.784 66.8746 198.668 74.7496 196.411 76.1246L195.658 76.3746ZM190.39 62.6246C189.668 62.5857 188.955 62.8076 188.384 63.2496C187.953 63.4541 187.572 63.7505 187.269 64.1176C186.965 64.4848 186.747 64.9139 186.628 65.3746C186.513 66.5284 186.825 67.6844 187.506 68.6246C188.749 70.4335 190.225 72.0724 191.895 73.4996C193.902 75.1246 195.407 75.8746 196.034 75.4996C196.662 75.1246 196.787 73.3746 196.034 70.8746C195.535 68.7308 194.733 66.6685 193.651 64.7496C193.074 63.7357 192.133 62.9767 191.018 62.6246H190.39Z" fill="#378A84"/>
<path d="M204.942 73.2493C202.434 75.1243 195.41 78.3743 194.03 76.6243C192.651 74.8743 197.542 68.8743 199.925 66.9993C202.308 65.1243 204.692 65.6243 206.071 67.2493C207.451 68.8743 207.451 71.2493 204.942 73.2493Z" fill="#7DD6AF"/>
<path d="M195.407 77.4996C194.654 77.4996 194.027 77.3746 193.776 76.8746C193.526 76.3746 197.539 68.3746 199.797 66.6246C200.819 65.7866 202.11 65.343 203.434 65.3746C204.011 65.4478 204.567 65.6415 205.064 65.9431C205.561 66.2446 205.988 66.6472 206.319 67.1246C206.691 67.5467 206.962 68.0467 207.114 68.5876C207.266 69.1285 207.295 69.6965 207.197 70.2496C207.099 70.898 206.87 71.52 206.526 72.0785C206.181 72.6369 205.727 73.1203 205.19 73.4996C203.323 74.7899 201.3 75.8399 199.17 76.6246C197.978 77.137 196.703 77.4334 195.407 77.4996ZM203.058 66.1246C202.001 66.187 200.991 66.5808 200.173 67.2496C198.53 68.7042 197.057 70.3396 195.783 72.1246C194.403 74.2496 193.776 75.8746 194.278 76.4996C194.78 77.1246 196.536 76.8746 198.919 75.9996C200.978 75.2842 202.921 74.2736 204.688 72.9996C205.672 72.3267 206.348 71.293 206.57 70.1246C206.626 69.6497 206.577 69.1681 206.425 68.7144C206.273 68.2606 206.023 67.8458 205.692 67.4996C205.139 66.7751 204.333 66.2843 203.434 66.1246H203.058Z" fill="#378A84"/>
<path d="M196.287 76.1249H195.911L190.267 66.7499C190.267 66.6249 190.267 66.3749 190.393 66.3749C190.518 66.3749 190.769 66.2499 190.894 66.3749L196.538 75.7499C196.605 75.7665 196.662 75.8087 196.697 75.8673C196.733 75.9259 196.743 75.9961 196.726 76.0624C196.71 76.1287 196.667 76.1857 196.609 76.2209C196.55 76.256 196.479 76.2665 196.413 76.2499L196.287 76.1249Z" fill="#378A84"/>
<path d="M194.406 76.875H194.155C194.093 76.8062 194.059 76.7172 194.059 76.625C194.059 76.5328 194.093 76.4437 194.155 76.375L202.433 69.25H202.935C202.996 69.3188 203.03 69.4078 203.03 69.5C203.03 69.5922 202.996 69.6812 202.935 69.75L194.657 76.875H194.406Z" fill="#378A84"/>
<path d="M195.909 73.8749C188.007 67.2499 178.099 73.2499 178.6 83.2499C179.102 93.2499 185.624 102.5 196.285 102.5C204.814 102.5 213.092 94.2499 213.594 83.2499C214.095 72.2499 202.18 67.2499 195.909 73.8749Z" fill="#FFC194"/>
<path d="M196.287 102.875C193.799 102.876 191.344 102.313 189.106 101.231C186.868 100.148 184.906 98.5732 183.368 96.6247C180.388 92.7581 178.602 88.1109 178.226 83.2497C178.023 80.9626 178.497 78.6665 179.589 76.6449C180.682 74.6233 182.344 72.965 184.372 71.8747C186.234 70.9836 188.316 70.651 190.365 70.9173C192.413 71.1836 194.34 72.0374 195.911 73.3747C197.332 71.9688 199.148 71.0251 201.118 70.6681C203.088 70.311 205.121 70.5574 206.948 71.3747C209.237 72.3485 211.153 74.0263 212.416 76.1628C213.68 78.2993 214.225 80.7825 213.972 83.2497C213.47 93.8747 205.443 102.875 196.287 102.875ZM188.762 71.4997C187.357 71.4594 185.968 71.8054 184.748 72.4997C180.86 74.3747 178.728 78.4997 178.978 83.2497C179.731 95.4997 188.385 102.25 196.287 102.25C204.189 102.25 212.843 93.4997 213.345 83.2497C213.595 77.1247 210.084 73.3747 206.572 71.9997C204.834 71.2117 202.89 70.9929 201.02 71.3747C199.149 71.7565 197.449 72.7193 196.162 74.1247C196.093 74.1862 196.003 74.2202 195.911 74.2202C195.818 74.2202 195.729 74.1862 195.66 74.1247C193.742 72.4682 191.299 71.5387 188.762 71.4997Z" fill="#F46D59"/>
<path d="M188.009 84.874H182.491C182.391 84.874 182.295 84.8345 182.224 84.7642C182.154 84.6939 182.114 84.5985 182.114 84.499C182.114 84.249 182.24 83.999 182.491 83.999H188.009C188.075 83.999 188.14 84.012 188.201 84.0371C188.262 84.0622 188.317 84.099 188.364 84.1455C188.411 84.1919 188.447 84.247 188.473 84.3077C188.498 84.3684 188.511 84.4334 188.511 84.499C188.511 84.749 188.26 84.874 188.009 84.874Z" fill="#632B26"/>
<path d="M186.253 86.749C185.654 86.749 185.08 86.512 184.657 86.09C184.233 85.6681 183.996 85.0958 183.996 84.499C183.996 84.4334 184.009 84.3684 184.034 84.3077C184.059 84.247 184.096 84.1919 184.143 84.1455C184.189 84.099 184.244 84.0622 184.305 84.0371C184.366 84.012 184.431 83.999 184.497 83.999H188.009C188.075 83.999 188.14 84.012 188.201 84.0371C188.262 84.0622 188.317 84.099 188.364 84.1455C188.411 84.1919 188.447 84.247 188.473 84.3077C188.498 84.3684 188.511 84.4334 188.511 84.499C188.511 85.0958 188.273 85.6681 187.85 86.09C187.426 86.512 186.852 86.749 186.253 86.749Z" fill="#632B26"/>
<path d="M204.69 84.874H199.171C198.92 84.874 198.669 84.749 198.669 84.499C198.669 84.4334 198.682 84.3684 198.708 84.3077C198.733 84.247 198.77 84.1919 198.816 84.1455C198.863 84.099 198.918 84.0622 198.979 84.0371C199.04 84.012 199.105 83.999 199.171 83.999H204.69C204.756 83.999 204.821 84.012 204.882 84.0371C204.943 84.0622 204.998 84.099 205.045 84.1455C205.091 84.1919 205.128 84.247 205.153 84.3077C205.178 84.3684 205.191 84.4334 205.191 84.499C205.191 84.749 204.941 84.874 204.69 84.874Z" fill="#632B26"/>
<path d="M202.934 86.749C202.323 86.7499 201.735 86.5169 201.292 86.0982C200.848 85.6795 200.583 85.107 200.551 84.499C200.551 84.4334 200.564 84.3684 200.589 84.3077C200.614 84.247 200.651 84.1919 200.698 84.1455C200.744 84.099 200.8 84.0622 200.86 84.0371C200.921 84.012 200.987 83.999 201.052 83.999H204.69C204.756 83.999 204.821 84.012 204.882 84.0371C204.943 84.0622 204.998 84.099 205.045 84.1455C205.091 84.1919 205.128 84.247 205.153 84.3077C205.178 84.3684 205.191 84.4334 205.191 84.499C205.191 85.0958 204.954 85.6681 204.53 86.09C204.107 86.512 203.533 86.749 202.934 86.749Z" fill="#632B26"/>
<path d="M194.278 87.8742C193.66 87.8974 193.051 87.7129 192.551 87.3502C192.051 86.9874 191.687 86.4676 191.519 85.8742C191.475 85.7576 191.476 85.6289 191.523 85.5133C191.569 85.3977 191.657 85.3035 191.769 85.2492C191.9 85.2385 192.031 85.2689 192.144 85.3361C192.256 85.4034 192.345 85.5042 192.397 85.6242C192.527 86.0202 192.779 86.3656 193.116 86.6121C193.453 86.8587 193.86 86.994 194.278 86.9992C194.674 86.9691 195.053 86.8224 195.366 86.5776C195.678 86.3328 195.911 86.0009 196.034 85.6242C196.086 85.5042 196.174 85.4034 196.287 85.3361C196.399 85.2689 196.53 85.2385 196.661 85.2492C196.773 85.3035 196.861 85.3977 196.908 85.5133C196.954 85.6289 196.956 85.7576 196.912 85.8742C196.769 86.4575 196.429 86.9743 195.95 87.3383C195.47 87.7022 194.88 87.8914 194.278 87.8742Z" fill="#632B26"/>
<path d="M205.444 89.625C206.691 89.625 207.702 89.1213 207.702 88.5C207.702 87.8787 206.691 87.375 205.444 87.375C204.197 87.375 203.187 87.8787 203.187 88.5C203.187 89.1213 204.197 89.625 205.444 89.625Z" fill="#FF9D7E"/>
<path d="M183.245 89.625C184.492 89.625 185.503 89.1213 185.503 88.5C185.503 87.8787 184.492 87.375 183.245 87.375C181.998 87.375 180.987 87.8787 180.987 88.5C180.987 89.1213 181.998 89.625 183.245 89.625Z" fill="#FF9D7E"/>
<path d="M188.887 98.3747H188.636C188.511 98.2497 188.511 98.1247 188.636 97.8747C191.521 94.3747 191.772 92.9997 191.27 92.1247L190.643 91.8747C189.64 91.6247 187.758 92.6247 185.877 94.3747H185.375C185.313 94.306 185.279 94.217 185.279 94.1247C185.279 94.0325 185.313 93.9435 185.375 93.8747C187.382 91.9997 189.514 90.9997 190.768 91.1247C190.993 91.1292 191.214 91.1885 191.411 91.2975C191.607 91.4064 191.774 91.5617 191.897 91.7497C192.65 93.1247 192.023 94.8747 189.138 98.3747C189.138 98.3747 189.012 98.3747 188.887 98.3747Z" fill="#F46D59"/>
<path d="M196.914 91.8745C196.713 92.2654 196.618 92.7024 196.64 93.1413C196.662 93.5802 196.8 94.0055 197.04 94.3745L196.162 94.6245H195.785L190.141 93.4995C189.899 93.4744 189.665 93.3954 189.458 93.2685C189.25 93.1416 189.074 92.9699 188.941 92.766C188.809 92.5622 188.724 92.3314 188.693 92.0906C188.662 91.8498 188.685 91.6051 188.762 91.3745C188.824 90.9657 189.04 90.5959 189.366 90.3404C189.693 90.0849 190.104 89.963 190.518 89.9995H190.894L196.538 91.1245L197.416 91.6245C197.165 91.4995 197.04 91.6245 196.914 91.8745Z" fill="white"/>
<path d="M199.55 98.3747H199.299C196.414 94.8747 195.787 93.1247 196.665 91.7497C196.768 91.5713 196.913 91.4209 197.088 91.3119C197.263 91.2029 197.463 91.1386 197.668 91.1247C199.048 90.9997 201.055 91.9997 203.062 93.8747C203.128 93.8581 203.199 93.8686 203.257 93.9037C203.316 93.9389 203.359 93.9959 203.375 94.0622C203.392 94.1285 203.381 94.1987 203.346 94.2573C203.311 94.3159 203.254 94.3581 203.187 94.3747H202.685C200.804 92.6247 198.923 91.6247 197.794 91.8747L197.167 92.1247C196.665 92.9997 196.916 94.3747 199.801 97.8747C199.926 98.1247 199.926 98.2497 199.801 98.3747H199.55Z" fill="#F46D59"/>
<path d="M193.401 77.4995H193.276C193.151 77.3745 193.025 77.2495 193.151 76.9995C193.779 75.7349 194.628 74.592 195.659 73.6245C195.729 73.5911 195.808 73.5802 195.885 73.5933C195.962 73.6064 196.032 73.6429 196.087 73.6977C196.142 73.7526 196.179 73.823 196.192 73.8995C196.205 73.9759 196.194 74.0545 196.161 74.1245C195.148 75.0308 194.337 76.1378 193.778 77.3745L193.401 77.4995Z" fill="#F46D59"/>
</g>
<defs>
<clipPath id="clip0_14847_21145">
<rect width="222" height="110" fill="white"/>
</clipPath>
</defs>
</svg>
