<svg width="300" height="200" viewBox="0 0 300 200" fill="none" xmlns="http://www.w3.org/2000/svg">
<path d="M5.27072 143.191L294.732 143.191C297.642 143.191 300 140.832 300 137.922V5.26997C300 2.35966 297.642 0.000411987 294.732 0.000411987L5.27072 0.000411987C2.36151 0.000411987 0.00311279 2.35966 0.00311279 5.26997V137.922C0.00311279 140.832 2.36151 143.191 5.27072 143.191Z" fill="#5865F2"/>
<path d="M221.114 152.831H154.948C153.458 152.831 152.25 154.039 152.25 155.53V197.237C152.25 198.727 153.458 199.936 154.948 199.936H221.114C222.604 199.936 223.812 198.727 223.812 197.237V155.53C223.812 154.039 222.604 152.831 221.114 152.831Z" fill="#EB459F"/>
<path d="M219.187 189.847C215.847 189.076 209.937 189.718 198.502 190.489C178.973 188.433 178.973 187.919 174.348 200H221.243L219.187 189.847Z" fill="#FF78B9"/>
<path d="M223.813 197.301V195.759C223.042 192.289 222.142 190.618 219.187 189.847C216.232 189.076 213.791 191.261 211.093 200H221.115C221.83 200 222.516 199.716 223.022 199.21C223.528 198.704 223.813 198.017 223.813 197.301Z" fill="#FFF7C9"/>
<path d="M157.646 200.001H169.723L178.973 184.835L170.108 179.437L157.646 200.001Z" fill="#D48D5E"/>
<path d="M206.725 185.092C209.937 184.834 209.808 184.963 209.68 189.718L199.787 193.831L192.978 192.932L189.894 189.718C190.536 184.32 190.151 183.935 192.721 184.449C195.29 184.963 199.144 185.606 206.725 185.092Z" fill="#FF78B9"/>
<path d="M223.812 162.728C222.271 160.671 221.628 157.972 219.958 154.373L219.187 152.831H184.626C198.759 165.941 212.121 171.339 223.812 173.524V162.728Z" fill="#CF8A5C"/>
<path d="M198.502 167.355C204.439 168.977 210.273 170.951 215.975 173.267L223.812 176.351V167.997C215.847 166.969 209.037 166.069 203.513 158.358L199.145 152.831H179.23C179.873 157.972 186.297 164.141 198.502 167.355Z" fill="#AA5F44"/>
<path d="M188.61 161.956C194.648 165.17 199.787 164.913 205.312 166.969C209.645 168.586 213.853 170.519 217.903 172.753C219.801 173.73 221.778 174.547 223.813 175.195V169.668C221.115 169.154 217.903 168.511 213.406 167.226C202.485 163.756 199.145 158.615 195.162 153.602L194.52 152.831H180.772C181.158 156.687 185.012 160.029 188.61 161.956Z" fill="#8F473B"/>
<path d="M206.211 166.584C206.083 166.584 205.954 166.327 205.954 166.198C205.954 166.07 206.211 165.813 206.34 165.941H209.937L211.35 166.455C209.654 166.759 207.921 166.803 206.211 166.584Z" fill="#6B2F34"/>
<path d="M223.812 169.925V169.668L222.656 169.411C219.05 169.784 215.406 169.345 211.992 168.126H211.735C216.104 170.439 219.958 172.496 223.812 174.167V173.396L216.361 169.797C218.802 170.568 221.371 171.339 223.812 171.853V171.725L217.774 170.182C219.789 170.387 221.822 170.301 223.812 169.925Z" fill="#6B2F34"/>
<path d="M200.044 162.856C196.446 163.371 188.224 161.057 183.599 158.23L185.783 160.157C188.98 161.632 192.345 162.711 195.804 163.371C197.288 163.632 198.797 163.718 200.301 163.628C200.381 163.568 200.445 163.49 200.49 163.401C200.535 163.312 200.558 163.213 200.558 163.114C200.558 162.985 200.429 162.985 200.301 162.856H200.558C200.558 162.757 200.535 162.658 200.49 162.569C200.445 162.48 200.381 162.402 200.301 162.342C192.592 159.515 188.481 156.43 186.168 152.96H185.397C188.481 157.715 193.62 160.414 200.044 162.856Z" fill="#6B2F34"/>
<path d="M203.256 165.683C203.222 165.683 203.189 165.67 203.165 165.646C203.141 165.622 203.127 165.589 203.127 165.555C202.352 164.852 201.725 164.001 201.284 163.052C200.842 162.102 200.595 161.074 200.558 160.028L201.328 160.671C201.537 162.362 202.36 163.918 203.641 165.041C203.704 165.112 203.739 165.203 203.739 165.298C203.739 165.393 203.704 165.484 203.641 165.555L203.256 165.683Z" fill="#6B2F34"/>
<path d="M197.474 160.286L197.86 160.671H198.374C198.437 160.6 198.472 160.509 198.472 160.414C198.472 160.319 198.437 160.228 198.374 160.157L197.988 159.771C195.547 157.458 193.748 155.787 192.721 152.831H191.95C193.106 156.044 195.033 157.844 197.474 160.286Z" fill="#6B2F34"/>
<path d="M208.395 186.762L208.009 185.22C207.475 182.932 207.519 180.546 208.138 178.28C209.423 173.524 210.579 171.982 212.249 168.126C207.016 166.402 202.201 163.6 198.117 159.9C193.106 168.383 191.564 174.038 192.078 188.305C192.131 189.05 192.387 189.768 192.817 190.379C193.247 190.99 193.835 191.473 194.519 191.775C198.117 193.446 201.714 192.289 207.624 188.947C207.989 188.732 208.267 188.395 208.408 187.995C208.549 187.596 208.544 187.159 208.395 186.762Z" fill="url(#paint0_linear_14123_102742)"/>
<path d="M195.933 180.207C197.474 182.906 199.016 183.549 199.915 182.264C200.31 181.56 200.489 180.755 200.429 179.95L195.933 180.207Z" fill="#C9106D"/>
<path d="M200.429 179.95L195.933 180.207C196.244 180.7 196.588 181.172 196.96 181.621C198.052 181.09 199.224 180.743 200.429 180.593V179.95Z" fill="black"/>
<path d="M185.655 167.741C185.694 167.433 185.832 167.147 186.05 166.927C186.267 166.706 186.55 166.563 186.857 166.519C187.163 166.475 187.475 166.533 187.746 166.684C188.016 166.835 188.229 167.071 188.353 167.355C193.749 174.681 194.905 171.853 197.346 176.737C200.687 173.653 202.871 175.709 216.361 174.938C218.288 174.809 218.031 176.866 216.104 178.408C214.177 179.95 210.194 179.95 208.395 179.308C206.34 183.292 203.128 183.292 196.961 178.665C187.453 180.336 187.068 177.123 188.995 174.167C185.012 171.725 185.398 169.026 185.655 167.741Z" fill="#6B2F34"/>
<path d="M201.329 172.11C200.815 172.881 200.815 173.781 201.2 173.909C201.586 174.038 202.228 173.781 202.742 173.01C203.257 172.238 203.514 171.467 203.128 171.21C202.742 170.953 201.843 171.339 201.329 172.11Z" fill="black"/>
<path d="M195.29 171.082C195.162 171.982 195.547 172.624 196.061 172.624C196.575 172.624 196.832 171.982 196.832 171.082C196.832 170.182 196.832 169.411 196.318 169.411C195.804 169.411 195.29 170.182 195.29 171.082Z" fill="black"/>
<path d="M208.909 159.128C209.166 160.671 211.221 162.213 213.534 162.599C215.847 162.984 217.388 162.085 217.131 160.542C216.732 159.232 216.002 158.048 215.012 157.102C214.022 156.156 212.805 155.482 211.478 155.144C209.294 154.759 208.652 157.586 208.909 159.128Z" fill="#EDB997"/>
<path d="M222.399 160.286C221.191 159.676 220.242 158.654 219.723 157.404C219.204 156.154 219.151 154.76 219.572 153.474C220.729 155.659 221.757 158.872 222.399 160.286Z" fill="#EDB997"/>
<path d="M197.218 193.959C197.66 192.36 198.263 190.81 199.016 189.332C199.273 188.947 200.044 188.947 201.457 188.561C203.986 188.1 206.446 187.322 208.781 186.248L209.551 187.404V194.345L205.954 199.357L187.325 198.715L189.766 189.718L191.308 185.091C192.721 186.633 194.905 187.918 195.419 188.561C195.933 189.204 195.547 189.075 195.804 190.874C195.938 192.384 196.153 193.886 196.447 195.373H196.704L197.218 193.959Z" fill="#FF78B9"/>
<path d="M194.776 200L195.548 196.787C195.676 196.658 195.548 196.401 195.291 196.401C195.033 196.401 194.905 196.401 194.905 196.658C194.541 197.745 194.282 198.864 194.134 200H194.776Z" fill="black"/>
<path d="M197.86 197.301C197.86 197.198 197.819 197.1 197.747 197.028C197.675 196.956 197.577 196.915 197.474 196.915L197.089 197.301L197.346 200H198.117L197.86 197.301Z" fill="black"/>
<path d="M199.244 195.108C199.298 193.192 198.191 191.607 196.773 191.568C195.354 191.528 194.161 193.049 194.107 194.965C194.054 196.881 195.16 198.466 196.579 198.505C197.997 198.545 199.191 197.024 199.244 195.108Z" fill="white"/>
<path d="M198.602 195.09C198.641 193.671 197.811 192.496 196.747 192.467C195.683 192.437 194.789 193.563 194.749 194.982C194.709 196.401 195.54 197.576 196.604 197.606C197.668 197.635 198.562 196.509 198.602 195.09Z" fill="#8CD9FF"/>
<path d="M209.68 186.762C209.598 186.603 209.463 186.478 209.299 186.408C209.135 186.338 208.952 186.327 208.781 186.376C206.446 187.451 203.986 188.228 201.457 188.69C200.044 189.075 199.273 189.075 199.016 189.461L198.759 189.718C199.273 188.818 199.659 189.975 200.044 191.389C200.587 193.448 201.274 195.467 202.1 197.43C202.742 198.586 202.871 198.715 204.798 196.658C206.565 194.491 208.195 192.216 209.68 189.847V186.89V186.762Z" fill="url(#paint1_linear_14123_102742)"/>
<path d="M190.536 195.116C190.922 197.044 190.922 197.301 191.95 195.373C192.958 193.497 193.858 191.566 194.648 189.589C195.033 188.689 195.419 188.432 195.547 188.689C195.033 188.047 192.978 186.89 191.564 185.348H191.05C190.91 185.376 190.779 185.437 190.667 185.527C190.555 185.616 190.466 185.731 190.408 185.862L189.894 189.846C190.151 191.645 190.408 194.087 190.536 195.116Z" fill="url(#paint2_linear_14123_102742)"/>
<path d="M174.605 186.762C168.438 186.762 167.025 185.477 165.74 182.906C164.456 180.336 164.713 178.536 167.539 174.424C170.366 170.311 172.421 168.768 174.605 168.897C176.79 169.026 176.918 169.668 177.303 170.825C177.659 170.634 178.056 170.534 178.46 170.534C178.863 170.534 179.261 170.634 179.616 170.825C179.972 171.059 180.256 171.387 180.438 171.773C180.619 172.158 180.69 172.586 180.644 173.01C182.181 174.888 183.598 176.863 184.884 178.922C185.655 180.336 186.554 181.236 183.727 184.449C180.901 187.662 179.745 186.762 174.605 186.762Z" fill="#D48D5E"/>
<path d="M182.314 180.464C184.656 180.464 186.554 178.565 186.554 176.223C186.554 173.88 184.656 171.981 182.314 171.981C179.972 171.981 178.074 173.88 178.074 176.223C178.074 178.565 179.972 180.464 182.314 180.464Z" fill="#FFE75C"/>
<path d="M185.783 181.236C186.847 181.236 187.71 180.373 187.71 179.308C187.71 178.243 186.847 177.38 185.783 177.38C184.718 177.38 183.855 178.243 183.855 179.308C183.855 180.373 184.718 181.236 185.783 181.236Z" fill="#FFE75C"/>
<path d="M178.717 171.082C180.13 169.026 182.057 168.383 183.599 169.925C185.141 171.468 185.783 173.138 184.627 174.038C183.471 174.938 181.8 172.367 181.8 172.367L180.002 174.809L178.717 171.082Z" fill="#D48D5E"/>
<path d="M181.286 174.552C182.067 174.552 182.7 173.919 182.7 173.138C182.7 172.358 182.067 171.725 181.286 171.725C180.506 171.725 179.873 172.358 179.873 173.138C179.873 173.919 180.506 174.552 181.286 174.552Z" fill="#FFE75C"/>
<path d="M178.716 182.007C180.561 182.007 182.057 180.51 182.057 178.665C182.057 176.819 180.561 175.323 178.716 175.323C176.872 175.323 175.376 176.819 175.376 178.665C175.376 180.51 176.872 182.007 178.716 182.007Z" fill="#FFE75C"/>
<path d="M173.706 181.364C175.764 181.364 177.432 179.695 177.432 177.636C177.432 175.578 175.764 173.909 173.706 173.909C171.648 173.909 169.98 175.578 169.98 177.636C169.98 179.695 171.648 181.364 173.706 181.364Z" fill="#FFE75C"/>
<path d="M172.55 176.095C173.472 176.095 174.22 175.347 174.22 174.424C174.22 173.501 173.472 172.753 172.55 172.753C171.627 172.753 170.879 173.501 170.879 174.424C170.879 175.347 171.627 176.095 172.55 176.095Z" fill="#FFE75C"/>
<path d="M179.616 170.825C179.261 170.633 178.863 170.533 178.46 170.533C178.056 170.533 177.659 170.633 177.303 170.825C176.918 169.668 176.404 169.025 174.605 168.897C173.6 168.798 172.594 169.072 171.779 169.668L173.706 173.524C172.935 174.166 172.036 175.194 172.807 176.48C173.577 177.765 175.633 177.251 176.404 176.48C180.258 178.408 180.515 174.809 180.644 173.01C180.69 172.586 180.619 172.158 180.437 171.772C180.256 171.387 179.972 171.059 179.616 170.825Z" fill="#D48D5E"/>
<path d="M184.241 183.806C186.554 180.85 186.682 179.564 183.342 177.894C180.001 176.223 179.231 177.894 179.102 178.665C178.974 179.436 179.359 180.207 181.029 181.235C177.175 181.235 174.22 183.035 173.706 186.762H174.605C179.745 186.762 181.158 187.405 183.727 184.448L184.241 183.806Z" fill="#D48D5E"/>
<path d="M188.866 193.703C190.711 193.703 192.207 192.207 192.207 190.361C192.207 188.516 190.711 187.02 188.866 187.02C187.021 187.02 185.526 188.516 185.526 190.361C185.526 192.207 187.021 193.703 188.866 193.703Z" fill="#FFE75C"/>
<path d="M192.593 183.292C193.232 183.292 193.749 182.774 193.749 182.135C193.749 181.496 193.232 180.979 192.593 180.979C191.954 180.979 191.436 181.496 191.436 182.135C191.436 182.774 191.954 183.292 192.593 183.292Z" fill="#FFE75C"/>
<path d="M176.147 191.004C177.992 191.004 179.488 189.508 179.488 187.662C179.488 185.816 177.992 184.32 176.147 184.32C174.302 184.32 172.807 185.816 172.807 187.662C172.807 189.508 174.302 191.004 176.147 191.004Z" fill="#FFE75C"/>
<path d="M171.008 193.703C172.853 193.703 174.348 192.207 174.348 190.361C174.348 188.516 172.853 187.02 171.008 187.02C169.163 187.02 167.667 188.516 167.667 190.361C167.667 192.207 169.163 193.703 171.008 193.703Z" fill="#FFE75C"/>
<path d="M166.383 188.818H192.978L191.308 200H168.053L166.383 188.818Z" fill="#3442D8"/>
<path d="M186.297 191.132C188.142 191.132 189.637 189.635 189.637 187.79C189.637 185.944 188.142 184.448 186.297 184.448C184.452 184.448 182.957 185.944 182.957 187.79C182.957 189.635 184.452 191.132 186.297 191.132Z" fill="#FFE75C"/>
<path d="M180.387 192.674C182.232 192.674 183.727 191.177 183.727 189.332C183.727 187.486 182.232 185.99 180.387 185.99C178.542 185.99 177.046 187.486 177.046 189.332C177.046 191.177 178.542 192.674 180.387 192.674Z" fill="#FFE75C"/>
<path d="M169.081 188.818H190.408L188.995 200H170.365L169.081 188.818Z" fill="#66BCFF"/>
<path d="M172.678 188.818H186.811L185.912 200H173.578L172.678 188.818Z" fill="#3442D8"/>
<path d="M177.303 188.818H182.057L181.8 200H177.56L177.303 188.818Z" fill="#66BCFF"/>
<path d="M166.254 188.562H193.235C193.371 188.562 193.502 188.616 193.598 188.712C193.694 188.809 193.749 188.939 193.749 189.076C193.769 189.153 193.77 189.234 193.754 189.312C193.737 189.39 193.702 189.463 193.652 189.526C193.602 189.588 193.539 189.638 193.466 189.671C193.394 189.705 193.314 189.721 193.235 189.718H166.254C166.084 189.718 165.92 189.651 165.8 189.53C165.68 189.41 165.612 189.246 165.612 189.076C165.642 188.928 165.723 188.796 165.84 188.702C165.957 188.608 166.104 188.559 166.254 188.562Z" fill="white"/>
<path d="M178.203 170.567L177.304 170.824C178.332 174.038 177.561 175.451 176.147 176.608H176.404L177.304 176.994C178.846 175.323 179.103 173.395 178.203 170.567Z" fill="#8F473B"/>
<path d="M173.577 183.421C173.32 183.421 173.192 183.421 173.192 183.164C173.124 183.147 173.065 183.103 173.029 183.043C172.993 182.983 172.982 182.911 172.999 182.842C173.016 182.774 173.06 182.716 173.12 182.68C173.18 182.643 173.252 182.633 173.32 182.65C175.75 181.188 178.605 180.599 181.414 180.979C181.671 181.107 181.928 181.236 181.8 181.493C181.671 181.75 181.543 182.007 181.414 181.878C178.746 181.538 176.038 182.079 173.706 183.421H173.577Z" fill="#8F473B"/>
<path d="M180.001 180.464L182.314 182.392L183.213 180.592L180.001 180.464Z" fill="#D48D5E"/>
<path d="M2.82953 200H68.7389C70.2999 200 71.5654 198.734 71.5654 197.172V155.723C71.5654 154.161 70.2999 152.895 68.7389 152.895H2.82953C1.26849 152.895 0.00299072 154.161 0.00299072 155.723V197.172C0.00299072 198.734 1.26849 200 2.82953 200Z" fill="#66BCFF"/>
<path d="M16.1918 157.458C16.7597 157.458 17.22 156.997 17.22 156.43C17.22 155.862 16.7597 155.401 16.1918 155.401C15.6239 155.401 15.1636 155.862 15.1636 156.43C15.1636 156.997 15.6239 157.458 16.1918 157.458Z" fill="#66BCFF"/>
<path d="M13.2367 160.8C13.8046 160.8 14.2649 160.339 14.2649 159.771C14.2649 159.204 13.8046 158.743 13.2367 158.743C12.6688 158.743 12.2085 159.204 12.2085 159.771C12.2085 160.339 12.6688 160.8 13.2367 160.8Z" fill="#66BCFF"/>
<path d="M62.315 190.232C61.7995 189.698 61.4436 189.03 61.2872 188.304C59.874 177.893 55.8911 176.865 47.9255 178.022C45.6634 178.257 43.3855 178.3 41.1161 178.151L26.9835 176.865C23.8511 176.595 20.7766 175.858 17.8615 174.68C11.5661 172.11 5.01372 172.11 2.57263 183.292C2.53415 183.628 2.42214 183.953 2.24453 184.241C2.06692 184.53 1.82805 184.776 1.54482 184.962L0.00306059 186.119V197.172C-0.0143391 197.538 0.0425858 197.902 0.170363 198.245C0.29814 198.587 0.494123 198.9 0.746414 199.165C0.998705 199.429 1.30205 199.639 1.63805 199.783C1.97406 199.927 2.33573 200 2.70111 200H65.3985C67.0687 195.502 64.6277 192.417 62.315 190.232Z" fill="#D11583"/>
<path d="M16.8338 191.26C18.291 191.244 19.705 191.755 20.8148 192.7C21.9246 193.645 22.6553 194.96 22.8723 196.401C23.1413 197.611 23.0059 198.875 22.4868 200H11.6947C11.4231 199.378 11.2081 198.733 11.0523 198.072C10.9233 197.234 10.9759 196.379 11.2064 195.563C11.4369 194.748 11.8399 193.992 12.3882 193.345C12.9365 192.699 13.6173 192.179 14.3843 191.819C15.1513 191.459 15.9867 191.269 16.8338 191.26Z" fill="#EB459F"/>
<path d="M53.964 191.26C54.8146 191.242 55.6582 191.416 56.432 191.77C57.2059 192.123 57.89 192.647 58.4333 193.302C58.9767 193.956 59.3654 194.725 59.5703 195.551C59.7753 196.377 59.7913 197.239 59.6171 198.072C59.567 198.741 59.3927 199.395 59.1032 200H48.311C47.817 198.869 47.6394 197.625 47.7971 196.401C48.0662 194.96 48.8294 193.658 49.9552 192.72C51.0809 191.781 52.4987 191.265 53.964 191.26Z" fill="#EB459F"/>
<path d="M53.7868 173.586C54.4126 170.177 52.6087 166.989 49.7577 166.465C46.9067 165.941 44.0881 168.28 43.4623 171.689C42.8364 175.097 44.6403 178.285 47.4913 178.809C50.3424 179.333 53.161 176.994 53.7868 173.586Z" fill="black"/>
<path d="M52.679 164.655C53.1929 175.195 45.3557 184.32 35.2059 184.963C25.0561 185.605 16.3196 177.765 15.6772 167.226C15.4644 161.943 17.3064 156.784 20.8164 152.831H47.7968C50.7222 156.102 52.4444 160.273 52.679 164.655Z" fill="#D11583"/>
<path d="M37.3901 156.944C38.5464 161.571 41.3729 163.885 44.7133 164.656C43.4285 168.255 43.0431 170.954 44.0709 174.167C42.4952 174.676 41.0595 175.544 39.8775 176.704C38.6956 177.864 37.8 179.284 37.2616 180.85C36.7951 178.962 35.7755 177.255 34.3334 175.95C32.8913 174.645 31.0925 173.8 29.1675 173.524C30.7092 169.283 30.9662 166.198 29.1675 162.599C32.6364 161.957 36.1053 160.286 37.3901 156.944Z" fill="#FFC619"/>
<path d="M22.3582 165.17C22.4055 166.717 21.8815 168.228 20.8861 169.413C19.8908 170.598 18.4938 171.375 16.9621 171.596C13.8786 171.853 11.4375 169.154 11.4375 165.812C11.4375 162.47 13.8786 159.386 16.9621 159.257C20.0456 159.129 22.3582 161.828 22.3582 165.17Z" fill="black"/>
<path d="M19.6602 152.96C19.5317 154.759 19.4033 157.072 19.4033 160.8H14.2642C14.4099 158.214 14.7102 155.638 15.1635 153.088V152.831H19.6602V152.96Z" fill="white"/>
<path d="M19.661 152.96C19.5325 154.502 19.404 156.687 19.404 159.9C19.404 163.113 20.9463 164.141 19.404 164.913L17.4761 164.527C17.6046 161.828 17.7331 156.815 17.9902 153.988C17.97 153.598 18.0134 153.207 18.1187 152.831H19.661V152.96Z" fill="black"/>
<path d="M18.9895 163.829C19.1981 160.848 17.5265 158.302 15.2559 158.143C12.9853 157.984 10.9755 160.272 10.7669 163.253C10.5583 166.235 12.2299 168.78 14.5005 168.939C16.7711 169.098 18.7809 166.81 18.9895 163.829Z" fill="white"/>
<path d="M16.7644 165.558C16.9099 163.576 15.9378 161.889 14.5933 161.79C13.2487 161.691 12.0408 163.218 11.8953 165.2C11.7498 167.182 12.7218 168.869 14.0664 168.968C15.4109 169.067 16.6189 167.54 16.7644 165.558Z" fill="#8CD9FF"/>
<path d="M38.0331 152.831C38.1801 154.373 38.1369 155.927 37.9046 157.458C37.8754 157.571 37.8087 157.671 37.7152 157.741C37.6218 157.811 37.5072 157.847 37.3905 157.844C37.1334 157.715 37.0049 157.587 37.0049 157.329C37.2372 155.841 37.2804 154.33 37.1334 152.831H38.0331Z" fill="black"/>
<path d="M29.1678 162.985C29.2963 162.985 29.4248 162.985 29.5532 162.728C29.6817 162.47 29.5532 162.342 29.4248 162.213C29.2963 162.085 25.9559 160.543 25.8274 160.414C25.6989 160.286 25.3135 160.543 25.3135 160.8C25.3135 161.057 25.3135 161.185 25.5704 161.314C26.7404 161.75 27.8602 162.31 28.9109 162.985H29.1678Z" fill="black"/>
<path d="M44.7136 165.17H44.8421L47.2832 164.142C47.3983 164.086 47.4884 163.989 47.536 163.87C47.5835 163.751 47.585 163.619 47.5402 163.499C47.4117 163.242 47.1547 163.242 46.8978 163.371L44.5852 164.27C44.3282 164.27 44.1997 164.527 44.1997 164.784C44.1997 165.041 44.4567 165.17 44.7136 165.17Z" fill="black"/>
<path d="M44.8422 175.323C44.9707 175.323 45.0993 175.323 45.0993 175.194C45.0993 175.066 45.3564 174.808 45.2278 174.551L44.3281 173.78H43.6855C43.557 174.037 43.557 174.294 43.814 174.423L44.4567 175.194L44.8422 175.323Z" fill="black"/>
<path d="M25.0566 174.809H25.1851C26.5863 174.674 27.9665 174.372 29.2963 173.909C29.4115 173.854 29.5016 173.757 29.5491 173.638C29.5966 173.519 29.5981 173.387 29.5533 173.267L29.0394 173.01C27.7815 173.547 26.4238 173.81 25.0566 173.781C24.7996 173.909 24.6712 174.038 24.6712 174.295C24.6675 174.412 24.7036 174.526 24.7736 174.62C24.8437 174.713 24.9435 174.78 25.0566 174.809Z" fill="black"/>
<path d="M33.022 166.969L41.5015 169.025C39.1889 172.367 38.0326 174.552 33.022 166.969Z" fill="black"/>
<path d="M32.2511 168.126H32.3796L34.6922 166.841C34.9491 166.712 34.9491 166.455 34.8207 166.198C34.8377 166.13 34.827 166.058 34.7908 165.998C34.7547 165.938 34.6961 165.894 34.628 165.877C34.5598 165.86 34.4877 165.871 34.4274 165.907C34.3672 165.943 34.3238 166.002 34.3068 166.07L31.9941 167.355C31.7372 167.484 31.7372 167.741 31.8656 167.998C31.9941 168.255 31.9941 168.126 32.2511 168.126Z" fill="black"/>
<path d="M34.3066 168.769C37.1332 172.624 38.5464 172.624 39.8312 171.339C39.1333 170.558 38.2834 169.927 37.3335 169.485C36.3837 169.043 35.3538 168.799 34.3066 168.769Z" fill="#EB459F"/>
<path d="M52.6792 192.16L53.1931 191.903C54.2539 189.581 55.1136 187.173 55.7626 184.705C55.7737 184.571 55.7424 184.437 55.6733 184.322C55.6041 184.207 55.5006 184.116 55.3772 184.062C55.1203 184.062 54.9918 184.191 54.8633 184.448C54.3181 186.906 53.4542 189.283 52.2937 191.517C52.2738 191.567 52.2646 191.622 52.267 191.676C52.2693 191.73 52.2831 191.783 52.3073 191.832C52.3316 191.88 52.3657 191.923 52.4077 191.957C52.4496 191.992 52.4984 192.017 52.5507 192.031L52.6792 192.16Z" fill="black"/>
<path d="M15.9342 192.932C16.0705 192.932 16.2012 192.878 16.2976 192.781C16.394 192.685 16.4481 192.554 16.4481 192.418C15.791 187.854 14.8034 183.343 13.4931 178.922C13.4372 178.807 13.3404 178.717 13.2216 178.67C13.1028 178.622 12.9706 178.621 12.8507 178.665C12.7222 178.665 12.5938 178.922 12.5938 179.18C13.898 183.558 14.8856 188.026 15.5488 192.546C15.5488 192.648 15.5894 192.747 15.6617 192.819C15.7339 192.891 15.832 192.932 15.9342 192.932Z" fill="black"/>
<path d="M24.7995 188.819C30.7096 191.646 31.095 195.245 29.4248 198.715L28.6539 200H15.9346C12.4656 197.43 12.4656 194.474 13.8789 191.646C15.2922 188.819 18.7611 185.991 24.7995 188.819Z" fill="#FFC619"/>
<path d="M45.7412 189.332C51.3942 186.633 54.4777 188.69 56.148 192.288C57.8182 195.887 57.6897 197.686 55.1201 200H42.0153L41.5014 199.1C39.8312 195.501 40.0882 191.903 45.7412 189.332Z" fill="#FFC619"/>
<path d="M22.2297 195.245C24.9278 196.53 27.8828 193.574 30.4524 190.232C32.1658 191.649 34.2746 192.502 36.4908 192.674C38.4984 192.566 40.4256 191.849 42.0154 190.618C43.3002 193.317 45.3558 196.016 47.6685 194.988C49.9811 193.959 49.9811 190.489 48.4393 186.633C48.1215 185.846 47.6345 185.139 47.0128 184.562C46.3911 183.984 45.6499 183.551 44.8419 183.292C42.4372 182.747 39.9838 182.445 37.5187 182.392C33.8659 182.193 30.2023 182.409 26.598 183.035C25.1887 183.416 23.9878 184.34 23.2576 185.605C21.2019 189.204 18.8893 193.445 22.2297 195.245Z" fill="white"/>
<path d="M41.887 186.505L39.8314 187.918C39.073 188.492 38.1483 188.802 37.1976 188.802C36.2469 188.802 35.3222 188.492 34.5638 187.918L32.7651 186.505C32.5758 186.352 32.4395 186.144 32.3754 185.909C32.3113 185.674 32.3227 185.426 32.4081 185.198C32.4934 184.97 32.6484 184.775 32.8508 184.641C33.0533 184.506 33.293 184.439 33.536 184.448H41.3731C41.5949 184.486 41.8008 184.587 41.9659 184.74C42.131 184.892 42.2479 185.09 42.3025 185.308C42.357 185.526 42.3468 185.756 42.273 185.968C42.1992 186.181 42.0651 186.367 41.887 186.505Z" fill="#57F287"/>
<path d="M43.8135 187.019C43.8135 187.658 44.3314 188.176 44.9702 188.176C45.6091 188.176 46.127 187.658 46.127 187.019V185.592C46.127 184.954 45.6091 184.436 44.9702 184.436C44.3314 184.436 43.8135 184.954 43.8135 185.592V187.019Z" fill="#163352"/>
<path d="M27.8818 187.019C27.8818 187.658 28.3997 188.176 29.0385 188.176C29.6774 188.176 30.1953 187.658 30.1953 187.019V185.592C30.1953 184.954 29.6774 184.436 29.0385 184.436C28.3997 184.436 27.8818 184.954 27.8818 185.592V187.019Z" fill="#163352"/>
<path d="M145.055 152.831H78.6316C77.2124 152.831 76.062 153.982 76.062 155.402V197.365C76.062 198.785 77.2124 199.936 78.6316 199.936H145.055C146.474 199.936 147.624 198.785 147.624 197.365V155.402C147.624 153.982 146.474 152.831 145.055 152.831Z" fill="#29CC7A"/>
<path d="M297.43 152.831H231.007C229.588 152.831 228.438 153.982 228.438 155.402V197.365C228.438 198.785 229.588 199.936 231.007 199.936H297.43C298.85 199.936 300 198.785 300 197.365V155.402C300 153.982 298.85 152.831 297.43 152.831Z" fill="#91FFAD"/>
<path d="M297.173 152.831H231.264C229.703 152.831 228.438 154.097 228.438 155.659V197.108C228.438 198.67 229.703 199.936 231.264 199.936H297.173C298.734 199.936 300 198.67 300 197.108V155.659C300 154.097 298.734 152.831 297.173 152.831Z" fill="#5865F2"/>
<path d="M247.966 195.245C240.9 185.734 237.688 181.364 233.063 184.063C228.437 186.762 232.035 193.189 237.045 200H261.199V186.12C253.491 187.019 251.05 190.49 247.966 195.245Z" fill="url(#paint3_linear_14123_102742)"/>
<path d="M299.486 198.844C297.995 196.314 296.365 193.868 294.604 191.518C287.409 181.364 285.61 181.621 267.495 185.348C256.189 187.79 252.848 191.132 252.334 200H297.173C297.621 199.995 298.062 199.889 298.463 199.688C298.864 199.488 299.213 199.199 299.486 198.844Z" fill="#7196FF"/>
<path d="M254.39 188.176C256.574 193.445 262.741 198.715 269.551 197.044C279.572 194.602 278.287 188.176 285.739 188.176V186.634C281.371 182.521 283.812 182.649 270.321 185.348C268.031 185.808 265.793 186.497 263.641 187.405V186.119C257.988 186.762 258.758 183.549 256.446 186.505L254.39 188.176Z" fill="#4D7AF7"/>
<path d="M283.169 192.417C283.041 192.16 282.784 192.16 282.527 192.289C282.474 192.303 282.426 192.328 282.384 192.362C282.342 192.397 282.308 192.44 282.283 192.488C282.259 192.537 282.245 192.59 282.243 192.644C282.241 192.698 282.25 192.752 282.27 192.803L285.739 200H286.767L283.169 192.417Z" fill="#4D7AF7"/>
<path d="M246.238 182.474L281.698 182.412C284.111 182.408 286.063 180.448 286.059 178.034L286.044 169.462C286.04 167.048 284.08 165.095 281.668 165.099L246.208 165.161C243.795 165.166 241.843 167.125 241.847 169.539L241.862 178.112C241.867 180.525 243.826 182.478 246.238 182.474Z" fill="#7196FF"/>
<path d="M282.45 157.715H251.872C246.905 157.715 242.878 161.743 242.878 166.712V181.299C242.878 186.268 246.905 190.296 251.872 190.296H282.45C287.417 190.296 291.443 186.268 291.443 181.299V166.712C291.443 161.743 287.417 157.715 282.45 157.715Z" fill="#7196FF"/>
<path d="M249.636 171.339C250.985 171.339 252.078 170.246 252.078 168.897C252.078 167.548 250.985 166.455 249.636 166.455C248.288 166.455 247.195 167.548 247.195 168.897C247.195 170.246 248.288 171.339 249.636 171.339Z" fill="black"/>
<path d="M254.317 164.364L271.79 164.333C272.574 164.332 273.326 164.642 273.881 165.196C274.436 165.749 274.749 166.5 274.75 167.284L274.763 174.482C274.766 176.391 274.012 178.223 272.665 179.575C271.318 180.927 269.489 181.689 267.581 181.692L257.688 181.709C256.018 181.712 254.416 181.051 253.233 179.872C252.051 178.693 251.385 177.093 251.382 175.422L251.367 167.325C251.367 166.937 251.443 166.553 251.59 166.194C251.738 165.835 251.955 165.508 252.229 165.233C252.503 164.958 252.829 164.74 253.187 164.591C253.545 164.442 253.929 164.365 254.317 164.364Z" fill="#B8CDFF"/>
<path d="M257.473 177.636H256.06C255.881 177.654 255.7 177.634 255.529 177.578C255.358 177.521 255.201 177.429 255.067 177.308C254.934 177.187 254.828 177.039 254.755 176.874C254.683 176.709 254.646 176.531 254.647 176.351C254.679 175.998 254.842 175.671 255.104 175.433C255.365 175.195 255.707 175.064 256.06 175.065H257.473C257.827 175.064 258.168 175.195 258.43 175.433C258.692 175.671 258.855 175.998 258.887 176.351C258.888 176.531 258.851 176.709 258.778 176.874C258.706 177.039 258.6 177.187 258.466 177.308C258.333 177.429 258.176 177.521 258.005 177.578C257.834 177.634 257.653 177.654 257.473 177.636Z" fill="#7196FF"/>
<path d="M266.467 177.637H263.898C263.544 177.638 263.203 177.507 262.941 177.269C262.68 177.031 262.517 176.704 262.484 176.351C262.483 176.171 262.52 175.993 262.593 175.828C262.665 175.663 262.772 175.515 262.905 175.394C263.038 175.273 263.195 175.181 263.366 175.124C263.537 175.068 263.718 175.048 263.898 175.066H266.467C266.646 175.048 266.827 175.068 266.998 175.124C267.169 175.181 267.327 175.273 267.46 175.394C267.593 175.515 267.7 175.663 267.772 175.828C267.844 175.993 267.881 176.171 267.88 176.351C267.848 176.704 267.685 177.031 267.424 177.269C267.162 177.507 266.821 177.638 266.467 177.637Z" fill="#7196FF"/>
<path d="M285.668 165.595L293.762 165.581C294.852 165.579 295.899 166.01 296.671 166.78C297.444 167.55 297.879 168.595 297.881 169.686L297.896 178.812C297.898 179.902 297.467 180.949 296.697 181.722C295.928 182.495 294.883 182.93 293.792 182.932L285.698 182.946L285.668 165.595Z" fill="#7196FF"/>
<path d="M290.168 167.643L292.481 167.639C292.992 167.638 293.483 167.84 293.845 168.201C294.207 168.562 294.411 169.052 294.412 169.563L294.424 176.632C294.425 177.143 294.223 177.634 293.862 177.996C293.501 178.358 293.011 178.562 292.5 178.563L290.188 178.567L290.169 167.771L290.168 167.643Z" fill="#B8CDFF"/>
<path d="M280.6 171.467C282.09 171.467 283.298 170.259 283.298 168.768C283.298 167.278 282.09 166.069 280.6 166.069C279.11 166.069 277.902 167.278 277.902 168.768C277.902 170.259 279.11 171.467 280.6 171.467Z" fill="black"/>
<path d="M266.596 183.934L272.12 182.521C272.377 182.521 272.634 182.778 272.506 183.035C271.092 187.662 269.294 186.505 266.467 184.705C266.419 184.649 266.384 184.582 266.365 184.51C266.345 184.439 266.341 184.364 266.354 184.29C266.366 184.217 266.394 184.147 266.436 184.086C266.477 184.024 266.532 183.973 266.596 183.934Z" fill="#9C1061"/>
<path d="M272.506 183.163L270.964 183.549C269.742 183.896 268.634 184.562 267.752 185.477C269.936 186.762 271.478 186.89 272.506 183.163Z" fill="#FF78B9"/>
<path d="M266.724 156.301H280.857C280.866 155.048 280.46 153.828 279.7 152.831H271.863C268.266 156.173 266.724 156.301 266.724 156.301Z" fill="#29CC7A"/>
<path d="M256.061 156.301H271.863C271.863 156.301 270.322 156.173 266.853 152.831H255.29C255.148 154.042 255.419 155.265 256.061 156.301Z" fill="#57F287"/>
<path d="M111.908 195.116C122.196 195.116 130.537 186.773 130.537 176.48C130.537 166.188 122.196 157.844 111.908 157.844C101.619 157.844 93.2783 166.188 93.2783 176.48C93.2783 186.773 101.619 195.116 111.908 195.116Z" fill="#57F287"/>
<path d="M95.5918 175.324L93.7924 172.239C93.5591 173.126 93.3874 174.028 93.2783 174.938L95.5918 175.324Z" fill="#FF78B9"/>
<path d="M96.2332 175.452C97.518 175.581 98.2889 174.81 97.9035 173.396C97.2703 171.416 96.4975 169.483 95.5908 167.612C94.4072 169.618 93.6627 171.852 93.4067 174.167C94.2555 174.777 95.2159 175.214 96.2332 175.452Z" fill="white"/>
<path d="M126.04 164.271C124.781 162.9 123.357 161.691 121.801 160.672L120.13 170.183C121.801 169.283 125.27 167.098 126.04 164.528V164.271Z" fill="#FF78B9"/>
<path d="M118.203 158.872C117.878 159.563 117.661 160.3 117.561 161.057C117.239 163.786 117.153 166.539 117.304 169.283C117.312 169.549 117.39 169.809 117.529 170.036C117.667 170.264 117.863 170.451 118.096 170.581C118.329 170.71 118.591 170.777 118.858 170.775C119.124 170.773 119.385 170.701 119.616 170.568C120.387 170.054 121.543 164.27 122.057 160.8C120.84 160.03 119.549 159.384 118.203 158.872Z" fill="white"/>
<path d="M128.867 173.781L125.398 174.552L126.811 180.979L130.152 180.336C130.407 179.067 130.536 177.775 130.537 176.48C130.558 175.835 130.515 175.189 130.409 174.552C130.223 174.32 129.989 174.13 129.722 173.997C129.456 173.864 129.164 173.79 128.867 173.781Z" fill="#7196FF"/>
<path d="M121.029 188.69H119.359L105.484 190.618C104.244 190.877 103.093 191.453 102.143 192.289C105.061 194.145 108.45 195.126 111.907 195.117C116.572 195.147 121.073 193.401 124.498 190.233C123.567 189.315 122.334 188.767 121.029 188.69Z" fill="white"/>
<path d="M122.571 183.292L98.4175 187.148L98.6744 189.076C98.8029 189.333 98.8029 189.59 98.9314 189.847C99.8264 190.727 100.818 191.503 101.886 192.16H103.428L120.516 189.461C121.277 189.365 121.972 188.975 122.451 188.375C122.931 187.776 123.158 187.013 123.085 186.248L122.571 183.292Z" fill="#7196FF"/>
<path d="M119.874 183.807L120.773 189.462H120.131L119.103 183.807H119.874Z" fill="#5865F2"/>
<path d="M112.936 184.835L113.964 190.619L113.193 190.747L112.165 184.963L112.936 184.835Z" fill="#5865F2"/>
<path d="M105.998 185.991L107.026 191.646L106.384 191.775L105.355 185.991H105.998Z" fill="#5865F2"/>
<path d="M128.738 176.866C127.839 172.111 124.242 170.697 122.314 169.926C120.387 169.155 117.818 167.484 116.918 166.07C116.019 164.656 111.137 159.901 105.355 161.058C99.5738 162.214 97.1327 166.584 96.3618 170.826C95.9764 172.882 95.9763 173.91 94.82 175.324C93.6637 176.738 93.7922 176.609 93.2783 177.252C93.3891 179.983 94.1032 182.656 95.3694 185.078C96.6356 187.5 98.4225 189.612 100.602 191.261H101.886L122.057 187.148C124.297 186.655 126.253 185.3 127.503 183.376C128.753 181.453 129.197 179.114 128.738 176.866Z" fill="white"/>
<path d="M116.405 169.54C116.919 169.797 116.662 170.568 116.148 171.467C115.634 172.367 114.992 173.138 114.606 172.753C114.22 172.367 114.349 171.724 114.863 170.825C115.377 169.925 116.02 169.282 116.405 169.54Z" fill="black"/>
<path d="M111.908 174.809C111.779 174.295 113.707 173.909 113.835 174.423C113.964 174.938 113.45 175.323 113.064 175.452C112.827 175.498 112.58 175.459 112.369 175.341C112.157 175.224 111.994 175.035 111.908 174.809Z" fill="black"/>
<path d="M113.578 178.151C113.321 180.079 112.036 181.493 110.751 181.236C109.467 180.979 108.567 179.437 108.824 177.509L113.578 178.151Z" fill="#FFAED7"/>
<path d="M103.942 172.11C103.556 172.496 104.199 173.139 104.97 173.781C105.741 174.424 106.64 174.809 106.897 174.424C107.154 174.038 106.768 173.139 105.998 172.496C105.227 171.853 104.199 171.596 103.942 172.11Z" fill="black"/>
<path d="M105.227 178.537H104.97L102.786 176.609C102.657 176.609 102.657 176.352 102.786 176.224H103.3L105.355 178.023C105.419 178.094 105.454 178.185 105.454 178.28C105.454 178.375 105.419 178.466 105.355 178.537C105.336 178.526 105.314 178.52 105.291 178.52C105.269 178.52 105.246 178.526 105.227 178.537Z" fill="#FFAED7"/>
<path d="M103.3 178.922H103.043L100.858 176.866C100.831 176.842 100.809 176.812 100.794 176.779C100.779 176.746 100.771 176.71 100.771 176.673C100.771 176.637 100.779 176.601 100.794 176.568C100.809 176.534 100.831 176.505 100.858 176.48H101.372L103.428 178.28C103.491 178.351 103.526 178.442 103.526 178.537C103.526 178.632 103.491 178.723 103.428 178.794L103.3 178.922Z" fill="#FFAED7"/>
<path d="M101.244 179.308H100.987L98.9312 177.38C98.9039 177.356 98.882 177.326 98.867 177.293C98.852 177.259 98.8442 177.223 98.8442 177.187C98.8442 177.15 98.852 177.114 98.867 177.081C98.882 177.048 98.9039 177.018 98.9312 176.994H99.4451L101.501 178.793C101.564 178.864 101.599 178.956 101.599 179.051C101.599 179.145 101.564 179.237 101.501 179.308H101.244Z" fill="#FFAED7"/>
<path d="M117.689 175.966H117.561C117.432 175.838 117.304 175.58 117.432 175.452L118.589 173.01C118.717 172.753 118.846 172.753 118.974 172.753C119.064 172.803 119.136 172.879 119.182 172.971C119.227 173.062 119.245 173.165 119.232 173.267L117.946 175.709L117.689 175.966Z" fill="#FFAED7"/>
<path d="M119.616 175.581H119.488C119.359 175.453 119.231 175.196 119.359 175.067L120.516 172.625C120.645 172.368 120.773 172.368 121.03 172.497C121.287 172.625 121.159 172.754 121.159 172.882L119.873 175.324L119.616 175.581Z" fill="#FFAED7"/>
<path d="M121.672 175.195H121.415C121.287 175.067 121.158 174.81 121.287 174.681L122.443 172.239C122.572 171.982 122.7 171.982 122.957 172.111C123.215 172.239 123.086 172.368 123.086 172.496L121.801 174.938L121.672 175.195Z" fill="#FFAED7"/>
<path d="M93.7925 180.979C94.2963 182.881 95.0757 184.7 96.1059 186.377C96.3497 185.586 96.3939 184.747 96.2345 183.935C95.8489 182.135 94.8207 180.85 93.7925 180.979Z" fill="#7196FF"/>
<path d="M104.456 160.542C104.456 160.928 104.713 161.185 105.098 161.056C105.484 161.056 105.613 160.799 105.613 160.414C105.595 159.933 105.509 159.456 105.355 159L104.199 159.386C104.257 159.777 104.343 160.163 104.456 160.542Z" fill="black"/>
<path d="M112.036 160.414C111.913 159.914 111.608 159.479 111.18 159.193C110.751 158.907 110.232 158.793 109.723 158.872L102.272 160.414C101.073 161.203 99.9539 162.107 98.9312 163.113L99.1881 164.527L112.293 161.828L112.036 160.414Z" fill="#5865F2"/>
<path d="M169.08 76.0993C170.57 76.0993 171.778 74.8909 171.778 73.4002C171.778 71.9096 170.57 70.7012 169.08 70.7012C167.59 70.7012 166.382 71.9096 166.382 73.4002C166.382 74.8909 167.59 76.0993 169.08 76.0993Z" fill="#FF78B9"/>
<path d="M147.496 73.6579C148.986 73.6579 150.194 72.4495 150.194 70.9588C150.194 69.4682 148.986 68.2598 147.496 68.2598C146.006 68.2598 144.798 69.4682 144.798 70.9588C144.798 72.4495 146.006 73.6579 147.496 73.6579Z" fill="#FF78B9"/>
<path d="M114.092 70.0583C115.582 70.0583 116.79 68.8499 116.79 67.3592C116.79 65.8686 115.582 64.6602 114.092 64.6602C112.601 64.6602 111.394 65.8686 111.394 67.3592C111.394 68.8499 112.601 70.0583 114.092 70.0583Z" fill="#FF78B9"/>
<path d="M175.247 96.9215C176.737 96.9215 177.945 95.7131 177.945 94.2225C177.945 92.7318 176.737 91.5234 175.247 91.5234C173.757 91.5234 172.549 92.7318 172.549 94.2225C172.549 95.7131 173.757 96.9215 175.247 96.9215Z" fill="#FF78B9"/>
<path d="M158.288 110.545C159.778 110.545 160.986 109.336 160.986 107.846C160.986 106.355 159.778 105.146 158.288 105.146C156.798 105.146 155.59 106.355 155.59 107.846C155.59 109.336 156.798 110.545 158.288 110.545Z" fill="#FF78B9"/>
<path d="M132.078 131.623C133.568 131.623 134.776 130.414 134.776 128.924C134.776 127.433 133.568 126.225 132.078 126.225C130.588 126.225 129.38 127.433 129.38 128.924C129.38 130.414 130.588 131.623 132.078 131.623Z" fill="#FF78B9"/>
<path d="M179.615 56.9489C181.106 56.9489 182.314 55.7405 182.314 54.2498C182.314 52.7592 181.106 51.5508 179.615 51.5508C178.125 51.5508 176.917 52.7592 176.917 54.2498C176.917 55.7405 178.125 56.9489 179.615 56.9489Z" fill="#FF78B9"/>
<path d="M165.997 39.984C167.487 39.984 168.695 38.7756 168.695 37.285C168.695 35.7943 167.487 34.5859 165.997 34.5859C164.507 34.5859 163.299 35.7943 163.299 37.285C163.299 38.7756 164.507 39.984 165.997 39.984Z" fill="#FF78B9"/>
<path d="M144.927 13.7643C146.417 13.7643 147.625 12.5559 147.625 11.0653C147.625 9.57461 146.417 8.36621 144.927 8.36621C143.436 8.36621 142.229 9.57461 142.229 11.0653C142.229 12.5559 143.436 13.7643 144.927 13.7643Z" fill="#FF78B9"/>
<path d="M172.421 65.4323C173.911 65.4323 175.119 64.2239 175.119 62.7332C175.119 61.2426 173.911 60.0342 172.421 60.0342C170.931 60.0342 169.723 61.2426 169.723 62.7332C169.723 64.2239 170.931 65.4323 172.421 65.4323Z" fill="#FF78B9"/>
<path d="M153.406 55.0211C154.896 55.0211 156.104 53.8127 156.104 52.3221C156.104 50.8315 154.896 49.623 153.406 49.623C151.916 49.623 150.708 50.8315 150.708 52.3221C150.708 53.8127 151.916 55.0211 153.406 55.0211Z" fill="#FF78B9"/>
<path d="M123.985 38.8268C125.475 38.8268 126.683 37.6184 126.683 36.1278C126.683 34.6371 125.475 33.4287 123.985 33.4287C122.495 33.4287 121.287 34.6371 121.287 36.1278C121.287 37.6184 122.495 38.8268 123.985 38.8268Z" fill="#FF78B9"/>
<path d="M170.108 87.153C171.598 87.153 172.806 85.9446 172.806 84.4539C172.806 82.9633 171.598 81.7549 170.108 81.7549C168.618 81.7549 167.41 82.9633 167.41 84.4539C167.41 85.9446 168.618 87.153 170.108 87.153Z" fill="#FF78B9"/>
<path d="M149.295 93.193C150.785 93.193 151.993 91.9846 151.993 90.494C151.993 89.0033 150.785 87.7949 149.295 87.7949C147.805 87.7949 146.597 89.0033 146.597 90.494C146.597 91.9846 147.805 93.193 149.295 93.193Z" fill="#FF78B9"/>
<path d="M116.918 102.576C118.408 102.576 119.616 101.367 119.616 99.8768C119.616 98.3861 118.408 97.1777 116.918 97.1777C115.428 97.1777 114.22 98.3861 114.22 99.8768C114.22 101.367 115.428 102.576 116.918 102.576Z" fill="#FF78B9"/>
<path d="M183.727 104.118C185.217 104.118 186.425 102.909 186.425 101.419C186.425 99.9281 185.217 98.7197 183.727 98.7197C182.237 98.7197 181.029 99.9281 181.029 101.419C181.029 102.909 182.237 104.118 183.727 104.118Z" fill="#FF78B9"/>
<path d="M173.32 123.14C174.81 123.14 176.018 121.932 176.018 120.441C176.018 118.951 174.81 117.742 173.32 117.742C171.83 117.742 170.622 118.951 170.622 120.441C170.622 121.932 171.83 123.14 173.32 123.14Z" fill="#FF78B9"/>
<path d="M149.68 63.8893C151.17 63.8893 152.378 62.6809 152.378 61.1903C152.378 59.6996 151.17 58.4912 149.68 58.4912C148.19 58.4912 146.982 59.6996 146.982 61.1903C146.982 62.6809 148.19 63.8893 149.68 63.8893Z" fill="#FF78B9"/>
<path d="M152.763 102.062C154.254 102.062 155.462 100.854 155.462 99.3631C155.462 97.8725 154.254 96.6641 152.763 96.6641C151.273 96.6641 150.065 97.8725 150.065 99.3631C150.065 100.854 151.273 102.062 152.763 102.062Z" fill="#FF78B9"/>
<path d="M159.187 46.7956C160.677 46.7956 161.885 45.5872 161.885 44.0965C161.885 42.6059 160.677 41.3975 159.187 41.3975C157.697 41.3975 156.489 42.6059 156.489 44.0965C156.489 45.5872 157.697 46.7956 159.187 46.7956Z" fill="#FF78B9"/>
<path d="M147.367 83.2965C148.858 83.2965 150.065 82.0881 150.065 80.5975C150.065 79.1069 148.858 77.8984 147.367 77.8984C145.877 77.8984 144.669 79.1069 144.669 80.5975C144.669 82.0881 145.877 83.2965 147.367 83.2965Z" fill="#FF78B9"/>
<path d="M164.969 117.357C166.459 117.357 167.667 116.149 167.667 114.658C167.667 113.167 166.459 111.959 164.969 111.959C163.479 111.959 162.271 113.167 162.271 114.658C162.271 116.149 163.479 117.357 164.969 117.357Z" fill="#FF78B9"/>
<path d="M117.56 53.6071C119.05 53.6071 120.258 52.3987 120.258 50.908C120.258 49.4174 119.05 48.209 117.56 48.209C116.07 48.209 114.862 49.4174 114.862 50.908C114.862 52.3987 116.07 53.6071 117.56 53.6071Z" fill="#FF78B9"/>
<path d="M122.957 117.485C124.447 117.485 125.655 116.277 125.655 114.786C125.655 113.295 124.447 112.087 122.957 112.087C121.467 112.087 120.259 113.295 120.259 114.786C120.259 116.277 121.467 117.485 122.957 117.485Z" fill="#FF78B9"/>
<path d="M133.492 24.946C134.982 24.946 136.19 23.7375 136.19 22.2469C136.19 20.7563 134.982 19.5479 133.492 19.5479C132.002 19.5479 130.794 20.7563 130.794 22.2469C130.794 23.7375 132.002 24.946 133.492 24.946Z" fill="#FF78B9"/>
<path d="M113.963 86.1247C115.453 86.1247 116.661 84.9163 116.661 83.4256C116.661 81.935 115.453 80.7266 113.963 80.7266C112.473 80.7266 111.265 81.935 111.265 83.4256C111.265 84.9163 112.473 86.1247 113.963 86.1247Z" fill="#FF78B9"/>
<path d="M143.256 143.062C144.746 143.062 145.954 141.854 145.954 140.363C145.954 138.872 144.746 137.664 143.256 137.664C141.766 137.664 140.558 138.872 140.558 140.363C140.558 141.854 141.766 143.062 143.256 143.062Z" fill="#FF78B9"/>
<path d="M62.7009 55.7936L29.0396 43.4551L34.6926 54.5083C35.7846 56.6738 37.6725 58.332 39.9602 59.1353L66.6837 68.9033L67.7115 66.3327L62.7009 55.7936Z" fill="#DAE2ED"/>
<path d="M70.4093 54.6364L25.6989 38.3136C25.4419 38.1851 25.185 38.5707 25.3135 38.8277L26.9837 42.2979C27.1792 42.6563 27.4991 42.9306 27.883 43.0691L29.0393 43.4547L62.7006 55.7932L67.7113 66.3323L66.6835 68.9028L66.0411 70.8307L77.3472 74.9436L78.8889 70.4452L72.3365 56.3073C72.153 55.9074 71.8861 55.5514 71.5537 55.2632C71.2213 54.975 70.8311 54.7613 70.4093 54.6364Z" fill="#ECEFF6"/>
<path d="M67.7115 66.3327L62.7009 55.7936L29.0396 43.4551L30.1958 45.7686L61.5446 57.0789L66.0413 66.9754L65.5274 68.5177L66.6837 68.9033L67.7115 66.3327Z" fill="#C5CEDD"/>
<path d="M82.4711 74.8918C82.5336 62.9668 72.9207 53.249 61.0001 53.1866C49.0796 53.1242 39.3654 62.7407 39.303 74.6657C39.2406 86.5907 48.8535 96.3084 60.774 96.3708C72.6946 96.4332 82.4087 86.8167 82.4711 74.8918Z" fill="#262D3D"/>
<path d="M74.8908 74.8524C74.9313 67.1154 68.6943 60.8104 60.9602 60.7699C53.226 60.7293 46.9234 66.9686 46.8829 74.7057C46.8424 82.4427 53.0794 88.7477 60.8135 88.7882C68.5477 88.8287 74.8503 82.5894 74.8908 74.8524Z" fill="#7687B2"/>
<path d="M75.163 57.7216C75.163 60.9348 66.5549 69.0319 60.7734 73.4018C55.6342 73.5303 42.5295 73.0162 39.5745 69.9316C39.0605 69.546 39.0605 69.2889 39.0605 69.0319V68.6463C39.9247 65.5212 41.4503 62.6185 43.534 60.1348C45.6177 57.6512 48.2108 55.6447 51.1375 54.2514C58.4608 50.7812 67.3258 51.6809 74.7775 56.9504C74.9113 57.026 75.0194 57.1397 75.088 57.2771C75.1567 57.4145 75.1828 57.5693 75.163 57.7216Z" fill="#FF7F14"/>
<path d="M61.1588 74.558C61.1588 74.558 40.4737 62.0909 42.5294 59.5204C44.7239 56.8755 47.492 54.7657 50.6235 53.3512C58.9746 49.3668 68.2251 51.0377 75.4199 56.0502C80.4305 59.6489 61.1588 74.558 61.1588 74.558Z" fill="#FF903E"/>
<path d="M72.7069 74.8406C72.7411 68.3103 67.4769 62.9886 60.949 62.9544C54.4211 62.9203 49.1014 68.1864 49.0673 74.7168C49.0331 81.2471 54.2973 86.5687 60.8252 86.6029C67.3531 86.6371 72.6728 81.371 72.7069 74.8406Z" fill="#EBEFF7"/>
<path d="M60.7732 84.5831C66.2368 84.5831 70.666 80.1522 70.666 74.6866C70.666 69.2209 66.2368 64.79 60.7732 64.79C55.3095 64.79 50.8804 69.2209 50.8804 74.6866C50.8804 80.1522 55.3095 84.5831 60.7732 84.5831Z" fill="#DAE2ED"/>
<path d="M54.8636 70.4457L60.2597 67.2325C60.5901 67.1035 60.9571 67.1035 61.2875 67.2325L66.8121 70.3172C66.9555 70.4232 67.0752 70.558 67.1637 70.7129C67.2522 70.8678 67.3074 71.0394 67.326 71.2168V77.5146C67.2935 77.9108 67.1094 78.2792 66.8121 78.5428L61.2875 81.756H60.2597L54.7351 78.6714C54.4728 78.4335 54.2929 78.1185 54.2212 77.7717V71.4739C54.1809 71.2532 54.2244 71.0255 54.3432 70.8353C54.4621 70.6451 54.6477 70.5061 54.8636 70.4457Z" fill="#C5CEDD"/>
<path d="M60.7736 78.1572C62.6894 78.1572 64.2425 76.6035 64.2425 74.687C64.2425 72.7705 62.6894 71.2168 60.7736 71.2168C58.8577 71.2168 57.3047 72.7705 57.3047 74.687C57.3047 76.6035 58.8577 78.1572 60.7736 78.1572Z" fill="#B7C2CE"/>
<path d="M87.6257 94.9931H85.827C85.5885 94.9931 85.3597 95.0879 85.1911 95.2566C85.0224 95.4254 84.9277 95.6542 84.9277 95.8928V99.7486C84.9287 100.272 84.7298 100.777 84.3717 101.159C84.0135 101.541 83.5231 101.772 83.0005 101.805C82.4553 101.805 81.9324 101.588 81.5469 101.203C81.1614 100.817 80.9448 100.294 80.9448 99.7486V83.2972C80.9757 82.7278 81.2157 82.1898 81.6188 81.7865C82.0219 81.3832 82.5597 81.1432 83.129 81.1123H89.8098C90.3791 81.1432 90.9169 81.3832 91.32 81.7865C91.7231 82.1898 91.9631 82.7278 91.994 83.2972V90.6232C91.994 91.7822 91.5337 92.8937 90.7145 93.7132C89.8953 94.5327 88.7842 94.9931 87.6257 94.9931Z" fill="#80A7FF"/>
<path d="M92.1224 74.1729H88.3965V78.2857H92.1224V74.1729Z" fill="#80A7FF"/>
<path d="M90.8373 83.1693H74.9059L74.5205 82.9122C74.5205 82.8099 74.5611 82.7119 74.6334 82.6396C74.7057 82.5672 74.8037 82.5266 74.9059 82.5266H90.8373C90.9657 82.5266 91.0942 82.3981 91.0942 82.141V79.5705C91.0942 79.442 91.3512 79.3135 91.4797 79.3135C91.6081 79.3135 91.8651 79.442 91.8651 79.5705V82.141C91.8651 82.2761 91.8385 82.4098 91.7869 82.5345C91.7352 82.6593 91.6595 82.7726 91.564 82.8681C91.4686 82.9636 91.3553 83.0393 91.2306 83.091C91.1059 83.1427 90.9722 83.1693 90.8373 83.1693Z" fill="#E4E9F7"/>
<path d="M92.636 73.2725H90.3234C90.1105 73.2725 89.938 73.4451 89.938 73.658V80.8298C89.938 81.0427 90.1105 81.2154 90.3234 81.2154H92.636C92.8489 81.2154 93.0215 81.0427 93.0215 80.8298V73.658C93.0215 73.4451 92.8489 73.2725 92.636 73.2725Z" fill="black"/>
<path d="M92.122 74.1722H93.5352C93.6637 74.1722 93.7922 74.3007 93.7922 74.5578V78.028L93.5352 78.285H92.2504C91.7444 78.3255 91.2413 78.1772 90.838 77.8687C90.4348 77.5602 90.1599 77.1133 90.0663 76.6142C90.0089 76.3138 90.0193 76.0044 90.0965 75.7085C90.1738 75.4126 90.3161 75.1376 90.5131 74.9037C90.71 74.6697 90.9566 74.4827 91.2349 74.3561C91.5132 74.2296 91.8163 74.1668 92.122 74.1722Z" fill="#80A7FF"/>
<path d="M84.9271 73.2725H82.6144C82.4016 73.2725 82.229 73.4451 82.229 73.658V80.8298C82.229 81.0427 82.4016 81.2154 82.6144 81.2154H84.9271C85.1399 81.2154 85.3125 81.0427 85.3125 80.8298V73.658C85.3125 73.4451 85.1399 73.2725 84.9271 73.2725Z" fill="black"/>
<path d="M83.6425 79.5703V82.1408C83.6451 82.3249 83.5817 82.5038 83.4639 82.6453C83.3461 82.7867 83.1816 82.8813 83.0001 82.912H67.1973" stroke="#2F3849" stroke-width="2.00882" stroke-miterlimit="10"/>
<path d="M90.195 75.8427C89.311 74.6218 88.1531 73.6254 86.8143 72.9334C85.4755 72.2415 83.9931 71.8733 82.4863 71.8584H69.6385C68.1051 71.8584 66.6345 72.4677 65.5503 73.5524C64.466 74.637 63.8569 76.1081 63.8569 77.6421V88.0527C63.8569 89.0753 64.263 90.056 64.9858 90.7791C65.7087 91.5022 66.689 91.9085 67.7113 91.9085H86.2122C87.7235 91.9088 89.1749 91.3172 90.2555 90.2602C91.3362 89.2032 91.9601 87.7649 91.9937 86.2533V81.3693C92.0123 79.3802 91.3807 77.4396 90.195 75.8427Z" fill="#9CB8FF"/>
<path d="M73.4928 71.8584H69.6385C68.8792 71.8584 68.1274 72.008 67.426 72.2986C66.7245 72.5893 66.0871 73.0153 65.5503 73.5524C65.0134 74.0895 64.5876 74.727 64.297 75.4288C64.0065 76.1305 63.8569 76.8826 63.8569 77.6421V86.7674C63.8891 87.7798 64.3055 88.742 65.0215 89.4582C65.7374 90.1745 66.6992 90.591 67.7113 90.6232H73.4928C73.3643 84.3254 73.3643 78.1562 73.4928 71.8584Z" fill="#80A7FF"/>
<path d="M61.2876 85.4819L57.1763 86.6387C56.6259 86.8292 56.1408 87.1718 55.777 87.6267C55.4132 88.0816 55.1856 88.6303 55.1206 89.2092C55.1024 89.6191 55.1696 90.0284 55.3181 90.4109C55.4666 90.7934 55.6931 91.1408 55.9832 91.4309C56.2732 91.7211 56.6205 91.9477 57.0028 92.0962C57.3852 92.2448 57.7943 92.3121 58.2041 92.2938C58.7879 92.2445 59.344 92.0227 59.8015 91.6565C60.259 91.2904 60.5974 90.7964 60.7736 90.2374L61.93 86.2531C62.0585 85.739 61.673 85.3534 61.2876 85.4819Z" fill="#80A7FF"/>
<path d="M70.5378 94.9928H68.7391C68.5006 94.9928 68.2718 95.0876 68.1032 95.2563C67.9345 95.425 67.8397 95.6539 67.8397 95.8925V99.7483C67.8408 100.272 67.6419 100.777 67.2838 101.159C66.9256 101.541 66.4352 101.772 65.9126 101.805C65.3674 101.805 64.8445 101.588 64.459 101.202C64.0735 100.817 63.8569 100.294 63.8569 99.7483V80.2123C63.8878 79.6428 64.1278 79.1048 64.5309 78.7015C64.934 78.2983 65.4718 78.0582 66.041 78.0273H72.7219C73.3012 78.0273 73.8567 78.2575 74.2664 78.6673C74.676 79.077 74.906 79.6328 74.906 80.2123V90.6229C74.906 91.7819 74.4458 92.8934 73.6266 93.7129C72.8074 94.5324 71.6963 94.9928 70.5378 94.9928Z" fill="#80A7FF"/>
<path d="M83.0003 83.1693H67.1974C66.9405 83.1693 66.812 83.0407 66.812 82.9122C66.812 82.8099 66.8526 82.7119 66.9249 82.6396C66.9972 82.5672 67.0952 82.5266 67.1974 82.5266H83.0003C83.1025 82.5266 83.2005 82.486 83.2728 82.4137C83.3451 82.3414 83.3857 82.2433 83.3857 82.141V79.5705C83.3857 79.5024 83.4128 79.437 83.461 79.3888C83.5092 79.3406 83.5745 79.3135 83.6427 79.3135C83.8996 79.3135 84.0281 79.442 84.0281 79.5705V82.141C84.0501 82.2811 84.0386 82.4243 83.9947 82.5591C83.9508 82.6939 83.8758 82.8164 83.7756 82.9166C83.6754 83.0168 83.5529 83.092 83.4182 83.1359C83.2834 83.1798 83.1403 83.1912 83.0003 83.1693Z" fill="#E4E9F7"/>
<path d="M84.9275 73.2725H82.6149C82.402 73.2725 82.2295 73.4451 82.2295 73.658V80.8298C82.2295 81.0427 82.402 81.2154 82.6149 81.2154H84.9275C85.1404 81.2154 85.313 81.0427 85.313 80.8298V73.658C85.313 73.4451 85.1404 73.2725 84.9275 73.2725Z" fill="black"/>
<path d="M85.0558 74.1719H77.2187C76.6053 74.1719 76.0171 73.9281 75.5834 73.4943C75.1497 73.0604 74.906 72.472 74.906 71.8584H70.1523V82.012H74.906C75.4199 79.4414 77.6041 78.2847 80.3021 78.2847H84.9274C85.4725 78.3018 86.0022 78.1014 86.3997 77.7278C86.7973 77.3542 87.0302 76.8379 87.0472 76.2925C87.0643 75.7472 86.864 75.2173 86.4906 74.8196C86.1171 74.4219 85.601 74.1889 85.0558 74.1719Z" fill="#80A7FF"/>
<path d="M67.1975 71.9873H84.799C87.9921 71.9873 90.5806 69.3979 90.5806 66.2036V55.6773C90.5806 52.4831 87.9921 49.8937 84.799 49.8937H67.1975C64.0044 49.8937 61.416 52.4831 61.416 55.6773V66.2036C61.416 69.3979 64.0044 71.9873 67.1975 71.9873Z" fill="#80A7FF"/>
<path d="M70.9236 71.9873H88.5251C91.7182 71.9873 94.3066 69.3979 94.3066 66.2036V55.6773C94.3066 52.4831 91.7182 49.8937 88.5251 49.8937H70.9236C67.7306 49.8937 65.1421 52.4831 65.1421 55.6773V66.2036C65.1421 69.3979 67.7306 71.9873 70.9236 71.9873Z" fill="#9CB8FF"/>
<path d="M67.3262 64.918H63.0864C62.0642 64.918 61.0838 64.5117 60.361 63.7886C59.6382 63.0655 59.2321 62.0848 59.2321 61.0622V58.3631C59.2321 57.3405 59.6382 56.3598 60.361 55.6367C61.0838 54.9136 62.0642 54.5074 63.0864 54.5074H67.3262V64.7894V64.918Z" fill="#9CB8FF"/>
<path d="M67.4546 56.95V62.7337C67.4546 62.836 67.414 62.9341 67.3417 63.0064C67.2694 63.0787 67.1714 63.1193 67.0692 63.1193H63.2148C62.7037 63.1193 62.2135 62.9162 61.8521 62.5546C61.4907 62.1931 61.2876 61.7027 61.2876 61.1914V58.4923C61.2876 57.981 61.4907 57.4907 61.8521 57.1291C62.2135 56.7676 62.7037 56.5645 63.2148 56.5645H67.0692C67.1714 56.5645 67.2694 56.6051 67.3417 56.6774C67.414 56.7497 67.4546 56.8478 67.4546 56.95Z" fill="#80A7FF"/>
<path d="M72.0798 59.6868C72.0798 60.7303 72.9139 61.5762 73.9428 61.5762C74.9716 61.5762 75.8057 60.7303 75.8057 59.6868C75.8057 58.6434 74.9716 57.7975 73.9428 57.7975C72.9139 57.7975 72.0798 58.6434 72.0798 59.6868Z" fill="black"/>
<path d="M94.4349 55.665H81.4586C80.8452 55.665 80.257 55.9088 79.8233 56.3426C79.3896 56.7765 79.146 57.3649 79.146 57.9785V60.6776C79.1796 62.1891 79.8035 63.6274 80.8841 64.6844C81.9647 65.7414 83.4162 66.3331 84.9275 66.3327H91.0945C91.8368 66.3327 92.5719 66.1864 93.2578 65.9022C93.9437 65.618 94.5668 65.2015 95.0918 64.6764C95.6167 64.1512 96.0331 63.5278 96.3172 62.8417C96.6013 62.1556 96.7475 61.4202 96.7475 60.6776V57.9785C96.7475 57.3649 96.5039 56.7765 96.0702 56.3426C95.6365 55.9088 95.0482 55.665 94.4349 55.665Z" fill="#B8D0FF"/>
<path d="M90.966 66.333H87.4971C85.9638 66.333 84.4932 65.7237 83.409 64.639C82.3247 63.5544 81.7156 62.0833 81.7156 60.5493V57.8503C81.732 57.5463 81.8082 57.2486 81.9399 56.9741C82.0715 56.6997 82.256 56.4539 82.4828 56.2509C82.7096 56.048 82.9742 55.8918 83.2614 55.7913C83.5487 55.6908 83.8529 55.648 84.1567 55.6653H94.435C95.0483 55.6653 95.6365 55.9091 96.0702 56.3429C96.5039 56.7768 96.7476 57.3652 96.7476 57.9788V60.6779C96.714 62.1894 96.0901 63.6277 95.0094 64.6847C93.9288 65.7417 92.4774 66.3334 90.966 66.333Z" fill="#CBDAF7"/>
<path d="M89.1671 62.0918H86.5976C86.359 62.0918 86.1303 62.1866 85.9616 62.3553C85.793 62.524 85.6982 62.7529 85.6982 62.9915C85.6982 63.2301 85.793 63.4589 85.9616 63.6277C86.1303 63.7964 86.359 63.8912 86.5976 63.8912H89.1671C89.4057 63.8912 89.6344 63.7964 89.8031 63.6277C89.9718 63.4589 90.0665 63.2301 90.0665 62.9915C90.0665 62.7529 89.9718 62.524 89.8031 62.3553C89.6344 62.1866 89.4057 62.0918 89.1671 62.0918Z" fill="#9CB8FF"/>
<path d="M93.664 62.0918H92.6362C92.3977 62.0918 92.1689 62.1866 92.0002 62.3553C91.8316 62.524 91.7368 62.7529 91.7368 62.9915C91.7368 63.2301 91.8316 63.4589 92.0002 63.6277C92.1689 63.7964 92.3977 63.8912 92.6362 63.8912H93.664C93.9025 63.8912 94.1313 63.7964 94.3 63.6277C94.4686 63.4589 94.5634 63.2301 94.5634 62.9915C94.5634 62.7529 94.4686 62.524 94.3 62.3553C94.1313 62.1866 93.9025 62.0918 93.664 62.0918Z" fill="#9CB8FF"/>
<path d="M88.1395 68.6456H89.6812C89.8516 68.6456 90.015 68.5779 90.1354 68.4574C90.2559 68.3369 90.3236 68.1734 90.3236 68.003C90.3236 67.8325 90.2559 67.6691 90.1354 67.5486C90.015 67.4281 89.8516 67.3604 89.6812 67.3604H88.1395C87.9691 67.3604 87.8057 67.4281 87.6852 67.5486C87.5648 67.6691 87.4971 67.8325 87.4971 68.003C87.4971 68.1734 87.5648 68.3369 87.6852 68.4574C87.8057 68.5779 87.9691 68.6456 88.1395 68.6456Z" fill="#80A7FF"/>
<path opacity="0.5" d="M95.4626 52.1943C97.055 54.8936 97.8626 57.984 97.7945 61.1175C97.7264 64.2511 96.7853 67.3034 95.0772 69.9309L91.7367 71.8588L70.1524 70.9592L64.8848 63.8902L70.1524 49.8809H88.6533L95.4626 52.1943Z" fill="#4871E5"/>
<path d="M78.2465 44.4824C65.6556 44.4824 58.7178 52.9651 58.7178 60.0341C58.7178 67.103 66.9404 67.7457 68.8676 62.7331L72.9788 51.9369L90.9658 54.2504L95.4625 52.194C93.7923 49.4949 87.6254 44.4824 78.2465 44.4824Z" fill="#EBEFF7"/>
<path d="M67.5828 63.8906L78.8889 69.9314H95.0772L93.5354 72.5019H67.1974L64.8848 67.3608L67.5828 63.8906Z" fill="#EBEFF7"/>
<path d="M64.8847 55.6644L61.5443 56.8211L60.0025 50.7804C59.9186 50.4399 59.9641 50.0803 60.1303 49.7716C60.2965 49.4628 60.5715 49.2268 60.9019 49.1095C61.079 49.0492 61.2663 49.0247 61.4529 49.0374C61.6395 49.0501 61.8218 49.0998 61.9891 49.1834C62.1564 49.2671 62.3055 49.3832 62.4276 49.525C62.5498 49.6667 62.6425 49.8313 62.7006 50.0092L64.8847 55.6644Z" fill="#DAE2ED"/>
<path d="M60.5166 52.9657L61.5444 56.8215L64.8849 55.6648L63.4716 51.9375L60.5166 52.9657Z" fill="#B7C2CE"/>
<path d="M40.6025 86.8966C31.7374 83.6834 27.2407 85.0972 23.1294 92.2946C37.0051 97.5642 38.2898 91.9091 40.6025 86.8966Z" fill="#FF7F14"/>
<path d="M65.6698 79.2118L52.52 82.2246L53.6645 87.2234L66.8142 84.2106L65.6698 79.2118Z" fill="#B7C2CE"/>
<path d="M55.8915 87.9241L39.4463 93.5792C39.0997 93.6681 38.7324 93.6222 38.4184 93.4507C37.0335 92.161 36.1275 90.4389 35.8488 88.5667C35.2397 86.7138 35.3312 84.7016 36.1058 82.9116C36.1919 82.7773 36.3049 82.6624 36.4375 82.5739C36.5702 82.4854 36.7197 82.4254 36.8767 82.3975L54.2213 80.341C54.4782 80.2125 54.8636 80.4696 54.9921 80.8552L56.4054 87.1529C56.4148 87.3198 56.3699 87.4853 56.2772 87.6244C56.1845 87.7634 56.0491 87.8687 55.8915 87.9241Z" fill="#C5CEDD"/>
<path d="M50.6242 84.1976C51.0501 84.1976 51.3954 83.8523 51.3954 83.4264C51.3954 83.0005 51.0501 82.6553 50.6242 82.6553C50.1983 82.6553 49.853 83.0005 49.853 83.4264C49.853 83.8523 50.1983 84.1976 50.6242 84.1976Z" fill="#B7C2CE"/>
<path d="M46.7697 84.7113C47.1956 84.7113 47.5409 84.366 47.5409 83.9401C47.5409 83.5142 47.1956 83.1689 46.7697 83.1689C46.3438 83.1689 45.9985 83.5142 45.9985 83.9401C45.9985 84.366 46.3438 84.7113 46.7697 84.7113Z" fill="#B7C2CE"/>
<path d="M44.0712 96.4072C31.4803 96.4072 26.4697 100.263 24.5425 111.059C44.3281 111.445 43.4288 103.862 44.0712 96.4072Z" fill="#FF7F14"/>
<path d="M62.9239 80.0328L52.3682 88.1865L55.4952 92.2378L66.051 84.0841L62.9239 80.0328Z" fill="#D0D9EA"/>
<path d="M58.4606 91.2656L45.8697 103.347C45.6129 103.543 45.2918 103.634 44.9703 103.604C44.071 103.476 42.4008 102.704 40.4736 100.262C38.5464 97.8204 38.2895 96.021 38.4179 95.1213C38.3981 94.969 38.4242 94.8142 38.4929 94.6768C38.5615 94.5395 38.6697 94.4257 38.8034 94.3502L53.7068 85.0963C53.8431 84.9941 54.0145 84.9501 54.1832 84.9742C54.3518 84.9983 54.504 85.0885 54.6062 85.2248L58.5891 90.3659C58.6656 90.5101 58.6944 90.675 58.6713 90.8367C58.6483 90.9984 58.5745 91.1485 58.4606 91.2656Z" fill="#EBEFF7"/>
<path d="M51.6515 90.1097C52.0774 90.1097 52.4227 89.7644 52.4227 89.3385C52.4227 88.9126 52.0774 88.5674 51.6515 88.5674C51.2256 88.5674 50.8804 88.9126 50.8804 89.3385C50.8804 89.7644 51.2256 90.1097 51.6515 90.1097Z" fill="#B7C2CE"/>
<path d="M48.6965 92.68C49.1224 92.68 49.4676 92.3347 49.4676 91.9088C49.4676 91.4829 49.1224 91.1377 48.6965 91.1377C48.2706 91.1377 47.9253 91.4829 47.9253 91.9088C47.9253 92.3347 48.2706 92.68 48.6965 92.68Z" fill="#B7C2CE"/>
<path d="M69.8138 62.0494C70.2896 58.1744 67.9919 54.7037 64.6818 54.2972C61.3717 53.8908 58.3026 56.7026 57.8268 60.5775C57.351 64.4525 59.6487 67.9232 62.9588 68.3297C66.269 68.7361 69.338 65.9243 69.8138 62.0494Z" fill="#DAE2ED"/>
<path d="M67.2917 61.8252C67.6289 59.0775 66.0182 56.6186 63.6941 56.3332C61.37 56.0477 59.2125 58.0437 58.8753 60.7914C58.538 63.5391 60.1487 65.998 62.4728 66.2835C64.7969 66.569 66.9544 64.5729 67.2917 61.8252Z" fill="#B7C2CE"/>
<path d="M65.9998 61.6828C66.242 59.7101 65.068 57.9426 63.3778 57.735C61.6875 57.5274 60.121 58.9583 59.8788 60.931C59.6367 62.9037 60.8107 64.6712 62.5009 64.8789C64.1912 65.0865 65.7577 63.6556 65.9998 61.6828Z" fill="#FF903E"/>
<path d="M64.1008 59.2917L63.7438 59.146C63.6124 59.0923 63.4624 59.1554 63.4088 59.2868L62.098 62.5C62.0444 62.6314 62.1074 62.7815 62.2389 62.8351L62.5959 62.9809C62.7273 63.0345 62.8773 62.9715 62.9309 62.84L64.2417 59.6269C64.2953 59.4954 64.2323 59.3454 64.1008 59.2917Z" fill="#FF7F14"/>
<path d="M62.5723 71.8584H68.6107V84.711C68.6107 85.1541 68.4347 85.5791 68.1215 85.8925C67.8083 86.2058 67.3835 86.3819 66.9405 86.3819H62.5723V71.8584Z" fill="black"/>
<path d="M48.1828 55.7936L14.5215 43.4551L20.1746 54.5083C20.6982 55.5931 21.4343 56.5616 22.3391 57.3564C23.244 58.1512 24.2992 58.7561 25.4421 59.1353L52.1657 68.9033L53.065 66.3327L48.1828 55.7936Z" fill="#DAE2ED"/>
<path d="M55.8913 54.6364L11.1809 38.3136C10.9239 38.1851 10.6669 38.5707 10.7954 38.8277L12.4656 42.2979C12.6612 42.6563 12.9811 42.9306 13.365 43.0691L14.5213 43.4547L48.1826 55.7932L53.0648 66.3323L52.1654 68.9028L51.523 70.8307L62.8291 74.9436L64.3709 70.4452L57.8185 56.3073C57.635 55.9074 57.368 55.5514 57.0356 55.2632C56.7032 54.975 56.3131 54.7613 55.8913 54.6364Z" fill="#ECEFF6"/>
<path d="M53.065 66.3327L48.1828 55.7936L14.5215 43.4551L15.6778 45.7686L47.0265 57.0789L51.5233 66.9754L51.0094 68.5177L52.1657 68.9033L53.065 66.3327Z" fill="#C5CEDD"/>
<path d="M14.8882 40.9123L14.7674 40.8683C14.4339 40.7469 14.0652 40.9188 13.9439 41.2523L13.9219 41.3127C13.8005 41.6463 13.9725 42.0151 14.306 42.1365L14.4268 42.1805C14.7603 42.3019 15.129 42.13 15.2504 41.7964L15.2723 41.736C15.3937 41.4025 15.2217 41.0337 14.8882 40.9123Z" fill="#DAE2ED"/>
<path d="M17.6299 41.9103L17.5091 41.8663C17.1756 41.7449 16.8069 41.9169 16.6856 42.2504L16.6636 42.3108C16.5422 42.6443 16.7142 43.0131 17.0477 43.1345L17.1685 43.1785C17.502 43.2999 17.8707 43.128 17.9921 42.7945L18.014 42.7341C18.1354 42.4006 17.9634 42.0318 17.6299 41.9103Z" fill="#DAE2ED"/>
<path d="M56.0049 55.8801L55.8841 55.8361C55.5506 55.7146 55.1819 55.8866 55.0606 56.2201L55.0386 56.2805C54.9172 56.614 55.0892 56.9828 55.4227 57.1043L55.5435 57.1482C55.877 57.2697 56.2457 57.0977 56.3671 56.7642L56.389 56.7038C56.5104 56.3703 56.3384 56.0015 56.0049 55.8801Z" fill="#DAE2ED"/>
<path d="M66.1698 69.1592H59.1035C58.5358 69.1592 58.0757 69.6195 58.0757 70.1874V74.056C58.0757 74.6239 58.5358 75.0842 59.1035 75.0842H66.1698C66.7375 75.0842 67.1976 74.6239 67.1976 74.056V70.1874C67.1976 69.6195 66.7375 69.1592 66.1698 69.1592Z" fill="#FF5C5C"/>
<path d="M68.6107 76.871H63.2147C62.4991 76.871 61.8128 76.5867 61.3068 76.0805C60.8009 75.5743 60.5166 74.8878 60.5166 74.172V69.9306C60.5166 69.2148 60.8009 68.5283 61.3068 68.0221C61.8128 67.5159 62.4991 67.2316 63.2147 67.2316H68.6107C68.7507 67.2096 68.8939 67.221 69.0286 67.265C69.1634 67.3089 69.2858 67.384 69.386 67.4842C69.4862 67.5845 69.5613 67.7069 69.6052 67.8417C69.6491 67.9765 69.6605 68.1197 69.6386 68.2598V75.8428C69.6605 75.9829 69.6491 76.1261 69.6052 76.2609C69.5613 76.3956 69.4862 76.5182 69.386 76.6184C69.2858 76.7186 69.1634 76.7937 69.0286 76.8376C68.8939 76.8816 68.7507 76.893 68.6107 76.871Z" fill="#D0D9EA"/>
<path d="M84.2849 43.4551L83.8994 45.5115C85.6502 46.8378 87.1696 48.4446 88.3962 50.267L90.1949 46.0256C88.3943 44.8223 86.3926 43.9517 84.2849 43.4551Z" fill="#FF7F14"/>
<path d="M88.396 50.2677L90.1947 46.0264L91.8649 50.2677H88.396Z" fill="#FF903E"/>
<path d="M256.831 58.2341C255.932 61.9613 252.463 66.0742 251.307 65.5601C250.15 65.046 249.637 61.7043 249.893 58.3626C250.15 55.0209 251.821 52.1934 253.491 52.1934C255.161 52.1934 257.859 53.9927 256.831 58.2341Z" fill="#FFE75C"/>
<path d="M246.681 63.1176C248.737 65.174 251.564 65.9452 251.949 65.3026C252.334 64.6599 252.206 62.9891 251.564 60.9327C250.921 58.8763 248.352 55.149 246.681 55.5346C245.011 55.9202 242.827 59.1333 246.681 63.1176Z" fill="#FFE75C"/>
<path d="M225.354 53.4788C226.639 55.9208 227.795 56.8205 228.694 56.4349C229.77 55.4164 230.453 54.0511 230.622 52.5791C231.135 48.9804 229.208 43.7108 226.382 44.6105C223.555 45.5101 223.555 50.1371 225.354 53.4788Z" fill="#FFE75C"/>
<path d="M174.22 23.5322C178.074 25.3316 180.515 25.4601 181.157 24.1748C181.8 22.8896 181.414 20.3191 180.001 17.4915C177.303 12.3504 170.108 7.46644 167.282 11.3222C164.455 15.178 168.823 20.9617 174.22 23.5322Z" fill="#FFE75C"/>
<path d="M180.13 14.5352C182.699 18.391 185.012 19.8047 186.297 18.7765C187.581 17.7483 188.738 15.3063 188.866 11.9646C188.995 8.62297 187.196 2.32519 184.498 0.0117188H178.845C175.761 2.96782 176.789 9.7797 180.13 14.5352Z" fill="#FFE75C"/>
<path d="M191.564 10.0368C191.564 14.6637 192.464 17.1057 194.134 16.9772C195.804 16.8486 198.117 15.5634 200.172 12.8643C202.228 10.1653 204.412 3.48193 203.256 0.0117188H194.648C192.579 2.93972 191.499 6.45188 191.564 10.0368Z" fill="#FFE75C"/>
<path d="M204.797 13.5073C201.842 17.106 201.071 19.6766 202.356 20.7048C203.641 21.733 206.339 21.99 209.679 21.2189C215.846 19.6766 222.913 13.2503 219.572 9.26595C216.232 5.28164 208.909 8.36627 204.797 13.5073Z" fill="#FFE75C"/>
<path d="M228.309 56.0495C226.896 55.7924 226.382 55.4068 226.382 55.0213C226.629 54.2059 227.122 53.4873 227.795 52.9648C230.108 50.9084 237.688 47.5667 237.688 51.1655C237.688 54.7642 231.264 56.435 228.309 56.0495Z" fill="#FFE75C"/>
<path d="M245.654 60.5473L255.032 60.9329C257.119 61.0368 259.145 61.6693 260.92 62.7708C262.696 63.8724 264.162 65.407 265.182 67.2307L269.936 75.5849C271.007 77.441 271.571 79.5466 271.571 81.6899C271.571 83.8332 271.007 85.9387 269.936 87.7949L266.339 93.9641C265.262 95.8032 263.723 97.3284 261.875 98.3882C260.027 99.4479 257.934 100.005 255.803 100.005H247.195C245.224 100.002 243.282 99.5204 241.537 98.6027C239.792 97.685 238.295 96.358 237.174 94.7353L231.521 86.7667C230.251 84.9429 229.497 82.8098 229.338 80.5927C229.18 78.3756 229.623 76.1569 230.622 74.1711L234.219 67.2307C235.28 65.134 236.923 63.3882 238.951 62.2027C240.98 61.0172 243.307 60.4424 245.654 60.5473Z" fill="#66BCFF"/>
<path d="M265.182 67.2313C264.456 65.9512 263.497 64.8178 262.355 63.8896C260.79 65.2088 259.581 66.9008 258.84 68.8099C258.099 70.719 257.85 72.7838 258.116 74.8144L259.4 84.5824C259.703 86.5266 260.452 88.3742 261.589 89.9799C262.726 91.5856 264.22 92.9056 265.953 93.8362H266.338L269.936 87.667C271.007 85.8108 271.571 83.7053 271.571 81.562C271.571 79.4187 271.007 77.3132 269.936 75.457L265.182 67.2313Z" fill="#3892EB"/>
<path d="M242.185 92.4216L244.754 83.4248C245.371 81.1268 245.375 78.7075 244.766 76.4075C244.158 74.1074 242.957 72.007 241.285 70.3151L235.761 64.917C235.104 65.5826 234.581 66.3679 234.219 67.2305L230.622 74.1709C229.623 76.1567 229.18 78.3754 229.338 80.5925C229.497 82.8095 230.251 84.9427 231.521 86.7664L237.174 94.7351C237.851 95.7123 238.674 96.5793 239.615 97.3056C240.793 95.868 241.667 94.2066 242.185 92.4216Z" fill="#3892EB"/>
<path d="M204.669 90.7511L213.791 95.121C215.881 96.1492 218.205 96.6074 220.528 96.4495C222.852 96.2915 225.092 95.5229 227.024 94.2213L236.018 88.1806C237.992 86.8485 239.58 85.0171 240.618 82.8725C241.656 80.7279 242.108 78.3466 241.928 75.9706L241.157 66.7167C240.976 64.3202 240.152 62.0169 238.773 60.049C237.394 58.0812 235.51 56.5218 233.319 55.535L224.454 51.5507C222.42 50.6356 220.186 50.25 217.963 50.4297C215.739 50.6095 213.597 51.3488 211.735 52.5789L202.999 58.234C201.088 59.4852 199.529 61.2054 198.472 63.2304C197.415 65.2555 196.895 67.5178 196.96 69.8014L197.217 79.1838C197.308 81.6033 198.047 83.9538 199.358 85.989C200.669 88.0242 202.504 89.6691 204.669 90.7511Z" fill="#66BCFF"/>
<path d="M219.958 50.3944C217.053 50.2164 214.169 50.9829 211.735 52.5793L202.999 58.2345C201.088 59.4857 199.529 61.2059 198.472 63.2309C197.415 65.2559 196.895 67.5182 196.96 69.8018V75.3285C214.305 74.9429 215.589 68.7736 219.958 50.3944Z" fill="#3892EB"/>
<path d="M188.224 64.1461L201.328 64.5317C204.201 64.6011 207.039 63.8983 209.547 62.4967C212.056 61.0951 214.142 59.046 215.589 56.5631L220.857 47.3092C222.29 44.7842 223 41.9133 222.909 39.0114C222.819 36.1094 221.931 33.2884 220.343 30.8579L213.662 20.7043C212.25 18.5077 210.312 16.6988 208.023 15.4419C205.734 14.185 203.168 13.5198 200.558 13.5068H187.838C185.097 13.5114 182.403 14.2236 180.017 15.5746C177.631 16.9255 175.634 18.8694 174.219 21.2184L169.08 29.8297C167.574 32.2568 166.765 35.052 166.743 37.9088C166.72 40.7655 167.484 43.5732 168.952 46.0239L175.119 56.306C176.463 58.614 178.37 60.5436 180.662 61.9146C182.953 63.2856 185.555 64.0533 188.224 64.1461Z" fill="#66BCFF"/>
<path d="M178.845 30.0863C180.503 31.9481 182.355 33.6284 184.369 35.0988C184.893 35.449 185.519 35.6139 186.148 35.5673C186.776 35.5207 187.371 35.2654 187.838 34.8418C191.242 31.5257 195.199 28.829 199.53 26.8732C200.3 26.6161 202.356 25.8449 203.255 26.8732C203.588 27.2283 203.812 27.6705 203.903 28.1482C203.994 28.626 203.948 29.1198 203.769 29.5722C200.943 37.4123 197.859 45.3809 189.894 46.2806C181.928 47.1803 176.532 40.8825 173.962 32.7854C173.72 32.0819 173.59 31.3445 173.577 30.6004C173.562 30.1474 173.68 29.7001 173.918 29.3138C174.155 28.9276 174.5 28.6195 174.91 28.4279C175.321 28.2362 175.779 28.1694 176.227 28.2357C176.675 28.3021 177.094 28.4987 177.431 28.801L178.845 30.0863Z" fill="white"/>
<path d="M187.067 35.3564L188.095 40.2404H184.498C184.626 39.3408 185.14 36.5132 185.397 35.3564C185.938 35.5425 186.526 35.5425 187.067 35.3564Z" fill="#3892EB"/>
<path d="M177.431 28.8022L178.845 30.0874L175.504 36.7708C174.837 35.5071 174.32 34.17 173.962 32.7865C173.72 32.083 173.59 31.3456 173.577 30.6015C173.562 30.1485 173.68 29.7012 173.918 29.3149C174.155 28.9287 174.5 28.6206 174.91 28.429C175.321 28.2373 175.779 28.1705 176.227 28.2368C176.675 28.3032 177.094 28.4998 177.431 28.8022Z" fill="#3892EB"/>
<path d="M198.502 27.3873L199.53 26.8732C200.301 26.6161 202.356 25.8449 203.256 26.8732C203.588 27.2283 203.812 27.6705 203.903 28.1482C203.994 28.626 203.948 29.1198 203.77 29.5722C202.941 32.0744 201.954 34.5213 200.815 36.8982L198.502 27.3873Z" fill="#3892EB"/>
<path d="M192.078 31.1153L193.106 30.4727L196.318 43.3253L195.419 44.0964L192.078 31.1153Z" fill="#8CD9FF"/>
<path d="M181.928 33.1715L178.331 41.2687L177.56 40.2405L181.029 32.4004L181.928 33.1715Z" fill="#8CD9FF"/>
<path d="M201.842 26.3597C202.101 26.3383 202.361 26.3732 202.605 26.4619C202.849 26.5506 203.071 26.6912 203.255 26.8738C203.588 27.229 203.812 27.6711 203.903 28.1489C203.994 28.6266 203.948 29.1204 203.769 29.5728C200.943 37.4129 197.859 45.3816 189.894 46.2812H188.352C181.286 46.2812 176.275 40.369 173.962 32.786C173.72 32.0825 173.59 31.3451 173.577 30.601C173.559 30.2866 173.606 29.9719 173.715 29.6762C173.823 29.3805 173.991 29.1101 174.207 28.8815C174.424 28.6528 174.684 28.4708 174.974 28.3466C175.263 28.2224 175.575 28.1586 175.889 28.1591C176.465 28.1737 177.015 28.4028 177.431 28.8017L178.845 30.087C180.503 31.9488 182.355 33.629 184.369 35.0995C184.887 35.3607 185.46 35.493 186.039 35.485C186.692 35.4667 187.322 35.2417 187.838 34.8424C191.242 31.5263 195.199 28.8297 199.529 26.8738C200.255 26.541 201.044 26.3657 201.842 26.3597ZM201.842 25.8456C200.994 25.8962 200.164 26.1146 199.401 26.4882C195.014 28.4118 191.01 31.1112 187.581 34.4568C187.389 34.6728 187.15 34.8427 186.883 34.9539C186.616 35.0652 186.328 35.1149 186.039 35.0995C185.541 35.1108 185.05 34.9769 184.626 34.7139C182.59 33.3198 180.735 31.6794 179.101 29.8299C178.663 29.327 178.191 28.8546 177.688 28.4161C177.172 28.0169 176.542 27.7918 175.889 27.7735C175.52 27.7582 175.152 27.832 174.816 27.9886C174.481 28.1451 174.188 28.3799 173.962 28.6732C173.69 28.9168 173.469 29.2133 173.315 29.5447C173.16 29.8761 173.075 30.2355 173.063 30.601C173.173 31.3846 173.344 32.1582 173.577 32.9145C174.644 36.5518 176.534 39.8942 179.101 42.6825C180.285 43.959 181.715 44.9818 183.305 45.6887C184.895 46.3957 186.612 46.7722 188.352 46.7954H189.894C197.859 45.8957 201.2 38.3126 204.155 29.8299C204.404 29.2833 204.487 28.676 204.396 28.0823C204.305 27.4887 204.042 26.9347 203.641 26.4882C203.146 26.0508 202.502 25.8206 201.842 25.8456Z" fill="#66BCFF"/>
<path d="M182.314 26.8732H182.442L190.408 26.6161C190.544 26.6161 190.675 26.5619 190.771 26.4655C190.868 26.3691 190.922 26.2383 190.922 26.102C190.922 25.9656 190.868 25.8349 190.771 25.7385C190.675 25.6421 190.544 25.5879 190.408 25.5879L182.314 25.8449C182.177 25.8449 182.047 25.8991 181.95 25.9955C181.854 26.0919 181.8 26.2227 181.8 26.359C181.928 26.6161 182.057 26.8732 182.314 26.8732Z" fill="#3F99F2"/>
<path d="M179.872 23.0179C180.001 24.5603 180.515 24.6888 181.928 24.1747C184.095 23.5126 186.397 23.424 188.609 23.9176C191.435 24.5603 193.106 24.9458 192.849 23.0179C192.592 21.0901 189.508 18.5195 185.911 18.5195C182.314 18.5195 179.615 20.5759 179.872 23.0179Z" fill="white"/>
<path d="M179.872 23.0179C180.001 24.5603 180.515 24.6888 181.928 24.1747C184.095 23.5126 186.397 23.424 188.609 23.9176C191.435 24.5603 193.106 24.9458 192.849 23.0179C192.592 21.0901 189.508 18.5195 185.911 18.5195C182.314 18.5195 179.615 20.5759 179.872 23.0179Z" fill="white"/>
<path d="M184.498 57.078C184.634 57.078 184.765 57.0238 184.862 56.9274C184.958 56.831 185.012 56.7003 185.012 56.5639C184.938 55.0465 185.112 53.5272 185.526 52.0655C185.655 51.8084 185.398 51.5514 185.141 51.4229C184.884 51.2943 184.627 51.5514 184.498 51.8084C184.079 53.4008 183.906 55.0478 183.984 56.6924C183.984 56.9495 184.241 57.078 184.498 57.078Z" fill="#3F99F2"/>
<path d="M180.644 53.6077L181.158 53.3506L181.8 51.2942C181.845 51.1743 181.844 51.042 181.796 50.9232C181.749 50.8043 181.659 50.7075 181.543 50.6516C181.409 50.6406 181.275 50.6718 181.16 50.741C181.045 50.8102 180.954 50.9137 180.901 51.0372L180.13 52.965C180.119 53.099 180.15 53.2331 180.219 53.3484C180.288 53.4637 180.392 53.5544 180.515 53.6077H180.644Z" fill="#3F99F2"/>
<path d="M189.895 55.5348C190.031 55.5348 190.162 55.4806 190.258 55.3842C190.354 55.2878 190.409 55.157 190.409 55.0207C190.315 53.8027 190.099 52.5972 189.766 51.4219C189.713 51.2985 189.622 51.1949 189.507 51.1258C189.391 51.0566 189.257 51.0253 189.123 51.0363C188.866 51.1649 188.609 51.4219 188.738 51.679C189.102 52.7587 189.318 53.8828 189.38 55.0207C189.38 55.157 189.435 55.2878 189.531 55.3842C189.627 55.4806 189.758 55.5348 189.895 55.5348Z" fill="#3F99F2"/>
<path d="M185.269 18.9053C186.098 18.9711 186.869 19.3561 187.421 19.9794C187.972 20.6027 188.26 21.4156 188.224 22.247C188.224 22.7717 188.137 23.2929 187.967 23.7893C186.167 23.5539 184.34 23.6409 182.571 24.0463C182.308 23.4834 182.176 22.8682 182.185 22.247C182.168 21.8249 182.234 21.4036 182.38 21.0072C182.526 20.6107 182.748 20.2469 183.034 19.9365C183.321 19.6262 183.666 19.3753 184.049 19.1984C184.432 19.0214 184.847 18.9218 185.269 18.9053Z" fill="black"/>
<path d="M276.993 46.183C278.092 41.9947 277.313 38.1614 275.254 37.621C273.195 37.0807 270.635 40.0379 269.537 44.2261C268.439 48.4143 269.218 52.2476 271.277 52.788C273.336 53.3284 275.895 50.3712 276.993 46.183Z" fill="#FFE75C"/>
<path d="M263.897 44.2249C264.026 46.7955 272.634 54.3785 277.131 50.7798C279.572 48.7234 273.405 44.8676 269.936 43.5823C268.634 43.0276 267.239 42.7225 265.825 42.6826C264.668 42.8111 263.769 43.1967 263.897 44.2249Z" fill="#FFE75C"/>
<path d="M300 78.6704V53.9933L299.743 53.7363L290.878 45.3821C289.375 43.9712 287.516 42.998 285.5 42.5676C283.485 42.1372 281.39 42.266 279.443 42.9401L267.751 47.0529C265.931 47.686 264.303 48.774 263.021 50.2137C261.74 51.6533 260.847 53.3968 260.428 55.2786L257.602 68.7738C257.198 70.6695 257.293 72.6377 257.879 74.4853C258.464 76.333 259.52 77.9966 260.942 79.313L269.936 87.6672C271.433 89.043 273.27 89.9945 275.257 90.4237C277.245 90.853 279.31 90.7444 281.242 90.1092L293.062 85.9963C294.696 85.3789 296.17 84.399 297.371 83.1301C298.573 81.8613 299.472 80.3365 300 78.6704Z" fill="#66BCFF"/>
<path d="M300 78.6695V57.7197H297.944C296.011 57.7202 294.11 58.2166 292.423 59.1617C290.735 60.1068 289.319 61.4689 288.308 63.1178L281.113 74.6852C280.109 76.3404 279.546 78.2261 279.478 80.1615C279.411 82.0968 279.841 84.0171 280.728 85.7384L282.655 89.5942L293.062 85.9955C294.697 85.3781 296.17 84.3981 297.372 83.1293C298.573 81.8604 299.472 80.3356 300 78.6695Z" fill="#3892EB"/>
<path d="M300 65.1748C297.037 66.1402 294.525 68.15 292.934 70.83L287.794 79.3127C286.666 81.2067 286.039 83.3568 285.971 85.5605C285.904 87.7642 286.399 89.9488 287.409 91.9082L291.649 99.7483C292.487 101.378 293.667 102.808 295.108 103.939C296.549 105.07 298.218 105.877 300 106.303V65.1748Z" fill="#66BCFF"/>
<path d="M295.503 104.632C295.246 106.175 294.989 106.817 294.475 106.689C293.616 106.539 292.839 106.083 292.291 105.403C289.979 103.09 286.253 95.3784 289.979 95.1213C293.704 94.8643 295.76 101.676 295.503 104.632Z" fill="#FFE75C"/>
<path d="M300 104.504V97.5635C297.521 97.8495 295.234 99.0391 293.576 100.905C292.548 102.19 292.291 103.09 292.548 103.604C292.779 103.965 293.08 104.276 293.433 104.519C293.786 104.762 294.184 104.931 294.604 105.018C296.413 105.398 298.295 105.218 300 104.504Z" fill="#FFE75C"/>
<path d="M299.357 101.933L291.006 101.034C289.111 100.829 287.194 101.071 285.409 101.74C283.625 102.41 282.021 103.488 280.728 104.889L275.075 111.701C273.772 113.19 272.903 115.008 272.563 116.958C272.223 118.907 272.426 120.912 273.148 122.754L276.231 130.338C277.027 132.401 278.39 134.196 280.164 135.515C281.937 136.835 284.049 137.624 286.253 137.792L295.246 138.692C296.84 138.888 298.458 138.756 300 138.306V102.062L299.357 101.933Z" fill="#66BCFF"/>
<path d="M289.978 127.381C289.058 125.589 287.708 124.052 286.049 122.908C284.39 121.764 282.473 121.049 280.471 120.826L272.505 119.927C272.583 120.895 272.8 121.847 273.148 122.754L276.231 130.337C277.026 132.401 278.39 134.196 280.164 135.515C281.937 136.835 284.049 137.624 286.253 137.792L294.475 138.692C294.457 137.218 294.105 135.768 293.447 134.45L289.978 127.381Z" fill="#3892EB"/>
<path d="M258.245 120.312C259.786 121.34 260.686 121.598 261.199 121.212C261.589 120.953 261.918 120.611 262.162 120.212C262.406 119.812 262.56 119.364 262.613 118.898C263.127 115.942 260.557 108.102 256.06 110.159C251.564 112.215 255.161 118.256 258.245 120.312Z" fill="#FFE75C"/>
<path d="M262.741 120.698C261.328 121.855 260.428 121.983 260.043 121.469C259.475 120.5 259.249 119.369 259.4 118.256C259.529 114.272 263.512 103.99 266.852 107.331C270.193 110.673 265.824 118.256 262.741 120.698Z" fill="#FFE75C"/>
<path d="M279.829 122.369C279.402 120.674 278.517 119.13 277.27 117.905C276.024 116.681 274.464 115.824 272.763 115.428L265.825 113.629C264.221 113.243 262.547 113.264 260.954 113.691C259.361 114.117 257.899 114.936 256.703 116.071L251.178 121.341C249.944 122.505 249.035 123.97 248.539 125.593C248.043 127.215 247.979 128.939 248.352 130.594L249.765 137.278C250.378 139.68 251.838 141.78 253.876 143.19H274.304L279.058 138.563C280.302 137.355 281.197 135.835 281.649 134.161C282.101 132.487 282.094 130.722 281.628 129.052L279.829 122.369Z" fill="#66BCFF"/>
<path d="M255.033 130.338L254.005 124.426C253.782 122.958 253.159 121.579 252.206 120.441L251.178 121.341C249.944 122.505 249.035 123.971 248.539 125.593C248.043 127.216 247.979 128.94 248.352 130.595L249.765 137.278C250.009 138.07 250.309 138.843 250.664 139.592L252.078 138.435C253.228 137.456 254.104 136.195 254.622 134.776C255.14 133.357 255.282 131.828 255.033 130.338Z" fill="#3892EB"/>
<path d="M240.258 115.942C240.129 117.227 240.386 117.87 240.771 118.127C241.101 118.266 241.458 118.326 241.814 118.304C242.171 118.282 242.518 118.177 242.827 117.998C244.883 117.227 248.737 112.6 245.654 110.544C242.57 108.487 240.258 113.243 240.258 115.942Z" fill="#FFE75C"/>
<path d="M240.514 117.87C241.671 118.512 242.313 118.769 242.698 118.512C243.2 118.071 243.559 117.489 243.726 116.842C244.112 114.657 242.185 108.873 238.844 110.415C235.504 111.958 238.33 116.327 240.514 117.87Z" fill="#FFE75C"/>
<path d="M242.313 134.579L247.067 134.065C248.178 133.906 249.232 133.469 250.13 132.796C251.028 132.122 251.742 131.232 252.206 130.209L254.261 125.325C254.713 124.282 254.879 123.137 254.744 122.008C254.608 120.879 254.176 119.806 253.49 118.899L250.664 115.429C249.986 114.498 249.06 113.777 247.993 113.345C246.926 112.914 245.76 112.789 244.625 112.987L240 113.629C238.955 113.834 237.971 114.277 237.124 114.923C236.278 115.569 235.591 116.402 235.118 117.357L233.062 121.855C232.617 122.871 232.442 123.985 232.555 125.089C232.667 126.192 233.063 127.248 233.705 128.153L236.274 131.88C236.951 132.825 237.867 133.573 238.928 134.048C239.989 134.522 241.158 134.705 242.313 134.579Z" fill="#66BCFF"/>
<path d="M13.108 128.024C14.4211 128.114 15.689 128.54 16.791 129.26C17.893 129.98 18.7924 130.97 19.4034 132.136C18.7924 133.303 17.893 134.293 16.791 135.013C15.689 135.733 14.4211 136.158 13.108 136.249C10.7954 136.249 8.61124 134.835 6.81255 132.136C8.61124 129.437 10.7954 128.024 13.108 128.024ZM13.108 126.738C10.41 126.738 7.58342 128.409 5.52776 131.879C5.45479 131.971 5.41504 132.084 5.41504 132.201C5.41504 132.317 5.45479 132.431 5.52776 132.522C7.58342 135.864 10.41 137.534 13.108 137.534C15.8061 137.534 18.6326 135.864 20.8167 132.522V131.879C18.6326 128.409 15.9345 126.738 13.108 126.738Z" fill="white"/>
<path d="M13.108 130.209C13.4891 130.209 13.8617 130.322 14.1786 130.534C14.4956 130.746 14.7426 131.047 14.8884 131.399C15.0343 131.751 15.0724 132.139 14.9981 132.513C14.9237 132.887 14.7402 133.231 14.4707 133.5C14.2011 133.77 13.8578 133.953 13.4839 134.028C13.1101 134.102 12.7226 134.064 12.3705 133.918C12.0183 133.772 11.7173 133.525 11.5056 133.208C11.2938 132.891 11.1808 132.518 11.1808 132.137C11.1808 131.626 11.3838 131.135 11.7452 130.774C12.1067 130.412 12.5968 130.209 13.108 130.209ZM13.108 128.924C12.4727 128.924 11.8517 129.112 11.3235 129.465C10.7953 129.818 10.3836 130.32 10.1405 130.907C9.89737 131.494 9.83379 132.141 9.95772 132.764C10.0817 133.387 10.3875 133.96 10.8367 134.409C11.2859 134.858 11.8583 135.164 12.4813 135.288C13.1044 135.412 13.7502 135.349 14.3371 135.106C14.924 134.862 15.4257 134.451 15.7786 133.922C16.1315 133.394 16.3199 132.772 16.3199 132.137C16.3199 131.285 15.9815 130.468 15.3792 129.865C14.7768 129.262 13.9598 128.924 13.108 128.924Z" fill="white"/>
<path d="M33.7929 132.136C33.765 133.471 34.1708 134.779 34.9492 135.864C34.4068 136.495 33.7373 137.004 32.9846 137.358C32.2318 137.713 31.4127 137.904 30.5809 137.92C29.7583 138.044 28.9186 137.988 28.1193 137.758C27.32 137.527 26.5799 137.127 25.9494 136.584C25.319 136.041 24.8131 135.368 24.4663 134.612C24.1195 133.855 23.9399 133.033 23.9399 132.201C23.9399 131.368 24.1195 130.546 24.4663 129.79C24.8131 129.033 25.319 128.361 25.9494 127.818C26.5799 127.275 27.32 126.874 28.1193 126.644C28.9186 126.413 29.7583 126.358 30.5809 126.481C32.2336 126.525 33.8027 127.218 34.9492 128.409C34.2017 129.509 33.799 130.807 33.7929 132.136Z" fill="#57F287"/>
<path d="M44.0712 132.136C44.0433 133.471 44.4491 134.779 45.2275 135.864C44.6851 136.495 44.0156 137.004 43.2629 137.358C42.5101 137.713 41.691 137.904 40.8592 137.92C40.0366 138.044 39.197 137.988 38.3976 137.758C37.5983 137.527 36.8582 137.127 36.2277 136.584C35.5973 136.041 35.0914 135.368 34.7446 134.612C34.3978 133.855 34.2183 133.033 34.2183 132.201C34.2183 131.368 34.3978 130.546 34.7446 129.79C35.0914 129.033 35.5973 128.361 36.2277 127.818C36.8582 127.275 37.5983 126.874 38.3976 126.644C39.197 126.413 40.0366 126.358 40.8592 126.481C42.5119 126.525 44.081 127.218 45.2275 128.409C44.48 129.509 44.0774 130.807 44.0712 132.136Z" fill="#FFAED7"/>
<path d="M51.1375 137.921C54.3305 137.921 56.919 135.331 56.919 132.137C56.919 128.943 54.3305 126.354 51.1375 126.354C47.9444 126.354 45.356 128.943 45.356 132.137C45.356 135.331 47.9444 137.921 51.1375 137.921Z" fill="#3442D8"/>
<path d="M291.777 4.63867H278.801C276.814 4.63867 275.204 6.23261 275.204 8.19884C275.204 10.1651 276.814 11.759 278.801 11.759H291.777C293.764 11.759 295.375 10.1651 295.375 8.19884C295.375 6.23261 293.764 4.63867 291.777 4.63867Z" fill="#EE4245"/>
<defs>
<linearGradient id="paint0_linear_14123_102742" x1="202.022" y1="193.214" x2="202.138" y2="176.557" gradientUnits="userSpaceOnUse">
<stop stop-color="#8F473B"/>
<stop offset="0.12" stop-color="#A65F47"/>
<stop offset="0.26" stop-color="#B87250"/>
<stop offset="0.42" stop-color="#C58057"/>
<stop offset="0.62" stop-color="#CD885B"/>
<stop offset="1" stop-color="#CF8A5C"/>
</linearGradient>
<linearGradient id="paint1_linear_14123_102742" x1="199.98" y1="195.142" x2="206.355" y2="187.69" gradientUnits="userSpaceOnUse">
<stop stop-color="#EB459F"/>
<stop offset="1" stop-color="#FF78B9"/>
</linearGradient>
<linearGradient id="paint2_linear_14123_102742" x1="193.157" y1="192.327" x2="192" y2="186.453" gradientUnits="userSpaceOnUse">
<stop stop-color="#EB459F"/>
<stop offset="1" stop-color="#FF78B9"/>
</linearGradient>
<linearGradient id="paint3_linear_14123_102742" x1="241.362" y1="193.613" x2="251.885" y2="190.594" gradientUnits="userSpaceOnUse">
<stop stop-color="#7196FF"/>
<stop offset="1" stop-color="#4D7AF7"/>
</linearGradient>
</defs>
</svg>
