<svg width="400" height="191" viewBox="0 0 400 191" fill="none" xmlns="http://www.w3.org/2000/svg">
<path d="M385.164 3.50467C386.646 3.48923 388.117 3.76791 389.491 4.32459C390.865 4.88128 392.116 5.70492 393.169 6.74786C394.223 7.79081 395.06 9.03236 395.631 10.4007C396.202 11.769 396.495 13.237 396.495 14.7196V175.35C396.495 176.833 396.202 178.301 395.631 179.669C395.06 181.038 394.223 182.279 393.169 183.322C392.116 184.365 390.865 185.189 389.491 185.746C388.117 186.302 386.646 186.581 385.164 186.565H14.8364C13.3539 186.581 11.883 186.302 10.5088 185.746C9.1346 185.189 7.88445 184.365 6.83064 183.322C5.77683 182.279 4.94029 181.038 4.3694 179.669C3.7985 178.301 3.50459 176.833 3.50467 175.35V14.7196C3.50459 13.237 3.7985 11.769 4.3694 10.4007C4.94029 9.03236 5.77683 7.79081 6.83064 6.74786C7.88445 5.70492 9.1346 4.88128 10.5088 4.32459C11.883 3.76791 13.3539 3.48923 14.8364 3.50467H385.164ZM385.164 7.13931e-09H14.8364C10.9217 -0.000121351 7.16562 1.54695 4.38658 4.30411C1.60754 7.06127 0.0308245 10.805 0 14.7196V175.35C0.0308245 179.265 1.60754 183.009 4.38658 185.766C7.16562 188.523 10.9217 190.07 14.8364 190.07H385.164C389.078 190.07 392.834 188.523 395.613 185.766C398.392 183.009 399.969 179.265 400 175.35V14.7196C399.969 10.805 398.392 7.06127 395.613 4.30411C392.834 1.54695 389.078 -0.000121351 385.164 7.13931e-09Z" fill="black"/>
<path d="M3.50488 175.35V14.7195C3.5048 13.2368 3.79871 11.7689 4.36961 10.4005C4.9405 9.0322 5.77704 7.79065 6.83085 6.7477C7.88466 5.70476 9.13481 4.88112 10.509 4.32443C11.8832 3.76775 13.3541 3.48907 14.8367 3.50451H385.164C386.646 3.48907 388.117 3.76775 389.491 4.32443C390.866 4.88112 392.116 5.70476 393.17 6.7477C394.223 7.79065 395.06 9.0322 395.631 10.4005C396.202 11.7689 396.496 13.2368 396.496 14.7195V175.35C396.496 176.833 396.202 178.301 395.631 179.669C395.06 181.038 394.223 182.279 393.17 183.322C392.116 184.365 390.866 185.189 389.491 185.745C388.117 186.302 386.646 186.581 385.164 186.565H14.8367C13.3541 186.581 11.8832 186.302 10.509 185.745C9.13481 185.189 7.88466 184.365 6.83085 183.322C5.77704 182.279 4.9405 181.038 4.36961 179.669C3.79871 178.301 3.5048 176.833 3.50488 175.35Z" fill="#2F3136"/>
<path d="M9.22919 170.794V169.159C9.21374 167.83 9.4622 166.511 9.96017 165.278C10.4581 164.046 11.1957 162.924 12.1302 161.979C13.0647 161.034 14.1774 160.283 15.404 159.771C16.6306 159.259 17.9467 158.995 19.2759 158.995H380.725C382.054 158.995 383.37 159.259 384.596 159.771C385.823 160.283 386.936 161.034 387.87 161.979C388.805 162.924 389.542 164.046 390.04 165.278C390.538 166.511 390.787 167.83 390.771 169.159V170.794C390.787 172.123 390.538 173.442 390.04 174.675C389.542 175.907 388.805 177.029 387.87 177.974C386.936 178.919 385.823 179.67 384.596 180.182C383.37 180.694 382.054 180.958 380.725 180.958H19.2759C17.9467 180.958 16.6306 180.694 15.404 180.182C14.1774 179.67 13.0647 178.919 12.1302 177.974C11.1957 177.029 10.4581 175.907 9.96017 174.675C9.4622 173.442 9.21374 172.123 9.22919 170.794Z" fill="#40444B"/>
<path fill-rule="evenodd" clip-rule="evenodd" d="M354.089 167.407H356.192C356.533 167.407 356.86 167.542 357.101 167.783C357.342 168.024 357.477 168.351 357.477 168.692V170.094H344.159V168.692C344.159 168.351 344.295 168.024 344.536 167.783C344.777 167.542 345.103 167.407 345.444 167.407H347.547C347.231 167.281 346.951 167.081 346.729 166.823C346.393 166.444 346.214 165.951 346.229 165.445C346.244 164.939 346.451 164.457 346.809 164.099C347.168 163.741 347.649 163.533 348.155 163.518C348.662 163.504 349.154 163.683 349.533 164.019C350.349 164.96 350.805 166.161 350.818 167.407C350.831 166.161 351.287 164.96 352.103 164.019C352.482 163.683 352.975 163.504 353.481 163.518C353.987 163.533 354.468 163.741 354.827 164.099C355.185 164.457 355.393 164.939 355.407 165.445C355.422 165.951 355.243 166.444 354.907 166.823L354.089 167.407ZM347.664 165.888C347.549 165.76 347.485 165.593 347.485 165.421C347.485 165.249 347.549 165.082 347.664 164.954L348.131 164.72L348.598 164.954C349.066 165.304 349.183 166.005 349.416 166.589C348.779 166.52 348.173 166.278 347.664 165.888ZM352.22 166.589C352.293 165.965 352.582 165.386 353.038 164.954L353.505 164.72L353.972 164.954C354.087 165.082 354.151 165.249 354.151 165.421C354.151 165.593 354.087 165.76 353.972 165.888C353.453 166.259 352.852 166.5 352.22 166.589ZM344.86 171.379V175.468C344.86 175.809 344.996 176.135 345.236 176.376C345.477 176.617 345.804 176.753 346.145 176.753H350.117V171.379H344.86ZM351.519 171.379V176.753H355.491C355.832 176.753 356.159 176.617 356.4 176.376C356.641 176.135 356.776 175.809 356.776 175.468V171.379H351.519Z" fill="#B9BBBE"/>
<path d="M379.907 170.093C379.907 171.502 379.489 172.88 378.706 174.052C377.923 175.224 376.81 176.137 375.508 176.677C374.205 177.216 372.773 177.357 371.39 177.082C370.008 176.807 368.738 176.129 367.742 175.132C366.745 174.135 366.066 172.866 365.791 171.483C365.516 170.101 365.657 168.668 366.197 167.366C366.736 166.064 367.649 164.951 368.821 164.168C369.993 163.385 371.371 162.967 372.78 162.967C374.67 162.967 376.483 163.718 377.819 165.054C379.156 166.39 379.907 168.203 379.907 170.093Z" fill="#B9BBBE"/>
<path d="M372.78 171.378C371.521 171.36 370.267 171.203 369.042 170.911C368.692 170.911 368.107 170.911 368.107 171.729C368.107 172.547 370.093 175.584 372.78 175.584C375.467 175.584 377.453 173.481 377.453 171.729C377.453 169.976 376.869 170.911 376.635 170.911C375.369 171.195 374.078 171.352 372.78 171.378Z" fill="#4F545C"/>
<path d="M369.393 167.99C369.393 167.773 369.479 167.565 369.632 167.412C369.785 167.259 369.993 167.172 370.21 167.172C370.327 167.156 370.446 167.164 370.559 167.198C370.672 167.231 370.777 167.289 370.866 167.366C370.955 167.444 371.025 167.54 371.074 167.648C371.122 167.755 371.146 167.872 371.145 167.99V168.808C371.146 168.926 371.122 169.043 371.074 169.15C371.025 169.258 370.955 169.354 370.866 169.432C370.777 169.509 370.672 169.567 370.559 169.601C370.446 169.634 370.327 169.643 370.21 169.626C369.993 169.626 369.785 169.54 369.632 169.386C369.479 169.233 369.393 169.025 369.393 168.808V167.99Z" fill="#4F545C"/>
<path d="M374.533 167.991C374.533 167.883 374.554 167.777 374.595 167.678C374.636 167.578 374.696 167.488 374.772 167.412C374.848 167.336 374.938 167.276 375.038 167.235C375.137 167.194 375.243 167.173 375.35 167.173C375.458 167.173 375.564 167.194 375.663 167.235C375.763 167.276 375.853 167.336 375.929 167.412C376.005 167.488 376.065 167.578 376.106 167.678C376.147 167.777 376.168 167.883 376.168 167.991V168.808C376.168 169.025 376.082 169.233 375.929 169.387C375.775 169.54 375.567 169.626 375.35 169.626C375.134 169.626 374.926 169.54 374.772 169.387C374.619 169.233 374.533 169.025 374.533 168.808V167.991Z" fill="#4F545C"/>
<path d="M369.042 171.729C370.253 172.096 371.517 172.254 372.781 172.196C374.082 172.244 375.383 172.086 376.636 171.729C376.206 172.335 375.622 172.817 374.945 173.125C374.268 173.433 373.521 173.556 372.781 173.481C369.86 173.481 369.042 171.729 369.042 171.729Z" fill="white"/>
<path d="M20.0935 163.668C18.5829 163.875 17.1984 164.622 16.1961 165.771C15.1938 166.92 14.6416 168.393 14.6416 169.918C14.6416 171.443 15.1938 172.916 16.1961 174.065C17.1984 175.214 18.5829 175.961 20.0935 176.168C21.6041 175.961 22.9887 175.214 23.9909 174.065C24.9932 172.916 25.5455 171.443 25.5455 169.918C25.5455 168.393 24.9932 166.92 23.9909 165.771C22.9887 164.622 21.6041 163.875 20.0935 163.668ZM23.1309 170.56H20.6776V173.014H19.3926V170.56H16.9393V169.275H19.3926V166.822H20.6776V169.275H23.1309V170.56Z" fill="#B9BBBE"/>
<path d="M24.0657 177.336C26.0013 177.336 27.5704 175.767 27.5704 173.832C27.5704 171.896 26.0013 170.327 24.0657 170.327C22.1301 170.327 20.561 171.896 20.561 173.832C20.561 175.767 22.1301 177.336 24.0657 177.336Z" fill="#40444B"/>
<path d="M24.0655 176.168C25.3558 176.168 26.4019 175.122 26.4019 173.832C26.4019 172.541 25.3558 171.495 24.0655 171.495C22.7751 171.495 21.729 172.541 21.729 173.832C21.729 175.122 22.7751 176.168 24.0655 176.168Z" fill="#3BA55C"/>
<path d="M23.5981 173.014V174.649L24.8832 173.831L23.5981 173.014Z" fill="#40444B"/>
<path d="M323.014 173.364C322.197 174.182 321.963 177.22 321.963 177.22C321.963 177.22 325 176.986 325.818 176.168C326.173 175.833 326.383 175.371 326.402 174.883H324.299V172.78C323.811 172.8 323.35 173.009 323.014 173.364Z" fill="#B9BBBE"/>
<path fill-rule="evenodd" clip-rule="evenodd" d="M324.065 170.911L328.271 175.117L329.322 174.065L330.14 177.453L331.425 176.051V171.963L333.995 169.276C335.047 168.224 337.15 165.771 336.098 163.084C335.047 160.397 330.841 164.135 329.907 165.07L324.065 170.911ZM332.36 168.341C332.763 168.341 333.149 168.181 333.434 167.896C333.718 167.611 333.879 167.225 333.879 166.822C333.879 166.42 333.718 166.033 333.434 165.748C333.149 165.464 332.763 165.304 332.36 165.304C332.16 165.304 331.963 165.343 331.779 165.419C331.594 165.496 331.427 165.607 331.286 165.748C331.145 165.89 331.033 166.057 330.957 166.241C330.88 166.425 330.841 166.623 330.841 166.822C330.841 167.022 330.88 167.219 330.957 167.404C331.033 167.588 331.145 167.755 331.286 167.896C331.427 168.037 331.594 168.149 331.779 168.225C331.963 168.302 332.16 168.341 332.36 168.341Z" fill="#B9BBBE"/>
<path d="M327.22 167.757H323.014L321.729 169.042L325.117 169.86L327.22 167.757Z" fill="#B9BBBE"/>
<path d="M44.8597 173.714L44.3924 168.107L42.2896 173.714H41.4718L39.369 168.107L38.9017 173.714H38.084L38.5513 166.705H39.7195L41.9391 172.429L44.0419 166.705H45.2102L45.6774 173.714H44.8597Z" fill="#72767D"/>
<path d="M49.0653 173.714C47.7803 173.714 46.8457 173.013 46.8457 171.261C46.8457 169.509 47.6635 168.808 48.9485 168.808C50.2336 168.808 50.9345 169.859 50.9345 171.144V171.378H47.6635C47.7803 172.429 48.2476 173.013 49.0653 173.013C49.7172 173.01 50.3436 172.76 50.8177 172.312V173.13C50.3018 173.489 49.6934 173.692 49.0653 173.714ZM47.7803 170.677H49.9999C49.8831 169.976 49.6494 169.509 48.9485 169.509C48.2476 169.509 47.8971 169.859 47.7803 170.677Z" fill="#72767D"/>
<path d="M53.5043 173.715C52.9021 173.721 52.3053 173.602 51.752 173.364V172.43C52.2575 172.809 52.8724 173.014 53.5043 173.014C54.0884 173.014 54.4389 172.78 54.4389 172.43C54.4389 172.079 54.2052 171.845 53.2706 171.612C52.3361 171.378 51.752 170.911 51.752 170.093C51.752 169.275 52.3361 168.808 53.3875 168.808C53.9521 168.8 54.5113 168.92 55.023 169.158V169.976C54.5547 169.717 54.0375 169.558 53.5043 169.509C53.037 169.509 52.6865 169.743 52.6865 170.093C52.6865 170.444 52.9202 170.56 53.7379 170.794C54.5557 171.028 55.3735 171.378 55.3735 172.313C55.3735 173.247 54.7893 173.715 53.5043 173.715Z" fill="#72767D"/>
<path d="M57.9437 173.714C57.3395 173.746 56.7371 173.625 56.1914 173.364V172.429C56.661 172.792 57.2337 172.997 57.8269 173.014C58.5279 173.014 58.8783 172.78 58.8783 172.429C58.8783 172.079 58.5279 171.845 57.7101 171.612C56.8923 171.378 56.1914 170.911 56.1914 170.093C56.1914 169.275 56.7755 168.808 57.8269 168.808C58.354 168.801 58.875 168.921 59.3456 169.158V169.976C58.9261 169.703 58.4434 169.542 57.9437 169.509C57.3596 169.509 57.126 169.743 57.126 170.093C57.126 170.443 57.3596 170.56 58.0606 170.794C58.7615 171.028 59.8129 171.378 59.8129 172.313C59.8129 173.247 59.112 173.714 57.9437 173.714Z" fill="#72767D"/>
<path d="M63.7849 173.714V173.013C63.3536 173.453 62.7657 173.705 62.1494 173.714C61.2148 173.714 60.7476 173.247 60.7476 172.429C60.7476 171.611 61.6821 170.793 63.6681 170.56V170.326C63.689 170.214 63.6823 170.099 63.6487 169.99C63.615 169.881 63.5553 169.782 63.4747 169.702C63.3942 169.621 63.2953 169.561 63.1865 169.528C63.0777 169.494 62.9623 169.487 62.8503 169.508C62.2772 169.54 61.7184 169.7 61.2148 169.975V169.158C61.7634 168.905 62.3637 168.785 62.9672 168.807C64.1354 168.807 64.7195 169.275 64.7195 170.326V173.714H63.7849ZM63.5513 171.261C61.799 171.377 61.4485 171.845 61.4485 172.429C61.4485 173.013 61.6821 173.013 62.1494 173.013C62.4231 173.023 62.6948 172.964 62.9398 172.841C63.1847 172.719 63.395 172.537 63.5513 172.312V171.261Z" fill="#72767D"/>
<path d="M67.5233 175.467C66.3551 175.467 65.3037 175.116 65.3037 174.298C65.3037 173.481 65.6542 173.364 66.3551 173.013C66.2608 172.973 66.1788 172.909 66.1173 172.827C66.0558 172.745 66.0169 172.648 66.0047 172.546C66.0047 172.312 66.2383 172.079 66.5888 171.845C66.3021 171.744 66.0559 171.553 65.8874 171.3C65.7188 171.047 65.637 170.747 65.6542 170.443C65.6518 170.207 65.7004 169.974 65.7968 169.758C65.8932 169.543 66.035 169.351 66.2126 169.196C66.3902 169.04 66.5993 168.925 66.8255 168.858C67.0518 168.791 67.2898 168.774 67.5233 168.808C67.9399 168.799 68.3485 168.922 68.6916 169.158L69.9766 168.808V169.626H69.042C69.1724 169.838 69.2523 170.078 69.2757 170.326C69.2608 170.557 69.2007 170.782 69.0986 170.989C68.9965 171.196 68.8546 171.381 68.6809 171.533C68.5072 171.685 68.3052 171.801 68.0865 171.874C67.8678 171.948 67.6367 171.978 67.4065 171.962H67.056L66.8224 172.196C66.8224 172.429 66.9392 172.429 67.757 172.546H68.1074C69.1588 172.663 69.743 173.013 69.743 173.831C69.743 174.649 68.8084 175.467 67.5233 175.467ZM66.9392 173.247C66.4719 173.598 66.2383 173.831 66.2383 174.182C66.2383 174.532 66.7056 174.883 67.6402 174.883C68.5747 174.883 69.042 174.532 69.042 174.065C69.042 173.598 68.8084 173.598 68.1074 173.481H66.9392V173.247ZM67.5233 169.392C67.2445 169.392 66.9771 169.503 66.7799 169.7C66.5827 169.897 66.4719 170.164 66.4719 170.443C66.4719 170.722 66.5827 170.99 66.7799 171.187C66.9771 171.384 67.2445 171.495 67.5233 171.495C67.8022 171.495 68.0696 171.384 68.2668 171.187C68.464 170.99 68.5747 170.722 68.5747 170.443C68.5747 170.164 68.464 169.897 68.2668 169.7C68.0696 169.503 67.8022 169.392 67.5233 169.392Z" fill="#72767D"/>
<path d="M72.7801 173.714C71.495 173.714 70.5604 173.013 70.5604 171.261C70.5283 170.96 70.5579 170.656 70.6477 170.367C70.7374 170.078 70.8853 169.81 71.0822 169.58C71.2792 169.351 71.521 169.163 71.7929 169.031C72.0648 168.898 72.361 168.822 72.6633 168.808C74.0651 168.808 74.6492 169.859 74.6492 171.144V171.378H71.495C71.495 172.429 71.9623 173.013 72.8969 173.013C73.5132 173.004 74.101 172.753 74.5324 172.312V173.13C74.0269 173.509 73.412 173.714 72.7801 173.714ZM71.495 170.677H73.8315C73.7147 169.976 73.3642 169.509 72.6633 169.509C71.9623 169.509 71.6118 169.859 71.495 170.677Z" fill="#72767D"/>
<path d="M82.4764 168.574H83.5278V169.392H82.3596L82.0091 171.144H83.1773V171.962H81.7754L81.5418 173.714H80.8409L81.0745 171.962H79.439L79.0885 173.714H78.3876L78.738 172.079H77.5698V171.261H78.8549L79.0885 169.509H77.9203V168.691H79.3222L79.6726 167.055H80.3736L80.0231 168.691H81.7754L82.0091 166.938H82.71L82.4764 168.574ZM79.6726 171.144H81.3081L81.6586 169.392H79.9063L79.6726 171.144Z" fill="#72767D"/>
<path d="M86.3314 175.467C85.0464 175.467 84.1118 175.116 84.1118 174.299C84.1118 173.481 84.4623 173.364 85.1632 173.014C85.0689 172.973 84.9869 172.909 84.9254 172.827C84.8639 172.745 84.825 172.648 84.8127 172.546C84.8127 172.313 85.0464 172.079 85.28 171.845C85.0251 171.713 84.8129 171.511 84.6682 171.263C84.5234 171.015 84.452 170.731 84.4623 170.443C84.4617 170.218 84.5075 169.996 84.5969 169.789C84.6863 169.583 84.8174 169.397 84.9819 169.244C85.1463 169.09 85.3407 168.972 85.5528 168.897C85.7649 168.822 85.9902 168.792 86.2146 168.808C86.6679 168.798 87.1144 168.919 87.4997 169.158L88.6679 168.808V169.626H87.8501C87.944 169.847 87.984 170.087 87.9669 170.327C87.9675 170.552 87.9217 170.774 87.8323 170.981C87.7429 171.187 87.6118 171.373 87.4474 171.526C87.2829 171.68 87.0885 171.798 86.8764 171.873C86.6643 171.948 86.439 171.978 86.2146 171.962H85.7473L85.5137 172.196C85.5137 172.429 85.7473 172.429 86.5651 172.546H86.9155C87.9669 172.663 88.5511 173.013 88.5511 173.831C88.5511 174.649 87.6165 175.467 86.3314 175.467ZM85.7473 173.247C85.1632 173.598 84.9296 173.831 84.9296 174.182C84.9296 174.532 85.3969 174.883 86.3314 174.883C87.266 174.883 87.8501 174.532 87.8501 174.065C87.8501 173.598 87.6165 173.598 86.9155 173.481H85.7473V173.247ZM86.2146 169.392C85.9358 169.392 85.6683 169.503 85.4712 169.7C85.274 169.897 85.1632 170.165 85.1632 170.443C85.1632 170.722 85.274 170.99 85.4712 171.187C85.6683 171.384 85.9358 171.495 86.2146 171.495C86.3572 171.514 86.5024 171.5 86.6387 171.454C86.7751 171.408 86.899 171.331 87.0007 171.23C87.1025 171.128 87.1794 171.004 87.2254 170.868C87.2714 170.731 87.2853 170.586 87.266 170.443C87.266 170.165 87.1552 169.897 86.9581 169.7C86.7609 169.503 86.4935 169.392 86.2146 169.392Z" fill="#72767D"/>
<path d="M91.5889 174.182C91.2384 175.233 90.7711 175.467 90.0702 175.467H89.6029V174.649H90.0702C90.5375 174.649 90.7711 174.532 91.0048 173.948V173.715L89.2524 168.925H90.0702L91.3552 172.663L92.6403 169.042H93.5749L91.5889 174.182Z" fill="#72767D"/>
<path d="M100.35 173.714V170.443C100.35 169.976 100.234 169.625 99.6495 169.625C99.3974 169.643 99.1521 169.714 98.9302 169.835C98.7084 169.956 98.5154 170.124 98.3644 170.326V173.714H97.4298V170.443C97.4298 169.976 97.313 169.625 96.7289 169.625C96.475 169.634 96.2266 169.702 96.0036 169.824C95.7805 169.946 95.5889 170.118 95.4439 170.326V173.714H94.5093V168.924H95.2102V169.625C95.6296 169.152 96.2155 168.859 96.8457 168.808C97.5467 168.808 98.014 169.041 98.1308 169.625C98.5502 169.152 99.1361 168.859 99.7663 168.808C99.9549 168.79 100.145 168.813 100.323 168.877C100.502 168.941 100.664 169.044 100.798 169.178C100.932 169.312 101.034 169.474 101.098 169.652C101.162 169.831 101.186 170.021 101.168 170.21V173.714H100.35Z" fill="#72767D"/>
<path d="M102.453 171.261V170.326H105.023V171.261H102.453Z" fill="#72767D"/>
<path d="M108.294 173.714L107.126 173.481V175.35H106.191V168.924H106.892V169.625C107.061 169.377 107.287 169.173 107.552 169.031C107.816 168.889 108.111 168.812 108.411 168.808C109.462 168.808 110.397 169.509 110.397 171.144C110.447 171.454 110.43 171.771 110.349 172.074C110.267 172.377 110.122 172.659 109.923 172.902C109.725 173.145 109.477 173.343 109.196 173.483C108.915 173.623 108.608 173.702 108.294 173.714ZM108.411 169.625C108.144 169.636 107.884 169.718 107.659 169.862C107.433 170.005 107.249 170.206 107.126 170.443V172.663C107.461 172.916 107.875 173.04 108.294 173.013C108.995 173.013 109.579 172.312 109.579 171.144C109.579 169.976 109.112 169.625 108.411 169.625Z" fill="#72767D"/>
<path d="M112.15 167.873C112.013 167.875 111.88 167.83 111.773 167.745C111.666 167.659 111.593 167.539 111.565 167.405C111.565 167.25 111.627 167.102 111.737 166.992C111.846 166.883 111.995 166.821 112.15 166.821C112.283 166.849 112.404 166.922 112.489 167.029C112.574 167.135 112.62 167.269 112.617 167.405C112.617 167.529 112.568 167.648 112.48 167.736C112.392 167.823 112.273 167.873 112.15 167.873ZM111.682 173.714V168.924H112.5V173.714H111.682Z" fill="#72767D"/>
<path d="M116.005 173.714C115.354 173.714 114.73 173.456 114.27 172.996C113.81 172.536 113.551 171.912 113.551 171.261C113.551 170.611 113.81 169.987 114.27 169.526C114.73 169.066 115.354 168.808 116.005 168.808C116.547 168.799 117.079 168.963 117.523 169.275V170.093C117.334 169.924 117.111 169.795 116.87 169.715C116.629 169.635 116.375 169.604 116.121 169.626C115.304 169.626 114.719 170.21 114.719 171.261C114.719 172.313 115.42 173.014 116.121 173.014C116.401 173.022 116.679 172.975 116.94 172.874C117.2 172.774 117.438 172.623 117.64 172.429V173.247C117.168 173.593 116.588 173.759 116.005 173.714Z" fill="#72767D"/>
<path d="M120.093 173.714C119.527 173.736 118.965 173.616 118.458 173.364V172.429C118.908 172.827 119.493 173.036 120.093 173.014C120.677 173.014 121.028 172.78 121.028 172.429C121.028 172.079 120.794 171.845 119.976 171.612C119.159 171.378 118.341 170.911 118.341 170.093C118.341 169.275 119.042 168.808 120.093 168.808C120.62 168.801 121.141 168.921 121.612 169.158V169.976C121.152 169.698 120.63 169.537 120.093 169.509C119.626 169.509 119.275 169.743 119.275 170.093C119.275 170.443 119.509 170.56 120.327 170.794C121.145 171.028 122.079 171.378 122.079 172.313C122.079 173.247 121.378 173.714 120.093 173.714Z" fill="#72767D"/>
<g opacity="0.49">
<path opacity="0.49" d="M180.841 30.0234H144.042C143.203 30.0234 142.523 30.7034 142.523 31.5421V39.1823C142.523 40.0211 143.203 40.701 144.042 40.701H180.841C181.68 40.701 182.36 40.0211 182.36 39.1823V31.5421C182.36 30.7034 181.68 30.0234 180.841 30.0234Z" fill="#808AFF"/>
</g>
<path d="M64.0186 37.9669V31.4248H64.9531V37.1491H67.2896V37.9669H64.0186Z" fill="#72767D"/>
<path d="M69.9767 38.0837C69.6797 38.0855 69.3857 38.0244 69.1141 37.9045C68.8425 37.7845 68.5993 37.6083 68.4006 37.3876C68.202 37.1669 68.0523 36.9066 67.9615 36.6238C67.8708 36.3411 67.8409 36.0423 67.8739 35.7472C67.8417 35.4463 67.8714 35.142 67.9611 34.853C68.0508 34.564 68.1987 34.2964 68.3956 34.0666C68.5926 33.8368 68.8344 33.6498 69.1063 33.5169C69.3782 33.384 69.6744 33.3082 69.9767 33.2939C71.2617 33.2939 72.0795 34.2285 72.0795 35.7472C72.1125 36.0423 72.0826 36.3411 71.9918 36.6238C71.901 36.9066 71.7513 37.1669 71.5527 37.3876C71.354 37.6083 71.1109 37.7845 70.8392 37.9045C70.5676 38.0244 70.2736 38.0855 69.9767 38.0837ZM69.9767 33.9949C69.1589 33.9949 68.8084 34.8126 68.8084 35.7472C68.8084 36.6818 69.1589 37.3827 69.9767 37.3827C70.7944 37.3827 71.2617 36.6818 71.2617 35.7472C71.2617 34.8126 70.7944 33.9949 69.9767 33.9949Z" fill="#72767D"/>
<path d="M75.0001 38.0837C74.7032 38.0855 74.4092 38.0244 74.1375 37.9045C73.8659 37.7845 73.6227 37.6083 73.4241 37.3876C73.2254 37.1669 73.0758 36.9066 72.985 36.6238C72.8942 36.3411 72.8643 36.0423 72.8973 35.7472C72.8651 35.4463 72.8948 35.142 72.9845 34.853C73.0743 34.564 73.2221 34.2964 73.4191 34.0666C73.616 33.8368 73.8579 33.6498 74.1298 33.5169C74.4016 33.384 74.6978 33.3082 75.0001 33.2939C76.2852 33.2939 77.1029 34.2285 77.1029 35.7472C77.1359 36.0423 77.106 36.3411 77.0152 36.6238C76.9244 36.9066 76.7748 37.1669 76.5761 37.3876C76.3775 37.6083 76.1343 37.7845 75.8627 37.9045C75.591 38.0244 75.2971 38.0855 75.0001 38.0837ZM75.0001 33.9949C74.1824 33.9949 73.8319 34.8126 73.8319 35.7472C73.8319 36.6818 74.2992 37.3827 75.0001 37.3827C75.701 37.3827 76.2851 36.6818 76.2851 35.7472C76.2851 34.8126 75.8179 33.9949 75.0001 33.9949Z" fill="#72767D"/>
<path d="M81.0747 38.0839L79.0887 35.6307V37.9671H78.271V31.1914H79.0887V35.397L80.8411 33.5279H81.8925L79.9065 35.397L82.0093 37.8503L81.0747 38.0839Z" fill="#72767D"/>
<path d="M87.7337 37.9668V37.3827C87.3024 37.823 86.7145 38.0749 86.0982 38.0837C85.925 38.1021 85.7498 38.0815 85.5855 38.0234C85.4212 37.9653 85.272 37.8712 85.1488 37.748C85.0256 37.6248 84.9315 37.4756 84.8734 37.3113C84.8154 37.1471 84.7948 36.9719 84.8132 36.7986C84.8132 35.6304 85.7478 35.2799 87.6169 35.0463V34.8126C87.6169 34.2285 87.2664 34.1117 86.7991 34.1117C86.2357 34.1146 85.6788 34.2339 85.1636 34.4622V33.7612C85.7081 33.4833 86.3054 33.324 86.916 33.2939C88.0842 33.2939 88.5515 33.7612 88.5515 34.8126V37.9668H87.7337ZM87.5001 35.6304C85.8646 35.864 85.5141 36.3313 85.5141 36.7986C85.5141 37.2659 85.7477 37.3827 86.215 37.3827C86.469 37.3737 86.7173 37.3057 86.9404 37.184C87.1634 37.0624 87.3551 36.8904 87.5001 36.6818V35.6304Z" fill="#72767D"/>
<path d="M91.2384 38.0842C91.0652 38.1026 90.89 38.082 90.7257 38.0239C90.5614 37.9658 90.4122 37.8717 90.289 37.7485C90.1658 37.6253 90.0717 37.4761 90.0137 37.3118C89.9556 37.1476 89.935 36.9724 89.9534 36.7991V34.1122H89.2524V33.4113H89.9534V31.8926H90.7711V33.4113H91.7057V34.1122H90.6543V36.6823C90.6543 37.0328 90.7711 37.2664 91.2384 37.2664H91.5889V37.9674L91.2384 38.0842Z" fill="#72767D"/>
<path d="M96.4953 38.0842C96.322 38.1026 96.1468 38.082 95.9825 38.0239C95.8183 37.9658 95.669 37.8717 95.5458 37.7485C95.4226 37.6253 95.3286 37.4761 95.2705 37.3118C95.2124 37.1476 95.1918 36.9724 95.2102 36.7991V34.1122H94.5093V33.4113H95.2102V31.8926H96.028V33.4113H97.0794V34.1122H95.9111V36.6823C95.9111 37.0328 96.028 37.2664 96.6121 37.2664H96.9626V37.9674L96.4953 38.0842Z" fill="#72767D"/>
<path d="M101.051 37.9671V34.9297C101.051 34.4624 100.818 34.112 100.35 34.112C100.096 34.121 99.8481 34.189 99.6251 34.3107C99.402 34.4323 99.2103 34.6043 99.0653 34.8129V37.9671H98.2476V31.1914H99.0653V34.112C99.4677 33.6989 100.009 33.4493 100.584 33.411C101.519 33.411 101.869 33.9951 101.869 34.8129V38.0839L101.051 37.9671Z" fill="#72767D"/>
<path d="M105.14 38.0837C103.855 38.0837 103.038 37.3827 103.038 35.7472C103.038 34.1117 103.855 33.2939 105.024 33.2939C106.192 33.2939 106.893 34.3453 106.893 35.6304H103.855C103.855 36.6818 104.323 37.2659 105.14 37.2659C105.448 37.2757 105.753 37.2181 106.036 37.097C106.319 36.9759 106.571 36.7943 106.776 36.565V37.3827C106.317 37.7808 105.745 38.0258 105.14 38.0837ZM103.855 35.1631H106.075C105.958 34.4622 105.608 33.9949 105.024 33.9949C104.439 33.9949 103.972 34.3453 103.855 35.1631Z" fill="#72767D"/>
<path d="M109.346 38.084C108.77 38.0699 108.207 37.9091 107.71 37.6167V36.799C108.18 37.1619 108.753 37.3664 109.346 37.3831C109.93 37.3831 110.281 37.1495 110.281 36.799C110.281 36.4485 110.047 36.2149 109.229 35.9812C108.411 35.7476 107.71 35.3971 107.71 34.5794C107.725 34.395 107.776 34.2154 107.861 34.0509C107.945 33.8864 108.061 33.7402 108.202 33.6208C108.344 33.5013 108.507 33.411 108.683 33.355C108.859 33.2989 109.045 33.2783 109.229 33.2943C109.758 33.2714 110.283 33.3925 110.748 33.6448V34.4625C110.328 34.1892 109.846 34.0283 109.346 33.9953C108.879 33.9953 108.645 34.2289 108.645 34.5794C108.645 34.9298 108.879 35.0467 109.58 35.2803C110.281 35.5139 111.215 35.8644 111.215 36.6822C111.215 37.4999 110.514 38.084 109.346 38.084Z" fill="#72767D"/>
<path d="M114.019 38.0837C113.716 38.1064 113.412 38.0595 113.13 37.9465C112.849 37.8335 112.597 37.6575 112.394 37.4318C112.191 37.2062 112.042 36.937 111.959 36.645C111.876 36.353 111.862 36.0458 111.916 35.7472C111.884 35.4463 111.913 35.142 112.003 34.853C112.093 34.564 112.241 34.2964 112.438 34.0666C112.635 33.8368 112.877 33.6498 113.148 33.5169C113.42 33.384 113.717 33.3082 114.019 33.2939C115.304 33.2939 115.888 34.3453 115.888 35.6304H112.851C112.851 36.6818 113.318 37.2659 114.136 37.2659C114.443 37.2757 114.749 37.2181 115.031 37.097C115.314 36.9759 115.566 36.7943 115.771 36.565V37.3827C115.281 37.8039 114.664 38.0504 114.019 38.0837ZM112.851 35.1631H115.07C114.953 34.4622 114.603 33.9949 113.902 33.9949C113.201 33.9949 112.967 34.3453 112.851 35.1631Z" fill="#72767D"/>
<path d="M120.677 39.7195C119.509 39.7195 118.575 39.369 118.575 38.5512C118.575 37.7335 118.925 37.7335 119.509 37.383L119.276 36.9157C119.283 36.7675 119.33 36.6239 119.412 36.5004C119.494 36.377 119.609 36.2782 119.743 36.2148C119.487 36.1158 119.27 35.9377 119.123 35.7065C118.976 35.4753 118.907 35.2031 118.925 34.9297C118.925 34.7048 118.97 34.4821 119.06 34.2756C119.149 34.0692 119.28 33.8834 119.445 33.7299C119.609 33.5764 119.804 33.4585 120.016 33.3835C120.228 33.3085 120.453 33.2781 120.677 33.2942C121.101 33.3458 121.504 33.5068 121.846 33.7615L122.897 33.411L123.131 34.112H122.196C122.327 34.3247 122.406 34.5645 122.43 34.8129C122.415 35.0279 122.358 35.2378 122.262 35.4306C122.166 35.6234 122.032 35.7954 121.869 35.9365C121.706 36.0776 121.517 36.1852 121.313 36.253C121.108 36.3208 120.892 36.3475 120.677 36.3316H120.327L120.093 36.5652C120.093 36.7989 120.21 36.7989 121.028 36.9157H121.378C122.313 37.0325 122.897 37.383 122.897 38.0839C122.897 38.7849 121.846 39.7195 120.677 39.7195ZM120.093 37.6166C119.92 37.6867 119.765 37.7976 119.643 37.9399C119.521 38.0823 119.435 38.2519 119.392 38.4344C119.392 38.7849 119.86 39.1353 120.794 39.1353C121.729 39.1353 122.079 38.7849 122.079 38.4344C122.079 38.0839 121.963 37.9671 121.262 37.8503H120.093V37.6166ZM120.677 33.9952C120.43 33.9952 120.192 34.0936 120.017 34.2689C119.841 34.4441 119.743 34.6819 119.743 34.9297C119.743 35.1776 119.841 35.4153 120.017 35.5906C120.192 35.7658 120.43 35.8643 120.677 35.8643C120.925 35.8643 121.163 35.7658 121.338 35.5906C121.514 35.4153 121.612 35.1776 121.612 34.9297C121.612 34.6819 121.514 34.4441 121.338 34.2689C121.163 34.0936 120.925 33.9952 120.677 33.9952Z" fill="#72767D"/>
<path d="M126.636 37.9668V37.3827C126.204 37.823 125.616 38.0749 125 38.0837C124.827 38.1021 124.652 38.0815 124.487 38.0234C124.323 37.9653 124.174 37.8712 124.051 37.748C123.927 37.6248 123.833 37.4756 123.775 37.3113C123.717 37.1471 123.697 36.9719 123.715 36.7986C123.715 35.6304 124.65 35.2799 126.519 35.0463V34.8126C126.519 34.2285 126.168 34.1117 125.701 34.1117C125.138 34.1146 124.581 34.2339 124.065 34.4622V33.7612C124.61 33.4833 125.207 33.324 125.818 33.2939C126.986 33.2939 127.57 33.7612 127.57 34.8126V37.9668H126.636ZM126.402 35.6304C124.766 35.864 124.416 36.3313 124.416 36.7986C124.416 37.2659 124.65 37.3827 125.117 37.3827C125.371 37.3737 125.619 37.3057 125.842 37.184C126.065 37.0624 126.257 36.8904 126.402 36.6818V35.6304Z" fill="#72767D"/>
<path d="M129.089 32.4762C128.855 32.4762 128.504 32.2426 128.504 32.0089C128.504 31.854 128.566 31.7054 128.675 31.5959C128.785 31.4863 128.934 31.4248 129.089 31.4248C129.243 31.4248 129.392 31.4863 129.502 31.5959C129.611 31.7054 129.673 31.854 129.673 32.0089C129.645 32.1428 129.572 32.2629 129.465 32.3483C129.358 32.4337 129.225 32.479 129.089 32.4762ZM128.621 37.9669V33.4108H129.556V37.9669H128.621Z" fill="#72767D"/>
<path d="M133.762 37.9669V34.9295C133.762 34.4622 133.528 34.1117 133.061 34.1117C132.807 34.1207 132.559 34.1887 132.335 34.3104C132.112 34.4321 131.921 34.604 131.776 34.8126V37.9669H130.958V33.4108H131.542V34.1117C131.962 33.6385 132.547 33.3456 133.178 33.294C133.357 33.2932 133.534 33.3299 133.698 33.4017C133.862 33.4734 134.009 33.5787 134.13 33.7106C134.251 33.8426 134.343 33.9985 134.401 34.1681C134.458 34.3378 134.479 34.5175 134.463 34.6958V37.9669H133.762Z" fill="#72767D"/>
<path d="M137.383 38.084C136.77 38.0698 136.17 37.9096 135.631 37.6167V36.799C136.1 37.1619 136.673 37.3664 137.266 37.3831C137.85 37.3831 138.201 37.1494 138.201 36.799C138.201 36.4485 137.967 36.2148 137.15 35.9812C136.332 35.7476 135.631 35.3971 135.631 34.5793C135.631 33.7616 136.215 33.2943 137.266 33.2943C137.756 33.2866 138.24 33.4074 138.668 33.6448V34.4625C138.293 34.1881 137.847 34.0261 137.383 33.9952C136.799 33.9952 136.565 34.2289 136.565 34.5793C136.565 34.9298 136.799 35.0466 137.5 35.2803C138.201 35.5139 139.136 35.8644 139.136 36.6821C139.136 37.4999 138.551 38.084 137.383 38.084Z" fill="#72767D"/>
<path d="M148.131 36.6824C147.663 37.2665 147.313 37.617 146.846 37.617C146.378 37.617 145.794 37.1497 145.794 36.3319C145.762 36.0095 145.794 35.6839 145.888 35.3739C145.983 35.0639 146.138 34.7756 146.344 34.5258C146.55 34.276 146.804 34.0695 147.091 33.9184C147.377 33.7672 147.691 33.6743 148.014 33.645L149.532 33.8787L149.065 35.9815V36.4488C149.065 36.6037 149.127 36.7522 149.236 36.8618C149.346 36.9713 149.494 37.0329 149.649 37.0329C150.35 37.0329 150.818 36.3319 150.818 35.0469C150.854 34.6697 150.806 34.2892 150.678 33.9326C150.55 33.576 150.344 33.2521 150.076 32.9842C149.809 32.7162 149.485 32.5109 149.128 32.3827C148.771 32.2546 148.391 32.207 148.014 32.2431C147.523 32.2729 147.042 32.3993 146.6 32.6152C146.157 32.8311 145.762 33.1323 145.437 33.5013C145.111 33.8703 144.861 34.3 144.702 34.7657C144.543 35.2314 144.477 35.724 144.509 36.2151C144.473 36.5923 144.521 36.9728 144.649 37.3294C144.777 37.686 144.982 38.0099 145.25 38.2778C145.518 38.5458 145.842 38.7511 146.199 38.8793C146.555 39.0074 146.936 39.055 147.313 39.0189C148.037 39.0005 148.751 38.8418 149.416 38.5516V38.902C148.756 39.2046 148.039 39.3638 147.313 39.3693C146.89 39.4048 146.464 39.3475 146.065 39.2015C145.666 39.0556 145.304 38.8244 145.004 38.5241C144.704 38.2238 144.472 37.8617 144.326 37.4629C144.18 37.0641 144.123 36.6383 144.159 36.2151C144.127 35.119 144.524 34.0537 145.266 33.2463C146.008 32.4388 147.036 31.9531 148.131 31.8927C148.549 31.8541 148.971 31.9102 149.365 32.0569C149.76 32.2035 150.116 32.4369 150.407 32.7398C150.699 33.0427 150.919 33.4073 151.051 33.8067C151.182 34.206 151.222 34.6299 151.168 35.0469C151.168 36.5656 150.467 37.617 149.416 37.617C149.128 37.6278 148.844 37.5416 148.611 37.3721C148.378 37.2026 148.209 36.9597 148.131 36.6824ZM148.131 35.9815L148.481 34.4628H147.897C147.313 34.4628 146.729 35.2805 146.729 36.3319C146.729 37.3833 146.846 36.916 147.196 36.916C147.546 36.916 147.663 36.5656 148.131 35.9815Z" fill="white"/>
<path d="M155.374 38.0843C154.929 38.092 154.487 38.0119 154.073 37.8488C153.659 37.6856 153.281 37.4425 152.961 37.1333C152.315 36.5089 151.943 35.6534 151.928 34.7549C151.912 33.8563 152.254 32.9885 152.879 32.3422C153.503 31.6959 154.359 31.3241 155.257 31.3086C155.983 31.3141 156.7 31.4734 157.36 31.7759L157.126 32.9441C156.621 32.565 156.006 32.36 155.374 32.36C153.972 32.36 153.388 33.2946 153.388 34.6964C153.388 36.0983 154.089 37.0329 155.374 37.0329L156.425 36.7993V35.2806H155.14V34.346H157.71V37.3834C157.036 37.8802 156.21 38.1279 155.374 38.0843Z" fill="white"/>
<path d="M159.93 35.2799V37.9668H158.762V33.4108H159.813V34.3453C159.931 34.0375 160.139 33.7723 160.41 33.5847C160.681 33.3971 161.002 33.2958 161.332 33.2939V34.4622C161.054 34.4921 160.785 34.5804 160.544 34.7213C160.302 34.8622 160.093 35.0526 159.93 35.2799Z" fill="white"/>
<path d="M164.836 37.9667V37.3826C164.644 37.5971 164.411 37.77 164.149 37.8906C163.888 38.0112 163.605 38.0768 163.317 38.0836C163.144 38.102 162.969 38.0814 162.805 38.0233C162.64 37.9652 162.491 37.8711 162.368 37.7479C162.245 37.6247 162.151 37.4755 162.093 37.3112C162.035 37.147 162.014 36.9718 162.032 36.7985C162.032 35.6303 162.967 35.163 164.719 35.0462C164.719 34.4621 164.486 34.3452 164.018 34.3452C163.491 34.338 162.97 34.4582 162.5 34.6957L162.266 33.7611C162.859 33.5205 163.495 33.4014 164.135 33.4107C165.303 33.4107 165.888 33.878 165.888 34.9294V38.0836L164.836 37.9667ZM164.603 35.6303C163.317 35.8639 162.967 36.2144 162.967 36.6817C162.967 37.149 163.201 37.149 163.551 37.149C163.752 37.1684 163.954 37.1356 164.138 37.0537C164.323 36.9719 164.482 36.8437 164.603 36.6817V35.6303Z" fill="white"/>
<path d="M168.691 39.719C167.406 39.719 166.472 39.3686 166.472 38.5508C166.472 37.7331 166.705 37.8499 167.289 37.4994C167.169 37.369 167.088 37.2069 167.056 37.0321C167.056 36.6816 167.289 36.448 167.64 36.2144C167.372 36.1199 167.14 35.9465 166.973 35.717C166.806 35.4876 166.713 35.2129 166.705 34.9293C166.72 34.699 166.78 34.4739 166.882 34.2669C166.984 34.06 167.126 33.8752 167.3 33.7232C167.474 33.5713 167.676 33.4551 167.894 33.3814C168.113 33.3077 168.344 33.2779 168.574 33.2938C168.828 33.2723 169.083 33.3027 169.324 33.383C169.565 33.4634 169.787 33.592 169.976 33.7611L171.028 33.2938V34.2284H170.21C170.304 34.4495 170.344 34.6897 170.327 34.9293C170.312 35.1443 170.255 35.3542 170.159 35.547C170.062 35.7398 169.929 35.9118 169.766 36.0529C169.603 36.194 169.414 36.3016 169.21 36.3694C169.005 36.4372 168.789 36.4639 168.574 36.448H168.107V36.6817C168.107 36.7985 168.224 36.9153 168.925 37.0321H169.509C170.444 37.1489 171.028 37.4994 171.028 38.2003C171.028 38.9013 169.976 39.719 168.691 39.719ZM167.874 37.733C167.64 37.9667 167.406 38.2003 167.406 38.434C167.406 38.6676 167.874 39.0181 168.691 39.0181C169.509 39.0181 169.976 38.7845 169.976 38.434C169.976 38.0835 169.86 38.0835 169.275 37.9667H167.874V37.733ZM168.574 33.9947C168.107 33.9947 167.874 34.3452 167.874 34.9293C167.874 35.5134 168.107 35.7471 168.574 35.7471C168.686 35.768 168.802 35.7613 168.911 35.7276C169.019 35.6939 169.118 35.6342 169.199 35.5537C169.279 35.4732 169.339 35.3742 169.373 35.2654C169.406 35.1566 169.413 35.0413 169.392 34.9293C169.392 34.3452 169.159 33.9947 168.574 33.9947Z" fill="white"/>
<path d="M173.598 39.7194C172.313 39.7194 171.378 39.3689 171.378 38.5511C171.378 37.7334 171.729 37.8502 172.313 37.4997C172.219 37.4595 172.137 37.3951 172.075 37.313C172.014 37.231 171.975 37.1342 171.963 37.0324C171.963 36.682 172.196 36.4483 172.547 36.2147C172.301 36.1021 172.093 35.9209 171.948 35.6929C171.803 35.4649 171.727 35.1999 171.729 34.9296C171.726 34.6937 171.775 34.46 171.872 34.2447C171.968 34.0293 172.11 33.8374 172.287 33.682C172.465 33.5266 172.674 33.4115 172.9 33.3446C173.126 33.2776 173.365 33.2604 173.598 33.2941C173.833 33.2819 174.067 33.317 174.288 33.3973C174.509 33.4775 174.711 33.6014 174.883 33.7614L176.051 33.2941V34.2287H175.234C175.234 34.4624 175.35 34.696 175.35 34.9296C175.292 35.3737 175.066 35.7785 174.718 36.061C174.37 36.3434 173.928 36.482 173.481 36.4483H173.131L172.897 36.682C172.897 36.7988 173.014 36.9156 173.715 37.0324H174.416C175.35 37.1493 175.935 37.4997 175.935 38.2007C175.935 38.9016 174.883 39.7194 173.598 39.7194ZM172.897 37.7334C172.763 37.7968 172.649 37.8956 172.566 38.019C172.484 38.1425 172.437 38.2861 172.43 38.4343C172.43 38.7848 172.78 39.0184 173.715 39.0184C174.649 39.0184 175 38.7848 175 38.4343C175 38.0839 174.766 38.0839 174.182 37.967H172.897V37.7334ZM173.598 33.9951C173.014 33.9951 172.78 34.3455 172.78 34.9296C172.78 35.1465 172.866 35.3545 173.02 35.5079C173.173 35.6612 173.381 35.7474 173.598 35.7474C173.815 35.7474 174.023 35.6612 174.176 35.5079C174.33 35.3545 174.416 35.1465 174.416 34.9296C174.433 34.8129 174.424 34.6939 174.391 34.5807C174.357 34.4676 174.3 34.3631 174.222 34.2743C174.144 34.1855 174.048 34.1146 173.941 34.0664C173.833 34.0182 173.716 33.9939 173.598 33.9951Z" fill="white"/>
<path d="M178.388 38.0841C177.773 38.0847 177.168 37.9236 176.635 37.6168V36.6822C177.105 37.0451 177.678 37.2496 178.271 37.2663C178.855 37.2663 179.089 37.0327 179.089 36.6822C179.089 36.3317 178.855 36.2149 178.154 36.0981C177.453 35.9813 176.519 35.514 176.519 34.6962C176.519 33.8784 177.219 33.2943 178.271 33.2943C178.836 33.2861 179.395 33.406 179.906 33.6448L179.673 34.5794C179.247 34.3187 178.768 34.1589 178.271 34.1121C177.804 34.1121 177.57 34.3457 177.57 34.5794C177.57 34.813 177.804 34.9299 178.505 35.1635C179.205 35.3971 180.14 35.7476 180.14 36.6822C180.14 37.6168 179.556 38.0841 178.388 38.0841Z" fill="white"/>
<path d="M73.4813 23.2475H71.2617L69.6262 17.4064L68.1075 23.2475H65.8878L63.4346 14.4858L65.8878 14.0186L67.2897 19.8597L68.6916 14.1354H71.028L72.4299 19.8597L73.7149 14.1354H75.9346L73.4813 23.2475Z" fill="#808AFF"/>
<path d="M80.2567 23.2475V22.3129C80.0161 22.6157 79.7155 22.8653 79.3737 23.0463C79.0319 23.2272 78.6564 23.3355 78.2708 23.3643C78.01 23.3842 77.7481 23.3454 77.5042 23.2509C77.2604 23.1564 77.0408 23.0085 76.8615 22.818C76.6823 22.6276 76.548 22.3995 76.4684 22.1503C76.3888 21.9012 76.366 21.6374 76.4016 21.3783V16.8223H78.3876V20.7942C78.3876 21.2615 78.6212 21.612 79.0885 21.612C79.5004 21.5579 79.8764 21.3491 80.1399 21.0279V16.8223H82.1259V23.2475H80.2567Z" fill="#808AFF"/>
<path d="M90.6541 23.2476V19.1588C90.6541 18.6915 90.5373 18.4578 90.07 18.4578C89.6829 18.5128 89.3188 18.6746 89.0186 18.9251V23.2476H87.0326V19.1588C87.0326 18.6915 86.9158 18.4578 86.4485 18.4578C86.0614 18.5128 85.6973 18.6746 85.3971 18.9251V23.2476H83.4111V16.8223H85.1635V17.6401C85.4101 17.3533 85.7144 17.1218 86.0567 16.9607C86.3989 16.7997 86.7713 16.7127 87.1494 16.7055C87.4875 16.6545 87.8328 16.719 88.1296 16.8886C88.4264 17.0582 88.6573 17.323 88.785 17.6401C89.0316 17.3533 89.3359 17.1218 89.6782 16.9607C90.0204 16.7997 90.3928 16.7127 90.7709 16.7055C91.0317 16.6856 91.2936 16.7244 91.5375 16.8189C91.7813 16.9134 92.0009 17.0613 92.1802 17.2518C92.3594 17.4422 92.4937 17.6704 92.5733 17.9195C92.6529 18.1686 92.6757 18.4324 92.6401 18.6915V23.2476H90.6541Z" fill="#808AFF"/>
<path d="M97.313 23.2481L96.028 23.0145V25.3509L94.042 25.7014V16.8229H95.7943V17.6406C96.0277 17.3679 96.3133 17.1447 96.6343 16.9842C96.9553 16.8237 97.3053 16.7291 97.6635 16.7061C98.9485 16.7061 99.9999 17.6406 99.9999 19.8603C99.9999 22.0799 98.7149 23.2481 97.313 23.2481ZM97.0794 18.4584C96.6674 18.5125 96.2915 18.7213 96.028 19.0425V21.4958C96.3116 21.6594 96.6353 21.7404 96.9626 21.7294C97.5467 21.7294 98.1308 21.2621 98.1308 19.9771C98.1308 18.692 97.6635 18.4584 97.0794 18.4584Z" fill="#808AFF"/>
<path d="M105.14 23.2475L104.907 22.3129C104.666 22.6157 104.365 22.8653 104.024 23.0463C103.682 23.2272 103.306 23.3355 102.921 23.3643C101.753 23.3643 101.168 22.6634 101.168 21.3783V16.8223H103.154V20.7942C103.154 21.2615 103.271 21.612 103.739 21.612C103.963 21.6001 104.183 21.5421 104.383 21.4416C104.584 21.3411 104.763 21.2003 104.907 21.0279V16.8223H106.893V23.2475H105.14Z" fill="#808AFF"/>
<path d="M110.631 23.3646C109.693 23.3415 108.773 23.1016 107.944 22.6636L108.178 21.1449C108.912 21.6221 109.757 21.9036 110.631 21.9627C111.098 21.9627 111.449 21.7291 111.449 21.4954C111.449 21.2618 111.215 21.0281 110.28 20.7945C109.346 20.5608 108.061 19.8599 108.061 18.6917C108.061 17.5234 108.878 16.7057 110.514 16.7057C111.318 16.6806 112.118 16.8404 112.85 17.173L112.617 18.6917C111.964 18.352 111.248 18.153 110.514 18.1076C110.047 18.1076 109.813 18.2244 109.813 18.458C109.813 18.8085 110.047 18.9253 110.864 19.159C111.682 19.3926 113.201 20.0935 113.201 21.2618C113.201 22.43 112.266 23.3646 110.631 23.3646Z" fill="#808AFF"/>
<path d="M119.86 17.4066V23.2478H118.925V17.4066H116.822V16.5889H121.846V17.4066H119.86Z" fill="#72767D"/>
<path d="M123.598 23.364C123.296 23.3498 123 23.2739 122.728 23.141C122.456 23.0081 122.214 22.8211 122.017 22.5913C121.82 22.3615 121.672 22.0939 121.583 21.8049C121.493 21.5159 121.463 21.2116 121.495 20.9107C121.462 20.6156 121.492 20.3168 121.583 20.0341C121.674 19.7513 121.824 19.491 122.022 19.2703C122.221 19.0496 122.464 18.8734 122.736 18.7535C123.007 18.6335 123.301 18.5724 123.598 18.5743C123.895 18.5724 124.189 18.6335 124.461 18.7535C124.732 18.8734 124.976 19.0496 125.174 19.2703C125.373 19.491 125.523 19.7513 125.613 20.0341C125.704 20.3168 125.734 20.6156 125.701 20.9107C125.701 22.4294 124.883 23.364 123.598 23.364ZM123.598 19.2752C122.78 19.2752 122.43 19.9761 122.43 20.9107C122.43 21.8453 122.78 22.663 123.598 22.663C124.416 22.663 124.883 21.9621 124.883 20.9107C124.883 19.8593 124.416 19.2752 123.598 19.2752Z" fill="#72767D"/>
<path d="M129.906 23.2474V22.5464C129.756 22.7857 129.55 22.985 129.306 23.1274C129.062 23.2698 128.787 23.351 128.504 23.3642C127.453 23.3642 126.635 22.5464 126.635 21.0278C126.635 19.5091 127.57 18.5745 128.738 18.5745L129.906 18.8081V16.4717H130.724V23.3642L129.906 23.2474ZM129.789 19.6259C129.446 19.3894 129.038 19.2668 128.621 19.2754C127.92 19.2754 127.453 19.8595 127.453 21.0278C127.453 22.196 127.803 22.5464 128.504 22.5464C128.766 22.5156 129.018 22.4261 129.24 22.2845C129.463 22.1429 129.651 21.9529 129.789 21.7287V19.6259Z" fill="#72767D"/>
<path d="M134.696 23.2481V22.664C134.505 22.8785 134.271 23.0514 134.01 23.1719C133.749 23.2925 133.465 23.3582 133.178 23.3649C132.999 23.3812 132.82 23.36 132.65 23.3028C132.48 23.2455 132.325 23.1535 132.193 23.0325C132.061 22.9115 131.955 22.7642 131.884 22.6002C131.812 22.4362 131.775 22.2589 131.776 22.0799C131.776 20.9117 132.71 20.4444 134.696 20.2107C134.696 19.6266 134.346 19.393 133.762 19.393C133.225 19.4215 132.703 19.582 132.243 19.8602V19.0425C132.792 18.79 133.392 18.67 133.996 18.692C135.047 18.692 135.631 19.1593 135.631 20.2107V23.3649L134.696 23.2481ZM134.58 20.9117C132.827 21.0285 132.477 21.4958 132.477 21.963C132.454 22.0597 132.457 22.1604 132.484 22.2557C132.512 22.351 132.563 22.4379 132.633 22.508C132.703 22.5781 132.79 22.6292 132.885 22.6565C132.98 22.6838 133.081 22.6864 133.178 22.664C133.704 22.5749 134.192 22.3308 134.58 21.963V20.9117Z" fill="#72767D"/>
<path d="M138.434 23.7151C138.084 24.7665 137.617 25.0002 136.916 25.0002H136.565V24.2992H137.033C137.383 24.2992 137.617 24.1824 137.85 23.7151V23.3647L136.215 18.8086H137.033L138.318 22.4301L139.486 18.9254H140.304L138.434 23.7151Z" fill="#72767D"/>
<path d="M146.028 23.2477V22.6636C145.597 23.1038 145.009 23.3558 144.393 23.3646C144.214 23.3808 144.035 23.3597 143.865 23.3024C143.695 23.2452 143.539 23.1531 143.407 23.0321C143.275 22.9111 143.17 22.7639 143.098 22.5998C143.027 22.4358 142.99 22.2586 142.991 22.0795C142.991 20.9113 144.042 20.444 145.911 20.2103C145.932 20.0984 145.926 19.983 145.892 19.8742C145.858 19.7654 145.798 19.6665 145.718 19.586C145.637 19.5054 145.538 19.4457 145.43 19.412C145.321 19.3783 145.205 19.3717 145.094 19.3926C144.52 19.4246 143.962 19.5843 143.458 19.8599V19.0421C144.011 18.8045 144.608 18.6851 145.21 18.6917C146.379 18.6917 146.846 19.1589 146.846 20.2103V23.3646L146.028 23.2477ZM145.911 20.9113C144.276 21.0281 143.925 21.4954 143.925 21.9627C143.925 22.43 144.159 22.6636 144.509 22.6636C144.778 22.648 145.041 22.5778 145.282 22.4573C145.523 22.3368 145.737 22.1685 145.911 21.9627V20.9113Z" fill="#72767D"/>
<path d="M149.65 23.2476C148.832 23.2476 148.248 23.014 148.248 22.0794V19.3925H147.664V18.6915H148.248V17.1729H149.182V18.8084H150.117V19.3925H149.065V21.9626C149.065 22.313 149.182 22.5467 149.65 22.5467H150V23.2476H149.65Z" fill="#72767D"/>
<path d="M157.126 21.7294V23.2481H156.308V21.7294H153.037V21.1453L156.075 16.7061H157.126V21.0285H158.06V21.7294H157.126ZM156.308 17.7575L153.972 21.0285H156.308V17.7575Z" fill="#72767D"/>
<path d="M158.996 19.8596V18.6914H159.93V19.8596H158.996ZM158.996 23.2475V22.0793H159.93V23.2475H158.996Z" fill="#72767D"/>
<path d="M160.981 23.2477V22.5467L163.435 20.0935C163.665 19.9077 163.857 19.6776 163.997 19.4168C164.138 19.156 164.224 18.8697 164.252 18.5748C164.271 18.4169 164.254 18.2567 164.202 18.1064C164.15 17.9561 164.064 17.8196 163.952 17.7071C163.839 17.5947 163.703 17.5092 163.553 17.4571C163.402 17.4051 163.242 17.3878 163.084 17.4066C162.752 17.417 162.425 17.4949 162.124 17.6355C161.823 17.7761 161.553 17.9764 161.332 18.2243V17.4066C161.577 17.1652 161.87 16.9781 162.192 16.8574C162.514 16.7366 162.858 16.6849 163.201 16.7056C164.486 16.7056 165.304 17.4066 165.304 18.458C165.304 19.5094 164.953 19.743 164.136 20.5608L162.266 22.4299H165.187V23.2477H160.981Z" fill="#72767D"/>
<path d="M168.692 23.3649C167.173 23.3649 166.238 22.0799 166.238 19.9771C166.238 17.8743 167.173 16.7061 168.692 16.7061C170.21 16.7061 171.145 17.8743 171.145 19.9771C171.145 22.0799 170.093 23.3649 168.692 23.3649ZM168.692 17.407C167.64 17.407 167.056 18.3416 167.056 19.9771C167.056 21.6126 167.64 22.5472 168.692 22.5472C169.743 22.5472 170.21 21.7294 170.21 19.9771C170.21 18.2247 169.626 17.407 168.692 17.407Z" fill="#72767D"/>
<path d="M174.299 23.2471H173.131V24.9995H172.313V18.691H172.897V19.2752C173.089 19.0606 173.323 18.8877 173.584 18.7672C173.845 18.6466 174.128 18.5809 174.416 18.5742C175.35 18.5742 176.168 19.2751 176.168 20.7938C176.168 22.3125 175.35 23.2471 174.299 23.2471ZM174.416 19.2752C174.151 19.297 173.896 19.3828 173.672 19.5253C173.448 19.6678 173.263 19.8626 173.131 20.0929V22.3125L174.182 22.5462C174.883 22.5462 175.467 21.9621 175.467 20.9107C175.467 19.8593 175 19.2752 174.416 19.2752Z" fill="#72767D"/>
<path d="M183.061 23.2476V20.0934C183.083 19.9968 183.08 19.8961 183.053 19.8007C183.026 19.7054 182.975 19.6186 182.905 19.5485C182.834 19.4783 182.748 19.4272 182.652 19.3999C182.557 19.3726 182.456 19.3701 182.36 19.3925C182.106 19.4015 181.857 19.4695 181.634 19.5912C181.411 19.7128 181.22 19.8848 181.075 20.0934V23.2476H180.257V20.0934C180.279 19.9968 180.277 19.8961 180.249 19.8007C180.222 19.7054 180.171 19.6186 180.101 19.5485C180.031 19.4783 179.944 19.4272 179.849 19.3999C179.753 19.3726 179.653 19.3701 179.556 19.3925C179.302 19.4015 179.054 19.4695 178.831 19.5912C178.608 19.7128 178.416 19.8848 178.271 20.0934V23.2476H177.453V18.6915H178.037V19.2757C178.482 18.8547 179.062 18.6062 179.673 18.5747C179.919 18.5339 180.172 18.582 180.386 18.7104C180.6 18.8388 180.761 19.0392 180.841 19.2757C181.285 18.8547 181.865 18.6062 182.476 18.5747C182.65 18.5563 182.825 18.5769 182.989 18.635C183.153 18.6931 183.303 18.7871 183.426 18.9104C183.549 19.0336 183.643 19.1828 183.701 19.347C183.759 19.5113 183.78 19.6865 183.762 19.8598V23.2476H183.061Z" fill="#72767D"/>
<path d="M32.8273 45.2103C41.86 45.2103 49.1825 37.8878 49.1825 28.8551C49.1825 19.8224 41.86 12.5 32.8273 12.5C23.7946 12.5 16.4722 19.8224 16.4722 28.8551C16.4722 37.8878 23.7946 45.2103 32.8273 45.2103Z" fill="#EB459F"/>
<path d="M18.4582 26.2847C18.8086 24.9996 19.9769 24.9996 21.0283 25.1164C21.1528 24.2714 21.3885 23.4465 21.7292 22.6632C23.0142 20.2099 25.5843 19.7426 28.1544 19.509C30.7245 19.2753 36.9161 19.0417 40.8881 20.6772C41.5735 20.9732 42.1823 21.4217 42.6682 21.9885C43.154 22.5554 43.5041 23.2256 43.6918 23.9482C43.8086 24.065 43.8086 24.2987 43.9255 24.5323C43.9255 24.5013 43.9378 24.4716 43.9597 24.4497C43.9816 24.4278 44.0113 24.4155 44.0423 24.4155C47.0797 24.1819 47.7806 26.5183 47.8974 28.8548C47.9421 30.1648 47.744 31.4719 47.3133 32.7099C46.7292 33.8781 45.4442 33.7613 44.2759 33.6445H44.0423C43.1077 36.2146 40.7712 37.266 38.0843 37.4996C33.8641 38.1423 29.5709 38.1423 25.3507 37.4996C24.3463 37.4324 23.3945 37.0258 22.6516 36.3466C21.9086 35.6673 21.4186 34.7557 21.2619 33.7613H20.3273C18.9255 33.4108 18.2245 32.9435 17.9909 31.4249C17.8427 29.6973 18.0009 27.9572 18.4582 26.2847Z" fill="#7196FF"/>
<path d="M28.5048 24.4156C29.6367 23.755 30.9335 23.4308 32.2431 23.481C34.0377 23.3835 35.8376 23.4618 37.617 23.7146H38.0842C38.3865 23.7691 38.6674 23.9075 38.8946 24.1141C39.1219 24.3207 39.2864 24.5871 39.3693 24.8829C40.0702 27.2193 39.603 30.3735 36.7992 31.4249C33.9955 32.4763 30.9581 32.2427 29.0889 30.724C27.2198 29.2053 26.402 26.0511 28.5048 24.4156Z" fill="#BACFFF"/>
<path d="M35.2805 29.4393H36.916C37.0833 29.4417 37.246 29.3841 37.3746 29.2769C37.5031 29.1698 37.5891 29.0202 37.617 28.8552C37.6193 28.6879 37.5617 28.5253 37.4546 28.3967C37.3474 28.2682 37.1979 28.1822 37.0329 28.1543H35.2805C34.4628 28.2711 34.3459 29.4393 35.2805 29.4393ZM30.0235 29.0889C30.0212 29.2562 30.0788 29.4188 30.1859 29.5474C30.293 29.6759 30.4426 29.7619 30.6076 29.7898H32.7104C32.8317 29.7248 32.9311 29.6255 32.9963 29.5044C33.0615 29.3833 33.0897 29.2456 33.0772 29.1086C33.0648 28.9716 33.0123 28.8413 32.9263 28.7339C32.8403 28.6266 32.7246 28.5469 32.5936 28.5048H30.7244C30.374 28.6216 30.0235 28.7384 30.0235 29.0889Z" fill="#7196FF"/>
<path d="M42.5237 28.2712C44.0424 28.2712 44.1592 25.8179 42.6406 25.9347C42.4871 25.927 42.3337 25.9497 42.189 26.0013C42.0444 26.0529 41.9113 26.1325 41.7974 26.2356C41.6835 26.3386 41.591 26.4631 41.5252 26.6019C41.4594 26.7407 41.4216 26.8911 41.4139 27.0445C41.4062 27.1979 41.4289 27.3514 41.4805 27.496C41.5321 27.6407 41.6117 27.7738 41.7148 27.8877C41.8178 28.0016 41.9423 28.0941 42.0811 28.1599C42.2199 28.2257 42.3703 28.2635 42.5237 28.2712ZM24.5331 28.6216C26.1686 28.6216 26.2854 26.1684 24.6499 26.1684C23.0144 26.1684 22.8976 28.6216 24.5331 28.6216Z" fill="#23272A"/>
<path d="M44.6261 31.5417C44.68 31.7072 44.7936 31.8468 44.9448 31.9331C45.096 32.0195 45.2739 32.0465 45.4439 32.009C46.3784 31.8921 46.4953 31.0744 46.6121 30.2566C46.7052 29.2382 46.6262 28.2114 46.3785 27.2192H46.2616C46.1869 27.0752 46.0646 26.9616 45.9155 26.8976C45.7664 26.8337 45.5997 26.8235 45.4439 26.8688C45.3571 26.8037 45.2539 26.7641 45.1459 26.7543C45.0378 26.7446 44.9292 26.7651 44.8322 26.8136C44.7352 26.8621 44.6536 26.9367 44.5965 27.029C44.5395 27.1213 44.5093 27.2276 44.5093 27.3361C44.5093 28.7379 44.6261 30.1398 44.6261 31.5417ZM20.5607 32.009C20.6946 31.9817 20.8147 31.9083 20.9001 31.8015C20.9855 31.6948 21.0307 31.5615 21.028 31.4249C21.1448 30.2566 21.2616 28.9716 21.2616 27.6865V27.4529C21.2366 27.3721 21.1943 27.2976 21.1377 27.2348C21.0811 27.1719 21.0115 27.122 20.9337 27.0887C20.856 27.0554 20.7719 27.0394 20.6873 27.0417C20.6027 27.0441 20.5197 27.0648 20.4439 27.1024C20.2364 27.1961 20.0702 27.3622 19.9766 27.5697C19.7429 28.3875 18.5747 32.5931 20.5607 32.009Z" fill="#BACFFF"/>
<path d="M237.033 48.248H69.2759C66.4371 48.248 64.1357 50.5494 64.1357 53.3882V147.092C64.1357 149.93 66.4371 152.232 69.2759 152.232H237.033C239.872 152.232 242.173 149.93 242.173 147.092V53.3882C242.173 50.5494 239.872 48.248 237.033 48.248Z" fill="#FFE75C"/>
<path d="M99.1825 48.248L119.393 152.22H93.6919L94.8601 48.248H99.1825Z" fill="#C2FFD1"/>
<path d="M242.173 147.08V130.608L122.08 48.248H106.542L163.669 152.22H237.033C238.396 152.22 239.704 151.678 240.668 150.714C241.632 149.751 242.173 148.443 242.173 147.08Z" fill="#C2FFD1"/>
<path d="M221.379 89.603C217.991 76.6357 217.407 75.5843 212.967 75.5843C206.542 75.5843 203.738 77.9207 204.673 82.8272C205.608 87.7338 207.243 94.7431 207.243 94.7431C205.841 97.43 205.491 99.0656 205.841 100.818C200 100.351 196.145 102.22 193.458 103.038C188.668 96.8459 186.449 94.7431 170.678 96.4955L126.285 91.3553C116.589 86.4487 113.318 86.6824 106.893 89.603C104.398 88.0295 101.62 86.958 98.7151 86.4487C98.1309 83.9955 97.8973 82.2431 95.3272 80.9581L98.2478 73.7151L94.2758 60.9814C90.0702 60.9814 90.8879 62.0328 84.3459 73.131C78.5048 76.7525 76.0515 80.1403 74.6496 83.1777C73.2477 86.2151 71.6122 89.8366 73.4814 96.6123C74.2992 99.0656 76.1683 99.6497 79.4393 100.818C86.3319 112.033 90.3038 114.136 104.089 113.785C100.935 121.612 100.584 126.168 107.944 131.425C107.36 143.108 107.243 144.743 115.537 152.22H178.622C186.566 148.832 189.837 144.743 194.86 125C208.528 127.804 212.617 129.907 225 121.846C231.893 120.678 233.295 118.458 233.061 113.552C232.126 98.7151 228.271 94.0422 221.379 89.603Z" fill="#698EFF"/>
<path d="M107.36 63.5512C106.425 60.5139 100.818 60.8643 94.2759 60.9811L95.7946 75.1167C101.519 75.9344 103.622 75.8176 107.36 74.1821C111.098 72.5466 108.178 66.5886 107.36 63.5512Z" fill="#698EFF"/>
<path d="M218.341 79.3231C216.355 73.7156 214.837 73.2483 206.776 71.6128C198.715 69.9773 198.715 71.7296 196.145 78.0381C193.575 84.3465 195.327 86.4493 198.482 87.3839C201.636 88.3184 204.206 89.8371 208.528 89.1362C215.07 88.0848 218.341 79.3231 218.341 79.3231Z" fill="#698EFF"/>
<path d="M167.407 136.332C163.314 136.18 159.245 135.632 155.257 134.697C142.991 131.893 137.967 128.739 137.734 128.622C134.813 126.753 133.996 120.561 140.888 108.645C140.998 108.533 141.143 108.462 141.299 108.442C141.455 108.422 141.613 108.455 141.748 108.536C141.883 108.617 141.986 108.741 142.042 108.888C142.098 109.035 142.103 109.196 142.056 109.346C135.281 121.145 136.682 126.285 138.435 127.454C140.187 128.622 143.575 130.608 155.491 133.295C174.533 137.617 175.935 133.645 179.556 123.131C179.776 122.297 180.049 121.477 180.374 120.678C183.762 110.865 185.514 108.295 192.056 103.271C192.13 103.203 192.217 103.152 192.313 103.121C192.408 103.09 192.509 103.079 192.609 103.09C192.708 103.101 192.804 103.134 192.89 103.185C192.977 103.236 193.051 103.306 193.108 103.388C193.208 103.531 193.251 103.705 193.23 103.878C193.208 104.051 193.123 104.209 192.991 104.323C186.682 109.229 184.93 111.683 181.659 121.145C181.425 121.963 181.075 122.781 180.841 123.482C178.154 131.542 176.519 136.332 167.407 136.332Z" fill="#4F7AFF"/>
<path d="M202.921 116.823C199.861 116.793 196.825 116.281 193.925 115.305C193.76 115.251 193.62 115.137 193.534 114.986C193.447 114.835 193.42 114.657 193.458 114.487C193.535 114.312 193.67 114.17 193.841 114.084C194.012 113.999 194.207 113.976 194.392 114.02C202.687 116.706 208.995 115.071 214.486 112.968C214.57 112.929 214.661 112.907 214.754 112.904C214.847 112.9 214.94 112.915 215.027 112.948C215.114 112.981 215.193 113.03 215.261 113.094C215.328 113.157 215.383 113.234 215.421 113.319C215.46 113.403 215.481 113.494 215.485 113.587C215.488 113.68 215.473 113.772 215.441 113.859C215.408 113.946 215.359 114.026 215.295 114.093C215.231 114.161 215.155 114.215 215.07 114.253C211.219 115.87 207.096 116.742 202.921 116.823Z" fill="#4F7AFF"/>
<path d="M221.729 110.631L221.262 110.397C216.854 106.708 211.832 103.821 206.425 101.869C205.958 101.753 205.841 101.402 205.958 100.935C205.983 100.854 206.025 100.78 206.082 100.717C206.139 100.654 206.208 100.604 206.286 100.571C206.364 100.537 206.448 100.521 206.532 100.524C206.617 100.526 206.7 100.547 206.776 100.584C214.253 102.921 220.21 107.827 222.196 109.346C222.337 109.479 222.426 109.658 222.448 109.85C222.469 110.043 222.422 110.237 222.313 110.397L221.729 110.631Z" fill="#4F7AFF"/>
<path d="M104.673 113.318H104.44C104.355 113.281 104.278 113.226 104.215 113.159C104.151 113.091 104.102 113.011 104.069 112.924C104.036 112.838 104.021 112.745 104.025 112.652C104.028 112.559 104.05 112.468 104.089 112.384L108.879 102.571C108.995 102.398 109.056 102.195 109.056 101.987C109.056 101.779 108.995 101.575 108.879 101.403C107.129 97.9686 106.246 94.1582 106.309 90.3044C106.309 90.2124 106.327 90.1212 106.362 90.0362C106.397 89.9512 106.449 89.8739 106.514 89.8088C106.579 89.7437 106.657 89.6921 106.742 89.6569C106.827 89.6216 106.918 89.6035 107.01 89.6035C107.102 89.6035 107.193 89.6216 107.278 89.6569C107.363 89.6921 107.44 89.7437 107.505 89.8088C107.571 89.8739 107.622 89.9512 107.657 90.0362C107.693 90.1212 107.711 90.2124 107.711 90.3044C107.621 93.9608 108.465 97.5796 110.164 100.818C110.335 101.205 110.423 101.623 110.423 102.045C110.423 102.468 110.335 102.885 110.164 103.272L105.374 112.968C105.306 113.09 105.202 113.188 105.077 113.25C104.953 113.313 104.812 113.336 104.673 113.318Z" fill="#4F7AFF"/>
<path d="M114.369 133.178C112.391 133.226 110.418 132.95 108.528 132.36C108.363 132.306 108.223 132.192 108.137 132.041C108.05 131.89 108.023 131.712 108.061 131.542C108.178 131.075 108.528 130.958 108.996 131.075C114.136 132.594 121.262 131.659 131.893 128.038C131.977 127.999 132.068 127.977 132.161 127.973C132.254 127.97 132.346 127.985 132.433 128.017C132.52 128.05 132.6 128.099 132.668 128.163C132.735 128.227 132.789 128.303 132.827 128.388C132.871 128.574 132.848 128.769 132.762 128.94C132.677 129.11 132.535 129.246 132.36 129.323C124.883 131.893 119.042 133.178 114.369 133.178Z" fill="#4F7AFF"/>
<path d="M104.673 101.753H104.556C104.206 101.753 94.8598 100.585 89.1355 95.5613C89.0206 95.4328 88.957 95.2665 88.957 95.0941C88.957 94.9217 89.0206 94.7553 89.1355 94.6268C89.1802 94.5467 89.2431 94.4782 89.3191 94.4269C89.3952 94.3757 89.4822 94.343 89.5732 94.3317C89.6642 94.3203 89.7566 94.3305 89.843 94.3615C89.9293 94.3924 90.0071 94.4433 90.0701 94.51C95.4439 99.2997 104.673 100.351 104.79 100.351C104.907 100.351 105.374 100.702 105.374 101.169C105.346 101.334 105.26 101.483 105.131 101.591C105.003 101.698 104.84 101.755 104.673 101.753Z" fill="#4F7AFF"/>
<path d="M83.4114 89.9531C83.1413 89.931 82.8902 89.8055 82.7104 89.6027C82.649 89.413 82.65 89.2086 82.713 89.0194C82.7761 88.8303 82.898 88.6662 83.0609 88.5513C87.5001 86.098 93.4581 85.8644 97.6637 85.7475C97.7557 85.7399 97.8484 85.7504 97.9364 85.7785C98.0244 85.8067 98.1059 85.8519 98.1765 85.9115C98.247 85.9712 98.305 86.0442 98.3473 86.1263C98.3896 86.2084 98.4154 86.298 98.4231 86.3901C98.4307 86.4821 98.4202 86.5748 98.392 86.6628C98.3639 86.7507 98.3187 86.8323 98.2591 86.9028C98.1994 86.9733 98.1264 87.0314 98.0443 87.0737C97.9622 87.116 97.8726 87.1417 97.7805 87.1494C93.5749 87.2662 87.9674 87.4999 83.7618 89.8363L83.4114 89.9531Z" fill="#4F7AFF"/>
<path d="M148.248 106.893H147.547C147.361 106.893 147.183 106.819 147.052 106.687C146.92 106.556 146.846 106.378 146.846 106.192C146.846 106.006 146.92 105.828 147.052 105.696C147.183 105.565 147.361 105.491 147.547 105.491C152.804 105.608 157.944 103.972 162.384 102.57C165.118 101.465 167.985 100.719 170.912 100.351C171.379 100.351 171.729 100.584 171.729 101.052C171.729 101.237 171.656 101.416 171.524 101.547C171.393 101.679 171.214 101.752 171.028 101.752C168.22 102.081 165.469 102.788 162.851 103.855C158.412 105.257 153.505 106.893 148.248 106.893Z" fill="#4F7AFF"/>
<path d="M138.201 105.14H137.967C134.475 104.004 131.308 102.04 128.738 99.416C127.354 97.9343 125.63 96.8117 123.715 96.145C123.63 96.1071 123.554 96.0528 123.49 95.9852C123.427 95.9175 123.377 95.8379 123.344 95.751C123.312 95.664 123.297 95.5714 123.3 95.4786C123.304 95.3858 123.326 95.2946 123.365 95.2104C123.419 95.0448 123.532 94.9053 123.683 94.8189C123.835 94.7325 124.012 94.7055 124.182 94.7431C126.28 95.4853 128.165 96.7285 129.673 98.3646C132.149 100.823 135.143 102.699 138.435 103.855C138.516 103.88 138.59 103.923 138.653 103.979C138.716 104.036 138.766 104.105 138.799 104.183C138.832 104.261 138.848 104.345 138.846 104.43C138.844 104.514 138.823 104.597 138.785 104.673C138.758 104.807 138.685 104.927 138.578 105.012C138.471 105.098 138.338 105.143 138.201 105.14Z" fill="#4F7AFF"/>
<path d="M160.514 150.584C152.804 141.238 140.07 134.93 134.113 135.514C128.155 136.098 123.949 141.939 120.912 151.869V152.22H124.65L129.556 147.43C134.813 142.29 136.099 143.575 139.136 145.093C142.173 146.612 145.912 149.065 150.935 152.22H161.916L160.514 150.584Z" fill="#4F7AFF"/>
<path d="M172.547 150.584C172.399 150.577 172.255 150.53 172.132 150.448C172.008 150.366 171.91 150.251 171.846 150.117C171.805 150.024 171.789 149.922 171.799 149.822C171.81 149.721 171.846 149.624 171.905 149.542C171.964 149.459 172.044 149.394 172.136 149.351C172.228 149.308 172.329 149.291 172.43 149.299C174.204 148.958 175.88 148.225 177.335 147.153C178.79 146.082 179.988 144.7 180.841 143.108C180.879 143.023 180.934 142.946 181.001 142.883C181.069 142.819 181.148 142.77 181.235 142.737C181.322 142.704 181.415 142.689 181.508 142.693C181.601 142.696 181.692 142.718 181.776 142.757C181.929 142.852 182.047 142.996 182.11 143.165C182.174 143.334 182.179 143.519 182.126 143.692C181.193 145.497 179.851 147.059 178.209 148.255C176.567 149.452 174.668 150.249 172.664 150.584H172.547Z" fill="#4F7AFF"/>
<path d="M176.986 142.407H176.402C176.216 142.407 176.038 142.333 175.906 142.201C175.775 142.07 175.701 141.892 175.701 141.706C175.701 141.52 175.775 141.342 175.906 141.21C176.038 141.079 176.216 141.005 176.402 141.005C178.222 141.102 180.041 140.785 181.721 140.077C183.401 139.368 184.897 138.288 186.098 136.916C186.212 136.784 186.37 136.699 186.543 136.677C186.716 136.656 186.89 136.699 187.033 136.799C187.115 136.856 187.185 136.93 187.236 137.016C187.288 137.103 187.32 137.199 187.331 137.298C187.342 137.398 187.332 137.499 187.3 137.594C187.269 137.689 187.218 137.777 187.15 137.851C185.875 139.287 184.31 140.436 182.558 141.221C180.806 142.007 178.906 142.411 176.986 142.407Z" fill="#4F7AFF"/>
<path d="M194.86 125.701H194.627L189.37 124.533C189.269 124.542 189.167 124.524 189.075 124.481C188.983 124.439 188.904 124.373 188.845 124.291C188.786 124.208 188.749 124.112 188.739 124.011C188.729 123.91 188.745 123.808 188.786 123.715C188.839 123.55 188.953 123.41 189.104 123.324C189.255 123.237 189.433 123.21 189.603 123.248L194.977 124.299C195.072 124.325 195.161 124.371 195.237 124.434C195.313 124.496 195.376 124.574 195.42 124.662C195.464 124.75 195.489 124.847 195.493 124.945C195.497 125.044 195.481 125.142 195.444 125.234C195.444 125.468 195.094 125.701 194.86 125.701Z" fill="#4F7AFF"/>
<path d="M115.771 147.898H115.537C111.565 146.145 108.995 143.108 108.762 139.603C108.762 139.417 108.836 139.239 108.967 139.108C109.098 138.976 109.277 138.902 109.463 138.902C109.548 138.885 109.637 138.887 109.722 138.908C109.807 138.93 109.886 138.97 109.954 139.026C110.021 139.082 110.075 139.153 110.111 139.232C110.147 139.312 110.165 139.399 110.164 139.487C110.397 142.991 113.435 145.444 116.122 146.613C116.206 146.651 116.283 146.705 116.346 146.773C116.41 146.84 116.46 146.92 116.492 147.007C116.525 147.094 116.54 147.186 116.536 147.279C116.533 147.372 116.511 147.463 116.472 147.547C116.394 147.66 116.289 147.751 116.166 147.812C116.044 147.873 115.908 147.903 115.771 147.898Z" fill="#4F7AFF"/>
<path d="M206.075 89.4867C210.514 88.9026 211.683 87.5007 212.851 85.7484C212.882 85.5935 212.973 85.4572 213.105 85.3696C213.236 85.282 213.397 85.2501 213.552 85.2811C213.707 85.3121 213.843 85.4033 213.931 85.5348C214.018 85.6662 214.05 85.8271 214.019 85.982C214.019 86.4493 213.785 87.1503 213.785 87.5007C212.5 92.7577 210.398 94.5101 206.776 92.7577L206.075 89.4867Z" fill="#4F7AFF"/>
<path d="M97.5469 75.5842C95.3272 75.1169 94.0422 74.2991 93.4581 72.43C92.874 70.5608 91.4721 70.7945 91.5889 72.43C91.7057 74.0655 92.4067 79.9066 95.9113 79.673L97.5469 75.5842Z" fill="#4F7AFF"/>
<path d="M148.715 110.631C147.547 109.813 145.794 111.215 143.808 113.201C141.822 115.187 141.005 117.757 143.224 118.809C145.444 119.86 146.729 116.939 147.78 115.187C148.832 113.435 150 111.449 148.715 110.631Z" fill="#B7CCFF"/>
<path d="M124.565 102.173C125.223 101.907 125.462 100.965 125.1 100.067C124.737 99.1699 123.91 98.658 123.252 98.9239C122.594 99.1897 122.354 100.133 122.717 101.03C123.08 101.927 123.907 102.439 124.565 102.173Z" fill="#B7CCFF"/>
<path d="M144.977 134.462C148.131 135.747 148.715 136.682 148.365 137.383C148.014 138.084 147.43 137.733 144.977 136.332C142.524 134.93 143.225 133.762 144.977 134.462Z" fill="#B7CCFF"/>
<path d="M177.097 102.02C177.917 101.641 178.472 101.097 178.337 100.804C178.202 100.511 177.427 100.581 176.607 100.959C175.787 101.338 175.232 101.883 175.368 102.176C175.503 102.469 176.277 102.399 177.097 102.02Z" fill="#B7CCFF"/>
<path d="M109.463 111.566C108.061 111.099 106.542 113.903 106.542 116.473C106.542 119.043 109.814 121.613 111.449 120.795C113.085 119.977 112.267 117.991 111.215 116.473C110.164 114.954 110.631 111.917 109.463 111.566Z" fill="#B7CCFF"/>
<path d="M201.821 106.193C203.293 106.01 204.442 105.498 204.386 105.05C204.33 104.601 203.091 104.387 201.618 104.57C200.146 104.754 198.997 105.266 199.053 105.714C199.109 106.162 200.348 106.377 201.821 106.193Z" fill="#B7CCFF"/>
<path d="M98.131 90.3037C97.3712 90.6903 96.5303 90.8905 95.6777 90.8878C94.86 90.8878 94.2759 90.6542 94.2759 90.4206C94.2759 90.1869 95.3273 89.3692 96.846 89.2523C98.3647 89.1355 99.0656 89.7196 98.131 90.3037Z" fill="#B7CCFF"/>
<path d="M168.458 128.155H166.589C166.353 128.073 166.1 128.047 165.852 128.078C165.604 128.11 165.366 128.197 165.157 128.335C164.948 128.473 164.773 128.657 164.646 128.873C164.519 129.088 164.444 129.33 164.425 129.58C164.407 129.83 164.446 130.08 164.54 130.312C164.633 130.545 164.779 130.752 164.965 130.919C165.152 131.086 165.374 131.208 165.615 131.276C165.856 131.343 166.109 131.355 166.356 131.309L168.225 131.543C168.671 131.576 169.114 131.438 169.462 131.155C169.809 130.873 170.035 130.468 170.094 130.024C170.128 129.79 170.11 129.552 170.043 129.326C169.977 129.1 169.861 128.891 169.706 128.713C169.551 128.536 169.359 128.394 169.143 128.297C168.928 128.201 168.694 128.152 168.458 128.155Z" fill="#4F7AFF"/>
<path d="M108.295 123.247H106.426C106.189 123.166 105.937 123.14 105.688 123.171C105.44 123.202 105.202 123.29 104.993 123.428C104.784 123.566 104.609 123.749 104.483 123.965C104.356 124.181 104.28 124.423 104.262 124.673C104.243 124.923 104.282 125.173 104.376 125.405C104.47 125.637 104.615 125.845 104.802 126.012C104.988 126.179 105.211 126.301 105.452 126.369C105.693 126.436 105.946 126.447 106.192 126.402H108.061C108.276 126.435 108.496 126.424 108.707 126.371C108.918 126.318 109.116 126.224 109.29 126.093C109.464 125.963 109.611 125.799 109.721 125.611C109.83 125.423 109.902 125.215 109.93 125C109.931 124.555 109.763 124.126 109.459 123.8C109.155 123.475 108.739 123.277 108.295 123.247Z" fill="#4F7AFF"/>
<path d="M131.075 91.2383C138.669 101.635 140.071 111.449 169.159 95.4439L131.075 91.2383Z" fill="#4F7AFF"/>
<path d="M163.084 66.4718C163.572 66.1161 163.98 65.662 164.282 65.1388C164.584 64.6157 164.773 64.0351 164.837 63.4344C164.848 62.4418 164.55 61.4702 163.985 60.654C163.42 59.8378 162.615 59.2173 161.682 58.8784L159.696 58.2943H159.58C156.425 58.0606 154.907 59.5793 152.22 61.5653C150.466 62.9094 148.589 64.0829 146.612 65.07L163.084 66.4718Z" fill="#55F186"/>
<path d="M153.972 66.7054C153.827 66.6879 153.688 66.6364 153.566 66.5553C153.444 66.4741 153.343 66.3655 153.271 66.2382C153.214 66.1326 153.181 66.0157 153.174 65.8958C153.167 65.7759 153.186 65.6559 153.231 65.5444C153.275 65.4328 153.344 65.3325 153.432 65.2505C153.52 65.1685 153.624 65.1069 153.739 65.0699C155.681 64.1185 157.396 62.76 158.767 61.0869C160.137 59.4138 161.132 57.4653 161.683 55.3737C161.745 55.1568 161.89 54.9734 162.087 54.8639C162.284 54.7543 162.517 54.7276 162.734 54.7896C162.951 54.8515 163.134 54.9971 163.244 55.1943C163.353 55.3915 163.38 55.6241 163.318 55.841C162.714 58.1726 161.606 60.3434 160.072 62.2003C158.538 64.0573 156.615 65.5553 154.44 66.5886L153.972 66.7054Z" fill="#008D3C"/>
<path d="M157.01 66.1222L144.51 65.0708C140.421 63.6689 138.435 60.5147 139.019 56.8932C139.603 53.2717 142.173 52.3371 145.444 52.5708C148.715 52.8044 150.585 55.725 151.987 57.9446C155.024 63.0848 157.01 66.1222 157.01 66.1222Z" fill="#26CB7A"/>
<path d="M151.753 68.8091C151.662 68.8091 151.573 68.788 151.491 68.7474C151.41 68.7069 151.34 68.648 151.285 68.5755C147.197 65.5381 144.393 61.6829 143.692 57.9446C143.575 57.4773 143.809 57.01 144.276 57.01C144.383 56.9746 144.497 56.9618 144.609 56.9724C144.722 56.983 144.831 57.0168 144.93 57.0717C145.028 57.1265 145.115 57.2013 145.183 57.2912C145.252 57.3812 145.301 57.4843 145.327 57.5942C145.678 59.2297 146.963 63.2016 152.337 67.1736C152.518 67.3317 152.631 67.5534 152.652 67.7927C152.674 68.032 152.603 68.2705 152.454 68.4586C152.375 68.5711 152.27 68.6621 152.148 68.7233C152.025 68.7845 151.889 68.814 151.753 68.8091Z" fill="#008D3C"/>
<path d="M125.234 71.0286L129.323 71.2622C129.488 71.2901 129.637 71.3761 129.744 71.5046C129.851 71.6332 129.909 71.7958 129.907 71.9631L128.388 87.7342C128.36 87.8992 128.274 88.0488 128.146 88.1559C128.017 88.263 127.854 88.3206 127.687 88.3183L123.598 87.851C122.411 87.637 121.333 87.0209 120.546 86.1062C119.759 85.1915 119.31 84.0338 119.276 82.8276C119.375 80.2421 119.648 77.6661 120.094 75.1173C120.317 73.9323 120.959 72.8672 121.903 72.1165C122.847 71.3658 124.029 70.9796 125.234 71.0286Z" fill="#698EFF"/>
<path d="M124.416 74.0654H126.636C127.103 74.0654 127.337 74.5327 127.337 75L126.519 83.4112C126.52 83.514 126.499 83.6158 126.457 83.7095C126.415 83.8031 126.352 83.8864 126.274 83.9532C126.196 84.0201 126.104 84.069 126.005 84.0965C125.906 84.1239 125.802 84.1293 125.701 84.1121L123.598 83.8785C123.175 83.7763 122.798 83.5381 122.523 83.2004C122.249 82.8627 122.093 82.4443 122.08 82.0094C122.095 79.8551 122.29 77.7059 122.664 75.5841C122.742 75.1707 122.958 74.7958 123.276 74.5202C123.594 74.2446 123.996 74.0843 124.416 74.0654Z" fill="#B7CCFF"/>
<path d="M124.65 77.804C124.439 80.5247 124.4 83.2559 124.533 85.9815C124.722 88.0174 125.528 89.947 126.844 91.5125C128.159 93.0781 129.92 94.2052 131.893 94.7432C135.164 95.6778 143.458 96.7292 149.299 97.1965C155.14 97.6638 163.435 98.2479 166.939 97.8974C168.982 97.7838 170.934 97.0194 172.511 95.7161C174.087 94.4128 175.205 92.639 175.701 90.6544C176.397 88.0124 176.866 85.3157 177.103 82.5937C177.43 79.8796 177.469 77.1385 177.22 74.4161C177.064 72.3694 176.269 70.4233 174.949 68.8515C173.629 67.2798 171.849 66.1616 169.86 65.6544C166.589 64.7199 158.295 63.6685 152.453 63.0843C146.612 62.5002 138.318 62.0329 134.813 62.3834C132.777 62.5729 130.848 63.379 129.282 64.6941C127.717 66.0092 126.59 67.7706 126.052 69.7432C125.335 72.3807 124.865 75.0793 124.65 77.804Z" fill="#698EFF"/>
<path d="M153.739 85.8652L145.094 85.0474C139.837 84.3465 138.318 82.1269 137.968 78.9727C137.605 76.3195 137.763 73.621 138.435 71.0287C138.503 70.4961 138.682 69.9835 138.96 69.524C139.237 69.0644 139.608 68.6679 140.048 68.36C140.488 68.052 140.987 67.8394 141.514 67.7357C142.041 67.632 142.584 67.6395 143.108 67.7577L157.711 69.0428C158.806 69.1609 159.812 69.7044 160.511 70.5565C161.21 71.4086 161.547 72.501 161.449 73.5988L160.865 79.3231C160.514 83.996 157.944 86.2157 153.739 85.8652Z" fill="#B7CCFF"/>
<path d="M144.51 77.6874L142.641 77.4538C142.211 77.4167 141.783 77.5391 141.438 77.7977C141.093 78.0564 140.856 78.433 140.771 78.8556C140.735 79.0839 140.751 79.3176 140.819 79.5387C140.886 79.7598 141.003 79.9626 141.161 80.1316C141.319 80.3006 141.513 80.4314 141.729 80.514C141.945 80.5965 142.177 80.6287 142.407 80.608L144.276 80.8416C144.491 80.8746 144.711 80.8643 144.922 80.8114C145.133 80.7585 145.331 80.664 145.505 80.5334C145.679 80.4029 145.826 80.2389 145.936 80.0511C146.045 79.8633 146.117 79.6555 146.145 79.4398C146.182 79.2115 146.166 78.9779 146.098 78.7567C146.031 78.5356 145.914 78.3328 145.756 78.1638C145.598 77.9948 145.404 77.864 145.188 77.7815C144.972 77.6989 144.74 77.6667 144.51 77.6874Z" fill="#698EFF"/>
<path d="M153.271 78.3883H151.402C150.954 78.3198 150.497 78.4275 150.126 78.6889C149.756 78.9503 149.501 79.345 149.416 79.7902C149.415 80.2354 149.584 80.6643 149.887 80.9897C150.191 81.3152 150.607 81.5129 151.052 81.5425L152.921 81.7762C153.381 81.8129 153.838 81.6781 154.205 81.3977C154.572 81.1173 154.822 80.7112 154.907 80.2575C154.91 79.7997 154.746 79.3565 154.444 79.012C154.143 78.6675 153.725 78.4455 153.271 78.3883Z" fill="#698EFF"/>
<path d="M166.122 77.9212C167.477 77.9212 168.575 76.8228 168.575 75.4679C168.575 74.113 167.477 73.0146 166.122 73.0146C164.767 73.0146 163.668 74.113 163.668 75.4679C163.668 76.8228 164.767 77.9212 166.122 77.9212Z" fill="black"/>
<path d="M133.411 74.8831C134.766 74.8831 135.865 73.7847 135.865 72.4298C135.865 71.0749 134.766 69.9766 133.411 69.9766C132.056 69.9766 130.958 71.0749 130.958 72.4298C130.958 73.7847 132.056 74.8831 133.411 74.8831Z" fill="black"/>
<path d="M153.855 93.8089C153.147 93.965 152.413 93.9621 151.706 93.8005C150.999 93.6389 150.336 93.3226 149.766 92.8743C148.715 92.1734 148.014 91.2388 148.248 90.4211C148.481 89.6033 155.491 87.3837 156.893 87.9678C157.176 88.1279 157.406 88.3692 157.551 88.6606C157.697 88.952 157.752 89.2802 157.71 89.6033C157.642 90.6385 157.223 91.6195 156.522 92.3842C155.822 93.1489 154.881 93.6515 153.855 93.8089Z" fill="#E9459D"/>
<path d="M156.892 87.9672C155.196 87.8177 153.486 88.0164 151.869 88.5514C151.71 89.0812 151.67 89.6398 151.752 90.1869C151.79 90.9279 152.013 91.6477 152.401 92.2803C152.789 92.913 153.329 93.4383 153.972 93.8084C154.967 93.6086 155.871 93.0901 156.545 92.3313C157.22 91.5725 157.629 90.6147 157.71 89.6028C157.752 89.2797 157.697 88.9514 157.551 88.66C157.406 88.3686 157.176 88.1274 156.892 87.9672Z" fill="black"/>
<path d="M178.972 75.9351L174.884 75.4678C174.716 75.4655 174.554 75.5231 174.425 75.6302C174.297 75.7374 174.211 75.887 174.183 76.052L172.781 91.823C172.778 91.9903 172.836 92.1529 172.943 92.2815C173.05 92.4101 173.2 92.4961 173.365 92.5239L177.454 92.7576C178.659 92.8065 179.841 92.4203 180.785 91.6696C181.728 90.9189 182.371 89.8538 182.594 88.6688C183.059 86.125 183.294 83.5444 183.295 80.9585C183.283 79.7458 182.842 78.5765 182.051 77.6572C181.26 76.738 180.17 76.128 178.972 75.9351Z" fill="#698EFF"/>
<path d="M178.622 78.6214L176.519 78.3877C176.418 78.3706 176.314 78.376 176.215 78.4034C176.116 78.4309 176.024 78.4798 175.946 78.5467C175.868 78.6136 175.805 78.6968 175.763 78.7904C175.721 78.8841 175.7 78.9859 175.701 79.0887L174.883 87.4999C174.883 87.9672 175.117 88.4345 175.584 88.4345H177.687C178.145 88.4381 178.588 88.2735 178.933 87.9721C179.277 87.6706 179.499 87.2532 179.556 86.799C179.93 84.6772 180.125 82.528 180.14 80.3737C180.087 79.9649 179.914 79.5809 179.644 79.2693C179.374 78.9577 179.019 78.7324 178.622 78.6214Z" fill="#B7CCFF"/>
<path d="M153.855 93.8091C153.147 93.9652 152.413 93.9623 151.706 93.8007C150.999 93.6391 150.337 93.3228 149.767 92.8745C151.036 91.7579 152.502 90.8864 154.089 90.3044C155.26 89.9136 156.478 89.678 157.711 89.6035C157.643 90.6387 157.224 91.6197 156.523 92.3844C155.822 93.1491 154.881 93.6517 153.855 93.8091Z" fill="#FFADD6"/>
<path d="M196.963 61.7989C196.226 61.3462 195.602 60.7327 195.137 60.0043C194.671 59.276 194.377 58.4517 194.276 57.5933L193.808 54.5559C193.808 54.4391 193.692 54.3223 193.458 54.3223L193.224 54.5559L192.757 57.5933C192.635 58.4595 192.319 59.2871 191.834 60.0151C191.348 60.743 190.706 61.3526 189.953 61.7989L189.603 62.0325C189.486 62.1494 189.486 62.1494 189.486 62.2662C189.481 62.3295 189.488 62.3932 189.508 62.4535C189.528 62.5137 189.561 62.5692 189.603 62.6167L189.953 62.8503C190.706 63.2966 191.348 63.9062 191.834 64.6341C192.319 65.3621 192.635 66.1897 192.757 67.0559L193.224 70.0933L193.458 70.3269C193.692 70.3269 193.808 70.2101 193.808 70.0933L194.276 67.0559C194.377 66.1975 194.671 65.3732 195.137 64.6449C195.602 63.9165 196.226 63.303 196.963 62.8503L197.313 62.6167L197.547 62.2662C197.547 62.1494 197.43 62.1494 197.313 62.0325L196.963 61.7989Z" fill="#FD78B7"/>
<path d="M84.1125 127.57C83.3673 127.088 82.7324 126.453 82.2493 125.708C81.7661 124.964 81.4456 124.125 81.3088 123.248L80.8415 120.327C80.8415 120.094 80.7247 120.094 80.6078 120.094C80.3742 120.094 80.2574 120.094 80.2574 120.327L79.7901 123.248C79.674 124.118 79.3745 124.953 78.9113 125.698C78.448 126.443 77.8317 127.081 77.1032 127.57L76.7527 127.804C76.6907 127.804 76.6313 127.829 76.5875 127.872C76.5437 127.916 76.519 127.976 76.519 128.038C76.519 128.1 76.5437 128.159 76.5875 128.203C76.6313 128.247 76.6907 128.271 76.7527 128.271L77.1032 128.505C77.8424 128.982 78.4668 129.617 78.9314 130.365C79.396 131.112 79.6892 131.953 79.7901 132.827L80.2574 135.748C80.2574 135.865 80.3742 135.982 80.6078 135.982L80.8415 135.748L81.3088 132.827C81.4308 131.945 81.7452 131.101 82.2297 130.354C82.7142 129.607 83.357 128.976 84.1125 128.505L84.463 128.271C84.5798 128.271 84.5798 128.155 84.5798 128.038C84.5798 127.921 84.5798 127.804 84.463 127.804L84.1125 127.57Z" fill="white"/>
<path d="M219.86 131.075C218.749 130.357 217.801 129.415 217.076 128.308C216.352 127.201 215.868 125.955 215.655 124.65L215.071 120.094C214.954 119.86 214.837 119.743 214.603 119.743C214.37 119.743 214.136 119.86 214.136 120.094L213.435 124.65C213.268 125.97 212.802 127.234 212.074 128.348C211.345 129.461 210.372 130.394 209.229 131.075L208.645 131.425C208.529 131.542 208.529 131.659 208.529 131.893C208.523 131.956 208.531 132.02 208.551 132.08C208.571 132.14 208.603 132.196 208.645 132.243L209.229 132.594C210.364 133.312 211.329 134.27 212.055 135.4C212.781 136.53 213.252 137.805 213.435 139.136L214.136 143.575C214.136 143.699 214.185 143.818 214.273 143.905C214.36 143.993 214.479 144.042 214.603 144.042C214.837 144.042 214.954 143.809 215.071 143.575L215.655 139.136C215.879 137.818 216.368 136.56 217.09 135.436C217.813 134.312 218.755 133.345 219.86 132.594L220.444 132.243L220.678 131.893C220.678 131.802 220.657 131.713 220.616 131.631C220.576 131.55 220.517 131.48 220.444 131.425L219.86 131.075Z" fill="#66BCFF"/>
</svg>
