<svg width="104" height="39" viewBox="0 0 104 39" fill="none" xmlns="http://www.w3.org/2000/svg">
<path d="M94.2687 0.00390686H81.2905C81.1299 0.00369218 80.9746 0.0605097 80.853 0.163966C80.7314 0.267422 80.6516 0.410601 80.6283 0.567316L79.997 4.82146C79.9834 4.91507 79.9903 5.01048 80.0173 5.10122C80.0444 5.19196 80.0909 5.2759 80.1537 5.34735C80.2165 5.4188 80.2942 5.47608 80.3814 5.51531C80.4686 5.55454 80.5634 5.5748 80.6593 5.57472H83.029C83.084 5.57494 83.1381 5.58852 83.1865 5.61425C83.235 5.63998 83.2763 5.67707 83.3067 5.72226C83.3372 5.76744 83.3559 5.81933 83.3613 5.87335C83.3666 5.92736 83.3584 5.98184 83.3373 6.03198C83.034 6.74489 82.8254 7.49345 82.7164 8.25908L81.5099 16.4816C80.7173 21.9932 85.3696 24.7367 90.4318 24.7367C95.736 24.7367 100.939 21.985 101.729 16.4816L102.936 8.25908C103.702 2.85974 99.215 0.110056 94.2687 0.00390686ZM96.7522 8.25499L95.5539 16.306C95.2787 18.2086 93.1077 19.0925 91.1106 19.0925C89.248 19.0925 87.4247 18.2086 87.6648 16.4755L88.8713 8.25295C89.1466 6.45249 91.3175 5.53593 93.3147 5.53593C95.3118 5.53593 97.0357 6.45453 96.7605 8.25499H96.7522Z" fill="#060607"/>
<path d="M22.2769 0.00204177H17.43C17.2672 0.00470708 17.1108 0.0652128 16.9895 0.172454C16.8682 0.279696 16.7902 0.426479 16.7698 0.585864L15.2818 11.0518C15.2809 11.0613 15.2809 11.0709 15.2818 11.0804L15.3481 15.1263C15.3493 15.1668 15.3364 15.2066 15.3115 15.2389C15.2867 15.2712 15.2514 15.2941 15.2115 15.3039L13.8187 10.4231C13.8187 10.4231 13.8187 10.4088 13.8187 10.4006L9.47465 0.408267C9.42268 0.287993 9.33626 0.185297 9.22597 0.112774C9.11568 0.0402516 8.98633 0.00105686 8.85378 0H3.951C3.78605 0.000270852 3.62687 0.059958 3.50339 0.167843C3.37992 0.275728 3.30064 0.424382 3.28046 0.585864L0.00641925 23.6264C-0.00686909 23.7211 0.000526851 23.8174 0.0281103 23.909C0.0556937 24.0006 0.102826 24.0853 0.166341 24.1574C0.229856 24.2295 0.308283 24.2874 0.396355 24.3271C0.484426 24.3669 0.580102 24.3876 0.676956 24.3879H5.56526C5.72883 24.3874 5.88675 24.3287 6.00995 24.2226C6.13315 24.1164 6.21335 23.97 6.23579 23.8102L7.51478 14.6548C7.51581 14.6453 7.51581 14.6357 7.51478 14.6262L7.45683 9.9209L7.59756 9.88824L9.06074 14.767C9.05958 14.7738 9.05958 14.7807 9.06074 14.7875L13.1047 23.9857C13.1564 24.1061 13.2428 24.209 13.3531 24.2815C13.4635 24.3541 13.5929 24.3932 13.7255 24.394H19.0091C19.1725 24.394 19.3304 24.3358 19.4536 24.23C19.5769 24.1242 19.6572 23.978 19.6796 23.8183L22.9475 0.763461C22.9611 0.668775 22.954 0.572303 22.9265 0.480578C22.8991 0.388854 22.852 0.304017 22.7884 0.231815C22.7248 0.159613 22.6462 0.101732 22.558 0.0620895C22.4697 0.0224466 22.3739 0.00196817 22.2769 0.00204177Z" fill="#060607"/>
<path d="M32.865 0.00390625H27.9829C27.8184 0.0045495 27.6597 0.0641028 27.5363 0.171491C27.413 0.278878 27.3334 0.426792 27.3123 0.587729L24.0445 23.6283C24.0312 23.7229 24.0386 23.8193 24.0662 23.9109C24.0938 24.0024 24.1409 24.0871 24.2044 24.1592C24.2679 24.2314 24.3464 24.2893 24.4344 24.329C24.5225 24.3688 24.6182 24.3895 24.715 24.3897H29.6013C29.7645 24.3894 29.9222 24.3309 30.0454 24.2252C30.1685 24.1195 30.2489 23.9735 30.2718 23.8141L33.5334 0.765326C33.547 0.67081 33.54 0.574512 33.5126 0.482932C33.4853 0.391351 33.4384 0.306618 33.375 0.234451C33.3116 0.162283 33.2333 0.104359 33.1453 0.0645879C33.0574 0.0248171 32.9618 0.00412469 32.865 0.00390625Z" fill="#060607"/>
<path d="M55.781 0.00390674H37.5171C37.3544 0.00371267 37.197 0.0613925 37.0738 0.166372C36.9507 0.271351 36.87 0.416596 36.8466 0.575482L36.2092 4.87454C36.1952 4.96921 36.2021 5.06573 36.2293 5.15756C36.2565 5.24939 36.3033 5.33438 36.3667 5.40679C36.4301 5.47919 36.5085 5.5373 36.5967 5.57719C36.6848 5.61708 36.7807 5.63782 36.8776 5.638H41.9791C42.0759 5.63797 42.1715 5.6584 42.2596 5.69792C42.3477 5.73744 42.4261 5.79513 42.4897 5.8671C42.5532 5.93907 42.6004 6.02365 42.628 6.11512C42.6556 6.20659 42.663 6.30284 42.6496 6.39738L40.2469 23.6242C40.2336 23.7186 40.2409 23.8147 40.2684 23.906C40.2959 23.9973 40.3429 24.0818 40.4062 24.1537C40.4695 24.2257 40.5477 24.2834 40.6355 24.323C40.7234 24.3627 40.8188 24.3833 40.9154 24.3836H45.8616C46.0252 24.3832 46.1831 24.3245 46.3063 24.2183C46.4295 24.1122 46.5097 23.9657 46.5321 23.8059L48.9866 6.2157C49.0087 6.0557 49.0887 5.909 49.212 5.80277C49.3353 5.69655 49.4935 5.63801 49.6572 5.638H55.1415C55.3037 5.6382 55.4606 5.58073 55.5834 5.47614C55.7061 5.37154 55.7866 5.22681 55.81 5.06846L56.4495 0.763285C56.4628 0.668923 56.4554 0.572849 56.4279 0.481518C56.4005 0.390187 56.3535 0.305715 56.2902 0.23378C56.2268 0.161845 56.1486 0.104113 56.0608 0.0644638C55.973 0.0248143 55.8776 0.00416565 55.781 0.00390674Z" fill="#060607"/>
<path d="M69.7341 0.00390625H60.4376C60.2738 0.00553283 60.1161 0.065528 59.9937 0.172825C59.8712 0.280122 59.7922 0.427484 59.7712 0.587729L56.5054 23.6283C56.4922 23.7229 56.4995 23.8193 56.5271 23.9109C56.5547 24.0024 56.6019 24.0871 56.6654 24.1592C56.7289 24.2314 56.8073 24.2893 56.8954 24.329C56.9835 24.3688 57.0791 24.3895 57.176 24.3897H62.1284C62.292 24.3893 62.4499 24.3306 62.5731 24.2244C62.6963 24.1183 62.7765 23.9718 62.799 23.812L63.7613 16.9286C63.7723 16.8485 63.8123 16.7751 63.8739 16.7218C63.9356 16.6685 64.0146 16.639 64.0966 16.6388H64.7319C64.7889 16.6389 64.8449 16.6532 64.8949 16.6803C64.9448 16.7074 64.987 16.7465 65.0175 16.7939L69.7506 24.0815C69.8117 24.1758 69.8958 24.2535 69.9953 24.3073C70.0947 24.3612 70.2063 24.3895 70.3197 24.3897H76.4353C76.5591 24.3895 76.6806 24.3559 76.7865 24.2926C76.8924 24.2292 76.9787 24.1384 77.036 24.0302C77.0933 23.9219 77.1196 23.8002 77.1118 23.6782C77.104 23.5563 77.0626 23.4388 76.992 23.3384L72.0251 16.3428C71.9971 16.3032 71.9781 16.2582 71.9694 16.2107C71.9607 16.1632 71.9625 16.1144 71.9747 16.0677C71.9868 16.021 72.0091 15.9774 72.04 15.94C72.0708 15.9025 72.1095 15.8721 72.1534 15.8508C75.3219 14.3239 77.1617 12.7582 77.7681 8.40809C78.4635 2.69031 74.8335 0.00390625 69.7341 0.00390625ZM71.4456 8.5122C71.2697 9.92276 70.1542 11.3354 68.2336 11.3354H65.3466C65.2496 11.3354 65.1538 11.315 65.0656 11.2753C64.9773 11.2357 64.8987 11.1778 64.8352 11.1056C64.7716 11.0334 64.7245 10.9486 64.697 10.8568C64.6696 10.7651 64.6624 10.6686 64.6761 10.574L65.2866 6.33001C65.3095 6.17075 65.39 6.02502 65.5132 5.91963C65.6364 5.81424 65.794 5.75627 65.9571 5.75639H69.0366C70.8868 5.75639 71.6132 7.03019 71.4456 8.5122Z" fill="#060607"/>
<path d="M39.3425 33.2827C39.3107 33.3067 39.285 33.3376 39.2673 33.373C39.2496 33.4084 39.2404 33.4474 39.2404 33.4868C39.2404 33.5263 39.2496 33.5653 39.2673 33.6007C39.285 33.636 39.3107 33.667 39.3425 33.691C40.2779 34.3952 40.2448 35.4853 40.0316 36.1589C39.5556 37.7328 38.3512 38.6861 36.1533 38.6861H32.4032C32.3656 38.6859 32.3285 38.6777 32.2944 38.6622C32.2602 38.6467 32.2298 38.6242 32.2051 38.5962C32.1804 38.5682 32.1621 38.5354 32.1513 38.4998C32.1405 38.4643 32.1375 38.4269 32.1425 38.3901L33.4546 29.1327C33.4636 29.0708 33.4949 29.0142 33.5428 28.9733C33.5907 28.9325 33.652 28.91 33.7154 28.9102H37.4654C39.3549 28.9102 40.5863 30.0288 40.2655 31.8926C40.1314 32.4479 39.805 32.9396 39.3425 33.2827ZM36.3851 36.5141C37.8959 36.5141 38.1483 34.5116 36.6645 34.5116H35.4372C35.3738 34.5116 35.3125 34.5344 35.2649 34.5757C35.2173 34.617 35.1866 34.6741 35.1785 34.7361L34.9716 36.2181C34.9666 36.2547 34.9695 36.292 34.9802 36.3274C34.9909 36.3628 35.009 36.3955 35.0335 36.4235C35.0579 36.4515 35.0881 36.474 35.122 36.4896C35.1559 36.5052 35.1928 36.5136 35.2303 36.5141H36.3851ZM36.917 32.7295C38.1339 32.7295 38.4277 30.9903 37.1694 30.9903H35.9401C35.8771 30.9906 35.8164 31.0133 35.7689 31.0541C35.7214 31.095 35.6904 31.1513 35.6814 31.2128L35.5034 32.4376C35.4981 32.4744 35.5009 32.5119 35.5115 32.5476C35.5222 32.5833 35.5405 32.6163 35.5652 32.6444C35.59 32.6725 35.6205 32.695 35.6549 32.7104C35.6892 32.7257 35.7265 32.7337 35.7642 32.7336L36.917 32.7295Z" fill="#060607"/>
<path d="M48.9929 38.6893H46.8509C46.7906 38.6897 46.732 38.6697 46.6849 38.6325C46.6378 38.5954 46.6051 38.5433 46.5922 38.4852L46.2942 36.9481C46.2818 36.8901 46.2495 36.8381 46.2028 36.8009C46.156 36.7637 46.0977 36.7436 46.0376 36.7439H43.7797C43.7287 36.7441 43.6789 36.7588 43.6363 36.7863C43.5937 36.8139 43.5601 36.853 43.5396 36.8991L42.7967 38.5505C42.776 38.5964 42.7423 38.6354 42.6998 38.6629C42.6572 38.6904 42.6075 38.7053 42.5566 38.7057H40.4601C40.4155 38.7057 40.3716 38.6944 40.3325 38.6731C40.2935 38.6517 40.2606 38.6209 40.237 38.5835C40.2134 38.5461 40.1998 38.5034 40.1976 38.4594C40.1954 38.4154 40.2045 38.3716 40.2242 38.3321L44.8103 29.0746C44.8318 29.031 44.8653 28.9942 44.9071 28.9686C44.9488 28.9429 44.9971 28.9294 45.0463 28.9297H46.9523C47.0124 28.9294 47.0707 28.9495 47.1175 28.9867C47.1643 29.0239 47.1966 29.0759 47.209 29.1338L49.262 38.375C49.2701 38.4138 49.2693 38.4539 49.2594 38.4923C49.2496 38.5308 49.231 38.5665 49.205 38.5968C49.1791 38.627 49.1465 38.6511 49.1098 38.6672C49.073 38.6832 49.0331 38.6908 48.9929 38.6893ZM45.6816 34.5332C45.7183 34.5331 45.7546 34.5254 45.7882 34.5106C45.8217 34.4958 45.8517 34.4743 45.8763 34.4473C45.9009 34.4204 45.9194 34.3887 45.9308 34.3543C45.9422 34.3198 45.9461 34.2834 45.9424 34.2474L45.6775 31.6753H45.5802L44.622 34.1821C44.6069 34.2213 44.6017 34.2636 44.6069 34.3053C44.6121 34.347 44.6274 34.3869 44.6516 34.4214C44.6759 34.456 44.7083 34.4842 44.746 34.5036C44.7837 34.5231 44.8257 34.5332 44.8683 34.5332H45.6816Z" fill="#060607"/>
<path d="M51.3419 35.7609C51.3938 35.7187 51.4602 35.6978 51.5273 35.7028C51.5945 35.7077 51.657 35.7381 51.702 35.7875C51.9435 36.0272 52.2313 36.2167 52.5484 36.3447C52.8655 36.4726 53.2054 36.5365 53.548 36.5326C54.2206 36.5326 54.8084 36.2978 54.9057 35.7875C55.0174 35.1751 54.1503 34.9179 53.3514 34.8076C51.7972 34.5586 50.3982 33.3297 50.7479 31.4803C51.1266 29.4777 52.9189 28.7734 54.738 28.7734C55.8639 28.7734 56.9173 29.0633 57.7492 30.1085C57.7713 30.1367 57.7874 30.1689 57.7965 30.2034C57.8057 30.2378 57.8077 30.2737 57.8025 30.309C57.7973 30.3442 57.7849 30.3781 57.7662 30.4085C57.7474 30.4389 57.7227 30.4653 57.6934 30.4861L56.2778 31.4517C56.2291 31.4852 56.1704 31.5016 56.1111 31.4983C56.0518 31.495 55.9953 31.4721 55.9508 31.4333C55.5301 31.079 54.9973 30.8805 54.4441 30.8719C53.8233 30.8597 53.2831 31.0924 53.2252 31.5905C53.1569 32.1559 53.6598 32.407 54.4152 32.5703C56.137 32.8888 57.8175 33.5379 57.356 35.9671C56.9918 37.8737 55.3113 38.825 53.1693 38.825C52.0517 38.825 50.6858 38.3024 49.8994 37.2654C49.858 37.2118 49.8392 37.1445 49.8469 37.0776C49.8546 37.0106 49.8883 36.9492 49.9408 36.9061L51.3419 35.7609Z" fill="#060607"/>
<path d="M60.5988 38.69H58.6244C58.5868 38.6898 58.5497 38.6816 58.5155 38.6661C58.4814 38.6506 58.4509 38.6281 58.4263 38.6001C58.4016 38.5721 58.3833 38.5393 58.3725 38.5037C58.3617 38.4682 58.3587 38.4308 58.3637 38.394L59.6758 29.1366C59.6843 29.0745 59.7155 29.0177 59.7636 28.9767C59.8116 28.9358 59.8731 28.9135 59.9365 28.9141H61.9109C61.9484 28.914 61.9855 28.9219 62.0197 28.9372C62.0538 28.9524 62.0843 28.9748 62.109 29.0026C62.1337 29.0305 62.1521 29.0632 62.1629 29.0986C62.1737 29.1341 62.1767 29.1714 62.1717 29.208L60.8513 38.4655C60.8426 38.5262 60.8125 38.5819 60.7664 38.623C60.7202 38.664 60.6609 38.6878 60.5988 38.69Z" fill="#060607"/>
<path d="M69.9244 36.4938C69.9595 36.511 69.9902 36.5357 70.0144 36.5661C70.0387 36.5965 70.0557 36.6318 70.0644 36.6695C70.0732 36.7072 70.0733 36.7463 70.0648 36.7841C70.0563 36.8218 70.0395 36.8572 70.0155 36.8878C68.84 38.3922 67.4968 38.825 66.3151 38.825C64.3697 38.825 62.5775 37.7063 62.8858 35.4833L63.3618 32.1151C63.6702 29.9064 65.7977 28.7734 67.7845 28.7734C68.9414 28.7734 70.268 29.2348 70.8598 30.7739C70.8857 30.8387 70.8845 30.9108 70.8566 30.9747C70.8287 31.0386 70.7763 31.089 70.7108 31.1149L69.0117 31.7558C68.9541 31.7771 68.8908 31.7779 68.8327 31.7582C68.7745 31.7384 68.7252 31.6994 68.693 31.6476C68.5439 31.4494 68.3469 31.291 68.1199 31.1869C67.8929 31.0828 67.6432 31.0363 67.3933 31.0516C66.6793 31.0659 65.9653 31.4598 65.866 32.1151L65.39 35.4833C65.2927 36.1202 65.9095 36.5203 66.609 36.5203C66.8873 36.5245 67.1627 36.4634 67.4124 36.342C67.6621 36.2206 67.879 36.0425 68.0453 35.8222C68.0812 35.7721 68.134 35.7361 68.1942 35.7208C68.2545 35.7055 68.3183 35.7118 68.3743 35.7385L69.9244 36.4938Z" fill="#060607"/>
</svg>
