<svg width="16" height="16" viewBox="0 0 16 16" fill="none" xmlns="http://www.w3.org/2000/svg">
<path d="M9 15L9 9L15 9C15.2652 9 15.5196 8.89464 15.7071 8.70711C15.8946 8.51957 16 8.26522 16 8C16 7.73478 15.8946 7.48043 15.7071 7.29289C15.5196 7.10536 15.2652 7 15 7L9 7L9 1C9 0.734783 8.89464 0.480429 8.70711 0.292893C8.51957 0.105357 8.26522 -3.38098e-07 8 -3.49691e-07C7.73479 -3.61284e-07 7.48043 0.105357 7.2929 0.292893C7.10536 0.480429 7 0.734783 7 1L7 7L1 7C0.734786 7 0.480431 7.10536 0.292895 7.29289C0.105359 7.48043 2.52292e-06 7.73478 2.51133e-06 8C2.49974e-06 8.26522 0.105359 8.51957 0.292895 8.70711C0.480431 8.89464 0.734786 9 1 9L7 9L7 15C7 15.2652 7.10536 15.5196 7.29289 15.7071C7.48043 15.8946 7.73478 16 8 16C8.26522 16 8.51957 15.8946 8.70711 15.7071C8.89464 15.5196 9 15.2652 9 15Z" fill="#1B1C23"/>
</svg>
