<svg width="59" height="74" viewBox="0 0 59 74" fill="none" xmlns="http://www.w3.org/2000/svg">
<path d="M33.864 25.2945C36.2798 23.614 38.3389 21.4661 39.9211 18.9761C41.5033 16.4861 42.577 13.7039 43.0795 10.7918L44.5875 0.842303C44.5875 0.618678 44.6758 0.404198 44.8329 0.246071C44.99 0.0879437 45.2031 -0.000877734 45.4253 -0.000877734C45.6653 -0.00425239 45.8985 0.0788958 46.0829 0.233539C46.2673 0.388183 46.3906 0.604117 46.4306 0.842303L47.9386 10.7918C48.4411 13.7039 49.5148 16.4861 51.097 18.9761C52.6792 21.4661 54.7383 23.614 57.1541 25.2945L58.4945 25.9691C58.6558 26.0819 58.7863 26.2337 58.8741 26.4105C58.9619 26.5873 59.0043 26.7834 58.9972 26.9809C59.0116 27.1567 58.9708 27.3326 58.8806 27.4839C58.7904 27.6352 58.6554 27.7541 58.4945 27.8241L57.1541 28.6673C54.7235 30.2928 52.6511 32.4042 51.0658 34.8701C49.4804 37.336 48.416 40.1038 47.9386 43.0013L46.4306 53.1195C46.3906 53.3577 46.2673 53.5736 46.0829 53.7283C45.8985 53.8829 45.6653 53.9661 45.4253 53.9627C45.2031 53.9627 44.99 53.8739 44.8329 53.7158C44.6758 53.5576 44.5875 53.3431 44.5875 53.1195L43.0795 43.0013C42.6021 40.1038 41.5377 37.336 39.9523 34.8701C38.367 32.4042 36.2946 30.2928 33.864 28.6673L32.5236 27.8241C32.3627 27.7541 32.2277 27.6352 32.1375 27.4839C32.0473 27.3326 32.0066 27.1567 32.0209 26.9809C32.0139 26.7834 32.0562 26.5873 32.144 26.4105C32.2318 26.2337 32.3623 26.0819 32.5236 25.9691L33.864 25.2945Z" fill="#EB459E"/>
<path d="M1.29986 52.749C3.001 51.5033 4.45095 49.9112 5.56511 48.0655C6.67927 46.2199 7.43534 44.1576 7.78918 41.9991L8.85107 34.6241C8.85107 34.4583 8.91322 34.2994 9.02386 34.1821C9.13449 34.0649 9.28454 33.9991 9.441 33.9991C9.61 33.9966 9.77426 34.0582 9.9041 34.1729C10.0339 34.2875 10.1208 34.4475 10.1489 34.6241L11.2108 41.9991C11.5647 44.1576 12.3207 46.2199 13.4349 48.0655C14.549 49.9112 15.999 51.5033 17.7001 52.749L18.644 53.249C18.7576 53.3327 18.8495 53.4452 18.9114 53.5762C18.9732 53.7072 19.003 53.8526 18.998 53.999C19.0081 54.1293 18.9794 54.2597 18.9159 54.3719C18.8524 54.484 18.7573 54.5722 18.644 54.624L17.7001 55.249C15.9886 56.4539 14.5293 58.019 13.4129 59.8468C12.2965 61.6746 11.547 63.7262 11.2108 65.874L10.1489 73.374C10.1208 73.5505 10.0339 73.7106 9.9041 73.8252C9.77426 73.9398 9.61 74.0014 9.441 73.9989C9.28454 73.9989 9.13449 73.9331 9.02386 73.8159C8.91322 73.6987 8.85107 73.5397 8.85107 73.374L7.78918 65.874C7.45302 63.7262 6.70345 61.6746 5.58708 59.8468C4.47071 58.019 3.0114 56.4539 1.29986 55.249L0.355951 54.624C0.242657 54.5722 0.14757 54.484 0.0840721 54.3719C0.0205746 54.2597 -0.00813293 54.1293 0.00198936 53.999C-0.00299454 53.8526 0.0268059 53.7072 0.0886497 53.5762C0.150494 53.4452 0.242401 53.3327 0.355951 53.249L1.29986 52.749Z" fill="#5865F2"/>
</svg>
