<svg width="194" height="113" viewBox="0 0 194 113" fill="none" xmlns="http://www.w3.org/2000/svg">
<path d="M0.5 8C0.5 3.58173 4.08172 0 8.5 0H193.5V105C193.5 109.418 189.918 113 185.5 113H0.5V8Z" fill="white"/>
<path d="M0.5 81.4414H193.5V105C193.5 109.418 189.918 113 185.5 113H0.5V81.4414Z" fill="#E3E5E8"/>
<path d="M87.7417 30.3861L85.6277 26.9701H85.0257V30.2881H82.6457V20.6281H86.0197C87.1957 20.6281 88.1057 20.8894 88.7497 21.4121C89.403 21.9254 89.7297 22.6814 89.7297 23.6801C89.7297 24.3521 89.571 24.9168 89.2537 25.3741C88.9363 25.8314 88.4883 26.1814 87.9097 26.4241L90.2757 29.9801L87.7417 30.3861ZM87.3777 23.8201C87.3777 23.3721 87.2423 23.0314 86.9717 22.7981C86.701 22.5554 86.3043 22.4341 85.7817 22.4341H85.0117V25.2481H85.7537C86.2763 25.2481 86.6777 25.1268 86.9577 24.8841C87.2377 24.6414 87.3777 24.2868 87.3777 23.8201ZM97.1305 26.8581C97.1305 27.4088 97.0465 27.9034 96.8785 28.3421C96.7105 28.7808 96.4772 29.1541 96.1785 29.4621C95.8892 29.7701 95.5392 30.0081 95.1285 30.1761C94.7272 30.3441 94.2885 30.4281 93.8125 30.4281C93.3365 30.4281 92.8979 30.3488 92.4965 30.1901C92.1045 30.0221 91.7592 29.7841 91.4605 29.4761C91.1712 29.1681 90.9425 28.7948 90.7745 28.3561C90.6159 27.9174 90.5365 27.4228 90.5365 26.8721C90.5365 26.3214 90.6159 25.8268 90.7745 25.3881C90.9425 24.9401 91.1712 24.5621 91.4605 24.2541C91.7592 23.9461 92.1092 23.7081 92.5105 23.5401C92.9119 23.3721 93.3505 23.2881 93.8265 23.2881C94.3025 23.2881 94.7412 23.3721 95.1425 23.5401C95.5439 23.7081 95.8892 23.9461 96.1785 24.2541C96.4772 24.5621 96.7105 24.9354 96.8785 25.3741C97.0465 25.8128 97.1305 26.3074 97.1305 26.8581ZM95.0865 26.8721C95.0865 26.3121 94.9792 25.8641 94.7645 25.5281C94.5499 25.1828 94.2372 25.0101 93.8265 25.0101C93.4159 25.0101 93.1032 25.1781 92.8885 25.5141C92.6832 25.8501 92.5805 26.2981 92.5805 26.8581C92.5805 27.4181 92.6879 27.8708 92.9025 28.2161C93.1172 28.5521 93.4252 28.7201 93.8265 28.7201C94.2372 28.7201 94.5499 28.5521 94.7645 28.2161C94.9792 27.8801 95.0865 27.4321 95.0865 26.8721ZM102.343 30.3861L100.369 27.0821V30.2881H98.2553V20.5161L100.369 20.1801V26.2281L102.175 23.4281H104.499L102.315 26.5781L104.555 30.0781L102.343 30.3861ZM109.036 30.2881L108.896 29.4341C108.616 29.7328 108.304 29.9754 107.958 30.1621C107.622 30.3394 107.216 30.4281 106.74 30.4281C106.19 30.4281 105.742 30.2694 105.396 29.9521C105.051 29.6254 104.878 29.1494 104.878 28.5241C104.878 27.7214 105.196 27.1194 105.83 26.7181C106.465 26.3074 107.454 26.0414 108.798 25.9201V25.7941C108.798 25.2154 108.453 24.9261 107.762 24.9261C107.37 24.9261 106.992 24.9728 106.628 25.0661C106.274 25.1594 105.914 25.2854 105.55 25.4441L105.298 23.8481C105.69 23.6894 106.11 23.5634 106.558 23.4701C107.016 23.3674 107.524 23.3161 108.084 23.3161C109.036 23.3161 109.746 23.4934 110.212 23.8481C110.679 24.2028 110.912 24.8188 110.912 25.6961V30.2881H109.036ZM108.798 26.9421C108.434 26.9981 108.136 27.0681 107.902 27.1521C107.669 27.2361 107.482 27.3341 107.342 27.4461C107.202 27.5581 107.104 27.6841 107.048 27.8241C106.992 27.9548 106.964 28.0948 106.964 28.2441C106.964 28.4588 107.025 28.6268 107.146 28.7481C107.268 28.8601 107.431 28.9161 107.636 28.9161C108.019 28.9161 108.406 28.7434 108.798 28.3981V26.9421Z" fill="#060607"/>
<path d="M117.834 24.0601H119.106V25.2721H117.642L117.342 27.1921H118.698L118.89 28.4041H117.15L116.85 30.3121H115.842L116.154 28.4041H114.318L114.006 30.3841L113.046 30.1681L113.322 28.4041H112.05V27.1921H113.514L113.826 25.2721H112.47L112.266 24.0601H114.018L114.318 22.1521H115.314L115.002 24.0601H116.838L117.15 22.0801L118.11 22.2961L117.834 24.0601ZM114.498 27.2161H116.334L116.646 25.2481H114.81L114.498 27.2161ZM126.582 26.2321C126.582 26.9041 126.502 27.5041 126.342 28.0321C126.19 28.5521 125.974 28.9921 125.694 29.3521C125.414 29.7121 125.074 29.9841 124.674 30.1681C124.274 30.3521 123.834 30.4441 123.354 30.4441C122.866 30.4441 122.422 30.3521 122.022 30.1681C121.63 29.9841 121.29 29.7121 121.002 29.3521C120.722 28.9921 120.502 28.5521 120.342 28.0321C120.19 27.5041 120.114 26.9041 120.114 26.2321C120.114 25.5601 120.19 24.9641 120.342 24.4441C120.502 23.9161 120.722 23.4721 121.002 23.1121C121.29 22.7521 121.63 22.4801 122.022 22.2961C122.422 22.1121 122.866 22.0201 123.354 22.0201C123.834 22.0201 124.274 22.1121 124.674 22.2961C125.074 22.4801 125.414 22.7521 125.694 23.1121C125.974 23.4721 126.19 23.9161 126.342 24.4441C126.502 24.9641 126.582 25.5601 126.582 26.2321ZM125.034 26.2321C125.034 25.2641 124.89 24.5281 124.602 24.0241C124.322 23.5121 123.906 23.2561 123.354 23.2561C122.802 23.2561 122.378 23.5121 122.082 24.0241C121.794 24.5281 121.65 25.2641 121.65 26.2321C121.65 27.2001 121.794 27.9401 122.082 28.4521C122.378 28.9561 122.802 29.2081 123.354 29.2081C123.906 29.2081 124.322 28.9561 124.602 28.4521C124.89 27.9401 125.034 27.2001 125.034 26.2321ZM134.105 26.2321C134.105 26.9041 134.025 27.5041 133.865 28.0321C133.713 28.5521 133.497 28.9921 133.217 29.3521C132.937 29.7121 132.597 29.9841 132.197 30.1681C131.797 30.3521 131.357 30.4441 130.877 30.4441C130.389 30.4441 129.945 30.3521 129.545 30.1681C129.153 29.9841 128.813 29.7121 128.525 29.3521C128.245 28.9921 128.025 28.5521 127.865 28.0321C127.713 27.5041 127.637 26.9041 127.637 26.2321C127.637 25.5601 127.713 24.9641 127.865 24.4441C128.025 23.9161 128.245 23.4721 128.525 23.1121C128.813 22.7521 129.153 22.4801 129.545 22.2961C129.945 22.1121 130.389 22.0201 130.877 22.0201C131.357 22.0201 131.797 22.1121 132.197 22.2961C132.597 22.4801 132.937 22.7521 133.217 23.1121C133.497 23.4721 133.713 23.9161 133.865 24.4441C134.025 24.9641 134.105 25.5601 134.105 26.2321ZM132.557 26.2321C132.557 25.2641 132.413 24.5281 132.125 24.0241C131.845 23.5121 131.429 23.2561 130.877 23.2561C130.325 23.2561 129.901 23.5121 129.605 24.0241C129.317 24.5281 129.173 25.2641 129.173 26.2321C129.173 27.2001 129.317 27.9401 129.605 28.4521C129.901 28.9561 130.325 29.2081 130.877 29.2081C131.429 29.2081 131.845 28.9561 132.125 28.4521C132.413 27.9401 132.557 27.2001 132.557 26.2321ZM141.629 26.2321C141.629 26.9041 141.549 27.5041 141.389 28.0321C141.237 28.5521 141.021 28.9921 140.741 29.3521C140.461 29.7121 140.121 29.9841 139.721 30.1681C139.321 30.3521 138.881 30.4441 138.401 30.4441C137.913 30.4441 137.469 30.3521 137.069 30.1681C136.677 29.9841 136.337 29.7121 136.049 29.3521C135.769 28.9921 135.549 28.5521 135.389 28.0321C135.237 27.5041 135.161 26.9041 135.161 26.2321C135.161 25.5601 135.237 24.9641 135.389 24.4441C135.549 23.9161 135.769 23.4721 136.049 23.1121C136.337 22.7521 136.677 22.4801 137.069 22.2961C137.469 22.1121 137.913 22.0201 138.401 22.0201C138.881 22.0201 139.321 22.1121 139.721 22.2961C140.121 22.4801 140.461 22.7521 140.741 23.1121C141.021 23.4721 141.237 23.9161 141.389 24.4441C141.549 24.9641 141.629 25.5601 141.629 26.2321ZM140.081 26.2321C140.081 25.2641 139.937 24.5281 139.649 24.0241C139.369 23.5121 138.953 23.2561 138.401 23.2561C137.849 23.2561 137.425 23.5121 137.129 24.0241C136.841 24.5281 136.697 25.2641 136.697 26.2321C136.697 27.2001 136.841 27.9401 137.129 28.4521C137.425 28.9561 137.849 29.2081 138.401 29.2081C138.953 29.2081 139.369 28.9561 139.649 28.4521C139.937 27.9401 140.081 27.2001 140.081 26.2321ZM149.152 26.2321C149.152 26.9041 149.072 27.5041 148.912 28.0321C148.76 28.5521 148.544 28.9921 148.264 29.3521C147.984 29.7121 147.644 29.9841 147.244 30.1681C146.844 30.3521 146.404 30.4441 145.924 30.4441C145.436 30.4441 144.992 30.3521 144.592 30.1681C144.2 29.9841 143.86 29.7121 143.572 29.3521C143.292 28.9921 143.072 28.5521 142.912 28.0321C142.76 27.5041 142.684 26.9041 142.684 26.2321C142.684 25.5601 142.76 24.9641 142.912 24.4441C143.072 23.9161 143.292 23.4721 143.572 23.1121C143.86 22.7521 144.2 22.4801 144.592 22.2961C144.992 22.1121 145.436 22.0201 145.924 22.0201C146.404 22.0201 146.844 22.1121 147.244 22.2961C147.644 22.4801 147.984 22.7521 148.264 23.1121C148.544 23.4721 148.76 23.9161 148.912 24.4441C149.072 24.9641 149.152 25.5601 149.152 26.2321ZM147.604 26.2321C147.604 25.2641 147.46 24.5281 147.172 24.0241C146.892 23.5121 146.476 23.2561 145.924 23.2561C145.372 23.2561 144.948 23.5121 144.652 24.0241C144.364 24.5281 144.22 25.2641 144.22 26.2321C144.22 27.2001 144.364 27.9401 144.652 28.4521C144.948 28.9561 145.372 29.2081 145.924 29.2081C146.476 29.2081 146.892 28.9561 147.172 28.4521C147.46 27.9401 147.604 27.2001 147.604 26.2321Z" fill="#4F5660"/>
<g clip-path="url(#clip0_14847_20696)">
<mask id="mask0_14847_20696" style="mask-type:alpha" maskUnits="userSpaceOnUse" x="16" y="16" width="50" height="50">
<ellipse cx="41.1309" cy="40.7205" rx="24.3789" ry="24.4324" fill="#24193A"/>
</mask>
<g mask="url(#mask0_14847_20696)">
<path d="M23.7944 60.6241C23.698 60.5877 23.6017 60.548 23.5047 60.5147C23.2028 60.4131 22.892 60.3382 22.5901 60.2365C21.8926 60.0012 21.3208 59.6321 20.7528 59.1768C20.0043 60.0568 19.3878 61.0609 18.9238 62.0977H25.0778C24.8212 61.6999 24.5844 61.2893 24.3694 60.8678C24.1715 60.8531 23.9756 60.7751 23.7944 60.6241Z" fill="#9AFFD8"/>
<path d="M19.8324 58.3101C19.318 57.7338 18.9051 57.0706 18.6869 56.3242C18.4233 55.423 18.4897 54.3888 19.0596 53.6162C19.9626 52.3921 21.5312 52.1324 22.9027 52.5526C22.9588 52.1088 23.0354 51.6675 23.1356 51.2313C23.671 48.8987 24.7598 46.8668 26.2282 45.147C26.2882 44.5937 26.5332 44.0578 26.8274 43.5966C27.4363 42.6411 28.2755 41.8282 29.1855 41.1266C28.0125 41.0511 26.8415 40.9373 25.6749 40.7755C25.2799 40.7205 25.1605 40.0783 25.2824 39.7861C25.442 39.4042 26.5256 39.2968 26.8887 39.2175C28.0738 38.9584 29.2972 38.8919 30.4931 38.6905C30.8416 38.6316 31.1907 38.576 31.541 38.5267C32.1709 38.4385 32.8046 38.3739 33.4409 38.3259C33.8429 37.6384 34.1977 36.9297 34.6611 36.2754C35.7964 34.6746 37.3286 33.256 39.2074 32.4834C40.9624 31.7619 43.1386 31.5477 44.8865 32.406C45.5337 32.7239 46.2554 33.1799 46.9651 33.7018C49.3953 32.6433 51.985 31.9033 54.4139 30.8205C56.5626 29.863 58.7394 28.4579 59.5174 26.2341C60.4931 23.4443 58.7994 20.2425 56.2773 18.7095C53.7553 17.1764 50.6403 16.9941 47.7009 17.2417C45.7009 17.4099 43.674 17.7559 41.7033 17.3753C39.7326 16.9948 37.7734 15.6709 37.372 13.7003C37.3401 13.5455 37.3197 13.3901 37.3076 13.2354H23.7763C22.5504 13.8238 21.2472 14.2209 20.0143 14.4103C19.26 14.526 18.5114 14.5759 17.7679 14.574L15.7363 38.176L17.7679 61.5796C18.2855 60.4149 18.96 59.3232 19.7941 58.3536C19.8069 58.3389 19.8196 58.3248 19.8324 58.3101Z" fill="#9AFFD8"/>
<path d="M41.6379 19.6034C43.6086 19.984 45.6354 19.6379 47.6354 19.4697C50.5749 19.2222 53.7542 17.1754 56.2763 18.7085C58.7984 20.2416 60.4921 23.4433 59.5163 26.2331C58.7384 28.4569 56.5616 29.8621 54.4128 30.8195C51.9839 31.9023 49.3942 32.6423 46.964 33.7008C48.0547 34.5015 49.116 35.4564 49.8333 36.302C50.3234 36.8801 51.0082 37.6962 51.153 38.4592C51.5098 38.5462 51.8633 38.6492 52.2149 38.7688C52.5813 38.8929 52.9552 39.0304 53.3286 39.1826C54.5392 38.3806 55.8723 37.7442 57.2048 37.2249C60.1736 36.0672 63.3613 35.7372 66.5241 35.8824V13.2344H37.3065C37.3187 13.3892 37.2753 15.773 37.3066 15.9284C37.7086 17.8989 39.6672 19.2229 41.6379 19.6034Z" fill="#9FA9FF"/>
<path d="M54.6953 39.8279C55.5256 40.2826 56.292 40.8416 56.8836 41.5426C57.3973 42.1508 57.7892 42.9029 57.7452 43.7216C57.712 44.3407 57.4605 44.9605 57.07 45.4587C57.0942 45.5028 57.1178 45.5469 57.1408 45.5911C57.2442 45.79 57.3399 45.9921 57.4267 46.1987C58.0719 47.7305 58.5658 49.4049 58.8581 51.1247C59.2244 51.0364 59.6105 51.039 59.9832 51.1253C61.0209 51.3658 61.8014 52.2216 62.1505 53.1988C62.1562 53.2148 62.1607 53.2308 62.1658 53.2468C62.3151 53.6433 62.3936 54.0744 62.4121 54.5189C62.5008 56.6909 60.7988 58.2867 59.2691 59.5594C58.9896 59.7916 58.6597 59.8914 58.3438 59.83C58.3176 59.9067 58.2927 59.9834 58.2653 60.0589C57.9985 60.797 57.6762 61.4743 57.3061 62.0972H66.5252V37.1634C62.3987 36.9785 58.2851 37.6687 54.6953 39.8279Z" fill="#9FA9FF"/>
<path d="M20.7051 59.1385C20.3949 58.8871 20.1001 58.6095 19.8321 58.3096C19.8193 58.3243 19.8065 58.3384 19.7938 58.3531C18.9597 59.3227 18.2851 60.4144 17.7676 61.5791V62.0978H18.9246C19.3885 61.061 20.0044 60.0569 20.7536 59.1768C20.7376 59.1634 20.7217 59.1512 20.7051 59.1385Z" fill="white"/>
<path d="M57.2044 37.2248C55.8719 37.7441 54.5387 38.3805 53.3281 39.1825C53.7902 39.3718 54.2516 39.5848 54.6945 39.8278C58.2836 37.668 62.3979 36.9785 66.5243 37.1634V35.8829C63.3615 35.7371 60.1738 36.0671 57.2044 37.2248Z" fill="white"/>
<path d="M30.3297 14.637L11.4237 23.4148L11.3293 34.482C12.3678 34.2859 18.1814 37.4511 24.2762 33.379C36.6185 25.1327 28.7749 15.7873 30.3297 14.637Z" fill="#FAFFA0"/>
<path d="M62.4132 54.5193C62.3954 54.0754 62.3162 53.6444 62.1669 53.2478C62.1618 53.2318 62.1573 53.2159 62.1516 53.1999C61.8025 52.2226 61.022 51.3668 59.9843 51.1264C59.6116 51.04 59.2256 51.0375 58.8592 51.1257C58.5663 49.4059 58.073 47.7309 57.4278 46.1997C57.341 45.9931 57.2453 45.791 57.1419 45.5921C57.1189 45.5473 57.0947 45.5032 57.0711 45.4597C56.8777 45.7072 56.6505 45.9247 56.3972 46.0974C55.4699 46.7299 54.2274 46.6679 53.1788 46.4581C52.1603 46.2541 51.1545 45.8652 50.2471 45.3599C50.2005 45.3337 50.1539 45.3069 50.1079 45.2806C49.7238 45.06 49.3511 44.8189 48.993 44.5579C48.2119 43.9893 47.4978 43.3299 46.8705 42.5957C46.8596 42.7383 46.8475 42.8803 46.8328 43.0217C46.6835 44.4409 46.307 46.0859 45.0555 46.9435C44.1084 47.5921 42.6221 47.6452 42.0893 46.4607C41.6942 45.5832 41.7817 44.5221 41.9565 43.5544C41.954 43.5608 41.9514 43.5666 41.9489 43.573C41.5009 44.6839 41.0854 45.7974 40.4389 46.8124C39.548 48.2099 38.2053 49.7769 36.5371 50.1855C36.0942 50.2943 35.6284 50.3224 35.1414 50.2425C34.4439 50.1286 33.8064 49.773 33.5658 49.074C33.3673 48.4971 33.4905 47.8389 33.6787 47.2768C33.8568 46.744 34.0936 46.2304 34.3654 45.7328C33.9066 46.0795 33.4228 46.3967 32.9021 46.6704C31.2205 47.555 28.7776 48.5092 27.0896 47.1591C26.5663 46.7402 26.2331 46.139 26.2146 45.4623C26.2115 45.3574 26.2172 45.2525 26.2287 45.1482C24.7602 46.8681 23.6715 48.9 23.1361 51.2325C23.0359 51.6687 22.9593 52.11 22.9031 52.5539C21.5317 52.1337 19.9637 52.3934 19.0601 53.6175C18.4902 54.3895 18.4238 55.4243 18.6874 56.3255C18.9056 57.0719 19.3192 57.7351 19.8329 58.3114C20.1009 58.6113 20.3958 58.8889 20.7059 59.1402C20.7219 59.153 20.7385 59.1658 20.7544 59.1786C21.3224 59.634 21.8942 60.003 22.5917 60.2384C22.8936 60.3401 23.2044 60.4149 23.5062 60.5166C23.6039 60.5492 23.6996 60.5889 23.796 60.626C23.9772 60.7769 24.1731 60.8556 24.371 60.8697C24.586 61.2911 24.8228 61.7017 25.0793 62.0996L32.8108 67.1897H34.3654H44.5443H49.1315H50.4245L57.3066 62.0996C57.6767 61.4766 57.999 60.7987 58.2657 60.0612C58.2932 59.9851 58.3187 59.9084 58.3442 59.8323C58.6601 59.8937 58.9901 59.7939 59.2696 59.5617C60.7999 58.2877 62.5019 56.6919 62.4132 54.5193Z" fill="#24193A"/>
<path d="M56.8836 41.542C56.292 40.8411 55.5256 40.2821 54.6953 39.8273C54.2524 39.5843 53.791 39.3713 53.329 39.182C52.9556 39.0291 52.581 38.8923 52.2154 38.7676C51.8637 38.648 51.5102 38.545 51.1534 38.458C51.2358 38.8936 51.1439 39.3112 50.7373 39.6579C50.6831 39.7039 50.6238 39.7487 50.5587 39.7922C50.4999 39.8312 50.4368 39.8676 50.3723 39.9028C49.5108 40.3697 48.1642 40.4835 46.877 40.5245C46.3875 40.5398 45.9064 40.5456 45.4641 40.5558C45.0767 40.5648 44.7193 40.5776 44.4117 40.6044C42.2605 40.7931 40.0977 40.9741 37.9317 41.0956C35.6528 41.2229 33.37 41.283 31.0937 41.2146C30.4568 41.1954 29.8205 41.1666 29.1849 41.1257C28.2755 41.8273 27.4356 42.6402 26.8268 43.5957C26.5326 44.0569 26.2876 44.5928 26.2276 45.1461C26.2161 45.2503 26.211 45.3552 26.2135 45.4601C26.232 46.1368 26.5652 46.7386 27.0885 47.1569C28.7771 48.507 31.22 47.5528 32.901 46.6682C33.4217 46.3945 33.9055 46.0773 34.3643 45.7306C34.0925 46.2282 33.8557 46.7418 33.6776 47.2746C33.4894 47.8374 33.3662 48.4949 33.5647 49.0718C33.8053 49.7708 34.4428 50.1258 35.1403 50.2403C35.6273 50.3202 36.0925 50.2921 36.536 50.1833C38.2049 49.774 39.5476 48.2077 40.4378 46.8102C41.0843 45.7959 41.4998 44.6824 41.9478 43.5708C41.9503 43.5644 41.9529 43.5586 41.9554 43.5522C41.7806 44.5199 41.6931 45.581 42.0882 46.4585C42.621 47.6436 44.1073 47.5905 45.0544 46.9413C46.3059 46.0837 46.6824 44.4387 46.8317 43.0195C46.8464 42.8781 46.8585 42.7361 46.8694 42.5935C47.4961 43.3277 48.2108 43.9871 48.9919 44.5557C49.3506 44.8167 49.7226 45.0578 50.1068 45.2784C50.1534 45.3053 50.1994 45.3322 50.246 45.3578C51.1534 45.863 52.1592 46.2519 53.1777 46.4559C54.2263 46.6657 55.4694 46.7277 56.3961 46.0952C56.6488 45.9225 56.876 45.7044 57.07 45.4575C57.4605 44.9587 57.712 44.3395 57.7452 43.7204C57.7898 42.9024 57.3973 42.1503 56.8836 41.542Z" fill="#FFCD2E"/>
<path d="M51.1536 38.4586C51.0088 37.6956 50.3246 36.8795 49.8339 36.3013C49.1166 35.4558 48.0546 34.5009 46.9646 33.7002C46.255 33.1789 45.5332 32.7223 44.8861 32.4044C43.1381 31.5461 40.962 31.7604 39.207 32.4818C37.3282 33.2544 35.7959 34.673 34.6606 36.2738C34.1967 36.9281 33.8425 37.6361 33.4404 38.3243C32.8042 38.3723 32.1704 38.4369 31.5406 38.5251C31.1902 38.5744 30.8411 38.63 30.4927 38.6889C29.2967 38.891 28.074 38.9575 26.8883 39.2165C26.5245 39.2958 25.4409 39.4033 25.282 39.7851C25.1601 40.0774 25.2794 40.7195 25.6745 40.7745C26.841 40.9363 28.0121 41.0508 29.1851 41.1257C29.8207 41.1666 30.4569 41.1954 31.0938 41.2146C33.3702 41.283 35.653 41.2229 37.9319 41.0956C40.0979 40.9741 42.2606 40.7931 44.4119 40.6044C44.7195 40.5775 45.0769 40.5648 45.4643 40.5558C45.9065 40.5456 46.3871 40.5405 46.8772 40.5245C48.1644 40.4835 49.5103 40.369 50.3725 39.9028C50.437 39.8676 50.5001 39.8312 50.5588 39.7921C50.6239 39.7487 50.6839 39.7039 50.7375 39.6578C51.1434 39.3118 51.236 38.8942 51.1536 38.4586ZM30.4397 40.245C30.7626 40.0365 31.0926 39.8388 31.4302 39.6559C31.0926 39.8388 30.7626 40.0365 30.4397 40.245ZM34.2924 38.6678C34.4073 38.6723 34.5011 38.7087 34.5732 38.7656C34.5011 38.7087 34.4073 38.6723 34.2924 38.6678Z" fill="#FF5CEF"/>
<path d="M38.0788 55.8561C38.0692 55.7889 38.0584 55.7218 38.0469 55.6553C38.0584 55.7224 38.0692 55.7896 38.0788 55.8561Z" fill="white"/>
<path d="M38.1031 56.0552C38.0967 55.9925 38.089 55.9299 38.0801 55.8672C38.089 55.9299 38.0967 55.9925 38.1031 56.0552Z" fill="white"/>
<path d="M38.0794 55.868C38.0788 55.8641 38.0788 55.8603 38.0781 55.8564C38.0788 55.8603 38.0788 55.8641 38.0794 55.868Z" fill="white"/>
<path d="M38.1016 56.0557C38.1016 56.0569 38.1016 56.0588 38.1022 56.0601C38.1022 56.0588 38.1016 56.0575 38.1016 56.0557Z" fill="white"/>
<path d="M38.1028 56.0605C36.7428 57.1139 35.0676 57.7676 33.3528 57.9428C32.7076 58.0087 32.0573 58.0061 31.4153 57.9326C30.3738 57.8123 29.3553 57.5034 28.4236 56.986C28.3298 56.9336 28.2366 56.8792 28.146 56.8229C27.8728 56.6541 27.6131 56.468 27.3661 56.2659C27.2155 57.1536 27.3233 58.0771 27.7101 58.8977C28.1319 59.7925 28.9028 60.5043 29.7605 60.9744C31.2162 61.7713 33.0899 62.047 34.6987 61.5347C35.0191 61.4323 35.3299 61.3 35.6241 61.133C35.709 61.0851 35.7913 61.0333 35.873 60.9802C37.4869 59.9249 38.2974 57.9537 38.1028 56.0605Z" fill="white"/>
<path d="M54.0031 55.8225C53.9807 55.4099 53.9054 55.0115 53.781 54.6348C53.0688 55.3447 52.2315 55.9312 51.2634 56.3501C51.144 56.4019 51.0228 56.4505 50.9002 56.4979C50.511 56.6469 50.107 56.7722 49.6941 56.8733C48.0285 57.2794 46.2167 57.2839 44.6002 56.8471C44.0616 56.7012 43.5274 56.4863 43.0673 56.1781C43.0437 56.4243 43.0424 56.6731 43.0654 56.9212C43.2243 58.636 44.3909 59.988 45.9729 60.5899C46.3992 60.7517 46.8395 60.8355 47.2907 60.8911C47.3916 60.9039 47.4879 60.8732 47.5702 60.8182C48.6826 60.9915 49.8709 60.8566 50.9092 60.4568C51.3214 60.2982 51.7095 60.0974 52.0604 59.8582C52.1287 59.8115 52.1957 59.7642 52.2608 59.7143C53.4906 58.7786 54.086 57.3606 54.0031 55.8225Z" fill="white"/>
<path d="M38.0464 55.6555C38.0451 55.6479 38.0432 55.6402 38.042 55.6319C38.0311 55.573 38.0196 55.5142 38.0062 55.4554C37.9915 55.3876 37.9749 55.3204 37.9577 55.2539C37.5435 53.6831 36.4152 52.7314 35.0406 52.3118C34.779 52.2319 34.5077 52.1711 34.2314 52.1296C34.024 52.0982 33.8134 52.0771 33.6009 52.0669C33.4592 52.0598 33.3169 52.0573 33.1739 52.0592C32.888 52.063 32.6009 52.0848 32.315 52.1244C32.2435 52.134 32.172 52.1449 32.1012 52.1571C31.9589 52.1814 31.8165 52.2095 31.6761 52.2415C31.6059 52.2575 31.5358 52.2747 31.4656 52.2933C31.3258 52.3298 31.1873 52.3707 31.0501 52.4161C30.8446 52.4839 30.6429 52.5606 30.4457 52.6463C30.3143 52.7033 30.1854 52.7647 30.059 52.8299C29.9327 52.8951 29.8088 52.9642 29.6876 53.0371C29.567 53.11 29.4489 53.1868 29.334 53.2674C29.0481 53.4688 28.7833 53.6933 28.5459 53.9408C28.4508 54.04 28.3608 54.1423 28.2747 54.2485C28.1464 54.4077 28.0283 54.5747 27.923 54.7493C27.886 54.81 27.8509 54.8721 27.8171 54.9354C27.7865 54.9923 27.7571 55.0505 27.729 55.1087C27.6403 55.2935 27.565 55.4854 27.5044 55.685C27.4865 55.7425 27.4706 55.8014 27.4553 55.8596C27.4495 55.8807 27.4444 55.9018 27.4393 55.9229C27.4297 55.96 27.4214 55.9977 27.4131 56.0355C27.4074 56.0604 27.4016 56.0853 27.3965 56.1109C27.3921 56.1314 27.3889 56.1519 27.3851 56.173C27.3793 56.2043 27.3729 56.2356 27.3672 56.2676C27.6135 56.4697 27.8733 56.6558 28.147 56.8247C28.2383 56.881 28.3308 56.9353 28.4246 56.9878C29.3564 57.5052 30.3749 57.8147 31.4164 57.9344C32.0584 58.0085 32.7087 58.0105 33.3539 57.9446C35.0687 57.7693 36.7439 57.1157 38.1039 56.0623C38.0892 55.9248 38.07 55.7899 38.0464 55.6555Z" fill="#427EFC"/>
<path d="M53.7821 54.6342C53.7655 54.5836 53.7476 54.5331 53.7291 54.4839C53.7266 54.4775 53.7247 54.4717 53.7221 54.4653C53.7061 54.4225 53.6889 54.3796 53.6717 54.3374C53.6685 54.3297 53.6653 54.322 53.6621 54.315C53.6225 54.2197 53.5792 54.1263 53.5326 54.0349C53.5281 54.0266 53.5243 54.0182 53.5198 54.0099C53.4994 53.9696 53.4777 53.9293 53.456 53.8897C53.4528 53.8846 53.4502 53.8788 53.447 53.8737C53.4215 53.8283 53.396 53.7842 53.3692 53.7394C53.366 53.7343 53.3628 53.7292 53.3596 53.724C53.336 53.6857 53.3124 53.6479 53.2875 53.6108C53.2818 53.6019 53.2754 53.5923 53.269 53.5833C53.2416 53.5424 53.2135 53.5015 53.1841 53.4605C53.1835 53.4599 53.1835 53.4593 53.1828 53.4586C53.1528 53.417 53.1222 53.3767 53.0909 53.3358C53.0839 53.3269 53.0769 53.3179 53.0699 53.309C53.0444 53.277 53.0188 53.245 52.9927 53.213C52.9856 53.2041 52.978 53.1957 52.971 53.1868C52.9384 53.1484 52.9052 53.11 52.8708 53.0723C52.8669 53.0685 52.8631 53.064 52.8593 53.0602C52.8293 53.0269 52.798 52.9943 52.7668 52.9623C52.7572 52.9527 52.7476 52.9425 52.7374 52.9329C52.708 52.9028 52.678 52.8734 52.6474 52.8446C52.641 52.8382 52.634 52.8318 52.6276 52.8254C52.5913 52.7909 52.5536 52.757 52.5153 52.7231C52.5057 52.7148 52.4968 52.7071 52.4872 52.6988C52.4572 52.6726 52.4266 52.647 52.3953 52.6214C52.3845 52.6125 52.373 52.6029 52.3621 52.5939C52.3219 52.5619 52.2817 52.5299 52.2409 52.4986C52.1758 52.4494 52.1101 52.4027 52.0431 52.3573C51.44 51.9479 50.7584 51.68 50.0475 51.5431C49.9894 51.5316 49.9307 51.5213 49.8726 51.5117C49.6927 51.4823 49.5108 51.4619 49.3289 51.4491C49.087 51.4318 48.8439 51.4292 48.6007 51.4401C48.595 51.4401 48.5893 51.4408 48.5835 51.4414C48.3461 51.4529 48.1093 51.4772 47.8745 51.5143C47.6339 51.5527 47.3959 51.6045 47.1617 51.6691C47.0053 51.7119 46.8509 51.7612 46.699 51.8162C46.3952 51.9256 46.1004 52.0579 45.8189 52.2121C45.5375 52.3662 45.2701 52.5421 45.0206 52.7391L45.0199 52.7397C44.9842 52.7679 44.9491 52.7967 44.914 52.8254C44.9025 52.835 44.891 52.8446 44.8802 52.8542C44.8566 52.8747 44.833 52.8945 44.8093 52.9156C44.7966 52.9271 44.7832 52.9386 44.7704 52.9501C44.7487 52.9693 44.727 52.9892 44.706 53.009C44.6926 53.0211 44.6798 53.0333 44.6664 53.0461C44.6447 53.0666 44.6236 53.087 44.6026 53.1081C44.5904 53.1196 44.5783 53.1318 44.5662 53.1439C44.5413 53.1682 44.5171 53.1938 44.4928 53.2188C44.4845 53.2271 44.4769 53.2354 44.4686 53.2437C44.4366 53.277 44.4054 53.3109 44.3741 53.3454C44.3652 53.355 44.3569 53.3646 44.3486 53.3742C44.3262 53.3991 44.3039 53.4247 44.2822 53.4503C44.2707 53.4637 44.2592 53.4772 44.2477 53.4906C44.2286 53.513 44.2101 53.5354 44.1916 53.5584C44.1795 53.5731 44.168 53.5878 44.1565 53.6019C44.1386 53.6243 44.1207 53.6466 44.1035 53.6697C44.092 53.6844 44.0805 53.6991 44.0697 53.7138C44.0512 53.7381 44.0333 53.7631 44.0148 53.7874C44.0052 53.8008 43.9957 53.8136 43.9861 53.827C43.9593 53.8641 43.9331 53.9018 43.907 53.9402C43.9019 53.9473 43.8974 53.9549 43.8923 53.962C43.8712 53.9933 43.8502 54.0253 43.8297 54.0573C43.8202 54.072 43.8106 54.0873 43.801 54.1027C43.7857 54.127 43.7704 54.1519 43.7551 54.1769C43.7449 54.1935 43.7347 54.2108 43.7251 54.2274C43.711 54.251 43.6976 54.2747 43.6836 54.2984C43.6734 54.3156 43.6638 54.3329 43.6542 54.3508C43.6408 54.3751 43.6274 54.4001 43.614 54.4244C43.6051 54.441 43.5962 54.4576 43.5872 54.4749C43.5726 54.5037 43.5579 54.5325 43.5432 54.5612C43.5368 54.574 43.5298 54.5868 43.5234 54.6003C43.5036 54.6412 43.4845 54.6821 43.466 54.7231C43.459 54.739 43.4519 54.755 43.4449 54.7717C43.4334 54.7985 43.4213 54.8247 43.4105 54.8516C43.4028 54.8702 43.3951 54.8893 43.3875 54.9079C43.3773 54.9322 43.3677 54.9571 43.3581 54.9821C43.3505 55.0013 43.3435 55.0211 43.3358 55.0403C43.3269 55.0646 43.3179 55.0895 43.309 55.1145C43.302 55.1337 43.295 55.1528 43.2886 55.1727C43.2796 55.1989 43.2713 55.2251 43.2624 55.252C43.2567 55.2699 43.2509 55.2878 43.2452 55.3057C43.2318 55.3486 43.2196 55.3908 43.2075 55.4336C43.2037 55.4483 43.1999 55.463 43.196 55.4784C43.1884 55.5085 43.1801 55.5385 43.1731 55.5686C43.1686 55.5884 43.1641 55.6076 43.1597 55.6274C43.1539 55.653 43.1482 55.6786 43.1424 55.7042C43.138 55.7246 43.1341 55.7451 43.1303 55.7662C43.1252 55.7911 43.1207 55.8167 43.1163 55.8417C43.1124 55.8621 43.1092 55.8832 43.1054 55.9037C43.1009 55.9299 43.0971 55.9555 43.0939 55.9817C43.0914 56.0016 43.0882 56.0214 43.0856 56.0412C43.0818 56.0713 43.0786 56.102 43.0754 56.1327C43.0735 56.148 43.0716 56.1634 43.0703 56.1794C43.5304 56.4876 44.0646 56.7025 44.6032 56.8484C46.2197 57.2852 48.0315 57.2807 49.6971 56.8746C50.11 56.7742 50.5134 56.6488 50.9033 56.4992C51.0258 56.4525 51.1471 56.4032 51.2664 56.3514C52.2332 55.9312 53.0705 55.3441 53.7821 54.6342C53.7821 54.6342 53.7827 54.6342 53.7821 54.6342Z" fill="#427EFC"/>
</g>
</g>
<ellipse cx="97.001" cy="48.8649" rx="6.09474" ry="6.10811" fill="white"/>
<path fill-rule="evenodd" clip-rule="evenodd" d="M84.0065 46.9549C84.4396 46.9549 84.8004 46.6004 84.8004 46.1749C84.8004 45.7494 84.4396 45.3949 84.0065 45.3949H83.5734C83.1403 45.3949 82.7793 45.7494 82.7793 46.1749C82.7793 46.6004 83.1403 46.9549 83.5734 46.9549H84.0065ZM100.392 56.386C104.506 54.5424 106.238 49.8623 104.362 45.9622C103.062 43.1966 100.319 41.5658 97.4322 41.4238H89.2757C88.5539 41.4238 88.0485 41.9912 88.0485 42.6294C88.0485 43.3384 88.6261 43.8348 89.2757 43.8348H91.3689C91.802 43.8348 92.1629 44.1893 92.1629 44.6148C92.1629 45.0403 91.802 45.3949 91.3689 45.3949H86.2441C85.811 45.3949 85.45 45.7494 85.45 46.1749C85.45 46.6004 85.811 46.9549 86.2441 46.9549H89.9254C90.3584 46.9549 90.7193 47.3095 90.7193 47.735C90.7193 48.1604 90.3584 48.5149 89.9254 48.5149H87.6154C87.1824 48.5149 86.8215 48.8694 86.8215 49.2949C86.8215 49.7204 87.1824 50.075 87.6154 50.075H89.2035C89.2757 50.926 89.4923 51.7769 89.8531 52.5568C91.6577 56.457 96.4217 58.1588 100.392 56.386ZM93.0042 51.1041C91.9562 48.8619 92.9569 46.2096 95.2393 45.18C97.5217 44.1503 100.222 45.1335 101.27 47.3757C102.318 49.6179 101.317 52.2702 99.0346 53.2998C96.7522 54.3295 94.0523 53.3463 93.0042 51.1041Z" fill="#4F5D7F"/>
<path d="M98.8434 46.693L100.287 49.1041C100.359 49.2458 100.359 49.3168 100.287 49.4586L98.8434 51.8696C98.7711 52.0113 98.6268 52.0113 98.5546 52.0113H95.7395C95.5952 52.0113 95.523 51.9404 95.4509 51.8696L94.0072 49.4586C93.9351 49.3168 93.9351 49.2458 94.0072 49.1041L95.4509 46.693C95.523 46.5513 95.6675 46.5513 95.7395 46.5513H98.5546C98.6991 46.4803 98.7711 46.5513 98.8434 46.693Z" fill="#C5CEDD"/>
<path fill-rule="evenodd" clip-rule="evenodd" d="M113.19 40.6484H127.16C127.278 40.6484 127.375 40.7484 127.375 40.8715V50.8502C127.375 50.9198 127.343 50.9844 127.291 51.0268L120.306 56.602C120.267 56.6333 120.221 56.6484 120.175 56.6484C120.128 56.6484 120.082 56.6333 120.043 56.602L113.058 51.0268C113.006 50.9844 112.975 50.9198 112.975 50.8502V40.8715C112.975 40.7484 113.071 40.6484 113.19 40.6484ZM121.214 47.9456L125.407 45.1838C125.512 45.1139 125.64 45.23 125.582 45.343L123.844 48.7655C123.803 48.8477 123.862 48.9443 123.953 48.9443H124.994C125.114 48.9443 125.163 49.0973 125.066 49.1672L120.366 52.5445C120.324 52.5753 120.266 52.5753 120.223 52.5445L115.524 49.1672C115.427 49.0973 115.477 48.9443 115.595 48.9443H116.635C116.727 48.9443 116.787 48.8477 116.745 48.7655L115.006 45.342C114.949 45.23 115.077 45.1149 115.183 45.1838L119.376 47.9456C119.449 47.9939 119.507 48.0596 119.546 48.1377L120.186 49.4241C120.231 49.5145 120.36 49.5145 120.405 49.4241L121.044 48.1377C121.083 48.0596 121.141 47.9928 121.214 47.9456Z" fill="#9C84EF"/>
<path d="M151.167 39.2871C151.167 39.2871 158.839 44.5233 155.923 51.8758C153.008 59.2283 147.209 57.1887 149.376 55.0405C151.544 52.8924 146.819 51.4346 143.795 48.6471L151.16 39.2871" fill="#2D7D46"/>
<path d="M150.7 46.4856C149.082 48.5443 146.8 49.5736 145.035 49.2028L138.878 57.0476C138.774 57.1799 138.646 57.2905 138.499 57.3731C138.353 57.4557 138.192 57.5085 138.025 57.5287C137.858 57.5489 137.689 57.536 137.527 57.4907C137.365 57.4455 137.214 57.3688 137.081 57.265C136.948 57.1617 136.836 57.0331 136.752 56.8863C136.668 56.7396 136.615 56.5778 136.594 56.4101C136.573 56.2425 136.586 56.0724 136.631 55.9096C136.676 55.7469 136.753 55.5948 136.858 55.462L142.983 47.63C142.171 46.0061 142.618 43.519 144.261 41.4412C146.301 38.8582 149.376 37.8928 151.16 39.2866C152.944 40.6804 152.726 43.9027 150.7 46.4856Z" fill="#B4E1CD"/>
<defs>
<clipPath id="clip0_14847_20696">
<rect width="48.7579" height="48.8649" fill="white" transform="translate(16.752 16.2881)"/>
</clipPath>
</defs>
</svg>
