<svg width="222" height="132" viewBox="0 0 222 132" fill="none" xmlns="http://www.w3.org/2000/svg">
<rect width="222" height="132" rx="8" fill="white"/>
<path d="M26.604 12.38C26.604 12.676 26.504 12.912 26.304 13.088C26.112 13.264 25.868 13.352 25.572 13.352C25.284 13.352 25.04 13.264 24.84 13.088C24.64 12.912 24.54 12.676 24.54 12.38C24.54 12.076 24.64 11.836 24.84 11.66C25.04 11.476 25.284 11.384 25.572 11.384C25.868 11.384 26.112 11.476 26.304 11.66C26.504 11.836 26.604 12.076 26.604 12.38ZM26.484 20.168C26.484 20.536 26.432 20.848 26.328 21.104C26.232 21.36 26.092 21.568 25.908 21.728C25.732 21.888 25.516 22.004 25.26 22.076C25.012 22.148 24.736 22.184 24.432 22.184C24.304 22.184 24.18 22.18 24.06 22.172C23.94 22.164 23.848 22.152 23.784 22.136L23.568 20.72C23.632 20.736 23.7 20.748 23.772 20.756C23.836 20.764 23.912 20.768 24 20.768C24.208 20.768 24.368 20.716 24.48 20.612C24.6 20.508 24.66 20.312 24.66 20.024V14.12H26.484V20.168ZM31.3763 20L31.2443 19.196C30.9723 19.46 30.6883 19.68 30.3923 19.856C30.1043 20.032 29.7763 20.12 29.4083 20.12C28.8563 20.12 28.4403 19.964 28.1603 19.652C27.8803 19.332 27.7403 18.884 27.7403 18.308V14.12H29.5523V17.804C29.5523 18.012 29.6003 18.184 29.6963 18.32C29.7923 18.456 29.9483 18.524 30.1643 18.524C30.3403 18.524 30.5083 18.476 30.6683 18.38C30.8363 18.284 31.0003 18.156 31.1603 17.996V14.12H32.9723V20H31.3763ZM38.8177 18.188C38.8177 18.812 38.6097 19.288 38.1937 19.616C37.7857 19.944 37.1897 20.108 36.4057 20.108C35.9337 20.108 35.4857 20.052 35.0617 19.94C34.6457 19.828 34.2857 19.692 33.9817 19.532L34.1977 18.14C34.5497 18.356 34.9217 18.528 35.3137 18.656C35.7137 18.776 36.0817 18.836 36.4177 18.836C36.6737 18.836 36.8617 18.796 36.9817 18.716C37.1017 18.628 37.1617 18.516 37.1617 18.38C37.1617 18.308 37.1457 18.244 37.1137 18.188C37.0897 18.132 37.0417 18.08 36.9697 18.032C36.8977 17.984 36.7977 17.936 36.6697 17.888C36.5417 17.84 36.3737 17.792 36.1657 17.744C35.7977 17.648 35.4817 17.548 35.2177 17.444C34.9537 17.34 34.7337 17.216 34.5577 17.072C34.3897 16.928 34.2657 16.76 34.1857 16.568C34.1057 16.368 34.0657 16.128 34.0657 15.848C34.0657 15.296 34.2617 14.852 34.6537 14.516C35.0457 14.18 35.6057 14.012 36.3337 14.012C36.7337 14.012 37.1177 14.052 37.4857 14.132C37.8537 14.204 38.1897 14.308 38.4937 14.444L38.2657 15.836C37.9457 15.66 37.6137 15.524 37.2697 15.428C36.9337 15.332 36.6217 15.284 36.3337 15.284C36.1257 15.284 35.9697 15.32 35.8657 15.392C35.7617 15.464 35.7097 15.556 35.7097 15.668C35.7097 15.732 35.7217 15.788 35.7457 15.836C35.7777 15.884 35.8297 15.932 35.9017 15.98C35.9737 16.028 36.0737 16.076 36.2017 16.124C36.3297 16.172 36.4977 16.224 36.7057 16.28C37.0977 16.384 37.4257 16.492 37.6897 16.604C37.9617 16.708 38.1817 16.832 38.3497 16.976C38.5177 17.12 38.6377 17.292 38.7097 17.492C38.7817 17.684 38.8177 17.916 38.8177 18.188ZM43.2335 19.964C43.0895 20.004 42.9375 20.032 42.7775 20.048C42.6255 20.072 42.4295 20.084 42.1895 20.084C41.8775 20.084 41.5895 20.052 41.3255 19.988C41.0615 19.924 40.8335 19.82 40.6415 19.676C40.4575 19.524 40.3135 19.324 40.2095 19.076C40.1055 18.82 40.0535 18.504 40.0535 18.128V15.596H39.2735V14.12H40.0535V12.368L41.8535 12.08V14.12H42.9695L43.1975 15.596H41.8535V17.84C41.8535 18.304 42.0935 18.536 42.5735 18.536C42.7255 18.536 42.8735 18.516 43.0175 18.476L43.2335 19.964ZM43.8514 17.372V15.644H47.1274V17.372H43.8514ZM52.6536 19.592C52.3736 19.768 52.0816 19.9 51.7776 19.988C51.4736 20.068 51.1416 20.108 50.7816 20.108C50.3576 20.108 49.9696 20.04 49.6176 19.904C49.2736 19.768 48.9736 19.572 48.7176 19.316C48.4696 19.06 48.2776 18.748 48.1416 18.38C48.0056 18.004 47.9376 17.58 47.9376 17.108C47.9376 16.596 48.0136 16.148 48.1656 15.764C48.3256 15.372 48.5376 15.048 48.8016 14.792C49.0656 14.536 49.3736 14.344 49.7256 14.216C50.0856 14.088 50.4656 14.024 50.8656 14.024C51.2256 14.024 51.5456 14.064 51.8256 14.144C52.1136 14.224 52.3736 14.332 52.6056 14.468L52.3656 16.016C52.1336 15.872 51.9136 15.764 51.7056 15.692C51.5056 15.62 51.2856 15.584 51.0456 15.584C50.6696 15.584 50.3616 15.708 50.1216 15.956C49.8896 16.196 49.7736 16.564 49.7736 17.06C49.7736 17.564 49.9016 17.94 50.1576 18.188C50.4136 18.428 50.7256 18.548 51.0936 18.548C51.3096 18.548 51.5256 18.516 51.7416 18.452C51.9576 18.38 52.1896 18.264 52.4376 18.104L52.6536 19.592ZM57.0593 20V16.316C57.0593 16.108 57.0113 15.94 56.9153 15.812C56.8273 15.676 56.6753 15.608 56.4593 15.608C56.2833 15.608 56.1113 15.656 55.9433 15.752C55.7833 15.848 55.6233 15.976 55.4633 16.136V20H53.6513V11.624L55.4633 11.336V14.852C55.7113 14.612 55.9753 14.412 56.2553 14.252C56.5353 14.084 56.8553 14 57.2153 14C57.7673 14 58.1833 14.16 58.4633 14.48C58.7433 14.8 58.8833 15.248 58.8833 15.824V20H57.0593ZM62.0767 12.38C62.0767 12.676 61.9767 12.912 61.7767 13.088C61.5847 13.264 61.3407 13.352 61.0447 13.352C60.7567 13.352 60.5127 13.264 60.3127 13.088C60.1127 12.912 60.0127 12.676 60.0127 12.38C60.0127 12.076 60.1127 11.836 60.3127 11.66C60.5127 11.476 60.7567 11.384 61.0447 11.384C61.3407 11.384 61.5847 11.476 61.7767 11.66C61.9767 11.836 62.0767 12.076 62.0767 12.38ZM60.1327 20V14.12H61.9567V20H60.1327ZM63.2733 20V11.624L65.0973 11.336V20H63.2733ZM66.4139 20V11.624L68.2379 11.336V20H66.4139ZM71.4985 12.38C71.4985 12.676 71.3985 12.912 71.1985 13.088C71.0065 13.264 70.7625 13.352 70.4665 13.352C70.1785 13.352 69.9345 13.264 69.7345 13.088C69.5345 12.912 69.4345 12.676 69.4345 12.38C69.4345 12.076 69.5345 11.836 69.7345 11.66C69.9345 11.476 70.1785 11.384 70.4665 11.384C70.7625 11.384 71.0065 11.476 71.1985 11.66C71.3985 11.836 71.4985 12.076 71.4985 12.38ZM69.5545 20V14.12H71.3785V20H69.5545ZM76.0672 20V16.316C76.0672 16.108 76.0192 15.94 75.9232 15.812C75.8352 15.676 75.6832 15.608 75.4672 15.608C75.2912 15.608 75.1192 15.656 74.9512 15.752C74.7912 15.848 74.6312 15.976 74.4712 16.136V20H72.6592V14.12H74.2552L74.3872 14.924C74.6512 14.66 74.9272 14.44 75.2152 14.264C75.5112 14.088 75.8472 14 76.2232 14C76.7752 14 77.1912 14.16 77.4712 14.48C77.7512 14.8 77.8912 15.248 77.8912 15.824V20H76.0672Z" fill="#060607"/>
<path fill-rule="evenodd" clip-rule="evenodd" d="M13.1927 11.9143C12.9872 11.8288 12.7475 11.8759 12.5891 12.0298L10.2132 14.5136H8.55223C8.24829 14.5136 8 14.753 8 15.0394V18.2115C8 18.498 8.24829 18.7374 8.55223 18.7374H10.2132L12.5891 21.2212C12.7475 21.3751 12.9872 21.4221 13.1927 21.3366C13.3982 21.2597 13.5352 21.0673 13.5352 20.8493V12.3974C13.5352 12.1922 13.4024 11.9913 13.1927 11.9143ZM14.6439 12.9318V13.9792C16.1679 13.9792 17.4136 15.1677 17.4136 16.6169C17.4136 18.0747 16.1722 19.2632 14.6439 19.2632V20.3106C16.7801 20.3106 18.5181 18.6604 18.5181 16.6127C18.5181 14.582 16.7801 12.9318 14.6439 12.9318ZM14.6439 15.0394C15.56 15.0394 16.3049 15.7491 16.3049 16.6212C16.3049 17.5019 15.56 18.2115 14.6439 18.2115V17.1556C14.9478 17.1556 15.1961 16.9162 15.1961 16.6212C15.1961 16.3348 14.9478 16.0954 14.6439 16.0954V15.0394Z" fill="#B9BBBE"/>
<g clip-path="url(#clip0_14847_11842)">
<path d="M146 38H8V123.981H146V38Z" fill="#A8BFFF"/>
<path d="M87.8984 98.235C92.6578 84.1613 106.047 81.9245 112.986 85.4381C112.023 77.9164 121.699 62.3041 140.034 71.8299H146V121.395H88.5531L87.8984 98.235Z" fill="#C2D2FF"/>
<path d="M27.5254 99.2402C26.2224 95.5715 20.4521 86.3787 8 87.9431V114.975H55.9245C55.8026 101.325 40.6964 93.9036 27.5254 99.2402Z" fill="#C2D2FF"/>
<path d="M8 123.981H146V92.4784H122.251V117.452H113.586V109.6H93.7622L57.8918 92.8631H42.0828V87.3066H34.2585V107.098L30.2501 105.805L24.7847 111.708H8V123.981Z" fill="#648AE8"/>
<path d="M24.7879 115.677H8V117.451H24.7879V115.677Z" fill="#7B6EB3"/>
<path d="M30.9824 124L37.1956 117.742H50.7228V123.981L30.9824 124Z" fill="#6273E3"/>
<path d="M140.034 121.395H104.629V124H140.034V121.395Z" fill="#6273E3"/>
<path d="M86.9031 57.6142C87.9293 57.6142 88.7613 56.7762 88.7613 55.7426C88.7613 54.709 87.9293 53.8711 86.9031 53.8711C85.8769 53.8711 85.0449 54.709 85.0449 55.7426C85.0449 56.7762 85.8769 57.6142 86.9031 57.6142Z" fill="#7D2952"/>
<path d="M74.2117 61.9384C75.2379 61.9384 76.0699 61.1005 76.0699 60.0668C76.0699 59.0332 75.2379 58.1953 74.2117 58.1953C73.1855 58.1953 72.3535 59.0332 72.3535 60.0668C72.3535 61.1005 73.1855 61.9384 74.2117 61.9384Z" fill="#7D2952"/>
<path d="M57.8758 66.3349C58.902 66.3349 59.734 65.4969 59.734 64.4633C59.734 63.4297 58.902 62.5918 57.8758 62.5918C56.8495 62.5918 56.0176 63.4297 56.0176 64.4633C56.0176 65.4969 56.8495 66.3349 57.8758 66.3349Z" fill="#7D2952"/>
<path d="M46.1746 68.5331C47.2008 68.5331 48.0328 67.6952 48.0328 66.6616C48.0328 65.628 47.2008 64.79 46.1746 64.79C45.1483 64.79 44.3164 65.628 44.3164 66.6616C44.3164 67.6952 45.1483 68.5331 46.1746 68.5331Z" fill="#7D2952"/>
<path d="M33.4168 69.9452C34.443 69.9452 35.275 69.1073 35.275 68.0737C35.275 67.0401 34.443 66.2021 33.4168 66.2021C32.3905 66.2021 31.5586 67.0401 31.5586 68.0737C31.5586 69.1073 32.3905 69.9452 33.4168 69.9452Z" fill="#7D2952"/>
<path d="M21.3211 69.6122C22.3473 69.6122 23.1793 68.7743 23.1793 67.7407C23.1793 66.7071 22.3473 65.8691 21.3211 65.8691C20.2948 65.8691 19.4629 66.7071 19.4629 67.7407C19.4629 68.7743 20.2948 69.6122 21.3211 69.6122Z" fill="#7D2952"/>
<path d="M136.333 98.1181C137.359 98.1181 138.191 97.2802 138.191 96.2465C138.191 95.2129 137.359 94.375 136.333 94.375C135.307 94.375 134.475 95.2129 134.475 96.2465C134.475 97.2802 135.307 98.1181 136.333 98.1181Z" fill="#7D2952"/>
<path d="M143.433 38H8V62.9796C35.2534 70.2783 80.4436 59.2075 105.402 43.4562C113.878 85.1794 146 98.1476 146 98.1476V40.5859C146 39.1572 144.851 38 143.433 38Z" fill="#7D2952"/>
<path d="M8 38V43.0651C39.9614 61.0758 82.0418 51.4143 99.6994 38H8Z" fill="#70254A"/>
<path d="M146.001 38H118.594C119.662 62.9667 131.052 82.4416 146.001 92.4781V38Z" fill="#70254A"/>
<path d="M101.563 91.6638C99.9553 95.4779 97.0605 102.764 97.0605 102.764L104.403 107.376C107.356 100.427 108.357 96.7386 108.839 94.8088C109.317 92.8759 109.625 90.9882 107.138 89.4528C104.651 87.9175 103.258 87.6492 101.563 91.6638Z" fill="#F073AB"/>
<path d="M108.003 103.336L103.597 113.534C102.136 116.919 98.205 118.438 94.8705 116.906L78.4453 109.368L86.6355 96.3867L96.6453 102.001L98.1087 97.5924C103.269 99.6773 106.036 101.5 108.003 103.336Z" fill="#F7E5BC"/>
<path d="M88.8965 98.3896C95.5333 99.4854 96.127 100.879 97.905 104.36L90.7932 103.565L88.8965 98.3896Z" fill="#F7E5BC"/>
<path d="M57.7631 43.0193C55.0352 43.8727 53.437 46.7171 54.1174 49.5099L60.6964 76.5518L72.4585 74.1016L64.5476 46.6945C63.7068 43.7757 60.6483 42.1175 57.7631 43.0193Z" fill="#D6569B"/>
<path d="M64.3371 70.2234L68.9681 70.023L64.045 53.7255C63.7498 52.7429 62.6875 52.2224 61.7343 52.5877C60.9127 52.9045 60.4506 53.7869 60.656 54.6499L64.3371 70.2234Z" fill="#E374B0"/>
<path d="M61.8287 70.0232C59.0526 59.4178 56.3504 49.3781 55.1277 44.8496C54.1296 46.1232 53.7059 47.8266 54.1167 49.5139L59.1361 70.1395L61.8287 70.0232Z" fill="#F06EA8"/>
<path d="M85.0327 42.8881C87.7702 43.7123 89.3941 46.5374 88.7458 49.3398L82.446 76.4496L70.6582 74.1255L78.2835 46.6376C79.0987 43.7058 82.1379 42.0153 85.0327 42.8881Z" fill="#D6569B"/>
<path d="M72.2031 68.5623L73.2943 70.6989C73.2943 70.6989 77.4792 52.1032 79.4433 44.5039C78.9202 45.1019 78.5126 45.8195 78.2847 46.6373L72.2031 68.5623Z" fill="#F06EA8"/>
<path d="M80.5744 70.1584L75.9434 70.0065L80.6963 53.6573C80.982 52.6714 82.0378 52.1381 82.9942 52.4969C83.819 52.8072 84.2908 53.6831 84.095 54.5462L80.5744 70.1584Z" fill="#E374B0"/>
<path d="M87.6735 85.9841L53.6934 87.4484C48.8153 87.6585 44.6945 83.8475 44.4859 78.9344L44.4731 78.6661C44.2645 73.7529 48.0482 69.6026 52.9264 69.3925L86.9065 67.9282C91.7846 67.7181 95.9054 71.5291 96.114 76.4422L96.1268 76.7105C96.3322 81.6205 92.5484 85.774 87.6735 85.9841Z" fill="#F06EA8"/>
<path d="M57.7504 118.576C55.7413 116.714 53.8061 114.953 53.3857 114.268C52.9653 113.582 53.6681 113.363 54.6791 113.01C55.69 112.658 56.5565 113.883 57.5706 116.003C58.5848 118.127 59.5732 120.267 57.7504 118.576Z" fill="#F2C591"/>
<path d="M93.7624 109.6L91.8208 115.732L91.5769 116.508L89.2052 124H45.0484C44.6023 122.378 45.1319 122.051 46.2615 120.215C47.2211 118.654 46.7975 118.845 46.974 114.378C47.0959 111.262 48.2 108.343 52.2308 104.719C53.444 103.646 53.7456 103.223 54.9973 102.059C55.1192 101.946 55.2412 101.833 55.3631 101.723C55.4337 101.662 55.5043 101.597 55.5749 101.532C55.6487 101.464 55.7258 101.397 55.8028 101.325L85.9766 96.5254L85.9799 96.5286L92.0551 106.733L93.7624 109.6Z" fill="#F7E5BC"/>
<path d="M90.7974 109.623C92.662 104.632 92.7358 104.199 93.3841 105.644C94.0324 107.088 94.3886 107.017 91.3013 111.067C88.2107 115.121 89.9887 111.785 90.7974 109.623Z" fill="#E8C282"/>
<path d="M91.8204 115.731C91.6407 118.682 91.3679 121.462 91.0598 123.999H58.5945C58.6362 122.677 58.6844 121.032 58.7389 119.021C58.7454 118.818 58.7518 118.611 58.7582 118.401C58.771 117.971 58.7774 117.547 58.7774 117.137C58.7774 116.717 58.771 116.303 58.7582 115.899C58.5592 109.997 56.8647 105.95 52.2305 104.718C53.0777 103.852 53.9924 102.966 54.9969 102.058C55.1188 101.945 55.2408 101.832 55.3627 101.722C55.5072 101.592 55.6548 101.46 55.8056 101.327L85.9795 96.5273C88.3576 97.4227 89.9398 98.0336 91.7434 99.8761C91.9295 102.194 92.0258 104.489 92.0547 106.732C92.0932 109.848 92.0001 112.87 91.8204 115.731Z" fill="#1F3A70"/>
<path d="M85.9789 96.5273L85.5584 96.5952C85.321 96.8538 85.1669 97.0381 85.1669 97.0381C83.6264 103.512 80.3594 110.294 80.3594 110.294C80.3594 110.294 80.5295 111.962 82.7631 108.742C84.6759 105.982 86.9609 101.783 87.898 98.234C87.2626 97.6587 86.6239 97.0898 85.9789 96.5273Z" fill="#172E5C"/>
<path d="M59.1855 101.348C65.0136 108.43 67.0098 110.03 69.1793 111.485C71.1659 112.816 69.5355 110.767 67.2762 107.412C65.0168 104.057 62.3981 99.8643 62.3981 99.8643L59.1855 101.348Z" fill="#172E5C"/>
<path d="M91.7073 116.462C91.5469 119.103 91.3158 121.63 91.043 124H58.5938C58.6355 122.678 58.6836 121.032 58.7382 119.022C58.7446 118.818 58.751 118.611 58.7574 118.401C58.7703 117.971 58.7767 117.548 58.7767 117.137C58.7767 116.821 58.7703 116.51 58.7606 116.2C58.7574 116.1 58.7574 116 58.7542 115.899H58.7574C65.7762 117.606 75.0093 120.693 77.1082 121.417L91.5757 116.507L91.7073 116.462Z" fill="#172E5C"/>
<path d="M61.5031 105.456C61.5031 105.456 61.211 106.054 59.953 106.911C58.695 107.767 58.3612 108.168 58.2136 107.877C57.193 105.838 55.5819 104.431 53.1621 103.788C53.9965 102.928 54.9176 102.056 55.9093 101.138C60.4023 103.064 61.5031 105.456 61.5031 105.456Z" fill="#244AB0"/>
<path d="M83.3199 96.5254L77.2383 119.507L61.625 97.2042L83.3199 96.5254Z" fill="#D4BF9B"/>
<path d="M80.4662 107.301L70.0713 104.557C68.1971 104.063 69.1438 104.719 70.0713 105.882C70.8512 106.862 76.538 113.423 78.3064 115.466L80.4662 107.301Z" fill="#CCAC89"/>
<path d="M65.0156 100.889C65.0156 100.889 77.6571 102.612 79.2746 102.809C80.892 103.006 80.9113 101.27 81.7393 97.8604L66.386 98.9852L65.0156 100.889Z" fill="#CF518A"/>
<path d="M89.686 100.268L54.7335 101.774C50.1249 101.971 46.232 98.3704 46.0331 93.732C45.8373 89.0903 49.4125 85.1695 54.0178 84.9691L88.9703 83.4628C93.5789 83.2656 97.4718 86.8665 97.6707 91.5049C97.8697 96.1466 94.2946 100.071 89.686 100.268Z" fill="#F06EA8"/>
<path d="M89.494 100.278C93.9741 100.084 97.6552 96.4408 97.6809 91.9252C97.7002 88.4213 95.6109 85.4572 92.6583 84.1611C94.8728 82.4544 96.2528 79.7295 96.1244 76.7105L96.1115 76.4422C95.9061 71.5323 91.7822 67.7181 86.9073 67.9282L56.5633 69.2341C53.8354 74.4931 54.2109 80.1497 56.2199 84.2193C56.8297 85.4572 56.881 86.8892 56.3964 88.1821C53.4663 96.0173 57.3303 101.661 57.3271 101.661L89.494 100.278Z" fill="#E05FA3"/>
<path d="M72.3305 124H52.5805C52.5612 123.615 52.5644 123.26 52.5933 122.93C52.5965 122.904 52.5998 122.882 52.5998 122.856C52.6126 122.746 52.6254 122.642 52.6415 122.539C52.6704 122.342 52.7121 122.154 52.7602 121.976C52.7923 121.867 52.8276 121.757 52.8661 121.653C52.9271 121.498 52.9945 121.349 53.0683 121.21C53.1453 121.068 53.2288 120.936 53.3186 120.813C53.3796 120.729 53.447 120.648 53.5144 120.57C53.5497 120.532 53.585 120.493 53.6203 120.457C54.0857 119.969 54.7018 119.597 55.4528 119.277C56.3546 118.89 57.3559 118.796 58.3251 118.954C58.4631 118.977 58.6012 118.999 58.7392 119.022C62.5807 119.646 65.9023 120.16 68.7105 120.894C68.8485 120.929 68.9832 120.971 69.1116 121.026C69.5031 121.168 69.8498 121.366 70.1707 121.608C70.2349 121.656 70.2958 121.705 70.36 121.757C70.421 121.808 70.482 121.86 70.543 121.915C70.6039 121.967 70.6649 122.022 70.7227 122.08C70.7837 122.138 70.8414 122.196 70.8992 122.254C70.957 122.316 71.0147 122.374 71.0725 122.439C71.1303 122.5 71.1848 122.562 71.2426 122.626C71.525 122.949 71.8042 123.299 72.0898 123.667C72.1797 123.783 72.2599 123.893 72.3305 124Z" fill="#FF8FB1"/>
<path d="M64.9798 84.3831C65.7565 83.8702 65.804 82.56 65.0858 81.4567C64.3676 80.3534 63.1558 79.8748 62.379 80.3877C61.6023 80.9006 61.5549 82.2108 62.273 83.3141C62.9912 84.4174 64.2031 84.896 64.9798 84.3831Z" fill="#1B1926"/>
<path d="M80.2017 82.065C80.5334 80.8702 80.1327 79.713 79.3065 79.4803C78.4804 79.2476 77.5418 80.0276 77.21 81.2224C76.8783 82.4172 77.2791 83.5744 78.1052 83.8071C78.9313 84.0397 79.87 83.2598 80.2017 82.065Z" fill="#1B1926"/>
<path d="M49.8948 85.1762C47.9949 84.436 47.5167 84.2388 46.1816 83.8057C47.2407 85.2732 48.5629 86.1233 49.4712 86.5661C49.3364 86.6663 49.2144 86.7794 49.0861 86.8861C50.1195 86.9572 50.787 87.0606 51.7241 87.0251C53.5502 86.9604 53.8583 86.718 49.8948 85.1762Z" fill="#E05FA3"/>
<path d="M50.5034 74.6843C51.912 73.392 52.6505 71.8983 52.1528 71.3479C51.655 70.7976 50.1096 71.399 48.701 72.6913C47.2923 73.9836 46.5539 75.4774 47.0516 76.0277C47.5493 76.5781 49.0947 75.9766 50.5034 74.6843Z" fill="#F792C0"/>
<path d="M48.2604 119.452C50.9433 118.347 51.8708 117.907 52.7855 117.578C53.7001 117.248 52.9138 116.908 50.8599 116.007C48.8059 115.105 48.3181 114.765 48.1705 116.533C48.0229 118.302 47.3778 119.818 48.2604 119.452Z" fill="#FAD596"/>
<path d="M53.5627 118.53C48.9669 119.788 48.922 120.415 48.8033 121.22C48.6171 122.49 48.7904 122.755 50.5042 121.462C52.218 120.169 54.1468 119.073 55.0229 118.686C55.899 118.301 55.4465 118.016 53.5627 118.53Z" fill="#F7D08D"/>
<path d="M59.5352 118.495C60.4145 113.828 60.299 112.561 60.7098 112.483C61.1206 112.406 61.8234 113.531 62.5294 115.008C63.2355 116.485 59.5352 118.495 59.5352 118.495Z" fill="#172E5C"/>
<path d="M58.3245 118.954C56.8547 119.138 54.0273 119.177 53.7063 124H52.5831C52.5414 123.202 52.6023 122.539 52.7596 121.976C52.7917 121.867 52.827 121.757 52.8655 121.653C52.9265 121.498 52.9939 121.349 53.0677 121.21C53.1447 121.068 53.2282 120.936 53.318 120.813C53.379 120.729 53.4464 120.648 53.5138 120.57C53.5491 120.532 53.5844 120.493 53.6197 120.457C54.085 119.969 54.7012 119.597 55.4522 119.277C56.354 118.89 57.3553 118.796 58.3245 118.954Z" fill="#F278B0"/>
<path d="M69.1948 124C69.8527 122.539 70.0677 121.569 69.1113 121.026C69.7339 121.259 70.2506 121.628 70.7224 122.08C70.7834 122.138 70.8411 122.196 70.8989 122.255C70.9567 122.316 71.0144 122.374 71.0722 122.439C71.13 122.5 71.1845 122.562 71.2423 122.626C71.5247 122.95 71.8039 123.299 72.0896 123.667C72.1794 123.784 72.2596 123.893 72.3303 124H69.1948Z" fill="#F278B0"/>
<path d="M68.3436 88.3369C70.465 91.954 73.5683 92.775 75.6608 88.1107C75.7443 87.9264 75.6063 87.7163 75.4073 87.7228L68.5683 87.9232C68.3596 87.9297 68.2377 88.1592 68.3436 88.3369Z" fill="#751B40"/>
<path d="M62.0664 85.1991C63.5459 82.3417 66.4118 83.5441 66.4118 83.5441L64.9965 86.7215L62.0664 85.1991Z" fill="#E05FA3"/>
<path d="M76.5059 82.8751C79.468 81.663 80.8833 84.446 80.8833 84.446L77.7607 85.9458L76.5059 82.8751Z" fill="#E05FA3"/>
<path d="M72.6068 87.8037L68.5598 87.9201C68.3544 87.9265 68.2357 88.1528 68.3384 88.3306C70.1581 91.4369 72.703 92.4842 74.7121 89.7722C74.3558 89.1516 73.7236 88.4179 72.6068 87.8037Z" fill="#9C2455"/>
<path d="M96.6667 103.727C96.6667 103.727 98.7656 108.808 99.4652 110.873C100.165 112.942 99.1796 112.671 98.066 112.493C96.9524 112.312 96.8304 110.861 96.6667 108.171C96.5063 105.479 96.0281 102.411 96.6667 103.727Z" fill="#FAD596"/>
<path d="M98.8719 102.363C99.2089 104.57 100.335 106.6 100.563 107.153C100.791 107.706 102.437 107.337 103.901 106.969C105.364 106.6 104.45 106.093 102.665 104.619C100.884 103.145 98.5991 100.565 98.8719 102.363Z" fill="#FAD596"/>
<path d="M33.8543 114.287L31.7105 113.327C31.672 113.311 31.672 113.256 31.7105 113.237L33.8543 112.277C33.864 112.27 33.8736 112.264 33.88 112.251L34.8332 110.092C34.8492 110.053 34.9038 110.053 34.923 110.092L35.8762 112.251C35.8826 112.261 35.889 112.27 35.9019 112.277L38.0457 113.237C38.0842 113.253 38.0842 113.308 38.0457 113.327L35.9019 114.287C35.8922 114.294 35.8826 114.3 35.8762 114.313L34.923 116.472C34.907 116.511 34.8524 116.511 34.8332 116.472L33.88 114.313C33.8736 114.3 33.8672 114.29 33.8543 114.287Z" fill="#3366E0"/>
<path d="M102.774 70.6311L101.766 70.1786C101.747 70.1689 101.747 70.1463 101.766 70.1366L102.774 69.684C102.781 69.6808 102.784 69.6776 102.787 69.6711L103.236 68.6561C103.243 68.6368 103.268 68.6368 103.278 68.6561L103.727 69.6711C103.73 69.6776 103.734 69.6808 103.74 69.684L104.748 70.1366C104.767 70.1463 104.767 70.1689 104.748 70.1786L103.74 70.6311C103.734 70.6344 103.73 70.6376 103.727 70.644L103.278 71.659C103.272 71.6784 103.246 71.6784 103.236 71.659L102.787 70.644C102.784 70.6376 102.781 70.6311 102.774 70.6311Z" fill="#755F5F"/>
<path d="M41.9128 58.0217L40.9051 57.5692C40.8858 57.5595 40.8858 57.5369 40.9051 57.5272L41.9128 57.0747C41.9192 57.0714 41.9224 57.0682 41.9256 57.0617L42.3749 56.0468C42.3846 56.0274 42.407 56.0274 42.4166 56.0468L42.866 57.0617C42.8692 57.0682 42.8724 57.0714 42.8788 57.0747L43.8865 57.5272C43.9058 57.5369 43.9058 57.5595 43.8865 57.5692L42.8788 58.0217C42.8724 58.025 42.8692 58.0282 42.866 58.0347L42.4166 59.0496C42.4102 59.069 42.3846 59.069 42.3749 59.0496L41.9256 58.0347C41.9224 58.0282 41.9192 58.0217 41.9128 58.0217Z" fill="#F7E5BC"/>
<path d="M136.337 38H131.33V124H136.337V38Z" fill="#783837"/>
<path d="M20.9714 38H15.9648V124H20.9714V38Z" fill="#783837"/>
<path d="M136.337 38H131.33V103.513H136.337V38Z" fill="#571E2F"/>
<path d="M20.9714 38H15.9648V77.0953H20.9714V38Z" fill="#571E2F"/>
<path d="M105.028 54.7724C106.054 54.7724 106.886 53.9345 106.886 52.9008C106.886 51.8672 106.054 51.0293 105.028 51.0293C104.002 51.0293 103.17 51.8672 103.17 52.9008C103.17 53.9345 104.002 54.7724 105.028 54.7724Z" fill="#7D2952"/>
<path d="M94.3308 54.4169C95.3571 54.4169 96.189 53.579 96.189 52.5454C96.189 51.5117 95.3571 50.6738 94.3308 50.6738C93.3046 50.6738 92.4727 51.5117 92.4727 52.5454C92.4727 53.579 93.3046 54.4169 94.3308 54.4169Z" fill="#7D2952"/>
<path d="M8 64.4629V68.2027C9.02698 68.2027 9.85819 67.3655 9.85819 66.3312C9.85819 65.2968 9.02698 64.4629 8 64.4629Z" fill="#7D2952"/>
<path d="M107.261 62.7597C108.287 62.7597 109.119 61.9218 109.119 60.8881C109.119 59.8545 108.287 59.0166 107.261 59.0166C106.234 59.0166 105.402 59.8545 105.402 60.8881C105.402 61.9218 106.234 62.7597 107.261 62.7597Z" fill="#7D2952"/>
<path d="M118.593 81.5595C119.619 81.5595 120.451 80.7216 120.451 79.6879C120.451 78.6543 119.619 77.8164 118.593 77.8164C117.566 77.8164 116.734 78.6543 116.734 79.6879C116.734 80.7216 117.566 81.5595 118.593 81.5595Z" fill="#7D2952"/>
<path d="M125.21 89.1786C126.236 89.1786 127.068 88.3407 127.068 87.3071C127.068 86.2735 126.236 85.4355 125.21 85.4355C124.184 85.4355 123.352 86.2735 123.352 87.3071C123.352 88.3407 124.184 89.1786 125.21 89.1786Z" fill="#7D2952"/>
<path d="M111.897 71.4647C112.923 71.4647 113.755 70.6268 113.755 69.5932C113.755 68.5596 112.923 67.7217 111.897 67.7217C110.871 67.7217 110.039 68.5596 110.039 69.5932C110.039 70.6268 110.871 71.4647 111.897 71.4647Z" fill="#7D2952"/>
<path d="M127.697 98.4189H126.426V100.956H127.697V98.4189Z" fill="#5177D6"/>
<path d="M141.304 106.742H140.033V109.28H141.304V106.742Z" fill="#5177D6"/>
<path d="M130.269 108.775H128.998V111.313H130.269V108.775Z" fill="#5177D6"/>
<path d="M127.062 115.677H125.791V118.214H127.062V115.677Z" fill="#5177D6"/>
<path d="M108.509 116.943H107.238V119.481H108.509V116.943Z" fill="#5177D6"/>
<path d="M44.9525 102.143H43.6816V104.68H44.9525V102.143Z" fill="#5177D6"/>
<path d="M27.4096 116.943H26.1387V119.481H27.4096V116.943Z" fill="#5177D6"/>
<path d="M42.6791 86.1367H33.6289V87.3101H42.6791V86.1367Z" fill="#8F80CF"/>
<path d="M119.674 115.677H113.586V117.451H119.674V115.677Z" fill="#8F80CF"/>
</g>
<g clip-path="url(#clip1_14847_11842)">
<path d="M214 43H150V80H214V43Z" fill="#5E87F9"/>
<path d="M150 61.5004C155.946 59.902 162.961 62.0015 165.094 66.7147C171.479 64.7116 178.865 68.4284 182.341 72.7895H150V61.5004Z" fill="#6E94FF"/>
<path d="M214 54.7545C210.114 54.1102 205.529 54.9562 204.135 56.8584C199.961 56.0505 195.135 57.5495 192.863 59.3085H214V54.7545Z" fill="#7A9DFF"/>
<path d="M198.776 74.9038C197.577 72.4157 197.613 72.3105 195.496 71.5625L198.311 75.5233L198.776 74.9038Z" fill="#FF707E"/>
<path d="M166.125 52.8764C166.165 52.9158 166.209 52.9567 166.254 52.9962C166.346 53.0838 166.443 53.1671 166.537 53.2519C166.574 53.2811 166.607 53.3132 166.644 53.3424C166.726 53.4111 166.8 53.4769 166.867 53.5353C171.827 57.7211 178.206 59.4977 182.516 60.7673C188.081 62.408 192.714 62.8828 196.188 62.8974C200.691 62.8536 201.601 60.5423 199.702 57.7985L198.622 56.5041L193.119 49.9295C193.03 49.82 192.938 49.7148 192.848 49.6081C189.226 45.3785 185.96 43.485 179.102 44.9446L168.67 47.1624C168.659 47.1653 168.647 47.1653 168.637 47.1697C164.992 47.9572 163.283 50.1224 166.125 52.8764Z" fill="url(#paint0_linear_14847_11842)"/>
<path d="M178.135 45.7556C173.966 46.7651 166.823 48.8106 166.823 48.8106L165.094 49.0531C165.697 48.1852 166.962 47.5307 168.638 47.1684C168.648 47.1655 168.66 47.1655 168.67 47.1611L179.102 44.9433C182.34 44.2551 184.772 44.3209 186.824 45.0192C183.646 44.2756 181.805 44.8673 178.135 45.7556Z" fill="#FFFDC4"/>
<path d="M182.213 61.3009C178.55 60.2227 170.721 57.1765 167.684 54.1946C168.395 54.8929 167.693 53.635 169.063 54.291C176.267 57.7375 192.632 62.3981 196.187 62.8992C192.7 63.0994 185.94 62.3996 182.213 61.3009Z" fill="#FFFDC4"/>
<path d="M165.281 48.812C168.499 47.8696 175.748 48.7214 183.779 51.1905C192.163 53.7677 198.823 57.3151 200.605 59.9288C200.815 61.6411 199.446 62.8654 196.186 62.8976C192.712 62.883 188.08 62.4096 182.514 60.7674C178.205 59.4978 171.826 57.7227 166.865 53.5354C166.798 53.477 166.724 53.4112 166.642 53.3426C166.605 53.3134 166.572 53.2812 166.535 53.252C166.442 53.1687 166.346 53.084 166.252 52.9963C166.207 52.9569 166.163 52.916 166.122 52.8765C164.464 51.2694 164.359 49.8625 165.281 48.812Z" fill="url(#paint1_linear_14847_11842)"/>
<path d="M196.246 60.7524C196.714 59.284 190.768 56.1488 182.966 53.7498C175.163 51.3508 168.458 50.5964 167.989 52.0648C167.52 53.5332 173.466 56.6684 181.269 59.0674C189.072 61.4665 195.777 62.2209 196.246 60.7524Z" fill="#6B3143"/>
<path d="M168.057 52.599C167.961 52.4018 167.935 52.2236 167.987 52.0629C168.013 51.9796 168.057 51.9065 168.124 51.8364L176.182 55.2274L170.144 51.3221C170.39 51.3119 170.649 51.3119 170.928 51.3221L176.526 54.9922C176.752 54.9498 177.095 54.9527 177.525 54.9936L174.459 51.6976C174.831 51.756 175.216 51.8247 175.611 51.8978L177.967 55.0448C178.443 55.1105 178.995 55.2113 179.606 55.3487L177.855 52.3682C178.198 52.4486 178.543 52.5289 178.896 52.6166L180.046 55.4495C180.399 55.5342 180.768 55.6292 181.148 55.7344L180.348 52.9921C180.761 53.1016 181.18 53.2185 181.605 53.3427L181.984 55.9506H181.896C181.996 55.9798 182.094 56.009 182.195 56.0397L183.044 53.7693C183.364 53.8672 183.675 53.9665 183.987 54.0688L182.517 56.1405C182.768 56.2194 183.016 56.2998 183.255 56.3816L185.37 54.5276C185.75 54.6591 186.125 54.7906 186.488 54.922L183.877 56.5978C184.147 56.6942 184.403 56.7907 184.651 56.8871L187.884 55.4465C188.353 55.6292 188.81 55.8118 189.247 55.993L185.245 57.1282C185.589 57.2713 185.909 57.4131 186.19 57.5504L191.849 57.1647C192.336 57.4014 192.79 57.6395 193.209 57.8718H186.809C186.979 57.9682 187.125 58.0603 187.248 58.1465L195.045 59.0348C195.435 59.3299 195.74 59.6104 195.948 59.8661L187.628 58.484C187.685 58.5629 187.705 58.6345 187.686 58.6944C187.668 58.7484 187.615 58.7908 187.537 58.8229L196.156 60.9195C196.015 61.105 195.747 61.2482 195.365 61.3461H195.362L186.719 58.896C186.342 58.8785 185.873 58.82 185.328 58.725L192.217 61.4294C191.882 61.4045 191.529 61.3636 191.158 61.3198H191.151L184.446 58.5512C184.367 58.5337 184.285 58.5147 184.203 58.4957L188.52 60.9005C187.862 60.7734 187.179 60.6302 186.466 60.4666H186.463L183.353 58.2911C182.816 58.1538 182.251 57.9945 181.669 57.8148C180.96 57.5971 180.292 57.3692 179.677 57.1399L177.026 57.6249C176.142 57.2962 175.306 56.9616 174.523 56.63L178.577 56.7059C178.571 56.703 178.564 56.7001 178.556 56.6972L172.356 55.6409L172.353 55.6379C171.655 55.2946 171.022 54.9556 170.473 54.6313L177.328 56.1245C177.163 56.0368 177.017 55.9535 176.886 55.8732L168.057 52.599Z" fill="#7A384C"/>
<path d="M204.03 79.9997H167.953C168.586 79.3671 169.369 78.977 170.596 78.4087L173.39 78.0376L174.417 77.8988L176.648 77.6007L178.336 77.3772H178.34L179.348 77.2428L179.789 77.1844L183.962 76.6277L184.937 76.4962L186.51 76.2873L187.132 76.2026L188.356 76.0404L188.65 76.0024L191.356 75.643L197.788 74.7854L198.125 74.7386C198.326 74.7343 198.515 74.7343 198.7 74.7386C201.744 74.8175 202.814 76.1544 204.03 79.9997Z" fill="#2347A1"/>
<path d="M198.604 78.6109L197.476 80.0003H190.883L194.553 76.3857L196.15 77.2623L198.604 78.6109Z" fill="#2A52C2"/>
<path d="M198.125 74.7402C198.125 74.7402 198.058 74.8293 197.936 74.9944C197.885 75.0601 197.83 75.1332 197.763 75.2223C197.704 75.2954 197.641 75.3801 197.567 75.4765C197.229 75.9134 196.745 76.527 196.152 77.2604C195.735 77.763 195.266 78.3226 194.755 78.9201C194.607 79.094 194.452 79.2722 194.296 79.4534C194.138 79.6316 193.981 79.8128 193.816 79.9983H170.857C170.672 79.0297 170.598 78.4073 170.598 78.4073V78.4029C170.598 78.0946 170.767 77.8039 171.043 77.6505L173.135 76.4729V76.4685H173.14L173.128 76.3181C173.123 76.2684 173.12 76.2172 173.12 76.172C173.104 75.9324 173.089 75.7161 173.082 75.5393L173.07 75.3465C173.062 75.2267 173.058 75.1376 173.053 75.0835C173.049 75.0411 173.049 75.0178 173.049 75.0178L172.975 73.8007C172.943 73.3025 173.164 72.8277 173.564 72.5224L176.341 70.4024L176.588 70.2096L177.352 69.631L179.272 68.1642L180.369 68.0064C180.369 68.0064 180.369 68.0064 180.373 68.0064L181.824 67.7902H181.841L183.797 67.5082L184.367 67.4234L185.834 67.2116L186.534 67.1079L186.651 67.0918L187.032 67.1502L187.532 67.2277L188.571 67.3898C189.476 67.533 190.274 68.0429 190.77 68.7997L191.895 70.5179H191.899L191.981 70.5442H191.986L192.694 70.7487L195.026 71.4251L195.498 71.5639C195.608 71.6019 195.714 71.6414 195.812 71.6794C195.82 71.6794 195.829 71.6837 195.836 71.6867C196.461 71.9526 196.973 72.4318 197.275 73.0381L198.125 74.7402Z" fill="#EF6270"/>
<path d="M192.693 70.7502C192.135 69.3914 191.846 67.7785 188.353 67.0918L185.781 66.7148L185.985 68.7734L190.86 71.9277L192.693 70.7502Z" fill="#FF707E"/>
<path d="M198.126 74.7402C198.126 74.7402 198.059 74.8293 197.936 74.9944C197.886 75.0601 197.831 75.1332 197.764 75.2223C197.704 75.2954 197.642 75.3801 197.567 75.4765C197.23 75.9134 196.746 76.527 196.152 77.2604C195.735 77.763 195.266 78.3226 194.756 78.9201C194.607 79.094 194.452 79.2722 194.296 79.4534C194.138 79.6316 193.977 79.8157 193.812 79.9983H183.045C183.297 79.1334 183.67 77.817 183.845 77.0676C183.88 76.9127 183.919 76.7666 183.962 76.6278C184.221 75.7044 184.434 75.1449 182.865 74.9023L183.026 74.1032L183.737 70.5471C183.742 70.5515 183.742 70.5471 183.742 70.5471L183.926 69.6091C183.926 69.6047 183.926 69.6047 183.926 69.6018L184.068 68.9224V68.9181L184.304 67.7449V67.7405L184.367 67.4234L185.835 67.2116L186.534 67.1079L186.652 67.0918L187.033 67.1502L187.533 67.2277L188.572 67.3898C189.477 67.533 190.274 68.0429 190.77 68.7997L191.898 70.5179L191.98 70.5442H191.984L192.693 70.7487L195.025 71.4251L195.497 71.5639C195.607 71.6019 195.713 71.6414 195.811 71.6794C195.819 71.6794 195.827 71.6837 195.835 71.6867C196.46 71.9526 196.972 72.4318 197.274 73.0381L198.126 74.7402Z" fill="#E05164"/>
<path d="M188.2 70.9467C189.956 69.6508 189.837 69.7516 188.867 69.1248C187.898 68.498 186.877 68.4951 186.877 68.4951L188.2 70.9467Z" fill="#BD3C53"/>
<path d="M188.648 76.0031L185.784 79.999H183.617C184.797 78.7557 186.028 77.4276 187.13 76.2033C188.7 74.4545 189.998 72.9248 190.485 72.1797L190.336 73.1264L190.23 73.7985L188.648 76.0031Z" fill="#E05164"/>
<path d="M192.351 78.4749C191.941 78.8606 191.324 79.3588 190.466 80.0002H187.775C189.046 79.483 190.706 78.7218 191.788 78.0541C193.436 77.0343 193.22 77.6684 192.351 78.4749Z" fill="#E05164"/>
<path d="M175.817 71.352C173.878 73.0205 172.9 72.5763 177.503 78.7622L178.612 78.0522L181.817 74.5122L177.74 69.4746L175.817 71.352Z" fill="#C74153"/>
<path d="M176.418 54.7422C176.531 54.3682 179.174 54.8109 182.32 55.7313C185.467 56.6518 187.926 57.7008 187.813 58.0748C187.168 63.2205 187.262 67.7773 188.201 70.9463L178.613 78.0541C174.585 68.559 175.812 60.1421 176.418 54.7422Z" fill="#FFB685"/>
<path d="M180.653 67.8133L184.361 67.7461L184.769 69.8777C183.315 71.3168 181.174 70.7441 180.097 69.8003C178.66 71.0144 177.27 71.0041 176.288 69.9318C176.281 69.923 176.27 69.9113 176.26 69.9011C176.163 69.3079 176.083 68.722 176.016 68.1449C177.541 67.7081 180.653 67.8133 180.653 67.8133Z" fill="#FE9B77"/>
<path d="M184.361 73.5428C183.441 67.354 183.654 59.9204 183.775 56.1816C186.189 56.9706 187.908 57.761 187.813 58.0751C187.168 63.2208 187.262 67.7777 188.201 70.9466L184.361 73.5428Z" fill="#FE9B77"/>
<path opacity="0.4" d="M176.418 54.7422C176.531 54.3682 179.174 54.8109 182.321 55.7313C185.467 56.6518 187.926 57.7008 187.813 58.0748C187.731 58.7337 187.659 59.3824 187.601 60.0208C184.177 59.6176 179.421 60.1377 175.816 61.2218C175.935 58.7644 176.212 56.5787 176.418 54.7422Z" fill="#A8387E"/>
<path d="M179.932 46.9414L178.143 47.2774L178.668 48.1044L179.932 46.9414Z" fill="#FFCD8F"/>
<path d="M182.995 64.9867C183.206 64.6155 183.155 64.1923 182.88 64.0416C182.605 63.891 182.211 64.0698 182 64.441C181.788 64.8123 181.84 65.2354 182.115 65.3861C182.39 65.5368 182.784 65.358 182.995 64.9867Z" fill="#543247"/>
<path d="M184.765 45.2208C184.765 45.2208 183.853 45.1507 183.445 45.456C183.901 45.9747 184.765 45.2208 184.765 45.2208Z" fill="#FFD08F"/>
<path d="M181.821 45.2113C179.852 44.7526 179.686 45.7621 179.686 45.7621L181.821 45.2113Z" fill="#FFFDC4"/>
<path d="M196.269 57.126C196.172 57.8273 194.57 58.2816 194.57 58.2816L195.227 58.774C196.886 58.736 197.31 57.9149 197.31 57.9149C197.31 57.9149 197.02 57.5614 196.269 57.126Z" fill="#D4655B"/>
<path d="M200.495 60.1699C200.229 60.934 196.826 60.4753 196.826 60.4753L196.715 60.8683C199.227 61.3051 200.317 61.086 200.317 61.086C200.317 61.086 200.464 60.861 200.495 60.1699Z" fill="#D4655B"/>
<path d="M187.953 52.9985C187.764 53.9043 186.627 54.5091 186.627 54.5091L184.781 53.951C185.301 53.2308 185.528 52.2256 185.528 52.2256C185.528 52.2256 186.794 52.5572 187.953 52.9985Z" fill="#DC7363"/>
<path d="M175.765 79.9738C175.753 79.9811 175.736 79.9928 175.726 80.0001H173.837C173.699 79.4362 173.531 78.7144 173.389 78.038C173.263 77.4243 173.161 76.856 173.133 76.4747V76.4703C173.129 76.4206 173.126 76.3666 173.126 76.3198C173.121 76.2702 173.118 76.219 173.118 76.1737C173.102 75.9341 173.087 75.7179 173.08 75.5411L173.068 75.3483C173.06 75.2285 173.056 75.1393 173.051 75.0853C173.047 75.0429 173.047 75.0195 173.047 75.0195C173.382 76.0042 173.892 77.0153 174.416 77.9006C174.907 78.7422 175.407 79.4712 175.765 79.9738Z" fill="#D14658"/>
<path d="M195.025 71.4244C194.128 72.6297 192.787 74.1462 191.355 75.6452C189.82 77.2553 188.185 78.8419 186.887 80.0005H185.361C186.183 78.9734 187.26 77.5723 188.354 76.0426C189.027 75.1003 189.707 74.1083 190.337 73.1279C190.651 72.6458 190.95 72.1622 191.23 71.6918V71.6874C191.467 71.29 191.69 70.9043 191.898 70.5215C191.915 70.5376 191.937 70.5449 191.98 70.5449H191.985L192.693 70.7494L195.025 71.4244Z" fill="#CC4355"/>
<path d="M190.032 70.5195L185.283 75.0194L184.361 78.9583L189.577 72.4787L190.032 70.5195Z" fill="#E65568"/>
<path d="M178.318 77.3325L188.107 70.6119L188.274 70.4731C188.558 70.2261 188.783 70.2335 188.201 70.945L178.613 78.0528C178.51 77.8132 178.415 77.5721 178.318 77.3325Z" fill="#BD3C53"/>
<path d="M202.331 50.1309L201.097 49.5918C201.074 49.5815 201.074 49.5508 201.097 49.5421L202.331 49.003C202.337 49 202.343 48.9957 202.346 48.9884L202.895 47.7772C202.905 47.7553 202.936 47.7553 202.945 47.7772L203.495 48.9884C203.498 48.9942 203.502 49 203.509 49.003L204.743 49.5421C204.766 49.5523 204.766 49.583 204.743 49.5918L203.509 50.1309C203.504 50.1338 203.498 50.1382 203.495 50.1455L202.945 51.3566C202.935 51.3786 202.904 51.3786 202.895 51.3566L202.346 50.1455C202.341 50.1396 202.337 50.1338 202.331 50.1309Z" fill="#FF99B9"/>
<path d="M159.924 69.0586L158.691 68.5195C158.668 68.5093 158.668 68.4786 158.691 68.4698L159.924 67.9307C159.93 67.9278 159.936 67.9234 159.939 67.9161L160.489 66.7049C160.499 66.683 160.53 66.683 160.539 66.7049L161.088 67.9161C161.091 67.9219 161.096 67.9278 161.103 67.9307L162.337 68.4698C162.359 68.48 162.359 68.5107 162.337 68.5195L161.103 69.0586C161.097 69.0615 161.091 69.0659 161.088 69.0732L160.539 70.2844C160.529 70.3063 160.497 70.3063 160.489 70.2844L159.939 69.0732C159.935 69.0659 159.93 69.0601 159.924 69.0586Z" fill="#5580F9"/>
<path d="M196.154 53.5579C194.179 51.7945 192.518 51.0625 192.518 51.0625C194.374 51.4292 195.689 52.0282 196.154 53.5579Z" fill="#EB9363"/>
<path d="M176.067 45.761L172.916 46.4272C173.287 45.7333 173.705 45.6061 176.067 45.761Z" fill="#FFFDC4"/>
<path d="M181.744 69.5147C180.46 69.5235 179.224 69.4913 178.829 69.8142C178.431 70.1371 179.056 70.8778 180.012 71.5835C180.417 71.883 180.615 71.9151 181.619 71.0531C182.346 70.4307 182.738 69.5074 181.744 69.5147Z" fill="#C74153"/>
<path d="M181.219 69.5771L182.304 69.7495C182.454 70.0637 182.115 70.6276 181.619 71.0528C180.615 71.9133 180.417 71.8826 180.012 71.5831C179.851 71.4648 179.705 71.3464 179.568 71.2281C179.735 70.8541 180.257 69.8767 181.219 69.5771Z" fill="#A82C3C"/>
<path d="M179.273 69.6316C179.847 69.5045 180.78 69.522 181.743 69.5147C182.291 69.5103 182.416 69.7894 182.298 70.1444C181.706 70.159 179.578 70.2101 179.347 70.2101C179.18 70.2101 179.219 69.8829 179.273 69.6316Z" fill="white"/>
<path d="M174.971 67.8403C174.68 67.3202 174.845 66.5035 175.48 66.0857C175.345 66.3808 175.488 66.9199 176.016 67.0178C176.367 67.0821 177.031 66.9491 177.308 66.8454C178.104 66.5459 178.99 66.5342 180.07 67.0733C181.52 66.3063 182.51 66.9813 183.838 66.9813C184.201 66.9813 184.559 66.9257 184.908 66.8322C186.024 66.5123 185.997 65.9834 185.756 65.4238C187.344 65.7964 187.274 67.4561 186.57 68.191C186.161 68.6979 185.379 68.9302 184.352 68.6906C182.747 70.0231 181.952 70.1239 180.072 68.9259C178.534 70.1955 177.058 70.0523 176.186 68.4846C176.183 68.4846 175.287 68.4057 174.971 67.8403Z" fill="#6B3143"/>
<path d="M180.069 68.9261C178.531 70.1957 177.055 70.0526 176.183 68.4849C176.183 68.4849 174.794 68.3695 174.833 67.3219C174.998 67.734 175.729 68.1299 176.419 67.9794C177.525 68.8677 178.698 68.5974 179.804 67.7719C179.804 67.7719 182.127 68.9948 183.788 67.6434C185.676 68.108 187.018 67.2518 186.79 66.0859C187.237 66.7463 187.052 67.6872 186.569 68.1912C186.159 68.6982 185.378 68.9305 184.351 68.6909C182.745 70.0233 181.949 70.1242 180.069 68.9261Z" fill="#5E2737"/>
<path d="M178.578 65.3971C178.853 65.2819 178.946 64.8877 178.785 64.5166C178.624 64.1454 178.27 63.938 177.994 64.0531C177.719 64.1683 177.627 64.5626 177.788 64.9337C177.949 65.3048 178.303 65.5123 178.578 65.3971Z" fill="#543247"/>
</g>
<g clip-path="url(#clip2_14847_11842)">
<path d="M214 84H150V121.976H214V84Z" fill="#F7E5BC"/>
<path d="M214 105.224V121.976H150V102.166C157.233 96.0853 166.67 100.617 167.311 105.81C175.829 102.697 182.342 105.892 184.078 110.292C190.575 106.296 197.626 106.537 201.291 110.292C204.404 105.958 211.139 104.153 214 105.224Z" fill="#6ADBC6"/>
<path d="M189.313 109.309C196.36 109.349 202.385 112.74 205.29 121.999H184.078L189.313 109.309Z" fill="#44C9C5"/>
<path d="M196.582 121.976H214V113.833C209.773 114.257 202.113 115.887 196.582 121.976Z" fill="#44C9C5"/>
<path d="M200.967 118.133H162.954C160.551 120.43 160.428 121.976 160.428 121.976H203.8C203.8 121.976 202.631 119.437 200.967 118.133Z" fill="#755F5F"/>
<path d="M201.851 119.808C202.11 119.59 202.177 119.215 202.002 118.926C201.446 118.007 201.269 117.291 200.025 116.632C198.572 115.862 197.962 115.168 194.15 114.676C193.375 112.665 193.53 112.062 187.774 111.601H171.846C169.235 112.032 169.052 112.032 168.597 113.583C168.141 115.134 168.141 114.949 166.772 115.501C165.402 116.053 163.282 116.17 162.458 117.996C162.189 118.591 162.082 119.022 163.642 121.974H198.742C200.08 121.229 201.238 120.322 201.851 119.808Z" fill="#CC4F79"/>
<path d="M189.312 112.247C192.058 112.731 191.963 112.731 190.091 114.931C188.218 117.131 185.869 119.185 183.202 120.274C179.039 121.974 175.464 120.38 173.299 117.834C170.143 114.124 168.78 112.245 171.45 112.245C175.025 112.247 189.312 112.247 189.312 112.247Z" fill="#590942"/>
<path d="M197.536 91.3858L196.302 90.8324C196.28 90.8219 196.28 90.7904 196.302 90.7814L197.536 90.2281C197.542 90.2251 197.548 90.2206 197.551 90.2131L198.1 88.97C198.11 88.9475 198.142 88.9475 198.15 88.97L198.7 90.2131C198.703 90.2191 198.707 90.2251 198.715 90.2281L199.948 90.7814C199.971 90.7919 199.971 90.8234 199.948 90.8324L198.715 91.3858C198.709 91.3888 198.703 91.3933 198.7 91.4008L198.15 92.6439C198.14 92.6664 198.109 92.6664 198.1 92.6439L197.551 91.4008C197.548 91.3933 197.543 91.3888 197.536 91.3858Z" fill="#755F5F"/>
<path d="M162.858 93.1524L162.048 92.7895C162.033 92.7835 162.033 92.7625 162.048 92.7565L162.858 92.3936C162.862 92.3921 162.865 92.3891 162.867 92.3846L163.227 91.5689C163.233 91.5539 163.254 91.5539 163.26 91.5689L163.62 92.3846C163.621 92.3891 163.624 92.3921 163.629 92.3936L164.439 92.7565C164.453 92.7625 164.453 92.7835 164.439 92.7895L163.629 93.1524C163.624 93.1539 163.621 93.1569 163.62 93.1614L163.26 93.9771C163.254 93.9921 163.233 93.9921 163.227 93.9771L162.867 93.1614C162.865 93.1584 162.862 93.1554 162.858 93.1524Z" fill="#F7D78D"/>
<path d="M173.644 100.083C172.572 97.0805 170.71 94.8822 169.811 94.4803C168.912 94.0784 169.143 94.5883 169.981 97.1165C170.819 99.6463 170.828 103.812 172.374 103.836C173.921 103.86 173.644 100.083 173.644 100.083Z" fill="#2E64E8"/>
<path d="M171.687 100.863C171.048 99.5747 171.003 98.9494 170.752 97.9747C170.619 97.4574 170.417 96.7136 170.258 96.1348C171.036 97.5323 172.383 100.635 172.669 101.616C172.958 102.635 172.33 102.152 171.687 100.863Z" fill="#1C4BBA"/>
<path d="M187.78 100.274C189.291 97.0765 191.715 94.8077 192.842 94.4313C193.969 94.0549 193.653 94.5933 192.46 97.291C191.266 99.9886 190.979 104.526 189.084 104.448C187.191 104.369 187.78 100.274 187.78 100.274Z" fill="#2E64E8"/>
<path d="M182.12 91.7108C183.853 91.7108 185.257 90.2955 185.257 88.5497C185.257 86.8039 183.853 85.3887 182.12 85.3887C180.387 85.3887 178.982 86.8039 178.982 88.5497C178.982 90.2955 180.387 91.7108 182.12 91.7108Z" fill="#201E2F"/>
<path d="M185.129 89.3796C185.236 88.5668 183.93 87.722 182.212 87.4926C180.495 87.2632 179.015 87.7361 178.908 88.5489C178.802 89.3616 180.107 90.2065 181.825 90.4359C183.543 90.6653 185.022 90.1924 185.129 89.3796Z" fill="#41314A"/>
<path d="M187.369 91.0821C184.13 88.0185 178.797 87.6257 175.14 90.2754C171.647 92.8066 172.237 97.0713 172.838 101.618L188.327 102.068C188.966 99.592 190.607 94.1472 187.369 91.0821Z" fill="#4D7AE8"/>
<path d="M188.678 100.714L173.028 100.26C170.157 106.618 167.3 118.443 180.208 118.818C192.503 119.175 191.556 107.894 188.678 100.714Z" fill="#4D7AE8"/>
<path d="M188.678 100.716C189.36 97.9535 190.104 93.6693 187.37 91.0841C187.276 90.9956 187.173 90.9161 187.076 90.8306L186.259 90.8066C186.259 90.8066 186.608 96.163 186.317 98.2849C186.026 100.407 186.134 100.639 186.782 100.933C187.594 101.302 188.022 101.561 187.894 104.286C187.767 107.011 187.609 107.375 188.203 110.613C188.795 113.84 188.005 115.918 186.316 117.635C192.012 114.6 190.951 106.384 188.678 100.716Z" fill="#2E64E8"/>
<path d="M176.59 112.974C178.275 115.265 182.862 115.853 184.73 113.06C185.663 111.664 183.194 111.587 180.695 111.602C178.198 111.617 175.669 111.722 176.59 112.974Z" fill="#3366E0"/>
<path d="M183.019 101.05C183.057 99.7021 182.058 98.5796 180.787 98.5427C179.516 98.5058 178.454 99.5684 178.415 100.916C178.377 102.264 179.376 103.386 180.647 103.423C181.918 103.46 182.98 102.398 183.019 101.05Z" fill="#DBE7FF"/>
<path d="M181.594 101.367C181.619 100.849 181.241 100.411 180.751 100.388C180.261 100.364 179.844 100.765 179.819 101.283C179.795 101.801 180.173 102.24 180.663 102.263C181.153 102.286 181.57 101.885 181.594 101.367Z" fill="#201E2F"/>
<path d="M178.232 96.7518C179.207 94.7079 182.77 94.9164 183.598 96.9078L178.232 96.7518Z" fill="#201E2F"/>
<path d="M177.337 105.276C177.489 105.319 177.635 105.366 177.773 105.421L178.208 105.537L178.638 105.639C178.782 105.666 178.93 105.679 179.072 105.703C179.651 105.772 180.239 105.795 180.82 105.699C181.408 105.655 181.979 105.486 182.537 105.286L182.954 105.121L183.357 104.923L183.761 104.713C183.886 104.631 184.017 104.551 184.157 104.477L184.206 104.45C184.746 104.159 185.419 104.364 185.708 104.908C185.9 105.27 185.873 105.693 185.675 106.02C185.206 106.789 184.53 107.434 183.746 107.883C182.967 108.348 182.088 108.629 181.187 108.75C180.284 108.852 179.352 108.792 178.479 108.515C177.602 108.254 176.792 107.762 176.176 107.107C175.753 106.658 175.773 105.951 176.218 105.526C176.511 105.246 176.916 105.159 177.279 105.259L177.337 105.276Z" fill="#400015"/>
<path d="M176.865 107.702C177.35 108.057 177.897 108.341 178.477 108.513C179.352 108.79 180.284 108.85 181.186 108.748C182.086 108.627 182.966 108.348 183.744 107.882C184.306 107.559 184.807 107.135 185.221 106.639C184.453 105.901 183.701 105.404 182.981 105.104L182.951 105.119L182.534 105.284C181.975 105.485 181.403 105.655 180.817 105.697C180.236 105.793 179.648 105.77 179.07 105.701C178.927 105.679 178.779 105.664 178.635 105.637L178.589 105.626C177.839 106.18 177.246 106.928 176.865 107.702Z" fill="#590942"/>
<path d="M184.909 105.87L184.952 104.345C184.706 104.294 184.444 104.321 184.205 104.448L184.156 104.475C184.016 104.55 183.885 104.629 183.76 104.712L183.356 104.922L182.953 105.12L182.536 105.285C181.977 105.486 181.405 105.655 180.819 105.697C180.238 105.793 179.65 105.771 179.071 105.702C178.929 105.679 178.781 105.664 178.637 105.637L178.207 105.535L177.772 105.42C177.634 105.364 177.488 105.316 177.336 105.274L177.278 105.258C177.132 105.217 176.982 105.216 176.833 105.235L176.811 106.017C179.771 107.462 183.115 106.649 184.909 105.87Z" fill="#DBE7FF"/>
<path d="M177.905 105.456L177.774 105.421C177.636 105.366 177.49 105.318 177.338 105.276L177.28 105.259C177.134 105.219 176.984 105.217 176.835 105.237L176.812 106.018C177.122 106.169 177.436 106.289 177.75 106.394L177.905 105.456Z" fill="#B5CDFF"/>
<path d="M183.254 106.437C183.886 106.272 184.449 106.07 184.91 105.871L184.953 104.346C184.708 104.295 184.446 104.322 184.206 104.449L184.157 104.476C184.017 104.551 183.886 104.63 183.761 104.713L183.358 104.923L183.203 104.999L183.254 106.437Z" fill="#B5CDFF"/>
<path d="M184.395 103.103L186.682 104.252C186.724 102.86 185.567 102.704 184.395 103.103Z" fill="#3366E0"/>
<path d="M174.394 106.18L176.514 104.077C174.901 104.038 174.263 105.119 174.394 106.18Z" fill="#3366E0"/>
<path d="M175.652 108.327C176.377 109.341 177.105 110.29 177.105 110.29C175.642 110.164 175.652 108.327 175.652 108.327Z" fill="#3366E0"/>
<path d="M187.368 91.0821C184.129 88.0185 178.797 87.6257 175.14 90.2754C173.458 91.4945 172.727 93.1185 172.484 94.9794C174.506 96.5285 174.727 93.8173 175.568 90.9951C178.573 93.4619 183.131 93.4829 186.049 91.2995C186.049 91.2995 186.049 91.2995 186.174 93.6823C186.295 95.9991 187.849 96.2615 189.237 95.0379C189.059 93.5789 188.526 92.1783 187.368 91.0821Z" fill="#201E2F"/>
<path d="M177.309 94.7624C177.69 94.372 177.834 93.8932 177.632 93.6929C177.43 93.4926 176.957 93.6468 176.576 94.0372C176.195 94.4276 176.051 94.9065 176.253 95.1067C176.455 95.307 176.928 95.1529 177.309 94.7624Z" fill="#618AED"/>
<path d="M191.918 95.9683C190.647 97.8427 190.145 98.8729 189.761 99.6452C189.377 100.417 189.765 100.519 189.891 101.466C190.014 102.412 190.3 101.963 190.693 100.365C191.086 98.7664 191.29 98.1816 191.672 97.3104C192.055 96.4376 192.717 94.7911 191.918 95.9683Z" fill="#1C4BBA"/>
<path d="M193.869 115.433C193.14 117.397 191.208 121.976 191.208 121.976H185.539C188.544 119.866 190.827 117.489 191.854 115.649C192.832 113.898 193.087 112.737 193.864 114.776C193.944 114.988 193.948 115.222 193.869 115.433Z" fill="#BA3B66"/>
<path d="M192.822 121.976C195.549 118.726 196.44 117.618 197.174 117.195C197.908 116.772 199.115 116.138 197.804 118.146C196.493 120.154 194.29 121.976 194.29 121.976H192.822Z" fill="#BA3B66"/>
<path d="M174.02 121.976C171.903 119.409 170.452 116.885 169.903 115.492C169.355 114.099 169.183 113.751 169.052 114.535C168.922 115.318 168.62 115.669 168.879 116.756C169.138 117.843 170.035 120.758 170.58 121.977H174.02V121.976Z" fill="#BA3B66"/>
<path d="M165.313 121.981L164.477 121.977C163.523 119.54 163.134 118.441 163.099 117.637C163.064 116.838 164.014 119.523 165.313 121.981Z" fill="#BA3B66"/>
<path d="M168.782 122.001L167.022 121.993C166.563 118.472 166.563 117.781 166.67 116.791C166.777 115.801 167.271 116.656 167.628 118.436C167.98 120.216 168.782 122.001 168.782 122.001Z" fill="#BA3B66"/>
<path d="M161.728 115.096C163.284 112.553 164.966 111.305 167.019 110.186C169.071 109.068 169.324 108.415 167.808 107.895C166.291 107.376 165.014 107.589 163.216 108.331C161.418 109.074 160.129 109.522 159.584 111.653C159.038 113.784 159.802 115.067 161.728 115.096Z" fill="#542113"/>
<path d="M162.245 112.433C163.217 108.333 163.878 105.239 164.504 102.45C165.129 99.661 165.829 98.031 164.745 97.5332C163.662 97.0353 163.102 97.2228 161.679 100.4C160.256 103.578 159.648 105.878 159.182 107.519C158.714 109.162 157.172 113.665 162.245 112.433Z" fill="#542113"/>
<path d="M160.225 106.02L159.292 105.874C159.788 100.449 160.066 98.1383 160.182 96.5803C160.298 95.0222 159.658 94.9907 158.679 94.9412C157.699 94.8918 157.339 95.3131 156.9 97.3525C156.46 99.3934 155.948 102.922 155.766 104.312C155.585 105.7 155.238 108.916 155.263 109.944C155.287 110.973 160.224 111.433 160.225 106.02Z" fill="#542113"/>
<path d="M155.672 107.379C155.824 105.264 155.501 99.6283 155.475 98.5831C155.45 97.5379 155.071 97.6399 154.185 97.6144C153.299 97.5889 152.92 97.9968 152.793 100.47C152.667 102.942 152.49 105.619 152.515 106.87C151.908 108.527 151.629 110.386 151.807 112.35C151.984 114.315 152.237 114.849 152.591 115.46C152.945 116.072 155.071 116.761 157.803 117.041C160.536 117.321 160.77 116.921 161.728 115.095C162.687 113.268 160.89 108.398 160.89 108.398L155.672 107.379Z" fill="#542113"/>
<path d="M151.986 113.764C151.582 114.703 150.782 116.952 150.02 119.156C150.191 120.741 151.523 121.975 153.141 121.975H160.777C160.763 121.734 160.55 118.122 161.263 115.944C161.263 115.944 152.891 111.66 151.986 113.764Z" fill="#542113"/>
<path d="M161.262 109.534C159.503 110.654 159.025 111.208 158.594 111.977C158.161 112.746 157.733 112.838 156.147 112.869C154.56 112.901 154.529 112.931 154.072 111.025C153.615 109.119 154.295 108.311 156.025 108.381C158.314 108.473 162.321 108.938 161.262 109.534Z" fill="#4A1A0D"/>
<path d="M153.252 106.251H159.133C157.314 105.417 154.752 105.521 153.252 106.251Z" fill="#4A1A0D"/>
<path d="M160.199 106.517C161.067 106.845 162.792 107.575 162.792 107.575C161.539 105.72 160.199 106.517 160.199 106.517Z" fill="#4A1A0D"/>
<path d="M161.148 102.534C162.058 102.717 163.878 103.156 163.878 103.156C162.344 101.531 161.148 102.534 161.148 102.534Z" fill="#4A1A0D"/>
<path d="M156.707 101.243C157.56 101.316 159.277 101.535 159.277 101.535C157.627 100.115 156.707 101.243 156.707 101.243Z" fill="#4A1A0D"/>
<path d="M153.105 102.558C153.817 102.465 155.262 102.335 155.262 102.335C153.643 101.459 153.105 102.558 153.105 102.558Z" fill="#4A1A0D"/>
<path d="M168.623 108.328C167.245 109.375 165.213 109.583 163.268 110.586C161.321 111.591 160.974 112.648 160.428 114.124C160.083 115.055 159.769 116.303 159.584 117.096C160.72 116.979 161.038 116.406 161.727 115.094C163.284 112.551 164.966 111.303 167.018 110.185C168.544 109.355 169.074 108.781 168.623 108.328Z" fill="#732D1A"/>
<path d="M161.263 115.945C161.407 115.705 161.556 115.425 161.727 115.096C161.821 114.943 161.914 114.795 162.01 114.651C162.01 114.651 162.01 114.651 162.008 114.652C161.047 115.949 158.512 116.233 156.345 116.374C154.178 116.513 152.38 115.826 151.984 113.768C151.727 114.369 150.819 116.686 150 118.851V121.976H160.777C160.762 121.735 160.55 118.124 161.263 115.945Z" fill="#4A1A0D"/>
<path d="M164.764 97.5449C164.884 97.9288 164.935 98.4611 164.79 99.1479C164.505 100.514 163.877 103.156 162.512 108.622L163.186 108.361C163.688 106.143 164.103 104.233 164.503 102.45C165.124 99.6803 165.816 98.0563 164.764 97.5449Z" fill="#732D1A"/>
<path d="M160.181 96.5799C160.063 98.1304 159.785 100.524 159.289 105.885L158.889 105.793L159.541 95.0488C160.003 95.1913 160.255 95.5512 160.181 96.5799Z" fill="#732D1A"/>
<path d="M205.49 112.247L210.21 108.795C208.717 108.644 205.789 108.795 205.49 112.247Z" fill="#44C9C5"/>
</g>
<defs>
<linearGradient id="paint0_linear_14847_11842" x1="179.041" y1="46.0166" x2="185.334" y2="62.5335" gradientUnits="userSpaceOnUse">
<stop stop-color="#FFC285"/>
<stop offset="1" stop-color="#DB8D6B"/>
</linearGradient>
<linearGradient id="paint1_linear_14847_11842" x1="200.627" y1="55.6678" x2="164.701" y2="55.6678" gradientUnits="userSpaceOnUse">
<stop stop-color="#D67569"/>
<stop offset="1" stop-color="#E39E7F"/>
</linearGradient>
<clipPath id="clip0_14847_11842">
<rect x="8" y="38" width="138" height="86" rx="4" fill="white"/>
</clipPath>
<clipPath id="clip1_14847_11842">
<rect x="150" y="43" width="64" height="37" rx="4" fill="white"/>
</clipPath>
<clipPath id="clip2_14847_11842">
<rect x="150" y="84" width="64" height="38" rx="4" fill="white"/>
</clipPath>
</defs>
</svg>
