<svg width="51" height="13" viewBox="0 0 51 13" fill="none" xmlns="http://www.w3.org/2000/svg">
<path d="M10.1545 5.91898C10.115 5.94757 10.0831 5.9841 10.0611 6.0258C10.0392 6.0675 10.0278 6.11327 10.0278 6.15965C10.0278 6.20604 10.0392 6.25181 10.0611 6.29351C10.0831 6.33521 10.115 6.37174 10.1545 6.40033C11.3433 7.23787 11.3017 8.53751 11.0285 9.34136C10.425 11.2162 8.89543 12.3522 6.10158 12.3522H1.3359C1.28807 12.3522 1.24078 12.3428 1.19721 12.3246C1.15363 12.3063 1.11477 12.2797 1.08324 12.2464C1.05171 12.2131 1.02823 12.174 1.01438 12.1316C1.00053 12.0893 0.996623 12.0447 1.00293 12.0008L2.67039 0.968321C2.6817 0.894109 2.72163 0.826184 2.78283 0.777084C2.84403 0.727983 2.92236 0.70102 3.00337 0.701173H7.76384C10.1649 0.701173 11.7309 2.03451 11.3225 4.25593C11.1544 4.91924 10.7413 5.50744 10.1545 5.91898ZM6.39293 9.76976C8.31533 9.76976 8.63529 7.38228 6.74931 7.38228H5.1885C5.10779 7.3822 5.0298 7.40925 4.96903 7.45839C4.90826 7.50753 4.86885 7.57542 4.85813 7.64943L4.598 9.41838C4.59169 9.46224 4.5956 9.50685 4.60945 9.54921C4.6233 9.59156 4.64678 9.63069 4.67831 9.66396C4.70984 9.69724 4.7487 9.72389 4.79227 9.74214C4.83585 9.76039 4.88314 9.76981 4.93097 9.76976H6.39293ZM7.06928 5.25954C8.63009 5.25954 8.99168 3.18493 7.38925 3.18493H5.82844C5.74743 3.18477 5.6691 3.21174 5.6079 3.26084C5.5467 3.30994 5.50677 3.37786 5.49546 3.45207L5.27175 4.89612C5.26462 4.94003 5.26784 4.98485 5.28119 5.02751C5.29453 5.07016 5.31769 5.10964 5.34906 5.14324C5.38044 5.17685 5.4193 5.20378 5.46298 5.22219C5.50666 5.2406 5.55412 5.25005 5.60212 5.24991L7.06928 5.25954Z" fill="black"/>
<path d="M22.415 12.362H19.6914C19.6153 12.3621 19.5415 12.3384 19.482 12.2947C19.4224 12.251 19.3807 12.1898 19.3636 12.1213L18.9864 10.2874C18.9724 10.2164 18.9319 10.1522 18.872 10.106C18.8121 10.0599 18.7366 10.0346 18.6586 10.0346H15.7971C15.7321 10.0347 15.6684 10.0522 15.6139 10.0851C15.5594 10.118 15.5164 10.1649 15.4902 10.22L14.5459 12.1887C14.52 12.2433 14.4774 12.2898 14.4233 12.3223C14.3692 12.3548 14.306 12.3719 14.2415 12.3716H11.5725C11.5141 12.3731 11.4562 12.3603 11.4048 12.3345C11.3534 12.3087 11.3102 12.2709 11.2797 12.2248C11.2491 12.1787 11.2321 12.1259 11.2306 12.0719C11.229 12.0178 11.2429 11.9643 11.2708 11.9167L17.0978 0.884224C17.1253 0.832482 17.1679 0.788861 17.2208 0.758253C17.2736 0.727646 17.3346 0.711262 17.397 0.710938H19.8188C19.8948 0.710774 19.9687 0.734495 20.0282 0.778219C20.0878 0.821943 20.1295 0.883078 20.1466 0.951612L22.7427 11.9793C22.7546 12.025 22.755 12.0726 22.744 12.1186C22.733 12.1645 22.7109 12.2075 22.6794 12.2443C22.6478 12.2812 22.6076 12.3109 22.5618 12.3313C22.516 12.3517 22.4658 12.3622 22.415 12.362ZM18.2086 7.40649C18.2561 7.4084 18.3036 7.40086 18.3477 7.38437C18.3919 7.36788 18.4317 7.34283 18.4645 7.31089C18.4973 7.27896 18.5223 7.24089 18.5378 7.19926C18.5534 7.15762 18.5591 7.11339 18.5546 7.06954L18.219 4.00336H18.0941L16.8637 6.99012C16.8454 7.03677 16.8394 7.0868 16.8463 7.13602C16.8533 7.18524 16.8728 7.2322 16.9034 7.27298C16.934 7.31376 16.9747 7.34717 17.0221 7.3704C17.0695 7.39362 17.1222 7.406 17.1758 7.40649H18.2086Z" fill="black"/>
<path d="M25.3986 8.87419C25.4654 8.82445 25.55 8.80002 25.6355 8.80583C25.721 8.81164 25.8009 8.84725 25.8591 8.90548C26.1649 9.1913 26.5298 9.41724 26.9321 9.56981C27.3343 9.72239 27.7656 9.79848 28.2003 9.79356C29.0535 9.79356 29.8027 9.51438 29.9276 8.90548C30.0681 8.18346 28.9651 7.86817 27.9506 7.73821C25.9761 7.44218 24.1994 5.97648 24.6442 3.7719C25.1255 1.38923 27.3991 0.546875 29.7143 0.546875C31.1476 0.546875 32.4847 0.891039 33.5409 2.13773C33.5694 2.17109 33.5903 2.2095 33.6023 2.2506C33.6143 2.2917 33.6171 2.33462 33.6105 2.37675C33.6039 2.41889 33.5881 2.45933 33.5641 2.49562C33.54 2.5319 33.5082 2.56327 33.4706 2.58779L31.6731 3.73821C31.6109 3.77823 31.536 3.79762 31.4604 3.79326C31.3849 3.78889 31.3131 3.761 31.2569 3.71414C30.7213 3.29368 30.0446 3.05807 29.3423 3.04748C28.5411 3.03063 27.8647 3.30981 27.7815 3.90187C27.693 4.57816 28.333 4.86456 29.2929 5.07154C31.4806 5.4494 33.6163 6.22437 33.0284 9.11968C32.5654 11.3916 30.427 12.5276 27.7112 12.5276C26.2909 12.5276 24.5558 11.9019 23.5491 10.6672C23.4973 10.603 23.4739 10.5231 23.4836 10.4435C23.4932 10.3639 23.5353 10.2908 23.6011 10.2388L25.3986 8.87419Z" fill="black"/>
<path d="M37.162 12.362H34.6543C34.6064 12.362 34.5591 12.3526 34.5156 12.3343C34.472 12.3161 34.4331 12.2894 34.4016 12.2562C34.3701 12.2229 34.3466 12.1838 34.3327 12.1414C34.3189 12.099 34.315 12.0544 34.3213 12.0106L35.9836 0.978086C35.9949 0.903874 36.0348 0.83595 36.096 0.786849C36.1572 0.737749 36.2355 0.710786 36.3165 0.710938H38.8242C38.872 0.710844 38.9192 0.720251 38.9626 0.738519C39.0061 0.756787 39.0448 0.78349 39.0762 0.816817C39.1075 0.850144 39.1307 0.889314 39.1442 0.931674C39.1578 0.974033 39.1613 1.01859 39.1546 1.06232L37.4923 12.0972C37.4816 12.171 37.4421 12.2386 37.3812 12.2874C37.3204 12.3361 37.2424 12.3626 37.162 12.362Z" fill="black"/>
<path d="M49.0133 9.74529C49.0596 9.76584 49.1002 9.79586 49.1321 9.83309C49.164 9.87032 49.1863 9.91377 49.1973 9.96016C49.2084 10.0066 49.2078 10.0547 49.1958 10.1008C49.1837 10.147 49.1605 10.19 49.1278 10.2266C47.6346 12.0173 45.9255 12.5371 44.4271 12.5371C41.9533 12.5371 39.6771 11.2038 40.0673 8.55396L40.6656 4.51786C41.0558 1.88488 43.7586 0.537109 46.2845 0.537109C47.7569 0.537109 49.4373 1.08585 50.1865 2.91978C50.203 2.95802 50.2111 2.99888 50.2105 3.04004C50.2099 3.08119 50.2004 3.12182 50.1828 3.15961C50.1652 3.19739 50.1396 3.23158 50.1077 3.26022C50.0758 3.28886 50.038 3.31139 49.9966 3.32652L47.8375 4.09186C47.764 4.11656 47.6836 4.11713 47.6097 4.09346C47.5358 4.0698 47.473 4.02335 47.4317 3.9619C47.0883 3.46611 46.4328 3.25191 45.7798 3.25191C44.872 3.26876 43.9589 3.73326 43.8418 4.51786L43.2357 8.5347C43.1109 9.29042 43.8939 9.76936 44.7835 9.76936C45.1366 9.77372 45.4858 9.70051 45.8023 9.55575C46.1189 9.41099 46.3938 9.1988 46.6045 8.93663C46.6502 8.87678 46.7175 8.83397 46.7942 8.81588C46.871 8.7978 46.9522 8.80562 47.0233 8.83795L49.0133 9.74529Z" fill="black"/>
</svg>
