<svg width="65" height="29" viewBox="0 0 65 29" fill="none" xmlns="http://www.w3.org/2000/svg">
<rect x="9.66211" y="5.59473" width="43" height="16" rx="8" fill="#36393F"/>
<path d="M23.2493 15.0027L20.1293 9.19473H17.5373V17.5947H19.4333V11.5827L22.7213 17.5947H25.1453V9.19473H23.2493V15.0027ZM29.0103 14.0307H32.4063V12.4707H29.0103V10.9227H32.6703V9.19473H26.9943V17.5947H32.7183V15.8667H29.0103V14.0307ZM42.0845 15.0147L40.6925 9.19473H38.3285L36.9245 15.0267L35.6165 9.19473H33.5285L35.7245 17.5947H37.9205L39.4565 11.4147L41.0525 17.5947H43.2485L45.5525 9.19473H43.4645L42.0845 15.0147Z" fill="white"/>
<path d="M7.93656 8.46563L11.6169 6.67814C11.6306 6.6699 11.642 6.65781 11.65 6.64314C11.6579 6.62847 11.6621 6.61176 11.6621 6.59473C11.6621 6.5777 11.6579 6.56098 11.65 6.54631C11.642 6.53164 11.6306 6.51955 11.6169 6.51131L7.93656 4.72382C7.92494 4.72382 7.91379 4.7188 7.90558 4.70986C7.89736 4.70092 7.89275 4.6888 7.89275 4.67616L6.24974 0.648351C6.20592 0.576852 6.11829 0.576852 6.09639 0.648351L4.45338 4.67616C4.43147 4.69999 4.43147 4.72382 4.40957 4.72382L0.707316 6.51131C0.69362 6.51955 0.682203 6.53164 0.674253 6.54631C0.666304 6.56098 0.662109 6.5777 0.662109 6.59473C0.662109 6.61176 0.666304 6.62847 0.674253 6.64314C0.682203 6.65781 0.69362 6.6699 0.707316 6.67814L4.40957 8.46563C4.43147 8.46563 4.43147 8.48946 4.45338 8.5133L6.09639 12.5411C6.11829 12.6126 6.20592 12.6126 6.24974 12.5411L7.89275 8.5133C7.89275 8.50066 7.89736 8.48853 7.90558 8.47959C7.91379 8.47065 7.92494 8.46563 7.93656 8.46563Z" fill="#83DDC5"/>
<path d="M13.632 26.1236L15.6469 25.0728C15.6567 25.06 15.6621 25.0433 15.6621 25.0261C15.6621 25.0089 15.6567 24.9922 15.6469 24.9794L13.632 23.9286C13.6267 23.9286 13.6216 23.9261 13.6179 23.9217C13.6142 23.9174 13.6121 23.9114 13.6121 23.9052L12.7143 21.5467C12.7143 21.5343 12.7101 21.5224 12.7027 21.5137C12.6952 21.5049 12.685 21.5 12.6744 21.5C12.6639 21.5 12.6537 21.5049 12.6462 21.5137C12.6387 21.5224 12.6345 21.5343 12.6345 21.5467L11.7368 23.9052H11.7169L9.70201 24.9561C9.69143 24.9561 9.68128 24.961 9.6738 24.9697C9.66631 24.9785 9.66211 24.9904 9.66211 25.0028C9.66211 25.0151 9.66631 25.027 9.6738 25.0358C9.68128 25.0445 9.69143 25.0495 9.70201 25.0495L11.7169 26.1003C11.7222 26.1003 11.7272 26.1027 11.731 26.1071C11.7347 26.1115 11.7368 26.1174 11.7368 26.1236L12.6345 28.4822C12.6455 28.4936 12.6597 28.5 12.6744 28.5C12.6892 28.5 12.7034 28.4936 12.7143 28.4822L13.6121 26.1236C13.6121 26.1236 13.6121 26.1236 13.632 26.1236Z" fill="#FBB848"/>
<path d="M62.2936 17.1236L64.6443 16.0728C64.6558 16.06 64.6621 16.0433 64.6621 16.0261C64.6621 16.0089 64.6558 15.9922 64.6443 15.9794L62.2936 14.9286C62.2875 14.9286 62.2816 14.9261 62.2772 14.9217C62.2728 14.9174 62.2704 14.9114 62.2704 14.9052L61.223 12.5467C61.223 12.5343 61.2181 12.5224 61.2094 12.5137C61.2007 12.5049 61.1888 12.5 61.1765 12.5C61.1641 12.5 61.1523 12.5049 61.1436 12.5137C61.1349 12.5224 61.1299 12.5343 61.1299 12.5467L60.0826 14.9052H60.0593L57.7087 15.9561C57.6963 15.9561 57.6845 15.961 57.6757 15.9697C57.667 15.9785 57.6621 15.9904 57.6621 16.0028C57.6621 16.0151 57.667 16.027 57.6757 16.0358C57.6845 16.0445 57.6963 16.0495 57.7087 16.0495L60.0593 17.1003C60.0655 17.1003 60.0714 17.1027 60.0758 17.1071C60.0802 17.1115 60.0826 17.1174 60.0826 17.1236L61.1299 19.4822C61.1427 19.4936 61.1593 19.5 61.1765 19.5C61.1937 19.5 61.2102 19.4936 61.223 19.4822L62.2704 17.1236C62.2704 17.1236 62.2704 17.1236 62.2936 17.1236Z" fill="#FF78B9"/>
</svg>
