<svg width="324" height="406" viewBox="0 0 324 406" fill="none" xmlns="http://www.w3.org/2000/svg">
<g clip-path="url(#clip0_15219_102833)">
<g clip-path="url(#clip1_15219_102833)" filter="url(#filter0_d_15219_102833)">
<path d="M188.29 107.834L179.577 213.501C179.41 215.524 178.446 217.399 176.897 218.712C175.348 220.025 173.341 220.669 171.317 220.502L-29.123 203.974C-31.1467 203.807 -33.0213 202.843 -34.3343 201.294C-35.6472 199.745 -36.2911 197.738 -36.1242 195.714L-27.4109 90.0474C-27.2441 88.0237 -26.2801 86.1492 -24.7311 84.8362C-23.1821 83.5232 -21.175 82.8793 -19.1513 83.0462L181.289 99.5746C183.313 99.7414 185.187 100.705 186.5 102.254C187.813 103.803 188.457 105.81 188.29 107.834Z" fill="#8CD9FF"/>
<path d="M54.6626 181.429L42.0854 209.845L29.359 208.796C20.511 203.18 12.1908 194.784 6.06047 185.511C4.87715 183.73 3.77916 181.902 2.79125 180.056C1.37981 177.55 0.890787 174.628 1.40909 171.799C2.92055 163.345 12.823 156.832 20.1666 160.94C21.4616 161.669 22.5988 162.649 23.5122 163.821C24.9513 165.783 26.6063 167.577 28.4462 169.169C30.8899 171.268 33.5886 173.05 36.4783 174.473L37.9393 175.191C42.3829 177.267 47.2214 178.834 52.2893 180.582C53.0819 180.846 53.873 181.129 54.6626 181.429Z" fill="#FFD997"/>
<path d="M25.506 160.375C22.453 155.589 20.0835 148.77 13.0619 150.635C8.30427 151.708 3.92358 154.794 -0.262263 157.164C-3.39491 158.941 -7.10403 161.785 -7.14567 165.582C-7.02663 170.722 -1.73239 179.601 2.04521 183.17C8.08491 188.934 20.7965 185.883 26.2765 178.354C30.0059 172.961 28.5859 165.162 25.506 160.375Z" fill="#FFF2A6"/>
<path d="M6.18079 114.914C7.12811 116.593 6.21502 118.12 6.61339 121.519C7.01176 124.918 9.76404 135.324 11.6734 140.151C13.5829 144.978 15.7641 149.799 18.0935 154.471C21.1206 160.557 21.054 163.999 16.6116 168.491C13.4442 171.678 6.70168 174.108 2.60667 172.413C-1.48833 170.718 -2.7926 166.783 -5.83363 160.207C-14.3265 141.726 -15.9034 126.611 -14.007 116.452C-13.2801 112.576 -11.1385 108.002 -7.40571 106.518C-3.67294 105.034 -0.124135 106.44 1.21376 110.297C1.58764 111.359 1.71497 113.107 2.79821 113.468C3.27242 113.642 5.06028 113.03 6.18079 114.914Z" fill="url(#paint0_linear_15219_102833)"/>
<path d="M114.328 188.358L112.08 215.617L35.2632 209.283C37.932 198.644 41.9357 188.279 48.2307 180.084L52.2887 180.582L107.261 187.476L107.288 187.479L111.748 188.036L114.328 188.358Z" fill="#423D80"/>
<path d="M130.711 217.153L101.16 214.716C100.903 213.88 100.646 213.045 100.414 212.238C97.4934 202.225 96.278 191.945 105.34 188.05C105.952 187.775 106.598 187.582 107.261 187.476L107.288 187.478C108.797 187.219 110.349 187.413 111.748 188.036C112.635 188.403 113.471 188.883 114.236 189.463C120.095 193.8 125.546 204.403 130.711 217.153Z" fill="#FFD997"/>
<path d="M89.0078 186.948L76.6127 197.355L65.0639 207.044C63.2026 203.28 62.2302 198.612 61.712 194.362C61.2281 190.413 61.0571 186.432 61.2007 182.457L89.0078 186.948Z" fill="#FFD997"/>
<path d="M61.2007 182.457L89.0078 186.948L76.6127 197.355C70.9019 197.807 65.6189 196.692 61.712 194.362C61.2281 190.413 61.0571 186.432 61.2007 182.457Z" fill="url(#paint1_linear_15219_102833)"/>
<path d="M100.138 183.008C100.138 183.008 99.8889 183.394 99.4289 184.035L99.52 182.93L100.138 183.008Z" fill="url(#paint2_linear_15219_102833)"/>
<path d="M30.9825 195.031C30.7811 195.01 30.5866 194.945 30.4124 194.842C30.2382 194.739 30.0884 194.599 29.9732 194.432C29.786 194.13 29.723 193.766 29.7972 193.418C29.8714 193.071 30.0772 192.765 30.3715 192.565C36.9978 188.252 35.9045 178.797 35.428 176.016C35.3715 175.832 35.3546 175.639 35.3786 175.448C35.4027 175.257 35.467 175.074 35.5673 174.91C35.6676 174.747 35.8017 174.606 35.9605 174.498C36.1194 174.39 36.2994 174.318 36.4886 174.285C36.6778 174.252 36.8718 174.259 37.0578 174.307C37.2438 174.355 37.4174 174.442 37.5672 174.562C37.717 174.682 37.8395 174.833 37.9265 175.004C38.0136 175.175 38.0632 175.363 38.072 175.555C38.623 178.749 39.8456 189.6 31.8428 194.804C31.589 194.972 31.2865 195.052 30.9825 195.031Z" fill="#FFC257"/>
<path d="M90.1958 116.252L66.6397 119.793C66.6397 119.793 65.6368 116.154 64.437 110.951C63.0343 104.918 61.3219 96.7144 60.4688 89.6133L83.6027 91.5209C85.7178 97.8032 88.017 106.462 89.977 115.283C89.9838 115.332 89.9983 115.379 90.0198 115.423C90.0636 115.595 90.0945 115.77 90.1124 115.946C90.1574 116.058 90.1508 116.139 90.1958 116.252Z" fill="#FF78B9"/>
<path d="M82.8398 116.568L73.4938 116.992C73.0613 115.653 72.597 114.04 72.0922 112.261C70.2823 105.57 68.1872 96.4119 67.1011 90.1602L76.0796 90.9005C78.229 97.7557 80.6496 106.588 82.2939 113.971C82.4901 114.883 82.6908 115.741 82.8398 116.568Z" fill="#FFAED7"/>
<path d="M126.959 95.0961C123.67 103.05 118.327 113.196 114.904 119.484C112.95 123.096 111.591 125.427 111.591 125.427L90.1126 115.946L89.798 115.812L90.02 115.423C90.0245 115.369 90.0537 115.344 90.0851 115.292C94.4949 106.915 99.2419 98.7283 103.07 93.1262L126.959 95.0961Z" fill="#FF78B9"/>
<path d="M120.164 94.5355C117.069 101.121 111.273 111.827 107.408 118.214C106.815 119.251 106.252 120.154 105.718 120.925L96.8051 118.072C97.0361 117.575 97.294 117.081 97.5542 116.56C101.417 109.223 106.749 100.189 110.943 93.7751L120.164 94.5355Z" fill="#FFAED7"/>
<path d="M123.752 156.046C126.586 154.767 129.073 152.826 131.002 150.388C132.932 147.949 134.249 145.083 134.843 142.03C135.323 139.616 135.313 137.129 134.813 134.718C134.314 132.308 133.334 130.022 131.934 127.997C130.533 125.972 128.74 124.25 126.661 122.932C124.581 121.613 122.258 120.727 119.829 120.324L60.1521 110.246C50.3796 108.598 40.7088 115.266 38.4796 125.18C37.1032 131.338 38.9148 137.35 42.8119 141.445C35.179 143.15 28.7542 149.298 26.9101 157.507C24.4302 168.487 31.047 179.104 41.7365 181.152L108.269 194.022C119.518 196.199 130.457 188.631 132.647 177.221C133.439 173.207 133.016 169.048 131.431 165.276C129.847 161.504 127.173 158.29 123.752 156.046Z" fill="#FF78B9"/>
<path d="M98.687 147.343C100.605 145.13 101.19 142.495 99.9926 141.458C98.7958 140.42 96.2707 141.374 94.3527 143.587C92.4347 145.8 91.8501 148.435 93.047 149.472C94.2439 150.509 96.769 149.556 98.687 147.343Z" fill="black"/>
<path d="M70.3854 145.84C71.9242 145.466 72.61 142.855 71.9171 140.01C71.2242 137.164 69.415 135.162 67.8762 135.536C66.3373 135.911 65.6516 138.521 66.3444 141.367C67.0373 144.212 68.8465 146.215 70.3854 145.84Z" fill="black"/>
<path d="M88.1163 160.898C87.201 162.451 85.5532 163.998 83.4535 165.101C80.7564 166.534 78.0179 166.824 76.2603 166.082C74.9097 165.672 73.4259 164.573 72.2 162.979C71.9324 162.604 71.6916 162.231 71.4531 161.831C69.4484 158.49 68.7668 154.905 71.0661 153.357C73.3654 151.809 75.3176 154.142 77.0085 155.693C77.5144 156.164 78.1382 156.491 78.8142 156.637C79.4901 156.784 80.1931 156.745 80.8488 156.525C83.3016 155.75 86.8167 154.601 88.5037 156.858C89.1428 157.996 88.9396 159.473 88.1163 160.898Z" fill="#9E0960"/>
<path d="M76.2602 166.083C74.9096 165.673 73.4258 164.573 72.1999 162.979C74.3658 160.416 78.4513 158.934 82.9452 159.413C84.7448 159.59 86.4971 160.093 88.1162 160.898C87.2009 162.452 85.5531 163.999 83.4534 165.102C80.7563 166.535 78.0178 166.825 76.2602 166.083Z" fill="#EB459F"/>
<g opacity="0.4">
<path opacity="0.4" d="M156.291 210.467C164.987 211.184 172.618 204.716 173.336 196.019C174.053 187.323 167.584 179.692 158.888 178.975C150.191 178.258 142.56 184.726 141.843 193.422C141.126 202.119 147.595 209.75 156.291 210.467Z" fill="black"/>
</g>
<path d="M152.264 196.1C151.892 195.243 151.736 194.307 151.81 193.375L153.428 193.509C153.392 194 153.453 194.494 153.606 194.962L152.264 196.1ZM158.289 195.131L160.127 193.572L164.795 189.641L163.731 188.386L149.634 200.335L150.7 201.563L154.288 198.547L155.545 197.456L158.289 195.131ZM161.759 194.196C161.662 195.289 161.139 196.302 160.304 197.014C159.469 197.727 158.387 198.084 157.291 198.008L155.747 199.292L156.302 199.473L156.022 202.871L157.666 203.006L157.946 199.609C159.339 199.534 160.658 198.959 161.661 197.989C162.664 197.02 163.282 195.721 163.404 194.331L161.759 194.196ZM158.211 186.519C157.551 186.465 156.896 186.673 156.388 187.099C155.88 187.525 155.561 188.133 155.499 188.793L155.097 193.673L160.494 189.124C160.526 188.478 160.306 187.845 159.88 187.359C159.454 186.873 158.856 186.572 158.211 186.519Z" fill="white"/>
</g>
<g filter="url(#filter1_d_15219_102833)">
<g clip-path="url(#clip2_15219_102833)">
<path d="M139.943 201.725L165.08 318.884C165.275 319.793 165.101 320.742 164.596 321.523C164.092 322.304 163.297 322.852 162.388 323.047L-51.9133 369.027C-52.8225 369.222 -53.7719 369.048 -54.5527 368.543C-55.3334 368.038 -55.8817 367.244 -56.0767 366.335L-81.2141 249.177C-81.3146 248.726 -81.3244 248.26 -81.243 247.806C-81.1617 247.352 -80.9907 246.918 -80.7401 246.531C-80.4895 246.143 -80.1643 245.81 -79.7834 245.549C-79.4025 245.288 -78.9736 245.106 -78.5216 245.013L135.78 199.033C136.23 198.932 136.696 198.923 137.15 199.004C137.604 199.085 138.038 199.256 138.425 199.507C138.813 199.758 139.147 200.083 139.407 200.464C139.668 200.844 139.85 201.273 139.943 201.725Z" fill="#FFE75C"/>
<path d="M78.9622 238.145C74.4971 237.282 65.8102 237.092 60.4132 236.602C48.6534 235.568 43.1772 227.027 33.0316 229.204C22.886 231.381 21.3681 241.423 11.0951 247.184C6.34659 249.851 -1.47038 253.581 -5.21576 256.207C-9.36193 259.12 -13.9401 263.659 -12.3116 268.689C-11.5172 271.179 -9.61899 272.882 -6.40395 273.581C-3.18891 274.279 9.8975 273.813 41.91 266.945C73.9225 260.076 84.4506 255.504 87.2008 253.497C89.9511 251.49 90.851 249.215 90.5817 246.612C90.0037 241.357 83.9664 239.096 78.9622 238.145Z" fill="url(#paint3_linear_15219_102833)"/>
<path d="M84.7518 248.008C85.7186 252.514 65.5126 257.803 40.3283 263.207C15.144 268.61 -5.4811 272.081 -6.44792 267.575C-7.41474 263.069 12.2258 255.009 37.4101 249.606C62.5944 244.202 83.7791 243.474 84.7518 248.008Z" fill="#8F473B"/>
<path d="M29.7472 262.817C29.7787 262.964 29.7506 263.117 29.6692 263.243C29.5877 263.369 29.4596 263.457 29.313 263.488C25.4703 264.313 16.7483 265.577 8.3516 265.123C3.81163 264.854 0.158187 264.134 -2.52578 262.946C-2.17435 262.697 -1.76169 262.464 -1.34903 262.231C1.55017 263.344 5.17787 263.809 8.39673 263.986C16.7105 264.457 25.2884 263.195 29.0757 262.383C29.2223 262.351 29.3755 262.379 29.5014 262.461C29.6273 262.542 29.7158 262.67 29.7472 262.817ZM30.2854 259.26C25.6864 259.929 16.9837 259.801 10.8218 256.959L9.37055 257.473C11.1929 258.422 13.1251 259.144 15.1235 259.622C20.1508 260.796 25.349 261.053 30.4674 260.378L30.495 260.372C30.6327 260.343 30.7547 260.264 30.8372 260.15C30.9197 260.036 30.9567 259.896 30.9411 259.756C30.9168 259.605 30.835 259.469 30.7129 259.376C30.5907 259.284 30.4375 259.242 30.2854 259.26ZM34.2164 256.826C30.6494 256.429 27.1837 255.389 23.9865 253.758C23.6567 253.569 23.2992 253.385 22.9299 253.147L21.4825 253.544C22.1218 253.992 22.7887 254.399 23.4793 254.764C26.8063 256.447 30.4058 257.525 34.1101 257.948L34.276 257.913C34.4065 257.883 34.5224 257.808 34.6028 257.701C34.6832 257.594 34.7231 257.462 34.7152 257.328C34.7074 257.194 34.6523 257.068 34.5599 256.971C34.4675 256.874 34.3437 256.813 34.2105 256.799L34.2164 256.826ZM32.5778 250.672L31.4167 250.921C33.7499 254.787 36.4083 256.53 36.5486 256.644C36.6093 256.687 36.6783 256.717 36.7512 256.732C36.8241 256.747 36.8993 256.747 36.9721 256.731C37.0449 256.716 37.1136 256.685 37.1739 256.641C37.2343 256.598 37.2849 256.542 37.3226 256.478C37.3657 256.417 37.3957 256.348 37.4106 256.275C37.4256 256.203 37.4253 256.127 37.4097 256.055C37.3941 255.982 37.3635 255.913 37.3199 255.853C37.2764 255.792 37.2207 255.742 37.1565 255.704C37.1289 255.71 34.7608 254.107 32.5778 250.672ZM77.9359 245.219C71.6856 251.534 56.831 256.428 50.2515 257.839C50.1049 257.871 49.9768 257.959 49.8953 258.085C49.8139 258.211 49.7858 258.364 49.8173 258.511C49.8487 258.657 49.9372 258.786 50.0631 258.867C50.189 258.948 50.3421 258.976 50.4888 258.945C54.3038 258.126 62.7767 255.701 70.2757 251.837C74.3056 249.729 77.3422 247.573 79.3025 245.389L77.9359 245.219ZM66.208 245.278L64.6737 245.405C60.1924 250.53 52.3359 254.211 47.8398 255.494C47.7685 255.516 47.7024 255.553 47.6453 255.601C47.5882 255.649 47.5412 255.708 47.5071 255.775C47.473 255.841 47.4523 255.914 47.4464 255.988C47.4405 256.063 47.4494 256.138 47.4726 256.209C47.491 256.277 47.5226 256.341 47.5657 256.397C47.6088 256.453 47.6626 256.5 47.7238 256.535C47.7851 256.57 47.8527 256.593 47.9228 256.602C47.9929 256.611 48.0641 256.606 48.1323 256.588L48.16 256.582C53.0942 255.096 57.7201 252.732 61.8154 249.604C63.4502 248.346 64.9254 246.893 66.208 245.278ZM53.5227 246.669L52.0674 246.895C49.8289 250.209 46.1824 253.16 43.2563 254.887C43.1331 254.966 43.0452 255.089 43.011 255.231C42.9768 255.373 42.9989 255.523 43.0728 255.649C43.1242 255.76 43.214 255.85 43.3257 255.9C43.4375 255.95 43.5637 255.959 43.6811 255.923L43.847 255.888C47.0515 253.982 49.8919 251.522 52.2357 248.623C52.7145 248.006 53.1448 247.353 53.5227 246.669ZM42.2258 248.602C41.6443 252.63 40.1422 255.063 40.1204 255.097C40.0774 255.158 40.0474 255.227 40.0324 255.3C40.0174 255.373 40.0177 255.448 40.0333 255.521C40.049 255.593 40.0795 255.662 40.1231 255.722C40.1667 255.783 40.2223 255.833 40.2865 255.871C40.3472 255.914 40.4162 255.944 40.4891 255.959C40.562 255.974 40.6373 255.974 40.7101 255.958C40.7828 255.943 40.8516 255.912 40.9119 255.868C40.9722 255.825 41.0229 255.769 41.0606 255.705C41.1691 255.537 42.8509 252.863 43.4204 248.374L42.2258 248.602Z" fill="#4C131A"/>
<path d="M49.1891 241.7C41.456 241.509 45.965 236.782 50.2682 237.565C54.5713 238.348 57.3053 241.925 49.1891 241.7ZM45.9262 231.614C41.8952 229.674 38.0362 228.131 33.0325 229.204L32.452 229.329C33.2106 230.438 34.8717 231.846 37.7632 233.597C43.0267 236.834 46.4877 234.501 45.9262 231.614ZM11.096 247.184C9.29141 248.207 7.05039 249.353 4.7383 250.572C5.45187 253.224 11.9028 251.348 15.2219 249.566C21.9528 245.896 21.9853 241.869 19.4315 240.075C17.2323 242.629 14.7112 245.165 11.096 247.184ZM28.1142 239.571C23.9735 248.036 34.5181 246.641 34.0054 241.69C33.3462 235.383 30.3405 234.987 28.1142 239.571Z" fill="#EDB997"/>
<path d="M50.0074 254.682C48.6068 252.467 43.7392 252.962 38.4314 254.1L38.2932 254.13C32.9854 255.269 28.3432 256.814 27.9747 259.409C27.6061 262.004 31.5241 285.252 33.7645 296.772L60.0545 291.131C57.3994 279.7 51.4871 256.996 50.0074 254.682Z" fill="url(#paint4_linear_15219_102833)"/>
<path d="M45.1023 271.581C46.2352 276.861 44.8929 278.826 43.7319 279.075C42.5708 279.324 40.5128 278.089 39.3799 272.809L45.1023 271.581Z" fill="white"/>
<path d="M38.7204 266.909C38.9535 266.521 38.4915 265.815 37.6883 265.333C36.8851 264.851 36.045 264.774 35.8118 265.162C35.5787 265.551 36.0407 266.256 36.8439 266.739C37.6471 267.221 38.4872 267.298 38.7204 266.909Z" fill="black"/>
<path d="M44.9773 265.097C45.5119 264.328 45.6437 263.495 45.2719 263.236C44.9 262.978 44.1651 263.392 43.6305 264.161C43.096 264.931 42.9641 265.764 43.336 266.023C43.7079 266.281 44.4427 265.867 44.9773 265.097Z" fill="black"/>
<path d="M64.4317 265.843C63.7918 265.691 62.6212 267.244 60.4139 268.816C58.2065 270.389 56.2912 271.031 53.8462 269.878C51.4012 268.726 49.0035 267.39 47.3843 267.39C45.765 267.39 44.4737 268.246 42.549 270.596C42.4061 270.78 42.2031 270.907 41.9756 270.956C41.7481 271.005 41.5106 270.972 41.305 270.863C38.6131 269.503 36.9859 269.332 35.6077 269.917C34.2295 270.502 32.4429 272.822 30.7353 274.837C29.0277 276.852 27.1518 277.139 24.31 276.563C21.4682 275.987 19.9475 275.099 19.4262 275.5C18.905 275.901 21.5441 279.036 22.9443 279.632C23.8017 279.954 24.7479 279.946 25.6003 279.611C25.6502 279.592 25.7036 279.584 25.7569 279.588C25.8102 279.592 25.8621 279.607 25.9089 279.632C25.9557 279.658 25.9964 279.694 26.028 279.737C26.0596 279.78 26.0815 279.829 26.0921 279.882C26.2029 280.668 26.6614 282.131 28.3853 282.079C30.1092 282.027 31.7339 280.03 32.2985 279.157C32.3675 279.054 32.4702 278.978 32.5889 278.942C32.7077 278.906 32.8353 278.912 32.9501 278.96C33.4912 279.191 34.5932 279.475 36.1452 279.026C38.6746 278.281 41.0257 275.087 42.0028 273.576C42.1174 273.413 42.2892 273.3 42.4839 273.258C42.6786 273.216 42.8819 273.249 43.0533 273.351C44.5642 274.328 48.0185 276.276 50.6033 275.924C52.2304 275.69 53.0912 274.985 53.5177 274.547C53.6055 274.461 53.7189 274.406 53.8407 274.39C53.9626 274.374 54.0862 274.399 54.193 274.46C55.066 275.024 57.2345 276.236 58.9603 275.519C60.686 274.802 60.344 273.342 60.1502 272.574C60.1324 272.522 60.1276 272.466 60.1363 272.411C60.1451 272.357 60.167 272.305 60.2003 272.261C60.2336 272.217 60.2772 272.181 60.3273 272.158C60.3774 272.134 60.4325 272.123 60.4878 272.126C61.4025 272.082 62.2685 271.7 62.9184 271.055C63.9509 269.937 65.4882 266.05 64.4317 265.843Z" fill="#6A2D32"/>
<path d="M125.013 331.066L104.915 335.378C102.235 332.859 99.1596 329.846 96.886 327.471C95.3157 325.813 94.1048 324.482 93.6465 323.829L107.661 313.94L109.5 315.772L119.986 326.101L125.013 331.066Z" fill="#AA5F44"/>
<path d="M109.494 315.744C109.092 320.746 105.131 327.351 100.688 331.311C97.4214 328.08 94.4051 324.939 93.6465 323.829L107.661 313.94L109.494 315.744Z" fill="black"/>
<path d="M137.757 328.332L121.17 331.891L119.986 326.101L118.592 319.2L117.02 311.469L130.438 305.409C131.456 307.996 132.845 312.18 134.245 316.68C135.492 320.605 136.737 324.791 137.757 328.332Z" fill="url(#paint5_linear_15219_102833)"/>
<path d="M117.961 316.125L132.98 312.672C133.925 315.592 134.935 318.816 135.871 321.97C131.121 323.683 124.075 323.46 118.843 320.505L117.961 316.125Z" fill="#8F473B"/>
<path d="M139.723 310.674L126.844 287.845C126.844 287.845 128.044 286.431 127.981 285.057C127.917 283.682 125.592 282.012 125.592 282.012C125.592 282.012 127.861 278.836 128.875 276.016C129.445 274.361 130.651 269.736 127.263 268.236C124.892 267.155 122.684 269.132 122.684 269.132C122.684 269.132 123.181 266.191 120.949 265.224C118.718 264.257 117.213 265.737 117.213 265.737C117.213 265.737 116.194 250.745 115.823 248.743C115.451 246.74 109.685 247.226 109.559 248.93C109.061 254.56 109.797 267.964 109.797 268.774C109.801 269.062 108.581 269.44 108.488 269.142C108.395 268.843 103.395 252.277 102.5 250.936C101.605 249.596 97.4345 250.375 97.0756 252.476C96.9041 253.698 100.11 271.604 101.711 278.259C99.417 280.37 99.2597 283.007 101.15 284.943C102.63 286.448 111.482 292.53 111.482 292.53C111.482 292.53 109.93 293.383 109.92 294.686C109.911 295.99 111.809 296.479 112.589 296.745C112.694 296.785 112.788 296.851 112.862 296.936C112.936 297.021 112.987 297.123 113.012 297.233C113.561 299.66 116.494 314.675 117.194 318.342C117.217 318.529 117.302 318.704 117.435 318.838C117.569 318.971 117.743 319.057 117.93 319.08C122.317 320.017 126.88 319.68 131.082 318.109C137.315 315.76 138.966 312.803 139.735 311.539C139.811 311.407 139.85 311.257 139.848 311.105C139.846 310.953 139.803 310.804 139.723 310.674Z" fill="#6A2D32"/>
<path d="M127.84 273.347C125.249 280.004 123.259 281.241 122.347 281.437L122.153 281.478C121.577 281.506 121.003 281.406 120.47 281.185C119.938 280.965 119.461 280.629 119.074 280.202C118.808 279.924 118.609 279.591 118.49 279.226C118.372 278.86 118.338 278.473 118.39 278.093C118.068 278.488 117.681 278.826 117.245 279.09C117.012 279.223 116.758 279.317 116.495 279.367C115.334 279.616 114.024 279.174 113.321 278.862C112.686 279.808 111.501 280.756 110.447 281.503C111.814 281.461 113.165 281.814 114.337 282.519C116.956 284.213 117.787 287.678 117.816 287.816C117.848 287.963 117.82 288.116 117.738 288.242C117.657 288.368 117.529 288.457 117.382 288.488C117.311 288.507 117.238 288.512 117.166 288.501C117.093 288.491 117.024 288.466 116.962 288.428C116.899 288.39 116.845 288.339 116.803 288.28C116.761 288.22 116.732 288.153 116.716 288.081C116.71 288.054 115.945 284.892 113.729 283.459C111.513 282.026 108.121 282.928 108.093 282.934C107.961 282.972 107.82 282.96 107.696 282.902C107.571 282.843 107.473 282.742 107.418 282.616C107.363 282.486 107.358 282.341 107.404 282.208C107.45 282.075 107.545 281.964 107.668 281.897C108.808 281.277 111.892 279.342 112.571 277.924L112.559 277.869L112.586 277.863C112.779 277.466 112.883 277.032 112.894 276.591C112.904 276.15 112.819 275.712 112.645 275.306C112.518 275.034 112.329 274.796 112.093 274.611C111.858 274.426 111.582 274.298 111.288 274.238C109.607 273.818 105.656 274.81 101.684 278.265L101.417 277.021C105.299 273.817 109.429 272.584 111.545 273.142L112.04 273.296C113.39 268.264 113.792 266.905 117.095 264.375C117.161 265.084 117.178 265.571 117.208 265.709C114.697 267.752 114.365 269.038 113.095 273.764L113.02 273.953C113.283 274.194 113.501 274.48 113.664 274.798C114.088 275.771 114.128 276.868 113.773 277.869C114.571 278.218 115.896 278.599 116.666 278.145C117.981 277.4 119.475 274.39 119.99 273.152C120.506 271.913 121.092 270.602 121.129 270.507C121.192 270.371 121.306 270.265 121.447 270.213C121.517 270.188 121.591 270.176 121.665 270.179C121.739 270.182 121.812 270.199 121.88 270.23C121.947 270.262 122.008 270.306 122.058 270.36C122.108 270.415 122.148 270.479 122.173 270.548C122.199 270.618 122.211 270.692 122.208 270.766C122.205 270.84 122.187 270.913 122.156 270.981C122.129 270.987 121.661 272.041 121.092 273.436L121.065 273.442C120.443 274.992 119.749 276.876 119.484 278.205C119.446 278.433 119.462 278.667 119.529 278.889C119.597 279.11 119.715 279.312 119.874 279.481C120.156 279.773 120.496 280.004 120.873 280.157C121.249 280.31 121.654 280.383 122.06 280.371C122.796 280.299 124.682 278.304 126.776 272.968C126.799 272.899 126.836 272.835 126.885 272.78C126.934 272.726 126.994 272.682 127.061 272.652C127.127 272.621 127.199 272.604 127.273 272.603C127.346 272.601 127.419 272.615 127.486 272.642C127.626 272.69 127.74 272.791 127.806 272.923C127.872 273.054 127.885 273.207 127.84 273.347Z" fill="black"/>
<path d="M116.646 294.227C116.718 294.215 116.787 294.189 116.849 294.15C116.91 294.111 116.963 294.06 117.005 294C117.046 293.939 117.074 293.871 117.088 293.8C117.102 293.728 117.102 293.654 117.086 293.583C117.074 293.51 117.048 293.439 117.009 293.376C116.97 293.313 116.919 293.258 116.858 293.214C116.798 293.171 116.73 293.14 116.657 293.123C116.585 293.106 116.51 293.103 116.436 293.115C115.236 293.315 113.18 293.438 111.432 292.57C111.084 292.771 110.767 293.024 110.495 293.32C112.62 294.599 115.163 294.458 116.618 294.233L116.646 294.227Z" fill="#4C131A"/>
<path d="M132.508 297.938L126.895 287.951C125.764 289.23 124.336 290.211 122.737 290.81C122.705 290.829 122.677 290.855 122.656 290.886C122.634 290.917 122.62 290.952 122.615 290.99C122.609 291.027 122.611 291.065 122.622 291.101C122.632 291.137 122.651 291.17 122.676 291.199C124.173 292.786 129.214 295.926 132.508 297.938Z" fill="#4C131A"/>
<path d="M16.572 340.366C16.4222 341.15 15.8637 342.86 15.0843 345.022C13.9852 348.121 12.444 352.124 11.0329 355.521L-9.06476 359.833L-6.51117 353.27L-1.21853 339.527L-0.265377 337.096L16.572 340.366Z" fill="#AA5F44"/>
<path d="M16.5719 340.366C16.3077 341.695 14.8731 345.791 13.1918 350.084C7.51596 348.295 1.22135 343.891 -1.2245 339.499L-0.265421 337.096L16.5719 340.366Z" fill="black"/>
<path d="M-30.8457 347.272L-28.4651 321.169C-28.4651 321.169 -30.1675 320.378 -30.6457 319.093C-31.124 317.807 -29.7166 315.336 -29.7166 315.336C-29.7166 315.336 -33.1156 313.376 -35.1699 311.215C-36.3966 309.945 -39.3656 306.216 -36.9196 303.464C-35.2001 301.505 -32.3484 302.397 -32.3484 302.397C-32.3484 302.397 -34.0078 299.919 -32.3969 298.127C-30.786 296.336 -28.7794 297.062 -28.7794 297.062C-28.7794 297.062 -33.9727 282.966 -34.4827 280.993C-34.9927 279.02 -29.5074 277.092 -28.6658 278.588C-25.9295 283.524 -21.102 296.051 -20.77 296.789C-20.6554 297.054 -19.3877 296.898 -19.3976 296.582C-19.4076 296.266 -21.6988 279.118 -21.405 277.522C-21.1112 275.926 -17.0158 274.932 -15.8542 276.707C-15.1687 277.745 -10.7467 295.391 -9.50476 302.122C-6.51872 303.101 -5.29377 305.441 -6.22321 307.982C-6.95531 309.961 -12.5335 319.139 -12.5335 319.139C-12.5335 319.139 -10.7957 319.287 -10.2247 320.466C-9.65369 321.644 -11.2114 322.875 -11.8412 323.444C-11.9154 323.527 -11.9704 323.626 -12.0025 323.732C-12.0345 323.839 -12.0428 323.952 -12.0267 324.062C-11.5047 326.495 -8.01938 341.391 -7.1535 345.023C-7.11085 345.203 -7.1232 345.393 -7.18894 345.567C-7.25469 345.741 -7.37084 345.891 -7.52252 345.998C-11.1403 348.649 -15.4392 350.214 -19.9147 350.508C-26.5912 350.928 -29.3089 348.909 -30.5019 348.066C-30.63 347.981 -30.7308 347.861 -30.7918 347.72C-30.8529 347.579 -30.8716 347.423 -30.8457 347.272Z" fill="#6A2D32"/>
<path d="M110.07 314.926L109.499 315.772C108.074 317.755 104.059 322.896 97.9142 326.875L96.8856 327.471C94.7768 328.627 92.5827 329.62 90.3224 330.441C90.6942 332.848 91.0247 335.467 91.2032 338.32L24.7454 352.579C23.8077 350.107 22.997 347.588 22.3165 345.032C19.9092 345.211 17.4919 345.207 15.085 345.022L13.9298 344.894C6.6941 343.786 0.89551 340.751 -1.21777 339.527L-2.08482 338.99C-2.08482 338.99 0.778574 331.58 3.9951 322.851C5.23434 319.462 7.84333 313.292 10.3369 311.167C14.3052 307.829 22.0534 305.53 48.1776 299.925L48.2053 299.919C74.3571 294.308 82.3387 293.231 87.3272 294.648C90.5008 295.557 95.3835 300.12 97.9316 302.696C104.446 309.337 110.07 314.926 110.07 314.926Z" fill="url(#paint6_linear_15219_102833)"/>
<path d="M90.4821 330.378C89.6911 326.152 88.752 322.045 88.7342 321.962C88.7097 321.829 88.7313 321.692 88.7953 321.573C88.817 321.539 90.3211 318.845 90.5931 316.878C90.6 316.805 90.6218 316.734 90.6572 316.67C90.6926 316.605 90.7409 316.549 90.799 316.504C90.8571 316.459 90.9238 316.426 90.995 316.408C91.0663 316.39 91.1404 316.387 91.213 316.398C91.2862 316.405 91.3572 316.427 91.4215 316.462C91.4859 316.498 91.5424 316.546 91.5874 316.604C91.6324 316.662 91.665 316.729 91.6831 316.8C91.7013 316.871 91.7047 316.946 91.693 317.018C91.4585 318.89 90.2546 321.231 89.8815 321.918C90.0713 322.803 90.8522 326.308 91.5463 329.947L90.4821 330.378ZM20.0431 336.324C20.0096 336.302 17.5328 334.463 16.5055 332.774C16.4659 332.71 16.4139 332.654 16.3525 332.611C16.2911 332.567 16.2215 332.536 16.1479 332.519C16.0743 332.503 15.9981 332.501 15.9239 332.514C15.8496 332.528 15.7788 332.556 15.7155 332.597C15.6516 332.633 15.5959 332.682 15.5517 332.741C15.5075 332.8 15.4758 332.867 15.4586 332.938C15.4414 333.01 15.4391 333.084 15.4517 333.156C15.4643 333.229 15.4917 333.298 15.5321 333.359C16.5416 334.964 18.572 336.611 19.1942 337.085C19.384 337.969 20.0603 341.525 20.942 345.096L22.0833 345.024C21.083 340.901 20.2763 336.737 20.2644 336.681C20.2534 336.61 20.2282 336.542 20.1902 336.48C20.1521 336.419 20.1021 336.366 20.0431 336.324Z" fill="black"/>
<path d="M78.358 290.442C76.8966 290.236 74.689 290.594 74.689 290.594C73.6298 287.813 72.3473 284.532 71.3856 284.362C70.4239 284.193 57.6712 284.731 45.5076 287.341C33.3439 289.951 21.5856 294.584 20.6577 295.246C19.7297 295.908 20.0545 299.308 20.2014 302.284C20.2014 302.284 18.0412 302.863 16.821 303.646C15.6008 304.428 15.9924 306.657 19.1236 311.278C21.8695 315.315 24.6712 321.365 30.4443 324.955C45.0399 334.085 53.4395 338.326 56.3146 337.709C59.1896 337.093 65.0823 329.785 74.6481 315.471C78.4677 309.822 78.541 303.156 79.3889 298.347C80.3491 292.849 80.0859 290.679 78.358 290.442Z" fill="#FF6666"/>
<path d="M35.508 303.945C35.5044 303.797 35.5591 303.653 35.6602 303.545C35.7614 303.437 35.901 303.373 36.049 303.366C38.071 303.221 39.9294 303.661 41.6929 304.064C44.3471 304.709 46.8453 305.301 50.1744 304.239C53.5035 303.178 55.3593 301.45 57.7363 299.32C59.681 297.602 61.9159 295.618 65.1125 293.805C69.5964 291.252 72.5404 290.013 74.2405 289.446C74.3729 289.794 74.5112 290.169 74.6653 290.483C73.0205 291.038 70.1535 292.232 65.6696 294.784C62.5717 296.519 60.3862 298.462 58.4692 300.175C55.9875 302.356 53.8514 304.26 50.5223 305.321L49.2625 305.649C46.2216 306.302 43.7846 305.726 41.4365 305.16C39.673 304.757 37.9983 304.365 36.1144 304.48C36.0393 304.485 35.9638 304.476 35.8924 304.452C35.821 304.428 35.7552 304.39 35.6987 304.34C35.6422 304.29 35.5962 304.229 35.5635 304.162C35.5308 304.094 35.5119 304.02 35.508 303.945ZM29.4432 309.642L24.1188 307.603C20.8068 306.318 20.2254 303.204 20.1462 302.296L19.0365 302.65C19.2264 303.939 20.0488 307.233 23.7063 308.646L29.0643 310.706C34.7896 312.861 40.7045 315.091 44.6545 317.193C44.7735 317.257 44.9107 317.279 45.0435 317.254C45.1987 317.209 45.3317 317.109 45.4167 316.972C45.4813 316.835 45.4939 316.679 45.4521 316.534C45.4102 316.388 45.3168 316.263 45.1894 316.182C41.1782 314.064 35.2297 311.812 29.4432 309.642ZM71.2031 303.458C71.1321 303.445 71.0594 303.447 70.9892 303.463C70.9189 303.479 70.8526 303.509 70.7942 303.551C70.7359 303.593 70.6866 303.647 70.6493 303.709C70.612 303.77 70.5875 303.839 70.5772 303.91C70.2796 306.027 69.3938 309.311 66.8513 313.096C57.7297 326.649 56.111 329.078 51.047 325.827C50.9863 325.784 50.9173 325.754 50.8444 325.739C50.7715 325.724 50.6962 325.724 50.6235 325.74C50.5507 325.755 50.4819 325.786 50.4216 325.829C50.3613 325.873 50.3106 325.929 50.2729 325.993C50.2006 326.12 50.1775 326.269 50.2081 326.412C50.2388 326.554 50.321 326.681 50.439 326.767C52.3469 327.977 53.8735 328.488 55.3387 328.174C58.5178 327.492 61.5222 323.03 67.7698 313.737C70.4425 309.751 71.3756 306.284 71.6831 304.078C71.6947 304.005 71.6914 303.931 71.6732 303.86C71.655 303.788 71.6224 303.722 71.5774 303.664C71.5324 303.606 71.476 303.557 71.4116 303.522C71.3472 303.486 71.2762 303.465 71.2031 303.458Z" fill="#CC2140"/>
<path d="M106.158 224.186C105.477 223.923 104.86 223.519 104.345 223.002C103.831 222.485 103.431 221.865 103.171 221.183L102.29 218.827C102.265 218.774 102.223 218.731 102.17 218.706C102.117 218.68 102.057 218.674 102 218.687C101.946 218.698 101.897 218.729 101.864 218.774C101.831 218.818 101.815 218.873 101.82 218.928L101.955 221.444C102.009 222.173 101.904 222.906 101.646 223.59C101.389 224.275 100.985 224.895 100.463 225.408L100.201 225.666C100.17 225.698 100.148 225.738 100.137 225.781C100.125 225.823 100.126 225.869 100.138 225.911C100.144 225.955 100.163 225.996 100.19 226.031C100.218 226.066 100.254 226.093 100.296 226.109L100.641 226.237C101.327 226.49 101.95 226.89 102.466 227.409C102.981 227.928 103.378 228.552 103.628 229.24L104.531 231.562C104.543 231.621 104.579 231.672 104.629 231.704C104.68 231.737 104.741 231.748 104.799 231.736C104.861 231.723 104.916 231.688 104.953 231.637C104.99 231.586 105.007 231.524 105.001 231.461L104.844 228.979C104.801 228.251 104.911 227.521 105.168 226.838C105.425 226.155 105.823 225.534 106.336 225.015L106.626 224.751C106.678 224.68 106.701 224.592 106.689 224.506C106.664 224.422 106.607 224.351 106.531 224.308L106.158 224.186Z" fill="#40DF80"/>
<path d="M146.965 281.217C146.286 280.951 145.67 280.546 145.156 280.03C144.642 279.513 144.241 278.894 143.978 278.214L143.097 275.859C143.072 275.805 143.03 275.762 142.977 275.737C142.924 275.711 142.864 275.705 142.806 275.718C142.752 275.73 142.704 275.76 142.671 275.805C142.638 275.849 142.622 275.904 142.627 275.959L142.789 278.469C142.83 279.201 142.715 279.932 142.453 280.616C142.192 281.3 141.788 281.921 141.27 282.439L141.007 282.698C140.978 282.724 140.956 282.759 140.943 282.797C140.931 282.835 140.929 282.876 140.938 282.915C140.943 282.955 140.96 282.993 140.987 283.024C141.015 283.054 141.051 283.075 141.09 283.085L141.442 283.241C142.125 283.494 142.746 283.89 143.265 284.402C143.784 284.914 144.188 285.53 144.45 286.21L145.331 288.565C145.35 288.621 145.386 288.668 145.435 288.7C145.484 288.731 145.542 288.745 145.6 288.739C145.659 288.721 145.71 288.685 145.747 288.636C145.783 288.586 145.802 288.526 145.801 288.465L145.639 285.955C145.6 285.23 145.714 284.506 145.972 283.828C146.23 283.151 146.626 282.534 147.137 282.019L147.421 281.726C147.451 281.7 147.473 281.665 147.485 281.627C147.497 281.589 147.499 281.548 147.49 281.509C147.478 281.472 147.458 281.437 147.432 281.408C147.406 281.379 147.374 281.356 147.338 281.339L146.965 281.217Z" fill="#63B9FF"/>
<path d="M6.78933 291.398C6.32573 291.227 5.9047 290.957 5.5552 290.608C5.20569 290.259 4.93601 289.838 4.7647 289.374L4.16001 287.769C4.14504 287.732 4.11709 287.7 4.08123 287.682C4.04537 287.663 4.00396 287.657 3.96449 287.667C3.92477 287.674 3.88921 287.696 3.86423 287.728C3.83925 287.76 3.82649 287.8 3.82827 287.84L3.93536 289.552C3.96927 290.045 3.89599 290.54 3.72055 291.002C3.54511 291.464 3.27168 291.882 2.91907 292.228L2.75521 292.408C2.73113 292.425 2.71304 292.45 2.70348 292.478C2.69392 292.506 2.69338 292.536 2.70194 292.564C2.70575 292.594 2.71867 292.621 2.73886 292.643C2.75906 292.664 2.78552 292.679 2.81452 292.685L3.0377 292.781C3.50328 292.958 3.92551 293.232 4.27583 293.586C4.62615 293.94 4.89638 294.365 5.06826 294.833L5.66701 296.41C5.68199 296.448 5.70993 296.479 5.74579 296.498C5.78165 296.517 5.82306 296.522 5.86254 296.513C5.90225 296.505 5.93781 296.483 5.9628 296.451C5.98778 296.419 6.00053 296.379 5.99875 296.339L5.8976 294.655C5.86263 294.158 5.93473 293.659 6.10904 293.193C6.28335 292.727 6.5558 292.303 6.90796 291.951L7.09945 291.765C7.13403 291.721 7.15278 291.666 7.15273 291.609C7.12961 291.558 7.08999 291.515 7.04014 291.489L6.78933 291.398Z" fill="#40DF80"/>
<path d="M85.3752 269.649C84.9116 269.478 84.4906 269.209 84.1411 268.859C83.7916 268.51 83.5219 268.089 83.3506 267.626L82.7518 266.048C82.7368 266.01 82.7089 265.979 82.673 265.961C82.6372 265.942 82.5958 265.936 82.5563 265.945C82.5166 265.953 82.481 265.975 82.456 266.007C82.4311 266.039 82.4183 266.079 82.4201 266.119L82.5212 267.804C82.5552 268.297 82.4819 268.791 82.3064 269.253C82.131 269.715 81.8576 270.134 81.505 270.48L81.3134 270.665C81.2878 270.711 81.2788 270.764 81.2878 270.815C81.3007 270.866 81.3307 270.911 81.3728 270.942L81.6236 271.033C82.0872 271.204 82.5082 271.473 82.8577 271.822C83.2072 272.172 83.4769 272.593 83.6482 273.056L84.2529 274.661C84.2924 274.711 84.3655 274.782 84.4484 274.764C84.4881 274.756 84.5237 274.734 84.5487 274.702C84.5737 274.671 84.5864 274.631 84.5846 274.59L84.4776 272.878C84.4436 272.385 84.5169 271.891 84.6924 271.429C84.8678 270.967 85.1412 270.548 85.4938 270.202L85.6853 270.017C85.711 269.971 85.72 269.918 85.711 269.866C85.6981 269.816 85.6681 269.771 85.626 269.74L85.3752 269.649Z" fill="#5865F2"/>
<path d="M131.97 235.998C131.506 235.826 131.085 235.557 130.736 235.208C130.386 234.858 130.116 234.437 129.945 233.974L129.34 232.369C129.325 232.331 129.298 232.3 129.262 232.281C129.226 232.262 129.184 232.257 129.145 232.266C129.105 232.274 129.07 232.296 129.045 232.328C129.02 232.36 129.007 232.399 129.009 232.44L129.116 234.152C129.15 234.645 129.076 235.139 128.901 235.601C128.726 236.063 128.452 236.482 128.1 236.828L127.908 237.014C127.884 237.031 127.866 237.055 127.856 237.083C127.847 237.111 127.846 237.141 127.855 237.17C127.859 237.199 127.871 237.226 127.892 237.248C127.912 237.27 127.938 237.284 127.967 237.29L128.218 237.381C128.682 237.552 129.103 237.821 129.452 238.171C129.802 238.52 130.071 238.941 130.243 239.404L130.847 241.01C130.862 241.047 130.89 241.078 130.926 241.097C130.962 241.116 131.004 241.121 131.043 241.112C131.083 241.104 131.118 241.083 131.143 241.051C131.168 241.019 131.181 240.979 131.179 240.939L131.072 239.226C131.038 238.734 131.111 238.239 131.287 237.777C131.462 237.315 131.736 236.897 132.088 236.55L132.252 236.371C132.276 236.354 132.294 236.329 132.304 236.301C132.314 236.273 132.314 236.243 132.306 236.215C132.302 236.185 132.289 236.158 132.269 236.136C132.248 236.115 132.222 236.1 132.193 236.094L131.97 235.998Z" fill="#D43B8C"/>
</g>
</g>
<path d="M77.8058 31.8561C76.2843 30.8856 74.9896 29.5949 74.0111 28.0728C73.0325 26.5507 72.3932 24.8333 72.137 23.0387L71.2094 16.8146C71.1848 16.6681 71.109 16.5353 70.9956 16.4402C70.8821 16.345 70.7386 16.2939 70.591 16.296C70.4434 16.2939 70.2999 16.345 70.1864 16.4402C70.073 16.5353 69.9972 16.6681 69.9726 16.8146L69.045 23.0387C68.7888 24.8333 68.1495 26.5507 67.1709 28.0728C66.1924 29.5949 64.8977 30.8856 63.3762 31.8561L62.5517 32.3748C62.4527 32.4178 62.3696 32.491 62.3141 32.5841C62.2586 32.6771 62.2336 32.7853 62.2425 32.8935C62.2336 33.0016 62.2586 33.1098 62.3141 33.2029C62.3696 33.2959 62.4527 33.3691 62.5517 33.4121L63.3762 33.9308C64.8977 34.9013 66.1924 36.192 67.1709 37.7141C68.1495 39.2363 68.7888 40.9537 69.045 42.7482L69.9726 48.9723C69.9972 49.1188 70.073 49.2517 70.1864 49.3468C70.2999 49.4419 70.4434 49.4931 70.591 49.491C70.7386 49.4931 70.8821 49.4419 70.9956 49.3468C71.109 49.2517 71.1848 49.1188 71.2094 48.9723L72.137 42.7482C72.3932 40.9537 73.0325 39.2363 74.0111 37.7141C74.9896 36.192 76.2843 34.9013 77.8058 33.9308L78.5273 33.4121C78.6263 33.3691 78.7093 33.2959 78.7648 33.2029C78.8203 33.1098 78.8453 33.0016 78.8365 32.8935C78.8453 32.7853 78.8203 32.6771 78.7648 32.5841C78.7093 32.491 78.6263 32.4178 78.5273 32.3748L77.8058 31.8561Z" fill="#D43B8C"/>
<g clip-path="url(#clip3_15219_102833)">
<path d="M261.744 319.395L265.343 309.34C266.784 305.308 269.709 301.977 273.521 300.027L300.059 286.457C303.798 284.539 307.593 289.034 305.03 292.381C302.468 295.728 297.958 299.621 290.788 302.562L298.799 302.506C301.991 302.478 303.224 306.651 300.535 308.374C295.97 311.329 289.108 313.765 280.285 311.217L283.562 314.298C285.285 315.922 283.996 318.793 281.629 318.625C278.268 318.359 274.263 317.365 271.532 314.424C271.532 314.424 269.726 319.395 264.95 322.126C263.158 323.148 261.057 321.342 261.744 319.395Z" fill="white"/>
<path d="M239.124 375.613C240.354 371.939 237.432 367.649 232.599 366.031C227.765 364.414 222.85 366.082 221.621 369.757C220.391 373.431 223.313 377.721 228.146 379.338C232.98 380.956 237.895 379.288 239.124 375.613Z" fill="#66B9FF"/>
<path d="M252.193 358.845C251.674 360.413 250.414 361.603 248.635 362.402C249.056 363.648 249.098 364.88 248.706 366.043C248.313 367.205 247.375 368.339 246.115 369.124C246.386 370.058 246.376 371.052 246.087 371.981C244.672 376.168 237.32 377.484 229.66 374.907C222 372.331 216.916 366.855 218.316 362.668C218.655 361.724 219.27 360.904 220.081 360.315C219.577 358.971 219.479 357.626 219.899 356.38C220.319 355.134 221.075 354.265 222.154 353.523C221.215 351.815 220.935 350.092 221.453 348.538C223.008 343.902 231.158 342.446 239.645 345.289C248.131 348.131 253.747 354.209 252.193 358.845Z" fill="#89D6FF"/>
<path d="M216.579 313.583C220.823 300.909 237.838 295.182 254.559 300.797C271.28 306.413 281.405 321.229 277.161 333.903C274.389 342.165 266.196 347.473 256.197 348.621C255.113 348.737 254.073 349.114 253.168 349.722C252.263 350.33 251.519 351.149 251.002 352.108L249.251 355.399C247.375 358.438 241.493 359.307 235.401 357.262C228.875 355.077 224.562 350.386 225.612 346.689L226.158 343.846C226.364 342.744 226.291 341.609 225.947 340.542C225.602 339.476 224.996 338.513 224.184 337.74C217.07 330.822 213.835 321.761 216.579 313.583Z" fill="#FFEFA3"/>
<path d="M242.488 365.063C239.715 365.063 236.69 364.544 233.693 363.536C229.016 361.982 224.941 359.363 222.49 356.366C222.374 356.246 222.283 356.103 222.225 355.947C222.167 355.79 222.142 355.623 222.152 355.456C222.162 355.289 222.206 355.126 222.283 354.977C222.359 354.829 222.465 354.698 222.595 354.592C222.725 354.487 222.875 354.41 223.036 354.365C223.197 354.321 223.366 354.311 223.531 354.336C223.697 354.36 223.855 354.419 223.996 354.508C224.138 354.597 224.259 354.715 224.353 354.854C226.523 357.5 230.206 359.839 234.45 361.267C238.455 362.612 242.6 363.004 245.849 362.346C246.009 362.299 246.177 362.286 246.342 362.308C246.507 362.33 246.666 362.386 246.808 362.472C246.951 362.558 247.074 362.673 247.17 362.809C247.266 362.945 247.332 363.1 247.365 363.263C247.398 363.427 247.397 363.595 247.362 363.758C247.327 363.921 247.258 364.074 247.16 364.209C247.062 364.344 246.938 364.457 246.794 364.541C246.65 364.626 246.491 364.679 246.325 364.698C245.062 364.951 243.776 365.073 242.488 365.063ZM242.11 371.532C242.428 371.504 242.723 371.351 242.93 371.108C243.137 370.864 243.239 370.549 243.216 370.23C243.188 369.913 243.035 369.62 242.791 369.415C242.546 369.21 242.231 369.111 241.914 369.138C238.959 369.39 235.472 368.9 232.111 367.765C228.47 366.547 225.221 364.684 222.98 362.514C222.746 362.329 222.451 362.237 222.153 362.257C221.855 362.277 221.575 362.406 221.368 362.621C221.16 362.836 221.039 363.12 221.029 363.418C221.02 363.717 221.121 364.008 221.314 364.236C223.806 366.659 227.377 368.718 231.341 370.048C234.408 371.07 237.474 371.602 240.317 371.602C240.933 371.602 241.522 371.574 242.11 371.532Z" fill="#3F96EF"/>
<path d="M220.893 315.936C224.492 305.167 238.93 300.308 253.13 305.069C267.33 309.831 275.915 322.406 272.302 333.176C269.949 340.192 263.003 344.687 254.517 345.653C253.596 345.753 252.713 346.076 251.944 346.593C251.176 347.11 250.545 347.807 250.105 348.622L248.621 351.423C247.024 354 242.039 354.742 236.857 353.005C231.326 351.143 227.657 347.166 228.553 344.029L229.029 341.606C229.2 340.671 229.136 339.708 228.842 338.803C228.549 337.899 228.036 337.082 227.348 336.425C221.299 330.557 218.568 322.869 220.893 315.936Z" fill="url(#paint7_linear_15219_102833)"/>
<path d="M237.46 357.851C238.245 358.031 239.04 358.167 239.841 358.257C243.552 344.743 247.459 334.128 250.946 327.868C258.761 330.389 261.659 329.324 262.696 327.952C263.732 326.579 263.382 324.661 261.659 322.168C259.937 319.675 258.27 318.877 256.254 319.241C254.237 319.605 252.067 321.482 249.868 324.969C247.788 324.216 245.754 323.342 243.776 322.35C244.21 317.743 243.664 314.648 242.166 313.009C241.269 312.029 239.561 311.063 236.578 312.001C233.595 312.939 233.049 314.466 233.035 315.586C232.993 318.317 236.732 321.286 241.199 323.709C240.009 332.447 235.864 345.401 231.915 355.75C232.611 356.135 233.332 356.477 234.071 356.772C235.598 352.739 237.754 346.787 239.645 340.598C241.535 334.408 242.852 329.072 243.468 324.871C245.218 325.711 246.983 326.453 248.636 327.07C246.801 330.403 244.896 334.828 242.95 340.247C241.591 344.015 239.631 349.896 237.46 357.851ZM256.674 321.608C257.052 321.538 258.172 321.342 259.685 323.526C260.945 325.361 260.973 326.257 260.791 326.495C260.315 327.126 257.584 327.392 252.221 325.753C253.845 323.274 255.357 321.832 256.674 321.608ZM241.479 321.104C237.768 318.961 235.416 316.818 235.43 315.628C235.444 314.956 236.746 314.48 237.306 314.298C237.803 314.129 238.322 314.034 238.847 314.018C239.827 314.018 240.233 314.452 240.387 314.634C241.395 315.726 241.703 318.023 241.479 321.104Z" fill="#FFC31A"/>
<path d="M227.643 316.426L228.301 306.231C228.564 302.145 227.257 298.112 224.646 294.958L206.497 272.985C203.92 269.89 198.907 272.397 199.887 276.304C200.867 280.211 203.332 285.351 208.527 290.644L201.511 287.564C198.725 286.331 196.064 289.524 197.772 292.059C200.671 296.372 205.769 301.106 214.479 302.212L210.432 303.682C208.303 304.453 208.345 307.463 210.488 308.206C213.541 309.256 217.434 309.9 220.949 308.346C220.949 308.346 220.641 313.387 223.806 317.602C224.996 319.185 227.517 318.401 227.643 316.426Z" fill="white"/>
<path d="M269.361 326.467C269.782 330.262 269.88 333.231 271.42 333.063C272.96 332.895 275.341 329.646 274.921 325.851C274.501 322.055 271.434 319.143 269.894 319.311C268.353 319.479 268.941 322.672 269.361 326.467Z" fill="white"/>
</g>
</g>
<rect x="197.529" y="20" width="60" height="60" rx="30" transform="rotate(15 197.529 20)" fill="white" fill-opacity="0.1"/>
<g clip-path="url(#clip4_15219_102833)">
<path d="M229.714 71.1631C228.142 71.8948 226.357 72.0358 224.689 71.5587L206.185 66.6006C204.502 66.1797 203.027 65.1653 202.032 63.7457C201.167 62.5908 200.633 61.2234 200.487 59.7893C200.34 58.3547 200.586 56.9084 201.199 55.6046L204.125 49.4209C205.658 52.036 207.699 54.3201 210.126 56.1391C212.553 57.9581 215.319 59.2772 218.262 60.0183C223.875 61.5602 229.861 60.963 235.053 58.3415L234.506 64.5291C234.384 65.9646 233.875 67.3404 233.03 68.5092C232.187 69.6784 231.04 70.5952 229.714 71.1631Z" fill="#AAFAE7"/>
<path d="M235.052 58.3411C229.859 60.9625 223.873 61.5598 218.261 60.0179C215.318 59.2768 212.552 57.9577 210.125 56.1387C207.698 54.3196 205.657 52.0356 204.124 49.4205L206.358 44.6349C207.007 43.2015 208.151 42.0479 209.58 41.3857C211.01 40.722 212.631 40.5927 214.149 41.0215C214.843 41.1789 215.495 41.4789 216.065 41.904C216.633 42.3302 217.107 42.8705 217.453 43.4906C218.14 44.7404 218.317 46.2067 217.944 47.581L224.013 49.2073C224.191 48.509 224.516 47.8567 224.968 47.2952C225.42 46.7338 225.987 46.2745 226.631 45.9498C227.212 45.5814 227.866 45.3448 228.547 45.2534C229.228 45.1634 229.922 45.2211 230.58 45.4243C232.158 45.7918 233.545 46.7272 234.477 48.0521C235.388 49.3254 235.763 50.9034 235.52 52.4489L235.052 58.3411Z" fill="#7CE4CC"/>
<path d="M217.395 56.1441C217.237 56.1161 217.092 56.0375 216.981 55.9224C216.869 55.8084 216.798 55.661 216.773 55.5025L216.656 53.5708C216.635 53.4621 216.636 53.35 216.662 53.2429C216.688 53.1342 216.737 53.0334 216.804 52.947C216.874 52.8595 216.959 52.789 217.059 52.738C217.158 52.6885 217.267 52.6592 217.378 52.6556C217.713 52.5871 218.078 53.0016 218.147 53.3368L218.224 55.4162C218.252 55.5139 218.255 55.6175 218.231 55.7173C218.207 55.8171 218.161 55.909 218.093 55.9843C218.025 56.0611 217.939 56.119 217.843 56.1533C217.747 56.1895 217.643 56.1996 217.543 56.1837L217.395 56.1441Z" fill="#23272A"/>
<path d="M220.208 56.8971L220.06 56.8575C219.965 56.8209 219.88 56.7601 219.816 56.681C219.749 56.6031 219.704 56.5103 219.684 56.4097C219.663 56.3107 219.668 56.2076 219.698 56.1094C219.727 56.0112 219.781 55.9227 219.854 55.852L220.961 54.0899C221.188 53.834 221.711 53.6575 221.967 53.8846C222.061 53.943 222.141 54.023 222.202 54.1154C222.263 54.2092 222.302 54.313 222.318 54.4235C222.333 54.5322 222.326 54.6441 222.294 54.7512C222.262 54.8567 222.208 54.9545 222.134 55.0378L221.067 56.6522C220.969 56.7778 220.831 56.8693 220.677 56.9119C220.524 56.9564 220.359 56.9517 220.208 56.8971Z" fill="#23272A"/>
<path d="M213.373 47.4648C213.176 47.4121 213.009 47.2834 212.907 47.1087C212.806 46.9329 212.778 46.7243 212.831 46.5277C213.108 45.4935 212.822 44.7835 212.378 44.6645C211.934 44.5455 211.183 44.9778 210.906 46.0121C210.854 46.2086 210.725 46.3752 210.55 46.4772C210.374 46.5774 210.165 46.6053 209.968 46.5525C209.771 46.4998 209.604 46.3711 209.502 46.1964C209.401 46.0206 209.373 45.812 209.426 45.6155C209.901 43.8424 211.294 42.7904 212.774 43.187C214.254 43.5836 214.786 45.1514 214.311 46.9244C214.258 47.1209 214.13 47.2875 213.955 47.3895C213.779 47.4896 213.57 47.5176 213.373 47.4648Z" fill="#23272A"/>
<path d="M231.433 52.3047C231.236 52.2519 231.069 52.1232 230.967 51.9485C230.866 51.7728 230.838 51.5641 230.891 51.3676C231.168 50.3333 230.882 49.6233 230.29 49.4647C229.698 49.306 229.243 49.8177 228.966 50.8519C228.914 51.0485 228.785 51.2151 228.61 51.3171C228.434 51.4172 228.225 51.4451 228.028 51.3924C227.831 51.3396 227.664 51.2109 227.562 51.0363C227.462 50.8605 227.433 50.6518 227.486 50.4553C227.961 48.6823 229.354 47.6302 230.686 47.9872C232.018 48.3442 232.846 49.9912 232.371 51.7642C232.318 51.9607 232.19 52.1274 232.015 52.2294C231.839 52.3295 231.63 52.3574 231.433 52.3047Z" fill="#23272A"/>
<path d="M218.062 60.7563C211.91 59.149 206.643 55.1754 203.412 49.7047C203.313 49.5308 203.287 49.3244 203.339 49.1309C203.391 48.9373 203.516 48.7714 203.689 48.6705C203.891 48.5693 204.123 48.5444 204.342 48.6031C204.561 48.6618 204.749 48.7994 204.873 48.9878C206.335 51.5219 208.291 53.7373 210.624 55.5057C212.957 57.2727 215.621 58.5552 218.458 59.2788C223.861 60.8375 229.658 60.2322 234.617 57.5911C234.819 57.4899 235.051 57.465 235.27 57.5237C235.489 57.5824 235.678 57.72 235.802 57.9084C235.846 58.0977 235.828 58.297 235.751 58.4745C235.675 58.6536 235.544 58.8038 235.376 58.903C230.068 61.7485 223.856 62.4134 218.062 60.7563Z" fill="#23272A"/>
<path d="M233.431 62.0244C235.803 62.6598 238.114 61.7193 238.595 59.9241C239.076 58.1289 237.545 56.1588 235.173 55.5233C232.802 54.8879 230.49 55.8284 230.009 57.6236C229.528 59.4187 231.06 61.3889 233.431 62.0244Z" fill="#E9459D"/>
<path d="M203.38 53.9726C205.751 54.608 208.063 53.6675 208.544 51.8723C209.025 50.0772 207.493 48.107 205.122 47.4716C202.751 46.8361 200.439 47.7766 199.958 49.5718C199.477 51.367 201.009 53.3372 203.38 53.9726Z" fill="#E9459D"/>
</g>
<defs>
<filter id="filter0_d_15219_102833" x="-50.9453" y="75.3218" width="254.058" height="167.099" filterUnits="userSpaceOnUse" color-interpolation-filters="sRGB">
<feFlood flood-opacity="0" result="BackgroundImageFix"/>
<feColorMatrix in="SourceAlpha" type="matrix" values="0 0 0 0 0 0 0 0 0 0 0 0 0 0 0 0 0 0 127 0" result="hardAlpha"/>
<feOffset dy="7.09617"/>
<feGaussianBlur stdDeviation="7.09617"/>
<feColorMatrix type="matrix" values="0 0 0 0 0 0 0 0 0 0 0 0 0 0 0 0 0 0 0.24 0"/>
<feBlend mode="normal" in2="BackgroundImageFix" result="effect1_dropShadow_15219_102833"/>
<feBlend mode="normal" in="SourceGraphic" in2="effect1_dropShadow_15219_102833" result="shape"/>
</filter>
<filter id="filter1_d_15219_102833" x="-96.142" y="191.202" width="276.15" height="199.85" filterUnits="userSpaceOnUse" color-interpolation-filters="sRGB">
<feFlood flood-opacity="0" result="BackgroundImageFix"/>
<feColorMatrix in="SourceAlpha" type="matrix" values="0 0 0 0 0 0 0 0 0 0 0 0 0 0 0 0 0 0 127 0" result="hardAlpha"/>
<feOffset dy="7.09617"/>
<feGaussianBlur stdDeviation="7.09617"/>
<feColorMatrix type="matrix" values="0 0 0 0 0 0 0 0 0 0 0 0 0 0 0 0 0 0 0.24 0"/>
<feBlend mode="normal" in2="BackgroundImageFix" result="effect1_dropShadow_15219_102833"/>
<feBlend mode="normal" in="SourceGraphic" in2="effect1_dropShadow_15219_102833" result="shape"/>
</filter>
<linearGradient id="paint0_linear_15219_102833" x1="7.60432" y1="170.634" x2="-4.78916" y2="107.049" gradientUnits="userSpaceOnUse">
<stop stop-color="#EB459F"/>
<stop offset="0.23" stop-color="#F154A7"/>
<stop offset="0.71" stop-color="#FB6EB4"/>
<stop offset="1" stop-color="#FF78B9"/>
</linearGradient>
<linearGradient id="paint1_linear_15219_102833" x1="73.742" y1="201.222" x2="75.6736" y2="177.797" gradientUnits="userSpaceOnUse">
<stop stop-color="#EB459F"/>
<stop offset="0.42" stop-color="#F45CAB"/>
<stop offset="1" stop-color="#FF78B9"/>
</linearGradient>
<linearGradient id="paint2_linear_15219_102833" x1="376.956" y1="580.962" x2="377.586" y2="573.323" gradientUnits="userSpaceOnUse">
<stop stop-color="#EB459F"/>
<stop offset="0.42" stop-color="#F45CAB"/>
<stop offset="1" stop-color="#FF78B9"/>
</linearGradient>
<linearGradient id="paint3_linear_15219_102833" x1="31.0486" y1="219.988" x2="42.272" y2="272.298" gradientUnits="userSpaceOnUse">
<stop stop-color="#D18D5E"/>
<stop offset="0.31" stop-color="#CE8A5C"/>
<stop offset="0.56" stop-color="#C68057"/>
<stop offset="0.78" stop-color="#B8704D"/>
<stop offset="0.93" stop-color="#AA5F44"/>
</linearGradient>
<linearGradient id="paint4_linear_15219_102833" x1="48.0157" y1="299.067" x2="34.6646" y2="236.841" gradientUnits="userSpaceOnUse">
<stop offset="0.36" stop-color="#D18D5E"/>
<stop offset="0.5" stop-color="#CC875A"/>
<stop offset="0.69" stop-color="#BC7450"/>
<stop offset="0.85" stop-color="#AA5F44"/>
</linearGradient>
<linearGradient id="paint5_linear_15219_102833" x1="124.965" y1="309.131" x2="130.861" y2="336.613" gradientUnits="userSpaceOnUse">
<stop stop-color="#D18D5E"/>
<stop offset="0.48" stop-color="#C07953"/>
<stop offset="1" stop-color="#AA5F44"/>
</linearGradient>
<linearGradient id="paint6_linear_15219_102833" x1="49.2733" y1="304.924" x2="60.199" y2="355.845" gradientUnits="userSpaceOnUse">
<stop stop-color="#3F99F2"/>
<stop offset="0.25" stop-color="#2F88E9"/>
<stop offset="0.53" stop-color="#247BE2"/>
<stop offset="0.8" stop-color="#2077E0"/>
</linearGradient>
<linearGradient id="paint7_linear_15219_102833" x1="272.809" y1="281.098" x2="207.058" y2="390.095" gradientUnits="userSpaceOnUse">
<stop offset="0.14" stop-color="#FFE45C"/>
<stop offset="0.83" stop-color="#FFC31A"/>
</linearGradient>
<clipPath id="clip0_15219_102833">
<rect width="324" height="573" fill="white" transform="translate(0 -5)"/>
</clipPath>
<clipPath id="clip1_15219_102833">
<rect width="216.433" height="121.338" fill="white" transform="translate(-26.7812 82.418) rotate(4.71396)"/>
</clipPath>
<clipPath id="clip2_15219_102833">
<rect x="-81.9497" y="245.749" width="226.19" height="126.837" rx="7.09617" transform="rotate(-12.1097 -81.9497 245.749)" fill="white"/>
</clipPath>
<clipPath id="clip3_15219_102833">
<rect width="110.871" height="112.033" fill="white" transform="translate(195 268)"/>
</clipPath>
<clipPath id="clip4_15219_102833">
<rect width="40" height="28" fill="white" transform="translate(203.047 38.043) rotate(15)"/>
</clipPath>
</defs>
</svg>
