<svg width="24" height="24" viewBox="0 0 24 24" fill="none" xmlns="http://www.w3.org/2000/svg">
<path d="M17.8364 6.00904C16.7593 5.30654 15.9815 4.18284 15.7389 2.87256C15.6866 2.58912 15.6579 2.29779 15.6579 2H12.2193L12.2135 15.7801C12.1554 17.3236 10.886 18.5621 9.32893 18.5621C8.84529 18.5621 8.38964 18.4409 7.98852 18.2299C7.0686 17.7456 6.43858 16.7811 6.43858 15.6718C6.43858 14.0781 7.73522 12.7814 9.32893 12.7814C9.62672 12.7814 9.91159 12.8302 10.1821 12.9149V9.40456C9.90298 9.36653 9.61883 9.34285 9.32893 9.34285C5.83941 9.34285 3 12.1823 3 15.6718C3 17.813 4.06989 19.7081 5.70164 20.8533C6.72991 21.5752 7.97991 22 9.32893 22C12.8185 22 15.6579 19.1613 15.6579 15.6711V8.68341C17.0062 9.65141 18.6587 10.2219 20.4419 10.2219V6.7833C19.4818 6.7833 18.587 6.4977 17.8371 6.00832L17.8364 6.00904Z" fill="white"/>
</svg>
