<svg width="257" height="406" viewBox="0 0 257 406" fill="none" xmlns="http://www.w3.org/2000/svg">
<g clip-path="url(#clip0_15219_102821)">
<g clip-path="url(#clip1_15219_102821)" filter="url(#filter0_d_15219_102821)">
<path d="M71.5318 114.472L59.8438 215.999C59.62 217.943 60.1777 219.897 61.3943 221.43C62.611 222.963 64.3868 223.95 66.3313 224.174L258.918 246.345C260.862 246.569 262.816 246.011 264.349 244.795C265.882 243.578 266.869 241.802 267.093 239.858L278.781 138.331C279.005 136.387 278.447 134.433 277.23 132.9C276.014 131.367 274.238 130.38 272.294 130.156L79.7073 107.985C77.7628 107.761 75.8091 108.319 74.2759 109.535C72.7427 110.752 71.7556 112.528 71.5318 114.472Z" fill="#808AFF"/>
<path d="M113.584 229.614L217.312 241.555C211.938 224.846 205.268 217.804 194.818 212.585L192.823 211.673C191.624 211.141 190.296 210.594 188.835 210.059C185.839 208.953 182.37 207.845 178.607 206.781L175.196 205.864L175.17 205.861C165.435 203.323 154.229 201.245 144.481 200.648C142.552 200.531 140.694 200.474 138.909 200.479L136.959 200.543C121.883 201.301 116.846 210.854 113.584 229.614Z" fill="#F5F4CB"/>
<path d="M196.19 235.553C197.572 235.407 198.863 234.797 199.854 233.823C200.742 232.954 201.377 231.767 201.835 230.297C202.3 228.656 202.505 226.953 202.442 225.248C202.428 225.079 202.447 224.909 202.498 224.748C202.55 224.586 202.633 224.436 202.743 224.307C202.854 224.178 202.988 224.072 203.14 223.996C203.291 223.92 203.456 223.874 203.626 223.862C203.966 223.839 204.301 223.95 204.56 224.171C204.819 224.393 204.981 224.706 205.012 225.046C205.258 228.381 204.4 234.241 200.133 236.874C199.033 237.54 197.803 237.962 196.525 238.112L196.209 238.128C195.922 238.092 195.655 237.962 195.451 237.757C195.246 237.553 195.115 237.287 195.078 237C195.055 236.832 195.065 236.661 195.108 236.497C195.151 236.332 195.227 236.178 195.33 236.044C195.434 235.909 195.563 235.796 195.711 235.712C195.858 235.628 196.021 235.574 196.19 235.553ZM131.359 212.025C131.53 212.019 131.701 212.046 131.862 212.106C132.022 212.166 132.17 212.257 132.295 212.374C132.421 212.491 132.522 212.631 132.593 212.787C132.664 212.943 132.704 213.112 132.71 213.283C132.701 213.361 132.97 220.374 137.957 225.621C138.944 226.654 140.057 227.558 141.27 228.312C141.519 228.471 141.708 228.709 141.804 228.989C141.9 229.268 141.898 229.572 141.799 229.85C141.7 230.129 141.509 230.365 141.258 230.521C141.007 230.677 140.71 230.743 140.416 230.708C140.229 230.68 140.049 230.614 139.887 230.515C139.04 229.994 138.239 229.401 137.493 228.744C130.467 222.737 130.134 213.774 130.104 213.351C130.098 213.009 130.226 212.68 130.46 212.432C130.695 212.184 131.018 212.038 131.359 212.025Z" fill="#FFCA5F"/>
<path d="M137.492 228.744C137.303 229.93 137.088 231.112 136.848 232.292L200.24 239.59C200.209 238.72 200.181 237.825 200.133 236.874C200.084 235.923 199.971 234.86 199.854 233.823C199.062 226.566 196.936 217.895 192.823 211.673C191.624 211.141 190.296 210.595 188.835 210.059C185.839 208.953 182.37 207.845 178.607 206.782L175.196 205.864L175.17 205.861C165.435 203.323 154.229 201.245 144.48 200.648C142.551 200.531 140.694 200.474 138.909 200.479L136.959 200.543C139.042 205.245 139.428 214.897 137.957 225.621C137.837 226.657 137.663 227.714 137.492 228.744Z" fill="#B6C7F5"/>
<path d="M143.302 203.819C143.497 206.913 146.725 209.883 150.504 210.344C150.911 210.392 151.321 210.413 151.731 210.407C150.966 210.828 150.344 211.469 149.946 212.246C149.548 213.024 149.391 213.902 149.496 214.769C149.811 218.192 153.251 221.37 157.137 221.818C159.471 222.06 161.372 221.282 162.403 219.852C162.328 220.365 162.33 220.888 162.408 221.401C162.893 224.948 166.505 228.225 170.368 228.643C174.231 229.062 176.735 226.463 176.038 222.944C175.936 222.487 175.794 222.04 175.614 221.609C177.143 223.15 179.192 224.278 181.29 224.52C184.972 224.917 187.248 222.476 186.397 219.149C185.932 217.258 184.537 215.47 182.788 214.245C183.176 214.35 183.57 214.431 183.968 214.486C187.307 214.896 189.4 212.906 188.835 210.058C185.839 208.952 182.37 207.844 178.607 206.781L175.196 205.863L175.17 205.86C165.435 203.322 154.229 201.245 144.481 200.647C144.059 201.054 143.734 201.55 143.53 202.099C143.326 202.648 143.248 203.236 143.302 203.819Z" fill="#5865F2"/>
<path d="M154.473 205.053C155.321 212.054 161.208 217.693 167.788 218.45C175.949 219.39 180.42 211.557 178.608 206.781L175.196 205.863L175.17 205.86L154.473 205.053Z" fill="#0EC2BC"/>
<path d="M124.708 165.14C122.616 190.834 147.768 209.715 177.183 210.949C206.598 212.183 222.909 189.754 222.087 172.492C221.055 150.901 198.332 142.615 170.402 141.027C144.167 139.529 126.305 145.794 124.708 165.14Z" fill="url(#paint0_linear_15219_102821)"/>
<path d="M142.307 145.196L168.936 143.038C168.884 128.673 161.421 123.955 155.653 124.578C150.389 125.153 142.836 133.077 142.307 145.196Z" fill="#34F4CF"/>
<path d="M177.83 143.536L204.318 148.528C205.231 136.952 200.735 129.714 194.719 128.392C188.703 127.069 181.147 133.418 177.83 143.536Z" fill="#34F4CF"/>
<path d="M145.705 201.865C154.591 207.219 165.556 210.477 177.183 210.949C183.843 211.243 189.831 210.305 195.108 208.471C212.538 196.382 210.627 177.184 205.042 170.976L181.626 171.666L150.073 163.702C153.055 176.331 150.37 193.95 145.705 201.865Z" fill="#ADFDDC"/>
<path opacity="0.5" d="M171.368 187.128C169.666 189.373 172.56 193.643 178.118 194.388C183.676 195.133 189.298 189.848 189.509 188.245C189.72 186.642 185.58 188.396 180.025 187.625C174.47 186.855 172.668 185.413 171.368 187.128Z" fill="#34F4CF"/>
<path d="M193.892 137.405C197.558 138.168 200.033 142.207 198.912 143.732C197.792 145.257 195.8 143.636 192.414 142.721C189.028 141.806 186.748 142.226 186.669 140.406C186.59 138.586 190.2 136.639 193.892 137.405Z" fill="black"/>
<path d="M156.62 134.191C152.446 134.419 149.537 137.575 150.31 139.292C151.084 141.008 153.366 139.88 156.872 139.758C160.377 139.637 162.486 140.011 163.019 138.576C163.738 136.664 160.396 133.995 156.62 134.191Z" fill="black"/>
<path d="M151.559 158.545C154.208 162.572 157.335 166.264 160.872 169.54C166.257 174.517 173.693 179.468 182.489 180.139C186.363 180.454 189.608 179.857 192.282 178.747C202.318 174.574 204.492 162.985 204.492 162.985C204.492 162.985 193.751 164.164 184.412 163.43C175.073 162.696 151.559 158.545 151.559 158.545Z" fill="#9E0960"/>
<path d="M160.872 169.54C166.257 174.518 173.693 179.469 182.488 180.14C186.363 180.455 189.608 179.857 192.282 178.748C186.701 172.278 173.815 167.014 160.872 169.54Z" fill="#FF78B9"/>
<path d="M145.647 172.276C149.619 174.255 154.963 171.616 157.613 166.382C160.263 161.149 159.2 155.33 155.254 153.353C151.308 151.377 145.938 154.013 143.288 159.247C140.638 164.481 141.701 170.299 145.647 172.276ZM203.429 157.167C207.636 155.735 212.611 159.038 214.547 164.563C216.484 170.088 214.702 175.763 210.52 177.198C206.339 178.633 201.367 175.304 199.405 169.776C197.443 164.248 199.248 158.602 203.429 157.167Z" fill="#5865F2"/>
<g opacity="0.4">
<path opacity="0.4" d="M82.4177 217.6C74.062 216.638 68.0683 209.084 69.0302 200.729C69.9921 192.373 77.5455 186.379 85.9011 187.341C94.2567 188.303 100.25 195.857 99.2886 204.212C98.3266 212.568 90.7733 218.562 82.4177 217.6Z" fill="black"/>
</g>
<path d="M88.9367 204.753C89.453 204.014 89.7771 203.158 89.8796 202.263L88.2993 202.081C88.2511 202.56 88.1083 203.026 87.8792 203.45L88.9367 204.753ZM83.3984 202.698L81.9771 200.907L78.3093 196.284L79.5515 195.299L90.6237 209.252L89.3815 210.238L86.5619 206.684L85.5762 205.442L83.3984 202.698ZM80.3173 201.188C80.2033 202.238 80.5075 203.29 81.1639 204.118C81.8204 204.945 82.7763 205.48 83.8246 205.608L85.0396 207.139L84.4547 207.203L84.0819 210.441L82.5276 210.262L82.9004 207.024C81.5964 206.685 80.4582 205.887 79.6942 204.777C78.9302 203.667 78.5915 202.319 78.74 200.98L80.3203 201.162L80.3173 201.188ZM85.118 194.601C85.7526 194.674 86.3326 194.994 86.7324 195.492C87.1321 195.991 87.3191 196.626 87.2529 197.262L86.7131 201.951L82.4722 196.606C82.5696 195.995 82.8992 195.446 83.3922 195.072C83.8852 194.698 84.5035 194.529 85.118 194.601Z" fill="white"/>
</g>
<g clip-path="url(#clip2_15219_102821)" filter="url(#filter1_d_15219_102821)">
<path d="M317.863 219H124.005C119.929 219 116.625 222.304 116.625 226.38V328.574C116.625 332.65 119.929 335.954 124.005 335.954H317.863C321.939 335.954 325.243 332.65 325.243 328.574V226.38C325.243 222.304 321.939 219 317.863 219Z" fill="#34F4CF"/>
<path d="M180.931 320.597C175.742 320.622 170.562 321.058 165.442 321.901C151.256 324.326 142.05 329.802 136.913 335.957H182.783L180.931 320.597ZM270.663 321.223C267.113 320.83 263.544 320.621 259.972 320.597L258.12 335.957H303.99C298.279 329.124 287.614 323.127 270.663 321.223Z" fill="#FFF2B0"/>
<path d="M268.734 335.957H166.12C165.233 331.002 164.842 326.073 165.442 321.901C166.38 315.304 169.744 310.505 177.333 310.323C176.446 299.631 178.871 293.373 188.416 291L255.434 295.772C262.658 298.093 266.882 301.535 263.518 312.904C268.264 314.078 270.35 316.581 270.663 321.223C270.924 324.77 270.142 329.568 268.734 335.957Z" fill="#EE65AE"/>
<path d="M266.491 314C263.44 319.241 258.824 325.343 252.931 327.612C252.78 327.663 252.621 327.689 252.461 327.69C252.199 327.694 251.942 327.616 251.727 327.466C251.512 327.316 251.349 327.103 251.262 326.856C251.199 326.697 251.17 326.527 251.174 326.356C251.178 326.185 251.217 326.017 251.287 325.862C251.358 325.706 251.459 325.566 251.584 325.45C251.71 325.334 251.857 325.245 252.018 325.187C257.077 323.257 261.223 317.833 264.04 313.035C264.889 313.268 265.711 313.591 266.491 314ZM190.45 329.542C181.975 325.448 178.454 315.382 177.176 310.323C176.308 310.343 175.443 310.448 174.595 310.636C175.153 312.939 175.885 315.197 176.785 317.39C179.68 324.3 184.035 329.307 189.328 331.863C189.504 331.958 189.703 332.003 189.902 331.993C190.143 331.995 190.38 331.927 190.584 331.797C190.787 331.668 190.949 331.482 191.049 331.263C191.125 331.111 191.169 330.945 191.179 330.776C191.19 330.606 191.166 330.437 191.11 330.276C191.055 330.116 190.967 329.969 190.854 329.843C190.741 329.716 190.603 329.614 190.45 329.542Z" fill="#D11583"/>
<path d="M248.576 306.672C246.75 319.137 229.566 326.595 216.605 325.108C202.836 323.518 190.241 312.304 193.709 300.205L248.576 306.672Z" fill="#0049B2"/>
<path d="M245.447 242.131C242.667 242.308 239.892 241.717 237.426 240.422C234.96 239.128 232.898 237.179 231.465 234.791C230.033 232.402 229.285 229.665 229.304 226.88C229.323 224.095 230.108 221.369 231.574 219H257.416C258.788 221.233 259.56 223.782 259.656 226.401C259.752 229.02 259.17 231.619 257.966 233.946C256.761 236.274 254.976 238.25 252.782 239.684C250.589 241.118 248.062 241.961 245.447 242.131Z" fill="#242145"/>
<path d="M257.729 234.412C256.41 236.755 254.493 238.708 252.175 240.07C250.777 237.818 248.963 235.853 246.829 234.281C243.83 232.065 236.737 229.9 229.566 229.692C229.461 229.118 229.383 228.518 229.331 227.945C229.205 225.91 229.489 223.87 230.165 221.947C238.328 222.234 246.803 224.607 251.444 228.049C253.855 229.833 255.975 231.979 257.729 234.412Z" fill="#423D80"/>
<path d="M204.636 259.185C195.509 236.863 191.336 232.065 190.006 232.456C187.503 233.16 185.13 247.868 193.657 269.825L204.636 259.185Z" fill="#245EED"/>
<path d="M200.855 253.083C204.949 239.236 207.713 232.247 215.823 228.31C226.123 223.303 242.943 226.562 249.124 231.178C257.729 237.567 260.78 247.737 258.485 260.28C256.347 271.911 262.266 276.839 260.884 290.765C259.085 308.81 238.275 321.562 214.128 317.572C198.012 314.912 188.729 303.881 185.391 292.773C182.731 284.011 184.843 275.223 188.833 269.459C194.466 261.323 198.455 261.141 200.855 253.083Z" fill="url(#paint1_linear_15219_102821)"/>
<path d="M253.14 266.721C268.916 248.493 274.627 245.025 275.54 246.068C276.87 247.58 274.445 263.514 259.789 280.151L253.14 266.721Z" fill="#4C7DFF"/>
<path d="M258.485 260.28L257.755 264.714L257.625 264.635C254.469 262.653 250.87 252.744 250.792 237.072V236.654C245.394 237.411 236.319 236.628 231.026 235.716C224.793 234.646 217.857 232.586 215.093 230.083L214.467 231.934C210.868 242 205.235 250.658 200.62 253.813L200.854 253.083C204.636 240.305 207.295 232.978 214.075 228.805C214.623 228.461 215.189 228.148 215.771 227.866L215.875 227.814C226.149 222.833 242.943 226.563 249.123 231.178C249.749 231.622 250.323 232.091 250.897 232.586C252.013 233.575 253.035 234.666 253.948 235.846C258.798 242.105 260.284 250.475 258.485 260.28Z" fill="#242145"/>
<path d="M244.378 295.172C243.658 296.354 242.78 297.433 241.77 298.379L240.909 299.11C234.573 304.273 224.533 305.133 218.613 304.403C215.046 303.96 211.595 302.845 208.443 301.117C204.688 299.005 201.637 296.006 199.76 292.382C198.827 290.554 198.185 288.592 197.856 286.566C197.334 283.463 198.012 279.082 201.194 276.996C203.462 275.536 206.618 275.744 208.626 276.501C209.015 276.66 209.39 276.852 209.747 277.074C213.268 279.447 216.058 282.55 222.108 283.333C227.115 283.985 230.974 283.933 235.199 282.524C236.491 282.075 237.847 281.838 239.214 281.82C241.535 281.82 243.778 282.55 245.108 284.637C247.038 287.688 246.49 291.756 244.378 295.172Z" fill="#D11583"/>
<path d="M244.378 295.172C243.658 296.354 242.781 297.433 241.77 298.379L240.91 299.109C234.573 304.273 224.533 305.133 218.613 304.403C215.046 303.96 211.595 302.845 208.443 301.117C209.68 299.632 211.141 298.347 212.772 297.31C215.98 295.224 220.309 293.503 225.341 292.773C229.123 292.225 232.408 292.147 235.225 292.434C237.012 292.6 238.777 292.949 240.492 293.477C241.848 293.891 243.152 294.46 244.378 295.172Z" fill="#EE65AE"/>
<path d="M235.199 282.524C230.974 283.933 227.115 283.985 222.108 283.333C216.058 282.55 213.268 279.447 209.747 277.074C209.39 276.852 209.015 276.66 208.626 276.5C208.691 277.891 209 279.259 209.539 280.542C211.129 284.611 216.267 287.792 220.361 288.757C225.107 289.852 232.747 288.626 235.616 286.488C237.22 285.29 238.464 283.676 239.215 281.82C237.847 281.838 236.491 282.075 235.199 282.524ZM240.492 293.477C240.237 292.488 239.906 291.52 239.501 290.582C238.224 287.662 236.529 288.392 235.746 290.999L235.225 292.434L233.347 297.649C230.009 297.493 223.62 299.475 217.936 298.875C216.126 298.708 214.37 298.176 212.772 297.31C210.504 296.084 209.148 294.494 207.296 293.842L206.67 286.775C206.592 284.063 205.158 282.915 203.176 285.393C201.528 287.437 200.361 289.825 199.76 292.382C201.637 296.006 204.688 299.005 208.443 301.117C211.596 302.845 215.046 303.96 218.614 304.403C224.533 305.133 234.573 304.273 240.91 299.109C240.963 298.817 240.989 298.52 240.988 298.223C241.041 296.626 240.874 295.029 240.492 293.477Z" fill="white"/>
<path d="M255.33 286.097C255.337 286.267 255.31 286.436 255.25 286.596C255.191 286.755 255.1 286.901 254.984 287.025C254.867 287.149 254.727 287.248 254.571 287.317C254.416 287.386 254.248 287.423 254.078 287.427H254.052C253.715 287.427 253.391 287.297 253.148 287.063C252.905 286.83 252.762 286.512 252.748 286.175C252.618 281.768 249.645 278.039 245.89 277.439C245.552 277.387 245.249 277.205 245.044 276.932C244.839 276.659 244.75 276.317 244.795 275.979C244.852 275.639 245.04 275.335 245.317 275.131C245.594 274.927 245.94 274.838 246.281 274.883C251.34 275.666 255.147 280.386 255.33 286.097ZM200.802 268.494C196.76 268.886 191.988 272.067 190.945 276.709C190.907 276.877 190.902 277.05 190.931 277.22C190.96 277.39 191.022 277.552 191.114 277.698C191.207 277.843 191.327 277.969 191.468 278.068C191.609 278.167 191.768 278.236 191.936 278.273H192.223C192.517 278.274 192.801 278.173 193.029 277.987C193.257 277.802 193.415 277.544 193.475 277.256C194.231 273.788 198.012 271.337 201.063 271.05C201.405 271.011 201.717 270.838 201.932 270.569C202.147 270.301 202.247 269.958 202.21 269.616C202.194 269.449 202.145 269.286 202.065 269.139C201.985 268.991 201.876 268.861 201.744 268.756C201.613 268.652 201.462 268.575 201.3 268.53C201.138 268.485 200.969 268.473 200.802 268.494Z" fill="#0049B2"/>
<path d="M215.458 262.549C215.666 261.428 221.117 258.064 226.932 259.107C232.747 260.15 236.711 265.131 236.502 266.278C236.294 267.425 232.017 264.218 226.202 263.175C220.386 262.132 215.275 263.67 215.458 262.549Z" fill="black"/>
<path d="M219.63 250.475C219.317 252.77 223.255 251.075 227.792 251.649C232.33 252.222 235.694 254.882 235.981 252.588C236.268 250.293 233.138 245.677 228.627 245.103C224.116 244.53 219.917 248.207 219.63 250.475Z" fill="#242145"/>
<path d="M267.378 277.178C267.289 277.653 267.025 278.077 266.639 278.367C266.253 278.656 265.772 278.791 265.291 278.743C264.509 278.665 264.327 278.143 263.988 277.726C263.649 277.309 263.388 276.866 263.075 276.422C262.475 275.538 261.935 274.614 261.458 273.658C261.383 273.502 261.34 273.334 261.331 273.161C261.322 272.989 261.348 272.816 261.406 272.654C261.464 272.491 261.554 272.342 261.67 272.214C261.787 272.087 261.927 271.984 262.084 271.911C262.316 271.803 262.574 271.763 262.827 271.795C263.081 271.827 263.321 271.931 263.518 272.093C264.318 272.815 265.067 273.59 265.761 274.414C266.1 274.832 266.439 275.223 266.752 275.64C267.065 276.057 267.508 276.396 267.378 277.178ZM192.223 257.907C191.195 258.19 190.192 258.557 189.224 259.003L187.79 259.655C187.32 259.915 186.773 259.994 186.564 260.776C186.441 261.233 186.49 261.719 186.701 262.142C186.913 262.565 187.272 262.895 187.712 263.071C188.442 263.358 188.859 262.966 189.328 262.732L190.737 261.975C191.664 261.448 192.553 260.856 193.396 260.202C193.599 260.042 193.749 259.825 193.828 259.579C193.907 259.332 193.911 259.068 193.84 258.82C193.798 258.651 193.722 258.493 193.617 258.355C193.512 258.216 193.379 258.101 193.228 258.016C193.077 257.93 192.909 257.877 192.737 257.858C192.564 257.839 192.389 257.856 192.223 257.907Z" fill="#FFE75C"/>
</g>
<path d="M205.65 68.7687C203.836 67.5594 202.292 65.9836 201.115 64.1415C199.939 62.2994 199.155 60.2311 198.815 58.0681L197.719 50.5947C197.68 50.4226 197.583 50.2694 197.444 50.161C197.306 50.0526 197.134 49.9958 196.959 50.0002C196.794 49.9989 196.634 50.0587 196.509 50.1683C196.385 50.2779 196.305 50.4296 196.284 50.5947L195.187 58.0681C194.847 60.2415 194.055 62.3181 192.863 64.1621C191.671 66.0061 190.105 67.5758 188.268 68.7687L187.34 69.3632C187.237 69.4233 187.151 69.5101 187.092 69.6145C187.032 69.719 187.002 69.8374 187.003 69.9577C186.991 70.0797 187.017 70.2023 187.078 70.3087C187.138 70.4151 187.23 70.5002 187.34 70.5521L188.268 71.2315C190.103 72.4071 191.668 73.9613 192.861 75.7913C194.053 77.6214 194.846 79.6855 195.187 81.8472L196.284 89.3206C196.302 89.4945 196.379 89.6568 196.502 89.7804C196.625 89.904 196.786 89.9815 196.959 90C197.142 89.9852 197.315 89.9108 197.452 89.7882C197.589 89.6656 197.682 89.5015 197.719 89.3206L198.815 81.8472C199.157 79.696 199.941 77.6403 201.118 75.8122C202.295 73.984 203.838 72.4238 205.65 71.2315L206.662 70.5521C206.766 70.492 206.852 70.4053 206.911 70.3008C206.97 70.1964 207.001 70.0779 207 69.9577C206.988 69.8404 206.951 69.727 206.893 69.6247C206.835 69.5223 206.757 69.4333 206.662 69.3632L205.65 68.7687Z" fill="#63B9FF"/>
<path d="M135.65 374.769C133.836 373.559 132.292 371.984 131.115 370.141C129.939 368.299 129.155 366.231 128.815 364.068L127.719 356.595C127.68 356.423 127.583 356.269 127.444 356.161C127.306 356.053 127.134 355.996 126.959 356C126.794 355.999 126.634 356.059 126.509 356.168C126.385 356.278 126.305 356.43 126.284 356.595L125.187 364.068C124.847 366.241 124.055 368.318 122.863 370.162C121.671 372.006 120.105 373.576 118.268 374.769L117.34 375.363C117.237 375.423 117.151 375.51 117.092 375.615C117.032 375.719 117.002 375.837 117.003 375.958C116.991 376.08 117.017 376.202 117.078 376.309C117.138 376.415 117.23 376.5 117.34 376.552L118.268 377.232C120.103 378.407 121.668 379.961 122.861 381.791C124.053 383.621 124.846 385.686 125.187 387.847L126.284 395.321C126.302 395.494 126.379 395.657 126.502 395.78C126.625 395.904 126.786 395.982 126.959 396C127.142 395.985 127.315 395.911 127.452 395.788C127.589 395.666 127.682 395.502 127.719 395.321L128.815 387.847C129.157 385.696 129.941 383.64 131.118 381.812C132.295 379.984 133.838 378.424 135.65 377.232L136.662 376.552C136.766 376.492 136.852 376.405 136.911 376.301C136.97 376.196 137.001 376.078 137 375.958C136.988 375.84 136.951 375.727 136.893 375.625C136.835 375.522 136.757 375.433 136.662 375.363L135.65 374.769Z" fill="url(#paint2_linear_15219_102821)"/>
<rect x="179.625" y="-67" width="60" height="60" rx="30" transform="rotate(15 179.625 -67)" fill="white" fill-opacity="0.1"/>
</g>
<rect x="6" y="43.5293" width="60" height="60" rx="30" transform="rotate(-15 6 43.5293)" fill="white" fill-opacity="0.1"/>
<g clip-path="url(#clip3_15219_102821)">
<path d="M57.6667 67.8603C58.4642 67.0644 59.0356 66.0708 59.323 64.9823C59.6104 63.8938 59.6033 62.7493 59.3025 61.6654C58.8774 60.0787 57.8377 58.7257 56.4122 57.9037C54.9871 57.0832 53.293 56.8612 51.7028 57.2873L50.0116 57.7404C49.2982 49.5434 47.4998 43.4464 45.5315 43.4804C43.5631 43.5144 41.6306 50.4467 41.2784 59.5871L41.1246 59.6283C36.5569 51.8062 31.8373 46.4918 29.9619 47.4878C28.0865 48.4837 29.4238 54.7043 32.7919 62.3544L31.2544 62.7664C29.6867 63.2276 28.3564 64.2732 27.5387 65.6864C26.7212 67.0995 26.4791 68.7729 26.8619 70.3578C27.1434 71.4469 27.7095 72.4416 28.5026 73.2406C29.2958 74.0396 30.2874 74.6143 31.376 74.9049C30.1225 75.721 29.1963 76.9511 28.7594 78.379C28.3225 79.8069 28.4039 81.3443 28.9882 82.7174C29.5727 84.092 30.623 85.2152 31.9554 85.8927C33.2878 86.5702 34.8169 86.7575 36.2745 86.4212L59.1827 80.283C60.6132 79.8454 61.8438 78.9187 62.6589 77.6657C63.474 76.4128 63.822 74.9149 63.6409 73.4322C63.4604 71.951 62.7621 70.5789 61.6698 69.5607C60.5775 68.5425 59.1604 67.9403 57.6667 67.8603Z" fill="#E9459D"/>
<path d="M40.6355 65.1868C39.8896 64.8949 39.0607 64.8949 38.3137 65.1855C37.5672 65.4777 36.9578 66.039 36.6077 66.7594L36.454 66.8006L36.2287 67.1899L35.6441 66.8532C34.9807 66.4043 34.1723 66.2229 33.3796 66.3432C32.5875 66.465 31.8695 66.8794 31.3696 67.5051C31.2037 67.8719 31.1129 68.2679 31.1021 68.6689C31.0917 69.0713 31.1618 69.472 31.3079 69.8456C31.4546 70.2208 31.6743 70.5616 31.9547 70.8499C32.2352 71.1383 32.5703 71.3676 32.941 71.5248L33.0948 71.4836L33.4845 71.7081L36.2126 73.2798C36.7366 73.544 37.3398 73.606 37.9072 73.454C38.4745 73.302 38.9659 72.9466 39.2876 72.4558L40.7106 69.7719L41.0485 69.1879C41.4524 68.5748 41.6322 67.8424 41.5568 67.1126C41.4818 66.3844 41.1561 65.7035 40.6355 65.1868Z" fill="#F4DC53"/>
<path d="M54.1658 61.5618C53.42 61.2698 52.591 61.2699 51.8441 61.5605C51.0975 61.8527 50.4881 62.414 50.138 63.1344L49.9842 63.1756L49.759 63.5649L49.1744 63.2282C48.511 62.7793 47.7025 62.5979 46.91 62.7181C46.1177 62.84 45.3999 63.2543 44.8999 63.8801C44.734 64.2469 44.6432 64.643 44.6323 65.0439C44.622 65.4463 44.6921 65.847 44.8382 66.2206C44.9849 66.5958 45.2046 66.9366 45.485 67.2249C45.7654 67.5133 46.1007 67.7425 46.4713 67.8998L46.6251 67.8586L47.0148 68.0831L49.7429 69.6548C50.2669 69.919 50.8701 69.981 51.4374 69.829C52.0048 69.677 52.4962 69.3216 52.8178 68.8308L54.2409 66.1469L54.5788 65.563C54.9827 64.9498 55.1625 64.2174 55.087 63.4876C55.012 62.7594 54.6866 62.0785 54.1658 61.5618Z" fill="#F4DC53"/>
<path d="M42.1708 76.4533C41.9964 76.4573 41.8267 76.5093 41.6802 76.6045C41.5334 76.6981 41.415 76.8302 41.3379 76.9857C41.2612 77.1428 41.2282 77.3161 41.2434 77.4896C41.2584 77.6632 41.3208 77.8291 41.4235 77.9693C42.0225 78.8203 42.8685 79.467 43.848 79.823C44.827 80.1774 45.8922 80.2242 46.8994 79.956C47.8942 79.7026 48.7812 79.136 49.4288 78.3408C50.0765 77.5455 50.4501 76.5622 50.4946 75.5387C50.5135 75.3659 50.4845 75.1911 50.4108 75.0332C50.3371 74.8754 50.222 74.7417 50.077 74.644C49.9323 74.548 49.7638 74.4928 49.5898 74.4851C49.4154 74.4759 49.2424 74.5157 49.0894 74.5995C47.0549 75.9719 44.6191 76.6246 42.1708 76.4533Z" fill="#25272A"/>
</g>
<rect y="307.529" width="60" height="60" rx="30" transform="rotate(-15 0 307.529)" fill="white" fill-opacity="0.1"/>
<g clip-path="url(#clip4_15219_102821)">
<path d="M54.8463 319.034C55.5373 321.613 47.5527 326.08 36.8107 328.958C26.0687 331.836 16.9204 331.96 16.2295 329.381C16.1517 329.222 16.112 329.046 16.1152 328.868C16.1185 328.69 16.1638 328.516 16.2469 328.359L16.8809 327.461C19.0913 324.833 25.9707 321.68 34.2651 319.458C42.5596 317.235 50.0935 316.526 53.3222 317.697L54.1839 318.193L54.3198 318.157C54.5696 318.398 54.7511 318.7 54.8463 319.034Z" fill="#7B384D"/>
<path d="M53.3218 317.697C50.0932 316.526 42.5593 317.235 34.2648 319.458C25.9703 321.68 19.091 324.833 16.8806 327.461L27.1087 316.139C28.3208 314.26 30.19 312.898 32.352 312.319C34.514 311.74 36.8138 311.985 38.8026 313.005L53.3218 317.697Z" fill="#F9B083"/>
<path d="M41.3978 315.073C41.869 314.656 42.0682 314.312 41.9955 314.041L39.9005 313.293C39.2361 313.293 38.5779 313.42 37.9605 313.667C37.3897 314.256 38.8333 316.924 41.3978 315.073Z" fill="#EC1E79"/>
<path d="M24.5278 319.012C24.6638 318.976 24.7001 319.111 24.8725 319.211C28.4458 320.581 31.4878 314.529 30.4174 313.797L29.1936 314.125C28.3858 314.711 27.6917 315.438 27.1461 316.274L24.5278 319.012Z" fill="#EC1E79"/>
<path d="M42.5101 324.667L47.0557 341.632C47.1222 341.874 47.1366 342.129 47.0987 342.38C47.0618 342.628 46.9728 342.867 46.8391 343.081C46.7043 343.296 46.5274 343.478 46.3177 343.62C46.1093 343.762 45.8733 343.86 45.6248 343.906L36.6505 346.311C36.4122 346.395 36.1587 346.428 35.9074 346.41C35.6548 346.392 35.4103 346.322 35.186 346.203C34.9635 346.085 34.7669 345.922 34.6108 345.726C34.4529 345.528 34.3378 345.3 34.2741 345.057L29.7284 328.092C29.6463 327.791 29.6783 327.47 29.8178 327.191C29.9583 326.91 30.1975 326.693 30.4889 326.579C33.8584 325.094 37.4346 324.136 41.095 323.737C41.4046 323.691 41.7201 323.759 41.9821 323.931C42.2424 324.103 42.4307 324.365 42.5101 324.667Z" fill="#F9B083"/>
<path d="M52.0714 330.978C52.1837 331.326 52.2099 331.696 52.1458 332.055C52.0834 332.415 51.9339 332.755 51.7099 333.045C51.4856 333.333 51.1947 333.564 50.8608 333.716C50.5284 333.867 50.1635 333.936 49.7978 333.915C48.2657 334.18 47.0499 332.906 44.4932 333.154C41.9366 333.403 40.0788 334.628 39.3546 336.277C38.6305 337.925 38.7475 336.73 38.5388 336.495C38.3301 336.26 34.2224 335.615 32.3915 336.397C30.5605 337.178 29.6372 339.171 28.1778 339.708C27.8651 339.879 27.5185 339.978 27.1637 339.997C26.8076 340.017 26.4519 339.956 26.1229 339.822C25.794 339.688 25.4983 339.482 25.2601 339.218C25.0206 338.955 24.8434 338.642 24.7405 338.301C24.4589 338.659 24.2805 339.087 24.222 339.537C24.1621 339.988 24.2266 340.447 24.4069 340.864C24.5546 341.17 24.7656 341.441 25.0266 341.659C25.2876 341.877 25.5914 342.037 25.9203 342.128C26.2479 342.219 26.5913 342.239 26.9275 342.188C27.2647 342.136 27.5856 342.012 27.8711 341.826C27.8711 341.826 28.3264 344.614 31.4175 343.64C34.5086 342.666 33.3559 341.084 33.3559 341.084C33.3559 341.084 35.8319 342.166 37.119 341.53C37.6173 341.313 38.0669 340.994 38.4362 340.594C38.8056 340.194 39.0874 339.723 39.2661 339.21C39.3293 338.902 39.7373 338.792 40.0819 338.991C40.4934 339.346 40.973 339.613 41.4929 339.775C42.0129 339.937 42.5613 339.988 43.1018 339.927C44.3984 339.871 45.3312 338.457 46.0016 337.696C46.672 336.934 47.5622 339.169 48.9583 338.94C50.3544 338.711 51.1228 335.596 51.1228 335.596C51.4713 335.613 51.8207 335.558 52.1458 335.433C52.4725 335.309 52.7699 335.119 53.0192 334.874C53.2686 334.63 53.4638 334.336 53.5944 334.013C53.7247 333.689 53.7876 333.342 53.7775 332.994C53.7224 332.527 53.5318 332.088 53.2286 331.729C52.9256 331.37 52.5232 331.109 52.0714 330.978Z" fill="#7B384D"/>
<path d="M41.3187 331.095C41.1378 331.144 40.9458 331.118 40.7842 331.026C40.6236 330.932 40.5053 330.779 40.457 330.599C40.3115 330.056 39.9668 329.857 39.8308 329.894C39.6949 329.93 39.4956 330.275 39.6411 330.817C39.6895 330.998 39.6636 331.19 39.5713 331.351C39.4773 331.512 39.3239 331.63 39.143 331.678C38.9622 331.727 38.7702 331.701 38.6086 331.609C38.448 331.515 38.3297 331.362 38.2813 331.182C38.1559 330.714 38.2222 330.216 38.4652 329.796C38.7083 329.376 39.1072 329.07 39.5763 328.944C40.0454 328.818 40.5439 328.884 40.9644 329.126C41.385 329.368 41.6912 329.766 41.8167 330.235C41.8353 330.413 41.7973 330.592 41.7073 330.745C41.619 330.9 41.4827 331.022 41.3187 331.095Z" fill="#23272A"/>
<path d="M36.1502 332.48C35.9693 332.528 35.7774 332.503 35.6157 332.411C35.4551 332.317 35.3369 332.164 35.2885 331.984C35.143 331.441 34.7983 331.242 34.6624 331.279C34.5264 331.315 34.3272 331.659 34.4726 332.202C34.521 332.383 34.4951 332.574 34.4029 332.736C34.3089 332.896 34.1554 333.015 33.9746 333.063C33.796 333.082 33.6168 333.044 33.4631 332.954C33.3083 332.866 33.1859 332.73 33.1129 332.567C32.9874 332.098 33.0537 331.601 33.2968 331.181C33.5398 330.76 33.9387 330.454 34.4078 330.329C34.8769 330.203 35.3755 330.269 35.796 330.511C36.2165 330.753 36.5228 331.151 36.6482 331.619C36.6669 331.798 36.6288 331.976 36.5388 332.13C36.4505 332.285 36.3143 332.407 36.1502 332.48Z" fill="#23272A"/>
</g>
<defs>
<filter id="filter0_d_15219_102821" x="45.3201" y="100.301" width="247.985" height="167.408" filterUnits="userSpaceOnUse" color-interpolation-filters="sRGB">
<feFlood flood-opacity="0" result="BackgroundImageFix"/>
<feColorMatrix in="SourceAlpha" type="matrix" values="0 0 0 0 0 0 0 0 0 0 0 0 0 0 0 0 0 0 127 0" result="hardAlpha"/>
<feOffset dy="6.83993"/>
<feGaussianBlur stdDeviation="6.83993"/>
<feColorMatrix type="matrix" values="0 0 0 0 0 0 0 0 0 0 0 0 0 0 0 0 0 0 0.24 0"/>
<feBlend mode="normal" in2="BackgroundImageFix" result="effect1_dropShadow_15219_102821"/>
<feBlend mode="normal" in="SourceGraphic" in2="effect1_dropShadow_15219_102821" result="shape"/>
</filter>
<filter id="filter1_d_15219_102821" x="102.945" y="212.16" width="235.978" height="144.316" filterUnits="userSpaceOnUse" color-interpolation-filters="sRGB">
<feFlood flood-opacity="0" result="BackgroundImageFix"/>
<feColorMatrix in="SourceAlpha" type="matrix" values="0 0 0 0 0 0 0 0 0 0 0 0 0 0 0 0 0 0 127 0" result="hardAlpha"/>
<feOffset dy="6.83993"/>
<feGaussianBlur stdDeviation="6.83993"/>
<feColorMatrix type="matrix" values="0 0 0 0 0 0 0 0 0 0 0 0 0 0 0 0 0 0 0.24 0"/>
<feBlend mode="normal" in2="BackgroundImageFix" result="effect1_dropShadow_15219_102821"/>
<feBlend mode="normal" in="SourceGraphic" in2="effect1_dropShadow_15219_102821" result="shape"/>
</filter>
<linearGradient id="paint0_linear_15219_102821" x1="174.881" y1="143.009" x2="171.176" y2="209.953" gradientUnits="userSpaceOnUse">
<stop offset="0.13" stop-color="#34F4CF"/>
<stop offset="0.68" stop-color="#19D1C2"/>
<stop offset="1" stop-color="#0EC2BC"/>
</linearGradient>
<linearGradient id="paint1_linear_15219_102821" x1="234.742" y1="229.561" x2="205.449" y2="366.683" gradientUnits="userSpaceOnUse">
<stop offset="0.34" stop-color="#4C7DFF"/>
<stop offset="0.99" stop-color="#3464F0"/>
</linearGradient>
<linearGradient id="paint2_linear_15219_102821" x1="117" y1="389.012" x2="143.304" y2="382.832" gradientUnits="userSpaceOnUse">
<stop offset="0.09375" stop-color="#8497F8"/>
<stop offset="1" stop-color="#79DCF9"/>
</linearGradient>
<clipPath id="clip0_15219_102821">
<rect width="198" height="486" fill="white" transform="translate(59 -67)"/>
</clipPath>
<clipPath id="clip1_15219_102821">
<rect width="208.618" height="116.956" fill="white" transform="matrix(-0.993439 -0.114367 -0.114367 0.993439 279.625 131)"/>
</clipPath>
<clipPath id="clip2_15219_102821">
<rect width="208.618" height="116.956" fill="white" transform="translate(116.625 219)"/>
</clipPath>
<clipPath id="clip3_15219_102821">
<rect width="36" height="39.2658" fill="white" transform="translate(20.1792 50.083) rotate(-15)"/>
</clipPath>
<clipPath id="clip4_15219_102821">
<rect width="40" height="33.9514" fill="white" transform="translate(13.0239 317.498) rotate(-15)"/>
</clipPath>
</defs>
</svg>
