<svg width="80" height="80" viewBox="0 0 80 80" fill="none" xmlns="http://www.w3.org/2000/svg">
<path fill-rule="evenodd" clip-rule="evenodd" d="M16 0C7.16344 0 0 7.16344 0 16V64C0 72.8366 7.16344 80 16 80H64C72.8366 80 80 72.8366 80 64V16C80 7.16344 72.8366 0 64 0H16ZM52.237 57.8428C52.237 57.8428 50.7054 56.0134 49.429 54.4392C55.0025 52.865 57.1297 49.4188 57.1297 49.4188C55.3854 50.5675 53.7261 51.3759 52.237 51.929C50.1097 52.8224 48.0676 53.3755 46.0679 53.7585C41.9836 54.5243 38.2396 54.3115 35.0487 53.7159C32.6236 53.2479 30.5388 52.6097 28.7945 51.8864C27.8159 51.5035 26.7523 51.0355 25.6887 50.4399C25.6248 50.3974 25.561 50.3654 25.4972 50.3335C25.4334 50.3016 25.3696 50.2697 25.3057 50.2272C25.2732 50.2109 25.247 50.1947 25.2245 50.1808C25.1882 50.1583 25.1619 50.1421 25.1356 50.1421C24.3697 49.7166 23.9443 49.4188 23.9443 49.4188C23.9443 49.4188 25.9865 52.7799 31.3897 54.3966C30.1134 56.0134 28.5392 57.8854 28.5392 57.8854C19.1366 57.5875 15.5628 51.461 15.5628 51.461C15.5628 37.889 21.6894 26.8697 21.6894 26.8697C27.8159 22.3174 33.6021 22.445 33.6021 22.445L34.0276 22.9556C26.3694 25.1254 22.8807 28.4865 22.8807 28.4865C22.8807 28.4865 23.8167 27.9759 25.3908 27.2952C29.9432 25.2956 33.5596 24.785 35.0487 24.6148L35.1441 24.5987C35.3587 24.5622 35.5491 24.5297 35.7719 24.5297C38.3672 24.1894 41.3028 24.1043 44.3661 24.4446C48.4079 24.9126 52.7476 26.1039 57.1723 28.4865C57.1723 28.4865 53.8112 25.2956 46.5785 23.1257L47.1741 22.445C47.1741 22.445 53.0028 22.3174 59.0868 26.8697C59.0868 26.8697 65.2134 37.889 65.2134 51.461C65.2134 51.4588 65.2035 51.4736 65.1834 51.5037C64.8213 52.0468 61.145 57.5607 52.237 57.8428ZM47.9838 38.1444C45.5587 38.1444 43.6442 40.2291 43.6442 42.8244C43.6442 45.4197 45.6013 47.5044 47.9838 47.5044C50.4089 47.5044 52.3235 45.4197 52.3235 42.8244C52.3235 40.2291 50.3664 38.1444 47.9838 38.1444ZM32.4547 38.1444C30.0296 38.1444 28.1151 40.2291 28.1151 42.8244C28.1151 45.4197 30.0722 47.5044 32.4547 47.5044C34.8798 47.5044 36.7944 45.4197 36.7944 42.8244C36.8369 40.2291 34.8798 38.1444 32.4547 38.1444Z" fill="#5865F2"/>
</svg>
