<svg width="373" height="368" viewBox="0 0 373 368" fill="none" xmlns="http://www.w3.org/2000/svg">
<g clip-path="url(#clip0_1814_59598)">
<path d="M0.09375 50.5385C46.1187 25.7164 74.2763 61.8297 89.7115 82.7325C139.665 52.4981 200.751 86.0918 197.01 150.48C243.596 156.172 301.221 202.923 243.409 292.32H0.09375V50.5385Z" fill="#7E61FF"/>
<path d="M96.353 186.78C120.488 169.237 161.836 168.117 177.084 186.78C193.548 182.768 217.309 183.328 230.873 199.191H96.353V186.78Z" fill="#9F80FF"/>
<path d="M142.472 91.4113H230.873C207.206 84.693 179.516 85.1596 170.723 88.7053C159.029 81.5205 150.423 84.9729 142.472 91.4113Z" fill="#9F80FF"/>
<path d="M34.7058 91.4116C31.2446 90.8517 27.7834 92.8112 27.5027 98.8763C25.7253 98.1298 21.3287 97.9432 20.6738 106.248L41.2541 106.061C41.3476 95.4239 38.2606 91.9714 34.7058 91.4116Z" fill="#53A0A3"/>
<path d="M26.5675 188.18C25.9127 177.356 24.6965 160.465 24.4159 155.8C24.1353 151.134 22.0772 147.215 20.7676 144.228C19.1748 140.62 18.1948 136.773 17.8676 132.844C17.587 128.178 16.2773 115.674 16.2773 111.475C16.2773 107.275 16.8386 106.622 24.1353 105.782C31.4319 104.942 96.6339 105.316 108.795 105.782C120.956 106.249 128.627 106.342 132.556 106.995C136.485 107.649 136.765 108.488 136.765 110.168C136.765 111.848 135.736 133.031 135.736 136.39C135.736 139.749 134.146 149.734 133.866 152.44C133.585 155.146 130.966 157.293 129.656 159.252C128.346 161.212 120.769 169.797 119.927 171.103C119.085 172.41 118.243 174.649 117.869 179.968C117.495 185.287 115.998 196.205 115.717 198.725C115.437 201.244 111.882 203.951 108.514 207.03C105.147 210.109 100.282 213.935 97.1017 217.201C93.9211 220.468 85.1277 228.306 77.8311 226.44C70.5344 224.573 53.6025 220.281 47.3348 215.802C41.0672 211.323 34.7996 203.204 32.5545 200.031C30.3093 196.859 26.9417 195.179 26.5675 188.18Z" fill="#6E4A9B"/>
<path d="M58.4665 115.02C60.0568 121.553 59.5891 131.351 59.402 133.684C59.2149 136.016 58.7471 147.588 59.0278 149.361C59.3084 151.134 59.3084 155.426 59.402 158.972C59.4084 159.357 59.3111 159.736 59.1205 160.07C58.9298 160.404 58.6527 160.68 58.3182 160.871C57.9836 161.062 57.6038 161.159 57.2185 161.154C56.8332 161.148 56.4565 161.039 56.1278 160.839L42.0958 152.813C41.2964 152.376 40.6201 151.745 40.1296 150.979C39.6391 150.212 39.3502 149.335 39.2894 148.428C39.1023 145.535 38.8217 141.429 38.9153 140.122C39.0088 138.816 36.5766 133.03 35.2669 130.884C33.6692 128.031 32.6519 124.892 32.2734 121.646C32.2734 119.78 33.0218 110.168 33.0218 110.168L47.428 110.541L58.4665 115.02Z" fill="#5D4282"/>
<path d="M135.83 133.684C136.017 126.965 136.765 111.568 136.765 110.168C136.765 108.768 136.578 107.742 133.398 107.182L130.124 108.955C130.124 108.955 132.369 114.274 132.836 116.14C133.304 118.007 133.865 123.139 133.865 123.139L134.801 133.684H135.83Z" fill="#B783D1"/>
<path d="M119.272 124.819C119.272 124.819 118.243 116.047 117.588 111.008L111.507 107.555L80.5435 112.967C80.5435 112.967 81.1983 125.658 80.9176 129.018C80.637 132.377 80.2628 135.083 80.9176 136.203C81.5725 137.323 83.724 141.522 85.0337 143.762C86.3434 146.001 87.653 147.588 87.4659 148.708C87.2788 149.827 85.0337 160.185 85.0337 160.185L86.8111 183.141L116.185 195.179C116.746 190.7 117.681 183.794 117.869 179.968C118.243 174.649 119.178 172.316 119.927 171.103C120.675 169.89 121.704 168.864 123.388 166.811L121.143 136.67V130.884L119.272 124.819Z" fill="#5D4282"/>
<path d="M106.362 112.408C108.795 113.901 110.946 116.233 111.507 117.54C112.069 118.846 115.343 121.645 116.185 125.191C117.027 128.737 116.185 127.244 116.185 127.244C114.939 125.757 113.595 124.354 112.162 123.045C110.572 121.832 107.017 119.313 106.456 118.473C105.659 116.49 104.972 114.466 104.398 112.408H106.362Z" fill="#76589B"/>
<path d="M110.104 133.777C127.13 132.564 150.142 133.217 157.907 133.684C165.671 134.15 164.829 134.43 165.858 135.643C166.887 136.856 166.513 140.402 166.607 144.695C166.7 148.987 165.39 156.266 165.39 158.972C165.046 163.13 164.101 167.216 162.584 171.103C160.713 175.862 157.626 178.195 153.978 181.181C150.329 184.168 148.739 183.421 144.155 180.995C139.572 178.569 133.585 175.023 133.023 174.743C132.462 174.463 131.527 174.463 126.288 173.716C121.049 172.97 116.84 172.876 115.904 170.357C114.389 165.861 113.139 161.281 112.162 156.639C111.827 154.584 110.844 152.688 109.356 151.227C108.327 150.107 106.924 148.801 106.082 147.681C105.025 146.294 104.525 144.564 104.679 142.829C104.772 140.776 104.866 137.696 105.053 136.576C105.24 135.457 105.427 134.057 110.104 133.777Z" fill="#6E4A9B"/>
<path d="M158.374 144.788V151.32C158.374 152.44 159.497 154.026 159.871 156.173C160.302 158.227 160.459 160.329 160.339 162.425C160.245 164.385 159.684 163.078 159.403 160.839C159.123 158.599 157.065 155.986 155.849 154.306C154.739 152.956 154.084 151.29 153.978 149.547C153.858 147.609 153.639 145.678 153.323 143.762L158.374 144.788Z" fill="#A06DBA"/>
<path d="M145.278 139.469C152.281 138.446 159.343 137.884 166.42 137.789C166.383 137.043 166.192 136.312 165.858 135.643C164.829 134.43 164.736 134.057 157.907 133.684C151.078 133.31 127.13 132.564 110.105 133.777C105.427 134.057 105.334 135.55 105.053 136.576C104.772 137.603 104.96 137.323 104.96 137.789C107.672 138.069 117.214 139.655 118.43 139.842C119.646 140.029 120.956 140.868 122.827 141.615C124.698 142.361 128.44 144.321 130.404 144.601C134.621 145.17 138.872 145.45 143.127 145.441L158.375 144.787C158.525 144.206 158.525 143.596 158.375 143.015C158.094 142.455 157.159 141.522 152.014 140.775C146.868 140.029 142.378 139.935 145.278 139.469Z" fill="#53A0A3"/>
<path d="M136.578 108.675C136.11 107.928 135.175 107.462 132.556 106.995C129.936 106.529 120.956 106.156 108.795 105.782L100.75 105.222C81.1985 104.849 30.7768 104.943 24.135 105.502C17.4932 106.062 17.6803 106.715 16.8384 107.928L21.1415 108.582C22.6383 108.862 28.7188 110.168 33.022 110.168C35.1735 111.754 37.4187 113.154 42.5637 113.154C47.7088 113.154 53.9764 114.74 58.4667 115.02C62.9569 115.3 63.7053 116.233 68.4762 116.046H87.3726C91.6533 116.064 95.9318 115.846 100.188 115.393C104.398 114.833 105.801 113.434 106.363 112.407C109.543 112.407 118.711 110.728 121.143 110.634C126.343 110.529 131.517 109.872 136.578 108.675V108.675Z" fill="#53A0A3"/>
<path d="M104.398 72.6553H57.0634C56.9394 72.6553 56.8204 72.7044 56.7327 72.7919C56.645 72.8794 56.5957 72.9981 56.5957 73.1218L57.0634 75.8278H103.743L104.398 72.6553Z" fill="#502D80"/>
<path d="M113.659 106.062H99.3467L100.189 91.225L100.282 89.6387H112.724L112.817 91.225L113.659 106.062Z" fill="#34466E"/>
<path d="M107.672 80.214C107.707 83.368 107.488 86.5198 107.017 89.6389C106.83 90.4787 106.737 91.3186 106.55 92.0651C105.582 97.1047 103.54 101.878 100.563 106.062H95.5112L103.556 75.8281L103.837 74.9883H106.55L106.737 75.8281L107.111 77.4145L107.672 80.214Z" fill="#FADECA"/>
<path d="M117.588 106.062H112.536C109.596 101.858 107.558 97.0923 106.549 92.0651C106.372 91.2653 106.247 90.4549 106.175 89.6389C105.671 86.5225 105.421 83.3706 105.427 80.214L106.082 77.4145L106.362 75.8281L106.549 74.9883H109.356L109.543 75.8281L117.588 106.062Z" fill="#FADECA"/>
<path d="M103.743 75.8276C105.24 77.9737 107.672 77.9737 109.169 75.8276H103.743Z" fill="#D9A551"/>
<path d="M104.398 75.8276L104.304 76.3875L100.656 89.6384L100.188 91.2248L96.1658 106.062H94.4819L102.714 75.8276H104.398Z" fill="#BE73D1"/>
<path d="M118.524 106.062H116.84L112.818 91.2248L112.35 89.6384L108.701 76.3875L108.608 75.8276H110.292L118.524 106.062Z" fill="#BE73D1"/>
<path d="M102.714 75.8276L94.4823 106.062H48.8315L57.1572 75.8276H102.714Z" fill="#59338F"/>
<path d="M89.6177 58.0973L91.5822 57.1642C91.6757 57.1642 91.6757 57.0709 91.5822 57.0709L89.6177 56.1378H89.5242L88.6822 54.085H88.5887L87.6532 56.1378L85.5952 57.0709L87.6532 58.004L88.5887 60.0568H88.6822L89.5242 58.004L89.6177 58.0973Z" fill="#FADECA"/>
<path d="M72.2183 98.7837C72.9666 93.6513 74.4634 90.1053 75.773 88.9855C77.0827 87.8657 78.3923 90.292 79.3278 94.4912C81.1052 94.2112 82.5084 94.2112 83.8181 97.104C84.5491 98.6676 85.1437 100.291 85.5954 101.956C88.9631 101.863 92.6114 103.729 92.9856 106.716H72.2183V98.7837Z" fill="#53A0A3"/>
<path d="M110.292 72.6553H102.714C102.59 72.6553 102.471 72.7044 102.384 72.7919C102.296 72.8794 102.247 72.9981 102.247 73.1218L102.714 75.8278H110.292L110.759 73.1218C110.759 72.9981 110.71 72.8794 110.622 72.7919C110.535 72.7044 110.416 72.6553 110.292 72.6553Z" fill="#BE73D1"/>
<path d="M73.6213 57.0713H47.4282V106.006H73.6213V57.0713Z" fill="#EDC25C"/>
<path d="M50.3282 31.0361H70.7214C71.4905 31.0361 72.2281 31.3409 72.7719 31.8834C73.3158 32.4258 73.6213 33.1616 73.6213 33.9287V46.7121H47.4282V33.9287C47.4282 33.5489 47.5032 33.1727 47.649 32.8218C47.7947 32.4708 48.0083 32.152 48.2776 31.8834C48.5469 31.6147 48.8666 31.4017 49.2184 31.2563C49.5702 31.111 49.9473 31.0361 50.3282 31.0361V31.0361Z" fill="#F065E9"/>
<path d="M73.6213 46.7119H47.4282V57.0786H73.6213V46.7119Z" fill="#BBD0FF"/>
<path d="M71.8437 46.7119H68.6631V57.0786H71.8437V46.7119Z" fill="white"/>
<path d="M62.2086 46.7119H47.4282V57.0786H62.2086V46.7119Z" fill="#A3B3FF"/>
<path d="M54.5378 57.0713H47.4282V106.006H54.5378V57.0713Z" fill="#D9A551"/>
<path d="M54.5375 85.9058H41.2539V106.025H54.5375V85.9058Z" fill="#EDC25C"/>
<path d="M41.254 85.9058H30.9639V106.025H41.254V85.9058Z" fill="#D9A551"/>
<path d="M57.1569 85.9058H54.5376V106.025H57.1569V85.9058Z" fill="#FFD97D"/>
<path d="M30.9639 85.9061H57.1569L45.8378 65.5633C45.7612 65.4301 45.6528 65.3178 45.5222 65.2364C45.3917 65.155 45.243 65.107 45.0894 65.0967H43.0314C42.889 65.1042 42.7518 65.152 42.6358 65.2347C42.5198 65.3174 42.4298 65.4313 42.3766 65.5633L30.9639 85.9061Z" fill="#FADECA"/>
<path d="M73.5279 57.0713H69.9731V106.006H73.5279V57.0713Z" fill="#FFD97D"/>
<path d="M73.6213 52.9653H47.4282V54.4396H73.6213V52.9653Z" fill="#7C73FF"/>
<path d="M47.8957 81.6133L41.2539 85.9055V91.4108H54.5375V85.9055L47.8957 81.6133Z" fill="#EDC25C"/>
<path d="M36.1089 81.6133L30.9639 85.9055V91.4108H41.254V85.9055L36.1089 81.6133Z" fill="#D9A551"/>
<path d="M56.315 84.4126L54.5376 85.9055V91.4108H57.1569V85.9055L56.315 84.4126Z" fill="#FFD97D"/>
<path d="M48.4572 70.322L45.8379 65.5632C45.7613 65.43 45.6529 65.3178 45.5223 65.2364C45.3918 65.155 45.2431 65.107 45.0895 65.0967H43.0315C42.8891 65.1042 42.7519 65.152 42.6359 65.2347C42.5199 65.3173 42.4299 65.4313 42.3767 65.5632L37.98 73.4012L48.4572 70.322V70.322Z" fill="#34466E"/>
<path d="M56.3153 84.412L54.5379 85.9049L47.8961 81.6127L45.9316 71.0687L48.4574 70.3223L56.3153 84.412Z" fill="white"/>
<path d="M66.1377 81.3332C66.1377 79.7871 64.8812 78.5337 63.3313 78.5337C61.7814 78.5337 60.5249 79.7871 60.5249 81.3332V92.8857C60.5249 94.4318 61.7814 95.6852 63.3313 95.6852C64.8812 95.6852 66.1377 94.4318 66.1377 92.8857V81.3332Z" fill="#E6B24A"/>
<path d="M62.3955 98.9697C61.9669 97.6741 61.1582 96.5367 60.0741 95.7049C58.9899 94.873 57.6803 94.3851 56.315 94.3043C53.4886 94.1455 50.6993 95.0066 48.457 96.7303C46.3055 98.4099 45.0894 102.795 43.9668 106.528H71.376C71.376 100.089 66.6051 98.4099 62.3955 98.9697Z" fill="#3C9186"/>
<path d="M60.0571 109.328C60.6184 103.916 61.9281 102.703 62.5829 104.102C63.2377 105.502 63.799 109.328 63.799 109.328H60.0571Z" fill="#85B386"/>
<path d="M80.4503 106.062C80.1696 104.476 78.86 103.263 78.0181 103.543C77.1762 103.823 76.1471 105.782 75.7729 108.955H83.1631C82.6019 107.182 82.6954 106.715 80.4503 106.062Z" fill="#85B386"/>
<path d="M149.02 176.889C150.582 175.972 151.898 174.691 152.856 173.156C153.604 171.943 153.51 169.144 153.323 167.744C153.136 166.344 147.243 161.212 146.401 160.185C144.827 158.144 143.508 155.919 142.472 153.56C141.911 151.694 136.111 148.894 134.146 148.521C132.182 148.148 131.714 149.827 131.714 151.32C131.714 152.814 132.088 157.199 131.714 158.506C131.34 159.812 131.433 162.238 132.837 163.358C134.807 165.462 136.621 167.708 138.262 170.077C139.104 171.477 147.71 177.636 149.02 176.889Z" fill="#5D4282"/>
<path d="M124.979 128.924C124.979 128.924 124.324 124.258 122.546 121.646C120.769 119.033 118.15 119.966 117.401 121.646C116.653 123.325 117.214 124.538 116.185 125.192C115.156 125.845 112.256 130.417 111.508 134.522H130.685C130.404 130.603 127.691 128.831 124.979 128.924Z" fill="#3C9186"/>
<path d="M136.578 108.675C133.254 109.47 129.878 110.032 126.475 110.354C122.266 107.928 115.25 107.648 111.508 107.555C107.766 107.462 105.147 106.435 101.592 106.062H117.401C124.698 106.342 129.656 106.529 132.556 106.995C135.456 107.462 136.204 107.928 136.578 108.675Z" fill="#69BA91"/>
<path d="M165.859 135.643C164.83 134.43 164.736 134.057 157.907 133.684C153.23 133.404 143.127 133.031 131.995 133.124C137.046 133.497 142.659 134.337 143.407 135.27C148.552 134.71 155.662 134.99 156.41 135.923C158.331 135.748 160.264 136.07 162.023 136.856C162.255 136.95 162.465 137.089 162.642 137.266C162.819 137.442 162.958 137.652 163.052 137.883H166.42C166.396 137.105 166.205 136.341 165.859 135.643V135.643Z" fill="#69BA91"/>
<path d="M144.343 139.749C142.368 137.894 139.758 136.86 137.046 136.856C138.917 137.603 139.665 140.869 139.665 140.869C141.129 140.764 142.598 140.764 144.062 140.869C146.026 141.055 149.581 141.988 150.891 142.082C152.2 142.175 154.071 143.108 154.071 143.855V144.974L158.375 144.788C158.525 144.206 158.525 143.596 158.375 143.015C158.094 142.455 157.158 141.522 152.013 140.775C148.271 140.216 144.904 140.029 144.436 139.749H144.343V139.749Z" fill="#69BA91"/>
<path d="M177.645 232.972C186.906 231.292 198.038 232.132 203.277 232.972C204.212 236.984 203.37 242.583 200.751 244.916C198.132 247.249 197.009 247.902 196.822 249.489C196.635 251.075 194.951 254.434 189.058 252.475C183.164 250.515 179.516 248.649 178.487 243.89C177.458 239.131 174.464 233.532 177.645 232.972Z" fill="#6356D6"/>
<path d="M165.858 111.848C165.952 115.207 166.7 116.047 167.542 116.7C168.384 117.353 169.132 116.327 169.974 114.834C170.606 113.463 170.864 111.95 170.723 110.448C170.723 109.795 170.161 109.888 168.758 109.888C167.828 109.79 166.889 109.952 166.045 110.355C165.765 110.635 165.765 110.915 165.858 111.848Z" fill="#5D51C9"/>
<path d="M244.718 284.669C234.709 236.704 175.4 242.77 157.72 246.129C149.02 200.778 110.105 178.382 68.1957 173.716C60.8991 155.613 39.1963 133.59 0.09375 144.695V181.088V368H372.316C362.681 318.636 326.946 281.683 244.718 284.669Z" fill="#CCBDFF"/>
<path d="M51.7313 193.872C96.7273 192.753 138.449 215.242 157.72 246.129C149.02 200.778 110.104 178.382 68.1955 173.716C63.5182 162.052 52.7603 148.707 35.2671 143.762C46.3056 154.96 46.6798 164.198 51.7313 193.872Z" fill="url(#paint0_linear_1814_59598)"/>
<path d="M244.718 284.669C237.889 251.915 207.954 244.356 184.1 243.983C206.27 246.689 226.851 262.459 227.225 286.815C186.438 295.96 177.458 309.211 177.458 309.211C242.005 308.558 291.585 319.475 325.73 368H372.316C362.68 318.636 326.946 281.683 244.718 284.669Z" fill="url(#paint1_linear_1814_59598)"/>
<path d="M312.072 309.957L314.13 309.024L312.072 308.091H311.978L311.136 306.038C311.043 305.945 311.043 305.945 311.043 306.038L310.107 308.091L308.049 309.024L310.107 309.957L311.043 312.01C311.043 312.103 311.043 312.103 311.136 312.01L311.978 309.957H312.072Z" fill="#FFFAE6"/>
<path d="M264.269 271.511L266.795 270.391L264.269 269.271L263.147 266.845C263.147 266.752 263.147 266.752 263.053 266.845L262.024 269.271H261.931L259.499 270.391L261.931 271.511H262.024L263.053 273.937C263.147 274.03 263.147 274.03 263.147 273.937L264.269 271.511Z" fill="#FFF5CF"/>
<path d="M103.837 174.369L106.269 173.249L103.837 172.13H103.743L102.714 169.704H102.62L101.498 172.13L98.9722 173.249L101.498 174.369L102.62 176.795H102.714L103.743 174.369H103.837Z" fill="#C495DE"/>
<path d="M177.832 275.337L181.2 273.844C181.294 273.844 181.294 273.751 181.2 273.751L177.832 272.258L176.336 268.898H176.148L174.652 272.258L171.284 273.751C171.19 273.751 171.19 273.844 171.284 273.844L174.652 275.337L176.148 278.696H176.336L177.832 275.337Z" fill="#ADEDFF"/>
<path d="M142.846 292.04L144.155 291.387L142.846 290.827L142.191 289.428H142.097L141.536 290.827L140.133 291.387L141.536 292.04L142.097 293.347H142.191L142.846 292.04Z" fill="#FFEFC4"/>
<path d="M118.056 250.795C122.546 249.022 124.137 248.182 125.166 249.582C125.848 250.534 126.208 251.678 126.195 252.848L118.056 250.795Z" fill="#6C6C96"/>
<path d="M120.675 234.932C116.466 241.65 113.472 250.889 113.472 250.889L115.437 251.542C117.495 244.823 121.424 235.585 121.424 235.585L120.675 234.932Z" fill="#824B6F"/>
<path d="M119.085 236.517L115.905 239.97C115.063 237.357 115.998 235.584 118.43 235.211C117.401 234.744 114.221 232.692 114.221 232.692C115.717 232.132 117.588 232.412 119.553 234.278C120.301 233.158 121.985 231.852 124.791 233.158L121.424 234.931C124.23 235.304 124.979 236.891 126.195 238.663L121.517 237.077L121.237 242.582C121.237 242.582 118.711 238.663 119.085 236.517Z" fill="#58A67E"/>
<path d="M30.7771 185.661L31.2448 177.542C31.3087 176.499 31.1576 175.454 30.8008 174.471C30.444 173.488 29.8891 172.588 29.1704 171.827C28.4516 171.067 27.5842 170.461 26.6217 170.048C25.6591 169.634 24.6219 169.422 23.574 169.424V169.424C22.53 169.435 21.499 169.656 20.5427 170.074C19.5864 170.492 18.7244 171.098 18.0083 171.856C17.2922 172.614 16.7366 173.508 16.3749 174.485C16.0132 175.462 15.8528 176.502 15.9031 177.542L16.4644 185.661C16.7477 191.324 15.0258 196.906 11.6 201.431C6.54847 207.963 7.57748 213.469 12.2548 243.05H34.8931C39.664 213.469 40.5995 207.963 35.5479 201.431C32.1111 196.916 30.4177 191.319 30.7771 185.661V185.661Z" fill="#A281C7"/>
<path d="M48.9248 190.326L49.2054 185.007C49.2578 184.319 49.1652 183.628 48.9337 182.977C48.7021 182.327 48.3367 181.732 47.8609 181.231C47.3852 180.73 46.8096 180.334 46.1711 180.069C45.5327 179.803 44.8455 179.673 44.1539 179.688V179.688C43.4701 179.686 42.7933 179.825 42.166 180.097C41.5387 180.369 40.9745 180.767 40.5089 181.266C40.0432 181.766 39.6862 182.356 39.4603 183C39.2343 183.644 39.1443 184.327 39.1959 185.007L39.4766 190.326C39.7092 194.049 38.579 197.73 36.296 200.684C33.0219 205.07 33.6767 208.709 36.7637 228.119H51.6377C54.7247 208.709 55.3795 205.07 52.1054 200.684C49.8224 197.73 48.6922 194.049 48.9248 190.326V190.326Z" fill="#A281C7"/>
<path d="M129.562 365.854H0.09375V265.352L53.7895 256.301L136.578 261.62C136.578 265.166 133.866 285.229 133.866 285.229C134.614 288.028 136.765 292.227 137.888 296.613C139.011 300.999 139.385 302.772 139.478 306.225V318.729L140.601 334.873L129.562 365.854Z" fill="#824B6F"/>
<path d="M48.1767 270.858L50.7025 288.215L53.5089 296.707L54.3508 330.487H0.09375V259.66L48.8316 262.366L48.1767 270.858Z" fill="#5A3C5C"/>
<path d="M36.3898 276.55L42.0962 285.135L45.7445 298.666L33.864 294.28L31.3383 283.922C31.3383 283.922 31.4318 278.417 31.3383 277.017C31.2447 275.617 33.9576 275.15 36.3898 276.55Z" fill="#754465"/>
<path d="M76.2404 274.591L81.479 288.401L87.1854 296.706L88.4015 307.065L90.366 319.009L71.8437 322.275V308.838L73.2469 298.479L68.0083 287.841V271.698L76.2404 274.591Z" fill="#734163"/>
<path d="M101.03 261.34L102.153 274.404C102.153 274.404 105.24 278.603 107.859 281.776C110.478 284.949 116.653 291.388 118.149 293.161C119.646 294.934 119.927 295.214 121.423 289.895C122.395 286.368 123.145 282.783 123.669 279.163C123.669 279.163 123.014 274.591 122.265 273.378L117.401 266.472L115.717 259.66L101.03 261.34Z" fill="#754465"/>
<path d="M121.424 276.55C121.424 277.857 121.05 282.522 121.05 282.522L120.395 283.922L119.085 281.029L118.056 275.617L121.424 276.55Z" fill="#824B6F"/>
<path d="M137.888 296.614C136.766 292.228 134.614 288.029 133.866 285.229C133.866 285.229 136.578 265.166 136.578 261.62L133.866 261.434L131.901 262.927L131.433 270.579L131.62 277.297L129.095 284.576C129.095 284.576 133.772 294.654 133.866 295.027L136.111 302.866L137.607 310.331L139.478 310.051V306.225C139.385 302.773 139.011 301 137.888 296.614Z" fill="#966290"/>
<path d="M96.353 275.617L96.5401 286.815C96.5401 286.815 101.779 294.654 102.34 296.707L103.463 307.065L92.9854 289.241C92.9854 289.241 93.5466 285.042 93.5466 283.176C93.5466 281.309 92.9854 275.617 92.9854 275.617H96.353Z" fill="#966290"/>
<path d="M0.09375 322.182C72.4989 310.331 117.495 301.746 148.272 298.387C179.049 295.027 216.561 299.693 253.325 309.398C268.386 313.317 273.25 318.356 277.927 337.579C282.605 356.802 283.634 368 283.634 368H0.09375V322.182Z" fill="#6EAC8D"/>
<path d="M187.748 326.195C194.016 325.915 199.441 326.941 200.658 329.46L187.748 326.195Z" fill="#629987"/>
<path d="M61.46 322.275C83.0692 320.596 100.188 325.261 106.175 339.632L76.2403 351.577L61.46 347.471V322.275Z" fill="#508F86"/>
<path d="M105.988 355.962C114.969 345.698 133.21 338.232 147.71 347.097C162.21 355.962 162.584 359.882 162.584 359.882C149.581 354.469 123.856 352.043 105.988 355.962Z" fill="#629987"/>
<path d="M221.612 301.746C221.986 292.881 225.635 289.615 227.599 288.681C229.564 287.748 229.564 291.294 227.225 296.053C232.744 292.507 234.896 293.627 235.176 295.12C235.457 296.613 231.154 298.946 228.347 300.253C234.147 299.226 239.76 300.813 231.715 303.612C223.67 306.412 221.051 306.878 221.051 306.878L221.612 301.746Z" fill="#92D18F"/>
<path d="M277.927 335.153C273.25 317.05 268.385 312.291 253.324 308.558C216.56 299.413 179.142 294.281 148.271 297.547C131.152 299.413 96.3529 306.132 68.0083 310.704C84.1919 309.864 100.282 309.678 114.782 310.331C133.865 308.371 153.136 313.317 163.613 316.77C175.774 317.143 183.351 320.689 183.351 320.689C183.351 320.689 207.767 311.451 226.663 320.689C242.754 318.636 255.756 319.663 268.572 324.328C273.811 326.288 274.372 327.594 277.927 335.153Z" fill="#85C28D"/>
<path d="M176.242 301.559C175.119 299.226 170.536 298.293 167.636 299.879L176.242 301.559Z" fill="#BAD17B"/>
<path d="M229.376 313.877C225.832 314.211 222.272 314.366 218.712 314.343C217.122 314.343 217.964 312.57 223.389 312.57C228.815 312.57 229.376 313.877 229.376 313.877Z" fill="#6AA88D"/>
<path d="M167.636 296.986C165.39 292.88 168.945 290.081 172.126 292.04C172.5 287.375 182.509 283.736 185.877 290.174C189.245 296.613 189.245 297.732 189.245 297.732L167.636 296.986Z" fill="#6EAC8D"/>
<path d="M210.761 307.811C192.332 310.517 171.003 312.57 161.368 312.57C151.733 312.57 153.136 308.558 176.897 306.318C200.658 304.079 210.761 307.811 210.761 307.811Z" fill="#6AA88D"/>
<path d="M272.969 320.689C268.011 333.1 264.737 331.42 258.75 335.06C228.909 352.136 205.148 368 205.148 368H284.101C284.101 368 283.166 356.336 278.395 336.553C276.805 329.647 275.121 324.608 272.969 320.689Z" fill="#78426A"/>
<path d="M254.073 338.419C257.167 342.532 259.54 347.138 261.089 352.043L261.837 357.362L263.334 358.015C263.334 358.015 263.147 354.469 263.053 352.883C262.96 351.296 261.089 345.231 261.089 345.231L256.599 336.833L254.073 338.419Z" fill="#5A3C5C"/>
<path d="M237.702 348.311C239.958 353.205 241.38 358.44 241.912 363.801L242.754 368H205.148L237.702 348.311Z" fill="#5A3C5C"/>
<path d="M225.635 358.014L233.68 362.867C234.101 362.983 234.552 362.932 234.936 362.723C235.32 362.514 235.608 362.164 235.738 361.747C236.486 360.067 234.148 354.749 233.493 353.069C233.006 351.99 232.63 350.865 232.37 349.71L225.635 358.014Z" fill="#78426A"/>
<path d="M278.395 336.646C276.805 329.834 275.121 324.701 272.969 320.782C270.631 326.474 266.702 329.181 264.737 330.767L266.421 332.82C271.66 341.498 272.969 353.07 272.969 353.07C272.969 353.07 278.676 363.241 279.05 368H284.102C284.102 368 283.166 356.336 278.395 336.646Z" fill="#8F516F"/>
<path d="M280.827 347.377C280.172 344.111 279.33 340.472 278.395 336.459C276.805 329.647 275.121 324.608 272.969 320.689C272.399 322.023 271.71 323.304 270.911 324.515L269.976 328.248C272.314 332.54 274.934 338.699 274.934 338.699L277.927 342.245L280.827 347.471V347.377Z" fill="#BF6172"/>
<path d="M261.369 334.873C253.605 344.578 243.783 348.777 232.744 351.483C221.706 362.215 206.832 368 206.832 368H164.455C164.455 368 198.6 357.829 208.983 350.27C222.267 346.911 236.018 342.338 244.905 334.78C248.834 332.913 269.695 331.14 271.005 318.263C271.777 319.005 272.438 319.853 272.969 320.782C272.969 326.474 267.918 331.327 261.369 334.873Z" fill="#609684"/>
<path d="M88.4949 174.183L89.1498 163.918C89.2396 162.59 89.0545 161.257 88.606 160.003C88.1574 158.749 87.4551 157.601 86.5425 156.629C85.63 155.658 84.5269 154.884 83.3017 154.356C82.0765 153.828 80.7555 153.557 79.4209 153.56V153.56C78.0863 153.557 76.7653 153.828 75.5401 154.356C74.315 154.884 73.2118 155.658 72.2993 156.629C71.3868 157.601 70.6844 158.749 70.2359 160.003C69.7873 161.257 69.6022 162.59 69.6921 163.918L70.2533 174.183C70.7283 181.428 68.5326 188.596 64.0793 194.339C57.7181 202.644 58.9342 209.736 65.0147 247.436H93.8271C99.8141 209.736 101.124 202.644 94.669 194.339C90.2984 188.554 88.1123 181.417 88.4949 174.183V174.183Z" fill="#FFDB9E"/>
<path d="M76.2405 203.764L77.7372 203.11L76.2405 202.457L75.5857 201.058L74.9308 202.364L73.4341 203.017L74.9308 203.67L75.5857 205.163L76.2405 203.67V203.764Z" fill="white"/>
<path d="M66.6987 220.281C76.9888 208.71 89.7112 214.309 91.6757 225.32C100.188 217.202 109.075 223.734 109.45 234.558C109.824 245.383 109.45 251.635 109.45 251.635H62.8633L66.6987 220.281Z" fill="#69BA91"/>
<path d="M63.9856 229.519C77.4564 226.72 82.7885 228.213 85.4078 236.704C96.8205 235.958 100.843 240.157 103.93 248.555L56.0342 242.677L63.9856 229.519Z" fill="#4C9677"/>
<path d="M94.6693 194.339C90.2986 188.554 88.1125 181.417 88.4952 174.183L89.15 163.918C89.2851 161.893 88.7801 159.876 87.7062 158.152C86.6322 156.428 85.0433 155.083 83.163 154.307C84.9404 159.906 83.163 166.064 82.5082 170.824C81.8534 175.583 81.1985 184.168 85.1275 189.3C89.0565 194.432 96.5402 199.472 98.9724 208.337C98.9724 201.804 97.6627 198.165 94.6693 194.339Z" fill="#FFEFC4"/>
<path d="M136.578 261.62C125.166 265.726 116.934 262.086 113.192 262.273C109.45 262.46 100.844 262.273 94.1082 261.713C88.9421 262.205 83.7392 262.174 78.5794 261.62C82.5084 262.366 84.0051 265.072 86.2502 266.845C90.0857 267.499 93.6404 270.951 94.4824 273.378C96.7275 274.031 96.3533 275.617 96.3533 275.617C91.5395 276.178 86.6997 276.49 81.8536 276.55C77.5504 276.55 66.5119 274.124 61.4604 273.471C56.4089 272.818 35.4544 268.059 35.4544 268.059C35.4544 268.059 14.4064 268.059 0.09375 265.352V238.197C17.4715 236.779 34.9638 237.911 52.0122 241.557C76.0537 242.77 90.5534 245.196 106.456 248.742C122.359 252.288 131.901 252.661 134.24 255.648C136.578 258.634 136.765 258.447 136.578 261.62Z" fill="#58A67E"/>
<path d="M83.1631 253.781H97.6628C84.8469 249.582 83.1631 253.781 83.1631 253.781Z" fill="#4C9677"/>
<path d="M106.456 248.742C101.966 247.716 97.5691 246.783 92.9854 246.036C104.585 249.675 110.198 252.008 111.04 253.781C123.014 253.875 126.849 255.834 128.252 258.074C129.34 258.316 130.306 258.938 130.975 259.828C131.644 260.718 131.972 261.817 131.901 262.926C133.397 262.553 134.988 262.18 136.578 261.62C136.765 258.447 136.391 258.261 134.239 255.648C132.088 253.035 122.172 251.169 106.456 248.742Z" fill="#85C286"/>
<path d="M179.235 333.659C172.032 331.886 161.274 330.766 150.984 333.285C146.868 332.072 141.162 331.979 133.865 333.192C130.404 324.141 114.501 322.275 99.7207 322.088C120.956 315.37 142.284 319.382 146.681 326.474C159.965 322.741 173.623 324.701 179.235 333.659Z" fill="#629987"/>
<path d="M131.433 368H0.09375V283.642C16.0902 276.924 25.8191 277.764 26.5675 283.642C37.2318 281.03 48.3638 281.776 47.0542 290.268C59.3088 290.921 66.4183 298.76 62.8636 312.757C74.3698 310.517 72.1247 321.995 69.8796 326.288C75.9601 327.501 75.6795 332.633 71.9376 338.419C78.0181 337.486 85.5019 337.672 86.2502 342.058C94.2017 338.885 101.779 333.38 107.298 335.339C112.818 337.299 112.35 343.271 112.35 343.271C120.488 342.058 124.324 342.711 122.921 348.31C122.097 351.679 121.034 354.984 119.74 358.202C129.282 358.109 134.895 358.762 131.433 368Z" fill="#1D2B38"/>
<path d="M266.421 358.108C259.966 355.495 252.576 352.603 248.834 352.136C245.092 351.669 248.46 353.536 253.886 358.108C257.32 361.063 260.425 364.38 263.147 367.999H274.934C273.53 364.08 272.876 360.627 266.421 358.108Z" fill="#854D76"/>
<path d="M168.291 308.558C171.471 298.946 178.674 297.547 180.077 297.08C180.358 285.509 180.171 283.456 188.497 280.936C196.822 278.417 208.048 277.67 214.503 280.936C220.957 284.202 223.483 293.814 223.764 298.573C223.949 300.996 223.949 303.429 223.764 305.852C223.764 305.852 202.903 310.611 168.291 308.558Z" fill="#8D8CC4"/>
<path d="M46.3057 259.1C64.5432 259.1 79.3277 244.352 79.3277 226.16C79.3277 207.967 64.5432 193.219 46.3057 193.219C28.0681 193.219 13.2837 207.967 13.2837 226.16C13.2837 244.352 28.0681 259.1 46.3057 259.1Z" fill="#6238EB"/>
<path d="M60.8052 196.485C55.872 194.058 50.4042 192.914 44.9092 193.159C39.4142 193.404 34.0703 195.029 29.3735 197.885C44.2475 200.404 50.8893 195.179 60.8052 196.485Z" fill="#632ADE"/>
<path d="M79.1406 229.892C71.3762 220.747 55.5668 221.774 47.8024 227.559C49.5798 212.629 25.5383 201.804 16.2772 212.442C14.3193 216.753 13.2991 221.428 13.2837 226.16C13.2784 231.894 14.7782 237.53 17.6338 242.507C20.4894 247.484 24.6014 251.628 29.5608 254.528L61.928 255.274C66.644 252.751 70.6748 249.123 73.6732 244.702C76.6717 240.28 78.548 235.198 79.1406 229.892V229.892Z" fill="#632ADE"/>
<path d="M57.7184 190.979L59.7764 190.14L57.7184 189.207L56.7829 187.154H56.6893L55.8474 189.207H55.7539L53.7894 190.14C53.6959 190.14 53.6959 190.14 53.7894 190.233L55.7539 191.073H55.8474L56.6893 193.126H56.7829L57.7184 191.073V190.979Z" fill="#82B8E8"/>
<path d="M42.1898 234.838C34.6125 224.387 33.3028 214.029 15.6225 213.936C13.2978 219.751 12.6879 226.109 13.8646 232.259C15.0414 238.409 17.9557 244.096 22.2643 248.649L33.5835 253.875L63.3313 254.435C70.5082 250.111 75.7863 243.247 78.1117 235.212C65.67 237.824 47.9897 242.77 42.1898 234.838Z" fill="#6238EB"/>
<path d="M13.4708 222.987C13.3772 224.013 13.2837 225.04 13.2837 226.16C13.3073 234.521 16.5178 242.561 22.2642 248.649L29.2802 251.915C30.5853 249.278 31.6498 246.53 32.4608 243.703C39.3832 220.094 18.99 217.855 13.4708 222.987Z" fill="#632ADE"/>
<path d="M27.2223 229.519C26.4739 224.574 18.5224 222.427 13.5645 230.079C14.4045 237.036 17.4529 243.543 22.2643 248.649L23.3869 249.209C18.8966 240.157 27.9706 234.838 27.2223 229.519Z" fill="#6238EB"/>
<path opacity="0.32" d="M74.7437 242.957C75.492 234.185 72.0308 223.08 64.8277 212.909C57.6246 202.738 48.0829 196.019 39.4766 193.873C44.2996 192.823 49.2975 192.869 54.1004 194.007C58.9033 195.144 63.3884 197.345 67.2237 200.445C71.0591 203.545 74.1466 207.466 76.2579 211.917C78.3692 216.368 79.4502 221.236 79.421 226.16C79.4401 232.081 77.8217 237.893 74.7437 242.957Z" fill="url(#paint2_linear_1814_59598)"/>
<path d="M62.7502 210.711C63.601 209.674 63.0267 207.802 61.4675 206.529C59.9084 205.256 57.9547 205.064 57.1039 206.101C56.2532 207.138 56.8274 209.011 58.3866 210.284C59.9458 211.557 61.8994 211.748 62.7502 210.711Z" fill="#23283D"/>
<path d="M49.3191 210.679C50.1698 209.643 49.5956 207.77 48.0364 206.497C46.4772 205.224 44.5235 205.032 43.6728 206.069C42.822 207.106 43.3963 208.979 44.9555 210.252C46.5146 211.525 48.4683 211.716 49.3191 210.679Z" fill="#23283D"/>
<path d="M60.2556 220.686C61.1063 219.649 60.5321 217.776 58.9729 216.503C57.4137 215.23 55.4601 215.039 54.6093 216.076C53.7585 217.113 54.3328 218.985 55.892 220.258C57.4512 221.531 59.4048 221.723 60.2556 220.686Z" fill="#23283D"/>
<path d="M58.7472 205.257C58.5062 205.231 58.2626 205.255 58.0311 205.327C57.7997 205.398 57.5854 205.517 57.4014 205.674C57.2174 205.831 57.0677 206.024 56.9613 206.242C56.8549 206.459 56.7941 206.695 56.7827 206.937C57.997 206.686 59.2585 206.801 60.4075 207.266C61.5564 207.731 62.5413 208.526 63.2374 209.549C63.2736 209.096 63.176 208.642 62.9568 208.243C62.607 207.401 62.0266 206.675 61.2822 206.147C60.5377 205.619 59.6592 205.31 58.7472 205.257V205.257Z" fill="#3A3C66"/>
<path d="M45.3702 205.257C45.1293 205.231 44.8856 205.255 44.6542 205.327C44.4228 205.398 44.2085 205.517 44.0245 205.674C43.8405 205.831 43.6907 206.024 43.5843 206.242C43.4779 206.459 43.4171 206.695 43.4058 206.937C44.6201 206.686 45.8815 206.801 47.0305 207.266C48.1795 207.731 49.1644 208.526 49.8605 209.549C49.8486 209.1 49.7534 208.657 49.5798 208.243C49.23 207.401 48.6497 206.675 47.9052 206.147C47.1607 205.619 46.2822 205.31 45.3702 205.257V205.257Z" fill="#2D2E4F"/>
<path d="M56.3151 215.242C55.8338 215.215 55.3608 215.375 54.9948 215.688C54.6289 216.001 54.3981 216.443 54.3506 216.921C55.5749 216.654 56.8522 216.77 58.0076 217.254C59.163 217.739 60.1402 218.568 60.8053 219.627C60.839 219.144 60.7421 218.661 60.5247 218.227C60.1573 217.398 59.5723 216.683 58.8314 216.157C58.0905 215.632 57.2212 215.315 56.3151 215.242V215.242Z" fill="#2D2E4F"/>
<path d="M88.495 174.183V176.516H70.347C70.3644 175.737 70.3331 174.958 70.2534 174.183V172.69H88.5886L88.495 174.183Z" fill="#D44E7B"/>
<path d="M91.9562 190.046H66.8857C67.5114 188.813 68.043 187.534 68.476 186.221H90.2724C90.7374 187.536 91.3002 188.815 91.9562 190.046Z" fill="#D44E7B"/>
<path d="M0.09375 228.119C19.0837 218.974 32.2738 230.359 37.1382 240.437C49.2993 238.757 55.0057 241.09 57.5314 246.316H0.09375V228.119Z" fill="#58A67E"/>
<path d="M76.2405 246.316H15.7158V261.357H76.2405V246.316Z" fill="#58A67E"/>
<path d="M61.4604 273.471C66.5119 274.124 77.5504 276.55 81.8536 276.55C86.6997 276.49 91.5395 276.178 96.3533 275.617C96.3533 275.617 96.7275 274.031 94.4824 273.378C93.6404 270.951 90.0857 267.499 86.2502 266.845C84.0051 265.072 82.5084 262.366 78.5794 261.62C83.0267 262.021 87.4964 262.114 91.9566 261.9C91.0211 259.007 86.718 256.674 82.6955 256.301C79.3278 252.195 74.3698 249.209 63.9861 249.209H31.8061L27.4094 246.316H0.09375V265.352C14.4064 268.059 35.4544 268.059 35.4544 268.059C35.4544 268.059 56.4089 272.818 61.4604 273.471Z" fill="#4C9677"/>
<path d="M0 238.944C0.562288 238.057 1.32803 237.315 2.23409 236.781C3.14016 236.246 4.1606 235.934 5.21128 235.87C6.26197 235.807 7.31281 235.993 8.27717 236.414C9.24154 236.835 10.0918 237.478 10.7579 238.291C11.0385 230.173 14.8739 228.586 17.2126 229.333C19.5513 230.079 21.9835 232.506 21.9835 242.397C28.064 242.677 31.7123 246.41 32.0865 250.142H0.0935467L0 238.944Z" fill="#437A6D"/>
<path d="M92.5179 231.665C90.9276 234.651 88.8696 244.076 88.4019 253.781H97.663C96.634 241.743 94.0147 228.772 92.5179 231.665Z" fill="#468069"/>
<path d="M78.8599 247.901C79.4211 240.437 80.1695 237.264 80.9179 236.331C81.6663 235.398 83.7243 242.023 84.0985 247.901H78.8599Z" fill="#468069"/>
<path d="M25.4448 253.781H53.5088V238.236H25.4448L25.4448 253.781Z" fill="#82B8E8"/>
<path d="M40.5993 253.781H53.5088V238.236H40.5993V253.781Z" fill="#BBD0FF"/>
<path d="M50.7021 253.875H46.8667V248.276C46.8667 247.781 47.0638 247.306 47.4147 246.956C47.7656 246.606 48.2415 246.41 48.7377 246.41C49.2339 246.41 49.7097 246.606 50.0606 246.956C50.4115 247.306 50.6086 247.781 50.6086 248.276V253.875H50.7021Z" fill="#827D99"/>
<path d="M53.5089 245.476L46.5864 238.291H53.5089V245.476Z" fill="#D4E1FF"/>
<path d="M25.4448 238.291H53.5088L47.0541 233.438H31.8995L25.4448 238.291Z" fill="#23283D"/>
<path d="M40.5991 238.291L47.0538 233.438L53.5086 238.291H40.5991Z" fill="#4E4766"/>
<path d="M35.7348 250.608C36.6131 250.608 37.3251 249.898 37.3251 249.022C37.3251 248.146 36.6131 247.436 35.7348 247.436C34.8565 247.436 34.1445 248.146 34.1445 249.022C34.1445 249.898 34.8565 250.608 35.7348 250.608Z" fill="#6BA1D1"/>
<path d="M29.748 250.608C30.6263 250.608 31.3383 249.898 31.3383 249.022C31.3383 248.146 30.6263 247.436 29.748 247.436C28.8697 247.436 28.1577 248.146 28.1577 249.022C28.1577 249.898 28.8697 250.608 29.748 250.608Z" fill="#6BA1D1"/>
<path d="M29.748 244.636C30.6263 244.636 31.3383 243.926 31.3383 243.05C31.3383 242.174 30.6263 241.463 29.748 241.463C28.8697 241.463 28.1577 242.174 28.1577 243.05C28.1577 243.926 28.8697 244.636 29.748 244.636Z" fill="#6BA1D1"/>
<path d="M35.7348 244.636C36.6131 244.636 37.3251 243.926 37.3251 243.05C37.3251 242.174 36.6131 241.463 35.7348 241.463C34.8565 241.463 34.1445 242.174 34.1445 243.05C34.1445 243.926 34.8565 244.636 35.7348 244.636Z" fill="#6BA1D1"/>
<path d="M71.9372 240.25H64.1729V247.958H71.9372V240.25Z" fill="#82B8E8"/>
<path d="M71.9372 240.25H64.1729V242.705H71.9372V240.25Z" fill="#827D99"/>
<path d="M58.6539 247.902H64.0796V234.139H58.6539V247.902Z" fill="#82B8E8"/>
<path d="M5.98707 257.607C13.6579 254.528 19.7384 262.366 19.7384 262.366H2.05811C2.22679 261.295 2.68023 260.289 3.37123 259.452C4.06223 258.615 4.96553 257.978 5.98707 257.607V257.607Z" fill="#58A67E"/>
<path d="M14.687 233.158C11.6935 246.129 12.0677 262.366 12.0677 262.366H15.6225C15.0612 250.608 16.2773 233.998 16.2773 233.998L14.687 233.158Z" fill="#824B6F"/>
<path d="M14.2189 236.518L7.7642 243.237C6.64164 239.411 8.79322 236.238 13.1899 234.652C11.4125 234.279 5.98682 232.132 5.98682 232.132C7.43705 231.325 9.08854 230.949 10.7462 231.048C12.4038 231.148 13.9984 231.718 15.3415 232.692C16.9318 230.733 20.2059 227.933 24.9768 229.053L18.6156 233.159C23.6671 232.692 24.7897 234.932 26.5671 237.358L18.4285 236.518L17.0253 245.383C17.0253 245.383 13.0028 240.158 14.2189 236.518Z" fill="#85C286"/>
<path d="M86.2501 266.845C84.0049 265.072 82.5082 262.366 78.5792 261.62C76.0219 259.92 72.9002 259.284 69.8794 259.847C78.1115 262.273 79.8889 266.472 79.8889 266.472C78.3996 266.308 76.8925 266.5 75.4922 267.032C81.5727 267.498 87.6533 269.364 89.9919 272.724C91.5149 272.686 93.0332 272.907 94.4822 273.377C93.6403 270.951 90.0855 267.498 86.2501 266.845Z" fill="#5CAD84"/>
<path d="M109.637 271.698C115.437 271.978 119.085 273.937 121.424 276.55C114.127 275.803 112.911 275.43 108.701 274.124C104.492 272.818 102.621 271.325 109.637 271.698Z" fill="#4A8C7B"/>
<path d="M47.896 266.659H64.0796C49.7669 261.9 47.896 266.659 47.896 266.659Z" fill="#468069"/>
<path d="M60.0571 256.021C57.2507 256.394 54.3507 261.899 53.5088 266.658H68.3827C66.6989 260.78 65.7634 255.274 60.0571 256.021Z" fill="#6C6C96"/>
<path d="M106.175 271.885C107.204 269.085 109.356 268.059 110.666 269.645C113.285 269.832 115.624 270.018 115.624 273.751C115.624 273.751 109.449 274.031 106.175 271.885Z" fill="#58A67E"/>
<path d="M223.764 298.573C223.483 293.814 220.957 284.296 214.503 280.936C211.271 279.478 207.759 278.746 204.212 278.79C210.761 279.257 215.532 286.722 215.438 289.895C217.215 290.361 223.483 296.333 223.857 301.559C223.857 300.719 223.857 299.693 223.764 298.573Z" fill="#AEA3D1"/>
<path d="M187.093 296.053C188.871 296.333 195.045 298.013 195.045 302.212C195.199 304.467 195.639 306.693 196.354 308.838C201.967 308.558 206.738 308.184 210.761 307.811C210.761 304.918 208.796 301.932 206.177 299.319C203.557 296.706 202.435 294.28 201.219 290.174C200.003 286.068 195.98 280.283 188.496 280.936C190.648 283.269 189.806 287.935 187.093 296.053Z" fill="#7E74A6"/>
<path d="M203.184 280.47C205.803 280.843 206.925 282.243 207.113 282.802C207.3 283.362 204.213 282.056 204.213 282.056L203.184 280.47Z" fill="#B3A9D1"/>
<path d="M212.632 304.359C213.661 298.293 213.006 291.761 209.264 292.041C205.522 292.321 206.457 298.946 206.551 302.399C206.551 302.399 204.587 299.506 202.061 300.906C199.535 302.306 200.377 306.785 204.961 310.237H214.128C221.986 303.612 215.532 299.599 212.632 304.359Z" fill="#CFE08B"/>
<path d="M226.009 305.572C228.254 298.107 235.27 286.629 237.421 284.109C239.573 281.59 238.918 283.643 235.738 288.588C232.557 293.534 227.225 305.572 227.225 305.572H226.009Z" fill="#CFE08B"/>
<path d="M225.354 287.095C225.074 284.202 224.419 285.042 224.699 286.535C224.98 288.028 226.383 299.6 226.009 305.572H226.664C226.788 299.386 226.35 293.202 225.354 287.095Z" fill="#CFE08B"/>
<path d="M189.9 309.024C189.95 308.223 189.741 307.428 189.303 306.756C188.865 306.084 188.221 305.57 187.468 305.291C187.858 304.478 188.004 303.569 187.888 302.675C187.772 301.781 187.398 300.94 186.813 300.253C184.848 297.827 179.329 298.666 172.032 301.932C170.304 303.834 169.026 306.098 168.291 308.557H170.255C171.284 307.064 173.903 305.478 176.055 304.545C176.897 301.466 182.51 299.693 184.1 300.253C185.69 300.812 186.252 303.145 185.503 305.198C186.612 306.158 187.342 307.482 187.561 308.93L189.9 309.024Z" fill="#8C7CA6"/>
<path d="M210.667 306.877C211.322 301.372 210.574 295.493 209.545 296.053C208.516 296.613 208.422 299.412 208.422 305.571C207.767 303.425 205.054 302.865 205.148 304.918C204.306 303.611 201.5 302.958 201.312 305.944C202.153 307.655 203.406 309.13 204.961 310.236H212.538C216.374 305.944 212.632 305.757 210.667 306.877Z" fill="#BAD17B"/>
<path d="M46.3058 311.077C58.1862 306.225 59.4958 319.289 59.3087 323.302C64.3603 323.302 64.9215 328.714 63.5183 334.499C71.3763 328.714 71.9375 338.232 71.9375 338.232C75.6794 332.446 75.96 327.407 69.8795 326.194C72.1246 321.808 74.3697 310.331 62.8635 312.57C66.4183 298.573 59.3087 290.734 47.0541 290.174C47.709 285.695 44.9961 283.362 40.7865 282.522C43.1252 285.042 42.6574 289.521 40.5059 291.387C48.9251 291.294 50.0476 303.332 46.3058 311.077Z" fill="#20373D"/>
<path d="M21.6094 300.439C26.5674 297.733 36.0156 299.413 35.5478 308.277C39.851 307.251 44.996 308.837 43.6864 314.622C40.7864 311.17 33.6769 310.703 27.2222 313.316C27.9282 311.604 29.0933 310.119 30.5899 309.023C31.0576 303.985 27.9706 301.465 21.6094 300.439Z" fill="#253B47"/>
<path d="M68.0083 345.231C75.6791 342.898 81.5726 345.884 81.5726 350.363C90.5531 347.097 96.4465 351.203 96.9142 352.79C102.246 348.497 111.414 348.964 114.033 350.363C108.982 350.923 100.563 355.589 98.2239 358.668C103.275 359.135 106.082 362.494 106.082 367.907C101.404 363.054 91.9563 359.042 86.2499 359.415C87.5741 357.983 89.2048 356.866 91.0208 356.149C85.6066 353.343 79.5204 352.083 73.434 352.51C74.7437 348.777 73.1534 346.537 68.0083 345.231Z" fill="#20373D"/>
<path d="M0.09375 318.636C12.629 314.997 17.2128 318.916 17.2128 326.195C34.7996 325.355 43.8736 331.14 40.5059 344.391C51.4509 345.324 61.6475 354.936 62.8636 368H51.4509C48.9251 359.135 34.9867 348.59 21.6095 348.59C26.7546 340.379 28.8126 339.445 28.8126 339.445C20.4869 334.966 5.14527 334.406 0.09375 338.232V318.636Z" fill="#192530"/>
<path d="M235.738 310.331C239.386 308.371 251.641 308.278 254.073 314.623L235.738 310.331Z" fill="#CFE08B"/>
<path d="M221.051 313.13C223.109 309.117 226.102 308.744 227.599 308.837C229.938 307.531 234.334 307.624 233.68 313.783C229.564 314.156 221.051 313.13 221.051 313.13Z" fill="#8C7CA6"/>
<path d="M223.67 310.051C224.512 309.678 225.354 309.864 225.541 310.237C225.728 310.611 224.325 311.917 224.231 313.503H226.196C226.192 312.578 226.524 311.683 227.131 310.984C228.16 310.144 230.031 310.797 230.967 311.45C230.899 310.726 230.774 310.009 230.592 309.304C230.218 308.278 228.347 308.371 227.599 308.744C226.171 308.674 224.769 309.14 223.67 310.051V310.051Z" fill="#7E74A6"/>
<path d="M216.587 331.586C216.612 331.123 215.294 330.676 213.643 330.586C211.992 330.497 210.634 330.8 210.609 331.263C210.583 331.727 211.901 332.174 213.552 332.264C215.203 332.353 216.562 332.05 216.587 331.586Z" fill="#85C28D"/>
<path d="M150.329 307.158C155.754 307.158 160.152 306.782 160.152 306.318C160.152 305.854 155.754 305.479 150.329 305.479C144.904 305.479 140.507 305.854 140.507 306.318C140.507 306.782 144.904 307.158 150.329 307.158Z" fill="#508F86"/>
<path d="M256.574 312.179C256.595 311.975 255.824 311.731 254.852 311.633C253.88 311.535 253.076 311.621 253.055 311.825C253.034 312.029 253.805 312.274 254.777 312.372C255.749 312.47 256.554 312.384 256.574 312.179Z" fill="#CFE08B"/>
<path d="M201.313 312.197C200.564 311.451 199.161 312.104 198.413 313.224L205.148 313.503C204.68 312.197 202.996 311.637 201.313 312.197Z" fill="#CFE08B"/>
<path d="M215.812 323.582C217.964 323.022 221.799 324.048 223.857 325.354L204.493 323.861C206.083 322.742 210.948 322.555 215.812 323.582Z" fill="#85C28D"/>
<path d="M144.155 313.503C144.096 310.012 144.505 306.529 145.372 303.146C145.977 306.643 145.555 310.24 144.155 313.503Z" fill="#CFE08B"/>
<path d="M144.155 313.503C144.171 309.904 143.666 306.321 142.659 302.866C142.284 301.839 141.91 301.466 142.378 304.079C142.846 306.691 143.688 313.503 143.688 313.503H144.155Z" fill="#CFE08B"/>
<path d="M174.932 339.445C180.264 335.246 185.877 334.593 187.093 340.752L174.932 339.445Z" fill="#7E74A6"/>
<path d="M132.462 303.985C132.462 296.334 117.401 294.467 111.695 297.267C106.269 293.907 96.4467 293.907 95.979 305.944C107.859 305.291 117.027 305.571 121.424 306.318C129.749 305.478 132.462 303.985 132.462 303.985Z" fill="#629987"/>
<path d="M116.278 296.147C122.359 295.494 126.756 299.692 127.41 301.465C129.562 300.999 132.088 301.465 132.462 303.985C132.462 297.92 123.014 295.494 116.278 296.147Z" fill="#BAD17B"/>
<path d="M111.695 305.571C111.895 305.153 111.96 304.684 111.882 304.227C111.803 303.771 111.585 303.35 111.256 303.022C110.928 302.695 110.506 302.477 110.049 302.399C109.591 302.32 109.12 302.385 108.701 302.585C108.991 301.693 108.924 300.723 108.514 299.879C107.672 297.92 104.211 297.173 102.34 299.972C100.002 299.319 99.3467 302.398 100.282 303.705C98.1306 303.052 97.9435 304.638 98.5984 305.758C103.556 305.571 107.953 305.571 111.695 305.571Z" fill="#508F86"/>
<path d="M162.023 294.841L152.762 303.052L143.5 294.841V276.364L152.762 268.152L162.023 276.364V294.841Z" fill="#A73DB3"/>
<path d="M159.31 290.828L154.445 295.493L149.581 290.828V280.376L154.445 275.71L159.31 280.376V290.828Z" fill="#CC4CC8"/>
<path d="M154.446 275.71L152.762 268.152L162.023 276.364L159.31 280.376L154.446 275.71Z" fill="#F275FF"/>
<path d="M162.023 294.84L159.31 290.828L154.446 295.493L152.762 303.051L162.023 294.84Z" fill="#772C91"/>
<path d="M152.762 303.051L154.445 295.493L149.581 290.828L143.5 294.84L152.762 303.051Z" fill="#8C39A8"/>
<path d="M143.5 294.84L149.581 290.828V280.376L143.5 276.364V294.84Z" fill="#B341BF"/>
<path d="M152.481 291.481L154.352 289.988L150.891 288.868L152.481 291.481Z" fill="#D464CE"/>
<path d="M151.265 278.696C153.361 279.504 155.18 280.897 156.504 282.709L159.31 284.202V285.974C157.85 285.296 156.35 284.704 154.82 284.202C154.352 282.709 150.984 280.283 149.581 280.376L151.265 278.696Z" fill="#D45AE0"/>
<path d="M156.223 277.297L155.849 270.858L158.094 272.818L156.971 278.137L156.223 277.297Z" fill="white"/>
<path d="M94.2952 312.477C98.6919 311.637 103.463 312.29 105.053 313.503L90.3662 314.25C90.3662 314.25 90.4598 311.451 94.2952 312.477Z" fill="#629987"/>
</g>
<defs>
<linearGradient id="paint0_linear_1814_59598" x1="121.386" y1="208.934" x2="-3.15997" y2="143.499" gradientUnits="userSpaceOnUse">
<stop offset="0.03" stop-color="white"/>
<stop offset="1" stop-color="#CCBDFF"/>
</linearGradient>
<linearGradient id="paint1_linear_1814_59598" x1="275.386" y1="244.126" x2="372.724" y2="367.963" gradientUnits="userSpaceOnUse">
<stop stop-color="white"/>
<stop offset="1" stop-color="#CCBDFF"/>
</linearGradient>
<linearGradient id="paint2_linear_1814_59598" x1="49.9912" y1="203.251" x2="75.7169" y2="226.008" gradientUnits="userSpaceOnUse">
<stop stop-color="#6238EB"/>
<stop offset="1" stop-color="#80FBFF"/>
</linearGradient>
<clipPath id="clip0_1814_59598">
<rect width="372.316" height="368" fill="white"/>
</clipPath>
</defs>
</svg>
