<svg width="400" height="201" viewBox="0 0 400 201" fill="none" xmlns="http://www.w3.org/2000/svg">
<path d="M390.975 3.93848H9.02551C6.24028 3.93848 3.98242 6.17206 3.98242 8.92734V192.045C3.98242 194.8 6.24028 197.034 9.02551 197.034H390.975C393.76 197.034 396.018 194.8 396.018 192.045V8.92734C396.018 6.17206 393.76 3.93848 390.975 3.93848Z" fill="#2F3136"/>
<path d="M390.974 3.93858C392.312 3.93858 393.595 4.46419 394.54 5.39979C395.486 6.33538 396.018 7.60432 396.018 8.92745V192.072C396.018 193.395 395.486 194.664 394.54 195.599C393.595 196.535 392.312 197.06 390.974 197.06H8.89278C7.5784 197.026 6.32951 196.486 5.41225 195.554C4.495 194.622 3.98194 193.372 3.98239 192.072V8.92745C3.98194 7.62675 4.495 6.37731 5.41225 5.4454C6.32951 4.51349 7.5784 3.97281 8.89278 3.93858H390.974ZM390.974 0H8.89278C6.52241 0.0344873 4.26092 0.99026 2.5971 2.66076C0.933272 4.33126 0.00073425 6.58231 0.000990604 8.92745V192.072C-0.0166055 193.238 0.200376 194.396 0.639346 195.478C1.07832 196.56 1.7305 197.546 2.55793 198.376C3.38537 199.207 4.37155 199.867 5.45909 200.317C6.54664 200.767 7.71384 200.999 8.89278 200.999H390.974C392.165 201.017 393.346 200.798 394.449 200.356C395.552 199.913 396.554 199.256 397.396 198.424C398.237 197.591 398.901 196.6 399.348 195.509C399.796 194.418 400.017 193.249 399.999 192.072V8.92745C399.999 6.55974 399.048 4.28901 397.356 2.61478C395.663 0.940562 393.368 0 390.974 0Z" fill="black"/>
<path d="M3.98242 8.92734C3.98197 7.62665 4.49503 6.3772 5.41229 5.44529C6.32954 4.51338 7.57843 3.97271 8.89281 3.93848H390.975C392.312 3.93848 393.595 4.46408 394.541 5.39968C395.486 6.33527 396.018 7.60421 396.018 8.92734V63.1485H3.98242V8.92734Z" fill="#2F3136"/>
<path d="M373.324 46.0811C373.058 45.6872 373.191 45.0308 373.058 44.3744C373.03 43.8004 372.886 43.2379 372.635 42.7195C372.384 42.2011 372.032 41.7372 371.598 41.3548L368.546 38.5978C368.546 38.5978 367.882 37.9413 367.352 38.5978C367.211 38.7633 367.134 38.9725 367.134 39.1886C367.134 39.4046 367.211 39.6138 367.352 39.7793L368.679 40.9609L369.873 42.0112C369.873 42.0112 369.608 42.2738 368.281 41.2235L364.034 37.2849C364.034 37.2849 363.37 36.6285 362.839 37.2849C362.699 37.4504 362.622 37.6596 362.622 37.8757C362.622 38.0918 362.699 38.301 362.839 38.4665L366.954 42.1425L366.555 42.4051L362.309 38.4665C362.141 38.3276 361.93 38.2514 361.711 38.2514C361.493 38.2514 361.281 38.3276 361.114 38.4665C360.974 38.632 360.897 38.8412 360.897 39.0573C360.897 39.2734 360.974 39.4825 361.114 39.6481L365.494 43.7179L365.228 43.9805L361.512 40.5671C361.345 40.4281 361.133 40.352 360.915 40.352C360.697 40.352 360.485 40.4281 360.318 40.5671C360.177 40.7326 360.1 40.9418 360.1 41.1578C360.1 41.3739 360.177 41.5831 360.318 41.7486L364.299 45.4246C364.299 45.4246 364.034 45.8185 364.167 45.8185L361.247 43.1928C361.08 43.0539 360.868 42.9777 360.65 42.9777C360.431 42.9777 360.22 43.0539 360.052 43.1928C359.975 43.2757 359.917 43.374 359.881 43.481C359.846 43.5881 359.834 43.7015 359.847 43.8135C359.859 43.9255 359.896 44.0335 359.954 44.1303C360.013 44.227 360.091 44.3103 360.185 44.3744L364.83 48.7068C365.537 49.3336 366.413 49.744 367.352 49.8884H367.882L368.811 50.2822C368.923 50.3974 369.057 50.4891 369.205 50.5517C369.353 50.6143 369.513 50.6466 369.674 50.6466C369.835 50.6466 369.995 50.6143 370.143 50.5517C370.291 50.4891 370.425 50.3974 370.537 50.2822L371.997 48.8381L373.324 47.3939C373.475 47.2077 373.557 46.9761 373.557 46.7375C373.557 46.4989 373.475 46.2674 373.324 46.0811Z" fill="#4F545C"/>
<path d="M360.583 50.4134H360.318C360.242 50.3203 360.201 50.2045 360.201 50.0852C360.201 49.9659 360.242 49.8502 360.318 49.757L361.777 48.3129C361.872 48.2383 361.989 48.1977 362.109 48.1977C362.23 48.1977 362.347 48.2383 362.441 48.3129C362.506 48.3851 362.542 48.4786 362.542 48.5754C362.542 48.6723 362.506 48.7658 362.441 48.838L360.981 50.4134H360.583ZM363.503 50.8073H363.37C363.105 50.8073 362.972 50.5447 363.105 50.2822L363.503 49.1006C363.503 48.9693 363.768 48.838 364.034 48.9693C364.299 49.1006 364.299 49.2319 364.299 49.4944L363.901 50.5447C363.768 50.8073 363.635 50.8073 363.503 50.8073ZM360.318 47.6564C360.052 47.6564 359.919 47.5252 359.919 47.3939C359.919 47.2626 359.919 47 360.185 46.8687L361.114 46.4749L361.645 46.7374C361.777 47 361.645 47.2626 361.379 47.2626L360.45 47.6564H360.318ZM372.527 38.729C372.394 38.729 372.262 38.729 372.262 38.5977C372.197 38.5255 372.16 38.432 372.16 38.3351C372.16 38.2382 372.197 38.1448 372.262 38.0726L373.722 36.4971C373.795 36.4325 373.889 36.3968 373.987 36.3968C374.085 36.3968 374.18 36.4325 374.252 36.4971C374.518 36.7597 374.518 37.0223 374.252 37.1535L372.793 38.5977C372.793 38.729 372.66 38.729 372.527 38.729ZM370.802 38.0726C370.767 38.0726 370.733 38.0587 370.708 38.0341C370.683 38.0095 370.669 37.9761 370.669 37.9413C370.404 37.9413 370.271 37.6787 370.404 37.4161L370.802 36.3658C370.935 36.1033 371.067 35.972 371.333 36.1033C371.598 36.2345 371.731 36.3658 371.598 36.6284L371.2 37.6787C371.112 37.9413 370.979 38.0726 370.802 38.0726ZM373.323 40.4357L372.925 40.1731C372.925 39.9106 373.058 39.648 373.191 39.648L374.252 39.2541C374.518 39.1228 374.651 39.2541 374.783 39.5167C374.916 39.7793 374.783 39.9106 374.518 40.0418L373.456 40.4357H373.323Z" fill="#A3A6AA"/>
<path d="M374.518 45.8192C374.253 45.4254 374.518 44.7689 374.385 44.1125C374.381 43.5467 374.261 42.9876 374.033 42.4687C373.805 41.9499 373.474 41.4819 373.058 41.0929L370.006 38.2046C369.931 38.1208 369.839 38.0537 369.736 38.0077C369.633 37.9617 369.522 37.9379 369.409 37.9379C369.296 37.9379 369.184 37.9617 369.081 38.0077C368.978 38.0537 368.886 38.1208 368.811 38.2046C368.281 38.7298 368.944 39.3862 368.944 39.3862L370.139 40.5678L371.2 41.7494C371.2 41.7494 370.935 42.0119 369.74 40.8304L365.626 36.7605C365.626 36.7605 364.963 36.1041 364.432 36.7605C364.292 36.926 364.215 37.1352 364.215 37.3513C364.215 37.5674 364.292 37.7766 364.432 37.9421L368.281 41.7494L368.015 42.0119L363.901 37.9421C363.901 37.9421 363.238 37.2856 362.707 37.9421C362.176 38.5985 362.707 39.1236 362.707 39.1236L366.821 43.1935L366.555 43.4561L362.972 39.9114C362.805 39.7725 362.593 39.6963 362.375 39.6963C362.156 39.6963 361.945 39.7725 361.778 39.9114C361.637 40.0769 361.56 40.2861 361.56 40.5021C361.56 40.7182 361.637 40.9274 361.778 41.0929L365.626 44.9002C365.626 44.9002 365.361 45.2941 365.494 45.2941L362.707 42.5371C362.539 42.3982 362.328 42.322 362.109 42.322C361.891 42.322 361.68 42.3982 361.512 42.5371C361.428 42.611 361.36 42.7019 361.313 42.8038C361.267 42.9056 361.243 43.0161 361.243 43.1279C361.243 43.2396 361.267 43.3501 361.313 43.452C361.36 43.5538 361.428 43.6447 361.512 43.7187L366.024 48.1824C366.614 48.915 367.473 49.387 368.413 49.4952H369.077L370.006 50.0204C370.243 50.1729 370.519 50.2541 370.802 50.2541C371.085 50.2541 371.362 50.1729 371.598 50.0204L373.191 48.5762L374.518 47.1321C374.916 46.7382 374.916 46.3444 374.518 45.8192Z" fill="#86888C"/>
<path fill-rule="evenodd" clip-rule="evenodd" d="M383.012 42.0117L381.021 43.981L379.163 42.0117L378.5 42.6681L381.021 45.1626L383.543 42.6681L383.012 42.0117Z" fill="#B9BBBE"/>
<path d="M25.2166 24.4198L24.0221 24.9449H22.695L21.2352 24.6823L20.1735 24.0259C19.903 23.6612 19.68 23.2642 19.5099 22.8443C19.1529 21.914 19.1529 20.8864 19.5099 19.956C19.6517 19.5626 19.8781 19.2043 20.1735 18.9058C20.4581 18.5624 20.8223 18.2922 21.2352 18.118L22.695 17.8555H23.8894L24.8184 18.2493L24.553 19.6935L23.7567 19.2996H22.0314L21.5006 19.6935C21.3194 19.8796 21.1832 20.1041 21.1025 20.3499C21.1025 20.6125 20.9697 21.0063 20.9697 21.2689C20.9697 21.5315 21.1025 21.9253 21.1025 22.1879C21.1025 22.4505 21.2352 22.7131 21.5006 22.8443C21.766 22.9756 21.766 23.2382 22.0314 23.2382L22.8277 23.5008H23.7567V22.3192H22.5623L22.2969 21.0063H25.2166V24.4198ZM26.411 24.9449V18.118H28.1363V24.9449H26.411ZM31.056 19.5622V20.8751H32.9139L33.1794 22.3192H31.056V24.9449H29.3307V18.118H33.4448V19.5622H31.056ZM37.6916 23.5008C37.7099 23.7142 37.6841 23.929 37.6156 24.1321C37.5472 24.3353 37.4375 24.5225 37.2935 24.6823C36.8146 24.9688 36.2597 25.1061 35.7009 25.0762H34.6392L33.7102 24.6823L33.9756 23.5008L34.9046 24.0259H36.2318V23.7633H35.4355L34.6392 23.5008L34.1084 23.2382L33.7102 22.8443V22.1879C33.7024 21.9954 33.7336 21.8033 33.802 21.623C33.8704 21.4426 33.9745 21.2776 34.1084 21.1376C34.5223 20.8066 35.036 20.6218 35.5682 20.6125H36.4972L37.2935 20.8751V22.0566L36.4972 21.6628H35.3028C35.1701 21.7941 35.1701 21.794 35.1701 21.9253H35.9664L36.7626 22.1879L37.4262 22.4505L37.6916 22.8443V23.5008Z" fill="#B9BBBE"/>
<path d="M58.3949 22.8443C58.4271 23.1998 58.3818 23.558 58.2622 23.8946L57.7313 24.5511L56.935 24.9449H54.6789L53.6172 24.5511V23.1069L54.8116 23.5008L55.8733 23.7633L56.4042 23.5008C56.6696 23.5008 56.6696 23.2382 56.6696 23.1069V22.8443C56.6696 22.7131 56.5369 22.7131 56.5369 22.5818H56.2715L55.6079 22.3192L54.8116 21.9253L54.148 21.5315L53.7499 20.8751V20.2186C53.7195 19.9062 53.765 19.5911 53.8826 19.2996L54.4135 18.6432L55.077 18.3806H57.2004L58.1294 18.7745L57.864 20.2186C57.6116 19.9821 57.2822 19.8424 56.935 19.8248H55.4752C55.3425 19.8248 55.3425 19.9561 55.3425 20.2186C55.3425 20.3499 55.4752 20.3499 55.4752 20.4812H55.8733L56.4042 20.7438L57.3332 21.1376L57.9967 21.6628C58.0791 21.7239 58.146 21.8032 58.1921 21.8943C58.2382 21.9855 58.2622 22.086 58.2622 22.1879C58.3694 22.3895 58.4155 22.6175 58.3949 22.8443ZM62.1108 24.9449H60.5183L59.9874 24.6823L59.5893 24.1572C59.522 23.8989 59.4776 23.6354 59.4566 23.3695V21.2689H58.9257V20.0873H59.4566V18.6432L61.0491 18.3806V20.0873H61.9781V21.2689H60.9164V23.1069C60.9164 23.5008 61.0491 23.7633 61.4473 23.7633H61.8454L62.1108 24.9449ZM64.4997 18.6432C64.4997 18.9058 64.4997 19.1683 64.2343 19.2996H63.0398C62.8773 19.1177 62.7835 18.8858 62.7744 18.6432C62.7744 18.5413 62.7984 18.4408 62.8445 18.3496C62.8905 18.2585 62.9574 18.1792 63.0398 18.118L63.7034 17.8555L64.2343 18.118C64.4997 18.2493 64.4997 18.3806 64.4997 18.6432ZM62.9071 24.9449V20.0873H64.367V24.9449H62.9071ZM69.1447 24.5511L68.4811 24.9449H67.5521L66.6231 24.6823C66.3638 24.6275 66.1304 24.489 65.9595 24.2885L65.4287 23.5008C65.309 23.1641 65.2637 22.8059 65.2959 22.4505C65.2751 22.0521 65.3199 21.653 65.4287 21.2689L65.9595 20.4812L66.7558 20.0873H68.4811L69.1447 20.3499L68.8792 21.6628C68.8174 21.5812 68.7373 21.5151 68.6451 21.4695C68.553 21.4239 68.4514 21.4002 68.3484 21.4002H67.8175C67.5107 21.4251 67.2254 21.5662 67.0212 21.7941C66.8192 22.0565 66.7244 22.3846 66.7558 22.7131C66.7502 22.8857 66.783 23.0575 66.8518 23.2163C66.9206 23.3751 67.0237 23.517 67.154 23.6321L67.8175 23.8946H68.3484L69.0119 23.6321L69.1447 24.5511ZM72.8606 25.0762L71.5335 22.7131V24.9449H69.9409V18.118L71.5335 17.8555V22.0566L72.7279 20.0873H74.4532L72.8606 22.3192L74.4532 24.8136L72.8606 25.0762ZM79.2308 24.5511L78.3019 24.9449H76.1785L75.3822 24.4198C75.1431 24.2038 74.9609 23.9334 74.8513 23.6321C74.6715 22.9432 74.6715 22.2204 74.8513 21.5315C74.8801 21.3711 74.9421 21.2183 75.0335 21.0827C75.1248 20.9472 75.2436 20.8318 75.3822 20.7438C75.5392 20.5015 75.7723 20.317 76.0457 20.2186L76.9747 19.956L78.0364 20.2186L78.7 20.7438L79.0982 21.5315C79.0982 21.7941 79.2308 22.1879 79.2308 22.5818H76.1785L76.5766 23.5008H78.1692L78.9654 23.2382L79.2308 24.5511ZM76.9747 21.0063C76.7093 21.0063 76.5766 21.0063 76.4439 21.2689C76.3479 21.3755 76.2748 21.5003 76.2291 21.6357C76.1835 21.7712 76.1663 21.9144 76.1785 22.0566H77.771C77.6383 21.4002 77.5056 21.0063 76.9747 21.0063ZM83.2122 21.5315L82.1506 21.7941L81.487 22.3192V24.9449H80.0271V20.0873H81.3543V21.0063L81.8851 20.3499C82.1505 20.0873 82.416 20.0873 82.8141 19.956L83.2122 21.5315ZM87.4591 23.5008C87.4774 23.7142 87.4515 23.929 87.3831 24.1321C87.3146 24.3353 87.205 24.5225 87.061 24.6823C86.5821 24.9688 86.0272 25.1061 85.4684 25.0762H84.4067L83.4777 24.6823V23.5008L84.4067 24.0259H85.8665V23.7633H85.0703L84.274 23.5008L83.7431 23.2382L83.345 22.8443V22.1879C83.3372 21.9954 83.3684 21.8033 83.4367 21.623C83.5051 21.4426 83.6093 21.2776 83.7431 21.1376C84.157 20.8066 84.6708 20.6218 85.2029 20.6125H86.132L86.9282 20.8751V22.0566L86.132 21.6628H84.9375C84.8048 21.7941 84.8048 21.794 84.8048 21.9253H85.6011L86.3974 22.1879L87.061 22.4505L87.3264 22.8443L87.4591 23.5008Z" fill="#B9BBBE"/>
<path d="M129.264 13.7852H100.598C99.2051 13.7852 98.0762 14.902 98.0762 16.2796V26.0998C98.0762 27.4774 99.2051 28.5942 100.598 28.5942H129.264C130.656 28.5942 131.785 27.4774 131.785 26.0998V16.2796C131.785 14.902 130.656 13.7852 129.264 13.7852Z" fill="#4F545C"/>
<path d="M103.65 24.9449V18.118H107.897V19.5622H105.242V20.7438H107.233L107.499 22.1879H105.242V23.6321H108.029V24.9449H103.65ZM114.4 24.9449V21.9253C114.406 21.8542 114.397 21.7826 114.374 21.7149C114.352 21.6472 114.315 21.5848 114.267 21.5315C114.267 21.4618 114.239 21.3951 114.189 21.3458C114.139 21.2966 114.072 21.2689 114.002 21.2689H113.603L113.205 21.6628V24.8136H111.613V21.9253C111.619 21.8542 111.61 21.7826 111.587 21.7149C111.565 21.6472 111.528 21.5848 111.48 21.5315L111.215 21.2689H110.816L110.418 21.6628V24.8136H108.826V20.0873H110.153V20.7438L110.816 20.2186L111.613 19.956C111.757 19.944 111.901 19.961 112.038 20.0062C112.175 20.0513 112.301 20.1236 112.409 20.2186C112.674 20.3499 112.807 20.6125 112.94 20.7438L113.603 20.2186L114.4 19.956C114.595 19.94 114.792 19.9671 114.975 20.0352C115.159 20.1033 115.325 20.2108 115.461 20.3499C115.605 20.5097 115.715 20.697 115.783 20.9001C115.852 21.1033 115.878 21.3181 115.86 21.5315V24.9449H114.4ZM121.433 22.5818C121.407 22.9444 121.317 23.2997 121.168 23.6321C121.168 23.8946 120.903 24.1572 120.77 24.4198L119.974 24.8136L119.045 25.0762L118.116 24.8136C117.85 24.8136 117.585 24.5511 117.319 24.4198L116.921 23.6321C116.772 23.2997 116.682 22.9444 116.656 22.5818C116.665 22.2167 116.756 21.8581 116.921 21.5315C116.996 21.244 117.132 20.9756 117.319 20.7438L118.116 20.2186L119.045 19.956L119.974 20.2186L120.77 20.7438C121 20.9458 121.143 21.228 121.168 21.5315C121.333 21.8581 121.424 22.2167 121.433 22.5818ZM119.974 22.5818C119.964 22.2167 119.873 21.8581 119.708 21.5315L119.045 21.2689L118.381 21.5315C118.216 21.8581 118.125 22.2167 118.116 22.5818C118.121 22.9059 118.212 23.223 118.381 23.5008C118.454 23.6091 118.552 23.698 118.668 23.7594C118.784 23.8209 118.913 23.8531 119.045 23.8531C119.176 23.8531 119.305 23.8209 119.421 23.7594C119.537 23.698 119.636 23.6091 119.708 23.5008C119.877 23.223 119.969 22.9059 119.974 22.5818ZM123.822 18.6432C123.822 18.9058 123.822 19.1683 123.557 19.2996H122.362C122.2 19.1177 122.106 18.8858 122.097 18.6432C122.097 18.5413 122.121 18.4408 122.167 18.3496C122.213 18.2585 122.28 18.1792 122.362 18.118L123.026 17.8555L123.557 18.118C123.822 18.2493 123.822 18.3806 123.822 18.6432ZM123.69 25.0762C123.709 25.3455 123.663 25.6154 123.557 25.8639C123.557 25.9658 123.533 26.0663 123.487 26.1575C123.441 26.2486 123.374 26.3279 123.291 26.3891L122.761 26.6516H121.566L121.301 25.6014H122.097C122.23 25.4701 122.23 25.3388 122.23 25.0762V20.0873H123.69V25.0762ZM126.477 18.6432C126.467 18.8858 126.374 19.1177 126.211 19.2996H125.017C124.854 19.1177 124.76 18.8858 124.751 18.6432C124.751 18.5413 124.775 18.4408 124.821 18.3496C124.867 18.2585 124.934 18.1792 125.017 18.118L125.548 17.8555L126.211 18.118C126.294 18.1792 126.36 18.2585 126.407 18.3496C126.453 18.4408 126.477 18.5413 126.477 18.6432ZM124.884 24.9449V20.0873H126.344V24.9449H124.884Z" fill="white"/>
<path d="M344.923 33.6094H16.4576C15.065 33.6094 13.936 34.7262 13.936 36.1038V50.8604C13.936 52.238 15.065 53.3548 16.4576 53.3548H344.923C346.316 53.3548 347.445 52.238 347.445 50.8604V36.1038C347.445 34.7262 346.316 33.6094 344.923 33.6094Z" fill="#202225"/>
<path d="M341.472 46.8703L339.216 44.6384C339.631 44.0622 339.862 43.3763 339.88 42.6691C339.852 41.7995 339.524 40.9655 338.951 40.306C338.294 39.7247 337.443 39.4033 336.562 39.4033C335.681 39.4033 334.83 39.7247 334.173 40.306C333.6 40.9655 333.272 41.7995 333.244 42.6691C333.269 43.5002 333.599 44.2938 334.173 44.901C334.479 45.2269 334.848 45.4881 335.259 45.6687C335.669 45.8492 336.113 45.9454 336.562 45.9513C336.931 45.9641 337.299 45.9007 337.641 45.7651C337.984 45.6295 338.294 45.4246 338.553 45.1636L340.809 47.3954L341.472 46.8703ZM336.562 45.1636C336.232 45.1738 335.905 45.108 335.605 44.9713C335.306 44.8345 335.043 44.6307 334.837 44.3758C334.593 44.1604 334.397 43.8977 334.26 43.6042C334.123 43.3106 334.048 42.9924 334.04 42.6691C334.05 41.9765 334.337 41.3159 334.837 40.8311C335.304 40.3973 335.921 40.1558 336.562 40.1558C337.203 40.1558 337.82 40.3973 338.287 40.8311C338.787 41.3159 339.074 41.9765 339.084 42.6691C339.076 42.9924 339.001 43.3106 338.864 43.6042C338.727 43.8977 338.531 44.1604 338.287 44.3758C338.081 44.6307 337.818 44.8345 337.519 44.9713C337.219 45.108 336.892 45.1738 336.562 45.1636Z" fill="#A3A6AA"/>
<path d="M20.9696 41.4871V43.1938H22.9603V44.3754H20.8369V47.1324H19.5098V40.3055H23.3584V41.4871H20.9696ZM25.6146 40.962C25.6146 41.0933 25.6146 41.2245 25.3491 41.3558L24.951 41.6184L24.4202 41.3558C24.2874 41.2245 24.1547 41.0933 24.1547 40.962C24.182 40.7625 24.2746 40.5775 24.4185 40.4351C24.5623 40.2928 24.7494 40.2012 24.951 40.1743L25.3491 40.4368C25.6146 40.5681 25.6146 40.6994 25.6146 40.962ZM24.2874 47.1324V42.4061H25.4819V47.1324H24.2874ZM29.7287 47.1324V43.9816C29.7287 43.8503 29.596 43.719 29.4633 43.5877C29.3306 43.4564 29.3305 43.3251 29.0651 43.3251H28.5343L28.0034 43.8503V47.0011H26.809V42.2748H27.738V42.9313L28.5343 42.4061L29.3305 42.1435C29.5259 42.1275 29.7225 42.1546 29.9061 42.2227C30.0896 42.2908 30.2557 42.3983 30.3923 42.5374C30.5261 42.6774 30.6302 42.8424 30.6986 43.0227C30.767 43.2031 30.7982 43.3952 30.7904 43.5877V47.0011L29.7287 47.1324ZM35.1699 47.1324V46.476L34.5064 47.0011L33.7101 47.2637H32.9138L32.383 46.8698L31.9848 46.0821C31.8651 45.7455 31.8199 45.3873 31.8521 45.0318C31.8312 44.6335 31.8761 44.2344 31.9848 43.8503L32.5157 43.0625C32.6866 42.862 32.92 42.7235 33.1792 42.6687L33.9755 42.4061H35.0372V40.043H36.2316V47.1324H35.1699ZM35.0372 43.4564H34.1082C33.8014 43.4813 33.5161 43.6224 33.3119 43.8503C33.1151 44.2124 33.0233 44.6213 33.0465 45.0318C33.0367 45.358 33.1294 45.6791 33.3119 45.9508C33.367 46.0769 33.4607 46.1827 33.5797 46.2534C33.6987 46.324 33.8372 46.356 33.9755 46.3447H34.5064C34.7718 46.2134 34.9045 45.9508 35.0372 45.8196V43.4564ZM42.2037 47.1324C42.071 47.1324 41.9383 47.1324 41.9383 47.2637H40.7439L40.3458 47.0011L39.9476 46.6073C39.8903 46.3913 39.846 46.1721 39.8149 45.9508V43.4564H39.1513V42.5374H39.8149V40.8307H41.0093V42.5374H42.071V43.4564H40.8766V45.6883C40.8766 45.9508 41.0093 46.0821 41.0093 46.2134H41.9383L42.2037 47.1324ZM46.0524 47.1324V43.9816C46.0524 43.8503 45.9197 43.719 45.9197 43.5877L45.3889 43.3251H44.858C44.6223 43.4304 44.4336 43.6171 44.3272 43.8503V47.0011H43.1327V40.043H44.3272V42.9313L44.9907 42.5374L45.787 42.2748C45.9824 42.2588 46.1789 42.2858 46.3625 42.3539C46.5461 42.422 46.7121 42.5295 46.8487 42.6687C46.9825 42.8086 47.0867 42.9737 47.1551 43.154C47.2234 43.3344 47.2547 43.5265 47.2468 43.719V47.1324H46.0524ZM52.4227 46.6073L51.6264 47.1324H49.6357C49.4735 47.1039 49.3191 47.0426 49.1821 46.9522C49.045 46.8618 48.9284 46.7444 48.8394 46.6073C48.5945 46.4519 48.408 46.2213 48.3086 45.9508C48.1998 45.5667 48.155 45.1676 48.1758 44.7693C48.1436 44.4138 48.1889 44.0556 48.3086 43.719C48.4383 43.4281 48.6179 43.1616 48.8394 42.9313L49.503 42.4061H50.2993L51.2282 42.6687C51.3731 42.6977 51.5089 42.7605 51.6243 42.8518C51.7397 42.9431 51.8314 43.0604 51.8918 43.1938C52.0192 43.2483 52.1262 43.3409 52.1976 43.4587C52.2691 43.5764 52.3013 43.7134 52.29 43.8503C52.3992 44.1893 52.4442 44.5454 52.4227 44.9006H49.3703C49.3625 45.093 49.3937 45.2851 49.462 45.4655C49.5304 45.6459 49.6346 45.8109 49.7684 45.9508L50.6974 46.2134H51.4937L52.29 45.6883L52.4227 46.6073ZM50.2993 43.0625C50.0338 43.0625 49.9011 43.1938 49.6357 43.4564C49.5397 43.563 49.4666 43.6878 49.421 43.8232C49.3753 43.9587 49.3581 44.1019 49.3703 44.2441H51.2282C51.2404 44.1019 51.2232 43.9587 51.1776 43.8232C51.1319 43.6878 51.0589 43.563 50.9628 43.4564C50.9078 43.3303 50.8141 43.2245 50.6951 43.1539C50.5761 43.0832 50.4376 43.0513 50.2993 43.0625ZM59.9873 44.638C59.9873 45.0318 59.8546 45.4257 59.8546 45.8196C59.7249 46.1104 59.5453 46.3769 59.3238 46.6073C59.1529 46.8078 58.9194 46.9463 58.6602 47.0011L57.8639 47.2637H56.8022V49.1017H55.6078V42.5374H56.5368V43.1938C56.6938 42.9516 56.927 42.7671 57.2003 42.6687L57.9966 42.4061H58.7929L59.3238 42.9313L59.7219 43.5877C59.887 43.9143 59.9776 44.2729 59.9873 44.638ZM58.7929 44.7693C58.822 44.4 58.7288 44.0313 58.5275 43.719C58.4724 43.5929 58.3788 43.4871 58.2598 43.4165C58.1407 43.3458 58.0023 43.3139 57.8639 43.3251L57.2003 43.5877C57.0676 43.5877 56.9349 43.8503 56.8022 43.9816V46.0821H57.7312C57.8696 46.0934 58.008 46.0614 58.127 45.9908C58.2461 45.9201 58.3397 45.8143 58.3948 45.6883C58.6602 45.6883 58.7929 45.2944 58.7929 44.7693ZM65.0304 46.6073L64.1014 47.1324H62.1107L61.3144 46.6073L60.9163 45.9508C60.7647 45.5735 60.6751 45.1746 60.6509 44.7693C60.6606 44.4042 60.7512 44.0456 60.9163 43.719C60.9163 43.4564 61.1817 43.1938 61.3144 42.9313L61.978 42.4061H62.907L63.836 42.6687C63.9809 42.6977 64.1166 42.7605 64.2321 42.8518C64.3475 42.9431 64.4392 43.0604 64.4996 43.1938L64.8977 43.8503C64.8977 44.2441 65.0304 44.5067 65.0304 44.9006H61.8453C61.8375 45.093 61.8687 45.2851 61.9371 45.4655C62.0055 45.6459 62.1096 45.8109 62.2435 45.9508L63.1725 46.2134H64.1014L64.8977 45.6883L65.0304 46.6073ZM62.907 43.0625C62.7687 43.0513 62.6302 43.0832 62.5112 43.1539C62.3922 43.2245 62.2985 43.3303 62.2435 43.4564C62.056 43.6882 61.9203 43.9567 61.8453 44.2441H63.836C63.8482 44.1019 63.831 43.9587 63.7853 43.8232C63.7397 43.6878 63.6666 43.563 63.5706 43.4564C63.5155 43.3303 63.4219 43.2245 63.3028 43.1539C63.1838 43.0832 63.0454 43.0513 62.907 43.0625ZM68.8791 43.4564L67.8174 43.719L67.1539 44.3754V47.1324H65.9594V42.4061H67.0211V43.3251C67.1206 43.0547 67.3071 42.824 67.552 42.6687C67.8044 42.4322 68.1338 42.2925 68.481 42.2748L68.8791 43.4564ZM72.3297 41.0933H71.2679C71.1352 41.0933 71.1353 41.3558 71.1353 41.4871V42.2748H72.0642V43.1938H71.0025V47.0011H69.8081V43.1938H69.1446V42.2748H69.8081V41.3558C69.7875 41.1289 69.8335 40.901 69.9408 40.6994L70.339 40.3055C70.4008 40.224 70.4809 40.1578 70.5731 40.1123C70.6652 40.0667 70.7668 40.043 70.8698 40.043H71.9315L72.3297 41.0933ZM76.8419 46.6073L76.0456 47.1324H74.0549L73.2586 46.6073L72.7278 45.9508C72.7278 45.557 72.5951 45.1631 72.5951 44.7693C72.5951 44.3754 72.7278 43.9815 72.7278 43.719L73.2586 42.9313L73.9222 42.4061H74.8512L75.7802 42.6687C76.0457 42.6687 76.1784 42.9313 76.4438 43.1938C76.6063 43.3757 76.7001 43.6077 76.7092 43.8503C76.8185 44.1893 76.8635 44.5454 76.8419 44.9006H73.7895C73.7817 45.093 73.8129 45.2851 73.8813 45.4655C73.9497 45.6459 74.0538 45.8109 74.1877 45.9508L75.1167 46.2134H75.9129L76.7092 45.6883L76.8419 46.6073ZM74.7185 43.0625C74.6029 43.0763 74.4929 43.12 74.3998 43.1891C74.3066 43.2583 74.2334 43.3504 74.1877 43.4564C73.9222 43.5877 73.9222 43.8503 73.7895 44.2441H75.7802C75.6475 43.8503 75.6475 43.5877 75.3821 43.4564C75.327 43.3303 75.2334 43.2245 75.1144 43.1539C74.9953 43.0832 74.8569 43.0513 74.7185 43.0625ZM81.4869 46.7386L80.8233 47.1324H78.9653C78.692 47.034 78.4588 46.8495 78.3018 46.6073C78.0802 46.3769 77.9007 46.1104 77.7709 45.8196C77.5911 45.1307 77.5911 44.4079 77.7709 43.719C77.9007 43.4281 78.0802 43.1616 78.3018 42.9313L79.0981 42.4061H80.8233L81.4869 42.6687L81.2215 43.719C81.1596 43.6374 81.0795 43.5713 80.9874 43.5257C80.8952 43.4801 80.7936 43.4564 80.6906 43.4564H80.027C79.8525 43.4509 79.6789 43.4833 79.5183 43.5513C79.3578 43.6194 79.2144 43.7214 79.0981 43.8503C78.9121 44.169 78.8202 44.5328 78.8326 44.9006C78.8326 45.4257 78.9653 45.8196 79.2308 45.9508C79.3195 46.0772 79.439 46.1795 79.5781 46.2483C79.7173 46.3171 79.8716 46.3502 80.027 46.3447H80.6906L81.3542 46.0821L81.4869 46.7386ZM85.0702 47.1324H83.6103L83.2122 46.8698C82.9467 46.8698 82.9467 46.6073 82.814 46.476C82.6879 46.2815 82.6405 46.0471 82.6813 45.8196V43.3251H82.0177V42.4061H82.6813V40.8307H83.8757V42.5374H84.9374V43.4564H83.743V45.6883C83.743 45.9508 83.743 46.0821 83.8757 46.2134H84.8047L85.0702 47.1324ZM92.104 46.6073L91.3077 47.1324H89.317C89.1548 47.1039 89.0004 47.0426 88.8634 46.9522C88.7263 46.8618 88.6096 46.7444 88.5207 46.6073C88.2758 46.4519 88.0893 46.2213 87.9898 45.9508C87.8811 45.5667 87.8363 45.1676 87.8571 44.7693C87.8249 44.4138 87.8702 44.0556 87.9898 43.719L88.388 42.9313L89.1842 42.4061H89.9805L90.9095 42.6687C91.0544 42.6977 91.1902 42.7605 91.3056 42.8518C91.421 42.9431 91.5127 43.0604 91.5731 43.1938C91.7005 43.2483 91.8075 43.3409 91.8789 43.4587C91.9504 43.5764 91.9826 43.7134 91.9712 43.8503C92.0805 44.1893 92.1255 44.5454 92.104 44.9006H89.0516C89.0438 45.093 89.075 45.2851 89.1433 45.4655C89.2117 45.6459 89.3159 45.8109 89.4497 45.9508L90.3787 46.2134H91.1749L91.9712 45.6883L92.104 46.6073ZM89.9805 43.0625C89.7151 43.0625 89.5824 43.1938 89.317 43.4564C89.2209 43.563 89.1479 43.6878 89.1022 43.8232C89.0566 43.9587 89.0394 44.1019 89.0516 44.2441H90.9095C90.9217 44.1019 90.9045 43.9587 90.8588 43.8232C90.8132 43.6878 90.7401 43.563 90.6441 43.4564C90.589 43.3303 90.4954 43.2245 90.3764 43.1539C90.2574 43.0832 90.1189 43.0513 89.9805 43.0625ZM98.8723 47.1324V43.9816C98.8723 43.8503 98.7396 43.719 98.7396 43.5877L98.2088 43.3251H97.6779C97.5452 43.4564 97.2798 43.5877 97.147 43.8503V47.0011H95.9526V43.8503C95.9587 43.7791 95.9501 43.7075 95.9273 43.6398C95.9045 43.5721 95.8679 43.5097 95.8199 43.4564L95.4218 43.1938H94.7582L94.2274 43.719V46.8698H93.033V42.1435H94.0947V42.8L94.7582 42.2748L95.6872 42.0123L96.4835 42.2748C96.6162 42.4061 96.8816 42.5374 96.8816 42.8L97.6779 42.2748L98.4742 42.0123C98.6696 41.9963 98.8661 42.0233 99.0497 42.0914C99.2333 42.1595 99.3993 42.267 99.5359 42.4061C99.6697 42.5461 99.7739 42.7111 99.8423 42.8915C99.9106 43.0718 99.9418 43.2639 99.934 43.4564V46.8698L98.8723 47.1324ZM105.508 44.7693C105.54 45.1247 105.495 45.4829 105.375 45.8196C105.246 46.1104 105.066 46.3769 104.844 46.6073L104.181 47.1324H102.323C102.05 47.034 101.816 46.8495 101.659 46.6073C101.438 46.3769 101.258 46.1104 101.128 45.8196C100.954 45.13 100.954 44.4086 101.128 43.719C101.258 43.4281 101.438 43.1616 101.659 42.9313L102.323 42.4061H104.181L104.844 42.9313C105.066 43.1616 105.246 43.4281 105.375 43.719C105.495 44.0556 105.54 44.4138 105.508 44.7693ZM104.314 44.7693C104.304 44.4042 104.213 44.0456 104.048 43.719C103.783 43.4564 103.517 43.1938 103.252 43.1938C103.083 43.2017 102.92 43.2547 102.78 43.3472C102.64 43.4397 102.528 43.5682 102.456 43.719C102.281 44.0422 102.19 44.4029 102.19 44.7693C102.19 45.1356 102.281 45.4963 102.456 45.8196C102.528 45.9703 102.64 46.0989 102.78 46.1914C102.92 46.2839 103.083 46.3369 103.252 46.3447C103.339 46.3638 103.429 46.3652 103.517 46.3489C103.605 46.3326 103.689 46.2989 103.763 46.2499C103.837 46.2009 103.901 46.1375 103.95 46.0635C103.999 45.9896 104.032 45.9066 104.048 45.8196C104.213 45.4929 104.304 45.1344 104.314 44.7693ZM107.897 40.962C107.897 41.0933 107.764 41.2245 107.631 41.3558L107.101 41.6184L106.57 41.3558C106.522 41.3025 106.485 41.2401 106.462 41.1724C106.44 41.1047 106.431 41.0331 106.437 40.962C106.437 40.6994 106.437 40.5681 106.57 40.4368L107.101 40.1743L107.631 40.4368C107.714 40.498 107.781 40.5773 107.827 40.6684C107.873 40.7596 107.897 40.8601 107.897 40.962ZM107.764 47.5263C107.764 48.0514 107.631 48.4453 107.366 48.5766C107.204 48.7191 107.015 48.8275 106.81 48.8952C106.604 48.9629 106.387 48.9885 106.172 48.9704H105.773V47.9201H106.57C106.57 47.7888 106.702 47.6576 106.702 47.395V42.4061H107.897L107.764 47.5263ZM110.418 40.962C110.418 41.0933 110.286 41.2245 110.153 41.3558L109.622 41.6184L109.091 41.3558C109.043 41.3025 109.007 41.2401 108.984 41.1724C108.961 41.1047 108.952 41.0331 108.959 40.962C108.959 40.6994 108.959 40.5681 109.091 40.4368L109.622 40.1743L110.153 40.4368C110.235 40.498 110.302 40.5773 110.348 40.6684C110.394 40.7596 110.418 40.8601 110.418 40.962ZM109.091 47.1324V42.4061H110.286V47.1324H109.091Z" fill="#A3A6AA"/>
<path d="M390.975 66.9564C390.975 66.6082 391.114 66.2743 391.363 66.0281C391.612 65.7819 391.95 65.6436 392.302 65.6436C392.47 65.6425 392.637 65.6769 392.792 65.7443C392.946 65.8117 393.084 65.9107 393.197 66.0347C393.31 66.1587 393.395 66.305 393.446 66.4639C393.498 66.6227 393.515 66.7906 393.496 66.9564V131.68C393.496 131.994 393.37 132.294 393.146 132.516C392.922 132.738 392.619 132.862 392.302 132.862C391.972 132.864 391.653 132.744 391.407 132.525C391.162 132.307 391.008 132.005 390.975 131.68V66.9564Z" fill="#2F3136"/>
<path d="M392.302 65.6436C392.47 65.6425 392.637 65.6769 392.792 65.7443C392.946 65.8117 393.084 65.9107 393.197 66.0347C393.31 66.1587 393.395 66.305 393.446 66.4639C393.498 66.6227 393.515 66.7906 393.496 66.9564V126.166C393.496 126.48 393.37 126.78 393.146 127.002C392.922 127.224 392.619 127.348 392.302 127.348C391.972 127.35 391.653 127.23 391.407 127.011C391.162 126.793 391.008 126.491 390.975 126.166V66.9564C390.975 66.6082 391.114 66.2743 391.363 66.0281C391.612 65.7819 391.95 65.6436 392.302 65.6436Z" fill="#202225"/>
<path d="M3.98242 63.1494H38.886V197.061H8.89281C7.57843 197.027 6.32954 196.486 5.41229 195.554C4.49503 194.622 3.98197 193.373 3.98242 192.072V63.1494Z" fill="#202225"/>
<path d="M26.2784 73.127H16.4577C13.6724 73.127 11.4146 75.3605 11.4146 78.1158V87.8835C11.4146 90.6388 13.6724 92.8724 16.4577 92.8724H26.2784C29.0637 92.8724 31.3216 90.6388 31.3216 87.8835V78.1158C31.3216 75.3605 29.0637 73.127 26.2784 73.127Z" fill="#4F545C" fill-opacity="0.6"/>
<path d="M27.6055 80.8728C27.4728 80.6102 27.3401 80.4789 27.0746 80.4789H23.6241L22.0315 77.0655C21.9568 76.9817 21.8649 76.9146 21.7619 76.8686C21.659 76.8226 21.5473 76.7988 21.4343 76.7988C21.3214 76.7988 21.2097 76.8226 21.1067 76.8686C21.0037 76.9146 20.9118 76.9817 20.8371 77.0655L19.1118 80.4789H15.794C15.5286 80.4789 15.2632 80.6102 15.2632 80.8728C15.2632 81.1354 15.1304 81.2667 15.3959 81.5292L18.1829 84.2863L17.1211 88.3561C17.0626 88.4637 17.0438 88.5882 17.0681 88.708C17.0923 88.8278 17.158 88.9355 17.2539 89.0125C17.3749 89.0817 17.5122 89.1181 17.652 89.1181C17.7918 89.1181 17.9291 89.0817 18.0501 89.0125L21.368 86.7807L24.8185 89.0125H25.4821C25.601 88.9555 25.6941 88.8565 25.7432 88.7351C25.7923 88.6137 25.7938 88.4786 25.7475 88.3561L24.5531 84.2863L27.4728 81.5292C27.6055 81.2667 27.7382 81.0041 27.6055 80.8728Z" fill="white"/>
<path d="M11.4146 115.663H31.4543V116.188H11.4146V115.663Z" fill="#4F545C" fill-opacity="0.48"/>
<path d="M21.3679 129.843C20.1342 129.843 18.9283 130.205 17.9025 130.883C16.8768 131.561 16.0773 132.524 15.6052 133.652C15.1331 134.779 15.0096 136.02 15.2502 137.217C15.4909 138.414 16.085 139.513 16.9573 140.376C17.8296 141.239 18.9411 141.827 20.151 142.065C21.361 142.303 22.6151 142.181 23.7549 141.714C24.8946 141.247 25.8688 140.456 26.5542 139.441C27.2396 138.427 27.6054 137.234 27.6054 136.013C27.6054 134.377 26.9483 132.807 25.7785 131.65C24.6087 130.493 23.0222 129.843 21.3679 129.843ZM24.1549 132.468L24.9511 133.387L24.1549 134.175L24.9511 134.963L24.1549 135.751L22.4296 134.175L24.1549 132.468ZM17.9174 133.387L18.7136 132.468L20.4389 134.175L18.7136 135.751L17.9174 134.963L18.7136 134.175L17.9174 133.387ZM21.3679 140.346C20.6521 140.318 19.9504 140.14 19.3097 139.823C18.669 139.506 18.1038 139.058 17.6519 138.508L18.5809 137.457C18.8896 137.916 19.3023 138.298 19.7861 138.571C20.2699 138.845 20.8115 139.003 21.3679 139.033C21.9318 139.038 22.487 138.895 22.9767 138.618C23.4663 138.341 23.8729 137.941 24.1549 137.457L25.2166 138.508C24.7443 139.067 24.1567 139.521 23.4929 139.838C22.8292 140.155 22.1047 140.328 21.3679 140.346Z" fill="#B9BBBE"/>
<path d="M18.1828 156.363C17.492 157.152 17.1229 158.167 17.1474 159.211C17.1719 160.254 17.5883 161.251 18.3155 162.008L16.4575 164.108L17.3865 164.896L19.2445 162.796C19.9247 163.208 20.7032 163.434 21.5006 163.452C22.141 163.473 22.777 163.341 23.3546 163.066C23.9322 162.792 24.4344 162.384 24.8185 161.877C26.411 160.039 26.9419 155.05 27.0746 152.687C24.9512 153.212 19.5099 154.656 18.1828 156.363ZM19.5099 161.483C18.8933 160.95 18.5079 160.202 18.4338 159.395C18.3596 158.589 18.6024 157.785 19.1118 157.15C19.9081 156.231 23.2259 155.05 25.6147 154.262L19.5099 161.483Z" fill="#B9BBBE"/>
<path d="M11.4146 166.865H31.4543V167.39H11.4146V166.865Z" fill="#4F545C" fill-opacity="0.48"/>
<path d="M21.3679 176.055C20.1342 176.055 18.9283 176.417 17.9025 177.095C16.8768 177.773 16.0773 178.736 15.6052 179.864C15.1331 180.991 15.0096 182.232 15.2502 183.429C15.4909 184.626 16.085 185.725 16.9573 186.588C17.8296 187.451 18.9411 188.039 20.151 188.277C21.361 188.515 22.6151 188.393 23.7549 187.926C24.8946 187.459 25.8688 186.668 26.5542 185.653C27.2396 184.639 27.6054 183.446 27.6054 182.225C27.6054 180.589 26.9483 179.019 25.7785 177.862C24.6087 176.705 23.0222 176.055 21.3679 176.055ZM18.979 178.549C19.2958 178.549 19.5996 178.674 19.8236 178.895C20.0476 179.117 20.1735 179.417 20.1735 179.731C20.1922 179.897 20.1753 180.064 20.1237 180.223C20.0721 180.382 19.9871 180.528 19.8743 180.652C19.7614 180.776 19.6233 180.875 19.469 180.943C19.3147 181.01 19.1477 181.045 18.979 181.044C18.7996 181.065 18.6177 181.045 18.447 180.987C18.2763 180.928 18.1212 180.832 17.9934 180.706C17.8656 180.579 17.7685 180.426 17.7094 180.257C17.6502 180.088 17.6306 179.908 17.6519 179.731C17.6509 179.564 17.6856 179.399 17.7537 179.246C17.8219 179.093 17.9219 178.957 18.0473 178.845C18.1727 178.733 18.3205 178.649 18.4811 178.598C18.6417 178.547 18.8114 178.531 18.979 178.549ZM25.2166 183.538C25.2166 185.113 23.3586 186.558 21.3679 186.558C19.3772 186.558 17.6519 185.113 17.6519 183.538V182.882H25.2166V183.538ZM23.8895 181.044C23.7208 181.045 23.5538 181.01 23.3995 180.943C23.2452 180.875 23.1071 180.776 22.9942 180.652C22.8814 180.528 22.7964 180.382 22.7448 180.223C22.6932 180.064 22.6763 179.897 22.695 179.731C22.695 179.417 22.8209 179.117 23.0449 178.895C23.2689 178.674 23.5727 178.549 23.8895 178.549C24.2196 178.547 24.5385 178.668 24.7839 178.886C25.0293 179.105 25.1836 179.406 25.2166 179.731C25.2166 180.079 25.0768 180.413 24.8279 180.659C24.579 180.905 24.2414 181.044 23.8895 181.044Z" fill="#B9BBBE"/>
<path fill-rule="evenodd" clip-rule="evenodd" d="M339.614 20.2189L339.216 22.8447C339.216 23.5011 338.42 23.7637 337.756 23.7637C337.093 23.7637 336.562 23.5011 336.695 22.8447L337.093 20.2189C337.205 19.9318 337.408 19.6877 337.67 19.5224C337.933 19.3571 338.242 19.2791 338.553 19.2999C339.216 19.2999 339.747 19.6938 339.614 20.2189ZM338.818 17.5932H334.571C334.536 17.5932 334.502 17.607 334.477 17.6317C334.452 17.6563 334.438 17.6897 334.438 17.7245L334.173 19.1686H335.235C335.27 19.1686 335.304 19.1825 335.329 19.2071C335.354 19.2317 335.367 19.2651 335.367 19.2999C335.367 19.3347 335.354 19.3681 335.329 19.3928C335.304 19.4174 335.27 19.4312 335.235 19.4312C335.177 19.6472 335.133 19.8664 335.102 20.0876L334.704 22.7134C334.438 24.5514 335.898 25.4704 337.624 25.4704C338.463 25.5473 339.301 25.3051 339.966 24.793C340.632 24.2809 341.076 23.5373 341.207 22.7134L341.605 20.0876C341.87 18.5122 340.411 17.5932 338.818 17.5932ZM313.735 21.0066V22.3195L313.204 20.7441L311.877 17.5932C311.877 17.5584 311.863 17.525 311.838 17.5004C311.813 17.4757 311.78 17.4619 311.745 17.4619H310.152C310.019 17.4619 310.019 17.4619 310.019 17.5932L308.958 24.9452V25.2078H310.55C310.683 25.2078 310.683 25.0765 310.815 24.9452L311.214 22.0569V20.7441H311.346L311.745 22.1882L313.072 25.2078H314.93V25.0765L315.991 17.7245H314.266C314.133 17.7245 314.001 17.7245 314.001 17.8558L313.602 21.1379L313.735 21.0066ZM316.655 25.3391H318.247C318.318 25.3391 318.385 25.3114 318.435 25.2622C318.485 25.2129 318.513 25.1462 318.513 25.0765L319.575 17.8558C319.575 17.7861 319.547 17.7194 319.497 17.6701C319.447 17.6209 319.38 17.5932 319.309 17.5932H317.717C317.584 17.5932 317.451 17.5932 317.451 17.7245L316.389 25.0765L316.655 25.3391ZM320.636 17.7245V19.0374C320.636 19.1686 320.636 19.2999 320.769 19.2999H322.494C322.627 19.2999 322.76 19.4312 322.627 19.5625L321.963 25.0765C321.963 25.2078 321.963 25.3391 322.096 25.3391H323.689C323.759 25.3391 323.827 25.3114 323.876 25.2622C323.926 25.2129 323.954 25.1462 323.954 25.0765L324.75 19.5625L325.016 19.2999H327.007V17.9871L326.741 17.7245H320.902C320.769 17.5932 320.636 17.5932 320.636 17.7245ZM331.784 20.2189C331.784 20.4627 331.686 20.6964 331.512 20.8688C331.338 21.0411 331.102 21.1379 330.855 21.1379H329.926C329.856 21.1379 329.788 21.1103 329.739 21.061C329.689 21.0118 329.661 20.945 329.661 20.8754V19.5625H330.855C331.652 19.4312 331.917 19.8251 331.784 20.2189ZM331.253 17.5932H328.334C328.201 17.5932 328.068 17.5932 328.068 17.7245L327.007 25.0765L327.272 25.3391H328.865C328.997 25.3391 328.997 25.2078 328.997 25.0765L329.395 22.9759C329.395 22.8446 329.395 22.8447 329.528 22.8447H329.794L331.253 25.2078H333.377C333.642 25.2078 333.642 24.9452 333.642 24.8139L332.05 22.5821C331.917 22.5821 332.05 22.4508 332.05 22.4508C332.548 22.2624 332.985 21.9426 333.312 21.5259C333.64 21.1093 333.846 20.6119 333.908 20.0876C334.04 18.3809 332.979 17.5932 331.253 17.5932Z" fill="#B9BBBE"/>
<path d="M344.127 13.7842H306.569C304.736 13.7842 303.251 15.2536 303.251 17.0663V25.3111C303.251 27.1238 304.736 28.5932 306.569 28.5932H344.127C345.959 28.5932 347.445 27.1238 347.445 25.3111V17.0663C347.445 15.2536 345.959 13.7842 344.127 13.7842Z" fill="url(#paint0_linear_14123_103049)"/>
<path fill-rule="evenodd" clip-rule="evenodd" d="M339.614 20.218L339.216 22.8437C339.216 23.5001 338.42 23.7627 337.756 23.7627C337.093 23.7627 336.562 23.5001 336.695 22.8437L337.093 20.218C337.205 19.9308 337.408 19.6867 337.67 19.5214C337.933 19.3561 338.242 19.2781 338.553 19.2989C339.216 19.2989 339.747 19.6928 339.614 20.218ZM338.818 17.5922H334.571C334.536 17.5922 334.502 17.6061 334.477 17.6307C334.452 17.6553 334.438 17.6887 334.438 17.7235L334.173 19.1677H335.235C335.27 19.1677 335.304 19.1815 335.329 19.2061C335.354 19.2307 335.367 19.2641 335.367 19.2989C335.367 19.3338 335.354 19.3672 335.329 19.3918C335.304 19.4164 335.27 19.4302 335.235 19.4302C335.177 19.6462 335.133 19.8654 335.102 20.0867L334.704 22.7124C334.438 24.5504 335.898 25.4694 337.624 25.4694C338.463 25.5463 339.301 25.3041 339.966 24.792C340.632 24.2799 341.076 23.5363 341.207 22.7124L341.605 20.0867C341.87 18.5112 340.411 17.5922 338.818 17.5922ZM313.735 21.0057V22.3185L313.204 20.7431L311.877 17.5922C311.877 17.5574 311.863 17.524 311.838 17.4994C311.813 17.4748 311.78 17.4609 311.745 17.4609H310.152C310.019 17.4609 310.019 17.4609 310.019 17.5922L308.958 24.9443V25.2068H310.55C310.683 25.2068 310.683 25.0755 310.815 24.9443L311.214 22.056V20.7431H311.346L311.745 22.1872L313.072 25.2068H314.93V25.0755L315.991 17.7235H314.266C314.133 17.7235 314.001 17.7235 314.001 17.8548L313.602 21.137L313.735 21.0057ZM316.655 25.3381H318.247C318.318 25.3381 318.385 25.3104 318.435 25.2612C318.485 25.212 318.513 25.1452 318.513 25.0755L319.575 17.8548C319.575 17.7852 319.547 17.7184 319.497 17.6691C319.447 17.6199 319.38 17.5922 319.309 17.5922H317.717C317.584 17.5922 317.451 17.5922 317.451 17.7235L316.389 25.0755L316.655 25.3381ZM320.636 17.7235V19.0364C320.636 19.1677 320.636 19.2989 320.769 19.2989H322.494C322.627 19.2989 322.76 19.4302 322.627 19.5615L321.963 25.0755C321.963 25.2068 321.963 25.3381 322.096 25.3381H323.689C323.759 25.3381 323.827 25.3104 323.876 25.2612C323.926 25.212 323.954 25.1452 323.954 25.0755L324.75 19.5615L325.016 19.2989H327.007V17.9861L326.741 17.7235H320.902C320.769 17.5922 320.636 17.5922 320.636 17.7235ZM331.784 20.218C331.784 20.4617 331.686 20.6954 331.512 20.8678C331.338 21.0401 331.102 21.137 330.855 21.137H329.926C329.856 21.137 329.788 21.1093 329.739 21.06C329.689 21.0108 329.661 20.944 329.661 20.8744V19.5615H330.855C331.652 19.4302 331.917 19.8241 331.784 20.218ZM331.253 17.5922H328.334C328.201 17.5922 328.068 17.5922 328.068 17.7235L327.007 25.0755L327.272 25.3381H328.865C328.997 25.3381 328.997 25.2068 328.997 25.0755L329.395 22.975C329.395 22.8437 329.395 22.8437 329.528 22.8437H329.794L331.253 25.2068H333.377C333.642 25.2068 333.642 24.9443 333.642 24.813L332.05 22.5811C331.917 22.5811 332.05 22.4498 332.05 22.4498C332.548 22.2614 332.985 21.9416 333.312 21.525C333.64 21.1083 333.846 20.6109 333.908 20.0867C334.04 18.3799 332.979 17.5922 331.253 17.5922Z" fill="white"/>
<path d="M228.534 101.354H230.259C231.174 101.354 232.052 101.714 232.699 102.354C233.346 102.994 233.71 103.862 233.71 104.767V107.393C233.71 108.298 233.346 109.167 232.699 109.807C232.052 110.447 231.174 110.807 230.259 110.807H228.534V101.223V101.354Z" fill="#AABFF2"/>
<path d="M230.392 103.98H229.463C228.51 103.98 227.737 104.745 227.737 105.687V106.672C227.737 107.614 228.51 108.379 229.463 108.379H230.392C231.344 108.379 232.117 107.614 232.117 106.672V105.687C232.117 104.745 231.344 103.98 230.392 103.98Z" fill="#7D94DF"/>
<path d="M200 110.675H198.275C197.36 110.675 196.482 110.315 195.835 109.675C195.188 109.035 194.824 108.167 194.824 107.261V104.767C194.824 103.862 195.188 102.993 195.835 102.353C196.482 101.713 197.36 101.354 198.275 101.354H200V110.544V110.675Z" fill="#AABFF2"/>
<path d="M199.071 104.111H198.275C197.322 104.111 196.549 104.875 196.549 105.818V106.593C196.549 107.535 197.322 108.299 198.275 108.299H199.071C200.024 108.299 200.796 107.535 200.796 106.593V105.818C200.796 104.875 200.024 104.111 199.071 104.111Z" fill="#7D94DF"/>
<path d="M223.756 97.2832H205.043C201.305 97.2832 198.275 100.281 198.275 103.979V112.368C198.275 116.066 201.305 119.064 205.043 119.064H223.756C227.494 119.064 230.524 116.066 230.524 112.368V103.979C230.524 100.281 227.494 97.2832 223.756 97.2832Z" fill="#AABFF2"/>
<path d="M218.58 109.1H210.219C209.266 109.1 208.494 109.849 208.494 110.773C208.494 111.698 209.266 112.447 210.219 112.447H218.58C219.533 112.447 220.305 111.698 220.305 110.773C220.305 109.849 219.533 109.1 218.58 109.1Z" fill="#697EC4"/>
<path d="M201.858 104.241H201.593C201.478 104.202 201.374 104.136 201.289 104.051C201.204 103.965 201.139 103.861 201.101 103.747C201.063 103.633 201.051 103.512 201.067 103.393C201.083 103.274 201.127 103.16 201.195 103.06C201.463 102.517 201.878 102.059 202.393 101.734C202.908 101.41 203.504 101.233 204.114 101.222C204.513 101.09 204.911 101.484 204.911 102.009C204.911 102.535 204.645 102.797 204.114 102.797C203.805 102.846 203.511 102.967 203.257 103.149C203.004 103.332 202.797 103.571 202.655 103.847C202.577 103.984 202.459 104.095 202.317 104.165C202.175 104.235 202.016 104.262 201.858 104.241Z" fill="#36393E"/>
<path d="M227.074 103.98H227.472C227.565 103.916 227.644 103.833 227.703 103.736C227.761 103.639 227.798 103.531 227.81 103.419C227.823 103.307 227.811 103.194 227.775 103.087C227.74 102.98 227.682 102.881 227.604 102.798C227.201 102.335 226.684 101.983 226.103 101.776C225.521 101.569 224.896 101.514 224.287 101.617C224.181 101.633 224.081 101.669 223.99 101.724C223.899 101.779 223.821 101.852 223.759 101.938C223.697 102.023 223.653 102.12 223.63 102.223C223.606 102.326 223.604 102.432 223.623 102.536C223.756 102.93 224.154 103.324 224.552 103.192C224.873 103.129 225.206 103.156 225.511 103.273C225.817 103.389 226.082 103.589 226.277 103.849C226.377 103.954 226.509 104.024 226.653 104.048C226.797 104.072 226.945 104.048 227.074 103.98Z" fill="#36393E"/>
<path d="M209.29 95.1826H219.509C220.424 95.1826 221.302 95.5423 221.949 96.1824C222.596 96.8226 222.959 97.6908 222.959 98.5961V99.3838C222.959 101.16 222.246 102.863 220.977 104.118C219.708 105.374 217.986 106.079 216.191 106.079H212.741C211.852 106.079 210.972 105.906 210.15 105.57C209.329 105.233 208.583 104.74 207.955 104.118C207.326 103.497 206.828 102.758 206.487 101.946C206.147 101.134 205.972 100.263 205.972 99.3838V98.5961C205.972 97.6908 206.336 96.8226 206.983 96.1824C207.63 95.5423 208.508 95.1826 209.423 95.1826H209.29Z" fill="#CBDAF7"/>
<path d="M217.916 101.091H216.058C215.619 101.091 215.262 101.444 215.262 101.879V101.984C215.262 102.419 215.619 102.771 216.058 102.771H217.916C218.356 102.771 218.713 102.419 218.713 101.984V101.879C218.713 101.444 218.356 101.091 217.916 101.091Z" fill="#AABFF2"/>
<path d="M212.608 101.091H210.75C210.31 101.091 209.954 101.444 209.954 101.879V101.984C209.954 102.419 210.31 102.771 210.75 102.771H212.608C213.048 102.771 213.404 102.419 213.404 101.984V101.879C213.404 101.444 213.048 101.091 212.608 101.091Z" fill="#AABFF2"/>
<path d="M211.015 109.101H217.783L221.101 119.997H207.564L211.015 109.101Z" fill="#FFCD3E"/>
<path d="M207.963 121.703H220.571C221.304 121.703 221.898 121.142 221.898 120.449C221.898 119.757 221.304 119.196 220.571 119.196H207.963C207.23 119.196 206.636 119.757 206.636 120.449C206.636 121.142 207.23 121.703 207.963 121.703Z" fill="#F69100"/>
<path d="M218.447 116.057C219.84 116.057 220.969 114.94 220.969 113.563C220.969 112.185 219.84 111.068 218.447 111.068C217.055 111.068 215.926 112.185 215.926 113.563C215.926 114.94 217.055 116.057 218.447 116.057Z" fill="#FF6440"/>
<path d="M209.555 117.633C210.948 117.633 212.077 116.517 212.077 115.139C212.077 113.761 210.948 112.645 209.555 112.645C208.163 112.645 207.034 113.761 207.034 115.139C207.034 116.517 208.163 117.633 209.555 117.633Z" fill="#FF6440"/>
<path d="M213.271 111.594C214.664 111.594 215.793 110.478 215.793 109.1C215.793 107.722 214.664 106.605 213.271 106.605C211.878 106.605 210.75 107.722 210.75 109.1C210.75 110.478 211.878 111.594 213.271 111.594Z" fill="#FF6440"/>
<path d="M207.963 115.795H204.91C203.298 115.795 201.991 117.088 201.991 118.683V118.801C201.991 120.397 203.298 121.69 204.91 121.69H207.963C209.575 121.69 210.883 120.397 210.883 118.801V118.683C210.883 117.088 209.575 115.795 207.963 115.795Z" fill="#CBDAF7"/>
<path d="M224.287 115.795H221.234C219.622 115.795 218.314 117.088 218.314 118.683V118.801C218.314 120.397 219.622 121.69 221.234 121.69H224.287C225.899 121.69 227.206 120.397 227.206 118.801V118.683C227.206 117.088 225.899 115.795 224.287 115.795Z" fill="#CBDAF7"/>
<path d="M178.235 100.699H180.624C181.469 100.699 182.279 101.031 182.876 101.622C183.474 102.212 183.809 103.014 183.809 103.85V108.707C183.809 109.543 183.474 110.344 182.876 110.935C182.279 111.526 181.469 111.858 180.624 111.858H178.235V100.567V100.699Z" fill="#AABFF2"/>
<path d="M180.757 103.062H179.032C178.152 103.062 177.439 103.768 177.439 104.638V107.907C177.439 108.777 178.152 109.482 179.032 109.482H180.757C181.637 109.482 182.35 108.777 182.35 107.907V104.638C182.35 103.768 181.637 103.062 180.757 103.062Z" fill="#7D94DF"/>
<path d="M150.631 111.857H148.242C147.398 111.857 146.588 111.525 145.99 110.934C145.393 110.343 145.057 109.542 145.057 108.706V103.849C145.057 103.013 145.393 102.211 145.99 101.621C146.588 101.03 147.398 100.698 148.242 100.698H150.631V111.988V111.857Z" fill="#AABFF2"/>
<path d="M149.968 103.062H148.242C147.363 103.062 146.65 103.768 146.65 104.638V107.907C146.65 108.777 147.363 109.482 148.242 109.482H149.968C150.847 109.482 151.56 108.777 151.56 107.907V104.638C151.56 103.768 150.847 103.062 149.968 103.062Z" fill="#7D94DF"/>
<path d="M173.325 96.4971H155.542C151.95 96.4971 149.039 99.3772 149.039 102.93V112.54C149.039 116.093 151.95 118.973 155.542 118.973H173.325C176.917 118.973 179.828 116.093 179.828 112.54V102.93C179.828 99.3772 176.917 96.4971 173.325 96.4971Z" fill="#AABFF2"/>
<path d="M159.656 102.798H169.344C170.189 102.798 170.999 103.13 171.596 103.721C172.193 104.311 172.529 105.113 172.529 105.949V107.524C172.529 109.23 171.844 110.866 170.624 112.073C169.405 113.279 167.751 113.957 166.026 113.957H162.841C161.116 113.957 159.462 113.279 158.243 112.073C157.023 110.866 156.338 109.23 156.338 107.524V105.949C156.338 105.523 156.424 105.103 156.592 104.712C156.761 104.321 157.007 103.967 157.317 103.673C157.627 103.378 157.994 103.149 158.396 102.999C158.798 102.848 159.226 102.78 159.656 102.798Z" fill="#CBDAF7"/>
<path d="M165.23 115.401H163.637C163.197 115.401 162.841 115.754 162.841 116.189V116.215C162.841 116.65 163.197 117.003 163.637 117.003H165.23C165.669 117.003 166.026 116.65 166.026 116.215V116.189C166.026 115.754 165.669 115.401 165.23 115.401Z" fill="#697EC4"/>
<path d="M167.751 110.02H166.159C165.719 110.02 165.362 110.372 165.362 110.807V110.834C165.362 111.269 165.719 111.621 166.159 111.621H167.751C168.191 111.621 168.547 111.269 168.547 110.834V110.807C168.547 110.372 168.191 110.02 167.751 110.02Z" fill="#AABFF2"/>
<path d="M162.575 110.02H160.983C160.543 110.02 160.187 110.372 160.187 110.807V110.834C160.187 111.269 160.543 111.621 160.983 111.621H162.575C163.015 111.621 163.372 111.269 163.372 110.834V110.807C163.372 110.372 163.015 110.02 162.575 110.02Z" fill="#AABFF2"/>
<path d="M152.887 108.837C152.088 108.806 151.33 108.478 150.764 107.918C150.694 107.798 150.657 107.663 150.657 107.524C150.657 107.386 150.694 107.25 150.764 107.131C150.888 107.01 151.055 106.943 151.228 106.943C151.402 106.943 151.569 107.01 151.693 107.131C152.037 107.386 152.457 107.524 152.887 107.524C153.318 107.524 153.737 107.386 154.082 107.131C154.347 106.868 154.745 106.868 154.878 107.131C155.011 107.393 155.143 107.787 154.878 107.918C154.626 108.197 154.32 108.422 153.978 108.58C153.636 108.738 153.265 108.825 152.887 108.837Z" fill="#333132"/>
<path d="M175.979 108.837C175.602 108.825 175.231 108.738 174.889 108.58C174.546 108.422 174.24 108.197 173.989 107.918C173.723 107.787 173.723 107.393 173.989 107.131C174.254 106.868 174.519 106.868 174.785 107.131C175.129 107.386 175.549 107.524 175.979 107.524C176.41 107.524 176.829 107.386 177.174 107.131C177.298 107.01 177.465 106.943 177.638 106.943C177.812 106.943 177.979 107.01 178.103 107.131C178.189 107.244 178.235 107.382 178.235 107.524C178.235 107.666 178.189 107.805 178.103 107.918C177.537 108.478 176.779 108.806 175.979 108.837Z" fill="#333132"/>
<path d="M172.794 98.0721V97.8095L174.652 95.3151C174.702 95.2604 174.736 95.1931 174.749 95.1206C174.762 95.0481 174.754 94.9735 174.726 94.9051C174.699 94.8368 174.652 94.7775 174.592 94.7339C174.532 94.6904 174.461 94.6643 174.387 94.6587H173.325C173.185 94.6587 173.049 94.6034 172.95 94.5049C172.85 94.4064 172.794 94.2728 172.794 94.1336C172.794 93.9943 172.85 93.8607 172.95 93.7622C173.049 93.6637 173.185 93.6084 173.325 93.6084H175.98C176.191 93.6084 176.393 93.6914 176.543 93.8391C176.692 93.9868 176.776 94.1872 176.776 94.3961V94.79L174.918 97.1531C174.868 97.2078 174.835 97.2752 174.822 97.3477C174.809 97.4201 174.816 97.4948 174.844 97.5631C174.872 97.6315 174.918 97.6908 174.978 97.7343C175.038 97.7779 175.109 97.8039 175.183 97.8095H176.378C176.519 97.8095 176.654 97.8649 176.753 97.9634C176.853 98.0618 176.909 98.1954 176.909 98.3347C176.909 98.474 176.853 98.6075 176.753 98.706C176.654 98.8045 176.519 98.8598 176.378 98.8598H173.591C173.486 98.8598 173.383 98.8395 173.286 98.7999C173.189 98.7603 173.102 98.7023 173.028 98.6291C172.954 98.556 172.895 98.4691 172.855 98.3736C172.815 98.278 172.794 98.1756 172.794 98.0721Z" fill="#88A1F2"/>
<path d="M177.572 96.2339C177.566 96.1628 177.574 96.0912 177.597 96.0235C177.62 95.9558 177.656 95.8933 177.704 95.8401L180.226 92.4266C180.311 92.3537 180.37 92.2559 180.395 92.1476C180.42 92.0392 180.41 91.9258 180.365 91.8236C180.321 91.7214 180.245 91.6358 180.149 91.579C180.052 91.5222 179.94 91.4972 179.828 91.5076H178.368C178.192 91.5076 178.023 91.4385 177.899 91.3154C177.774 91.1923 177.704 91.0253 177.704 90.8512C177.702 90.6632 177.767 90.4804 177.889 90.3359C178.011 90.1914 178.181 90.0948 178.368 90.0635H182.084C182.356 90.092 182.609 90.2118 182.803 90.403C182.996 90.5941 183.117 90.845 183.146 91.1138V91.6389L180.491 94.9211C180.368 94.9907 180.278 95.1059 180.241 95.2413C180.203 95.3767 180.222 95.5213 180.292 95.6431C180.363 95.765 180.479 95.8542 180.616 95.8911C180.753 95.9281 180.899 95.9097 181.022 95.8401H182.615C182.802 95.8714 182.972 95.968 183.094 96.1125C183.216 96.257 183.281 96.4397 183.278 96.6278C183.278 96.8019 183.208 96.9688 183.084 97.0919C182.96 97.215 182.791 97.2842 182.615 97.2842H178.766C178.616 97.3029 178.464 97.2897 178.319 97.2453C178.174 97.201 178.041 97.1266 177.928 97.0272C177.815 96.9277 177.725 96.8055 177.663 96.6687C177.602 96.5319 177.571 96.3836 177.572 96.2339Z" fill="#88A1F2"/>
<path d="M78.3018 100.303H80.8233C81.7032 100.303 82.5471 100.649 83.1694 101.264C83.7916 101.88 84.1411 102.714 84.1411 103.585V108.442C84.1411 109.313 83.7916 110.148 83.1694 110.763C82.5471 111.379 81.7032 111.725 80.8233 111.725H78.3018V100.303Z" fill="#AABFF2"/>
<path d="M80.8232 102.797H79.0979C78.2184 102.797 77.5054 103.502 77.5054 104.372V107.786C77.5054 108.656 78.2184 109.361 79.0979 109.361H80.8232C81.7028 109.361 82.4158 108.656 82.4158 107.786V104.372C82.4158 103.502 81.7028 102.797 80.8232 102.797Z" fill="#7D94DF"/>
<path d="M50.9629 111.726H48.4413C47.5614 111.726 46.7175 111.38 46.0953 110.764C45.4731 110.149 45.1235 109.314 45.1235 108.443V103.586C45.1235 102.715 45.4731 101.881 46.0953 101.265C46.7175 100.65 47.5614 100.304 48.4413 100.304H50.9629V111.726Z" fill="#AABFF2"/>
<path d="M50.1665 102.797H48.4412C47.5617 102.797 46.8486 103.502 46.8486 104.372V107.786C46.8486 108.656 47.5617 109.361 48.4412 109.361H50.1665C51.046 109.361 51.759 108.656 51.759 107.786V104.372C51.759 103.502 51.046 102.797 50.1665 102.797Z" fill="#7D94DF"/>
<path d="M74.0552 96.1016H55.8735C52.2087 96.1016 49.2378 99.0405 49.2378 102.666V112.499C49.2378 116.125 52.2087 119.063 55.8735 119.063H74.0552C77.72 119.063 80.6909 116.125 80.6909 112.499V102.666C80.6909 99.0405 77.72 96.1016 74.0552 96.1016Z" fill="#AABFF2"/>
<path d="M76.7091 105.028H76.5764C75.6969 105.028 74.9839 105.734 74.9839 106.604V106.735C74.9839 107.605 75.6969 108.31 76.5764 108.31H76.7091C77.5887 108.31 78.3017 107.605 78.3017 106.735V106.604C78.3017 105.734 77.5887 105.028 76.7091 105.028Z" fill="#333132"/>
<path d="M53.4845 105.028H53.3518C52.4723 105.028 51.7593 105.734 51.7593 106.604V106.735C51.7593 107.605 52.4723 108.31 53.3518 108.31H53.4845C54.3641 108.31 55.0771 107.605 55.0771 106.735V106.604C55.0771 105.734 54.3641 105.028 53.4845 105.028Z" fill="#333132"/>
<path d="M60.1201 101.747H70.0736C70.9535 101.747 71.7974 102.093 72.4196 102.708C73.0419 103.324 73.3914 104.159 73.3914 105.029V106.605C73.3914 108.346 72.6923 110.015 71.4479 111.246C70.2035 112.477 68.5156 113.169 66.7557 113.169H63.4379C61.678 113.169 59.9902 112.477 58.7458 111.246C57.5014 110.015 56.8022 108.346 56.8022 106.605V105.029C56.8022 104.159 57.1518 103.324 57.774 102.708C58.3962 102.093 59.2401 101.747 60.1201 101.747Z" fill="#CBDAF7"/>
<path d="M68.4811 109.099H66.7558C66.316 109.099 65.9595 109.451 65.9595 109.886V109.952C65.9595 110.387 66.316 110.74 66.7558 110.74H68.4811C68.9208 110.74 69.2773 110.387 69.2773 109.952V109.886C69.2773 109.451 68.9208 109.099 68.4811 109.099Z" fill="#AABFF2"/>
<path d="M63.3052 109.099H61.58C61.1402 109.099 60.7837 109.451 60.7837 109.886V109.952C60.7837 110.387 61.1402 110.74 61.58 110.74H63.3052C63.745 110.74 64.1015 110.387 64.1015 109.952V109.886C64.1015 109.451 63.745 109.099 63.3052 109.099Z" fill="#AABFF2"/>
<path d="M65.0305 116.451C64.2467 116.468 63.4864 116.186 62.9071 115.663C62.6417 115.401 62.6417 115.007 62.9071 114.876C63.0279 114.759 63.183 114.684 63.35 114.66C63.5169 114.637 63.6871 114.666 63.8361 114.744C64.1573 115.049 64.5853 115.22 65.0305 115.22C65.4757 115.22 65.9037 115.049 66.2249 114.744C66.3739 114.666 66.5441 114.637 66.711 114.66C66.878 114.684 67.0331 114.759 67.1539 114.876C67.4193 115.007 67.4193 115.401 67.1539 115.663C66.5746 116.186 65.8143 116.468 65.0305 116.451Z" fill="#697EC4"/>
<path d="M128.335 101.353H130.724C131.604 101.353 132.448 101.698 133.07 102.314C133.692 102.929 134.042 103.764 134.042 104.635V109.492C134.042 110.363 133.692 111.198 133.07 111.813C132.448 112.429 131.604 112.774 130.724 112.774H128.335V101.484V101.353Z" fill="#AABFF2"/>
<path d="M130.856 103.717H129.131C128.252 103.717 127.539 104.422 127.539 105.292V108.627C127.539 109.497 128.252 110.202 129.131 110.202H130.856C131.736 110.202 132.449 109.497 132.449 108.627V105.292C132.449 104.422 131.736 103.717 130.856 103.717Z" fill="#7D94DF"/>
<path d="M100.73 112.644H98.3416C97.4617 112.644 96.6178 112.298 95.9956 111.682C95.3734 111.067 95.0238 110.232 95.0238 109.361V104.504C95.0238 103.633 95.3734 102.799 95.9956 102.183C96.6178 101.567 97.4617 101.222 98.3416 101.222H100.73V112.512V112.644Z" fill="#AABFF2"/>
<path d="M99.9345 103.717H98.2093C97.3297 103.717 96.6167 104.422 96.6167 105.292V108.627C96.6167 109.497 97.3297 110.202 98.2093 110.202H99.9345C100.814 110.202 101.527 109.497 101.527 108.627V105.292C101.527 104.422 100.814 103.717 99.9345 103.717Z" fill="#7D94DF"/>
<path d="M105.641 118.946H123.425C125.149 118.946 126.803 118.268 128.023 117.062C129.243 115.855 129.928 114.219 129.928 112.513V103.585C129.928 101.879 129.243 100.243 128.023 99.0365C126.803 97.8301 125.149 97.1523 123.425 97.1523H105.641C103.916 97.1523 102.262 97.8301 101.043 99.0365C99.8233 100.243 99.1382 101.879 99.1382 103.585V112.513C99.1382 114.219 99.8233 115.855 101.043 117.062C102.262 118.268 103.916 118.946 105.641 118.946Z" fill="#AABFF2"/>
<path d="M109.755 101.879H119.443C120.323 101.879 121.167 102.225 121.789 102.84C122.411 103.456 122.761 104.291 122.761 105.161V106.868C122.761 107.713 122.593 108.549 122.266 109.33C121.939 110.11 121.46 110.819 120.856 111.417C120.252 112.014 119.535 112.488 118.746 112.811C117.957 113.134 117.112 113.301 116.258 113.301H113.073C112.219 113.301 111.373 113.134 110.584 112.811C109.795 112.488 109.078 112.014 108.475 111.417C107.871 110.819 107.392 110.11 107.065 109.33C106.738 108.549 106.57 107.713 106.57 106.868V105.161C106.57 104.291 106.919 103.456 107.542 102.84C108.164 102.225 109.008 101.879 109.888 101.879H109.755Z" fill="#CBDAF7"/>
<path d="M117.85 109.23H116.258C115.818 109.23 115.461 109.583 115.461 110.018V110.058C115.461 110.493 115.818 110.845 116.258 110.845H117.85C118.29 110.845 118.647 110.493 118.647 110.058V110.018C118.647 109.583 118.29 109.23 117.85 109.23Z" fill="#AABFF2"/>
<path d="M112.674 109.23H111.082C110.642 109.23 110.286 109.583 110.286 110.018V110.058C110.286 110.493 110.642 110.845 111.082 110.845H112.674C113.114 110.845 113.471 110.493 113.471 110.058V110.018C113.471 109.583 113.114 109.23 112.674 109.23Z" fill="#AABFF2"/>
<path d="M110.419 96.2331C111.454 96.083 112.447 95.7256 113.338 95.1828L115.727 93.7387C116.749 93.2939 117.907 93.2649 118.95 93.658C119.993 94.0512 120.838 94.8347 121.301 95.8393C122.496 99.2527 118.78 100.959 115.993 100.828C113.211 100.641 110.562 99.5836 108.428 97.8086C108.295 97.6773 108.163 97.6773 108.163 97.4147C108.116 97.2923 108.118 97.1571 108.167 97.0357C108.216 96.9143 108.309 96.8154 108.428 96.7583L109.357 96.4957L110.419 96.2331Z" fill="#95D85D"/>
<path d="M117.187 97.2843C117.082 97.2843 116.98 97.2428 116.906 97.1689C116.831 97.0951 116.789 96.9949 116.789 96.8904C116.656 96.6278 116.922 96.4966 117.055 96.4966C118.907 96.1957 120.595 95.2675 121.832 93.8708C122.098 93.6083 122.23 93.6083 122.496 93.7396C122.561 93.8118 122.597 93.9052 122.597 94.0021C122.597 94.099 122.561 94.1925 122.496 94.2647C121.159 95.8796 119.27 96.9538 117.187 97.2843Z" fill="#86C24E"/>
<path d="M115.329 114.482H113.736C113.296 114.482 112.94 114.835 112.94 115.27V115.31C112.94 115.745 113.296 116.097 113.736 116.097H115.329C115.769 116.097 116.125 115.745 116.125 115.31V115.27C116.125 114.835 115.769 114.482 115.329 114.482Z" fill="#697EC4"/>
<path d="M127.406 105.948C127.406 105.077 126.693 104.372 125.813 104.372C124.934 104.372 124.221 105.077 124.221 105.948V106.039C124.221 106.909 124.934 107.615 125.813 107.615C126.693 107.615 127.406 106.909 127.406 106.039V105.948Z" fill="#333132"/>
<path d="M104.711 105.948C104.711 105.077 103.998 104.372 103.119 104.372C102.239 104.372 101.526 105.077 101.526 105.948V106.013C101.526 106.883 102.239 107.589 103.119 107.589C103.998 107.589 104.711 106.883 104.711 106.013V105.948Z" fill="#333132"/>
<path d="M317.451 166.865C317.485 164.891 318.293 163.007 319.705 161.611C321.116 160.215 323.02 159.416 325.016 159.382C326.592 159.4 328.123 159.905 329.395 160.826C329.82 159.241 330.043 157.609 330.059 155.969C329.693 151.988 327.837 148.286 324.853 145.591C321.869 142.895 317.975 141.4 313.934 141.4C309.894 141.4 305.999 142.895 303.015 145.591C300.032 148.286 298.175 151.988 297.81 155.969C297.81 160.217 299.515 164.291 302.552 167.294C305.588 170.298 309.706 171.986 314.001 171.986C315.67 171.99 317.329 171.724 318.911 171.198C317.963 169.948 317.451 168.428 317.451 166.865Z" fill="#5865F2"/>
<path d="M233.178 151.111C233.178 153.605 224.817 155.706 214.333 155.706C203.849 155.706 195.488 153.605 195.488 151.111C195.455 150.948 195.462 150.779 195.509 150.62C195.555 150.46 195.639 150.313 195.753 150.192L196.549 149.535C199.204 147.697 206.237 146.516 214.333 146.516C222.429 146.516 229.462 147.697 232.117 149.535L232.78 150.192H232.913C233.082 150.469 233.173 150.787 233.178 151.111Z" fill="#7B384D"/>
<path d="M232.116 149.534C229.462 147.696 222.428 146.515 214.333 146.515C206.237 146.515 199.204 147.696 196.549 149.534L208.626 141.788C210.189 140.386 212.223 139.609 214.333 139.609C216.443 139.609 218.477 140.386 220.04 141.788L232.116 149.534Z" fill="#F9B083"/>
<path d="M221.898 144.285C222.428 144.022 222.694 143.759 222.694 143.497L220.969 142.315C220.363 142.155 219.733 142.11 219.111 142.184C218.447 142.578 219.111 145.335 221.898 144.285Z" fill="#EC1E79"/>
<path d="M205.574 143.76C205.706 143.76 205.706 143.891 205.839 144.022C208.759 146.123 213.006 141.397 212.209 140.478H211.015C210.136 140.81 209.326 141.3 208.626 141.922L205.574 143.76Z" fill="#EC1E79"/>
<path d="M220.571 153.211V169.622C220.571 169.858 220.523 170.091 220.428 170.307C220.333 170.523 220.194 170.717 220.019 170.878C219.845 171.038 219.639 171.161 219.414 171.238C219.189 171.316 218.95 171.347 218.713 171.329H209.954C209.716 171.347 209.478 171.316 209.253 171.238C209.028 171.161 208.822 171.038 208.647 170.878C208.472 170.717 208.333 170.523 208.239 170.307C208.144 170.091 208.095 169.858 208.096 169.622V153.211C208.094 152.919 208.201 152.637 208.397 152.419C208.593 152.201 208.864 152.062 209.157 152.03C212.588 151.504 216.079 151.504 219.509 152.03C219.802 152.062 220.073 152.201 220.269 152.419C220.465 152.637 220.573 152.919 220.571 153.211Z" fill="#F9B083"/>
<path d="M227.737 161.22C227.754 161.561 227.688 161.901 227.542 162.21C227.397 162.52 227.178 162.79 226.903 162.997C226.629 163.204 226.307 163.341 225.967 163.398C225.627 163.454 225.278 163.427 224.95 163.32C223.49 163.189 222.694 161.745 220.305 161.351C217.916 160.957 215.926 161.614 214.864 162.926C213.802 164.239 214.2 163.189 214.068 162.926C213.935 162.664 210.352 161.088 208.494 161.351C206.636 161.614 205.308 163.189 203.849 163.32C203.522 163.399 203.183 163.404 202.854 163.336C202.525 163.268 202.216 163.128 201.949 162.927C201.682 162.725 201.464 162.468 201.311 162.172C201.157 161.877 201.072 161.552 201.062 161.22C200.718 161.475 200.451 161.817 200.287 162.209C200.124 162.602 200.07 163.031 200.133 163.452C200.192 163.764 200.318 164.06 200.503 164.319C200.687 164.579 200.925 164.797 201.202 164.959C201.478 165.12 201.786 165.222 202.105 165.256C202.424 165.291 202.747 165.257 203.052 165.158C203.052 165.158 202.787 167.784 205.839 167.653C208.892 167.521 208.228 165.815 208.228 165.815C208.228 165.815 210.219 167.39 211.546 167.128C212.053 167.052 212.54 166.872 212.974 166.601C213.407 166.33 213.78 165.973 214.068 165.552C214.2 165.29 214.598 165.29 214.864 165.552C215.151 165.973 215.524 166.33 215.958 166.601C216.392 166.872 216.878 167.052 217.385 167.128C218.58 167.39 219.774 166.34 220.57 165.815C221.367 165.29 221.632 167.521 222.959 167.653C224.286 167.784 225.746 165.158 225.746 165.158C226.06 165.258 226.391 165.292 226.718 165.258C227.046 165.225 227.363 165.125 227.649 164.965C227.936 164.805 228.186 164.587 228.384 164.327C228.582 164.067 228.723 163.769 228.799 163.452C228.863 163.018 228.797 162.574 228.608 162.177C228.419 161.78 228.116 161.447 227.737 161.22Z" fill="#7B384D"/>
<path d="M217.916 158.725C217.74 158.725 217.572 158.656 217.447 158.533C217.323 158.41 217.253 158.243 217.253 158.069C217.253 157.544 216.987 157.281 216.855 157.281C216.722 157.281 216.457 157.544 216.457 158.069C216.457 158.243 216.387 158.41 216.262 158.533C216.138 158.656 215.969 158.725 215.793 158.725C215.617 158.725 215.448 158.656 215.324 158.533C215.199 158.41 215.129 158.243 215.129 158.069C215.129 157.616 215.311 157.182 215.635 156.862C215.958 156.542 216.397 156.362 216.855 156.362C217.312 156.362 217.751 156.542 218.075 156.862C218.398 157.182 218.58 157.616 218.58 158.069C218.554 158.234 218.476 158.386 218.356 158.504C218.237 158.622 218.083 158.7 217.916 158.725Z" fill="#23272A"/>
<path d="M212.873 158.725C212.697 158.725 212.528 158.656 212.404 158.533C212.279 158.41 212.209 158.243 212.209 158.069C212.209 157.544 211.944 157.281 211.811 157.281C211.679 157.281 211.413 157.544 211.413 158.069C211.413 158.243 211.343 158.41 211.219 158.533C211.094 158.656 210.925 158.725 210.75 158.725C210.583 158.7 210.429 158.622 210.31 158.504C210.19 158.386 210.112 158.234 210.086 158.069C210.086 157.616 210.268 157.182 210.591 156.862C210.915 156.542 211.354 156.362 211.811 156.362C212.269 156.362 212.708 156.542 213.031 156.862C213.355 157.182 213.536 157.616 213.536 158.069C213.51 158.234 213.432 158.386 213.313 158.504C213.194 158.622 213.04 158.7 212.873 158.725Z" fill="#23272A"/>
<path d="M75.9132 161.088C76.7272 160.623 77.4019 159.953 77.8682 159.145C78.3346 158.338 78.5758 157.423 78.5674 156.493C78.5674 155.135 78.0221 153.833 77.0515 152.872C76.0808 151.912 74.7643 151.373 73.3916 151.373H71.9318C73.1262 144.677 72.9935 139.426 71.4009 139.032C69.8083 138.638 66.756 143.758 64.4998 150.979H64.3671C62.3764 143.758 59.7221 138.507 57.9969 138.901C56.2716 139.295 56.0062 144.546 57.0679 151.373H55.7408C54.3786 151.406 53.0816 151.956 52.1181 152.909C51.1547 153.862 50.5986 155.146 50.5649 156.493C50.5565 157.423 50.7978 158.338 51.2641 159.145C51.7305 159.953 52.4051 160.623 53.2192 161.088C52.0336 161.471 51.0221 162.255 50.3621 163.301C49.7022 164.348 49.436 165.592 49.6101 166.813C49.7843 168.035 50.3877 169.157 51.3146 169.983C52.2415 170.808 53.4326 171.285 54.679 171.328H74.4533C75.6998 171.285 76.8909 170.808 77.8178 169.983C78.7446 169.157 79.3481 168.035 79.5222 166.813C79.6964 165.592 79.4301 164.348 78.7702 163.301C78.1103 162.255 77.0988 161.471 75.9132 161.088Z" fill="#E9459D"/>
<path d="M62.7746 155.312C62.2369 154.919 61.5693 154.741 60.905 154.814C60.2408 154.887 59.6288 155.206 59.1914 155.705H59.0587L58.7932 155.968L58.3951 155.574C57.9577 155.074 57.3457 154.756 56.6814 154.683C56.0172 154.61 55.3495 154.788 54.8118 155.18C54.5991 155.437 54.4405 155.734 54.3453 156.053C54.25 156.371 54.22 156.705 54.2571 157.036C54.2942 157.366 54.3976 157.685 54.5612 157.975C54.7248 158.265 54.9454 158.52 55.21 158.725H55.3427L55.6081 158.988L57.4661 160.826C57.8311 161.149 58.3036 161.327 58.7932 161.327C59.2829 161.327 59.7554 161.149 60.1204 160.826L61.8457 158.988L62.2438 158.594C62.7014 158.191 63.0043 157.645 63.101 157.046C63.1978 156.448 63.0825 155.835 62.7746 155.312Z" fill="#F4DC53"/>
<path d="M74.4533 155.312C73.9156 154.919 73.248 154.741 72.5837 154.814C71.9195 154.887 71.3075 155.206 70.8701 155.705H70.7373L70.4719 155.968L70.0738 155.574C69.6363 155.074 69.0244 154.756 68.3601 154.683C67.6959 154.61 67.0282 154.788 66.4905 155.18C66.2778 155.437 66.1192 155.734 66.024 156.053C65.9287 156.371 65.8987 156.705 65.9358 157.036C65.9729 157.366 66.0763 157.685 66.2399 157.975C66.4035 158.265 66.6241 158.52 66.8887 158.725H67.0214L67.2868 158.988L69.1448 160.826C69.5098 161.149 69.9823 161.327 70.4719 161.327C70.9616 161.327 71.4341 161.149 71.7991 160.826L73.5243 158.988L73.9224 158.594C74.3801 158.191 74.683 157.645 74.7797 157.046C74.8765 156.448 74.7612 155.835 74.4533 155.312Z" fill="#F4DC53"/>
<path d="M61.5804 164.632C61.4391 164.599 61.2912 164.604 61.1527 164.647C61.0142 164.691 60.8904 164.771 60.7947 164.879C60.699 164.988 60.635 165.12 60.6098 165.261C60.5845 165.403 60.5989 165.548 60.6514 165.683C60.9501 166.49 61.492 167.187 62.204 167.68C62.916 168.173 63.7637 168.438 64.6328 168.44C65.4886 168.45 66.3252 168.188 67.0185 167.691C67.7117 167.195 68.2248 166.49 68.4815 165.683C68.534 165.548 68.5483 165.403 68.5231 165.261C68.4978 165.12 68.4339 164.988 68.3382 164.879C68.2425 164.771 68.1187 164.691 67.9802 164.647C67.8417 164.604 67.6938 164.599 67.5525 164.632C65.6177 165.292 63.5151 165.292 61.5804 164.632Z" fill="#25272A"/>
<path d="M107.897 151.111C109.091 154.787 108.428 158.463 106.304 159.12L101.925 145.466C104.048 144.81 106.702 147.304 107.897 151.111Z" fill="#5765F0"/>
<path d="M121.168 151.111C119.974 154.787 120.637 158.463 122.761 159.12L127.14 145.466C125.017 144.81 122.362 147.304 121.168 151.111Z" fill="#5765F0"/>
<path d="M114.4 171.46C121.29 171.46 126.875 166.993 126.875 161.483C126.875 155.972 121.29 151.505 114.4 151.505C107.51 151.505 101.925 155.972 101.925 161.483C101.925 166.993 107.51 171.46 114.4 171.46Z" fill="#5765F0"/>
<path d="M121.832 155.181C121.209 156.62 120.173 157.848 118.852 158.711C117.531 159.575 115.983 160.036 114.4 160.038C112.802 160.028 111.24 159.566 109.899 158.705C108.558 157.844 107.495 156.621 106.835 155.181C108.449 153.374 109.303 151.026 109.224 148.616C109.209 147.909 109.12 147.205 108.959 146.516C110.634 147.394 112.504 147.845 114.4 147.828C116.254 147.845 118.081 147.393 119.709 146.516C119.709 147.172 119.576 147.828 119.576 148.616C119.522 150.999 120.321 153.324 121.832 155.181Z" fill="#5765F0"/>
<path d="M122.761 151.505C122.738 152.784 122.42 154.041 121.832 155.181C120.321 153.324 119.522 150.999 119.576 148.617C119.576 147.829 119.708 147.172 119.708 146.516C118.081 147.394 116.254 147.846 114.4 147.829C112.504 147.845 110.634 147.394 108.959 146.516C109.12 147.205 109.209 147.909 109.224 148.617C109.303 151.026 108.449 153.374 106.835 155.181C106.293 154.031 106.02 152.774 106.039 151.505C106.053 149.435 106.805 147.435 108.162 145.86C108.295 145.728 108.428 145.466 108.693 145.334L110.419 144.022C110.299 143.685 110.254 143.327 110.286 142.971C110.286 141.892 110.719 140.857 111.491 140.093C112.262 139.33 113.309 138.901 114.4 138.901C115.491 138.901 116.538 139.33 117.309 140.093C118.081 140.857 118.514 141.892 118.514 142.971C118.546 143.327 118.501 143.685 118.381 144.022L120.107 145.334L120.637 145.86C121.995 147.435 122.747 149.435 122.761 151.505Z" fill="#23272A"/>
<path d="M114.4 155.969C115.939 155.969 117.187 154.735 117.187 153.212C117.187 151.689 115.939 150.455 114.4 150.455C112.861 150.455 111.613 151.689 111.613 153.212C111.613 154.735 112.861 155.969 114.4 155.969Z" fill="white"/>
<path d="M114.4 169.228C117.478 169.228 119.974 166.76 119.974 163.714C119.974 160.669 117.478 158.2 114.4 158.2C111.321 158.2 108.826 160.669 108.826 163.714C108.826 166.76 111.321 169.228 114.4 169.228Z" fill="#23272A"/>
<path d="M114.4 154.524C115.133 154.524 115.727 153.936 115.727 153.211C115.727 152.486 115.133 151.898 114.4 151.898C113.667 151.898 113.073 152.486 113.073 153.211C113.073 153.936 113.667 154.524 114.4 154.524Z" fill="#25272A"/>
<path d="M117.319 163.321C117.455 163.373 117.602 163.387 117.745 163.362C117.889 163.337 118.022 163.274 118.131 163.179C118.241 163.085 118.322 162.962 118.366 162.825C118.41 162.688 118.415 162.542 118.381 162.402C118.152 161.53 117.636 160.758 116.916 160.207C116.195 159.656 115.31 159.357 114.4 159.357C113.489 159.357 112.604 159.656 111.884 160.207C111.163 160.758 110.648 161.53 110.418 162.402C110.395 162.528 110.402 162.657 110.44 162.78C110.479 162.902 110.547 163.013 110.638 163.104C110.729 163.194 110.842 163.261 110.965 163.299C111.089 163.337 111.22 163.344 111.347 163.321C113.282 162.661 115.385 162.661 117.319 163.321Z" fill="white"/>
<path d="M174.386 145.728H154.479C151.401 145.728 148.905 148.196 148.905 151.242V159.749C148.905 162.794 151.401 165.263 154.479 165.263H174.386C177.465 165.263 179.96 162.794 179.96 159.749V151.242C179.96 148.196 177.465 145.728 174.386 145.728Z" fill="#7196FF"/>
<path d="M169.609 149.141H159.257C157.864 149.141 156.735 150.257 156.735 151.635V155.836C156.735 157.214 157.864 158.331 159.257 158.331H169.609C171.001 158.331 172.13 157.214 172.13 155.836V151.635C172.13 150.257 171.001 149.141 169.609 149.141Z" fill="#BACFFF"/>
<path d="M175.714 155.442C176.96 155.442 177.97 153.855 177.97 151.897C177.97 149.94 176.96 148.353 175.714 148.353C174.468 148.353 173.458 149.94 173.458 151.897C173.458 153.855 174.468 155.442 175.714 155.442Z" fill="white"/>
<path d="M174.784 154.13C175.371 154.13 175.846 153.131 175.846 151.898C175.846 150.665 175.371 149.666 174.784 149.666C174.198 149.666 173.723 150.665 173.723 151.898C173.723 153.131 174.198 154.13 174.784 154.13Z" fill="#23272A"/>
<path d="M153.285 155.442C154.531 155.442 155.541 153.855 155.541 151.897C155.541 149.94 154.531 148.353 153.285 148.353C152.039 148.353 151.029 149.94 151.029 151.897C151.029 153.855 152.039 155.442 153.285 155.442Z" fill="white"/>
<path d="M152.223 154.13C152.81 154.13 153.285 153.131 153.285 151.898C153.285 150.665 152.81 149.666 152.223 149.666C151.637 149.666 151.162 150.665 151.162 151.898C151.162 153.131 151.637 154.13 152.223 154.13Z" fill="#23272A"/>
<path d="M168.414 154.261H166.689C166.102 154.261 165.627 154.722 165.627 155.291C165.627 155.861 166.102 156.322 166.689 156.322H168.414C169 156.322 169.476 155.861 169.476 155.291C169.476 154.722 169 154.261 168.414 154.261Z" fill="#7196FF"/>
<path d="M162.177 154.261H160.451C159.865 154.261 159.39 154.722 159.39 155.291C159.39 155.861 159.865 156.322 160.451 156.322H162.177C162.763 156.322 163.238 155.861 163.238 155.291C163.238 154.722 162.763 154.261 162.177 154.261Z" fill="#7196FF"/>
<path d="M149.171 160.169H147.446C147.132 160.169 146.821 160.108 146.531 159.989C146.242 159.87 145.978 159.696 145.756 159.477C145.535 159.257 145.359 158.997 145.239 158.71C145.119 158.423 145.057 158.116 145.057 157.806V153.079C145.057 152.453 145.308 151.852 145.756 151.408C146.204 150.965 146.812 150.716 147.446 150.716H149.171V160.169Z" fill="#7196FF"/>
<path d="M179.695 150.716H181.42C181.734 150.716 182.044 150.777 182.334 150.896C182.624 151.014 182.887 151.189 183.109 151.408C183.331 151.627 183.507 151.888 183.627 152.175C183.747 152.461 183.809 152.769 183.809 153.079V157.805C183.809 158.432 183.557 159.033 183.109 159.476C182.661 159.919 182.054 160.168 181.42 160.168H179.695V150.716Z" fill="#7196FF"/>
<path d="M149.038 158.331H147.976C147.589 158.331 147.218 158.179 146.944 157.908C146.67 157.637 146.517 157.27 146.517 156.887V153.999C146.517 153.616 146.67 153.248 146.944 152.977C147.218 152.707 147.589 152.554 147.976 152.554H149.038V158.331Z" fill="#BACFFF"/>
<path d="M179.695 152.555H180.757C181.144 152.555 181.515 152.707 181.789 152.978C182.063 153.248 182.216 153.616 182.216 153.999V156.887C182.216 157.27 182.063 157.637 181.789 157.908C181.515 158.179 181.144 158.331 180.757 158.331H179.695V152.555Z" fill="#BACFFF"/>
<path d="M276.575 165.945C275.424 166.901 273.964 167.414 272.461 167.39H255.872C254.37 167.414 252.909 166.901 251.758 165.945C250.776 165.18 250.023 164.165 249.578 163.009C249.134 161.852 249.016 160.599 249.236 159.381L250.298 153.604C252.167 155.432 254.386 156.872 256.824 157.841C259.262 158.811 261.871 159.289 264.498 159.25C269.539 159.281 274.412 157.456 278.168 154.13L279.097 159.381C279.317 160.599 279.199 161.852 278.755 163.009C278.311 164.165 277.557 165.18 276.575 165.945Z" fill="#AAFAE7"/>
<path d="M278.168 154.13C274.412 157.456 269.54 159.281 264.499 159.25C261.871 159.289 259.262 158.811 256.824 157.841C254.386 156.872 252.167 155.432 250.298 153.605L251.095 149.141C251.317 147.808 252.015 146.598 253.062 145.731C254.109 144.864 255.436 144.397 256.801 144.415C257.417 144.39 258.03 144.495 258.602 144.721C259.173 144.947 259.69 145.29 260.119 145.727C260.974 146.61 261.45 147.787 261.446 149.01H266.888C266.88 148.391 267.006 147.778 267.258 147.212C267.51 146.646 267.881 146.14 268.347 145.727C268.75 145.293 269.244 144.951 269.794 144.725C270.344 144.498 270.937 144.392 271.532 144.415C272.935 144.369 274.305 144.837 275.381 145.727C276.429 146.58 277.096 147.806 277.239 149.141L278.168 154.13Z" fill="#7CE4CC"/>
<path d="M262.906 156.23C262.767 156.241 262.629 156.209 262.51 156.139C262.391 156.068 262.297 155.962 262.242 155.836L261.711 154.261C261.669 154.175 261.645 154.082 261.642 153.987C261.64 153.892 261.658 153.797 261.696 153.71C261.734 153.623 261.79 153.544 261.862 153.481C261.933 153.417 262.018 153.37 262.109 153.342C262.375 153.21 262.773 153.473 262.906 153.735L263.437 155.442C263.481 155.518 263.506 155.603 263.509 155.69C263.512 155.778 263.493 155.865 263.454 155.943C263.414 156.021 263.355 156.088 263.283 156.139C263.21 156.189 263.126 156.22 263.038 156.23H262.906Z" fill="#23272A"/>
<path d="M265.428 156.23H265.295C265.207 156.22 265.123 156.189 265.051 156.139C264.978 156.088 264.919 156.021 264.88 155.943C264.84 155.865 264.821 155.778 264.824 155.69C264.827 155.603 264.852 155.518 264.897 155.442L265.428 153.735C265.56 153.473 265.959 153.21 266.224 153.342C266.316 153.37 266.4 153.417 266.472 153.481C266.543 153.544 266.6 153.623 266.638 153.71C266.676 153.797 266.694 153.892 266.691 153.987C266.688 154.082 266.665 154.175 266.622 154.261L266.091 155.836C266.036 155.962 265.943 156.068 265.823 156.139C265.704 156.209 265.566 156.241 265.428 156.23Z" fill="#23272A"/>
<path d="M257.597 149.929C257.421 149.929 257.253 149.86 257.128 149.737C257.004 149.614 256.934 149.447 256.934 149.273C256.934 148.354 256.536 147.828 256.137 147.828C255.739 147.828 255.208 148.354 255.208 149.273C255.208 149.447 255.139 149.614 255.014 149.737C254.89 149.86 254.721 149.929 254.545 149.929C254.369 149.929 254.2 149.86 254.076 149.737C253.951 149.614 253.881 149.447 253.881 149.273C253.881 147.697 254.81 146.516 256.137 146.516C257.465 146.516 258.261 147.697 258.261 149.273C258.261 149.447 258.191 149.614 258.067 149.737C257.942 149.86 257.773 149.929 257.597 149.929Z" fill="#23272A"/>
<path d="M273.788 149.929C273.612 149.929 273.443 149.86 273.319 149.737C273.195 149.614 273.125 149.447 273.125 149.273C273.125 148.354 272.727 147.828 272.196 147.828C271.665 147.828 271.399 148.354 271.399 149.273C271.399 149.447 271.329 149.614 271.205 149.737C271.081 149.86 270.912 149.929 270.736 149.929C270.56 149.929 270.391 149.86 270.267 149.737C270.142 149.614 270.072 149.447 270.072 149.273C270.072 147.697 271.001 146.516 272.196 146.516C273.39 146.516 274.452 147.697 274.452 149.273C274.452 149.447 274.382 149.614 274.257 149.737C274.133 149.86 273.964 149.929 273.788 149.929Z" fill="#23272A"/>
<path d="M264.498 159.905C258.992 159.939 253.696 157.815 249.767 153.998C249.646 153.875 249.578 153.71 249.578 153.538C249.578 153.366 249.646 153.201 249.767 153.079C249.913 152.949 250.102 152.878 250.298 152.878C250.494 152.878 250.683 152.949 250.829 153.079C252.62 154.854 254.752 156.257 257.1 157.204C259.447 158.151 261.963 158.623 264.498 158.593C269.367 158.684 274.081 156.894 277.637 153.604C277.783 153.474 277.972 153.403 278.168 153.403C278.364 153.403 278.553 153.474 278.699 153.604C278.778 153.751 278.808 153.919 278.784 154.085C278.76 154.25 278.684 154.403 278.566 154.523C274.764 158.061 269.717 159.992 264.498 159.905Z" fill="#23272A"/>
<path d="M277.637 157.543C279.763 157.543 281.486 156.25 281.486 154.655C281.486 153.06 279.763 151.767 277.637 151.767C275.512 151.767 273.789 153.06 273.789 154.655C273.789 156.25 275.512 157.543 277.637 157.543Z" fill="#E9459D"/>
<path d="M250.696 157.543C252.822 157.543 254.545 156.25 254.545 154.655C254.545 153.06 252.822 151.767 250.696 151.767C248.571 151.767 246.848 153.06 246.848 154.655C246.848 156.25 248.571 157.543 250.696 157.543Z" fill="#E9459D"/>
<path d="M321.3 149.405C319.879 148.847 318.415 148.408 316.92 148.092C316.689 148.46 316.511 148.857 316.389 149.273C314.808 149.011 313.193 149.011 311.612 149.273C311.381 148.905 311.202 148.508 311.081 148.092C309.577 148.371 308.109 148.811 306.701 149.405C304.248 152.837 303.161 157.044 303.649 161.22C305.229 162.352 306.974 163.237 308.825 163.846C309.315 163.297 309.718 162.677 310.019 162.008L308.294 161.22L308.692 160.827C310.35 161.608 312.164 162.014 314.001 162.014C315.837 162.014 317.651 161.608 319.309 160.827L319.707 161.22L317.849 162.008C318.04 162.376 318.262 162.727 318.513 163.058C319.148 162.038 320.023 161.183 321.062 160.566C322.101 159.949 323.275 159.588 324.485 159.514C324.473 155.904 323.363 152.382 321.3 149.405ZM310.55 158.857C309.987 158.857 309.447 158.636 309.049 158.242C308.65 157.848 308.427 157.314 308.427 156.757C308.427 156.2 308.65 155.665 309.049 155.271C309.447 154.877 309.987 154.656 310.55 154.656C311.113 154.656 311.653 154.877 312.052 155.271C312.45 155.665 312.673 156.2 312.673 156.757C312.673 157.314 312.45 157.848 312.052 158.242C311.653 158.636 311.113 158.857 310.55 158.857ZM317.451 158.857C317.024 158.91 316.59 158.834 316.208 158.638C315.826 158.442 315.513 158.135 315.311 157.759C315.109 157.383 315.027 156.955 315.076 156.532C315.126 156.109 315.304 155.71 315.588 155.39C315.871 155.069 316.247 154.842 316.664 154.737C317.081 154.632 317.521 154.656 317.925 154.804C318.329 154.952 318.677 155.218 318.924 155.567C319.172 155.916 319.306 156.331 319.309 156.757C319.327 157.015 319.293 157.275 319.21 157.521C319.126 157.767 318.994 157.994 318.821 158.189C318.649 158.384 318.439 158.544 318.204 158.658C317.969 158.773 317.713 158.841 317.451 158.857Z" fill="white"/>
<path d="M325.016 171.854C327.801 171.854 330.059 169.62 330.059 166.865C330.059 164.11 327.801 161.876 325.016 161.876C322.231 161.876 319.973 164.11 319.973 166.865C319.973 169.62 322.231 171.854 325.016 171.854Z" fill="#57F085"/>
<path d="M367.617 166.866C367.617 164.904 368.396 163.02 369.786 161.62C371.176 160.221 373.066 159.417 375.049 159.383C376.633 159.352 378.18 159.862 379.429 160.827C379.961 159.261 380.23 157.62 380.225 155.969C380.225 152.801 379.275 149.705 377.496 147.071C375.717 144.437 373.188 142.384 370.23 141.171C367.271 139.959 364.016 139.642 360.875 140.26C357.734 140.878 354.849 142.403 352.585 144.643C350.321 146.883 348.779 149.737 348.154 152.844C347.529 155.951 347.85 159.172 349.075 162.098C350.301 165.025 352.376 167.527 355.039 169.287C357.701 171.047 360.832 171.986 364.034 171.986C365.703 171.991 367.362 171.725 368.944 171.198C368.035 169.936 367.569 168.415 367.617 166.866Z" fill="#5865F2"/>
<path d="M371.333 149.405C369.925 148.811 368.457 148.371 366.953 148.092C366.832 148.508 366.653 148.905 366.422 149.273C364.841 149.011 363.226 149.011 361.645 149.273C361.523 148.857 361.345 148.46 361.114 148.092C359.62 148.408 358.155 148.847 356.734 149.405C354.347 152.867 353.266 157.049 353.682 161.22C355.309 162.353 357.098 163.238 358.99 163.846L360.185 162.008L358.327 161.22L358.725 160.827C360.383 161.608 362.197 162.014 364.034 162.014C365.87 162.014 367.684 161.608 369.342 160.827L369.74 161.22L368.015 162.008C368.157 162.402 368.383 162.76 368.679 163.058C369.284 162.04 370.134 161.184 371.152 160.566C372.17 159.948 373.326 159.587 374.518 159.514C374.506 155.904 373.396 152.382 371.333 149.405ZM360.583 158.857C360.156 158.91 359.722 158.834 359.34 158.638C358.958 158.442 358.645 158.135 358.443 157.759C358.241 157.383 358.159 156.955 358.208 156.532C358.258 156.109 358.436 155.71 358.72 155.39C359.003 155.069 359.379 154.842 359.796 154.737C360.213 154.632 360.653 154.656 361.057 154.804C361.46 154.952 361.809 155.218 362.056 155.567C362.303 155.916 362.438 156.331 362.441 156.757C362.459 157.015 362.425 157.275 362.341 157.521C362.258 157.767 362.126 157.994 361.953 158.189C361.781 158.384 361.571 158.544 361.336 158.658C361.1 158.773 360.845 158.841 360.583 158.857ZM367.484 158.857C366.968 158.793 366.494 158.544 366.151 158.156C365.809 157.769 365.622 157.271 365.626 156.757C365.608 156.498 365.642 156.238 365.726 155.992C365.809 155.747 365.941 155.52 366.114 155.325C366.287 155.129 366.497 154.97 366.732 154.855C366.967 154.74 367.222 154.673 367.484 154.656C368.047 154.656 368.587 154.877 368.986 155.271C369.384 155.665 369.608 156.2 369.608 156.757C369.608 157.314 369.384 157.848 368.986 158.242C368.587 158.636 368.047 158.857 367.484 158.857Z" fill="white"/>
<path d="M375.049 171.854C377.834 171.854 380.092 169.62 380.092 166.865C380.092 164.11 377.834 161.876 375.049 161.876C372.264 161.876 370.006 164.11 370.006 166.865C370.006 169.62 372.264 171.854 375.049 171.854Z" fill="#E9459D"/>
<path d="M166.158 164.765C165.65 164.731 165.153 164.597 164.698 164.372C164.242 164.146 163.836 163.834 163.504 163.452C163.238 163.321 163.238 162.927 163.504 162.664C163.769 162.402 164.167 162.402 164.3 162.664C164.839 163.185 165.541 163.51 166.291 163.583C166.556 163.583 166.689 163.452 166.954 163.19C167.22 162.927 167.087 162.796 166.954 162.664C166.753 162.191 166.372 161.814 165.893 161.614C165.76 161.614 165.627 161.352 165.627 161.089C165.627 160.987 165.651 160.887 165.697 160.795C165.743 160.704 165.81 160.625 165.893 160.564C166.423 160.301 166.822 160.039 166.954 159.645C167.087 159.251 166.954 159.251 166.954 159.12C166.954 158.988 166.556 158.726 166.291 158.726C166.025 158.726 165.096 158.988 164.3 159.645C164.171 159.713 164.023 159.736 163.879 159.713C163.735 159.689 163.603 159.619 163.504 159.513C163.238 159.382 163.238 158.988 163.504 158.726C163.853 158.305 164.303 157.976 164.813 157.77C165.322 157.563 165.876 157.486 166.423 157.544C166.724 157.569 167.014 157.665 167.268 157.825C167.522 157.985 167.734 158.204 167.883 158.463C168.165 158.938 168.26 159.499 168.149 160.039C167.953 160.473 167.629 160.839 167.22 161.089C167.608 161.416 167.924 161.818 168.149 162.271C168.207 162.516 168.214 162.771 168.168 163.02C168.122 163.268 168.025 163.505 167.883 163.715C167.554 164.24 167.03 164.617 166.423 164.765H166.158Z" fill="#23272A"/>
<path d="M377.438 89.9307H351.293C349.607 89.9307 348.241 91.2826 348.241 92.9502V118.84C348.241 120.508 349.607 121.859 351.293 121.859H377.438C379.123 121.859 380.49 120.508 380.49 118.84V92.9502C380.49 91.2826 379.123 89.9307 377.438 89.9307Z" fill="#AABFF2"/>
<path d="M366.953 111.2H361.645C360.202 111.2 358.818 110.632 357.797 109.623C356.777 108.614 356.204 107.244 356.204 105.817V101.878C356.204 101.53 356.343 101.196 356.592 100.95C356.841 100.704 357.179 100.565 357.531 100.565H371.068C371.42 100.565 371.757 100.704 372.006 100.95C372.255 101.196 372.395 101.53 372.395 101.878V105.817C372.395 107.244 371.821 108.614 370.801 109.623C369.781 110.632 368.397 111.2 366.953 111.2Z" fill="#CBDAF7"/>
<path d="M365.228 113.169H363.37C362.783 113.169 362.308 113.616 362.308 114.167C362.308 114.718 362.783 115.164 363.37 115.164H365.228C365.814 115.164 366.29 114.718 366.29 114.167C366.29 113.616 365.814 113.169 365.228 113.169Z" fill="#697EC4"/>
<path d="M362.574 107.655H360.583C360.217 107.655 359.919 107.949 359.919 108.312V108.325C359.919 108.687 360.217 108.981 360.583 108.981H362.574C362.94 108.981 363.237 108.687 363.237 108.325V108.312C363.237 107.949 362.94 107.655 362.574 107.655Z" fill="#AABFF2"/>
<path d="M368.015 107.655H366.024C365.658 107.655 365.361 107.949 365.361 108.312V108.325C365.361 108.687 365.658 108.981 366.024 108.981H368.015C368.382 108.981 368.679 108.687 368.679 108.325V108.312C368.679 107.949 368.382 107.655 368.015 107.655Z" fill="#AABFF2"/>
<path d="M352.222 106.998C353.322 106.998 354.213 106.116 354.213 105.029C354.213 103.941 353.322 103.06 352.222 103.06C351.123 103.06 350.231 103.941 350.231 105.029C350.231 106.116 351.123 106.998 352.222 106.998Z" fill="#333132"/>
<path d="M376.509 106.998C377.608 106.998 378.499 106.116 378.499 105.029C378.499 103.941 377.608 103.06 376.509 103.06C375.409 103.06 374.518 103.941 374.518 105.029C374.518 106.116 375.409 106.998 376.509 106.998Z" fill="#333132"/>
<path d="M274.453 99.5137H257.996C255.138 99.5137 252.82 101.806 252.82 104.634V113.824C252.82 116.652 255.138 118.944 257.996 118.944H274.453C277.311 118.944 279.628 116.652 279.628 113.824V104.634C279.628 101.806 277.311 99.5137 274.453 99.5137Z" fill="#85A5E5"/>
<path d="M271.002 99.5137H254.545C251.687 99.5137 249.37 101.806 249.37 104.634V113.824C249.37 116.652 251.687 118.944 254.545 118.944H271.002C273.86 118.944 276.178 116.652 276.178 113.824V104.634C276.178 101.806 273.86 99.5137 271.002 99.5137Z" fill="#AABFF2"/>
<path d="M249.237 104.897H258.527C259.09 104.897 259.63 105.119 260.028 105.513C260.426 105.907 260.65 106.441 260.65 106.998V109.099C260.65 110.457 260.105 111.759 259.134 112.719C258.164 113.679 256.847 114.219 255.474 114.219H252.422C251.049 114.219 249.733 113.679 248.762 112.719C247.791 111.759 247.246 110.457 247.246 109.099V106.867C247.278 106.355 247.497 105.872 247.864 105.509C248.231 105.146 248.719 104.929 249.237 104.897Z" fill="#CBDAF7"/>
<path d="M272.727 102.403H278.036C278.951 102.403 279.828 102.763 280.475 103.403C281.123 104.043 281.486 104.911 281.486 105.817V108.18C281.486 109.085 281.123 109.953 280.475 110.594C279.828 111.234 278.951 111.593 278.036 111.593H272.727V102.403Z" fill="#AABFF2"/>
<path d="M279.761 105.817V108.18C279.761 108.632 279.579 109.066 279.255 109.387C278.932 109.707 278.493 109.886 278.035 109.886H272.992C272.94 109.886 272.888 109.876 272.84 109.856C272.791 109.837 272.748 109.808 272.711 109.771C272.674 109.734 272.644 109.691 272.624 109.643C272.604 109.595 272.594 109.544 272.594 109.493V104.372C272.594 104.268 272.636 104.168 272.711 104.094C272.785 104.02 272.887 103.979 272.992 103.979H278.035C278.273 103.978 278.509 104.026 278.728 104.12C278.946 104.214 279.143 104.351 279.305 104.524C279.467 104.697 279.591 104.901 279.669 105.123C279.748 105.345 279.779 105.582 279.761 105.817Z" fill="#85A5E5"/>
<path d="M266.489 108.284C266.489 107.501 265.836 106.866 265.03 106.866C264.223 106.866 263.57 107.501 263.57 108.284C263.57 109.067 264.223 109.702 265.03 109.702C265.836 109.702 266.489 109.067 266.489 108.284Z" fill="#333132"/>
<path d="M253.483 112.118H255.076C255.589 112.118 256.005 111.736 256.005 111.265C256.005 110.794 255.589 110.411 255.076 110.411H253.483C252.97 110.411 252.554 110.794 252.554 111.265C252.554 111.736 252.97 112.118 253.483 112.118Z" fill="#AABFF2"/>
<path d="M249.635 112.118H250.564C251.077 112.118 251.493 111.736 251.493 111.265C251.493 110.794 251.077 110.411 250.564 110.411H249.635C249.122 110.411 248.706 110.794 248.706 111.265C248.706 111.736 249.122 112.118 249.635 112.118Z" fill="#AABFF2"/>
<path d="M266.755 93.4753L263.835 89.668H263.304L260.384 93.4753C260.384 93.5449 260.356 93.6117 260.307 93.6609C260.257 93.7102 260.189 93.7378 260.119 93.7378C260.049 93.7378 259.981 93.7102 259.931 93.6609C259.882 93.6117 259.854 93.5449 259.854 93.4753L257.332 90.1931C257.067 89.9306 256.668 90.0618 256.668 90.3244V99.5144H270.471V90.3244C270.488 90.2548 270.477 90.1811 270.44 90.1195C270.402 90.058 270.342 90.0136 270.272 89.9962C270.201 89.9788 270.127 89.9897 270.064 90.0267C270.002 90.0636 269.957 90.1235 269.94 90.1931L267.286 93.4753C267.286 93.5449 267.258 93.6117 267.208 93.6609C267.158 93.7102 267.09 93.7378 267.02 93.7378C266.95 93.7378 266.882 93.7102 266.832 93.6609C266.783 93.6117 266.755 93.5449 266.755 93.4753Z" fill="#FFCD3E"/>
<path d="M265.05 96.0077L263.924 94.8938C263.769 94.7399 263.517 94.7399 263.361 94.8937L262.216 96.0263C262.061 96.1801 262.061 96.4295 262.216 96.5833L263.342 97.6973C263.498 97.8511 263.75 97.8511 263.905 97.6973L265.05 96.5648C265.206 96.4109 265.206 96.1615 265.05 96.0077Z" fill="#FF6440"/>
<path d="M271.921 95.9784L270.795 94.8644C270.639 94.7106 270.387 94.7106 270.232 94.8644L269.087 95.997C268.931 96.1508 268.931 96.4002 269.087 96.554L270.213 97.668C270.368 97.8218 270.62 97.8218 270.776 97.668L271.921 96.5354C272.076 96.3816 272.076 96.1322 271.921 95.9784Z" fill="#FF6440"/>
<path d="M258.18 95.9062L257.053 94.7922C256.898 94.6383 256.646 94.6384 256.49 94.7922L255.346 95.9247C255.19 96.0786 255.19 96.3279 255.346 96.4817L256.472 97.5957C256.627 97.7495 256.879 97.7495 257.035 97.5957L258.18 96.4632C258.335 96.3094 258.335 96.06 258.18 95.9062Z" fill="#FF6440"/>
<path d="M326.741 103.979H328.997C329.772 103.979 330.514 104.284 331.062 104.825C331.609 105.367 331.917 106.102 331.917 106.868V111.2C331.917 111.966 331.609 112.701 331.062 113.243C330.514 113.784 329.772 114.089 328.997 114.089H326.741V103.979Z" fill="#AABFF2"/>
<path d="M328.864 106.08H327.405C326.598 106.08 325.945 106.727 325.945 107.524V110.413C325.945 111.21 326.598 111.857 327.405 111.857H328.864C329.671 111.857 330.324 111.21 330.324 110.413V107.524C330.324 106.727 329.671 106.08 328.864 106.08Z" fill="#7D94DF"/>
<path d="M301.924 114.089H299.668C298.893 114.089 298.151 113.785 297.603 113.243C297.056 112.701 296.748 111.967 296.748 111.201V106.868C296.748 106.102 297.056 105.367 297.603 104.826C298.151 104.284 298.893 103.98 299.668 103.98H301.924V114.089Z" fill="#AABFF2"/>
<path d="M301.128 106.08H299.668C298.862 106.08 298.208 106.727 298.208 107.524V110.413C298.208 111.21 298.862 111.857 299.668 111.857H301.128C301.934 111.857 302.588 111.21 302.588 110.413V107.524C302.588 106.727 301.934 106.08 301.128 106.08Z" fill="#7D94DF"/>
<path d="M322.362 98.7285H306.304C303.079 98.7285 300.464 101.315 300.464 104.505V113.183C300.464 116.373 303.079 118.96 306.304 118.96H322.362C325.587 118.96 328.201 116.373 328.201 113.183V104.505C328.201 101.315 325.587 98.7285 322.362 98.7285Z" fill="#AABFF2"/>
<path d="M310.019 105.949H318.778C319.553 105.949 320.295 106.254 320.843 106.795C321.39 107.337 321.698 108.071 321.698 108.838V110.282C321.698 111.814 321.083 113.283 319.988 114.366C318.893 115.45 317.407 116.058 315.859 116.058H312.939C311.39 116.058 309.905 115.45 308.81 114.366C307.715 113.283 307.1 111.814 307.1 110.282V108.838C307.1 108.071 307.407 107.337 307.955 106.795C308.502 106.254 309.245 105.949 310.019 105.949Z" fill="#CBDAF7"/>
<path d="M317.186 112.383H315.859C315.419 112.383 315.062 112.706 315.062 113.105C315.062 113.504 315.419 113.827 315.859 113.827H317.186C317.626 113.827 317.982 113.504 317.982 113.105C317.982 112.706 317.626 112.383 317.186 112.383Z" fill="#AABFF2"/>
<path d="M312.674 112.383H311.347C310.907 112.383 310.55 112.706 310.55 113.105C310.55 113.504 310.907 113.827 311.347 113.827H312.674C313.113 113.827 313.47 113.504 313.47 113.105C313.47 112.706 313.113 112.383 312.674 112.383Z" fill="#AABFF2"/>
<path d="M304.843 109.756H302.72C302.28 109.756 301.924 110.079 301.924 110.478C301.924 110.877 302.28 111.2 302.72 111.2H304.843C305.283 111.2 305.64 110.877 305.64 110.478C305.64 110.079 305.283 109.756 304.843 109.756Z" fill="#333132"/>
<path d="M325.945 109.756H323.822C323.382 109.756 323.025 110.079 323.025 110.478C323.025 110.877 323.382 111.2 323.822 111.2H325.945C326.385 111.2 326.741 110.877 326.741 110.478C326.741 110.079 326.385 109.756 325.945 109.756Z" fill="#333132"/>
<path d="M330.988 102.011C330.988 103.055 330.569 104.057 329.822 104.796C329.075 105.534 328.063 105.949 327.007 105.949C326.479 105.968 325.953 105.878 325.461 105.687C324.97 105.495 324.524 105.206 324.15 104.836C323.777 104.467 323.484 104.025 323.291 103.539C323.097 103.053 323.007 102.533 323.025 102.011C323.025 99.91 327.007 95.4463 327.007 95.4463C327.007 95.4463 330.988 99.91 330.988 102.011Z" fill="#5AC8FA"/>
<path d="M53.8826 69.8447H53.7499C51.4777 69.8447 49.6357 71.6669 49.6357 73.9146V74.0065C49.6357 76.2542 51.4777 78.0764 53.7499 78.0764H53.8826C56.1547 78.0764 57.9967 76.2542 57.9967 74.0065V73.9146C57.9967 71.6669 56.1547 69.8447 53.8826 69.8447Z" fill="#B9BBBE"/>
<path d="M92.3696 71.4199H66.7559C65.3633 71.4199 64.2344 72.5367 64.2344 73.9143V73.9669C64.2344 75.3445 65.3633 76.4613 66.7559 76.4613H92.3696C93.7622 76.4613 94.8912 75.3445 94.8912 73.9669V73.9143C94.8912 72.5367 93.7622 71.4199 92.3696 71.4199Z" fill="#B9BBBE"/>
<path fill-rule="evenodd" clip-rule="evenodd" d="M108.295 72.3398L105.773 74.8343L103.252 72.3398L102.456 73.1276L105.773 76.4097L109.091 73.1276L108.295 72.3398Z" fill="#B9BBBE"/>
<path d="M53.8826 185.771H53.7499C51.4777 185.771 49.6357 187.593 49.6357 189.84V189.932C49.6357 192.18 51.4777 194.002 53.7499 194.002H53.8826C56.1547 194.002 57.9967 192.18 57.9967 189.932V189.84C57.9967 187.593 56.1547 185.771 53.8826 185.771Z" fill="#B9BBBE"/>
<path d="M92.3696 187.346H66.7559C65.3633 187.346 64.2344 188.462 64.2344 189.84V189.893C64.2344 191.27 65.3633 192.387 66.7559 192.387H92.3696C93.7622 192.387 94.8912 191.27 94.8912 189.893V189.84C94.8912 188.462 93.7622 187.346 92.3696 187.346Z" fill="#B9BBBE"/>
<path fill-rule="evenodd" clip-rule="evenodd" d="M108.295 188.396L105.773 190.89L103.252 188.396L102.456 189.052L105.773 192.465L109.091 189.052L108.295 188.396Z" fill="#B9BBBE"/>
<defs>
<linearGradient id="paint0_linear_14123_103049" x1="303.238" y1="21.2412" x2="347.378" y2="21.2412" gradientUnits="userSpaceOnUse">
<stop stop-color="#8547C6"/>
<stop offset="0.53" stop-color="#B845C1"/>
<stop offset="1" stop-color="#AB5D8A"/>
</linearGradient>
</defs>
</svg>
