<svg width="187" height="131" viewBox="0 0 187 131" fill="none" xmlns="http://www.w3.org/2000/svg">
<path d="M3.27325 99.9171C1.61823 103.258 1.46777 108.097 1.46777 108.097C1.46777 108.097 11.485 116.99 35.9896 122.015C37.33 119.848 38.4598 117.554 39.363 115.165C39.363 115.165 4.67487 98.668 3.27325 99.9171Z" fill="#5865F2"/>
<path d="M5.53809 110.938C5.839 111.119 6.15179 111.309 6.48834 111.502C6.75757 108.573 7.32376 104.571 8.4997 101.38L7.5732 101.025C6.40519 104.172 5.82712 108.004 5.53809 110.938Z" fill="#3442D9"/>
<path d="M11.8568 102.728L10.9382 102.35C9.52469 105.335 8.78825 109.333 8.41211 112.576C8.71698 112.742 9.03373 112.907 9.36236 113.076C9.72266 109.812 10.4393 105.686 11.8568 102.728Z" fill="#3442D9"/>
<path d="M15.5655 104.305L14.639 103.902C12.889 106.493 11.9347 110.535 11.4121 114.093L12.3624 114.536C12.8692 110.938 13.8115 106.783 15.5655 104.305Z" fill="#3442D9"/>
<path d="M23.1064 107.645L22.1958 107.242C20.9644 110.591 20.3903 114.705 20.125 117.682C20.4418 117.795 20.7704 117.908 21.099 118.017C21.3524 115.083 21.9067 110.941 23.1064 107.645Z" fill="#3442D9"/>
<path d="M26.3884 109.13L25.4817 108.727C24.1434 111.66 23.4347 115.508 23.0625 118.667L24.0325 118.973C24.3929 115.834 25.0818 111.982 26.3884 109.13Z" fill="#3442D9"/>
<path d="M29.9778 110.785L29.0632 110.362C27.5428 112.78 26.6559 116.35 26.1372 119.598L27.1073 119.876C27.6299 116.632 28.501 113.094 29.9778 110.785Z" fill="#3442D9"/>
<path d="M32.0681 49.0686C32.0681 49.0686 23.7019 41.3764 9.92725 46.6106C9.76374 46.6721 9.61488 46.7681 9.49043 46.8923C9.36599 47.0165 9.26879 47.1662 9.20521 47.3313C9.14164 47.4965 9.11313 47.6735 9.12156 47.8507C9.13 48.0279 9.17519 48.2012 9.25415 48.3594C10.9725 51.8126 16.3058 61.2214 23.2109 60.8104L32.0681 49.0686Z" fill="#5865F2"/>
<path d="M9.88965 49.5815C10.0401 49.8596 10.2024 50.1577 10.3806 50.468C14.7993 48.8764 23.2011 46.906 30.3596 51.3384L30.9654 50.5325C23.3674 45.7737 14.4588 47.9133 9.88965 49.5815Z" fill="#3442D9"/>
<path d="M28.3118 54.0555L28.9413 53.2174C22.9785 50.9327 16.5604 51.9521 12.1338 53.2617C12.3318 53.5478 12.5297 53.8339 12.7515 54.124C16.9365 52.9272 22.8241 52.0408 28.3118 54.0555Z" fill="#3442D9"/>
<path d="M26.5807 56.343C22.5975 55.5372 18.5946 56.1013 15.2568 57.0683C15.534 57.3423 15.8151 57.6083 16.1081 57.8742C19.0578 57.0683 22.4867 56.6372 25.9076 57.2456L26.5807 56.343Z" fill="#3442D9"/>
<path d="M71.5762 13.0104C71.5762 13.0104 63.2615 -3.64323 49.1147 0.732733C48.7815 0.836431 48.4801 1.02543 48.2393 1.28163C47.9985 1.53784 47.8263 1.85267 47.7393 2.19598C47.6523 2.5393 47.6533 2.89959 47.7423 3.24238C47.8313 3.58517 48.0053 3.89896 48.2476 4.15372L54.5826 10.8063C54.5826 10.8063 64.9958 9.50079 71.5762 13.0104Z" fill="#5865F2"/>
<path d="M47.752 3.28257C47.8419 3.613 48.0121 3.91508 48.2469 4.16098L48.2786 4.19725C52.1231 3.39136 60.9486 2.66606 66.3373 11.2326C66.7847 11.3253 67.2321 11.4261 67.6755 11.5429C61.9067 1.30814 51.7549 2.37594 47.752 3.28257Z" fill="#3442D9"/>
<path d="M56.7134 6.50655C54.6509 5.97181 52.493 5.94419 50.418 6.42596L51.2494 7.30035C52.9774 6.97585 54.7539 7.03772 56.456 7.48168C58.4378 8.03664 60.2346 9.12845 61.6547 10.6408C62.1298 10.669 62.6168 10.7052 63.1078 10.7495C61.4546 8.70104 59.2221 7.21971 56.7134 6.50655V6.50655Z" fill="#3442D9"/>
<path d="M57.4644 97.4072L57.7098 103.919L103.813 125.226L129.252 107.771L127.252 97.645L57.4644 97.4072Z" fill="url(#paint0_linear_15216_103204)"/>
<path d="M57.4644 97.4062L103.813 117.167L129.446 100.602L75.9824 86.0352L57.4644 97.4062Z" fill="#808AFF"/>
<path d="M115.874 64.0191L110.984 57.0804C110.895 56.9561 110.775 56.8592 110.636 56.8005C110.496 56.7418 110.344 56.7235 110.195 56.7477C110.046 56.7719 109.906 56.8377 109.792 56.9377C109.678 57.0376 109.593 57.1679 109.547 57.3141L106.902 65.9895L113.237 76.6957L116.717 68.1936L115.874 64.0191Z" fill="#EB459F"/>
<path d="M111.858 79.275C117.9 85.7785 135.242 103.407 147.75 105.543L141.296 77.5302C141.296 77.5302 131.968 84.6502 115.873 64.0195L111.074 73.9884C110.661 74.8461 110.514 75.8117 110.654 76.7563C110.794 77.701 111.214 78.5796 111.858 79.275V79.275Z" fill="url(#paint1_linear_15216_103204)"/>
<path d="M178.574 106.011C178.574 106.011 181.057 109.5 180.74 113.562C180.74 113.562 173.569 120.944 168.007 121.693L167.448 111.886L178.574 106.011Z" fill="#FFF2A6"/>
<path d="M48.9438 35.6184C48.9438 35.6184 35.7432 24.6382 40.5776 16.3255C45.412 8.01276 66.4482 7.36402 74.1888 13.6741C82.8756 20.7579 87.9991 42.8915 79.8309 44.5879C79.8309 44.5879 75.2499 45.6275 71.5162 41.2919C68.4437 37.7178 62.7818 49.2379 62.7818 49.2379L47.9104 38.1731L48.9438 35.6184Z" fill="url(#paint2_linear_15216_103204)"/>
<path d="M42.253 32.8313C46.0817 33.9958 52.3256 35.8614 57.2035 38.4966C59.2057 39.5769 60.7784 41.3297 61.6539 43.4569L65.4984 52.7608C65.5821 52.9649 65.6229 53.1846 65.6183 53.4056C65.6137 53.6267 65.5637 53.8444 65.4717 54.0447C65.3796 54.245 65.2474 54.4235 65.0836 54.5688C64.9198 54.7141 64.728 54.8229 64.5205 54.8884L62.6279 55.4807C61.8823 55.7137 61.2139 56.1508 60.6958 56.7442C60.1777 57.3375 59.8298 58.0644 59.69 58.8453C57.94 68.6167 51.114 103.362 40.685 116.007C40.685 116.007 20.7021 113.992 1.59018 100.554C0.914497 100.083 0.413727 99.3952 0.168183 98.6003C-0.077362 97.8053 -0.0534535 96.9494 0.236074 96.17C3.53027 87.3616 15.5787 58.9541 39.6002 39.9513C40.0999 39.5566 40.4745 39.0211 40.6773 38.4113C40.88 37.8016 40.902 37.1446 40.7405 36.5222L40.2931 34.7896C40.2228 34.5152 40.225 34.2268 40.2992 33.9535C40.3735 33.6803 40.5173 33.4318 40.7161 33.2332C40.9149 33.0345 41.1617 32.8928 41.4315 32.8222C41.7013 32.7516 41.9847 32.7548 42.253 32.8313V32.8313Z" fill="#242145"/>
<path d="M144.155 71.5861C144.087 71.7231 140.152 66.3478 138.247 63.7005C137.969 63.3157 137.815 62.8527 137.806 62.375C137.796 61.8974 137.933 61.4286 138.196 61.033C138.548 60.5011 138.956 59.8725 139.336 59.2641C140.283 57.774 141.669 56.6272 143.296 55.9881L159.367 49.6216L167.982 44.7863C169.132 44.1408 170.45 43.872 171.756 44.0167L176.732 44.5687C177.631 44.6685 178.498 44.9616 179.277 45.4284C180.056 45.8952 180.729 46.5252 181.25 47.2765L184.655 52.1843C186.248 54.4823 187.069 57.2426 186.995 60.0538L186.936 62.2176C186.907 63.3638 186.655 64.4929 186.196 65.5398C185.737 66.5868 185.078 67.531 184.259 68.3182L180.157 72.2711C179.557 72.8537 178.823 73.2748 178.023 73.4964C177.222 73.718 176.38 73.7331 175.572 73.5404C172.235 72.7345 166.581 70.3168 162.051 63.0114L144.155 71.5861Z" fill="#FFE75C"/>
<path d="M160.036 62.0039L149.896 65.2274C146.98 66.1526 144.502 68.1415 142.939 70.8122C140.532 74.9263 137.281 81.3975 136.604 87.2926C136.604 87.2926 135.551 91.447 140.37 95.1258C141.661 96.1307 142.64 97.4934 143.189 99.0505L150.533 119.399C150.533 119.399 171.977 119.399 182.767 103.136L172.516 72.5207C169.097 70.2581 166.236 67.2249 164.154 63.6559C163.751 62.9484 163.125 62.4003 162.377 62.1004C161.63 61.8005 160.805 61.7665 160.036 62.0039V62.0039Z" fill="#FFC619"/>
<path d="M78.7752 41.1215C81.6473 40.2161 82.7404 35.4239 81.2167 30.4177C79.6931 25.4116 76.1296 22.0872 73.2575 22.9925C70.3854 23.8979 69.2923 28.6901 70.816 33.6963C72.3396 38.7025 75.9031 42.0268 78.7752 41.1215Z" fill="white"/>
<path d="M76.5598 29.2813C74.0496 30.0872 72.9964 33.9031 74.1842 37.8399C74.4638 38.7641 74.8633 39.6462 75.372 40.463C76.5083 41.1964 77.6962 41.4583 78.785 41.1158C81.4457 40.2777 82.5741 36.0991 81.513 31.5096C80.0797 29.6923 78.2148 28.7575 76.5598 29.2813Z" fill="black"/>
<path d="M176.428 60.0295C175.885 60.0279 175.354 59.8624 174.904 59.5541L166.411 53.248C165.88 52.8521 165.262 52.5933 164.611 52.4936C163.96 52.394 163.295 52.4565 162.673 52.6758L160.298 53.5099L155.922 54.7832C155.859 54.8064 155.791 54.816 155.723 54.8114C155.656 54.8068 155.59 54.7881 155.529 54.7565C155.469 54.7249 155.416 54.681 155.373 54.6276C155.33 54.5743 155.298 54.5125 155.28 54.4461C155.261 54.3798 155.257 54.3103 155.266 54.2419C155.275 54.1736 155.297 54.1078 155.332 54.0488C155.367 53.9897 155.414 53.9386 155.469 53.8986C155.524 53.8586 155.587 53.8305 155.653 53.8162L160.008 52.5509L162.36 51.7209C163.134 51.4499 163.96 51.3732 164.769 51.4974C165.577 51.6215 166.344 51.9429 167.005 52.4341L175.482 58.7482C175.781 58.9498 176.135 59.0519 176.494 59.0404C176.852 59.0288 177.199 58.9042 177.485 58.6837L181.27 55.7664C181.422 55.6505 181.548 55.5051 181.644 55.3386C181.739 55.1721 181.801 54.9879 181.825 54.7969C181.849 54.6058 181.836 54.4117 181.785 54.226C181.735 54.0403 181.649 53.8667 181.532 53.7154L178.657 49.9761C178.475 49.7365 178.248 49.5361 177.989 49.3867C177.73 49.2373 177.444 49.1418 177.149 49.1057L174.108 48.731C173.941 48.7122 173.773 48.7296 173.613 48.7819C173.454 48.8341 173.307 48.9202 173.182 49.0344C173.058 49.1486 172.958 49.2883 172.89 49.4443C172.823 49.6004 172.788 49.7693 172.789 49.9398L172.837 51.4549C172.846 51.7499 172.945 52.0347 173.121 52.27C173.296 52.5053 173.538 52.6794 173.815 52.7685L175.604 53.3487C175.697 53.3795 175.795 53.3885 175.891 53.3752C175.988 53.362 176.08 53.3267 176.161 53.2721C176.242 53.2174 176.31 53.1448 176.36 53.0597C176.409 52.9746 176.439 52.8792 176.448 52.7806L176.519 51.9546C176.524 51.8879 176.542 51.8229 176.571 51.7634C176.601 51.7038 176.642 51.6508 176.692 51.6075C176.742 51.5642 176.8 51.5315 176.862 51.5112C176.925 51.4909 176.991 51.4835 177.056 51.4894C177.122 51.4953 177.185 51.5143 177.243 51.5454C177.301 51.5766 177.353 51.6191 177.395 51.6707C177.436 51.7222 177.468 51.7817 177.487 51.8457C177.505 51.9096 177.512 51.9768 177.505 52.0432L177.434 52.8692C177.412 53.1183 177.336 53.3592 177.21 53.5741C177.085 53.789 176.913 53.9725 176.709 54.111C176.504 54.2495 176.272 54.3395 176.029 54.3742C175.785 54.409 175.538 54.3876 175.304 54.3118L173.514 53.7275C173.043 53.575 172.631 53.2783 172.332 52.878C172.034 52.4777 171.865 51.9933 171.847 51.4912L171.8 49.9721C171.789 49.6541 171.847 49.3377 171.968 49.0445C172.089 48.7512 172.271 48.4882 172.502 48.2734C172.733 48.0587 173.006 47.8972 173.304 47.8003C173.602 47.7033 173.916 47.673 174.227 47.7116L177.267 48.0863C177.692 48.1383 178.103 48.2755 178.475 48.4899C178.848 48.7043 179.174 48.9917 179.437 49.3354L182.312 53.0747C182.509 53.3313 182.655 53.6253 182.74 53.9398C182.825 54.2542 182.847 54.5827 182.806 54.9061C182.765 55.2295 182.661 55.5413 182.5 55.8232C182.339 56.1051 182.124 56.3516 181.868 56.5481L178.059 59.4654C177.59 59.8281 177.017 60.0261 176.428 60.0295V60.0295Z" fill="#FFC619"/>
<path d="M160.194 53.5175C159.56 46.4579 155.324 45.3579 155.324 45.3579C155.324 45.3579 144.42 42.6944 148.565 36.4609C152.711 30.2273 150.189 23.4297 150.189 23.4297C157.399 29.5746 162.174 20.7702 162.174 20.7702C165.151 30.4933 172.991 24.5297 172.991 24.5297C169.791 30.5054 178.162 37.4441 183.412 30.3885C188.979 22.9099 178.934 19.4849 178.934 19.4849C178.934 19.4849 182.446 9.85048 174.578 6.39322C166.576 2.87955 162.447 11.0512 162.447 11.0512C150.929 -1.96383 143.699 14.5367 143.699 14.5367C129.014 10.3703 121.923 19.0013 120.307 26.7298C119.792 28.1159 119.753 29.5182 117.057 30.0581C109.534 31.5732 107.649 36.6744 119.005 38.2016C113.75 49.6089 126.642 44.2135 126.923 44.0725C129.521 42.8193 137.194 40.994 136.964 45.8978C136.735 50.6767 138.01 52.5786 140.714 53.5175C142.63 54.1864 142.864 56.2535 142.741 57.8088C142.732 58.0033 142.77 58.197 142.85 58.3736C142.931 58.5502 143.052 58.7044 143.203 58.8231C143.355 58.9417 143.532 59.0214 143.721 59.0553C143.909 59.0892 144.103 59.0763 144.285 59.0177L160.194 53.5175Z" fill="url(#paint3_linear_15216_103204)"/>
<path d="M139.733 7.79201C139.733 7.79201 141.681 1.61086 138.675 2.82372C135.67 4.03658 131.469 4.89485 130.986 8.40449C130.503 11.9141 129.755 14.7549 131.996 14.0457C134.237 13.3365 138.284 13.7596 138.284 13.7596L139.733 7.79201Z" fill="#91FFAD"/>
<path d="M119.856 38.2138C119.856 38.2138 124.568 38.6167 128.333 37.4361C128.394 37.419 128.458 37.4232 128.516 37.4482C128.573 37.4732 128.621 37.5173 128.651 37.5735C128.681 37.6297 128.691 37.6945 128.68 37.7574C128.669 37.8202 128.638 37.8775 128.59 37.9196C125.569 40.563 117.686 46.8005 119.856 38.2138Z" fill="black"/>
<path d="M143.348 11.7174C143.348 11.7174 142.16 17.9751 146.595 18.6521C146.734 18.6732 146.877 18.6648 147.013 18.6274C147.149 18.5899 147.277 18.5243 147.387 18.4345L152.079 14.538C152.837 13.9067 153.464 13.1273 153.923 12.2457C154.381 11.364 154.661 10.398 154.747 9.40451C154.965 6.89417 154.894 3.88822 153.255 3.99701C150.736 4.16222 146.128 4.58128 143.974 9.83163C143.721 10.4443 143.512 11.0745 143.348 11.7174V11.7174Z" fill="#91FFAD"/>
<path d="M139.74 11.6885C139.691 11.6883 139.643 11.6802 139.597 11.6643C136.247 10.6449 135.562 6.82898 135.535 6.67183C135.512 6.53985 135.542 6.40415 135.618 6.29458C135.693 6.18501 135.809 6.11054 135.939 6.08756C136.068 6.06459 136.202 6.09498 136.309 6.17206C136.417 6.24914 136.49 6.36659 136.513 6.49857C136.513 6.53483 137.126 9.85912 139.878 10.7013C139.993 10.7352 140.091 10.81 140.156 10.9119C140.22 11.0138 140.246 11.136 140.23 11.256C140.213 11.3761 140.154 11.4859 140.064 11.5653C139.974 11.6447 139.859 11.6885 139.74 11.6885V11.6885Z" fill="#29CC7A"/>
<path d="M133.921 12.2535C133.809 12.2522 133.701 12.2123 133.614 12.1403C133.528 12.0684 133.467 11.9686 133.444 11.8573C133.42 11.746 133.434 11.6298 133.483 11.5275C133.532 11.4253 133.614 11.3431 133.716 11.2944C133.866 11.2219 137.414 9.6182 139.722 11.3468C139.781 11.3829 139.832 11.4312 139.872 11.4887C139.912 11.5461 139.94 11.6114 139.953 11.6803C139.967 11.7493 139.966 11.8203 139.951 11.8889C139.936 11.9575 139.907 12.0221 139.866 12.0786C139.825 12.1351 139.772 12.1823 139.712 12.217C139.652 12.2517 139.586 12.2732 139.517 12.2802C139.448 12.2872 139.379 12.2795 139.313 12.2575C139.248 12.2355 139.187 12.1998 139.136 12.1527C137.287 10.7706 134.159 12.189 134.127 12.2051C134.063 12.2365 133.993 12.253 133.921 12.2535V12.2535Z" fill="#29CC7A"/>
<path d="M145.901 15.6228C145.799 15.6218 145.699 15.5895 145.616 15.5302L142.599 13.3583C142.338 13.1713 142.131 12.9172 141.999 12.622C141.867 12.3268 141.814 12.0012 141.847 11.6785C141.879 11.3558 141.995 11.0476 142.183 10.7856C142.37 10.5235 142.623 10.317 142.915 10.1871L148.344 7.76946C148.464 7.71684 148.6 7.71486 148.722 7.76395C148.843 7.81304 148.941 7.90919 148.993 8.03137C149.019 8.0919 149.033 8.15711 149.034 8.22322C149.036 8.28933 149.024 8.35502 149 8.41649C148.976 8.47796 148.94 8.53398 148.895 8.58131C148.85 8.62863 148.795 8.66632 148.736 8.6922L143.311 11.1099C143.176 11.1639 143.057 11.2549 142.969 11.3729C142.881 11.4909 142.827 11.6314 142.812 11.7788C142.797 11.9262 142.823 12.0749 142.886 12.2086C142.949 12.3422 143.047 12.4556 143.169 12.5363L146.186 14.7001C146.293 14.7771 146.365 14.8942 146.388 15.0257C146.41 15.1571 146.38 15.2922 146.305 15.4012C146.259 15.4681 146.199 15.5231 146.129 15.5616C146.059 15.6002 145.981 15.6211 145.901 15.6228Z" fill="#29CC7A"/>
<path d="M61.2866 81.4541V91.0039L74.4595 109.052H132.096L131.906 99.5946L61.2866 81.4541Z" fill="#3442D9"/>
<path d="M61.2866 81.4541H120.942L137.457 101.452L76.162 101.69L61.2866 81.4541Z" fill="#5865F2"/>
<path d="M139.008 100.317C138.775 100.16 132.507 86.3829 118.736 92.286C104.965 98.1891 114.638 101.026 122.3 101.658C129.961 102.291 134.138 106.695 134.138 106.695L139.008 100.317Z" fill="#FF78B9"/>
<path d="M129.791 114.363C129.791 114.363 138.002 118.288 141.19 121.149C143.819 123.51 161.117 138.745 169.412 125.928C170.776 123.767 171.592 121.296 171.788 118.735C172.12 114.952 171.344 109.593 170.263 100.039C168.889 87.8658 168.68 66.0625 155.301 68.5608C142.936 70.8656 144.844 90.4245 153.476 106.969C153.476 106.969 140.912 99.942 140.485 99.8937C140.057 99.8453 130.369 97.5244 129.791 114.363Z" fill="#FFE75C"/>
<path d="M157.094 115.459C157.004 115.459 156.915 115.435 156.838 115.388C156.761 115.341 156.697 115.274 156.654 115.193L148.165 98.8176C148.104 98.6996 148.091 98.5615 148.13 98.4338C148.168 98.3061 148.255 98.1992 148.371 98.1367C148.487 98.0742 148.623 98.0611 148.749 98.1004C148.874 98.1397 148.979 98.2281 149.04 98.3462L157.533 114.722C157.593 114.841 157.605 114.979 157.566 115.106C157.527 115.234 157.439 115.34 157.323 115.403C157.253 115.441 157.174 115.461 157.094 115.459V115.459Z" fill="#FFC619"/>
<path d="M118.919 99.0912C118.757 99.1436 114.766 97.9106 113.016 103.894C111.828 108.016 120.899 100.699 125.805 102.178C130.71 103.657 118.919 99.0912 118.919 99.0912Z" fill="#FF78B9"/>
<path d="M85.2499 87.1798L74.231 86.4706L80.364 76.6025L85.2499 87.1798Z" fill="#57F287"/>
<path d="M80.3647 76.6025L88.2518 82.9207L85.2506 87.1798L80.3647 76.6025Z" fill="#91FFAD"/>
<path d="M98.4707 78.4365L107.759 76.9779L102.379 66.0098L98.4707 78.4365Z" fill="#8CD9FF"/>
<path d="M102.378 66.0098L94.3364 72.195L98.47 78.4365L102.378 66.0098Z" fill="#66BCFF"/>
<path d="M110.057 56.2023C109.099 55.5052 104.391 52.8699 98.8998 54.3649C96.7414 54.9839 94.8685 56.3616 93.614 58.2533C92.2559 60.268 89.8091 63.5963 88.1065 64.4667C83.9135 66.6103 91.4443 69.8137 95.2334 64.6963L95.368 64.656C95.2096 67.0294 95.5739 70.2006 98.5355 71.2764C100.939 72.1468 100.012 65.2323 103.136 62.2666L103.243 62.2344C103.243 62.2344 100.123 72.7109 105.753 68.5324C115.593 61.227 111.118 56.9719 110.057 56.2023Z" fill="#FF78B9"/>
<path d="M91.1548 94.6871L81.6088 97.133C81.5599 97.1453 81.5091 97.1473 81.4594 97.139C81.4097 97.1307 81.3622 97.1122 81.3197 97.0847L76.6516 93.9457C76.5934 93.9073 76.5474 93.8527 76.5189 93.7883C76.4905 93.7239 76.481 93.6526 76.4914 93.5828C76.5019 93.513 76.5319 93.4478 76.5779 93.395C76.6238 93.3421 76.6838 93.3039 76.7506 93.2849L85.7463 90.6376C85.7955 90.6237 85.847 90.6204 85.8974 90.6281C85.9479 90.6357 85.9962 90.654 86.0393 90.6819L91.2578 94.0223C91.3171 94.0606 91.3642 94.1157 91.3932 94.1809C91.4222 94.2461 91.4318 94.3185 91.4209 94.3891C91.4099 94.4598 91.3789 94.5257 91.3316 94.5786C91.2843 94.6316 91.2229 94.6693 91.1548 94.6871V94.6871Z" fill="#FFE75C"/>
<path d="M81.224 92.7372L74.3268 92.4148C74.2759 92.4128 74.226 92.3999 74.1803 92.377C74.1346 92.3541 74.0941 92.3217 74.0615 92.2819L71.6502 89.3323C71.5969 89.2785 71.5613 89.2091 71.5486 89.1337C71.5359 89.0584 71.5467 88.9809 71.5794 88.912C71.6122 88.8432 71.6652 88.7865 71.7311 88.7499C71.7971 88.7133 71.8726 88.6985 71.9472 88.7078L78.8484 89.0301C78.9484 89.0379 79.0418 89.0839 79.1097 89.159L81.521 92.1126C81.572 92.1673 81.6054 92.2364 81.6168 92.3109C81.6282 92.3854 81.6171 92.4616 81.5848 92.5295C81.5526 92.5973 81.5007 92.6535 81.4363 92.6906C81.3718 92.7278 81.2978 92.744 81.224 92.7372Z" fill="#FFC619"/>
<path d="M109.266 84.0864L116.301 84.0381C116.345 84.0381 116.389 84.0474 116.429 84.0655C116.469 84.0835 116.505 84.1098 116.535 84.1428L119.184 87.0521C119.225 87.098 119.252 87.155 119.263 87.2164C119.273 87.2777 119.265 87.3407 119.241 87.3978C119.217 87.4548 119.177 87.5035 119.126 87.538C119.075 87.5725 119.015 87.5913 118.954 87.592L111.922 87.6404C111.878 87.6405 111.834 87.6317 111.794 87.6144C111.753 87.5971 111.716 87.5717 111.685 87.5397L109.04 84.6264C108.997 84.5814 108.968 84.5246 108.957 84.463C108.946 84.4014 108.953 84.3378 108.977 84.2802C109.001 84.2225 109.041 84.1734 109.092 84.1389C109.144 84.1045 109.204 84.0862 109.266 84.0864V84.0864Z" fill="#91FFAD"/>
<path d="M105.947 86.1608L113.703 86.1085C113.751 86.1076 113.799 86.1172 113.844 86.1367C113.888 86.1561 113.928 86.185 113.96 86.2213L116.878 89.4448C116.924 89.495 116.955 89.5577 116.967 89.6253C116.978 89.6928 116.971 89.7624 116.944 89.8255C116.918 89.8886 116.874 89.9426 116.818 89.9809C116.762 90.0192 116.696 90.0401 116.629 90.0412L108.873 90.0936C108.824 90.0937 108.775 90.0838 108.731 90.0644C108.686 90.0451 108.645 90.0166 108.611 89.9807L105.693 86.7572C105.645 86.7075 105.613 86.6442 105.6 86.5757C105.588 86.5071 105.595 86.4362 105.623 86.3722C105.65 86.3081 105.695 86.2538 105.753 86.2161C105.811 86.1785 105.878 86.1592 105.947 86.1608V86.1608Z" fill="#8CD9FF"/>
<path d="M65.7227 103.132L66.76 102.704C67.0433 102.589 67.2857 102.389 67.4553 102.131C67.6249 101.873 67.7137 101.568 67.7103 101.258C67.6786 98.8402 68.1418 93.1426 73.4434 95.1613C75.2291 95.8423 76.8485 96.7731 78.361 96.5998C79.1957 96.501 80.003 96.2353 80.7366 95.8181C83.8408 94.0895 88.4811 96.2815 86.9132 101.121C87.6304 104.404 87.6655 107.804 87.0162 111.102C86.7903 112.131 86.3141 113.085 85.6312 113.878C84.9484 114.671 84.0809 115.276 83.1083 115.639L79.0737 117.158C78.1875 117.497 77.2312 117.601 76.2947 117.46C75.3582 117.319 74.4724 116.938 73.7206 116.352L72.9287 115.724C71.9198 114.931 70.7208 114.429 69.4563 114.269V114.269" fill="#66BCFF"/>
<path d="M105.43 98.7805C105.353 98.7793 105.278 98.7605 105.209 98.7256C105.141 98.6908 105.081 98.6406 105.034 98.579L94.577 84.343C94.538 84.2901 94.5096 84.2299 94.4935 84.1658C94.4774 84.1017 94.4738 84.035 94.483 83.9696C94.4922 83.9041 94.514 83.8411 94.5471 83.7842C94.5802 83.7273 94.624 83.6775 94.676 83.6378C94.728 83.5982 94.7872 83.5693 94.8501 83.5529C94.9131 83.5365 94.9786 83.5328 95.0429 83.5422C95.1073 83.5515 95.1692 83.5737 95.2251 83.6074C95.281 83.6411 95.3299 83.6857 95.3689 83.7386L105.826 97.9746C105.864 98.0277 105.892 98.0882 105.908 98.1524C105.924 98.2166 105.927 98.2834 105.918 98.3489C105.908 98.4144 105.886 98.4773 105.853 98.5341C105.819 98.5908 105.775 98.6403 105.723 98.6797C105.639 98.7456 105.536 98.7811 105.43 98.7805Z" fill="#3442D9"/>
<path d="M94.8125 100.095L101.876 98.8175L97.3544 91.8506L94.8125 100.095Z" fill="#57F287"/>
<path d="M97.3559 91.8506L92.5215 96.839L94.814 100.095L97.3559 91.8506Z" fill="#91FFAD"/>
<path d="M87.3892 108.58C87.4367 107.991 87.4604 107.399 87.4723 106.803C86.6606 108.012 85.2947 109.583 82.9863 111.408C82.9344 111.449 82.8907 111.5 82.858 111.558C82.8253 111.616 82.8041 111.68 82.7957 111.746C82.7872 111.812 82.7917 111.879 82.8087 111.944C82.8258 112.008 82.8552 112.069 82.8953 112.122C82.9353 112.174 82.9852 112.219 83.0421 112.252C83.099 112.285 83.1617 112.307 83.2268 112.316C83.2919 112.324 83.358 112.32 83.4214 112.302C83.4847 112.285 83.5441 112.255 83.5961 112.214C84.9829 111.142 86.2544 109.924 87.3892 108.58V108.58Z" fill="#3F99F2"/>
<path d="M81.2335 107.973C81.3374 107.973 81.4385 107.939 81.5225 107.877C83.6444 106.34 85.5425 104.506 87.1606 102.429C87.0854 101.985 87.0062 101.546 86.9072 101.123C86.9072 101.091 86.927 101.059 86.9389 101.022C85.2896 103.366 83.2629 105.41 80.9444 107.067C80.8915 107.105 80.8467 107.154 80.8124 107.211C80.7782 107.267 80.7553 107.33 80.745 107.396C80.7347 107.461 80.7372 107.528 80.7524 107.593C80.7676 107.657 80.7952 107.718 80.8336 107.772C80.8796 107.835 80.94 107.887 81.0095 107.922C81.0791 107.957 81.1559 107.975 81.2335 107.973Z" fill="#3F99F2"/>
<path d="M78.3622 96.5999C78.1566 96.616 77.9501 96.616 77.7445 96.5999L77.5822 97.4541C77.542 97.6623 77.4573 97.8591 77.3343 98.0304C77.2113 98.2017 77.0528 98.3435 76.8701 98.4457C76.6873 98.5479 76.4848 98.608 76.2767 98.6219C76.0686 98.6358 75.8601 98.603 75.6658 98.5259L72.7002 97.3453C72.6397 97.3212 72.575 97.3095 72.51 97.3109C72.445 97.3122 72.3809 97.3266 72.3213 97.3532C72.2618 97.3797 72.2079 97.418 72.1629 97.4657C72.1178 97.5135 72.0825 97.5698 72.0588 97.6314C72.0352 97.6931 72.0237 97.7588 72.025 97.825C72.0263 97.8912 72.0404 97.9564 72.0665 98.017C72.0927 98.0777 72.1302 98.1324 72.1771 98.1783C72.2241 98.2241 72.2794 98.2601 72.3399 98.2842L75.3055 99.4608C75.5849 99.5755 75.8833 99.6343 76.1845 99.634C76.7452 99.6337 77.2884 99.4356 77.7216 99.0734C78.1548 98.7111 78.4511 98.2072 78.5601 97.6475L78.7779 96.5273C78.6314 96.5596 78.4928 96.5838 78.3622 96.5999Z" fill="#3F99F2"/>
<path d="M138.484 28.3808C140.371 28.3627 141.892 27.4496 141.882 26.3414C141.872 25.2332 140.334 24.3495 138.447 24.3676C136.56 24.3857 135.038 25.2988 135.048 26.407C135.059 27.5152 136.597 28.3989 138.484 28.3808Z" fill="#EB459F"/>
<path d="M128.218 23.6192C128.432 21.906 127.798 20.4129 126.802 20.2841C125.807 20.1554 124.826 21.4398 124.612 23.153C124.398 24.8661 125.032 26.3592 126.028 26.488C127.024 26.6167 128.004 25.3323 128.218 23.6192Z" fill="#EB459F"/>
<path d="M138.775 25.6954C138.994 25.7753 139.194 25.9035 139.359 26.0708C139.523 26.238 139.65 26.4403 139.73 26.6631C139.809 26.8858 139.839 27.1237 139.818 27.3597C139.797 27.5957 139.724 27.824 139.607 28.0284C138.957 29.1647 137.868 30.5871 136.293 31.1673C134.717 31.7476 132.987 31.3728 131.771 30.9256C131.552 30.8456 131.353 30.7174 131.188 30.5502C131.023 30.3829 130.896 30.1807 130.817 29.9579C130.737 29.7351 130.707 29.4972 130.728 29.2612C130.75 29.0252 130.822 28.7969 130.94 28.5925C131.589 27.4603 132.674 26.0379 134.254 25.4536C135.833 24.8693 137.56 25.2521 138.775 25.6954Z" fill="white"/>
<path d="M135.813 31.3082C135.878 31.0914 135.911 30.866 135.912 30.6393C135.912 29.1847 134.605 28.004 132.994 28.004C132.588 28.0002 132.187 28.0775 131.811 28.2317C131.435 28.3859 131.093 28.6138 130.804 28.9026C130.677 29.3004 130.706 29.7329 130.887 30.1089C131.067 30.4849 131.384 30.7748 131.77 30.9173C133.053 31.4397 134.456 31.5754 135.813 31.3082V31.3082Z" fill="black"/>
<path d="M126.302 22.2611C126.471 22.1953 126.651 22.1679 126.831 22.1808C127.01 22.1938 127.185 22.2467 127.343 22.3358C127.5 22.425 127.636 22.5482 127.742 22.6968C127.847 22.8454 127.92 23.0158 127.953 23.1959C128.136 24.1992 128.207 25.6136 127.557 26.7499C126.908 27.8862 125.72 28.5752 124.786 28.9419C124.618 29.0076 124.437 29.035 124.258 29.0221C124.078 29.0092 123.903 28.9563 123.746 28.8671C123.588 28.778 123.452 28.6548 123.346 28.5061C123.241 28.3575 123.169 28.1872 123.135 28.007C122.949 27.0037 122.877 25.5894 123.511 24.4531C124.144 23.3168 125.368 22.6237 126.302 22.2611Z" fill="white"/>
<path d="M127.446 26.9472C127.335 26.6879 127.178 26.4515 126.982 26.2501C125.961 25.2065 124.211 25.3153 123.023 26.4919C123.015 26.9944 123.056 27.4966 123.146 27.9908C123.18 28.1709 123.252 28.3413 123.357 28.4899C123.463 28.6385 123.599 28.7617 123.757 28.8509C123.914 28.94 124.089 28.9929 124.269 29.0059C124.448 29.0188 124.629 28.9914 124.797 28.9256C125.859 28.5588 126.783 27.868 127.446 26.9472V26.9472Z" fill="black"/>
<path d="M44.7897 58.8887C44.7897 58.8887 14.932 78.504 21.2433 98.0145C23.2229 104.167 29.653 103.797 31.5693 114.217C42.7862 117.779 39.4564 112.464 44.2393 114.886L44.7897 58.8887Z" fill="black"/>
<path d="M44.3286 23.0273C45.1739 24.2058 46.3434 25.1027 47.6895 25.6048C49.0356 26.1068 50.4977 26.1915 51.891 25.8479C49.1764 25.5735 46.5746 24.603 44.3286 23.0273V23.0273Z" fill="#5865F2"/>
<path d="M47.4551 20.1545C50.2504 22.8059 53.2991 23.8979 56.5616 23.4345L56.6012 23.4022C56.6465 23.3647 56.6791 23.3137 56.6946 23.2564C56.71 23.1991 56.7076 23.1383 56.6876 23.0825C56.6675 23.0266 56.6309 22.9786 56.5828 22.9449C56.5347 22.9112 56.4775 22.8936 56.4191 22.8945C54.8353 22.8945 51.3669 22.3828 49.0626 17.8698C47.6293 15.0492 45.5189 14.8558 44.1807 16.0203C45.0924 17.5363 46.193 18.9259 47.4551 20.1545V20.1545Z" fill="#5865F2"/>
<path d="M54.3198 24.9299C54.5455 24.809 54.7752 24.68 55.0048 24.5269C49.2043 24.4423 45.2964 19.6312 43.5028 16.8105C43.172 17.4135 42.9727 18.082 42.9188 18.7704C42.8648 19.4588 42.9573 20.151 43.19 20.7997C44.6676 22.2283 46.4182 23.3321 48.3329 24.0427C50.2476 24.7532 52.2855 25.0552 54.3198 24.9299V24.9299Z" fill="#5865F2"/>
<path d="M55.0061 24.5398C55.5417 24.2035 56.0561 23.8334 56.5463 23.4317C53.2996 23.8951 50.2509 22.8031 47.4397 20.1518C46.1721 18.9242 45.0661 17.5345 44.1495 16.0176C43.89 16.2503 43.667 16.5221 43.4883 16.8235C45.2977 19.6441 49.2056 24.4552 55.0061 24.5398Z" fill="#3442D9"/>
<path d="M54.3202 24.9306C52.2868 25.0575 50.2494 24.7575 48.3347 24.049C46.42 23.3406 44.669 22.2389 43.1904 20.8125C43.3925 21.4437 43.6776 22.0441 44.0377 22.5975C44.1288 22.7386 44.2278 22.8756 44.3268 23.0005C46.57 24.5862 49.1721 25.5664 51.8892 25.8493C52.7353 25.652 53.5526 25.3431 54.3202 24.9306Z" fill="#3442D9"/>
<path d="M71.3346 41.1036C69.8775 39.3508 68.1314 36.3972 67.3752 31.7996C66.0013 23.5755 57.8133 26.1584 59.1436 33.5484C60.1374 39.0889 64.3938 41.6355 67.003 42.6952C68.4798 40.9988 70.0913 39.9512 71.3346 41.1036Z" fill="black"/>
<path d="M66.0087 37.5044C63.9617 36.1988 61.7128 35.7677 59.939 36.1666C61.5781 39.922 64.8526 41.8078 67.0065 42.6943C67.6184 41.9371 68.3721 41.3112 69.2237 40.8528C68.4464 39.4788 67.3405 38.327 66.0087 37.5044V37.5044Z" fill="#FF78B9"/>
<path d="M58.9094 26.4163C58.814 26.4184 58.72 26.3926 58.6385 26.3419C58.5571 26.2912 58.4917 26.2178 58.45 26.1305C58.4083 26.0431 58.3921 25.9453 58.4034 25.8489C58.4146 25.7524 58.4528 25.6613 58.5135 25.5863C59.4139 24.5831 60.6323 23.9341 61.9554 23.7529C63.2786 23.5717 64.6222 23.8698 65.7512 24.595C65.8076 24.6281 65.8571 24.6722 65.8967 24.7247C65.9364 24.7772 65.9656 24.8372 65.9825 24.9012C65.9994 24.9651 66.0038 25.0319 65.9953 25.0976C65.9869 25.1633 65.9658 25.2266 65.9333 25.2841C65.9008 25.3415 65.8575 25.3918 65.8059 25.4322C65.7543 25.4726 65.6954 25.5022 65.6325 25.5194C65.5696 25.5366 65.5041 25.5411 65.4395 25.5325C65.3749 25.5239 65.3127 25.5025 65.2563 25.4694C61.7364 23.3902 59.3845 26.1222 59.2776 26.2511C59.2312 26.3036 59.1744 26.3454 59.1109 26.3739C59.0474 26.4024 58.9788 26.4168 58.9094 26.4163V26.4163Z" fill="#3F99F2"/>
<path d="M46.738 55.9795C46.738 55.9795 14.9324 84.1533 27.3846 99.9286C38.0076 113.403 29.4039 115.643 38.1026 125.975C46.9083 136.451 69.453 114.253 69.453 114.253C69.453 114.253 72.1651 107.564 65.7232 103.132L52.978 108.556C52.978 108.556 62.5043 71.5936 58.4142 63.7926C54.922 57.1198 46.738 55.9795 46.738 55.9795Z" fill="#242145"/>
<path d="M43.4921 123.731C37.9727 116.268 42.0865 105.598 45.6301 97.9705C50.6625 87.0386 57.6151 70.1271 52.3611 58.3208C51.6178 56.6901 50.492 55.2703 49.0827 54.1866L48.7659 53.973C50.3101 49.1377 54.1071 45.4347 57.8725 42.2514C58.5377 41.7074 59.2266 41.1675 59.9235 40.6396C59.1593 39.7663 58.2491 39.0378 57.235 38.4879C56.942 38.3308 56.6451 38.1736 56.3442 38.0205C54.6987 39.8469 53.1862 41.7929 51.8186 43.843C49.6964 47.0142 48.0216 50.5964 47.6177 54.4485C50.8565 56.4632 52.0087 60.6136 52.3017 64.2803C52.9391 75.3331 47.7563 86.8815 43.0486 96.6528C38.816 105.288 34.5835 117.034 41.156 125.633C42.1215 126.832 43.2462 127.888 44.4977 128.771C46.0526 128.732 47.5934 128.461 49.0708 127.966C46.907 127.025 44.9946 125.573 43.4921 123.731V123.731Z" fill="#57F287"/>
<path d="M51.3078 115.704C51.3551 115.72 51.4045 115.728 51.4543 115.728C51.5599 115.729 51.663 115.695 51.7484 115.632C51.8339 115.569 51.8974 115.48 51.9294 115.377L54.1902 108.048L53.0024 108.556L50.9911 115.071C50.9707 115.134 50.9628 115.2 50.9677 115.266C50.9727 115.332 50.9904 115.396 51.0198 115.455C51.0493 115.514 51.0899 115.566 51.1393 115.609C51.1888 115.651 51.246 115.684 51.3078 115.704V115.704Z" fill="black"/>
<path d="M33.2491 69.9307C33.1531 69.9321 33.0588 69.9048 32.9779 69.8523C32.8969 69.7997 32.8329 69.7242 32.7937 69.635C32.7546 69.5458 32.7419 69.4469 32.7574 69.3505C32.7729 69.2541 32.8158 69.1644 32.8808 69.0926C37.2362 64.1202 40.9065 61.8396 41.0609 61.7469C41.173 61.6829 41.3052 61.6659 41.4295 61.6994C41.5537 61.7329 41.6603 61.8142 41.7267 61.9263C41.7931 62.0383 41.814 62.1722 41.785 62.2997C41.7561 62.4271 41.6796 62.5381 41.5717 62.6092C41.5321 62.6334 37.8499 64.914 33.6173 69.7614C33.5714 69.8148 33.5148 69.8576 33.4512 69.8868C33.3877 69.916 33.3188 69.9309 33.2491 69.9307V69.9307Z" fill="black"/>
<path d="M135.464 113.571C135.69 113.037 135.234 112.325 134.447 111.98C133.659 111.635 132.838 111.788 132.613 112.322C132.387 112.856 132.842 113.568 133.63 113.912C134.417 114.257 135.238 114.104 135.464 113.571Z" fill="#FFC619"/>
<path d="M147.011 103.366L145.854 102.729C139.013 105.651 137.563 113.77 137.31 118.412C137.635 118.61 137.955 118.815 138.268 119.012C138.427 114.56 139.698 105.889 147.011 103.366Z" fill="#FFC619"/>
<path d="M75.5986 65.8088C74.975 65.4035 74.4446 64.8662 74.0435 64.2334C73.6424 63.6006 73.3801 62.8873 73.2745 62.142L72.8785 59.5833C72.8702 59.5222 72.8423 59.4656 72.7993 59.4221C72.754 59.3789 72.6951 59.3532 72.633 59.3496C72.5721 59.3531 72.5145 59.3789 72.4707 59.4221C72.4249 59.464 72.3954 59.5212 72.3876 59.5833L71.9916 62.142C71.8827 62.8858 71.6195 63.5974 71.2194 64.2296C70.8194 64.8618 70.2917 65.4001 69.6714 65.8088L69.3349 66.0264C69.3024 66.0514 69.2755 66.0829 69.2557 66.1191C69.24 66.1574 69.2319 66.1984 69.2319 66.2399C69.2319 66.2814 69.24 66.3225 69.2557 66.3608C69.2755 66.397 69.3024 66.4285 69.3349 66.4535L69.6714 66.6711C70.2917 67.0797 70.8194 67.6181 71.2194 68.2503C71.6195 68.8825 71.8827 69.5941 71.9916 70.3379L72.3876 72.8966C72.3955 72.9564 72.4252 73.011 72.4707 73.0497C72.5163 73.0884 72.5737 73.1096 72.633 73.1096C72.6924 73.1096 72.7498 73.0884 72.7954 73.0497C72.8185 73.0311 72.8378 73.008 72.8521 72.9817C72.8664 72.9554 72.8754 72.9264 72.8785 72.8966L73.2745 70.3379C73.3801 69.5926 73.6424 68.8793 74.0435 68.2465C74.4446 67.6137 74.975 67.0764 75.5986 66.6711L75.9312 66.4535C75.9636 66.4285 75.9906 66.397 76.0104 66.3608C76.0286 66.3232 76.038 66.2819 76.038 66.2399C76.038 66.198 76.0286 66.1567 76.0104 66.1191C75.9906 66.0829 75.9636 66.0514 75.9312 66.0264L75.5986 65.8088Z" fill="#FF78B9"/>
<path d="M29.3215 29.8777C28.6302 29.4159 28.0442 28.8086 27.6032 28.0967C27.1553 27.3898 26.8636 26.5924 26.7479 25.7596L26.3124 22.9027C26.3042 22.8332 26.2719 22.7689 26.2213 22.7214C26.1974 22.697 26.169 22.6777 26.1378 22.6645C26.1065 22.6513 26.073 22.6445 26.0392 22.6445C26.0054 22.6445 25.9719 22.6513 25.9406 22.6645C25.9094 22.6777 25.881 22.697 25.8571 22.7214C25.8065 22.7689 25.7742 22.8332 25.766 22.9027L25.3344 25.7596C25.2134 26.5957 24.9179 27.3958 24.4679 28.1061C24.0178 28.8164 23.4236 29.4204 22.7252 29.8777L22.3293 30.1154C22.293 30.1434 22.2633 30.1791 22.2422 30.2202C22.2214 30.2612 22.2118 30.3071 22.2144 30.3531C22.2113 30.4005 22.2209 30.4479 22.2422 30.4901C22.2633 30.5312 22.293 30.5669 22.3293 30.5949L22.7252 30.8327C23.4184 31.2894 24.0082 31.891 24.4553 32.5976C24.9024 33.3041 25.1967 34.0994 25.3186 34.9306L25.7502 37.7875C25.7577 37.8549 25.7903 37.9169 25.8412 37.9607C25.893 38.0026 25.9572 38.0253 26.0234 38.0253C26.0895 38.0253 26.1537 38.0026 26.2055 37.9607C26.2565 37.9169 26.2891 37.8549 26.2966 37.7875L26.7321 34.9306C26.8498 34.0895 27.1471 33.2849 27.6032 32.5734C28.051 31.8671 28.6423 31.2666 29.3374 30.8125L29.7333 30.5748C29.7696 30.5468 29.7993 30.511 29.8204 30.47C29.8417 30.4277 29.8513 30.3804 29.8481 30.333C29.8507 30.2869 29.8412 30.241 29.8204 30.2C29.7993 30.159 29.7696 30.1232 29.7333 30.0953L29.3215 29.8777Z" fill="#91FFAD"/>
<path d="M163.567 38.6655C163.156 38.4003 162.806 38.0469 162.542 37.63C162.278 37.2128 162.105 36.7428 162.035 36.2519L161.782 34.5676C161.777 34.5255 161.757 34.4867 161.726 34.4588C161.698 34.4307 161.659 34.415 161.619 34.415C161.58 34.415 161.541 34.4307 161.512 34.4588C161.481 34.4867 161.462 34.5255 161.457 34.5676L161.204 36.2519C161.132 36.7418 160.958 37.2104 160.693 37.6259C160.432 38.0438 160.085 38.3986 159.675 38.6655L159.454 38.8066C159.431 38.8231 159.413 38.8453 159.402 38.871C159.39 38.8947 159.383 38.9209 159.382 38.9476C159.383 38.9756 159.39 39.0032 159.402 39.0282C159.413 39.0539 159.431 39.0761 159.454 39.0926L159.675 39.2337C160.085 39.5006 160.432 39.8554 160.693 40.2733C160.958 40.6888 161.132 41.1574 161.204 41.6473L161.457 43.3316C161.463 43.3719 161.483 43.4088 161.512 43.4364C161.543 43.4599 161.581 43.4726 161.619 43.4726C161.658 43.4726 161.695 43.4599 161.726 43.4364C161.757 43.4099 161.777 43.3725 161.782 43.3316L162.035 41.6473C162.105 41.1564 162.278 40.6864 162.542 40.2692C162.806 39.8523 163.156 39.4989 163.567 39.2337L163.785 39.0926C163.808 39.0761 163.825 39.0539 163.837 39.0282C163.849 39.0032 163.856 38.9756 163.856 38.9476C163.855 38.9209 163.849 38.8947 163.837 38.871C163.825 38.8453 163.808 38.8231 163.785 38.8066L163.567 38.6655Z" fill="#66BCFF"/>
<path d="M83.8261 56.2698C83.416 56.0008 83.0666 55.6465 82.8006 55.2302C82.5381 54.8127 82.3667 54.3428 82.2978 53.8521L82.0444 52.1678C82.0375 52.1278 82.018 52.091 81.989 52.0631C81.9749 52.0481 81.958 52.0361 81.9393 52.028C81.9206 52.0198 81.9005 52.0156 81.8801 52.0156C81.8597 52.0156 81.8396 52.0198 81.8209 52.028C81.8022 52.0361 81.7853 52.0481 81.7712 52.0631C81.7421 52.0904 81.7237 52.1277 81.7197 52.1678L81.4505 53.8521C81.3791 54.3425 81.2059 54.8117 80.9423 55.2286C80.6788 55.6455 80.331 56.0004 79.9222 56.2698L79.7044 56.4108C79.6803 56.4247 79.6609 56.4458 79.649 56.4713C79.643 56.4978 79.643 56.5253 79.649 56.5519C79.6431 56.577 79.6431 56.6033 79.649 56.6284C79.6607 56.6551 79.68 56.6776 79.7044 56.6929L79.9222 56.8339C80.3302 57.1041 80.6782 57.4582 80.9437 57.8735C81.2058 58.2901 81.3785 58.7583 81.4505 59.2476L81.7079 60.9319C81.7125 60.9727 81.7324 61.0102 81.7633 61.0366C81.7933 61.0622 81.8311 61.0764 81.8702 61.0769C81.9092 61.0758 81.9468 61.0616 81.9771 61.0366C82.0053 61.008 82.0246 60.9716 82.0325 60.9319L82.2859 59.2476C82.3528 58.7558 82.5242 58.2847 82.7881 57.8672C83.052 57.4497 83.4022 57.0957 83.8142 56.8299L84.036 56.6889C84.0581 56.6721 84.0758 56.6499 84.0874 56.6244C84.0953 56.5995 84.0953 56.5727 84.0874 56.5478C84.0954 56.5216 84.0954 56.4935 84.0874 56.4672C84.0759 56.4428 84.0581 56.422 84.036 56.4068L83.8261 56.2698Z" fill="#3442D9"/>
<path d="M17.526 26.0699C17.1154 25.8025 16.7663 25.4481 16.5026 25.0309C16.2388 24.6136 16.0666 24.1434 15.9977 23.6523L15.7443 21.968C15.7398 21.9259 15.72 21.8871 15.6889 21.8592C15.6601 21.8311 15.6218 21.8154 15.582 21.8154C15.5421 21.8154 15.5038 21.8311 15.4751 21.8592C15.4439 21.8871 15.4241 21.9259 15.4196 21.968L15.1662 23.6523C15.0949 24.1473 14.9208 24.6212 14.6555 25.0424C14.3921 25.4595 14.0438 25.814 13.6339 26.082L13.4162 26.2231C13.3938 26.2396 13.376 26.2618 13.3647 26.2875C13.3594 26.3128 13.3594 26.3389 13.3647 26.3641C13.3589 26.3906 13.3589 26.4181 13.3647 26.4447C13.376 26.4704 13.3938 26.4926 13.4162 26.5091L13.6339 26.6502C14.0455 26.9159 14.3943 27.2709 14.6555 27.6898C14.9204 28.1082 15.0946 28.5794 15.1662 29.0719L15.4196 30.7562C15.4243 30.797 15.4441 30.8345 15.4751 30.8609C15.5055 30.8853 15.5433 30.8981 15.582 30.8972C15.6206 30.8975 15.6582 30.8847 15.6889 30.8609C15.7184 30.8334 15.7379 30.7964 15.7443 30.7562L15.9977 29.0719C16.0666 28.5807 16.2388 28.1105 16.5026 27.6933C16.7663 27.276 17.1154 26.9216 17.526 26.6542L17.7477 26.5132C17.7701 26.4966 17.7879 26.4744 17.7992 26.4487C17.8071 26.4225 17.8071 26.3944 17.7992 26.3681C17.8066 26.3432 17.8066 26.3165 17.7992 26.2916C17.7879 26.2659 17.7701 26.2436 17.7477 26.2271L17.526 26.0699Z" fill="#FFE75C"/>
<path d="M148.593 20.03C148.197 20.6828 149.16 20.6022 150.205 23.447C154.164 26.8076 157.375 25.6713 159.478 23.9668C152.276 24.5309 149.401 18.6721 148.593 20.03Z" fill="#EB459F"/>
<path d="M167.346 26.3069C162.171 23.5588 165.54 16.3421 163.652 16.5718C162.967 16.6564 163.79 17.6799 162.179 20.7785C163.382 24.7153 165.39 26.0812 167.346 26.3069Z" fill="#EB459F"/>
<path d="M174.543 24.2652C174.674 23.7575 174.25 23.6043 173.938 23.7494C173.542 24.0677 173.253 24.3256 172.995 24.5553C172.468 25.5311 172.231 26.6423 172.314 27.753C172.397 28.8636 172.796 29.9256 173.463 30.809C172.449 26.159 174.258 25.341 174.543 24.2652Z" fill="#EB459F"/>
<path d="M145.281 52.1596C142.473 51.0999 140.371 49.7057 140.383 47.4129C140.403 44.5923 137.326 43.5084 135.394 43.1055C136.4 43.5608 137.045 44.4271 136.978 45.8979C136.748 50.6768 138.023 52.5787 140.727 53.5175C142.644 54.1864 142.877 56.2535 142.755 57.8089C142.746 58.0033 142.783 58.1971 142.864 58.3737C142.944 58.5502 143.065 58.7044 143.217 58.8231C143.368 58.9418 143.546 59.0215 143.734 59.0553C143.923 59.0892 144.116 59.0763 144.299 59.0177L149.842 57.0916C149.464 55.9899 148.863 54.9814 148.077 54.1317C147.291 53.282 146.338 52.6101 145.281 52.1596V52.1596Z" fill="#EB459F"/>
<path d="M144.179 9.36342C144.179 9.36342 141.803 6.7322 139.059 8.71065C137.179 10.0686 137.206 12.6273 138.268 13.7555C138.268 13.7555 141.629 14.0335 143.245 14.6017C143.26 14.6017 143.062 11.5433 144.179 9.36342Z" fill="#57F287"/>
<defs>
<linearGradient id="paint0_linear_15216_103204" x1="123.626" y1="112.945" x2="61.5165" y2="101.759" gradientUnits="userSpaceOnUse">
<stop stop-color="#5865F2"/>
<stop offset="1" stop-color="#3442D9"/>
</linearGradient>
<linearGradient id="paint1_linear_15216_103204" x1="106.232" y1="49.167" x2="146.501" y2="105.107" gradientUnits="userSpaceOnUse">
<stop offset="0.24" stop-color="#FFE75C"/>
<stop offset="1" stop-color="#FF8C19"/>
</linearGradient>
<linearGradient id="paint2_linear_15216_103204" x1="69.7345" y1="17.6592" x2="52.9473" y2="41.1398" gradientUnits="userSpaceOnUse">
<stop stop-color="#66BCFF"/>
<stop offset="1" stop-color="#3F99F2"/>
</linearGradient>
<linearGradient id="paint3_linear_15216_103204" x1="174.396" y1="56.052" x2="149.695" y2="29.4015" gradientUnits="userSpaceOnUse">
<stop stop-color="#EB459F"/>
<stop offset="0.46" stop-color="#F55FAC"/>
<stop offset="0.99" stop-color="#FF78B9"/>
</linearGradient>
</defs>
</svg>
