<svg width="373" height="368" viewBox="0 0 373 368" fill="none" xmlns="http://www.w3.org/2000/svg">
<g clip-path="url(#clip0_1814_59782)">
<path d="M372.316 67.3633V151.672L168.052 248.492L136.706 189.859C107.699 119.648 159.163 80.9013 209.597 93.5057C210.439 84.5426 218.861 65.5894 240.008 64.6558C239.82 26.1892 260.032 12.3711 285.015 16.1057C299.331 18.2531 308.875 27.9631 314.115 42.8082C336.853 40.9409 356.877 44.5822 372.316 67.3633Z" fill="#6B52FB"/>
<path d="M269.389 188.178C248.803 188.552 231.68 195.367 220.826 213.107C168.052 174.454 78.5054 205.077 98.8102 307.873C38.6445 306.192 10.2927 325.332 0 368H372.316V103.496C323.379 80.9948 262.652 113.019 269.389 188.178Z" fill="#CCBDFF"/>
<path d="M372.316 134.587C347.988 133.653 318.7 149.152 318.045 186.311V202.743H372.316V134.587Z" fill="#B8A3FF"/>
<path d="M269.388 188.178C253.107 188.458 232.148 193.407 220.077 212.36C196.591 191.259 150.554 188.178 120.144 216.655C152.8 194.994 187.327 214.227 198.462 242.05C203.702 237.662 208.381 233.741 212.779 230.473L213.059 230.286L214.089 229.632C227.282 220.483 259.376 207.972 294.933 226.645C299.986 198.822 302.232 186.498 320.946 169.598C286.98 161.476 277.155 174.08 269.388 188.178Z" fill="url(#paint0_linear_1814_59782)"/>
<path d="M107.325 335.509C103.582 326.599 100.73 317.342 98.8102 307.873C49.9665 305.445 24.7961 319.357 13.0999 338.31C28.4454 322.718 70.3648 321.504 107.325 335.509Z" fill="url(#paint1_linear_1814_59782)"/>
<path d="M140.636 240.463C122.484 240.463 115.091 252.787 114.624 265.391C127.817 252.6 140.636 240.463 140.636 240.463Z" fill="url(#paint2_linear_1814_59782)"/>
<path d="M84.2131 346.993L85.8974 346.246L84.2131 345.499L83.4645 343.818H83.371L82.716 345.499H82.6224L81.0317 346.246L82.6224 346.993H82.716L83.371 348.673H83.4645L84.2131 346.993Z" fill="white"/>
<path d="M285.015 101.722C286.418 95.4661 289.974 96.0263 291.191 96.6799C292.407 94.5325 297.834 93.5988 297.085 99.9477C298.115 99.1074 300.735 98.7339 300.173 104.989H285.015V101.722Z" fill="#53A0A3"/>
<path d="M273.88 104.149H270.511V98.2674C270.722 98.029 270.981 97.838 271.272 97.7072C271.562 97.5764 271.877 97.5088 272.196 97.5088C272.514 97.5088 272.829 97.5764 273.12 97.7072C273.41 97.838 273.669 98.029 273.88 98.2674V104.149Z" fill="#484294"/>
<path d="M294.84 88.7441H292.407V104.616H294.84V88.7441Z" fill="#484294"/>
<path d="M272.196 99.6675C278.655 99.6675 283.892 94.4424 283.892 87.9968C283.892 81.5513 278.655 76.3262 272.196 76.3262C265.736 76.3262 260.5 81.5513 260.5 87.9968C260.5 94.4424 265.736 99.6675 272.196 99.6675Z" fill="#59A1FF"/>
<path d="M283.892 87.4367C283.767 84.6089 282.616 81.923 280.653 79.8791C278.691 77.8352 276.051 76.5725 273.225 76.3262C267.143 80.8077 266.488 90.1443 267.517 98.6405C269.122 99.4014 270.89 99.7543 272.664 99.6675C274.208 99.6077 275.726 99.2429 277.128 98.5943C278.531 97.9457 279.79 97.0262 280.835 95.8888C281.879 94.7515 282.687 93.4189 283.211 91.9682C283.736 90.5174 283.968 88.9772 283.892 87.4367Z" fill="#4294FF"/>
<path d="M288.851 82.7686C288.813 82.5881 288.734 82.4186 288.621 82.273C288.507 82.1274 288.362 82.0095 288.196 81.9284C288.018 81.7601 287.786 81.6608 287.541 81.6483C287.147 81.5108 286.739 81.4169 286.325 81.3682H284.079L282.02 81.5549C282.274 81.9393 282.494 82.3454 282.675 82.7686H286.138L287.073 83.0487H287.354C287.354 82.9554 287.354 82.9554 287.448 83.0487H287.354L287.167 83.2355C286.963 83.5007 286.709 83.7228 286.418 83.889C285.868 84.274 285.27 84.5877 284.64 84.8227L283.611 85.3829L280.804 86.5033C278.09 87.4369 275.377 88.2772 272.663 88.9308C269.922 89.6961 267.142 90.3194 264.336 90.7981L260.967 91.1715H256.85C256.85 91.0782 256.85 91.0782 256.944 91.1715C256.944 91.0782 257.037 90.9848 257.131 90.8914L257.786 90.3312C258.343 89.904 258.938 89.5289 259.564 89.2109L260.499 88.744V88.5573C260.407 88.1579 260.407 87.7429 260.499 87.3436L258.909 87.9971L256.944 89.1175L256.008 89.8644C255.863 90.0701 255.738 90.2889 255.634 90.518C255.521 90.6612 255.446 90.8295 255.413 91.0084C255.38 91.1873 255.392 91.3715 255.446 91.545C255.484 91.7255 255.563 91.895 255.677 92.0406C255.79 92.1862 255.936 92.3041 256.102 92.3853C256.279 92.5535 256.512 92.6528 256.756 92.6654C257.137 92.8457 257.552 92.9413 257.973 92.9455H261.529L264.616 92.572C267.489 92.2011 270.334 91.6397 273.131 90.8914C275.95 90.1614 278.729 89.2889 281.459 88.2772L283.892 87.1568L285.482 86.4099L287.354 85.1961C287.705 85.0003 288.021 84.7479 288.29 84.4492L288.757 83.7957C288.89 83.4701 288.923 83.1127 288.851 82.7686Z" fill="#A3CAFF"/>
<path d="M293.623 91.8252C295.329 91.8252 296.711 90.4458 296.711 88.7441C296.711 87.0425 295.329 85.6631 293.623 85.6631C291.918 85.6631 290.536 87.0425 290.536 88.7441C290.536 90.4458 291.918 91.8252 293.623 91.8252Z" fill="#BB53C9"/>
<path d="M287.449 77.54H285.015V104.681H287.449V77.54Z" fill="#484294"/>
<path d="M286.231 79.0341C289.746 79.0341 292.594 76.1916 292.594 72.6853C292.594 69.1789 289.746 66.3364 286.231 66.3364C282.717 66.3364 279.869 69.1789 279.869 72.6853C279.869 76.1916 282.717 79.0341 286.231 79.0341Z" fill="#D9B95B"/>
<path d="M225.411 22.4548L226.908 21.8012L225.411 21.1477L224.756 19.6538H224.662L224.007 21.1477L222.51 21.8012L224.007 22.4548L224.662 23.9486H224.756L225.411 22.4548Z" fill="#FFFAE6"/>
<path d="M265.927 103.589C278.091 102.375 285.389 103.589 285.389 103.589C292.875 103.029 298.583 103.869 301.483 105.083C304.384 106.297 305.413 106.577 305.787 107.791C306.162 109.004 305.413 122.823 304.852 128.798C304.29 134.773 296.337 139.722 282.488 145.23C278.184 147.004 274.254 148.218 270.511 142.616C266.769 137.014 266.114 134.96 265.927 134.493C265.739 134.026 259.751 131.786 258.628 124.877C257.505 117.968 257.037 110.685 256.85 108.258C256.663 105.83 256.102 104.149 265.927 103.589Z" fill="#6E4A9B"/>
<path d="M232.616 130.291C233.084 129.264 236.078 121.235 236.171 118.434C236.265 115.633 236.452 106.95 236.171 105.363C235.891 103.776 234.113 103.309 229.621 103.122C225.13 102.935 210.252 103.122 210.252 103.122C210.252 103.122 196.872 102.188 183.959 102.655C177.035 102.935 171.982 103.309 169.643 103.495C167.304 103.682 166.274 104.709 166.742 113.205C167.21 121.702 168.707 132.252 168.988 136.08C169.269 139.908 169.549 143.362 176.661 146.91C178.626 161.195 178.345 159.701 192.006 165.864C195.468 166.891 203.515 168.664 207.352 168.664C211.188 168.664 212.779 167.077 215.773 165.49C218.767 163.903 220.171 157.181 220.639 156.06C221.107 154.94 223.165 154.286 225.879 152.045C228.592 149.805 229.809 148.778 230.183 145.323C230.557 141.869 231.867 132.065 232.616 130.291Z" fill="#6E4A9B"/>
<path d="M179.561 114.14L179.374 118.061L178.064 120.955C177.815 121.587 177.394 122.137 176.848 122.543C176.474 122.916 176.474 123.009 176.567 121.982C176.661 120.955 176.848 119.368 176.848 119.088C176.848 118.808 176.754 118.715 176.099 117.781C175.444 116.847 179.561 114.14 179.561 114.14Z" fill="#5D4282"/>
<path d="M173.105 118.621V119.834L173.76 121.328L174.041 119.834L174.228 118.061L173.105 118.621Z" fill="#AA7AC2"/>
<path d="M169.643 103.496C166.274 103.776 166.274 104.709 166.742 113.206C167.21 121.702 168.707 132.252 168.988 136.08C169.041 137.638 169.324 139.18 169.83 140.655C169.961 140.428 170.026 140.17 170.017 139.908C169.927 137.353 170.021 134.794 170.298 132.252C170.584 129.897 170.741 127.528 170.766 125.156C170.766 122.169 170.766 122.542 169.924 119.461C169.081 116.38 169.175 116.1 169.269 114.419C169.362 112.739 169.362 107.324 169.643 103.496Z" fill="#AA7AC2"/>
<path d="M183.585 111.899C183.585 113.86 183.678 119.275 183.865 121.049C184.053 122.823 184.427 127.771 184.427 128.611C184.427 129.452 184.707 129.358 185.737 130.665C186.766 131.972 186.485 131.786 186.579 132.906C186.672 134.026 187.14 139.068 187.14 140.375C187.14 141.682 187.608 141.589 187.608 139.162C187.608 136.734 187.982 129.732 187.982 128.518C187.982 127.304 187.983 127.211 186.953 124.41C185.924 121.609 186.018 122.262 187.047 120.302C188.076 118.341 187.982 110.218 187.982 110.218L183.585 111.899Z" fill="#AA7AC2"/>
<path d="M213.059 106.763C213.059 106.763 212.872 116.193 212.966 119.274C215.586 124.409 215.492 124.129 215.399 129.451C215.305 134.773 215.492 134.493 212.872 136.547C212.872 141.122 213.434 152.326 209.036 155.407L201.363 160.822C205.574 160.915 208.381 160.729 210.439 159.515C212.53 158.518 214.406 157.122 215.96 155.407C217.738 153.259 222.791 152.699 223.071 147.937C223.352 143.176 224.849 134.866 224.849 131.038C224.849 127.21 226.908 124.316 227.376 119.834C227.719 114.704 227.688 109.555 227.282 104.429C227.469 102.562 225.598 104.056 225.598 104.056L210.252 103.122L213.059 106.763Z" fill="#5D4282"/>
<path d="M217.925 94.7196C218.674 88.931 223.726 89.3044 225.598 92.5722C227.095 90.7049 229.247 91.3585 229.715 96.6803C230.183 102.002 230.183 103.496 230.183 103.496H217.925V94.7196Z" fill="#2F5C66"/>
<path d="M224.288 96.2133L227.563 94.9995V101.535H224.288V96.2133Z" fill="#7AA9E6"/>
<path d="M214.931 56.4395H208.755C207.913 77.6334 204.357 92.7586 196.778 102.562H226.908C219.328 92.7586 215.773 77.6334 214.931 56.4395Z" fill="#BBD0FF"/>
<path opacity="0.7" d="M211.843 56.4395L207.352 101.628H213.34V56.4395H211.843Z" fill="#7381FF"/>
<path d="M204.732 86.9697C204.358 79.9673 203.609 73.6185 197.995 73.6185C192.287 63.7217 183.585 68.39 183.023 84.6356L183.959 102.562H211.843C211.188 92.0114 210.159 87.3432 204.732 86.9697Z" fill="#44948F"/>
<path d="M173.386 82.395H189.48V102.002H172.263V83.5154C172.263 83.2183 172.381 82.9333 172.592 82.7232C172.802 82.5131 173.088 82.395 173.386 82.395Z" fill="#F0CA8C"/>
<path d="M186.954 84.916H185.924V99.593H186.954V84.916Z" fill="#FFDFAB"/>
<path d="M187.047 98.2676H174.789V99.528H187.047V98.2676Z" fill="#FFDFAB"/>
<path d="M187.047 84.916H174.789V94.4393C174.789 94.4393 178.625 93.2255 179.468 89.6776C183.21 90.9848 187.047 86.1298 187.047 86.1298V84.916Z" fill="#E5A16A"/>
<path d="M176.287 84.916H174.789V99.5744L176.287 98.2673V84.916Z" fill="#E5A16A"/>
<path d="M201.363 102.095H189.48V82.4885H200.24C200.388 82.4885 200.534 82.5174 200.67 82.5737C200.806 82.63 200.93 82.7126 201.034 82.8166C201.138 82.9206 201.221 83.0442 201.278 83.1801C201.334 83.316 201.363 83.4617 201.363 83.6088V102.095Z" fill="#E5A16A"/>
<path d="M228.779 101.255C224.381 101.068 209.971 101.255 209.971 101.255C201.5 100.7 193.005 100.575 184.52 100.882C179.947 101.021 175.385 101.426 170.859 102.095C167.023 102.562 167.21 103.309 167.023 104.616C172.824 105.176 180.965 105.176 183.959 105.176H190.883C188.665 106.688 186.598 108.408 184.708 110.311C182.275 112.926 183.772 111.992 189.012 111.338C193.105 110.773 197.231 110.461 201.363 110.405C204.094 110.404 206.819 110.154 209.504 109.658C210.206 109.589 210.881 109.348 211.468 108.957C212.056 108.567 212.538 108.038 212.872 107.417C213.012 107.176 213.085 106.902 213.085 106.624C213.085 106.345 213.012 106.071 212.872 105.83C212.872 105.83 218.018 105.176 220.919 105.083C223.82 104.99 230.557 105.55 231.68 105.55C232.803 105.55 231.68 103.963 231.68 103.963L235.048 103.683C234.861 102.189 233.177 101.442 228.779 101.255Z" fill="#4F999C"/>
<path opacity="0.7" d="M216.334 72.7784C215.679 67.83 215.211 62.3215 214.931 56.4395H208.755C208.661 59.8006 208.381 63.0684 208.1 66.1495L216.334 72.7784Z" fill="#7381FF"/>
<path d="M230.183 43.742C230.2 47.9804 228.743 52.0935 226.059 55.3789C223.375 58.6643 219.631 60.9182 215.467 61.7558C211.303 62.5934 206.977 61.9627 203.227 59.9715C199.477 57.9802 196.536 54.7519 194.907 50.8377C204.454 42.5346 216.774 38.104 229.434 38.4201C229.925 40.1519 230.177 41.9423 230.183 43.742Z" fill="#BBD0FF"/>
<path d="M194.907 50.8375C204.463 42.5503 216.776 38.1219 229.434 38.4199C229.11 37.3627 228.703 36.3325 228.218 35.3389C215.684 35.3452 203.544 39.7024 193.877 47.6631C194.121 48.7507 194.466 49.8134 194.907 50.8375Z" fill="#413A61"/>
<path d="M228.124 35.3389C215.648 35.3496 203.568 39.7088 193.971 47.6632C193.678 46.3761 193.521 45.0617 193.503 43.7418C193.508 39.6443 194.891 35.6669 197.43 32.4467C199.969 29.2265 203.518 26.9498 207.509 25.9814C211.499 25.0129 215.699 25.4087 219.437 27.1054C223.175 28.802 226.234 31.7013 228.124 35.3389Z" fill="#FC5199"/>
<path d="M200.147 32.3516C199.866 32.0715 198.743 33.0986 197.714 34.6858C196.685 36.273 195.936 37.9536 196.217 38.327C196.497 38.7005 197.62 37.5801 198.743 35.9929C199.866 34.4057 200.521 32.7251 200.147 32.3516Z" fill="#FCA7C9"/>
<path d="M228.124 35.3392C219.42 35.3501 210.848 37.4644 203.141 41.5013C203.053 39.4932 203.242 37.4826 203.702 35.5259C204.546 31.8244 206.353 28.4105 208.942 25.6292L211.843 25.4424C215.207 25.4339 218.509 26.3538 221.382 28.1003C224.255 29.8469 226.589 32.3521 228.124 35.3392Z" fill="#D64592"/>
<path opacity="0.5" d="M230.183 43.742C230.181 47.0618 229.275 50.3189 227.561 53.1642C225.847 56.0095 223.389 58.3359 220.451 59.8942C219.444 59.8619 218.442 59.7369 217.457 59.5207C210.252 57.8401 205.106 51.9581 203.515 44.769C211.453 40.4358 220.388 38.2473 229.434 38.4201C229.925 40.1519 230.177 41.9423 230.183 43.742Z" fill="#7C73FF"/>
<path d="M220.149 42.7242C222.346 41.6923 223.022 38.5108 221.658 35.6181C220.293 32.7254 217.406 31.2169 215.208 32.2488C213.011 33.2806 212.335 36.4622 213.699 39.3549C215.063 42.2476 217.951 43.7561 220.149 42.7242Z" fill="#413A61"/>
<path d="M218.953 40.1899C220.076 39.663 220.414 38.0255 219.71 36.5325C219.006 35.0395 217.526 34.2563 216.404 34.7832C215.281 35.3101 214.942 36.9476 215.646 38.4407C216.351 39.9337 217.831 40.7168 218.953 40.1899Z" fill="#7C73FF"/>
<path d="M195.187 116.567C195.216 116.956 195.331 117.335 195.526 117.674C195.72 118.014 195.988 118.305 196.31 118.527C199.398 120.861 202.486 123.289 204.357 124.97C206.229 126.65 208.755 129.358 208.849 128.611C208.942 127.864 209.878 124.223 210.346 121.048C210.814 117.874 210.346 118.527 207.352 117.127C204.357 115.726 197.995 113.766 196.123 113.112C194.252 112.459 195.094 113.579 195.187 116.567Z" fill="#5D4282"/>
<path d="M301.483 105.083C298.583 103.869 292.875 103.029 285.389 103.589C285.389 103.589 278.091 102.376 265.927 103.589C258.815 103.963 257.225 104.99 256.944 106.39C256.85 106.857 258.254 106.484 260.593 106.39C262.932 106.297 279.869 109.098 285.857 110.312C291.846 111.525 291.565 111.058 289.6 109.378C287.635 107.697 287.635 107.977 291.471 107.884C295.308 107.791 300.735 108.351 302.419 108.351C304.103 108.351 306.068 108.911 305.788 107.791C305.507 106.67 304.197 105.176 301.483 105.083Z" fill="#4F999C"/>
<path d="M192.942 43.1817L194.252 42.5282L192.942 41.8746L192.287 40.4741L191.632 41.8746L190.228 42.5282L191.632 43.1817L192.287 44.4888L192.942 43.1817Z" fill="#FCBDD6"/>
<path d="M271.26 70.0711L272.757 69.3242L271.26 68.6706L270.511 67.1768L269.856 68.6706H269.763L268.266 69.3242L269.763 70.0711H269.856L270.511 71.5649L271.26 70.0711Z" fill="#FCBDD6"/>
<path d="M172.263 83.2353V95.1861C174.883 94.9994 176.567 91.7316 176.941 89.3041C178.532 89.3041 179 88.0903 179.374 86.3164C180.208 86.3806 181.036 86.1419 181.707 85.6442C182.377 85.1466 182.845 84.4236 183.023 83.6088C183.304 84.9159 183.678 85.3827 184.333 85.2893C184.988 85.196 184.988 82.395 184.988 82.395H173.105C172.882 82.395 172.667 82.4835 172.509 82.6411C172.351 82.7987 172.263 83.0125 172.263 83.2353Z" fill="#4F999C"/>
<path d="M199.305 84.916H198.275V99.593H199.305V84.916Z" fill="#D9925B"/>
<path d="M193.223 84.916H192.193V99.593H193.223V84.916Z" fill="#D9925B"/>
<path d="M199.304 85.8499V84.8228H192.193V85.8499H199.304Z" fill="#D9925B"/>
<path d="M199.304 99.4812V98.4541H192.193V99.4812H199.304Z" fill="#D9925B"/>
<path d="M196.217 102.936C196.217 95.9335 200.989 95.6534 200.989 95.6534C201.363 92.759 203.047 90.4249 204.264 92.4789C205.48 94.533 205.48 98.361 205.48 98.361C207.445 98.361 207.352 101.442 207.352 102.936H196.217Z" fill="#85B386"/>
<path d="M187.982 96.3999H178.812V102.861H187.982V96.3999Z" fill="#FFF1D9"/>
<path d="M188.076 102.936H192.942V96.4746H188.076V102.936Z" fill="#BBD0FF"/>
<path d="M178.812 96.3998H192.942L189.854 93.8789H181.526L178.812 96.3998Z" fill="#C77BA7"/>
<path opacity="0.7" d="M180.591 99.8545C180.677 99.8545 180.762 99.8714 180.842 99.9042C180.921 99.9371 180.993 99.9852 181.054 100.046C181.115 100.107 181.163 100.179 181.196 100.258C181.229 100.337 181.246 100.422 181.246 100.508V102.936H179.936V100.508C179.936 100.335 180.005 100.168 180.127 100.046C180.25 99.9233 180.417 99.8545 180.591 99.8545Z" fill="#7381FF"/>
<path d="M182.743 99.5745C183.053 99.5745 183.304 99.3237 183.304 99.0143C183.304 98.7049 183.053 98.4541 182.743 98.4541C182.433 98.4541 182.181 98.7049 182.181 99.0143C182.181 99.3237 182.433 99.5745 182.743 99.5745Z" fill="white"/>
<path d="M184.988 99.5745C185.299 99.5745 185.55 99.3237 185.55 99.0143C185.55 98.7049 185.299 98.4541 184.988 98.4541C184.678 98.4541 184.427 98.7049 184.427 99.0143C184.427 99.3237 184.678 99.5745 184.988 99.5745Z" fill="white"/>
<path d="M189.387 95.4662H187.421L186.953 94.7193V93.3188H187.983V94.8127L189.387 95.4662Z" fill="#B86796"/>
<path d="M200.428 99.481C200.759 99.481 201.088 99.5462 201.394 99.6728C201.701 99.7995 201.979 99.9852 202.214 100.219C202.449 100.453 202.635 100.731 202.762 101.037C202.888 101.343 202.954 101.671 202.954 102.002V107.51H197.901V102.002C197.901 101.333 198.167 100.692 198.641 100.219C199.115 99.7465 199.758 99.481 200.428 99.481Z" fill="#BBD0FF"/>
<path opacity="0.7" d="M199.211 104.43C199.297 104.43 199.383 104.447 199.462 104.479C199.542 104.512 199.614 104.56 199.675 104.621C199.736 104.682 199.784 104.754 199.817 104.833C199.85 104.912 199.867 104.997 199.867 105.083V107.511H198.556V105.083C198.556 104.91 198.625 104.744 198.748 104.621C198.871 104.499 199.038 104.43 199.211 104.43Z" fill="#7381FF"/>
<path d="M201.363 103.309C201.777 103.309 202.112 102.974 202.112 102.562C202.112 102.149 201.777 101.815 201.363 101.815C200.95 101.815 200.615 102.149 200.615 102.562C200.615 102.974 200.95 103.309 201.363 103.309Z" fill="#D6E3FF"/>
<path d="M194.813 105.55C194.559 105.549 194.308 105.601 194.075 105.7C193.841 105.8 193.631 105.946 193.456 106.129C193.281 106.313 193.145 106.53 193.056 106.767C192.968 107.005 192.929 107.258 192.942 107.51H196.778C196.778 106.99 196.571 106.492 196.203 106.124C195.834 105.756 195.334 105.55 194.813 105.55Z" fill="#398A85"/>
<path d="M179.561 114.14C177.401 114.861 175.422 116.039 173.76 117.594C171.701 119.928 174.976 118.248 176.099 117.781L177.222 117.594C177.555 117.537 177.868 117.396 178.13 117.183C178.392 116.971 178.595 116.694 178.719 116.38L179.561 114.14Z" fill="#398A85"/>
<path d="M174.508 117.594C174.508 116.66 174.134 114.233 174.883 113.486C175.632 112.739 175.07 111.525 175.444 111.338C175.819 111.152 176.38 111.712 176.474 114.046C176.568 116.38 176.568 116.473 176.568 116.473L174.508 117.594Z" fill="#59B0A2"/>
<path d="M219.89 97.5205H215.773V102.086H219.89V97.5205Z" fill="#52A9FF"/>
<path d="M219.796 102.095H222.978V99.8077H219.796V102.095Z" fill="#52A9FF"/>
<path d="M216.053 100.322C215.211 99.4813 214.276 99.7614 214.089 100.788C213.913 100.774 213.736 100.799 213.571 100.859C213.406 100.92 213.256 101.016 213.131 101.14C213.006 101.264 212.91 101.414 212.849 101.579C212.789 101.744 212.764 101.92 212.779 102.096H216.896C216.896 101.349 217.083 100.322 216.053 100.322Z" fill="#528C75"/>
<path d="M270.605 116.1C270.886 110.591 278.184 111.898 281.178 112.739C284.173 113.579 286.418 117.594 286.231 123.009C286.201 126.165 285.76 129.303 284.921 132.345C284.734 133.466 282.582 136.173 278.371 129.264C274.161 122.355 270.511 118.154 270.605 116.1Z" fill="#5D4282"/>
<path d="M282.395 99.1075C282.301 96.68 282.208 91.7317 280.336 91.825C278.465 91.9184 277.81 99.9478 277.903 104.803L286.138 104.99C286.699 99.6677 284.173 99.0142 282.395 99.1075Z" fill="#85B386"/>
<path d="M279.401 96.0267C276.313 94.5329 274.722 98.3608 275.377 104.896H279.401V96.0267Z" fill="#85B386"/>
<path d="M263.026 104.523C263.026 102.375 264.149 101.909 264.991 101.909C264.991 100.228 266.114 99.4811 266.862 100.228C267.611 100.975 267.798 104.336 267.798 104.336L263.026 104.523Z" fill="#85B386"/>
<path d="M317.671 76.0467C317.672 75.9145 317.638 75.7843 317.572 75.6694C317.506 75.5546 317.411 75.4593 317.296 75.3931C314.115 73.8059 309.062 73.9927 306.536 75.5799C305.6 76.1401 305.694 77.914 305.881 79.1278C306.068 80.3415 306.723 83.2358 308.314 83.9828C309.904 84.7297 309.811 84.823 309.904 86.6904C309.998 88.5577 311.121 89.1179 313.647 87.2505C316.174 85.3832 316.267 83.9828 316.267 82.769C316.267 81.5553 317.577 80.1548 317.671 76.0467Z" fill="#5D51C9"/>
<path d="M152.052 155.78C152.145 159.235 152.987 160.075 153.829 160.635C154.671 161.196 155.42 160.355 156.262 158.861C156.842 157.474 157.098 155.974 157.011 154.473C157.011 153.82 156.449 153.913 155.046 153.82C154.105 153.723 153.157 153.918 152.332 154.38C152.052 154.66 152.052 154.847 152.052 155.78Z" fill="#5D51C9"/>
<path d="M352.76 58.8672H293.811C300.267 52.2383 325.063 52.6117 331.8 56.4397C340.876 54.6658 345.274 54.8525 352.76 58.8672Z" fill="#8A66FF"/>
<path d="M198.275 145.043C215.399 129.451 237.481 137.854 244.405 142.616C254.417 137.574 261.061 139.815 267.143 145.043H198.275Z" fill="#8462F5"/>
<path d="M309.156 180.989C305.507 178.935 301.483 181.923 301.483 188.832C301.483 188.832 296.898 189.299 296.805 199.942H311.776L309.156 180.989Z" fill="#85B386"/>
<path d="M307.098 190.699H290.536V199.886H307.098V190.699Z" fill="#5E6AF2"/>
<path d="M294.653 195.274H292.407V199.727H294.653V195.274Z" fill="#754478"/>
<path d="M307.098 190.699H290.536L295.308 187.992H302.98L307.098 190.699Z" fill="#443E59"/>
<path d="M345.461 139.722L317.764 141.589C316.817 141.687 315.907 142.01 315.11 142.529C314.312 143.049 313.651 143.751 313.18 144.577L299.238 169.692C298.721 170.556 298.457 171.547 298.473 172.553C298.49 173.559 298.787 174.54 299.331 175.387L312.899 197.982C313.457 198.874 314.249 199.598 315.189 200.075C316.128 200.552 317.181 200.764 318.232 200.689L345.835 198.822C346.783 198.724 347.693 198.401 348.49 197.882C349.288 197.362 349.949 196.66 350.42 195.834L364.362 170.719C364.879 169.855 365.143 168.864 365.127 167.858C365.11 166.852 364.813 165.871 364.269 165.024L350.701 142.429C350.158 141.544 349.382 140.825 348.459 140.347C347.536 139.87 346.499 139.654 345.461 139.722Z" fill="url(#paint3_linear_1814_59782)"/>
<path d="M315.706 200.316C316.51 200.623 317.373 200.751 318.232 200.689L326.466 200.129L345.742 198.822C346.828 198.746 347.868 198.357 348.736 197.702L345.648 182.296L315.706 200.316Z" fill="#276F96"/>
<path d="M314.864 142.709C314.187 143.217 313.615 143.851 313.18 144.576L299.238 169.692C298.718 170.6 298.459 171.634 298.489 172.679L311.495 173.613L314.864 142.709Z" fill="#ADEDFF"/>
<path d="M298.489 172.68C298.551 173.665 298.839 174.624 299.331 175.481L302.419 180.522L312.899 197.888C313.309 198.606 313.887 199.215 314.583 199.662L311.495 173.613L298.489 172.68Z" fill="#69CBE6"/>
<path d="M365.017 167.171C364.939 166.377 364.683 165.612 364.269 164.93L350.701 142.522C350.174 141.607 349.395 140.861 348.456 140.375L342.654 152.232L365.017 167.171Z" fill="#53BEDB"/>
<path d="M348.456 140.375C347.507 139.877 346.438 139.651 345.368 139.722L317.858 141.589C316.822 141.689 315.826 142.042 314.958 142.616L342.654 152.233L348.456 140.375Z" fill="#69CBE6"/>
<path d="M311.495 173.613L345.648 182.296L342.654 152.232L311.495 173.613Z" fill="#2D92BA"/>
<path d="M345.648 182.296L365.111 168.478C365.123 168.04 365.092 167.602 365.017 167.171L342.654 152.232L345.648 182.296Z" fill="#309AC4"/>
<path d="M336.946 196.394C336.946 190.139 342.28 188.085 344.525 188.645C344.619 178.188 346.116 174.64 349.859 174.453C353.602 174.267 353.976 181.082 353.976 181.082C358.187 180.989 359.684 184.537 359.965 190.419C364.082 190.512 368.292 193.407 368.666 197.888L338.256 199.102L336.946 196.394Z" fill="#528C75"/>
<path d="M347.145 190.045C347.902 192.381 348.404 194.791 348.643 197.235H347.707C347.52 194.34 346.865 190.326 346.865 190.326L347.145 190.045Z" fill="#7D456E"/>
<path d="M348.362 190.886L351.637 190.232C350.888 189.392 349.765 189.392 348.175 189.672C348.69 188.867 349.286 188.117 349.952 187.431C349.593 187.334 349.217 187.317 348.851 187.382C348.485 187.446 348.137 187.591 347.833 187.805C347.529 188.019 347.277 188.297 347.093 188.62C346.909 188.943 346.799 189.302 346.771 189.672C346.404 189.458 345.997 189.319 345.576 189.264C345.154 189.209 344.725 189.239 344.315 189.352C343.905 189.465 343.522 189.659 343.188 189.923C342.855 190.186 342.578 190.514 342.373 190.886C343.387 190.663 344.424 190.568 345.461 190.606C345.065 190.927 344.736 191.323 344.495 191.772C344.254 192.221 344.106 192.713 344.058 193.22L347.145 191.446L349.672 193.127C349.745 192.66 349.655 192.182 349.416 191.774C349.178 191.366 348.805 191.052 348.362 190.886Z" fill="#85B386"/>
<path d="M358.374 197.328C358.748 194.901 360.62 193.967 361.555 194.901C362.142 195.576 362.473 196.435 362.491 197.328H358.374Z" fill="#505C80"/>
<path d="M360.807 197.328C361.275 196.301 363.334 196.021 363.802 197.515C364.27 199.008 360.807 197.328 360.807 197.328Z" fill="#6473A1"/>
<path d="M349.485 197.048C349.298 195.087 347.894 194.247 346.958 195.367C346.023 196.487 346.023 197.328 346.023 197.328L349.485 197.048Z" fill="#505C80"/>
<path d="M308.407 193.406C311.776 192.286 315.706 193.687 317.016 200.222L303.542 201.436V200.409C303.527 198.883 303.987 197.39 304.859 196.136C305.73 194.882 306.97 193.928 308.407 193.406Z" fill="#6EAC8D"/>
<path d="M280.71 241.583C280.71 233.834 283.237 229.913 287.915 229.913C292.594 229.913 291.471 242.517 291.471 242.517L280.71 241.583Z" fill="#58A67E"/>
<path d="M361.462 197.421V270.62L276.406 269.779C278.746 257.268 284.64 238.035 284.64 238.035C284.64 238.035 285.483 214.694 286.886 207.785C286.886 205.917 286.605 202.556 286.418 200.596C286.442 200.067 286.67 199.568 287.053 199.203C287.437 198.838 287.947 198.634 288.477 198.635L295.775 198.075C301.202 197.888 326.279 196.394 338.818 196.768L361.462 197.421Z" fill="#824B6F"/>
<path d="M332.174 202.183L329.928 210.213L326.841 215.161L324.034 217.962L325.156 211.893L325.25 207.131L329.367 203.21L332.174 202.183Z" fill="#754465"/>
<path d="M372.316 197.422C372.316 197.422 351.263 197.142 338.818 196.768H335.262C335.262 196.861 330.303 215.815 329.554 220.109L312.805 240.743L311.682 260.163L355.005 270.62H372.316V197.422Z" fill="#5A3C5C"/>
<path d="M349.298 197.048C353.04 200.223 352.76 202.743 352.853 209.372V223.377C352.76 227.112 352.853 241.583 352.853 241.583H360.339C360.339 241.583 360.152 226.552 360.339 222.443C360.526 218.335 360.619 212.08 360.713 208.252C360.807 204.424 360.619 200.503 359.309 197.422C358.842 196.581 357.532 196.581 356.409 196.861C355.169 196.67 353.906 196.67 352.666 196.861C350.982 196.675 349.298 196.581 349.298 197.048Z" fill="#63A6FF"/>
<path d="M359.31 197.421C358.842 196.674 357.906 196.581 356.877 196.768C356.035 200.783 359.122 206.104 359.122 206.104C356.97 208.532 356.035 209.839 355.567 211.426C358.374 215.254 355.567 220.016 355.567 220.016C356.885 222.692 357.769 225.56 358.187 228.512C358.467 228.756 358.794 228.94 359.148 229.052C359.502 229.164 359.876 229.203 360.245 229.166C360.245 226.365 360.245 223.75 360.339 222.443C360.526 218.242 360.619 212.08 360.713 208.252C360.807 204.424 360.619 200.502 359.31 197.421Z" fill="#4F9BFF"/>
<path d="M357.719 227.952C353.789 223.377 354.725 218.148 355.005 214.507C355.058 213.46 355.247 212.425 355.567 211.426L355.005 210.773C355.696 208.288 355.694 205.663 355.002 203.179C354.31 200.695 352.952 198.446 351.075 196.674C350.046 196.674 349.298 196.768 349.298 197.048C353.04 200.222 352.76 202.743 352.853 209.372V223.377C352.76 226.831 352.853 239.342 352.853 241.303C353.282 241.195 353.671 240.969 353.976 240.649C357.906 237.662 358.842 233.087 358.187 228.512L357.719 227.952Z" fill="#63CBFF"/>
<path d="M355.567 211.426C355.247 212.425 355.059 213.46 355.006 214.507C354.725 218.149 353.789 223.377 357.719 227.952L358.187 228.512C357.769 225.56 356.885 222.692 355.567 220.016C355.567 220.016 358.374 215.254 355.567 211.426Z" fill="#63A6FF"/>
<path d="M344.619 260.443C345.274 248.212 349.11 238.969 355.005 237.942C355.192 225.711 360.807 222.257 365.391 221.977C369.976 221.696 372.316 226.458 372.316 233.274V271.46H344.619V260.443Z" fill="#33705E"/>
<path d="M303.916 202.09L304.945 216.935L301.39 230.286L298.863 245.971H307.752L311.87 228.325C311.87 228.325 314.209 219.642 315.051 217.682L312.524 202.09L312.805 197.328L308.314 197.515L308.127 199.849L303.916 202.09Z" fill="#966290"/>
<path d="M290.255 198.448V207.225L288.29 224.777V245.131H291.097V224.404L294.559 206.384L295.775 198.075L290.255 198.448Z" fill="#966290"/>
<path d="M340.97 248.492C341.374 252.937 341.312 257.412 340.783 261.843L339.192 261.377C339.941 256.241 340.221 248.772 340.221 248.772L340.97 248.492Z" fill="#7D456E"/>
<path d="M342.654 250.359H348.83C347.894 248.679 345.742 248.305 342.935 248.119C344.192 246.93 345.537 245.838 346.958 244.851C344.338 243.357 341.064 245.224 340.315 247.652C337.695 245.504 334.046 245.691 332.174 248.212C334.038 248.135 335.901 248.356 337.695 248.866C334.981 250.639 334.981 251.2 334.326 252.88L340.409 250.92L344.245 254.934C344.549 254.106 344.556 253.198 344.267 252.364C343.977 251.53 343.407 250.822 342.654 250.359Z" fill="#528C75"/>
<path d="M334.42 259.229C331.987 246.812 327.683 239.716 312.712 243.731C309.998 237.288 302.513 237.849 297.928 242.89C281.085 233.647 263.494 238.409 262.652 274.635L297.928 279.49L353.321 272.861C351.075 259.509 340.409 255.868 334.42 259.229Z" fill="#528C75"/>
<path d="M291.471 252.413C291.837 251.625 292.467 250.988 293.253 250.613C294.038 250.238 294.931 250.149 295.775 250.359C295.775 250.359 297.553 246.998 299.705 247.932C298.451 249.046 297.405 250.373 296.618 251.853L291.471 252.413Z" fill="#58A67E"/>
<path d="M283.144 248.866C284.174 256.522 283.144 266.138 283.144 266.138L281.085 265.578C282.021 258.856 282.208 249.239 282.208 249.239L283.144 248.866Z" fill="#856987"/>
<path d="M280.617 249.239L274.441 250.92C275.096 248.305 277.529 247.092 280.711 247.839C279.775 246.905 277.342 243.73 277.342 243.73C278.487 243.765 279.598 244.126 280.543 244.772C281.489 245.417 282.229 246.319 282.675 247.372C283.839 246.896 285.118 246.776 286.35 247.025C287.583 247.274 288.713 247.882 289.6 248.772H284.453C287.541 250.359 287.354 252.04 287.541 254.094L283.143 250.733L279.026 255.401C279.026 255.401 278.652 250.92 280.617 249.239Z" fill="#58A67E"/>
<path d="M283.424 260.163C278.839 259.509 275.19 262.217 273.506 267.165C269.295 266.885 267.517 269.966 267.33 274.354H291.471C291.752 268.659 290.723 265.298 288.664 264.738C288.758 262.31 286.886 260.63 283.424 260.163Z" fill="#58A67E"/>
<path d="M296.711 263.617C296.711 254.841 298.395 250.733 303.167 250.453C307.939 250.173 308.875 255.681 308.594 259.136C311.402 259.136 313.554 260.816 313.741 264.738C313.928 268.659 313.741 275.848 313.741 275.848L296.711 276.875V263.617Z" fill="#468069"/>
<path d="M312.15 233.087C315.706 250.826 314.583 273.608 314.583 273.608L309.717 272.674C310.934 256.708 310.092 232.62 310.092 232.62L312.15 233.087Z" fill="#754465"/>
<path d="M306.068 232.34L293.717 236.168C295.775 231.033 298.77 228.792 306.349 227.112C303.635 224.778 297.179 221.136 297.179 221.136C301.202 219.829 307.659 220.296 313.086 225.525C317.951 223.097 322.069 223.377 329.928 228.699C325.133 228.873 320.368 229.53 315.706 230.66C321.694 234.955 323.846 238.689 321.881 244.945L311.495 235.235L302.045 247.279C302.045 247.279 301.483 238.222 306.068 232.34Z" fill="#58AC77"/>
<path d="M340.502 205.731L336.572 211.239L334.888 218.989C334.888 218.989 340.783 212.266 343.59 211.053V201.436H341.438L340.502 205.731Z" fill="#754465"/>
<path d="M332.549 135.707L334.981 134.68L332.549 133.653L331.519 131.319C331.426 131.225 331.426 131.225 331.426 131.319L330.303 133.653L327.87 134.68L330.303 135.707L331.426 138.041H331.519L332.549 135.707Z" fill="#FFFAE6"/>
<path d="M355.286 168.851L356.596 168.291C356.689 168.291 356.689 168.291 356.596 168.198L355.286 167.638L354.724 166.331L354.07 167.638L352.76 168.198L354.07 168.758L354.724 170.065L355.286 168.758V168.851Z" fill="#B8A3FF"/>
<path d="M297.834 159.702L299.893 158.768L297.834 157.834L296.898 155.78H296.805L295.869 157.834L293.811 158.768L295.869 159.702L296.805 161.756H296.898L297.834 159.702Z" fill="#FFFAE6"/>
<path d="M352.198 264.084C352.666 254.094 359.309 251.387 363.52 253.347C367.731 255.308 367.731 264.178 367.731 267.072C369.321 267.352 370.538 269.219 370.819 273.234H352.198C352.198 273.234 352.011 269.873 352.198 264.084Z" fill="#2F6653"/>
<path d="M316.548 210.773L317.484 216.188L317.671 217.962L318.607 215.628V209.372L316.548 210.773Z" fill="#966290"/>
<path d="M320.759 209.092V211.893L322.163 210.493V208.252L320.759 209.092Z" fill="#966290"/>
<path d="M332.174 202.183L327.309 206.945C327.309 206.945 318.232 210.306 316.548 210.773C317.671 207.318 322.443 204.424 324.221 203.864C325.999 203.304 329.367 200.596 332.081 201.81C332.13 201.797 332.183 201.805 332.227 201.831C332.27 201.858 332.302 201.9 332.315 201.95C332.327 201.999 332.319 202.052 332.293 202.095C332.267 202.139 332.224 202.171 332.174 202.183Z" fill="#6EAC8D"/>
<path d="M325.25 205.077L327.87 204.05L323.846 204.704L325.25 205.077Z" fill="#528C75"/>
<path d="M320.759 206.571C320.759 204.05 320.571 201.809 321.788 201.436C321.881 198.728 322.911 198.448 323.753 199.102C324.595 199.755 324.408 202.65 324.408 202.65L325.25 205.077L320.759 206.571Z" fill="#528C75"/>
<path opacity="0.63" d="M298.115 193.967C298.58 193.967 298.957 193.591 298.957 193.126C298.957 192.662 298.58 192.286 298.115 192.286C297.65 192.286 297.272 192.662 297.272 193.126C297.272 193.591 297.65 193.967 298.115 193.967Z" fill="#9891FF"/>
<path opacity="0.63" d="M301.577 193.967C302.042 193.967 302.42 193.591 302.42 193.126C302.42 192.662 302.042 192.286 301.577 192.286C301.112 192.286 300.735 192.662 300.735 193.126C300.735 193.591 301.112 193.967 301.577 193.967Z" fill="#9891FF"/>
<path d="M372.316 273.327V368H120.238C119.863 364.732 119.396 361.464 119.021 358.29C118.928 356.889 118.741 355.489 118.553 354.088C118.366 352.688 118.46 352.688 118.366 352.034C118.273 351.381 118.086 349.327 117.898 347.926C117.524 344.472 117.15 341.017 116.869 337.843C116.853 337.186 116.791 336.53 116.682 335.882C116.682 335.228 116.588 334.575 116.588 334.015C116.588 333.455 116.401 332.054 116.308 331.214C116.214 330.373 116.214 329.16 116.121 328.133C116.027 327.106 115.933 325.985 115.933 324.958C115.574 320.16 115.762 315.336 116.495 310.58C117.309 305.679 119.669 301.166 123.232 297.696C123.257 297.696 123.281 297.686 123.298 297.668C123.316 297.651 123.326 297.627 123.326 297.602H123.419C130.156 291.16 141.852 286.585 161.596 280.983C192.193 273.887 248.242 272.3 278.184 272.767C283.611 272.954 289.038 274.728 294.372 274.354C313.554 272.767 330.677 273.607 349.298 274.261C356.69 274.261 364.269 273.421 372.316 273.327Z" fill="#78426A"/>
<path d="M257.973 310.487C257.309 314.407 256.934 318.37 256.85 322.344C256.865 327.665 255.615 332.912 253.201 337.656C250.675 342.978 236.358 354.275 236.078 355.116C235.797 355.956 235.048 365.479 234.768 368H225.878C226.171 365.022 226.265 362.028 226.159 359.037C225.972 355.956 234.861 339.897 235.235 336.256C235.498 331.966 235.529 327.665 235.329 323.371C235.235 320.664 232.99 310.487 235.703 297.509L262.371 295.829L257.973 310.487Z" fill="#703E64"/>
<path d="M308.875 294.521C306.536 303.017 305.507 308.619 305.507 310.487C305.507 312.354 300.922 316.182 299.331 318.516C297.74 320.85 296.992 320.944 296.805 324.305C296.618 327.666 291.939 347.739 291.939 347.739L275.658 353.808C275.658 353.808 278.652 341.391 279.213 337.376C279.775 333.361 281.459 328.039 281.459 326.079C281.459 324.118 281.553 322.718 283.892 320.57C286.231 318.423 290.723 312.914 292.781 311.234C294.84 309.553 294.933 308.433 295.775 304.885L299.518 290.88L308.875 294.521Z" fill="#8F516F"/>
<path d="M224.381 327.666C224.475 332.334 223.726 340.177 223.726 340.177C223.726 340.177 220.826 345.872 219.983 348.393C219.078 350.92 218.359 353.51 217.831 356.142C217.551 358.29 217.738 359.69 213.246 356.142C208.755 352.595 204.357 350.074 202.954 348.206C201.55 346.339 202.018 345.405 202.205 342.978C202.392 340.55 202.018 334.015 202.018 334.015L224.381 327.666Z" fill="#5A3C5C"/>
<path d="M337.788 288.919L372.316 285.372V368H328.431L328.244 359.037L313.928 345.499L321.133 293.868L321.601 290.507L337.788 288.919Z" fill="#543857"/>
<path d="M353.227 298.256L372.316 294.428V334.575L369.977 333.548C361.462 329.814 360.526 331.121 358.187 326.359C355.848 321.598 352.666 315.902 349.11 305.352C348.871 304.616 348.789 303.839 348.87 303.07C348.951 302.3 349.194 301.557 349.582 300.888C349.971 300.218 350.496 299.638 351.124 299.185C351.752 298.731 352.469 298.415 353.227 298.256Z" fill="#5A3C5C"/>
<path d="M200.427 327.013C200.427 327.853 193.877 331.587 193.784 332.428C193.316 337.656 193.503 341.671 193.316 343.725C193.129 345.779 187.982 350.447 187.047 352.315C186.111 354.182 184.333 357.17 183.959 367.627V368H120.518C118.647 352.221 116.776 335.696 116.308 324.958C115.933 318.423 116.121 313.101 117.337 308.526C118.331 304.332 120.506 300.51 123.606 297.509L198.369 290.227L195.281 308.059V308.9C196.404 313.755 200.053 322.344 200.427 327.013Z" fill="#AB576F"/>
<path d="M195.281 308.9V308.059L196.591 300.777L187.328 302.177C187.702 319.45 186.392 328.04 192.1 325.612C194.626 324.492 196.03 319.637 196.965 314.408C196.298 312.606 195.736 310.767 195.281 308.9Z" fill="#78426A"/>
<path d="M150.929 331.867L149.899 336.816V341.951C149.899 342.324 149.338 345.499 149.338 345.499C149.244 348.673 149.151 352.128 148.683 352.875C148.215 353.622 144.192 358.383 143.817 360.251C143.443 362.118 142.975 364.732 142.414 368H139.887C140.262 365.012 140.636 362.118 140.636 361.371C140.636 360.624 140.449 359.504 141.946 357.45C143.443 355.396 146.718 351.754 146.999 351.381C147.279 351.007 147.092 347.74 146.999 344.565C146.905 343.351 146.812 335.882 146.812 335.882L147.747 328.506C147.279 326.732 146.157 322.904 146.157 320.57C146.157 318.236 146.25 311.701 146.718 306.099H147.934C147.934 306.099 148.589 312.914 148.589 315.155C148.723 318.817 149.098 322.466 149.712 326.079C150.274 329.253 150.929 330.56 150.929 331.867Z" fill="#964D66"/>
<path d="M163.935 368H146.25C146.999 365.292 147.934 362.491 149.244 361.558C150.554 360.624 155.701 357.73 160.192 362.865C161.608 364.448 162.861 366.168 163.935 368Z" fill="#964D66"/>
<path d="M178.626 347.927C178.524 349.574 178.524 351.227 178.626 352.875C178.731 354.96 178.7 357.049 178.532 359.13C178.251 361.651 177.971 364.452 177.971 365.293C177.971 366.133 178.158 365.199 179.374 363.238C180.931 360.967 182.338 358.597 183.585 356.143C184.146 354.742 183.866 354.369 184.053 353.342C184.24 352.315 182.462 346.806 182.462 346.806L178.626 347.927Z" fill="#C46375"/>
<path d="M135.302 357.543C135.209 358.85 134.086 362.211 133.712 366.413C133.69 366.946 133.628 367.477 133.525 368H131.372V355.209C131.372 353.528 130.998 349.7 131.372 347.926C131.747 346.153 133.244 345.312 134.46 344.659C134.544 344.61 134.639 344.584 134.736 344.584C134.833 344.583 134.929 344.607 135.014 344.654C135.099 344.701 135.17 344.769 135.22 344.852C135.271 344.934 135.299 345.029 135.302 345.126C135.302 349.327 135.396 356.329 135.302 357.543Z" fill="#C46375"/>
<path d="M150.18 304.512C151.864 314.875 152.426 316.462 152.613 317.769C152.8 319.077 158.227 321.037 162.625 322.811C167.023 324.585 172.543 326.919 174.041 327.013C175.538 327.106 176.754 323.558 177.971 321.131C179.187 318.703 182.368 313.008 182.743 312.168C183.117 311.327 186.392 301.15 186.392 301.15L150.18 304.512Z" fill="#964D66"/>
<path d="M168.239 305.165C168.52 318.329 167.304 324.958 172.637 323.091C177.97 321.224 178.345 303.951 178.345 303.951L168.239 305.165Z" fill="#78426A"/>
<path d="M153.736 306.659C153.829 306.965 154.013 307.236 154.264 307.436C154.514 307.636 154.819 307.756 155.139 307.779C156.898 307.933 158.647 308.183 160.379 308.526C162.227 308.573 164.075 308.448 165.9 308.153C167.678 307.873 168.707 306.472 170.017 306.099C170.965 305.677 171.799 305.037 172.45 304.231H153.081L153.736 306.659Z" fill="#8A475E"/>
<path d="M125.758 326.079C125.713 327.716 125.493 329.343 125.103 330.934C124.448 333.175 122.39 336.536 121.922 338.59C121.399 340.352 121.085 342.17 120.986 344.005C120.986 345.966 123.045 352.315 123.419 356.423C123.793 360.531 124.355 364.919 124.635 368H120.238C119.863 364.732 119.395 361.465 119.021 358.29C118.928 356.89 118.74 355.489 118.553 354.089C118.366 352.688 118.46 352.688 118.366 352.035C118.273 351.381 118.085 349.327 117.898 347.927C117.524 344.472 117.15 341.018 116.869 337.843C116.853 337.186 116.791 336.531 116.682 335.882C116.682 335.229 116.588 334.575 116.588 334.015C116.588 333.455 116.401 332.054 116.308 331.214C116.214 330.374 116.214 329.16 116.121 328.133C116.027 327.106 115.933 325.986 115.933 324.959C115.746 321.971 114.811 317.863 114.811 314.969C114.799 314.416 114.928 313.87 115.185 313.381C115.45 312.983 115.641 312.54 115.746 312.074C116.121 311.421 116.308 310.954 116.495 310.58C116.812 309.943 116.972 309.238 116.963 308.526H117.337L125.758 309.553C125.665 315.435 125.758 324.865 125.758 326.079Z" fill="#D66D8A"/>
<path d="M164.59 273.701C164.122 269.966 158.508 269.032 157.666 275.101C152.707 272.86 151.677 279.583 153.923 282.944L170.953 278.836C174.976 272.394 168.239 272.207 164.59 273.701Z" fill="#5FA38B"/>
<path d="M372.316 270.526V290.88L337.882 291.627C332.237 291.803 326.625 292.553 321.133 293.868L318.045 294.801C309.717 297.789 304.477 295.268 292.781 293.961C292.781 293.961 262.09 296.762 251.049 298.629C240.205 300.478 229.173 300.98 218.206 300.123C206.977 299.283 202.579 299.936 196.497 301.15C190.415 302.364 175.163 304.325 168.239 305.165C164.793 305.573 161.316 305.666 157.853 305.445C155.034 305.352 152.219 305.731 149.525 306.565C146.063 307.686 141.01 309.273 136.425 310.487C128.378 312.634 126.881 309.46 116.495 310.487C116.682 308.339 116.588 306.752 117.15 305.352C118.273 302.271 119.208 299.656 123.232 297.602C123.244 297.602 123.256 297.6 123.268 297.595C123.279 297.59 123.289 297.584 123.298 297.575C123.307 297.566 123.314 297.556 123.318 297.545C123.323 297.533 123.326 297.521 123.326 297.509H123.419C131.185 287.986 147.747 283.878 148.215 283.784C157.666 281.357 166.274 279.303 173.947 277.529C181.62 275.755 187.327 275.195 189.48 275.195C190.078 275.16 190.679 275.223 191.257 275.381L202.018 274.261L209.317 273.701C213.059 273.327 216.896 273.141 220.732 272.86L224.756 272.58C233.738 272.02 242.908 271.553 252.078 271.273C300.173 269.219 349.11 270.059 372.316 270.526Z" fill="#85C28D"/>
<path d="M372.316 290.88V270.527L360.526 270.34C342.654 271.46 336.759 276.315 333.11 278.369C308.875 278.929 296.711 282.851 288.383 294.428L292.781 293.961C304.477 295.268 309.717 297.789 318.045 294.802L321.133 293.868C326.625 292.554 332.237 291.803 337.882 291.627L372.316 290.88Z" fill="#6EAC8D"/>
<path d="M148.309 251.293L150.461 250.359C150.555 250.359 150.555 250.266 150.461 250.266L148.309 249.332L147.373 247.185H147.28L146.25 249.332L144.098 250.266L146.25 251.2L147.28 253.441H147.373L148.309 251.2V251.293Z" fill="#FFFAE6"/>
<path d="M134.741 299.563C126.694 298.536 122.764 300.59 121.548 304.231L134.741 299.563Z" fill="#6EAC8D"/>
<path d="M224.381 327.666C212.779 334.388 193.784 341.297 185.082 345.966C176.38 350.634 176.099 349.327 186.111 335.135C196.123 320.944 207.071 326.079 207.071 326.079C207.071 326.079 220.545 314.035 224.381 327.666Z" fill="#6EAC8D"/>
<path d="M190.041 336.909L199.866 327.666C195.655 327.666 192.1 328.693 190.041 336.909Z" fill="#85C28D"/>
<path d="M207.071 326.079C206.412 325.783 205.721 325.564 205.012 325.425C204.056 326.561 203.373 327.901 203.016 329.342C202.659 330.782 202.638 332.285 202.954 333.735C197.246 336.536 195 337.469 194.252 339.15C193.834 340.07 193.55 341.044 193.41 342.044C202.954 337.75 215.679 332.614 224.381 327.666C220.545 314.035 207.071 326.079 207.071 326.079Z" fill="#528C75"/>
<path d="M134.835 315.155C134.599 317.288 133.862 319.335 132.683 321.13C131.841 322.717 130.998 321.597 131.186 318.983C131.373 316.369 130.905 314.034 132.028 314.128C133.151 314.221 135.022 313.754 134.835 315.155Z" fill="#B0728D"/>
<path d="M170.391 340.831L174.696 338.963C174.789 338.87 174.789 338.777 174.696 338.777L170.391 336.816H170.298L168.333 332.428H168.146L166.274 336.816H166.181L161.877 338.777C161.783 338.777 161.783 338.87 161.877 338.963L166.181 340.831H166.274L168.146 345.125H168.333L170.298 340.831C170.312 340.822 170.328 340.818 170.345 340.818C170.361 340.818 170.377 340.822 170.391 340.831Z" fill="#CCBDFF"/>
<path d="M158.976 355.302L161.409 354.275C161.502 354.182 161.502 354.182 161.409 354.182L158.976 353.061H158.882L157.853 350.541H157.759L156.636 353.061L154.11 354.182L156.636 355.209L157.759 357.636H157.853L158.882 355.209C158.882 355.221 158.885 355.233 158.889 355.245C158.894 355.256 158.901 355.266 158.91 355.275C158.918 355.283 158.929 355.29 158.94 355.295C158.951 355.3 158.963 355.302 158.976 355.302Z" fill="#FFF5CF"/>
<path d="M372.316 287.052V290.88L337.882 291.627C332.237 291.803 326.625 292.554 321.133 293.868L318.045 294.802C309.717 297.789 304.477 295.268 292.781 293.961C292.781 293.961 262.09 296.762 251.049 298.63C240.205 300.478 229.173 300.98 218.206 300.123C206.977 299.283 202.579 299.937 196.497 301.15C190.415 302.364 175.163 304.325 168.239 305.165C164.793 305.573 161.316 305.667 157.853 305.445C155.034 305.352 152.219 305.731 149.525 306.566C146.063 307.686 141.01 309.273 136.425 310.487C128.378 312.634 126.881 309.46 116.495 310.487C120.051 308.9 124.729 308.34 132.963 306.939C136.893 306.286 143.162 304.698 147.467 304.138C151.771 303.578 154.765 303.111 158.414 302.738C165.151 302.177 171.421 301.524 176.848 300.777L183.304 299.843C188.45 297.136 194.439 297.509 196.872 298.91H196.965C208.849 293.961 218.393 297.229 220.358 297.509C227.282 295.922 234.487 296.856 235.703 297.509C242.44 295.829 252.64 294.241 257.599 294.615C270.231 293.121 283.892 291.16 287.167 291.44C290.442 291.721 300.454 291.254 303.916 293.214C308.033 292.374 312.899 290.04 315.893 291.347C322.349 289.573 332.829 287.799 337.788 288.92H338.35C344.151 288.079 360.339 287.239 372.316 287.052Z" fill="#6EAC8D"/>
<path d="M152.988 291.534C165.245 288.639 168.239 287.052 168.052 286.772C167.865 286.492 165.058 286.399 157.572 287.799C150.087 289.2 152.988 291.534 152.988 291.534Z" fill="#6EAC8D"/>
<path d="M159.818 289.106C156.824 275.942 151.49 270.06 145.127 269.966C138.765 269.873 135.115 283.411 134.741 294.521C134.741 294.521 138.109 294.428 148.309 292.561C158.508 290.693 159.818 289.106 159.818 289.106Z" fill="#8483B8"/>
<path d="M148.87 277.902C147.56 274.728 143.817 271.74 140.262 273.047C139.572 273.932 139.005 274.905 138.577 275.941C143.256 274.448 143.256 279.956 143.537 284.905C146.905 283.878 151.49 284.438 152.987 291.533C154.664 291.155 156.32 290.687 157.946 290.133H158.321C157.572 284.531 153.642 277.995 148.87 277.902Z" fill="#8D8CC4"/>
<path d="M157.104 295.829C158.882 291.44 164.403 290.32 166.274 293.028L157.104 295.829Z" fill="#D3E890"/>
<path d="M138.578 282.851C137.08 283.504 136.987 285.745 137.548 287.519C138.11 289.293 139.701 288.079 139.608 286.399C139.514 284.718 139.701 282.291 138.578 282.851Z" fill="#9190C9"/>
<path d="M146.812 291.534C146.718 288.266 145.689 284.905 143.724 285.465C141.759 286.025 142.975 289.386 143.443 291.254C143.443 291.254 142.133 289.946 140.917 290.973C139.7 292 140.636 294.241 143.443 295.548L148.309 294.521C151.677 290.133 147.841 288.733 146.812 291.534Z" fill="#B9E08B"/>
<path d="M145.127 269.966C139.7 269.219 138.297 266.232 141.01 266.325C143.724 266.418 145.969 269.126 145.969 269.126L145.127 269.966Z" fill="#5E78EB"/>
<path d="M145.502 269.126C143.63 268.659 142.507 268.379 142.414 269.033C142.32 269.686 142.32 270.246 145.595 269.966L145.502 269.126Z" fill="#1A2D3B"/>
<path d="M145.502 270.059C145.227 269.891 144.999 269.659 144.835 269.382C144.672 269.105 144.58 268.793 144.566 268.472C144.847 263.711 147.092 261.563 147.934 264.177C148.4 265.417 148.745 266.699 148.964 268.005C153.642 267.445 151.958 270.713 148.964 270.806C147.761 270.906 146.556 270.646 145.502 270.059Z" fill="#3958DE"/>
<path d="M279.494 277.435C279.213 270.807 276.5 268.379 275.096 267.725C273.693 267.072 273.599 269.593 275.283 273.141C271.166 270.526 269.669 271.367 269.482 272.487C269.295 273.607 272.476 275.288 274.441 276.315C270.231 275.475 266.02 276.689 271.915 278.743C274.495 279.768 277.155 280.58 279.868 281.17L279.494 277.435Z" fill="#92D18F"/>
<path d="M273.693 282.104C274.441 274.821 279.026 273.608 279.026 273.608C279.12 270.34 280.804 267.446 282.956 267.259C285.108 267.072 288.477 268.286 291.471 271.18C294.465 274.074 297.179 273.981 297.179 278.93C290.535 280.61 277.155 284.065 273.693 282.104Z" fill="#8C7CA6"/>
<path d="M293.81 279.77C293.907 279.035 293.811 278.287 293.532 277.6C293.254 276.913 292.801 276.31 292.22 275.848C290.161 273.981 289.6 274.355 289.6 274.355C290.309 273.229 290.727 271.946 290.816 270.62C288.009 268.193 285.015 266.979 282.956 267.259C282.46 267.332 281.985 267.511 281.565 267.785C281.145 268.059 280.789 268.421 280.523 268.846C282.676 267.912 286.325 269.5 287.26 272.207C284.266 272.767 284.266 275.288 284.36 276.875C286.325 275.382 290.348 277.156 290.442 278.836C290.513 279.425 290.544 280.017 290.535 280.61L293.81 279.77Z" fill="#7A6D91"/>
<path d="M278.371 275.288C276.593 276.222 276.687 277.249 276.687 277.529C276.687 277.809 277.903 276.875 278.933 276.408C279.962 275.942 280.898 273.981 278.371 275.288Z" fill="#A293BA"/>
<path d="M345.274 276.035C346.677 273.888 351.356 273.514 354.07 275.475L345.274 276.035Z" fill="#549981"/>
<path d="M289.6 287.145C289.272 282.489 288.296 277.901 286.699 273.514C285.95 271.833 285.951 273.14 286.98 276.315C287.813 279.828 288.469 283.38 288.945 286.959L289.6 287.145Z" fill="#CFE08B"/>
<path d="M292.875 277.156C293.53 275.568 293.717 276.129 293.343 276.876C291.833 280.198 290.582 283.632 289.6 287.146H289.225C290.162 283.72 291.383 280.379 292.875 277.156Z" fill="#CFE08B"/>
<path d="M286.044 287.145C282.488 284.811 270.324 283.784 267.424 289.946L286.044 287.145Z" fill="#6EAC8D"/>
<path d="M220.607 290.421C221.584 290.319 222.358 290.069 222.336 289.864C222.314 289.659 221.505 289.576 220.529 289.678C219.552 289.781 218.778 290.03 218.8 290.235C218.821 290.44 219.631 290.524 220.607 290.421Z" fill="#CFE08B"/>
<path d="M318.326 286.305C319.074 285.558 320.384 286.305 321.226 287.332L314.489 287.612C314.957 286.399 316.641 285.745 318.326 286.305Z" fill="#85C28D"/>
<path d="M133.431 292.654C132.714 289.249 131.55 285.952 129.969 282.851C130.18 286.377 131.38 289.774 133.431 292.654Z" fill="#CFE08B"/>
<path d="M133.431 292.654C132.635 289.165 132.32 285.584 132.495 282.01C132.776 280.89 132.963 280.517 133.057 283.131C133.151 285.745 133.9 292.561 133.9 292.561L133.431 292.654Z" fill="#CFE08B"/>
<path d="M292.501 294.055L289.319 294.336L292.501 294.055Z" fill="#6EAC8D"/>
<path d="M337.788 288.919C332.829 287.799 322.349 289.573 315.893 291.347C312.899 290.04 308.033 292.374 303.916 293.214C301.296 291.72 295.027 291.627 290.629 291.534L288.383 294.428H289.319L292.5 294.148H292.781C304.477 295.455 309.717 297.976 318.045 294.988L321.133 294.054C326.625 292.74 332.237 291.989 337.882 291.814L372.316 291.067V287.239C360.339 287.425 344.151 288.266 338.35 289.199L337.788 288.919Z" fill="#549981"/>
<path d="M334.607 271.647H318.887C317.39 269.966 317.203 264.178 321.226 264.551C321.226 260.63 326.841 259.509 327.402 263.337C332.268 261.47 334.139 263.711 333.858 266.232C340.689 263.711 339.753 269.593 334.607 271.647Z" fill="#85C28D"/>
<path d="M372.316 272.394C369.322 270.993 359.777 272.487 360.994 279.116C351.918 278.929 353.695 282.757 353.695 282.757H372.316V272.394Z" fill="#528C75"/>
<path d="M312.15 368H308.594C308.407 366.32 308.314 364.732 308.314 363.892C308.314 363.052 308.594 354.742 308.594 354.742L311.121 355.116C311.173 359.301 311.486 363.48 312.056 367.627L312.15 368Z" fill="#8F516F"/>
<path d="M257.973 351.381C257.973 353.902 258.441 357.17 258.535 358.383C258.628 359.597 259.47 358.944 260.5 357.17C261.231 355.93 261.827 354.615 262.277 353.248C262.374 351.974 262.374 350.695 262.277 349.42L257.973 351.381Z" fill="#5C3A5B"/>
<path d="M296.898 358.29L294.746 363.425L294.372 364.732L293.623 368H292.032L293.155 364.639L293.623 363.238C293.623 363.238 295.308 358.664 295.401 358.103C295.495 357.543 295.027 349.42 295.027 349.42L296.898 349.887C296.992 352.221 296.898 358.29 296.898 358.29Z" fill="#5C3A5B"/>
<path d="M280.43 350.541C280.43 350.541 279.775 358.943 279.307 359.97C278.839 360.997 277.997 365.106 277.249 367.253C277.22 367.509 277.157 367.76 277.061 368H263.4V367.813L264.242 362.211V351.381L280.43 350.541Z" fill="#5C3A5B"/>
<path d="M289.413 334.295C290.348 328.32 291.378 322.531 292.313 320.85C293.249 319.17 293.998 318.236 296.056 315.995C298.115 313.755 296.898 315.248 296.898 316.556C296.898 317.863 295.869 318.61 295.495 320.85C295.12 323.091 294.278 329.907 294.278 329.907L293.623 335.976L289.413 334.295Z" fill="#874D69"/>
<path d="M254.604 362.865C254.324 363.612 253.014 365.852 251.797 368H245.06C246.183 366.133 247.306 363.612 247.306 362.865C247.306 362.118 247.306 352.688 247.306 352.688L251.985 350.541C251.985 350.541 253.107 354.088 253.762 356.796C254.417 359.504 255.259 361.464 254.604 362.865Z" fill="#8F516F"/>
<path d="M372.316 343.912V319.73C343.403 320.197 324.221 323.745 309.062 327.666C291.658 328.226 281.927 330.467 276.781 333.922C258.815 335.882 256.757 337.843 248.054 350.541C245.622 354.088 247.68 353.061 259.096 351.848C270.511 350.634 288.477 350.541 296.898 350.821C303.822 356.983 308.501 357.076 318.045 354.929C325.811 353.248 339.847 350.727 339.847 350.727C353.508 349.607 372.316 348.86 372.316 348.86V343.912Z" fill="#357562"/>
<path d="M341.531 321.877C337.601 315.995 337.882 306.285 343.683 308.339C343.215 299.376 352.198 299.656 352.479 306.379C356.69 302.831 361.555 303.858 359.216 309.46C362.21 307.312 366.702 307.499 366.234 312.821C365.766 318.143 357.999 321.877 357.999 321.877H341.531Z" fill="#75745B"/>
<path d="M352.292 321.037L352.011 320.85C351.962 320.813 351.92 320.767 351.889 320.715C351.858 320.662 351.837 320.603 351.829 320.543C351.82 320.482 351.823 320.42 351.838 320.361C351.854 320.302 351.881 320.246 351.917 320.197C352.581 319.414 353.118 318.532 353.508 317.582C353.578 317.5 353.629 317.403 353.657 317.299C353.686 317.195 353.691 317.086 353.673 316.979C353.656 316.873 353.615 316.771 353.554 316.682C353.493 316.593 353.414 316.518 353.321 316.462C352.853 316.089 351.73 316.089 350.514 317.022C350.428 317.071 350.332 317.097 350.233 317.097C350.135 317.097 350.038 317.071 349.952 317.022C349.869 316.982 349.803 316.911 349.768 316.825C349.734 316.739 349.733 316.642 349.765 316.555C349.765 316.555 350.046 314.968 350.327 311.794C350.514 310.673 350.14 309.833 349.391 309.553C349.203 309.483 348.996 309.481 348.807 309.55C348.619 309.618 348.461 309.752 348.362 309.926L348.081 310.113C347.894 310.207 347.8 310.207 347.707 310.113C347.446 309.982 347.148 309.949 346.865 310.02C346.21 310.393 345.835 311.514 345.742 313.008C345.648 314.501 345.648 313.288 345.461 313.381C345.395 313.434 345.312 313.463 345.227 313.463C345.142 313.463 345.06 313.434 344.993 313.381C344.779 313.192 344.512 313.072 344.227 313.039C343.943 313.006 343.655 313.06 343.403 313.194C343.076 313.369 342.816 313.647 342.664 313.985C342.511 314.323 342.475 314.701 342.56 315.062C342.527 315.166 342.463 315.259 342.377 315.327C342.291 315.396 342.187 315.438 342.077 315.448C341.967 315.458 341.857 315.436 341.76 315.383C341.663 315.331 341.583 315.252 341.531 315.155C341.464 314.589 341.561 314.016 341.81 313.503C342.058 312.99 342.449 312.559 342.935 312.261C343.557 311.994 344.255 311.961 344.9 312.167C345.087 310.207 345.929 309.46 346.397 309.18C346.835 308.967 347.338 308.934 347.8 309.086C348.046 308.854 348.347 308.69 348.675 308.608C349.002 308.526 349.346 308.53 349.672 308.619C350.608 308.899 351.543 309.926 351.356 311.981C351.169 314.035 350.982 314.875 350.888 315.715C351.354 315.435 351.888 315.287 352.432 315.287C352.976 315.287 353.51 315.435 353.976 315.715C354.292 315.984 354.51 316.35 354.594 316.756C354.679 317.161 354.626 317.584 354.444 317.956C354.005 319.007 353.405 319.983 352.666 320.85L352.292 321.037Z" fill="#6B6A47"/>
<path d="M364.737 336.629C364.737 336.629 363.146 330.467 352.198 329.44C341.251 328.413 313.647 334.855 306.255 333.921C298.863 332.988 295.12 337.563 292.781 342.885C287.822 342.698 282.488 344.565 277.249 350.54V350.821C284.828 350.634 292.22 350.634 296.805 350.821C303.729 356.983 308.407 357.076 317.952 354.929C325.718 353.248 339.753 350.727 339.753 350.727C353.415 349.607 372.222 348.86 372.222 348.86V336.629H364.737Z" fill="#3B8264"/>
<path d="M357.345 341.298C355.005 332.895 360.058 321.971 372.316 322.438V341.298H357.345Z" fill="#2F6653"/>
<path d="M298.582 340.457C301.015 330.934 301.202 325.052 309.998 322.064C310.349 317.027 311.131 312.03 312.337 307.126C313.273 303.204 313.834 300.59 319.729 301.711C322.63 302.271 330.49 307.499 330.49 307.499C330.49 307.499 339.66 311.047 342.467 313.008C347.707 316.742 348.736 321.411 349.297 326.733C349.627 329.051 349.752 331.394 349.672 333.735C349.672 333.735 328.057 332.895 298.582 340.457Z" fill="#8483B8"/>
<path d="M315.332 313.194C317.765 313.848 319.355 319.543 319.355 322.251C324.315 322.344 328.244 329.813 328.244 334.482V334.948C335.352 334.071 342.511 333.665 349.672 333.735C349.726 332.645 349.695 331.552 349.578 330.467C347.239 327.853 340.877 328.226 338.444 329.813L336.572 323.745C335.356 319.823 330.209 319.076 324.127 319.076C324.127 319.076 323.005 315.528 321.601 311.887C320.197 308.246 314.958 306.659 312.338 307.125C311.963 308.899 311.495 310.86 311.121 313.008C312.523 312.782 313.956 312.845 315.332 313.194Z" fill="#7978A8"/>
<path d="M324.127 335.416C327.028 331.027 332.455 329.534 335.169 331.214C337.882 332.895 339.566 336.816 339.566 336.816C339.566 336.816 342.186 336.816 342.748 337.75L322.817 339.337C323.379 337.283 323.379 336.629 324.127 335.416Z" fill="#4F5C7D"/>
<path d="M310.653 333.455C306.162 333.268 303.167 338.403 305.975 342.044H314.115C316.454 339.243 315.051 333.735 310.653 333.455Z" fill="#2F6653"/>
<path d="M271.634 330.934L274.254 332.521L277.436 331.494L280.056 328.413L273.974 329.347L271.634 330.934Z" fill="#43435E"/>
<path d="M287.354 322.344C287.728 319.637 289.88 317.302 293.155 318.143C296.43 318.983 296.898 324.865 299.425 326.452C299.425 326.452 299.144 332.428 292.126 332.894L287.354 322.344Z" fill="#B85571"/>
<path d="M290.629 339.617C271.447 340.924 267.985 341.017 267.985 341.017C268.6 338.438 269.414 335.91 270.418 333.455C272.383 332.614 277.529 330.934 277.529 330.934L277.81 330.187C275.736 330.291 273.673 330.541 271.634 330.934C276.5 321.691 282.956 320.85 287.354 322.344C293.155 324.212 295.308 328.04 290.629 339.617Z" fill="#8B8AC2"/>
<path d="M265.739 341.297L284.266 340.084C284.641 339.057 285.015 337.749 285.483 336.442C286.512 333.641 287.354 330.747 284.921 330.093C282.488 329.44 280.711 331.774 279.868 334.388L267.517 335.415C267.236 336.256 266.02 340.177 265.739 341.297Z" fill="#8181B5"/>
<path d="M284.471 333.446C284.882 332.556 284.643 331.572 283.939 331.249C283.234 330.925 282.33 331.385 281.92 332.275C281.51 333.165 281.748 334.149 282.453 334.472C283.157 334.795 284.061 334.336 284.471 333.446Z" fill="#67668F"/>
<path d="M268.64 336.629L267.611 339.99L268.828 339.804L269.576 336.442L268.64 336.629Z" fill="#5C5B80"/>
<path d="M271.26 336.349L270.511 339.617L271.635 339.524L272.29 336.256L271.26 336.349Z" fill="#5C5B80"/>
<path d="M272.102 342.138C274.816 339.15 278.933 338.87 280.524 339.71C282.301 337.656 286.325 337.749 286.418 340.737C278.839 341.204 272.102 342.138 272.102 342.138Z" fill="#2F6653"/>
<path d="M274.161 336.162L273.599 339.337L274.91 339.243L275.471 335.976L274.161 336.162Z" fill="#5C5B80"/>
<path d="M280.056 328.413C277.497 328.445 274.951 328.79 272.476 329.44L271.634 330.934C273.673 330.541 275.736 330.291 277.81 330.187L277.529 330.934C277.529 330.934 272.383 332.615 270.418 333.455C270.251 333.813 270.125 334.189 270.043 334.575L278.746 332.054L280.056 328.413Z" fill="#A5A4DB"/>
<path d="M275.377 321.41L277.155 320.664C277.249 320.664 277.249 320.57 277.155 320.57L275.377 319.823L274.535 318.049L273.693 319.823L271.915 320.57C271.821 320.57 271.821 320.664 271.915 320.664L273.693 321.41L274.535 323.184L275.377 321.41Z" fill="#CCBDFF"/>
<path d="M286.138 322.717C288.29 323.184 289.319 324.585 289.412 325.705C289.506 326.825 287.915 327.012 286.512 325.798C285.108 324.585 283.705 322.157 286.138 322.717Z" fill="#8181B5"/>
<path d="M268.36 335.416L266.956 341.204L265.739 341.298L267.424 335.416H268.36Z" fill="#A5A4DB"/>
<path d="M300.828 368H286.418C288.009 365.666 289.88 364.545 291.845 364.545H294.372C296.992 365.199 299.518 366.226 300.828 368Z" fill="#5C3A5B"/>
<path d="M372.316 352.408V362.585C368.105 365.013 367.45 365.573 366.421 368H344.806C345.217 367.189 345.686 366.409 346.21 365.666C347.8 363.332 348.175 363.052 352.573 360.624C358.953 357.428 365.55 354.682 372.316 352.408Z" fill="#5C3A5B"/>
<path d="M250.3 331.307C249.986 331.62 249.737 331.991 249.567 332.399C249.397 332.808 249.31 333.246 249.31 333.688C249.31 334.131 249.397 334.569 249.567 334.977C249.737 335.386 249.986 335.757 250.3 336.069C252.916 338.939 255.092 342.18 256.757 345.686L258.722 343.258C258.188 339.516 257.214 335.85 255.821 332.334C255.587 331.839 255.239 331.407 254.805 331.073C254.371 330.738 253.863 330.512 253.324 330.412C252.785 330.311 252.23 330.34 251.704 330.496C251.178 330.652 250.697 330.93 250.3 331.307Z" fill="#4B8F69"/>
<path d="M248.99 339.524C255.54 340.924 258.721 343.258 258.721 343.258L256.756 345.686C254.129 344.692 251.332 344.216 248.522 344.285C248.169 344.29 247.819 344.217 247.496 344.072C247.174 343.928 246.886 343.715 246.655 343.448C246.423 343.181 246.253 342.867 246.155 342.528C246.058 342.189 246.035 341.833 246.09 341.484C246.132 341.157 246.244 340.842 246.418 340.56C246.592 340.279 246.823 340.038 247.097 339.852C247.372 339.667 247.682 339.542 248.008 339.485C248.335 339.429 248.669 339.442 248.99 339.524Z" fill="#4B8F69"/>
<path d="M260.032 337.283C259.189 340.55 258.722 343.258 258.722 343.258L255.727 343.631C255.417 341.205 255.512 338.744 256.008 336.349C256.061 336.077 256.171 335.82 256.331 335.593C256.491 335.367 256.697 335.177 256.935 335.036C257.174 334.895 257.44 334.806 257.715 334.775C257.991 334.743 258.27 334.771 258.534 334.855C259.05 334.988 259.494 335.315 259.774 335.768C260.053 336.22 260.145 336.763 260.032 337.283Z" fill="#4B8F69"/>
<path d="M257.131 344.098H256.944C254.135 343.089 251.212 342.431 248.242 342.137C247.961 342.137 247.774 341.857 247.867 341.671C247.867 341.547 247.917 341.428 248.004 341.341C248.092 341.253 248.211 341.204 248.335 341.204C251.093 341.525 253.817 342.088 256.476 342.884C256.102 341.671 254.979 338.963 251.984 333.641C251.94 333.527 251.934 333.401 251.967 333.283C252.001 333.165 252.073 333.061 252.172 332.988C252.218 332.933 252.28 332.893 252.348 332.872C252.417 332.852 252.49 332.851 252.559 332.871C252.628 332.891 252.69 332.93 252.738 332.983C252.785 333.037 252.816 333.104 252.827 333.174C257.412 341.297 257.599 343.538 257.692 343.631C257.7 343.729 257.678 343.826 257.627 343.91C257.577 343.993 257.501 344.059 257.412 344.098H257.131Z" fill="#3B826D"/>
<path d="M257.131 344.098C256.999 344.076 256.879 344.007 256.793 343.905C256.707 343.802 256.661 343.672 256.663 343.538C256.663 343.538 256.944 339.617 257.506 335.976C257.506 335.852 257.555 335.733 257.643 335.645C257.73 335.558 257.85 335.509 257.974 335.509C258.106 335.531 258.226 335.6 258.312 335.703C258.397 335.805 258.444 335.935 258.442 336.069C257.88 339.71 257.693 343.632 257.693 343.632C257.67 343.763 257.602 343.883 257.499 343.969C257.396 344.054 257.265 344.1 257.131 344.098Z" fill="#3B826D"/>
<path d="M358.467 313.475H358.28C358.215 313.455 358.156 313.421 358.105 313.376C358.055 313.33 358.015 313.275 357.989 313.213C357.962 313.15 357.949 313.083 357.951 313.016C357.953 312.948 357.969 312.882 357.999 312.821C358.467 311.887 358.374 311.607 358.28 311.607C358.187 311.607 357.345 311.421 356.783 311.421H356.596C356.462 311.422 356.332 311.376 356.229 311.291C356.126 311.205 356.057 311.086 356.035 310.954C356.035 310.674 355.941 310.113 355.567 310.02C355.192 309.927 354.163 310.58 353.789 312.074C353.732 312.196 353.638 312.298 353.521 312.364C353.403 312.431 353.268 312.46 353.134 312.448C353.019 312.388 352.928 312.29 352.876 312.171C352.825 312.052 352.817 311.919 352.853 311.794C353.321 309.927 354.631 308.993 355.66 309.086C356.002 309.146 356.314 309.314 356.551 309.567C356.787 309.82 356.935 310.143 356.97 310.487C357.906 310.394 358.748 310.487 359.122 311.047C359.497 311.607 359.403 312.168 358.842 313.195C358.28 314.222 358.654 313.475 358.467 313.475Z" fill="#6B6A47"/>
<path d="M170.672 311.234C166.563 311.186 162.464 310.812 158.415 310.113C157.977 312.335 156.705 314.306 154.859 315.622C154.682 315.746 154.549 315.922 154.478 316.126C154.407 316.33 154.402 316.551 154.464 316.758C154.526 316.964 154.652 317.146 154.824 317.278C154.996 317.409 155.204 317.483 155.42 317.489C161.035 317.956 164.497 318.049 168.707 316.742C169.114 316.614 169.474 316.368 169.741 316.036C170.007 315.703 170.169 315.299 170.204 314.875L170.672 311.234Z" fill="#BBD0FF"/>
<path d="M159.537 310.113C158.508 312.448 156.917 314.875 158.321 314.968C159.724 315.062 161.689 312.168 161.97 310.86C162.251 309.553 159.537 310.113 159.537 310.113Z" fill="#DEE8FF"/>
<path d="M181.9 324.585C186.017 322.905 188.825 321.598 190.602 318.797C190.968 318.277 191.164 317.658 191.164 317.023C191.257 315.435 191.257 313.848 191.351 312.448C189.012 314.128 185.175 315.155 178.906 314.595C178.774 317.289 178.303 319.955 177.503 322.531C176.661 325.799 177.409 326.453 181.9 324.585Z" fill="#BBD0FF"/>
<path d="M189.613 315.479C189.915 314.332 189.632 313.264 188.982 313.094C188.332 312.924 187.561 313.716 187.259 314.863C186.957 316.01 187.24 317.078 187.89 317.248C188.54 317.418 189.311 316.626 189.613 315.479Z" fill="#66A8FF"/>
<path d="M167.628 312.378C167.929 311.231 167.404 310.099 166.454 309.851C165.504 309.602 164.49 310.33 164.188 311.478C163.887 312.625 164.412 313.756 165.362 314.005C166.312 314.253 167.326 313.525 167.628 312.378Z" fill="#66A8FF"/>
<path d="M181.152 314.501C180.871 318.423 179.655 320.757 181.807 320.29C183.959 319.823 185.082 318.423 185.175 314.128L181.152 314.501Z" fill="#DEE8FF"/>
<path d="M203.141 283.598C186.298 285.932 186.298 298.909 186.673 302.924C188.918 302.551 190.883 302.271 192.287 301.897L196.497 301.15L197.059 295.548C208.381 291.44 216.428 287.052 219.142 285.185C221.855 283.317 223.071 280.797 203.141 283.598Z" fill="#5FA38B"/>
<path d="M206.322 277.342C199.492 283.598 173.198 298.443 173.198 298.443L171.795 311.888C166.933 311.835 162.084 311.398 157.292 310.58C157.385 310.207 157.385 309.833 157.479 309.367C158.414 299.283 159.257 292.094 161.783 287.986C164.309 283.878 176.38 278.276 176.38 278.276L206.322 277.342Z" fill="#2F3A52"/>
<path d="M204.732 277.342L176.38 278.276L173.292 279.676C177.596 281.637 181.9 283.504 182.275 293.214C190.415 288.359 201.644 281.45 206.135 277.529L204.732 277.342Z" fill="#242F47"/>
<path d="M206.603 285.652C206.322 289.947 202.299 293.401 193.035 297.416C193.035 297.416 192.848 303.391 192.474 312.448C189.854 314.408 185.363 315.529 178.064 314.969H177.971C178.048 314.727 178.079 314.474 178.064 314.222C178.064 313.755 177.971 313.288 177.971 312.821C177.783 307.499 177.503 300.31 177.596 296.669C177.783 290.413 177.222 288.079 190.322 283.411L206.322 277.342C206.662 280.098 206.756 282.879 206.603 285.652Z" fill="#2F3A52"/>
<path d="M206.603 285.652C206.756 282.879 206.662 280.098 206.322 277.342L190.228 283.411L187.795 284.345C196.31 283.504 198.088 287.613 197.059 295.549C203.515 292.281 206.322 289.2 206.603 285.652Z" fill="#242F47"/>
<path d="M241.505 291.907C248.741 288.094 256.175 284.665 263.774 281.637C264.023 281.587 264.241 281.441 264.381 281.231C264.522 281.021 264.573 280.764 264.523 280.516C264.473 280.269 264.327 280.051 264.117 279.911C263.906 279.771 263.648 279.72 263.4 279.769C253.669 279.956 241.505 281.263 241.505 281.263V291.907Z" fill="#5FA38B"/>
<path d="M254.604 254.561H232.99L230.183 282.197L243.75 284.158C245.569 284.515 247.417 284.703 249.271 284.718C250.154 284.687 251.017 284.441 251.783 284.002C252.55 283.562 253.197 282.943 253.669 282.197C256.944 276.875 257.131 271.927 257.131 267.259C256.993 262.917 256.139 258.627 254.604 254.561Z" fill="white"/>
<path d="M233.738 272.394L231.118 273.328L230.183 282.197L243.75 284.158C245.569 284.515 247.417 284.703 249.271 284.718C250.154 284.687 251.017 284.441 251.783 284.002C252.55 283.563 253.197 282.943 253.669 282.197C255.327 279.498 256.381 276.472 256.757 273.328C252.172 271.834 243.282 270.9 233.738 272.394Z" fill="#2F4E75"/>
<path d="M232.335 256.802C227.001 259.976 225.504 262.59 225.504 262.59L230.37 266.698L236.452 262.59L232.335 256.802Z" fill="white"/>
<path d="M244.873 210.773C237.575 210.493 236.639 219.829 238.698 230.38L248.055 229.819C252.733 218.522 252.172 210.959 244.873 210.773Z" fill="url(#paint4_linear_1814_59782)"/>
<path d="M245.248 228.792H245.154C245.084 228.802 245.013 228.792 244.949 228.763C244.884 228.734 244.83 228.688 244.79 228.629C244.751 228.571 244.73 228.503 244.728 228.432C244.726 228.362 244.744 228.292 244.78 228.232C245.118 225.367 245.649 222.529 246.371 219.736C246.413 219.628 246.494 219.54 246.598 219.488C246.702 219.436 246.821 219.425 246.933 219.456C246.997 219.476 247.057 219.509 247.107 219.555C247.158 219.6 247.198 219.656 247.224 219.718C247.251 219.78 247.264 219.847 247.262 219.915C247.26 219.982 247.244 220.049 247.214 220.109C246.558 222.849 246.058 225.623 245.716 228.419C245.673 228.514 245.609 228.597 245.527 228.662C245.446 228.727 245.35 228.771 245.248 228.792Z" fill="#8C1C9C"/>
<path d="M251.049 217.495C250.862 216.001 250.3 215.068 249.458 214.881C248.616 214.694 245.715 216.001 244.78 217.682L244.406 217.869C244.312 217.962 244.125 217.869 244.031 217.775C243.81 217.451 243.492 217.204 243.123 217.07C242.753 216.936 242.351 216.921 241.973 217.028C240.569 217.775 239.634 221.23 241.131 228.699C241.224 228.886 241.037 229.166 240.756 229.259H240.663C240.561 229.238 240.465 229.194 240.384 229.129C240.302 229.064 240.238 228.981 240.195 228.886C238.791 221.977 239.259 217.402 241.505 216.188C241.966 215.975 242.48 215.906 242.981 215.989C243.481 216.073 243.945 216.305 244.312 216.655C245.528 214.881 247.868 213.387 249.739 213.947L250.394 214.321C250.784 215.336 251.005 216.408 251.049 217.495Z" fill="#8C1C9C"/>
<path d="M245.907 258.282C262.417 257.332 275.409 249.801 274.927 241.462C274.446 233.122 260.671 227.132 244.162 228.081C227.653 229.031 214.66 236.562 215.142 244.901C215.624 253.241 229.398 259.232 245.907 258.282Z" fill="url(#paint5_linear_1814_59782)"/>
<path d="M252.118 250.981C254.17 250.733 255.703 249.453 255.542 248.122C255.38 246.791 253.586 245.913 251.534 246.161C249.481 246.409 247.949 247.688 248.11 249.019C248.272 250.35 250.066 251.228 252.118 250.981Z" fill="#9B28AB"/>
<path d="M228.613 250.711C228.828 249.597 227.357 248.378 225.327 247.988C223.297 247.598 221.477 248.185 221.262 249.299C221.047 250.413 222.519 251.632 224.548 252.022C226.578 252.412 228.398 251.825 228.613 250.711Z" fill="#A72CB8"/>
<path d="M230.37 252.32H230.183C228.961 252.183 227.779 251.808 226.704 251.215C225.628 250.622 224.68 249.824 223.913 248.865C220.919 245.411 220.358 240.929 222.416 238.689C222.846 238.262 223.357 237.926 223.92 237.701C224.483 237.476 225.085 237.368 225.691 237.382C226.907 237.458 228.094 237.788 229.174 238.351C230.253 238.914 231.203 239.697 231.96 240.649C235.142 244.104 235.797 248.865 233.457 251.106C232.627 251.898 231.518 252.333 230.37 252.32ZM225.691 238.315C225.221 238.295 224.752 238.377 224.316 238.554C223.88 238.731 223.487 239 223.165 239.342C221.387 241.21 222.042 245.224 224.662 248.212C226.008 249.958 227.993 251.1 230.183 251.386C231.145 251.433 232.087 251.097 232.803 250.453C234.768 248.492 234.019 244.384 231.305 241.303C230.622 240.45 229.772 239.746 228.807 239.232C227.842 238.718 226.781 238.406 225.691 238.315Z" fill="#F0C795"/>
<path d="M221.762 243.824C221.637 243.824 221.518 243.774 221.431 243.687C221.343 243.599 221.294 243.481 221.294 243.357C221.122 242.544 221.134 241.704 221.328 240.897C221.523 240.089 221.895 239.335 222.417 238.689C222.52 238.597 222.653 238.546 222.791 238.546C222.929 238.546 223.063 238.597 223.166 238.689C223.353 238.782 223.353 239.155 223.166 239.342C222.707 239.874 222.382 240.507 222.22 241.189C222.057 241.872 222.06 242.583 222.23 243.263C222.243 243.325 222.244 243.388 222.233 243.45C222.221 243.512 222.197 243.571 222.162 243.623C222.127 243.675 222.082 243.72 222.029 243.755C221.976 243.789 221.917 243.813 221.855 243.824H221.762Z" fill="white"/>
<path d="M244.125 251.854C243.008 251.875 241.918 251.512 241.037 250.827C238.417 248.679 238.604 243.917 241.411 239.996C242.906 237.73 245.218 236.125 247.868 235.515C249.207 235.288 250.583 235.589 251.704 236.355C252.266 236.751 252.734 237.266 253.073 237.863C253.413 238.46 253.616 239.125 253.669 239.809C253.81 241.191 253.675 242.587 253.274 243.917C252.872 245.247 252.212 246.484 251.33 247.559C250.589 248.654 249.636 249.589 248.527 250.311C247.419 251.032 246.176 251.525 244.874 251.76L244.125 251.854ZM242.16 240.556C239.727 244.011 239.446 248.306 241.692 250.08C242.12 250.422 242.619 250.667 243.153 250.796C243.686 250.925 244.242 250.936 244.78 250.827C247.142 250.36 249.226 248.985 250.581 246.999C252.266 244.758 253.108 242.144 252.733 239.996C252.683 239.43 252.516 238.881 252.242 238.383C251.968 237.884 251.594 237.448 251.143 237.102C250.237 236.493 249.13 236.258 248.055 236.448C245.64 237.025 243.534 238.493 242.16 240.556Z" fill="#F0C795"/>
<path d="M240.569 242.797H240.382C240.325 242.768 240.275 242.727 240.235 242.678C240.194 242.629 240.164 242.572 240.147 242.511C240.129 242.449 240.125 242.385 240.133 242.322C240.141 242.259 240.162 242.198 240.195 242.144C240.508 241.38 240.917 240.658 241.411 239.996C241.964 239.166 242.625 238.413 243.376 237.755C243.481 237.7 243.601 237.679 243.719 237.696C243.837 237.712 243.946 237.766 244.031 237.849C244.117 237.936 244.165 238.053 244.165 238.176C244.165 238.298 244.117 238.415 244.031 238.502C243.337 239.12 242.71 239.808 242.16 240.556C241.716 241.168 241.34 241.825 241.037 242.517C240.998 242.607 240.932 242.682 240.848 242.732C240.764 242.782 240.667 242.805 240.569 242.797Z" fill="white"/>
<path d="M243.283 245.785C244.404 244.632 245.893 243.906 247.493 243.73" stroke="#2B2F33" stroke-width="2.08463" stroke-miterlimit="10" stroke-linecap="round"/>
<path d="M230.744 247.559C230.499 247.546 230.267 247.447 230.089 247.279C229.7 246.844 229.224 246.496 228.693 246.254C228.161 246.013 227.585 245.885 227.001 245.878C226.752 245.837 226.525 245.713 226.355 245.527C226.185 245.34 226.083 245.102 226.065 244.851C226.089 244.595 226.208 244.357 226.398 244.185C226.589 244.012 226.837 243.916 227.095 243.917C228.711 243.988 230.245 244.653 231.399 245.785C231.505 245.866 231.592 245.968 231.655 246.085C231.718 246.202 231.755 246.331 231.764 246.464C231.772 246.596 231.753 246.729 231.706 246.854C231.659 246.978 231.587 247.091 231.493 247.185C231.301 247.401 231.032 247.535 230.744 247.559Z" fill="#2B2F33"/>
<path d="M237.294 252.881C236.747 252.851 236.222 252.656 235.788 252.323C235.353 251.99 235.03 251.533 234.861 251.013C234.831 250.953 234.814 250.886 234.812 250.819C234.811 250.751 234.823 250.684 234.85 250.622C234.877 250.56 234.917 250.504 234.967 250.459C235.017 250.414 235.077 250.38 235.142 250.36C235.423 250.173 235.703 250.36 235.89 250.64C235.984 250.946 236.168 251.217 236.418 251.417C236.669 251.617 236.974 251.736 237.294 251.76C237.855 251.76 238.323 251.293 238.604 250.453C238.665 250.313 238.774 250.2 238.911 250.131C239.047 250.063 239.204 250.045 239.353 250.08C239.417 250.1 239.477 250.133 239.527 250.179C239.578 250.224 239.618 250.28 239.644 250.342C239.671 250.404 239.684 250.471 239.682 250.539C239.68 250.606 239.663 250.673 239.633 250.733C239.533 251.297 239.25 251.813 238.827 252.201C238.405 252.589 237.866 252.828 237.294 252.881Z" fill="#782AA1"/>
<path d="M246.745 258.202L233.083 262.87L222.229 258.856C222.136 258.762 222.042 258.949 222.136 259.042L229.996 270.246L230.463 270.526L240.569 274.821L254.043 270.62C254.105 270.613 254.164 270.59 254.215 270.555C254.267 270.519 254.308 270.471 254.336 270.416C254.364 270.36 254.377 270.298 254.375 270.236C254.373 270.174 254.355 270.113 254.324 270.059L247.306 258.482C247.244 258.392 247.159 258.32 247.061 258.271C246.963 258.222 246.854 258.198 246.745 258.202Z" fill="#4F9BFF"/>
<path d="M232.803 261.003C233.832 257.642 238.791 255.681 242.815 255.868L244.593 258.949L233.083 262.871L232.803 261.003Z" fill="#E0C26E"/>
<path d="M240.569 274.821L233.083 262.87L246.745 258.202C246.854 258.198 246.963 258.222 247.061 258.271C247.159 258.32 247.243 258.392 247.306 258.482L254.324 270.059C254.355 270.113 254.373 270.174 254.375 270.236C254.377 270.298 254.364 270.36 254.336 270.416C254.308 270.471 254.266 270.519 254.215 270.555C254.164 270.59 254.105 270.613 254.043 270.62L240.569 274.821Z" fill="#4781FF"/>
<path d="M222.604 258.949L223.352 257.829C223.495 257.626 223.688 257.465 223.914 257.362C227.937 256.242 231.68 259.043 232.803 261.003C235.516 257.829 241.692 255.961 245.341 257.175C245.528 257.175 245.622 257.269 245.715 257.455L246.277 258.389L233.083 262.871L222.604 258.949Z" fill="#FFEB9E"/>
<path d="M226.066 274.168C226.533 282.757 226.627 287.146 226.44 289.76C226.253 292.374 225.785 294.708 228.592 294.428C231.399 294.148 232.616 293.121 234.206 290.787C235.797 288.453 236.358 277.436 236.265 273.047C236.171 268.659 233.926 266.325 230.37 266.699C226.814 267.072 225.878 269.593 226.066 274.168Z" fill="url(#paint6_linear_1814_59782)"/>
<path d="M226.44 281.357C226.533 285.465 226.533 287.986 226.44 289.76C226.346 291.534 225.785 294.708 228.592 294.428C231.399 294.148 232.616 293.121 234.206 290.787C235.797 288.453 235.61 285.652 235.984 281.73C232.896 279.396 228.498 279.77 226.44 281.357Z" fill="#FFF7D4"/>
<path d="M228.592 294.428C231.493 294.148 232.616 293.121 234.206 290.787C234.369 290.525 234.495 290.243 234.581 289.947C234.399 289.905 234.21 289.908 234.03 289.957C233.851 290.006 233.686 290.099 233.551 290.227C231.399 292.187 227.095 292.281 226.346 290.227C226.253 292.654 225.972 294.615 228.592 294.428Z" fill="#1A2D3B"/>
<path d="M234.955 283.317C235.423 283.411 235.423 283.878 235.703 283.878C235.72 283.375 235.782 282.875 235.891 282.384C232.054 280.89 229.06 280.703 226.44 282.384V283.224C227.768 282.574 229.23 282.243 230.709 282.26C232.187 282.276 233.642 282.638 234.955 283.317Z" fill="#FC5199"/>
<path d="M249.271 284.718C250.23 284.661 251.159 284.364 251.972 283.854C252.785 283.343 253.456 282.636 253.923 281.798C254.39 280.96 254.637 280.019 254.641 279.06C254.646 278.102 254.408 277.157 253.95 276.315C250.955 270.526 247.212 265.578 242.347 266.232C237.481 266.885 235.984 271.18 233.832 289.013C233.671 290.339 233.041 291.564 232.054 292.467C231.603 292.927 231.196 293.427 230.838 293.961C229.996 295.268 236.639 293.868 241.224 291.907C241.447 291.792 241.645 291.634 241.806 291.442C241.967 291.249 242.087 291.026 242.16 290.787C243.75 284.624 243.75 284.158 243.75 284.158C245.569 284.515 247.417 284.703 249.271 284.718Z" fill="url(#paint7_linear_1814_59782)"/>
<path d="M246.839 273.514C246.772 273.484 246.699 273.471 246.625 273.474C246.552 273.478 246.481 273.499 246.417 273.535C246.353 273.572 246.299 273.622 246.258 273.684C246.218 273.745 246.192 273.815 246.184 273.887C245.997 274.914 245.248 279.116 244.967 280.05C244.686 280.983 243.938 284.158 243.938 284.158L244.686 284.344C245.668 281.235 246.388 278.05 246.839 274.821C246.938 274.617 246.99 274.394 246.99 274.168C246.99 273.941 246.938 273.718 246.839 273.514Z" fill="#9B28AB"/>
<path d="M253.949 276.315C252.265 273.047 250.3 269.966 247.961 268.099C250.207 270.433 249.271 276.875 244.967 280.05L243.938 284.158C245.693 284.519 247.479 284.707 249.271 284.718C250.23 284.662 251.159 284.364 251.972 283.854C252.785 283.344 253.456 282.637 253.923 281.799C254.389 280.961 254.636 280.019 254.641 279.06C254.646 278.102 254.408 277.158 253.949 276.315Z" fill="#2F4E75"/>
<path d="M255.353 256.802L253.388 257.175L253.762 262.404L247.493 262.03C242.628 261.75 242.721 264.271 245.341 265.671C247.961 267.072 256.944 271.18 260.312 269.313C263.681 267.445 261.435 262.124 255.353 256.802Z" fill="#9E2FAD"/>
<path d="M228.685 263.617C228.218 262.964 227.656 262.59 226.159 262.777C224.662 262.964 222.229 263.804 221.481 265.111C220.732 266.418 221.293 270.526 227.001 267.072C229.434 265.578 229.247 264.458 228.685 263.617Z" fill="#9E2FAD"/>
<path d="M232.335 262.684L233.083 262.87L233.739 262.684L232.803 261.843L232.335 262.684Z" fill="#E0C26E"/>
<path d="M234.955 280.05C234.581 282.57 234.206 285.558 233.738 289.013C233.69 289.592 233.524 290.156 233.25 290.669C232.977 291.183 232.602 291.636 232.148 292C231.345 292.512 230.774 293.316 230.557 294.241C230.183 295.735 236.546 293.961 241.224 292C241.468 291.901 241.687 291.75 241.865 291.556C242.043 291.362 242.176 291.131 242.253 290.88L244.686 281.077C242.976 279.822 240.914 279.136 238.791 279.116C237.453 279.092 236.132 279.414 234.955 280.05Z" fill="#FFFAE6"/>
<path d="M234.768 281.357C236.359 280.806 238.057 280.628 239.729 280.839C241.401 281.049 243.001 281.642 244.405 282.571L244.125 283.504C241.785 282.384 237.949 281.17 234.581 282.384L234.768 281.357Z" fill="#FC5199"/>
<path d="M233.083 290.973H232.99C232.755 291.379 232.436 291.729 232.054 292C231.212 292.747 230.464 293.214 230.37 294.334C230.276 295.455 236.546 293.961 241.224 292C241.468 291.901 241.687 291.749 241.865 291.556C242.043 291.362 242.176 291.131 242.253 290.88C242.334 290.402 242.459 289.934 242.628 289.479C239.732 291.113 236.341 291.643 233.083 290.973Z" fill="#1A2D3B"/>
<path d="M246.09 279.023L244.967 280.05C244.78 280.984 243.938 284.158 243.938 284.158L244.686 284.345C245.276 282.605 245.745 280.827 246.09 279.023Z" fill="#2D415C"/>
<path d="M251.891 272.3H251.517C252.329 273.456 253.048 274.673 253.669 275.942L254.512 275.475C253.88 274.239 252.986 273.155 251.891 272.3Z" fill="#2D415C"/>
<path d="M255.353 256.802L253.388 257.175L251.797 261.937L253.762 262.404H255.54C256.68 261.559 257.867 260.779 259.096 260.07C258.021 258.798 256.759 257.696 255.353 256.802Z" fill="white"/>
<path d="M255.54 262.497H257.693C258.629 262.59 258.535 261.75 257.693 261.75L256.195 261.937L255.54 262.497Z" fill="#8C1C9C"/>
<path d="M173.198 298.443C173.292 297.136 173.573 294.708 173.573 293.774C173.573 292.841 174.696 292.281 174.696 293.308C174.696 294.335 174.509 296.109 174.322 297.883L173.198 298.443Z" fill="#202A40"/>
<path d="M194.159 291.16C193.784 290.04 193.035 291.16 193.035 292.374C193.035 293.587 193.129 295.081 193.035 297.415L194.252 296.855C194.57 294.967 194.538 293.037 194.159 291.16Z" fill="#202A40"/>
<path d="M193.036 285.465C192.868 285.462 192.703 285.417 192.556 285.336C192.41 285.255 192.285 285.139 192.193 284.998C190.416 282.384 188.638 279.77 186.766 277.249C186.632 277.029 186.577 276.77 186.611 276.515C186.645 276.26 186.766 276.025 186.954 275.848C187.178 275.704 187.45 275.653 187.712 275.705C187.974 275.757 188.205 275.909 188.357 276.128C190.229 278.556 192.1 281.17 193.878 283.878C194.022 284.102 194.074 284.373 194.021 284.635C193.969 284.896 193.817 285.127 193.597 285.278L193.036 285.465Z" fill="#BF9A5D"/>
<path d="M207.164 252.974C203.422 251.573 198.182 250.92 190.696 251.387C183.21 251.854 179.935 252.6 176.473 254.001C171.888 264.271 172.824 272.021 176.38 278.276C181.511 280.461 187.101 281.359 192.661 280.89C197.901 280.61 202.954 279.957 206.416 278.463C209.691 269.126 210.439 258.483 207.164 252.974Z" fill="#FFDB9E"/>
<path d="M182.556 264.738L176.848 264.178C176.567 264.084 176.38 263.897 176.38 263.711C176.408 262.355 176.596 261.007 176.941 259.696C177.035 259.509 177.316 259.323 177.503 259.416C177.69 259.509 177.971 259.696 177.877 259.976C177.586 261.042 177.429 262.14 177.409 263.244L182.088 263.711C182.162 262.506 182.382 261.315 182.743 260.163C182.743 259.976 183.023 259.789 183.304 259.883C183.366 259.894 183.425 259.917 183.478 259.952C183.531 259.986 183.576 260.031 183.611 260.083C183.646 260.136 183.67 260.194 183.681 260.256C183.693 260.318 183.692 260.382 183.678 260.443C183.313 261.689 183.093 262.974 183.023 264.271C183.023 264.458 183.023 264.551 182.836 264.644L182.556 264.738Z" fill="#F0B576"/>
<path d="M185.924 280.33C185.8 280.33 185.681 280.281 185.593 280.193C185.506 280.105 185.456 279.987 185.456 279.863C183.866 265.671 185.55 260.536 188.263 254.467C188.313 254.344 188.41 254.245 188.533 254.192C188.656 254.139 188.794 254.138 188.918 254.187C189.043 254.237 189.142 254.334 189.194 254.456C189.247 254.579 189.249 254.717 189.199 254.841C186.486 260.816 184.895 265.765 186.392 279.769C186.394 279.903 186.348 280.033 186.262 280.136C186.176 280.239 186.056 280.307 185.924 280.33Z" fill="#F0B576"/>
<path d="M167.584 229.353C167.771 234.021 179.468 234.768 179.468 234.768L180.591 230.566L167.584 229.353Z" fill="#0E2369"/>
<path d="M196.883 222.999L196.903 222.907C197.01 222.403 196.688 221.907 196.182 221.8L193.592 221.251C193.086 221.143 192.59 221.465 192.482 221.97L192.463 222.061C192.355 222.565 192.678 223.061 193.183 223.168L195.774 223.718C196.279 223.825 196.776 223.503 196.883 222.999Z" fill="#1839AD"/>
<path d="M176.567 245.785C179.409 245.785 181.713 243.486 181.713 240.65C181.713 237.814 179.409 235.515 176.567 235.515C173.725 235.515 171.421 237.814 171.421 240.65C171.421 243.486 173.725 245.785 176.567 245.785Z" fill="#63A6FF"/>
<path d="M190.79 255.495C199.937 255.495 207.352 248.096 207.352 238.969C207.352 229.842 199.937 222.443 190.79 222.443C181.643 222.443 174.228 229.842 174.228 238.969C174.228 248.096 181.643 255.495 190.79 255.495Z" fill="#365DEC"/>
<path d="M181.62 225.244C179.601 226.582 177.901 228.346 176.64 230.411C175.379 232.475 174.587 234.791 174.321 237.195C187.702 237.662 197.34 233.087 199.211 231.313C201.082 229.539 189.292 227.111 181.62 225.244Z" fill="#1839AD"/>
<path d="M185.269 245.504H185.082C184.47 245.446 183.888 245.213 183.407 244.832C182.925 244.45 182.564 243.938 182.368 243.357C182.305 243.158 182.317 242.943 182.404 242.754C182.49 242.564 182.644 242.413 182.836 242.33C183.035 242.285 183.244 242.307 183.429 242.391C183.615 242.475 183.768 242.618 183.865 242.797C183.948 243.101 184.114 243.377 184.346 243.591C184.577 243.806 184.865 243.951 185.175 244.011C185.573 243.971 185.954 243.829 186.282 243.6C186.609 243.372 186.873 243.063 187.047 242.704C187.096 242.618 187.162 242.542 187.24 242.482C187.318 242.421 187.408 242.377 187.503 242.351C187.599 242.325 187.699 242.318 187.797 242.33C187.895 242.343 187.99 242.374 188.076 242.423C188.162 242.472 188.238 242.538 188.298 242.616C188.359 242.694 188.403 242.784 188.43 242.879C188.456 242.974 188.463 243.074 188.45 243.172C188.438 243.27 188.406 243.365 188.357 243.45C188.073 244.037 187.637 244.537 187.094 244.898C186.551 245.26 185.921 245.469 185.269 245.504Z" fill="#1839AD"/>
<path d="M205.574 245.785C208.674 245.785 211.188 243.277 211.188 240.183C211.188 237.089 208.674 234.581 205.574 234.581C202.473 234.581 199.959 237.089 199.959 240.183C199.959 243.277 202.473 245.785 205.574 245.785Z" fill="#4293FF"/>
<path d="M210.412 240.487C210.59 238.535 209.692 236.858 208.405 236.742C207.118 236.625 205.931 238.112 205.753 240.063C205.575 242.015 206.474 243.691 207.761 243.808C209.047 243.925 210.234 242.438 210.412 240.487Z" fill="#66A8FF"/>
<path d="M190.883 222.163C188.162 222.125 185.475 222.773 183.071 224.046C180.666 225.319 178.623 227.176 177.128 229.446C183.398 230.006 202.486 232.34 206.135 232.807C203.702 226.831 197.807 222.163 190.883 222.163Z" fill="url(#paint8_linear_1814_59782)"/>
<path d="M197.808 233.367H197.62C197.527 233.367 185.924 231.686 168.333 230.286C168.222 230.274 168.115 230.241 168.017 230.188C167.919 230.134 167.833 230.062 167.763 229.975C167.694 229.888 167.642 229.789 167.611 229.682C167.58 229.575 167.571 229.463 167.584 229.352C167.581 229.236 167.604 229.121 167.653 229.016C167.701 228.91 167.774 228.818 167.865 228.745C167.956 228.673 168.062 228.622 168.176 228.598C168.29 228.574 168.407 228.576 168.52 228.605C186.111 230.006 197.808 231.686 197.901 231.686C198.123 231.749 198.318 231.884 198.454 232.071C198.589 232.257 198.658 232.483 198.65 232.713C198.593 232.895 198.482 233.055 198.331 233.172C198.181 233.289 197.998 233.357 197.808 233.367Z" fill="#0E2369"/>
<path d="M181.339 239.809H181.058C180.745 239.629 180.39 239.534 180.029 239.534C179.668 239.534 179.313 239.629 179 239.809C178.908 239.856 178.808 239.883 178.706 239.889C178.603 239.896 178.5 239.881 178.404 239.846C178.307 239.811 178.219 239.756 178.144 239.686C178.07 239.615 178.011 239.53 177.971 239.436C177.921 239.35 177.888 239.255 177.875 239.157C177.862 239.059 177.869 238.959 177.895 238.864C177.921 238.768 177.966 238.679 178.027 238.601C178.088 238.522 178.165 238.457 178.251 238.409C178.786 238.131 179.379 237.985 179.982 237.985C180.585 237.985 181.179 238.131 181.713 238.409C181.808 238.449 181.893 238.508 181.964 238.582C182.035 238.657 182.089 238.745 182.124 238.841C182.159 238.937 182.174 239.04 182.168 239.142C182.162 239.245 182.134 239.344 182.087 239.436C182 239.552 181.887 239.646 181.757 239.711C181.627 239.775 181.484 239.809 181.339 239.809Z" fill="#13212B"/>
<path d="M192.193 239.809H191.819C191.524 239.627 191.183 239.531 190.836 239.531C190.489 239.531 190.149 239.627 189.854 239.809C189.768 239.859 189.673 239.891 189.575 239.904C189.476 239.917 189.376 239.91 189.28 239.884C189.185 239.858 189.095 239.813 189.017 239.752C188.938 239.691 188.873 239.616 188.825 239.529C188.755 239.446 188.704 239.35 188.676 239.246C188.647 239.141 188.642 239.032 188.659 238.926C188.677 238.819 188.718 238.718 188.779 238.629C188.84 238.539 188.919 238.464 189.012 238.409C189.549 238.088 190.163 237.918 190.79 237.918C191.416 237.918 192.03 238.088 192.567 238.409C192.733 238.537 192.851 238.717 192.902 238.92C192.953 239.124 192.934 239.338 192.848 239.529C192.771 239.626 192.671 239.703 192.556 239.752C192.442 239.801 192.317 239.821 192.193 239.809Z" fill="#13212B"/>
<path d="M187.819 227.385C188.722 226.613 188.99 225.448 188.418 224.782C187.846 224.117 186.651 224.203 185.748 224.975C184.846 225.747 184.578 226.912 185.149 227.578C185.721 228.244 186.916 228.157 187.819 227.385Z" fill="#CCBDFF"/>
<path d="M207.258 252.974C202.392 252.88 199.585 259.509 199.305 268.659C199.305 268.659 191.632 269.686 186.86 270.806C182.088 271.927 180.684 274.728 180.965 277.062C181.246 279.396 183.304 281.73 189.76 281.73H191.913L195.936 281.357C209.784 279.676 216.147 272.86 215.679 265.205C215.399 259.883 213.434 255.401 207.258 252.974Z" fill="#365DEC"/>
<path d="M185.924 275.475C185.765 275.476 185.608 275.443 185.463 275.378C185.318 275.314 185.188 275.22 185.082 275.102L181.526 270.62C181.437 270.52 181.371 270.401 181.331 270.273C181.292 270.145 181.281 270.01 181.299 269.877C181.316 269.744 181.363 269.617 181.434 269.503C181.506 269.39 181.601 269.293 181.713 269.219C181.916 269.054 182.173 268.972 182.434 268.99C182.694 269.007 182.939 269.122 183.117 269.313C184.333 270.807 185.55 272.301 186.673 273.888C186.762 273.988 186.828 274.106 186.867 274.234C186.907 274.363 186.918 274.498 186.9 274.631C186.882 274.764 186.836 274.891 186.765 275.005C186.693 275.118 186.598 275.215 186.485 275.288L185.924 275.475Z" fill="#BF9A5D"/>
<path d="M185.83 265.111C184.333 263.711 180.497 263.524 174.976 265.298C174.884 261.387 175.518 257.494 176.848 253.814C167.397 256.615 162.625 265.858 165.526 272.02C168.426 278.182 175.257 276.595 180.31 274.541C189.573 270.62 188.17 267.165 185.83 265.111Z" fill="#365DEC"/>
<path d="M179.28 267.352C179.143 267.358 179.006 267.336 178.878 267.288C178.749 267.24 178.632 267.166 178.532 267.072C164.316 250.652 146.431 237.795 126.32 229.539C126.075 229.436 125.88 229.242 125.776 228.998C125.671 228.755 125.665 228.48 125.758 228.232C125.878 228.002 126.074 227.82 126.313 227.718C126.552 227.616 126.819 227.6 127.068 227.672C147.482 236.03 165.629 249.082 180.029 265.765C180.194 265.967 180.277 266.224 180.259 266.484C180.242 266.744 180.126 266.987 179.935 267.165C179.748 267.308 179.514 267.374 179.28 267.352Z" fill="#BF9A5D"/>
<path d="M199.304 268.659L202.392 268.286C203.796 268.193 203.328 266.792 202.392 267.072L199.304 267.819V268.659Z" fill="#1A3EBD"/>
<path d="M170.298 265.485C168.52 265.671 168.52 267.539 170.111 266.885C171.688 266.23 173.315 265.699 174.976 265.298V264.924L170.298 265.485Z" fill="#1A3EBD"/>
<path d="M196.966 266.605H196.872L190.229 265.858C190.121 265.836 190.025 265.778 189.957 265.693C189.888 265.607 189.852 265.501 189.854 265.391C189.82 264.069 189.977 262.748 190.322 261.47C190.379 261.348 190.473 261.247 190.59 261.18C190.708 261.113 190.843 261.084 190.977 261.097C191.092 261.156 191.184 261.254 191.235 261.373C191.286 261.492 191.294 261.626 191.258 261.75C190.969 262.785 190.812 263.851 190.79 264.925L196.498 265.578C196.568 264.38 196.756 263.192 197.059 262.03C197.079 261.966 197.113 261.906 197.158 261.856C197.204 261.806 197.26 261.766 197.322 261.739C197.384 261.713 197.452 261.7 197.519 261.702C197.587 261.704 197.654 261.72 197.714 261.75C197.901 261.75 198.088 262.03 197.995 262.31C197.677 263.564 197.489 264.847 197.433 266.138C197.408 266.278 197.343 266.408 197.246 266.512L196.966 266.605Z" fill="#F0B576"/>
<path d="M127.63 352.688C127.555 352.688 127.484 352.658 127.431 352.606C127.379 352.553 127.349 352.482 127.349 352.408V229.912C127.349 229.726 127.443 229.632 127.536 229.632H127.817C132.308 236.541 138.765 235.048 138.858 235.048C138.952 235.048 139.045 235.048 139.045 235.234C141.759 242.05 150.274 244.197 153.362 244.384L153.549 244.571C156.543 253.814 167.117 258.109 171.514 259.509C171.608 259.603 171.701 259.696 171.608 259.883C171.598 259.91 171.583 259.934 171.563 259.954C171.542 259.974 171.518 259.989 171.49 259.998C171.463 260.007 171.435 260.01 171.406 260.006C171.378 260.002 171.351 259.992 171.327 259.976C166.929 258.576 156.262 254.187 153.175 244.851C149.9 244.571 141.572 242.33 138.765 235.514C137.642 235.701 132.028 236.355 127.817 230.566V352.408C127.817 352.595 127.723 352.688 127.63 352.688Z" fill="white"/>
<path d="M127.63 357.636C129.232 357.636 130.53 356.34 130.53 354.742C130.53 353.143 129.232 351.848 127.63 351.848C126.028 351.848 124.729 353.143 124.729 354.742C124.729 356.34 126.028 357.636 127.63 357.636Z" fill="white"/>
<path d="M124.916 353.715H130.343L129.782 352.781H125.478C125.206 353.033 125.011 353.357 124.916 353.715Z" fill="#FA4E89"/>
<path d="M178.064 314.968C185.363 315.528 189.854 314.408 192.474 312.447C192.568 310.954 192.568 309.646 192.661 308.339C189.012 309.46 184.24 310.113 177.877 310.3C177.877 311.14 177.971 311.981 177.971 312.821C177.971 313.661 178.064 313.755 178.064 314.221C178.079 314.474 178.048 314.727 177.971 314.968H178.064Z" fill="#43506B"/>
<path d="M157.853 305.912C157.666 307.032 157.572 308.153 157.479 309.367C157.385 310.58 157.385 310.207 157.292 310.58C162.084 311.398 166.933 311.835 171.795 311.888L172.263 307.406C167.436 307.172 162.625 306.673 157.853 305.912Z" fill="#43506B"/>
</g>
<defs>
<linearGradient id="paint0_linear_1814_59782" x1="254.314" y1="242.255" x2="209.917" y2="177.341" gradientUnits="userSpaceOnUse">
<stop offset="0.03" stop-color="white"/>
<stop offset="1" stop-color="#CCBDFF"/>
</linearGradient>
<linearGradient id="paint1_linear_1814_59782" x1="106.907" y1="322.629" x2="12.9082" y2="322.629" gradientUnits="userSpaceOnUse">
<stop stop-color="white"/>
<stop offset="1" stop-color="#CCBDFF"/>
</linearGradient>
<linearGradient id="paint2_linear_1814_59782" x1="114.648" y1="265.639" x2="140.653" y2="240.758" gradientUnits="userSpaceOnUse">
<stop stop-color="white"/>
<stop offset="1" stop-color="#CCBDFF"/>
</linearGradient>
<linearGradient id="paint3_linear_1814_59782" x1="330.799" y1="164.51" x2="335.383" y2="190.731" gradientUnits="userSpaceOnUse">
<stop offset="0.26" stop-color="#56BAD6"/>
<stop offset="1" stop-color="#348CB5"/>
</linearGradient>
<linearGradient id="paint4_linear_1814_59782" x1="246.155" y1="227.877" x2="243.089" y2="216.782" gradientUnits="userSpaceOnUse">
<stop stop-color="#9E2FAD"/>
<stop offset="1" stop-color="#922DA8"/>
</linearGradient>
<linearGradient id="paint5_linear_1814_59782" x1="256.391" y1="256.162" x2="240.629" y2="236.764" gradientUnits="userSpaceOnUse">
<stop stop-color="#9E2FAD"/>
<stop offset="1" stop-color="#AE3DC6"/>
</linearGradient>
<linearGradient id="paint6_linear_1814_59782" x1="11577.5" y1="8821.36" x2="11342" y2="8621.36" gradientUnits="userSpaceOnUse">
<stop stop-color="#9E2FAD"/>
<stop offset="1" stop-color="#AE3DC6"/>
</linearGradient>
<linearGradient id="paint7_linear_1814_59782" x1="27149.5" y1="8883.62" x2="26970.4" y2="8829.24" gradientUnits="userSpaceOnUse">
<stop stop-color="#9E2FAD"/>
<stop offset="1" stop-color="#AE3DC6"/>
</linearGradient>
<linearGradient id="paint8_linear_1814_59782" x1="177.147" y1="227.466" x2="206.154" y2="227.466" gradientUnits="userSpaceOnUse">
<stop stop-color="#9E2FAD"/>
<stop offset="1" stop-color="#B84DCF"/>
</linearGradient>
<clipPath id="clip0_1814_59782">
<rect width="372.316" height="368" fill="white"/>
</clipPath>
</defs>
</svg>
