<svg width="433" height="508" viewBox="0 0 433 508" fill="none" xmlns="http://www.w3.org/2000/svg">
<path d="M122.27 26.4248H310.73C320.436 81.7008 357.643 104.89 406.848 115.136V192.388C406.848 289.323 358.721 380.191 277.702 436.546L216.5 476.452L155.298 436.546C74.2788 380.191 26.1527 289.323 26.1527 192.388V115.271C75.3573 104.89 112.564 81.8356 122.27 26.4248Z" fill="#8CD9FF"/>
<path d="M310.73 26.4246C320.436 81.7006 357.643 104.89 406.847 115.136V192.387C406.847 289.323 358.721 380.191 277.702 436.546L216.5 476.452L155.298 436.546C74.2787 380.191 26.1526 289.323 26.1526 192.387V115.271C75.3571 104.89 112.564 81.8354 122.27 26.5594H310.73M331.76 1.34814H310.595H122.27H101.105L97.4655 22.1104C93.9605 42.3333 85.8721 57.4331 72.7958 68.3534C60.798 78.4649 43.8123 85.7452 20.8951 90.4638L1.07849 94.7781V115.136V192.387C1.07849 218.408 4.31387 244.428 10.6498 269.639C16.8509 294.581 26.1526 318.713 38.1504 341.498C50.1482 364.282 64.977 385.584 82.0974 404.998C99.4875 424.681 119.304 442.208 140.873 457.308L141.143 457.577L141.413 457.847L202.615 497.754L216.365 506.787L230.116 497.754L291.318 457.847L291.587 457.577L291.857 457.308C313.561 442.208 333.243 424.681 350.633 404.998C367.753 385.584 382.582 364.282 394.58 341.498C406.578 318.713 415.88 294.581 422.081 269.639C428.417 244.428 431.652 218.408 431.652 192.387V115.271V94.7781L411.97 90.5987C389.053 85.7452 372.202 78.5997 360.069 68.4883C346.993 57.5679 339.04 42.4681 335.4 22.2452L331.76 1.34814Z" fill="#2636C7"/>
<path d="M216.5 449.354L162.173 413.222C91.399 363.204 49.2045 281.908 49.2045 195.893V130.505L51.0918 130.101C73.6045 125.247 92.4775 116.484 106.902 103.946C123.213 89.7898 133.459 71.3196 137.368 48.9395L137.773 46.9172H295.362L295.766 48.9395C299.541 71.3196 309.786 89.7898 326.233 103.946C340.657 116.484 359.53 125.247 382.043 130.101L383.93 130.505V195.758C383.93 281.773 341.736 363.069 271.097 413.087L216.5 449.354ZM54.0575 134.415V195.758C54.0575 280.29 95.4432 359.968 164.869 409.177L216.5 443.421L268.131 409.042C337.422 359.968 378.942 280.155 378.942 195.758V134.415C330.412 123.495 299.406 94.2389 291.318 51.7707H141.682C133.594 94.2389 102.588 123.495 54.0575 134.415Z" fill="#45AAF7"/>
<path d="M322.189 161.918C315.179 157.469 310.46 150.054 309.247 141.83L307.09 127.809C306.955 127.135 306.416 126.596 305.742 126.596C305.068 126.596 304.394 127.135 304.394 127.809L302.237 141.83C301.024 150.054 296.306 157.335 289.296 161.918L287.543 163.132C287.139 163.401 286.869 163.806 286.869 164.345V164.48C286.869 165.019 287.139 165.424 287.543 165.693L289.296 166.907C296.306 171.356 301.024 178.771 302.237 186.995L304.394 201.016C304.529 201.69 305.068 202.229 305.742 202.229C306.416 202.229 307.09 201.69 307.09 201.016L309.247 186.995C310.46 178.771 315.179 171.491 322.189 166.907L323.941 165.693C324.345 165.424 324.615 165.019 324.615 164.48V164.345C324.615 163.806 324.345 163.401 323.941 163.132L322.189 161.918Z" fill="white"/>
<path d="M344.836 217.464C341.196 215.037 338.635 211.262 337.961 206.948L336.883 199.533C336.883 199.129 336.478 198.859 336.209 198.859C335.804 198.859 335.535 199.129 335.535 199.533L334.456 206.948C333.782 211.262 331.356 215.172 327.581 217.464L326.637 218.138C326.368 218.273 326.233 218.543 326.233 218.812C326.233 219.082 326.368 219.351 326.637 219.486L327.581 220.16C331.221 222.587 333.782 226.362 334.456 230.676L335.535 238.091C335.535 238.496 335.939 238.765 336.209 238.765C336.613 238.765 336.883 238.496 336.883 238.091L337.961 230.676C338.635 226.362 341.062 222.452 344.836 220.16L345.78 219.486C346.05 219.351 346.184 219.082 346.184 218.812C346.184 218.543 346.05 218.273 345.78 218.138L344.836 217.464Z" fill="white"/>
<path d="M259.234 192.387C251.28 188.747 242.788 186.051 233.89 184.568C232.812 186.455 231.464 189.152 230.655 191.174C221.218 189.826 211.782 189.826 202.48 191.174C201.537 189.152 200.323 186.455 199.245 184.568C190.348 186.051 181.855 188.747 173.766 192.387C157.724 216.115 153.276 239.304 155.567 262.224C166.217 270.043 176.597 274.762 186.708 277.863C189.269 274.492 191.426 270.852 193.313 267.077C189.674 265.729 186.169 263.976 182.798 262.089C183.742 261.415 184.551 260.741 185.36 260.067C205.581 269.369 227.554 269.369 247.641 260.067C248.449 260.741 249.393 261.415 250.202 262.089C246.832 264.111 243.327 265.729 239.687 267.077C241.574 270.852 243.866 274.492 246.293 277.863C256.403 274.762 266.783 270.043 277.433 262.224C279.994 235.664 273.119 212.745 259.234 192.387ZM196.009 248.202C189.943 248.202 184.955 242.675 184.955 235.934C184.955 229.193 189.808 223.665 196.009 223.665C202.211 223.665 207.198 229.193 207.064 235.934C207.064 242.675 202.211 248.202 196.009 248.202ZM236.991 248.202C230.925 248.202 225.937 242.675 225.937 235.934C225.937 229.193 230.79 223.665 236.991 223.665C243.192 223.665 248.18 229.193 248.045 235.934C248.045 242.675 243.057 248.202 236.991 248.202Z" fill="black"/>
<path d="M267.861 73.6112H165.408C152.062 73.6112 141.143 62.8256 141.143 49.4785C141.143 48.1303 142.221 47.0518 143.569 47.0518C144.917 47.0518 145.996 48.1303 145.996 49.4785C145.996 60.1293 154.758 68.7577 165.408 68.7577H267.861C278.646 68.7577 287.273 60.1293 287.273 49.4785C287.273 48.1303 288.352 47.0518 289.7 47.0518C291.048 47.0518 292.126 48.1303 292.126 49.4785C292.126 62.8256 281.207 73.6112 267.861 73.6112Z" fill="#45AAF7"/>
<path d="M310.73 26.4246C320.436 81.7006 357.643 104.89 406.847 115.136V192.387C406.847 289.323 358.721 380.191 277.702 436.546L216.5 476.452L155.298 436.546C74.2786 380.191 26.1525 289.323 26.1525 192.387V115.271C75.357 104.89 112.564 81.8354 122.27 26.5594H310.73M331.76 1.34814H310.595H122.27H101.105L97.4653 22.1104C90.725 60.6687 68.6166 80.622 21.0298 90.5987L1.07837 94.7781V115.136V192.387C1.07837 297.277 53.3835 396.235 141.008 457.173L141.278 457.443L141.547 457.712L202.75 497.619L216.5 506.652L230.25 497.619L291.453 457.712L291.722 457.443L291.992 457.173C379.616 396.235 431.921 297.277 431.921 192.387V115.271V94.7781L411.97 90.5987C364.383 80.622 342.14 60.8036 335.4 22.1104L331.76 1.34814Z" fill="#45AAF7"/>
<path d="M216.5 508L202.076 498.563L140.604 458.386L140.334 458.117C52.4399 397.044 0 297.682 0 192.387V93.8344L20.8951 89.3853C67.9427 79.5435 89.7814 59.9947 96.387 21.8408L100.162 0H332.838L336.613 21.8408C343.219 59.8599 365.192 79.4087 412.105 89.3853L433 93.8344V192.522C433 297.816 380.56 397.178 292.666 458.252L291.992 458.656L216.5 508ZM2.29169 95.7219V192.387C2.29169 296.873 54.3272 395.561 141.682 456.229L142.221 456.634L216.5 505.169L291.318 456.229C378.538 395.561 430.708 296.873 430.708 192.387V95.7219L411.7 91.6773C363.574 81.5658 341.062 61.4777 334.321 22.2452L330.816 2.42675H102.184L98.6787 22.2452C91.8036 61.4777 69.4256 81.5658 21.2995 91.6773L2.29169 95.7219ZM216.5 478.07L215.826 477.666L154.624 437.759C73.4698 381.27 24.9393 289.592 24.9393 192.522V114.327L25.8829 114.192C52.7095 108.53 73.0653 99.6316 88.1637 86.9586C105.689 72.2633 116.473 52.4448 120.922 26.4246L121.057 25.4809H311.539L311.674 26.4246C316.257 52.4448 326.907 72.2633 344.432 86.9586C359.53 99.6316 380.021 108.53 406.713 114.192L407.656 114.327V192.522C407.656 289.592 359.261 381.27 278.107 437.624L216.5 478.07ZM27.3658 116.214V192.522C27.3658 288.783 75.4919 379.652 155.972 435.737L216.5 475.239L277.028 435.737C357.508 379.787 405.634 288.918 405.634 192.522V116.214C378.942 110.552 358.452 101.519 343.219 88.7112C325.424 73.8811 314.505 53.9278 309.786 27.7728H123.348C118.63 53.9278 107.711 73.8811 89.9163 88.7112C74.5483 101.384 54.0576 110.417 27.3658 116.214Z" fill="#45AAF7"/>
</svg>
